<?xml version="1.0" encoding="UTF-8" standalone="no"?>
<svg
   version="1.1"
   viewBox="0 0 439 155"
   fill="none"
   stroke="none"
   stroke-linecap="square"
   stroke-miterlimit="10"
   id="svg57"
   sodipodi:docname="1_sample_slice_4_6.svg"
   width="439"
   height="155"
   inkscape:version="1.3.2 (091e20e, 2023-11-25)"
   xmlns:inkscape="http://www.inkscape.org/namespaces/inkscape"
   xmlns:sodipodi="http://sodipodi.sourceforge.net/DTD/sodipodi-0.dtd"
   xmlns="http://www.w3.org/2000/svg"
   xmlns:svg="http://www.w3.org/2000/svg">
  <defs
     id="defs57" />
  <sodipodi:namedview
     id="namedview57"
     pagecolor="#ffffff"
     bordercolor="#000000"
     borderopacity="0.25"
     inkscape:showpageshadow="2"
     inkscape:pageopacity="0.0"
     inkscape:pagecheckerboard="0"
     inkscape:deskcolor="#d1d1d1"
     inkscape:zoom="0.43703704"
     inkscape:cx="480.50847"
     inkscape:cy="270"
     inkscape:window-width="1416"
     inkscape:window-height="749"
     inkscape:window-x="0"
     inkscape:window-y="38"
     inkscape:window-maximized="0"
     inkscape:current-layer="g57" />
  <clipPath
     id="g1f1c06f5d6c_0_0.0">
    <path
       d="M 0,0 H 960 V 540 H 0 Z"
       clip-rule="nonzero"
       id="path1" />
  </clipPath>
  <g
     clip-path="url(#g1f1c06f5d6c_0_0.0)"
     id="g57">
    <path
       fill="#ffffff"
       d="M 0,0 H 436.01694 V 153.30509 H 0 Z"
       fill-rule="evenodd"
       id="path2"
       style="stroke-width:0.359085" />
    <path
       shape-rendering="crispEdges"
       fill="#d9ead3"
       d="m 136.17638,57.932203 h 40.19425 v 40 h -40.19425 z"
       fill-rule="nonzero"
       id="path3" />
    <path
       shape-rendering="crispEdges"
       fill="#d9ead3"
       d="m 176.37062,57.932203 h 40.19422 v 40 h -40.19422 z"
       fill-rule="nonzero"
       id="path4" />
    <path
       shape-rendering="crispEdges"
       fill="#d9ead3"
       d="m 216.56484,57.932203 h 40.19422 v 40 h -40.19422 z"
       fill-rule="nonzero"
       id="path5" />
    <path
       shape-rendering="crispEdges"
       fill="#d9ead3"
       d="m 256.75904,57.932203 h 40.19425 v 40 h -40.19425 z"
       fill-rule="nonzero"
       id="path6" />
    <path
       shape-rendering="crispEdges"
       fill="#d9d9d9"
       d="m 296.9533,57.932203 h 40.19422 v 40 H 296.9533 Z"
       fill-rule="nonzero"
       id="path7" />
    <path
       shape-rendering="crispEdges"
       fill="#d9d9d9"
       d="m 337.14751,57.932203 h 40.19422 v 40 h -40.19422 z"
       fill-rule="nonzero"
       id="path8" />
    <path
       stroke="#9e9e9e"
       stroke-width="1"
       stroke-linecap="butt"
       d="M 136.17638,57.433513 V 98.430888"
       fill-rule="nonzero"
       id="path9" />
    <path
       stroke="#9e9e9e"
       stroke-width="1"
       stroke-linecap="butt"
       d="M 176.37062,57.433513 V 98.430888"
       fill-rule="nonzero"
       id="path10" />
    <path
       stroke="#9e9e9e"
       stroke-width="1"
       stroke-linecap="butt"
       d="M 216.56484,57.433513 V 98.430888"
       fill-rule="nonzero"
       id="path11" />
    <path
       stroke="#9e9e9e"
       stroke-width="1"
       stroke-linecap="butt"
       d="M 256.75904,57.433513 V 98.430888"
       fill-rule="nonzero"
       id="path12" />
    <path
       stroke="#9e9e9e"
       stroke-width="1"
       stroke-linecap="butt"
       d="M 296.9533,57.433513 V 98.430888"
       fill-rule="nonzero"
       id="path13" />
    <path
       stroke="#9e9e9e"
       stroke-width="1"
       stroke-linecap="butt"
       d="M 337.14751,57.433513 V 98.430888"
       fill-rule="nonzero"
       id="path14" />
    <path
       stroke="#9e9e9e"
       stroke-width="1"
       stroke-linecap="butt"
       d="M 377.34174,57.433513 V 98.430888"
       fill-rule="nonzero"
       id="path15" />
    <path
       stroke="#9e9e9e"
       stroke-width="1"
       stroke-linecap="butt"
       d="M 135.67769,57.932203 H 377.84044"
       fill-rule="nonzero"
       id="path16" />
    <path
       stroke="#9e9e9e"
       stroke-width="1"
       stroke-linecap="butt"
       d="M 135.67769,97.932203 H 377.84044"
       fill-rule="nonzero"
       id="path17" />
    <path
       fill="#1155cc"
       d="m 145.37924,71.794703 v 1.359375 h -1.25 v -1.078125 q 0,-0.875 0.20313,-1.265625 0.26562,-0.515625 0.85937,-0.78125 l 0.29688,0.453125 q -0.35938,0.15625 -0.53125,0.453125 -0.17188,0.296875 -0.1875,0.859375 z m 2.01563,0 v 1.359375 h -1.25 v -1.078125 q 0,-0.875 0.20312,-1.265625 0.28125,-0.515625 0.85938,-0.78125 l 0.29687,0.453125 q -0.35937,0.15625 -0.53125,0.453125 -0.17187,0.296875 -0.1875,0.859375 z m 1.59463,7.9375 v -9.546875 h 3.59375 q 1.09375,0 1.75,0.296875 0.65625,0.28125 1.03125,0.890625 0.375,0.609375 0.375,1.265625 0,0.609375 -0.34375,1.15625 -0.32812,0.53125 -0.98437,0.859375 0.85937,0.25 1.32812,0.875 0.46875,0.609375 0.46875,1.4375 0,0.671875 -0.29687,1.25 -0.28125,0.578125 -0.70313,0.890625 -0.40625,0.3125 -1.03125,0.46875 -0.625,0.15625 -1.54687,0.15625 z m 1.26563,-5.53125 h 2.0625 q 0.84375,0 1.20312,-0.109375 0.48438,-0.140625 0.71875,-0.46875 0.25,-0.34375 0.25,-0.84375 0,-0.46875 -0.23437,-0.828125 -0.21875,-0.359375 -0.64063,-0.5 -0.42187,-0.140625 -1.45312,-0.140625 h -1.90625 z m 0,4.40625 h 2.375 q 0.60937,0 0.85937,-0.04687 0.4375,-0.07813 0.73438,-0.25 0.29687,-0.1875 0.48437,-0.53125 0.1875,-0.359375 0.1875,-0.8125 0,-0.53125 -0.28125,-0.921875 -0.26562,-0.40625 -0.75,-0.5625 -0.48437,-0.15625 -1.40625,-0.15625 h -2.20312 z m 12.04599,0.265625 q -0.65625,0.5625 -1.26563,0.796875 -0.59375,0.21875 -1.28125,0.21875 -1.14062,0 -1.75,-0.546875 -0.60937,-0.5625 -0.60937,-1.4375 0,-0.5 0.21875,-0.921875 0.23437,-0.421875 0.60937,-0.671875 0.375,-0.25 0.84375,-0.390625 0.34375,-0.07813 1.04688,-0.171875 1.42187,-0.171875 2.09375,-0.40625 0,-0.234375 0,-0.296875 0,-0.71875 -0.32813,-1.015625 -0.45312,-0.390625 -1.34375,-0.390625 -0.8125,0 -1.21875,0.296875 -0.39062,0.28125 -0.57812,1.015625 l -1.14063,-0.15625 q 0.15625,-0.734375 0.51563,-1.1875 0.35937,-0.453125 1.03125,-0.6875 0.67187,-0.25 1.5625,-0.25 0.89062,0 1.4375,0.203125 0.5625,0.203125 0.8125,0.53125 0.26562,0.3125 0.375,0.796875 0.0469,0.296875 0.0469,1.078125 v 1.5625 q 0,1.625 0.0781,2.0625 0.0781,0.4375 0.29687,0.828125 h -1.21875 q -0.1875,-0.359375 -0.23437,-0.859375 z m -0.0937,-2.609375 q -0.64063,0.265625 -1.92188,0.4375 -0.71875,0.109375 -1.01562,0.25 -0.29688,0.125 -0.46875,0.375 -0.15625,0.25 -0.15625,0.546875 0,0.46875 0.34375,0.78125 0.35937,0.3125 1.04687,0.3125 0.67188,0 1.20313,-0.296875 0.53125,-0.296875 0.78125,-0.8125 0.1875,-0.390625 0.1875,-1.171875 z m 5.5531,2.421875 0.17187,1.03125 q -0.5,0.109375 -0.89062,0.109375 -0.64063,0 -1,-0.203125 -0.34375,-0.203125 -0.48438,-0.53125 -0.14062,-0.328125 -0.14062,-1.390625 v -3.96875 h -0.85938 v -0.90625 h 0.85938 v -1.71875 l 1.17187,-0.703125 v 2.421875 h 1.17188 v 0.90625 h -1.17188 v 4.046875 q 0,0.5 0.0469,0.640625 0.0625,0.140625 0.20312,0.234375 0.14063,0.07813 0.40625,0.07813 0.20313,0 0.51563,-0.04687 z m 0.828,-7.234375 v -1.359375 h 1.26563 v 1.078125 q 0,0.875 -0.20313,1.25 -0.28125,0.53125 -0.875,0.796875 l -0.28125,-0.453125 q 0.34375,-0.15625 0.51563,-0.453125 0.17187,-0.3125 0.1875,-0.859375 z m 2.01563,0 v -1.359375 h 1.26562 v 1.078125 q 0,0.875 -0.20312,1.25 -0.28125,0.53125 -0.875,0.796875 l -0.28125,-0.453125 q 0.34375,-0.15625 0.51562,-0.453125 0.17188,-0.3125 0.20313,-0.859375 z"
       fill-rule="nonzero"
       id="path18" />
    <path
       fill="#1155cc"
       d="m 181.87047,71.794703 v 1.359375 h -1.25 v -1.078125 q 0,-0.875 0.20313,-1.265625 0.26562,-0.515625 0.85937,-0.78125 l 0.29688,0.453125 q -0.35938,0.15625 -0.53125,0.453125 -0.17188,0.296875 -0.1875,0.859375 z m 2.01563,0 v 1.359375 h -1.25 v -1.078125 q 0,-0.875 0.20312,-1.265625 0.28125,-0.515625 0.85938,-0.78125 l 0.29687,0.453125 q -0.35937,0.15625 -0.53125,0.453125 -0.17187,0.296875 -0.1875,0.859375 z m 1.71963,7.9375 v -9.546875 h 6.4375 v 1.125 h -5.17187 v 2.96875 h 4.46875 v 1.125 h -4.46875 v 4.328125 z m 7.48511,-3.453125 q 0,-1.921875 1.07813,-2.84375 0.89062,-0.765625 2.17187,-0.765625 1.42188,0 2.32813,0.9375 0.90625,0.921875 0.90625,2.578125 0,1.328125 -0.40625,2.09375 -0.39063,0.765625 -1.15625,1.1875 -0.76563,0.421875 -1.67188,0.421875 -1.45312,0 -2.35937,-0.921875 -0.89063,-0.9375 -0.89063,-2.6875 z m 1.20313,0 q 0,1.328125 0.57812,1.984375 0.59375,0.65625 1.46875,0.65625 0.875,0 1.45313,-0.65625 0.57812,-0.671875 0.57812,-2.03125 0,-1.28125 -0.59375,-1.9375 -0.57812,-0.65625 -1.4375,-0.65625 -0.875,0 -1.46875,0.65625 -0.57812,0.65625 -0.57812,1.984375 z m 5.8656,3.453125 2.53125,-3.59375 -2.34375,-3.3125 h 1.46875 l 1.0625,1.609375 q 0.29687,0.46875 0.48437,0.78125 0.28125,-0.4375 0.51563,-0.765625 l 1.17187,-1.625 h 1.40625 l -2.39062,3.25 2.5625,3.65625 h -1.4375 l -1.42188,-2.140625 -0.375,-0.59375 -1.8125,2.734375 z m 7.13281,-8.28125 v -1.359375 h 1.26562 v 1.078125 q 0,0.875 -0.20312,1.25 -0.28125,0.53125 -0.875,0.796875 l -0.28125,-0.453125 q 0.34375,-0.15625 0.51562,-0.453125 0.17188,-0.3125 0.1875,-0.859375 z m 2.01562,0 v -1.359375 h 1.26563 v 1.078125 q 0,0.875 -0.20313,1.25 -0.28125,0.53125 -0.875,0.796875 l -0.28125,-0.453125 q 0.34375,-0.15625 0.51563,-0.453125 0.17187,-0.3125 0.20312,-0.859375 z"
       fill-rule="nonzero"
       id="path19" />
    <path
       fill="#1155cc"
       d="m 222.06468,71.794703 v 1.359375 h -1.25 v -1.078125 q 0,-0.875 0.20313,-1.265625 0.26562,-0.515625 0.85937,-0.78125 l 0.29688,0.453125 q -0.35938,0.15625 -0.53125,0.453125 -0.17188,0.296875 -0.1875,0.859375 z m 2.01563,0 v 1.359375 h -1.25 v -1.078125 q 0,-0.875 0.20312,-1.265625 0.28125,-0.515625 0.85938,-0.78125 l 0.29687,0.453125 q -0.35937,0.15625 -0.53125,0.453125 -0.17187,0.296875 -0.1875,0.859375 z m 1.26651,3.296875 q 0,-2.375 1.28125,-3.71875 1.28125,-1.34375 3.29687,-1.34375 1.3125,0 2.375,0.625 1.0625,0.625 1.60938,1.765625 0.5625,1.125 0.5625,2.5625 0,1.4375 -0.59375,2.59375 -0.57813,1.140625 -1.65625,1.734375 -1.0625,0.578125 -2.3125,0.578125 -1.34375,0 -2.40625,-0.640625 -1.0625,-0.65625 -1.60938,-1.78125 -0.54687,-1.125 -0.54687,-2.375 z m 1.3125,0.01563 q 0,1.71875 0.92187,2.71875 0.92188,0.984375 2.32813,0.984375 1.42187,0 2.34375,-1 0.92187,-1 0.92187,-2.84375 0,-1.15625 -0.40625,-2.03125 -0.39062,-0.875 -1.15625,-1.34375 -0.75,-0.484375 -1.6875,-0.484375 -1.34375,0 -2.3125,0.921875 -0.95312,0.921875 -0.95312,3.078125 z m 10.57016,4.625 -2.125,-6.90625 h 1.21875 l 1.09375,3.984375 0.42187,1.484375 q 0.0156,-0.109375 0.35938,-1.421875 l 1.09375,-4.046875 h 1.20312 l 1.03125,4 0.34375,1.328125 0.40625,-1.34375 1.17188,-3.984375 h 1.14062 l -2.15625,6.90625 h -1.21875 l -1.09375,-4.140625 -0.26562,-1.171875 -1.40625,5.3125 z m 8.32828,0 v -9.546875 h 1.17187 v 9.546875 z m 2.66421,-8.28125 v -1.359375 h 1.26563 v 1.078125 q 0,0.875 -0.20313,1.25 -0.28125,0.53125 -0.875,0.796875 l -0.28125,-0.453125 q 0.34375,-0.15625 0.51563,-0.453125 0.17187,-0.3125 0.1875,-0.859375 z m 2.01563,0 v -1.359375 h 1.26562 v 1.078125 q 0,0.875 -0.20312,1.25 -0.28125,0.53125 -0.875,0.796875 l -0.28125,-0.453125 q 0.34375,-0.15625 0.51562,-0.453125 0.17188,-0.3125 0.20313,-0.859375 z"
       fill-rule="nonzero"
       id="path20" />
    <path
       fill="#1155cc"
       d="m 262.25894,71.794703 v 1.359375 h -1.25 v -1.078125 q 0,-0.875 0.20313,-1.265625 0.26562,-0.515625 0.85937,-0.78125 l 0.29688,0.453125 q -0.35938,0.15625 -0.53125,0.453125 -0.17188,0.296875 -0.1875,0.859375 z m 2.01563,0 v 1.359375 h -1.25 v -1.078125 q 0,-0.875 0.20312,-1.265625 0.28125,-0.515625 0.85938,-0.78125 l 0.29687,0.453125 q -0.35937,0.15625 -0.53125,0.453125 -0.17187,0.296875 -0.1875,0.859375 z m 1.7196,7.9375 v -9.546875 h 6.4375 v 1.125 h -5.17187 v 2.96875 h 4.46875 v 1.125 h -4.46875 v 4.328125 z m 7.48511,-3.453125 q 0,-1.921875 1.07813,-2.84375 0.89062,-0.765625 2.17187,-0.765625 1.42188,0 2.32813,0.9375 0.90625,0.921875 0.90625,2.578125 0,1.328125 -0.40625,2.09375 -0.39063,0.765625 -1.15625,1.1875 -0.76563,0.421875 -1.67188,0.421875 -1.45312,0 -2.35937,-0.921875 -0.89063,-0.9375 -0.89063,-2.6875 z m 1.20313,0 q 0,1.328125 0.57812,1.984375 0.59375,0.65625 1.46875,0.65625 0.875,0 1.45313,-0.65625 0.57812,-0.671875 0.57812,-2.03125 0,-1.28125 -0.59375,-1.9375 -0.57812,-0.65625 -1.4375,-0.65625 -0.875,0 -1.46875,0.65625 -0.57812,0.65625 -0.57812,1.984375 z m 5.8656,3.453125 2.53125,-3.59375 -2.34375,-3.3125 h 1.46875 l 1.0625,1.609375 q 0.29687,0.46875 0.48437,0.78125 0.28125,-0.4375 0.51563,-0.765625 l 1.17187,-1.625 h 1.40625 l -2.39062,3.25 2.5625,3.65625 h -1.4375 l -1.42188,-2.140625 -0.375,-0.59375 -1.8125,2.734375 z m 7.13281,-8.28125 v -1.359375 h 1.26562 v 1.078125 q 0,0.875 -0.20312,1.25 -0.28125,0.53125 -0.875,0.796875 l -0.28125,-0.453125 q 0.34375,-0.15625 0.51562,-0.453125 0.17188,-0.3125 0.1875,-0.859375 z m 2.01562,0 v -1.359375 h 1.26563 v 1.078125 q 0,0.875 -0.20313,1.25 -0.28125,0.53125 -0.875,0.796875 l -0.28125,-0.453125 q 0.34375,-0.15625 0.51563,-0.453125 0.17187,-0.3125 0.20312,-0.859375 z"
       fill-rule="nonzero"
       id="path21" />
    <path
       fill="#434343"
       d="m 302.45314,71.794703 v 1.359375 h -1.25 v -1.078125 q 0,-0.875 0.20313,-1.265625 0.26562,-0.515625 0.85937,-0.78125 l 0.29688,0.453125 q -0.35938,0.15625 -0.53125,0.453125 -0.17188,0.296875 -0.1875,0.859375 z m 2.01563,0 v 1.359375 h -1.25 v -1.078125 q 0,-0.875 0.20312,-1.265625 0.28125,-0.515625 0.85938,-0.78125 l 0.29687,0.453125 q -0.35937,0.15625 -0.53125,0.453125 -0.17187,0.296875 -0.1875,0.859375 z m 1.59463,7.9375 v -9.546875 h 3.59375 q 1.09375,0 1.75,0.296875 0.65625,0.28125 1.03125,0.890625 0.375,0.609375 0.375,1.265625 0,0.609375 -0.34375,1.15625 -0.32812,0.53125 -0.98437,0.859375 0.85937,0.25 1.32812,0.875 0.46875,0.609375 0.46875,1.4375 0,0.671875 -0.29687,1.25 -0.28125,0.578125 -0.70313,0.890625 -0.40625,0.3125 -1.03125,0.46875 -0.625,0.15625 -1.54687,0.15625 z m 1.26563,-5.53125 h 2.0625 q 0.84375,0 1.20312,-0.109375 0.48438,-0.140625 0.71875,-0.46875 0.25,-0.34375 0.25,-0.84375 0,-0.46875 -0.23437,-0.828125 -0.21875,-0.359375 -0.64063,-0.5 -0.42187,-0.140625 -1.45312,-0.140625 h -1.90625 z m 0,4.40625 h 2.375 q 0.60937,0 0.85937,-0.04687 0.4375,-0.07813 0.73438,-0.25 0.29687,-0.1875 0.48437,-0.53125 0.1875,-0.359375 0.1875,-0.8125 0,-0.53125 -0.28125,-0.921875 -0.26562,-0.40625 -0.75,-0.5625 -0.48437,-0.15625 -1.40625,-0.15625 h -2.20312 z m 12.26474,-1.09375 1.20312,0.140625 q -0.28125,1.0625 -1.0625,1.65625 -0.76562,0.578125 -1.96875,0.578125 -1.51562,0 -2.40625,-0.9375 -0.89062,-0.9375 -0.89062,-2.609375 0,-1.75 0.89062,-2.703125 0.90625,-0.96875 2.34375,-0.96875 1.39063,0 2.26563,0.9375 0.875,0.9375 0.875,2.65625 0,0.109375 0,0.3125 h -5.15625 q 0.0625,1.140625 0.64062,1.75 0.57813,0.59375 1.4375,0.59375 0.65625,0 1.10938,-0.328125 0.45312,-0.34375 0.71875,-1.078125 z m -3.84375,-1.90625 h 3.85937 q -0.0781,-0.859375 -0.4375,-1.296875 -0.5625,-0.6875 -1.45312,-0.6875 -0.8125,0 -1.35938,0.546875 -0.54687,0.53125 -0.60937,1.4375 z m 11.25623,1.90625 1.20312,0.140625 q -0.28125,1.0625 -1.0625,1.65625 -0.76562,0.578125 -1.96875,0.578125 -1.51562,0 -2.40625,-0.9375 -0.89062,-0.9375 -0.89062,-2.609375 0,-1.75 0.89062,-2.703125 0.90625,-0.96875 2.34375,-0.96875 1.39063,0 2.26563,0.9375 0.875,0.9375 0.875,2.65625 0,0.109375 0,0.3125 H 323.1 q 0.0625,1.140625 0.64062,1.75 0.57813,0.59375 1.4375,0.59375 0.65625,0 1.10938,-0.328125 0.45312,-0.34375 0.71875,-1.078125 z m -3.84375,-1.90625 h 3.85937 q -0.0781,-0.859375 -0.4375,-1.296875 -0.5625,-0.6875 -1.45312,-0.6875 -0.8125,0 -1.35938,0.546875 -0.54687,0.53125 -0.60937,1.4375 z m 6.20935,-4.15625 v -1.359375 h 1.26562 v 1.078125 q 0,0.875 -0.20312,1.25 -0.28125,0.53125 -0.875,0.796875 l -0.28125,-0.453125 q 0.34375,-0.15625 0.51562,-0.453125 0.17188,-0.3125 0.1875,-0.859375 z m 2.01562,0 v -1.359375 h 1.26563 v 1.078125 q 0,0.875 -0.20313,1.25 -0.28125,0.53125 -0.875,0.796875 l -0.28125,-0.453125 q 0.34375,-0.15625 0.51563,-0.453125 0.17187,-0.3125 0.20312,-0.859375 z"
       fill-rule="nonzero"
       id="path22" />
    <path
       fill="#434343"
       d="m 342.64739,71.794703 v 1.359375 h -1.25 v -1.078125 q 0,-0.875 0.20313,-1.265625 0.26562,-0.515625 0.85937,-0.78125 l 0.29688,0.453125 q -0.35938,0.15625 -0.53125,0.453125 -0.17188,0.296875 -0.1875,0.859375 z m 2.01563,0 v 1.359375 h -1.25 v -1.078125 q 0,-0.875 0.20312,-1.265625 0.28125,-0.515625 0.85938,-0.78125 l 0.29687,0.453125 q -0.35937,0.15625 -0.53125,0.453125 -0.17187,0.296875 -0.1875,0.859375 z m 0.61023,7.9375 3.65625,-9.546875 h 1.35937 l 3.90625,9.546875 h -1.4375 l -1.10937,-2.890625 h -3.98438 l -1.04687,2.890625 z m 2.75,-3.921875 h 3.23437 l -1,-2.640625 q -0.45312,-1.203125 -0.67187,-1.96875 -0.1875,0.90625 -0.51563,1.8125 z m 7.03039,3.921875 v -6.90625 h 1.0625 v 0.984375 q 0.75,-1.140625 2.1875,-1.140625 0.625,0 1.15625,0.21875 0.53125,0.21875 0.78125,0.59375 0.26563,0.359375 0.375,0.859375 0.0625,0.328125 0.0625,1.140625 v 4.25 h -1.17187 v -4.203125 q 0,-0.71875 -0.14063,-1.0625 -0.14062,-0.359375 -0.48437,-0.5625 -0.34375,-0.21875 -0.8125,-0.21875 -0.75,0 -1.29688,0.46875 -0.54687,0.46875 -0.54687,1.796875 v 3.78125 z m 9.97498,-1.046875 0.17188,1.03125 q -0.5,0.109375 -0.89063,0.109375 -0.64062,0 -1,-0.203125 -0.34375,-0.203125 -0.48437,-0.53125 -0.14063,-0.328125 -0.14063,-1.390625 v -3.96875 h -0.85937 v -0.90625 h 0.85937 v -1.71875 l 1.17188,-0.703125 v 2.421875 h 1.17187 v 0.90625 h -1.17187 v 4.046875 q 0,0.5 0.0469,0.640625 0.0625,0.140625 0.20313,0.234375 0.14062,0.07813 0.40625,0.07813 0.20312,0 0.51562,-0.04687 z m 0.828,-7.234375 v -1.359375 h 1.26563 v 1.078125 q 0,0.875 -0.20313,1.25 -0.28125,0.53125 -0.875,0.796875 l -0.28125,-0.453125 q 0.34375,-0.15625 0.51563,-0.453125 0.17187,-0.3125 0.1875,-0.859375 z m 2.01563,0 v -1.359375 h 1.26562 v 1.078125 q 0,0.875 -0.20312,1.25 -0.28125,0.53125 -0.875,0.796875 l -0.28125,-0.453125 q 0.34375,-0.15625 0.51562,-0.453125 0.17188,-0.3125 0.20313,-0.859375 z"
       fill-rule="nonzero"
       id="path23" />
    <path
       fill="#000000"
       fill-opacity="0"
       d="m 123.64094,100.60937 h 39.24411 v 38.77166 h -39.24411 z"
       fill-rule="evenodd"
       id="path24" />
    <path
       fill="#000000"
       d="m 133.31282,119.31312 q 0,-2.03125 0.40625,-3.26562 0.42188,-1.23438 1.25,-1.90625 0.82813,-0.67188 2.07813,-0.67188 0.92187,0 1.60937,0.375 0.70313,0.35938 1.15625,1.0625 0.45313,0.70313 0.70313,1.70313 0.26562,1 0.26562,2.70312 0,2.01563 -0.42187,3.26563 -0.40625,1.23437 -1.23438,1.92187 -0.82812,0.67188 -2.07812,0.67188 -1.65625,0 -2.60938,-1.20313 -1.125,-1.42187 -1.125,-4.65625 z m 1.4375,0 q 0,2.82813 0.65625,3.76563 0.67188,0.92187 1.64063,0.92187 0.96875,0 1.625,-0.9375 0.65625,-0.9375 0.65625,-3.75 0,-2.82812 -0.65625,-3.75 -0.65625,-0.9375 -1.64063,-0.9375 -0.96875,0 -1.54687,0.82813 -0.73438,1.04687 -0.73438,3.85937 z"
       fill-rule="nonzero"
       id="path25" />
    <path
       fill="#000000"
       fill-opacity="0"
       d="m 288.69344,95.758973 h 70.07877 v 51.716537 h -70.07877 z"
       fill-rule="evenodd"
       id="path26" />
    <path
       fill="#000000"
       d="m 298.55281,117.55897 v -9.54687 h 1.17188 v 9.54687 z m 7.71109,-2.21875 1.20313,0.14063 q -0.28125,1.0625 -1.0625,1.65625 -0.76563,0.57812 -1.96875,0.57812 -1.51563,0 -2.40625,-0.9375 -0.89063,-0.9375 -0.89063,-2.60937 0,-1.75 0.89063,-2.70313 0.90625,-0.96875 2.34375,-0.96875 1.39062,0 2.26562,0.9375 0.875,0.9375 0.875,2.65625 0,0.10938 0,0.3125 h -5.15625 q 0.0625,1.14063 0.64063,1.75 0.57812,0.59375 1.4375,0.59375 0.65625,0 1.10937,-0.32812 0.45313,-0.34375 0.71875,-1.07813 z m -3.84375,-1.90625 h 3.85938 q -0.0781,-0.85937 -0.4375,-1.29687 -0.5625,-0.6875 -1.45313,-0.6875 -0.8125,0 -1.35937,0.54687 -0.54688,0.53125 -0.60938,1.4375 z m 6.52185,4.125 v -6.90625 h 1.0625 v 0.98438 q 0.75,-1.14063 2.1875,-1.14063 0.625,0 1.15625,0.21875 0.53125,0.21875 0.78125,0.59375 0.26563,0.35938 0.375,0.85938 0.0625,0.32812 0.0625,1.14062 v 4.25 h -1.17187 v -4.20312 q 0,-0.71875 -0.14063,-1.0625 -0.14062,-0.35938 -0.48437,-0.5625 -0.34375,-0.21875 -0.8125,-0.21875 -0.75,0 -1.29688,0.46875 -0.54687,0.46875 -0.54687,1.79687 v 3.78125 z m 9.66248,2.8125 q -0.98437,-1.23437 -1.65625,-2.875 -0.65625,-1.64062 -0.65625,-3.39062 0,-1.54688 0.5,-2.96875 0.57813,-1.64063 1.8125,-3.28125 h 0.82813 q -0.78125,1.35937 -1.03125,1.9375 -0.40625,0.89062 -0.625,1.875 -0.28125,1.21875 -0.28125,2.4375 0,3.14062 1.9375,6.26562 z m 1.71964,-4.875 1.15625,-0.1875 q 0.10937,0.70313 0.54687,1.07813 0.45313,0.35937 1.25,0.35937 0.8125,0 1.20313,-0.32812 0.39062,-0.32813 0.39062,-0.76563 0,-0.39062 -0.35937,-0.625 -0.23438,-0.15625 -1.1875,-0.39062 -1.29688,-0.32813 -1.79688,-0.5625 -0.48437,-0.25 -0.75,-0.65625 -0.25,-0.42188 -0.25,-0.9375 0,-0.45313 0.20313,-0.84375 0.21875,-0.40625 0.57812,-0.67188 0.28125,-0.1875 0.75,-0.32812 0.46875,-0.14063 1.01563,-0.14063 0.8125,0 1.42187,0.23438 0.60938,0.23437 0.90625,0.64062 0.29688,0.39063 0.40625,1.0625 l -1.14062,0.15625 q -0.0781,-0.53125 -0.45313,-0.82812 -0.375,-0.3125 -1.0625,-0.3125 -0.8125,0 -1.15625,0.26562 -0.34375,0.26563 -0.34375,0.625 0,0.23438 0.14063,0.42188 0.15625,0.1875 0.45312,0.3125 0.17188,0.0625 1.03125,0.29687 1.25,0.32813 1.73438,0.54688 0.5,0.20312 0.78125,0.60937 0.28125,0.40625 0.28125,1 0,0.59375 -0.34375,1.10938 -0.34375,0.51562 -1,0.79687 -0.64063,0.28125 -1.45313,0.28125 -1.34375,0 -2.04687,-0.5625 -0.70313,-0.5625 -0.90625,-1.65625 z m 7.89843,4.875 h -0.82812 q 1.9375,-3.125 1.9375,-6.26562 0,-1.21875 -0.28125,-2.42188 -0.21875,-0.98437 -0.60938,-1.875 -0.26562,-0.59375 -1.04687,-1.95312 h 0.82812 q 1.23438,1.64062 1.8125,3.28125 0.5,1.42187 0.5,2.96875 0,1.75 -0.67187,3.39062 -0.67188,1.64063 -1.64063,2.875 z"
       fill-rule="nonzero"
       id="path27" />
    <path
       fill="#000000"
       d="m 304.74031,127.9496 h -6.3125 v -1.09375 h 6.3125 z m 0,2.89063 h -6.3125 v -1.09375 h 6.3125 z m 8.75205,2.71875 v -2.28125 h -4.14063 v -1.07813 l 4.34375,-6.1875 h 0.96875 v 6.1875 h 1.28125 v 1.07813 h -1.28125 v 2.28125 z m 0,-3.35938 v -4.29687 l -2.98438,4.29687 z"
       fill-rule="nonzero"
       id="path28" />
    <path
       fill="#000000"
       fill-opacity="0"
       d="m 368.18164,95.758973 h 70.07874 v 51.716537 h -70.07874 z"
       fill-rule="evenodd"
       id="path29" />
    <path
       fill="#000000"
       d="m 382.57224,115.02772 1.15625,0.15625 q -0.1875,1.1875 -0.96875,1.85938 -0.78125,0.67187 -1.92187,0.67187 -1.40625,0 -2.28125,-0.92187 -0.85938,-0.9375 -0.85938,-2.65625 0,-1.125 0.375,-1.96875 0.375,-0.84375 1.125,-1.25 0.76563,-0.42188 1.65625,-0.42188 1.125,0 1.84375,0.57813 0.71875,0.5625 0.92188,1.60937 l -1.14063,0.17188 q -0.17187,-0.70313 -0.59375,-1.04688 -0.40625,-0.35937 -0.98437,-0.35937 -0.89063,0 -1.45313,0.64062 -0.54687,0.64063 -0.54687,2 0,1.40625 0.53125,2.03125 0.54687,0.625 1.40625,0.625 0.6875,0 1.14062,-0.42187 0.46875,-0.42188 0.59375,-1.29688 z m 6.66407,1.67188 q -0.65625,0.5625 -1.26563,0.79687 -0.59375,0.21875 -1.28125,0.21875 -1.14062,0 -1.75,-0.54687 -0.60937,-0.5625 -0.60937,-1.4375 0,-0.5 0.21875,-0.92188 0.23437,-0.42187 0.60937,-0.67187 0.375,-0.25 0.84375,-0.39063 0.34375,-0.0781 1.04688,-0.17187 1.42187,-0.17188 2.09375,-0.40625 0,-0.23438 0,-0.29688 0,-0.71875 -0.32813,-1.01562 -0.45312,-0.39063 -1.34375,-0.39063 -0.8125,0 -1.21875,0.29688 -0.39062,0.28125 -0.57812,1.01562 l -1.14063,-0.15625 q 0.15625,-0.73437 0.51563,-1.1875 0.35937,-0.45312 1.03125,-0.6875 0.67187,-0.25 1.5625,-0.25 0.89062,0 1.4375,0.20313 0.5625,0.20312 0.8125,0.53125 0.26562,0.3125 0.375,0.79687 0.0469,0.29688 0.0469,1.07813 v 1.5625 q 0,1.625 0.0781,2.0625 0.0781,0.4375 0.29687,0.82812 h -1.21875 q -0.1875,-0.35937 -0.23437,-0.85937 z m -0.0937,-2.60938 q -0.64063,0.26563 -1.92188,0.4375 -0.71875,0.10938 -1.01562,0.25 -0.29688,0.125 -0.46875,0.375 -0.15625,0.25 -0.15625,0.54688 0,0.46875 0.34375,0.78125 0.35937,0.3125 1.04687,0.3125 0.67188,0 1.20313,-0.29688 0.53125,-0.29687 0.78125,-0.8125 0.1875,-0.39062 0.1875,-1.17187 z m 2.9906,6.125 v -9.5625 h 1.07812 v 0.89063 q 0.375,-0.53125 0.84375,-0.78125 0.48438,-0.26563 1.15625,-0.26563 0.875,0 1.54688,0.45313 0.6875,0.45312 1.03125,1.28125 0.34375,0.82812 0.34375,1.82812 0,1.04688 -0.375,1.90625 -0.375,0.84375 -1.10938,1.29688 -0.71875,0.45312 -1.53125,0.45312 -0.57812,0 -1.04687,-0.25 -0.46875,-0.25 -0.76563,-0.625 v 3.375 z m 1.0625,-6.07812 q 0,1.34375 0.53125,1.98437 0.54687,0.625 1.3125,0.625 0.78125,0 1.34375,-0.65625 0.5625,-0.65625 0.5625,-2.04687 0,-1.3125 -0.54688,-1.96875 -0.54687,-0.67188 -1.29687,-0.67188 -0.75,0 -1.32813,0.70313 -0.57812,0.70312 -0.57812,2.03125 z m 8.59997,6.23437 q -0.98437,-1.23437 -1.65625,-2.875 -0.65625,-1.64062 -0.65625,-3.39062 0,-1.54688 0.5,-2.96875 0.57813,-1.64063 1.8125,-3.28125 h 0.82813 q -0.78125,1.35937 -1.03125,1.9375 -0.40625,0.89062 -0.625,1.875 -0.28125,1.21875 -0.28125,2.4375 0,3.14062 1.9375,6.26562 z m 1.71961,-4.875 1.15625,-0.1875 q 0.10937,0.70313 0.54687,1.07813 0.45313,0.35937 1.25,0.35937 0.8125,0 1.20313,-0.32812 0.39062,-0.32813 0.39062,-0.76563 0,-0.39062 -0.35937,-0.625 -0.23438,-0.15625 -1.1875,-0.39062 -1.29688,-0.32813 -1.79688,-0.5625 -0.48437,-0.25 -0.75,-0.65625 -0.25,-0.42188 -0.25,-0.9375 0,-0.45313 0.20313,-0.84375 0.21875,-0.40625 0.57812,-0.67188 0.28125,-0.1875 0.75,-0.32812 0.46875,-0.14063 1.01563,-0.14063 0.8125,0 1.42187,0.23438 0.60938,0.23437 0.90625,0.64062 0.29688,0.39063 0.40625,1.0625 l -1.14062,0.15625 q -0.0781,-0.53125 -0.45313,-0.82812 -0.375,-0.3125 -1.0625,-0.3125 -0.8125,0 -1.15625,0.26562 -0.34375,0.26563 -0.34375,0.625 0,0.23438 0.14063,0.42188 0.15625,0.1875 0.45312,0.3125 0.17188,0.0625 1.03125,0.29687 1.25,0.32813 1.73438,0.54688 0.5,0.20312 0.78125,0.60937 0.28125,0.40625 0.28125,1 0,0.59375 -0.34375,1.10938 -0.34375,0.51562 -1,0.79687 -0.64063,0.28125 -1.45313,0.28125 -1.34375,0 -2.04687,-0.5625 -0.70313,-0.5625 -0.90625,-1.65625 z m 7.89844,4.875 h -0.82813 q 1.9375,-3.125 1.9375,-6.26562 0,-1.21875 -0.28125,-2.42188 -0.21875,-0.98437 -0.60937,-1.875 -0.26563,-0.59375 -1.04688,-1.95312 h 0.82813 q 1.23437,1.64062 1.8125,3.28125 0.5,1.42187 0.5,2.96875 0,1.75 -0.67188,3.39062 -0.67187,1.64063 -1.64062,2.875 z"
       fill-rule="nonzero"
       id="path30" />
    <path
       fill="#000000"
       d="m 384.2285,127.9496 h -6.3125 v -1.09375 h 6.3125 z m 0,2.89063 h -6.3125 v -1.09375 h 6.3125 z m 11.06452,-4.48438 -1.15625,0.0937 q -0.15625,-0.6875 -0.4375,-1 -0.48438,-0.5 -1.17188,-0.5 -0.5625,0 -0.98437,0.3125 -0.5625,0.39063 -0.89063,1.17188 -0.3125,0.76562 -0.3125,2.20312 0.42188,-0.64062 1.03125,-0.95312 0.60938,-0.3125 1.28125,-0.3125 1.17188,0 1.98438,0.85937 0.82812,0.85938 0.82812,2.23438 0,0.89062 -0.39062,1.67187 -0.375,0.76563 -1.0625,1.17188 -0.67188,0.40625 -1.53125,0.40625 -1.46875,0 -2.39063,-1.0625 -0.92187,-1.07813 -0.92187,-3.5625 0,-2.76563 1.01562,-4.01563 0.90625,-1.09375 2.40625,-1.09375 1.125,0 1.84375,0.64063 0.71875,0.625 0.85938,1.73437 z m -4.78125,4.10938 q 0,0.60937 0.25,1.17187 0.26562,0.54688 0.71875,0.84375 0.46875,0.28125 0.98437,0.28125 0.73438,0 1.26563,-0.59375 0.54687,-0.60937 0.54687,-1.64062 0,-0.98438 -0.53125,-1.54688 -0.53125,-0.57812 -1.32812,-0.57812 -0.79688,0 -1.35938,0.57812 -0.54687,0.5625 -0.54687,1.48438 z"
       fill-rule="nonzero"
       id="path31" />
    <path
       fill="#000000"
       fill-opacity="0"
       d="m 143.26299,100.60937 v 0"
       fill-rule="evenodd"
       id="path32" />
    <path
       stroke="#595959"
       stroke-width="1"
       stroke-linejoin="round"
       stroke-linecap="butt"
       d="m 143.26299,100.60937 v 0"
       fill-rule="evenodd"
       id="path33" />
    <path
       fill="#000000"
       fill-opacity="0"
       d="m 136.16064,99.325903 v 7.968487"
       fill-rule="evenodd"
       id="path34" />
    <path
       stroke="#999999"
       stroke-width="1"
       stroke-linejoin="round"
       stroke-linecap="butt"
       d="m 136.16064,99.325903 v 7.968487"
       fill-rule="evenodd"
       id="path35" />
    <path
       fill="#000000"
       fill-opacity="0"
       d="m 377.34174,99.305723 v 7.968507"
       fill-rule="evenodd"
       id="path36" />
    <path
       stroke="#999999"
       stroke-width="1"
       stroke-linejoin="round"
       stroke-linecap="butt"
       d="m 377.34174,99.305723 v 7.968507"
       fill-rule="evenodd"
       id="path37" />
    <path
       fill="#000000"
       fill-opacity="0"
       d="m 296.95449,99.305723 v 7.968507"
       fill-rule="evenodd"
       id="path38" />
    <path
       stroke="#999999"
       stroke-width="1"
       stroke-linejoin="round"
       stroke-linecap="butt"
       d="m 296.95449,99.305723 v 7.968507"
       fill-rule="evenodd"
       id="path39" />
    <path
       fill="#000000"
       fill-opacity="0"
       d="M 10.118644,7.9322034 H 41.079276 V 45.097553 H 10.118644 Z"
       fill-rule="evenodd"
       id="path40" />
    <path
       fill="#000000"
       d="m 19.462394,28.840333 2.015625,-0.296875 q 0.125,0.578125 0.515625,0.890625 0.40625,0.296875 1.109375,0.296875 0.78125,0 1.171875,-0.28125 0.265625,-0.203125 0.265625,-0.546875 0,-0.21875 -0.140625,-0.375 -0.15625,-0.140625 -0.671875,-0.265625 -2.4375,-0.53125 -3.078125,-0.984375 -0.90625,-0.609375 -0.90625,-1.703125 0,-0.984375 0.78125,-1.65625 0.78125,-0.671875 2.421875,-0.671875 1.546875,0 2.3125,0.515625 0.765625,0.5 1.046875,1.484375 l -1.90625,0.359375 q -0.109375,-0.453125 -0.453125,-0.6875 -0.34375,-0.234375 -0.96875,-0.234375 -0.796875,0 -1.140625,0.21875 -0.234375,0.15625 -0.234375,0.40625 0,0.21875 0.203125,0.375 0.28125,0.203125 1.875,0.5625 1.609375,0.359375 2.25,0.890625 0.625,0.546875 0.625,1.5 0,1.046875 -0.875,1.796875 -0.859375,0.75 -2.578125,0.75 -1.546875,0 -2.453125,-0.625 -0.90625,-0.640625 -1.1875,-1.71875 z"
       fill-rule="nonzero"
       id="path41" />
    <path
       shape-rendering="crispEdges"
       fill="#ffffff"
       d="m 40.176384,9.9322034 h 41.94226 V 42.806219 h -41.94226 z"
       fill-rule="nonzero"
       id="path42" />
    <path
       shape-rendering="crispEdges"
       fill="#ffffff"
       d="m 40.176384,42.806219 h 41.94226 v 32.874016 h -41.94226 z"
       fill-rule="nonzero"
       id="path43" />
    <path
       shape-rendering="crispEdges"
       fill="#ffffff"
       d="m 40.176384,75.680233 h 41.94226 v 28.225727 h -41.94226 z"
       fill-rule="nonzero"
       id="path44" />
    <path
       stroke="#9e9e9e"
       stroke-width="1"
       stroke-linecap="butt"
       d="M 40.176384,9.4335134 V 104.40464"
       fill-rule="nonzero"
       id="path45" />
    <path
       stroke="#9e9e9e"
       stroke-width="1"
       stroke-linecap="butt"
       d="M 82.118644,9.4335134 V 104.40464"
       fill-rule="nonzero"
       id="path46" />
    <path
       stroke="#9e9e9e"
       stroke-width="1"
       stroke-linecap="butt"
       d="M 39.677694,9.9322034 H 82.61733"
       fill-rule="nonzero"
       id="path47" />
    <path
       stroke="#9e9e9e"
       stroke-width="1"
       stroke-linecap="butt"
       d="M 39.677694,42.806219 H 82.61733"
       fill-rule="nonzero"
       id="path48" />
    <path
       stroke="#9e9e9e"
       stroke-width="1"
       stroke-linecap="butt"
       d="M 39.677694,75.680233 H 82.61733"
       fill-rule="nonzero"
       id="path49" />
    <path
       stroke="#9e9e9e"
       stroke-width="1"
       stroke-linecap="butt"
       d="M 39.677694,103.90595 H 82.61733"
       fill-rule="nonzero"
       id="path50" />
    <path
       fill="#000000"
       d="m 43.840154,31.297203 v -7.65625 h 0.859375 v 0.71875 q 0.296875,-0.421875 0.671875,-0.625 0.390625,-0.21875 0.921875,-0.21875 0.703125,0 1.25,0.375 0.546875,0.359375 0.8125,1.03125 0.28125,0.65625 0.28125,1.453125 0,0.84375 -0.3125,1.53125 -0.296875,0.671875 -0.875,1.03125 -0.578125,0.359375 -1.21875,0.359375 -0.46875,0 -0.84375,-0.1875 -0.375,-0.203125 -0.609375,-0.515625 v 2.703125 z m 0.84375,-4.859375 q 0,1.0625 0.4375,1.578125 0.4375,0.515625 1.046875,0.515625 0.625,0 1.0625,-0.53125 0.453125,-0.53125 0.453125,-1.640625 0,-1.046875 -0.4375,-1.578125 -0.4375,-0.53125 -1.046875,-0.53125 -0.59375,0 -1.0625,0.5625 -0.453125,0.5625 -0.453125,1.625 z m 7.129623,1.890625 0.125,0.828125 q -0.390625,0.09375 -0.703125,0.09375 -0.5,0 -0.78125,-0.15625 -0.28125,-0.171875 -0.40625,-0.4375 -0.109375,-0.265625 -0.109375,-1.109375 v -3.171875 h -0.6875 v -0.734375 h 0.6875 v -1.359375 l 0.9375,-0.5625 v 1.921875 h 0.9375 v 0.734375 h -0.9375 v 3.234375 q 0,0.390625 0.04687,0.515625 0.04687,0.109375 0.15625,0.1875 0.109375,0.0625 0.328125,0.0625 0.15625,0 0.40625,-0.04687 z m 0.898148,0.84375 v -5.53125 h 0.84375 v 0.84375 q 0.328125,-0.59375 0.59375,-0.78125 0.28125,-0.1875 0.609375,-0.1875 0.46875,0 0.953125,0.3125 l -0.3125,0.859375 q -0.34375,-0.203125 -0.6875,-0.203125 -0.3125,0 -0.5625,0.1875 -0.234375,0.1875 -0.34375,0.515625 -0.15625,0.5 -0.15625,1.09375 v 2.890625 z"
       fill-rule="nonzero"
       id="path51" />
    <path
       fill="#000000"
       d="m 43.824534,62.046213 v -7.625 h 0.9375 v 7.625 z m 6.164352,-1.78125 0.96875,0.125 q -0.234375,0.84375 -0.859375,1.3125 -0.609375,0.46875 -1.578125,0.46875 -1.203125,0 -1.921875,-0.75 -0.703125,-0.75 -0.703125,-2.09375 0,-1.390625 0.71875,-2.15625 0.71875,-0.78125 1.859375,-0.78125 1.109375,0 1.8125,0.765625 0.703125,0.75 0.703125,2.125 0,0.07813 0,0.234375 h -4.125 q 0.04687,0.921875 0.515625,1.40625 0.46875,0.484375 1.15625,0.484375 0.515625,0 0.875,-0.265625 0.359375,-0.28125 0.578125,-0.875 z m -3.078125,-1.515625 h 3.09375 q -0.0625,-0.6875 -0.359375,-1.046875 -0.453125,-0.53125 -1.15625,-0.53125 -0.640625,0 -1.09375,0.4375 -0.4375,0.421875 -0.484375,1.140625 z m 5.223374,3.296875 v -5.53125 h 0.84375 v 0.796875 q 0.609375,-0.921875 1.75,-0.921875 0.5,0 0.921875,0.1875 0.421875,0.171875 0.625,0.46875 0.21875,0.296875 0.296875,0.6875 0.04687,0.265625 0.04687,0.921875 v 3.390625 h -0.9375 v -3.359375 q 0,-0.578125 -0.109375,-0.859375 -0.109375,-0.28125 -0.390625,-0.453125 -0.265625,-0.171875 -0.640625,-0.171875 -0.59375,0 -1.03125,0.390625 -0.4375,0.375 -0.4375,1.4375 v 3.015625 z m 10.848373,-4.484375 h -5.03125 v -0.875 h 5.03125 z m 0,2.3125 h -5.03125 v -0.875 h 5.03125 z m 4.035583,2.171875 v -1.828125 h -3.296875 v -0.859375 l 3.46875,-4.9375 h 0.765625 v 4.9375 h 1.03125 v 0.859375 h -1.03125 v 1.828125 z m 0,-2.6875 v -3.4375 l -2.375,3.4375 z"
       fill-rule="nonzero"
       id="path52" />
    <path
       fill="#000000"
       d="m 47.449534,92.888993 0.921875,0.125 q -0.15625,0.953125 -0.78125,1.5 -0.625,0.53125 -1.53125,0.53125 -1.125,0 -1.8125,-0.734375 -0.6875,-0.75 -0.6875,-2.125 0,-0.90625 0.296875,-1.578125 0.296875,-0.671875 0.890625,-1 0.609375,-0.34375 1.328125,-0.34375 0.890625,0 1.46875,0.46875 0.578125,0.453125 0.734375,1.28125 l -0.90625,0.140625 q -0.140625,-0.546875 -0.46875,-0.828125 -0.328125,-0.28125 -0.796875,-0.28125 -0.703125,0 -1.15625,0.515625 -0.4375,0.5 -0.4375,1.59375 0,1.109375 0.421875,1.625 0.4375,0.5 1.125,0.5 0.546875,0 0.90625,-0.34375 0.375,-0.34375 0.484375,-1.046875 z m 5.328125,1.34375 q -0.53125,0.453125 -1.015625,0.640625 -0.46875,0.171875 -1.015625,0.171875 -0.921875,0 -1.40625,-0.4375 -0.484375,-0.453125 -0.484375,-1.140625 0,-0.40625 0.171875,-0.734375 0.1875,-0.34375 0.484375,-0.546875 0.3125,-0.203125 0.6875,-0.3125 0.265625,-0.0625 0.828125,-0.140625 1.125,-0.125 1.671875,-0.3125 0,-0.203125 0,-0.25 0,-0.578125 -0.265625,-0.8125 -0.359375,-0.3125 -1.0625,-0.3125 -0.65625,0 -0.984375,0.234375 -0.3125,0.234375 -0.453125,0.8125 l -0.921875,-0.125 q 0.125,-0.578125 0.40625,-0.9375 0.296875,-0.375 0.828125,-0.5625 0.546875,-0.203125 1.25,-0.203125 0.71875,0 1.15625,0.171875 0.4375,0.171875 0.640625,0.421875 0.21875,0.25 0.296875,0.640625 0.04687,0.234375 0.04687,0.859375 v 1.25 q 0,1.296875 0.0625,1.65625 0.0625,0.34375 0.234375,0.65625 h -0.96875 q -0.15625,-0.296875 -0.1875,-0.6875 z m -0.07813,-2.078125 q -0.515625,0.203125 -1.53125,0.34375 -0.578125,0.07813 -0.828125,0.1875 -0.234375,0.109375 -0.359375,0.3125 -0.125,0.1875 -0.125,0.4375 0,0.375 0.28125,0.625 0.28125,0.25 0.828125,0.25 0.53125,0 0.953125,-0.234375 0.421875,-0.234375 0.625,-0.65625 0.15625,-0.3125 0.15625,-0.9375 z m 2.395248,4.890625 v -7.65625 h 0.859375 v 0.71875 q 0.296875,-0.421875 0.671875,-0.625 0.390625,-0.21875 0.921875,-0.21875 0.703125,0 1.25,0.375 0.546875,0.359375 0.8125,1.03125 0.28125,0.65625 0.28125,1.453125 0,0.84375 -0.3125,1.53125 -0.296875,0.671875 -0.875,1.03125 -0.578125,0.359375 -1.21875,0.359375 -0.46875,0 -0.84375,-0.1875 -0.375,-0.203125 -0.609375,-0.515625 v 2.703125 z m 0.84375,-4.859375 q 0,1.0625 0.4375,1.578125 0.4375,0.515625 1.046875,0.515625 0.625,0 1.0625,-0.53125 0.453125,-0.53125 0.453125,-1.640625 0,-1.046875 -0.4375,-1.578125 -0.4375,-0.53125 -1.046875,-0.53125 -0.59375,0 -1.0625,0.5625 -0.453125,0.5625 -0.453125,1.625 z m 10.004623,-1.75 H 60.9119 v -0.875 h 5.03125 z m 0,2.3125 H 60.9119 v -0.875 h 5.03125 z m 5.894959,-3.59375 -0.921875,0.07813 q -0.125,-0.546875 -0.359375,-0.796875 -0.375,-0.40625 -0.9375,-0.40625 -0.4375,0 -0.78125,0.25 -0.4375,0.328125 -0.703125,0.953125 -0.25,0.609375 -0.265625,1.75 0.34375,-0.515625 0.828125,-0.765625 0.5,-0.25 1.03125,-0.25 0.9375,0 1.59375,0.703125 0.65625,0.6875 0.65625,1.765625 0,0.71875 -0.3125,1.34375 -0.3125,0.609375 -0.859375,0.9375 -0.53125,0.328125 -1.21875,0.328125 -1.171875,0 -1.90625,-0.859375 -0.734375,-0.859375 -0.734375,-2.828125 0,-2.21875 0.8125,-3.21875 0.71875,-0.875 1.921875,-0.875 0.890625,0 1.46875,0.5 0.578125,0.5 0.6875,1.390625 z m -3.8125,3.296875 q 0,0.484375 0.203125,0.921875 0.203125,0.4375 0.5625,0.671875 0.375,0.234375 0.78125,0.234375 0.59375,0 1.015625,-0.46875 0.4375,-0.484375 0.4375,-1.3125 0,-0.78125 -0.421875,-1.234375 -0.421875,-0.46875 -1.0625,-0.46875 -0.640625,0 -1.078125,0.46875 -0.4375,0.453125 -0.4375,1.1875 z"
       fill-rule="nonzero"
       id="path53" />
    <path
       fill="#000000"
       fill-opacity="0"
       d="m 70.118644,25.932203 66.015746,48"
       fill-rule="evenodd"
       id="path54" />
    <path
       stroke="#674ea7"
       stroke-width="2"
       stroke-linejoin="round"
       stroke-linecap="butt"
       d="m 76.249364,30.389853 50.179396,36.48539"
       fill-rule="evenodd"
       id="path55" />
    <path
       fill="#674ea7"
       stroke="#674ea7"
       stroke-width="2"
       stroke-linecap="butt"
       d="m 70.927444,26.520283 c 1.068543,-1.469612 3.126129,-1.794731 4.595734,-0.726181 1.469619,1.06855 1.794738,3.126137 0.726181,4.595749 -1.068543,1.469605 -3.12613,1.794724 -4.595734,0.726174 -1.46962,-1.06855 -1.794739,-3.126137 -0.726181,-4.595742 z"
       fill-rule="nonzero"
       id="path56" />
    <path
       fill="#674ea7"
       stroke="#674ea7"
       stroke-width="2"
       stroke-linecap="butt"
       d="m 124.48604,69.547103 9.28357,2.665665 -5.39816,-8.009369 z"
       fill-rule="evenodd"
       id="path57" />
  </g>
</svg>
