<?xml version="1.0" encoding="UTF-8" standalone="no"?>
<svg
   version="1.1"
   viewBox="0 0 652 176"
   fill="none"
   stroke="none"
   stroke-linecap="square"
   stroke-miterlimit="10"
   id="svg63"
   sodipodi:docname="2_sample_slice_6_8.svg"
   width="652"
   height="176"
   inkscape:version="1.3.2 (091e20e, 2023-11-25)"
   xmlns:inkscape="http://www.inkscape.org/namespaces/inkscape"
   xmlns:sodipodi="http://sodipodi.sourceforge.net/DTD/sodipodi-0.dtd"
   xmlns="http://www.w3.org/2000/svg"
   xmlns:svg="http://www.w3.org/2000/svg">
  <defs
     id="defs63" />
  <sodipodi:namedview
     id="namedview63"
     pagecolor="#ffffff"
     bordercolor="#000000"
     borderopacity="0.25"
     inkscape:showpageshadow="2"
     inkscape:pageopacity="0.0"
     inkscape:pagecheckerboard="0"
     inkscape:deskcolor="#d1d1d1"
     inkscape:zoom="0.87407408"
     inkscape:cx="480.50847"
     inkscape:cy="269.42796"
     inkscape:window-width="1584"
     inkscape:window-height="794"
     inkscape:window-x="0"
     inkscape:window-y="38"
     inkscape:window-maximized="0"
     inkscape:current-layer="g63" />
  <clipPath
     id="g2ae8329a7cf_0_0.0">
    <path
       d="M 0,0 H 960 V 540 H 0 Z"
       clip-rule="nonzero"
       id="path1" />
  </clipPath>
  <g
     clip-path="url(#g2ae8329a7cf_0_0.0)"
     id="g63">
    <path
       fill="#ffffff"
       d="M 0,0 H 652.24577 V 175.04238 H 0 Z"
       fill-rule="evenodd"
       id="path2"
       style="stroke-width:0.469294" />
    <path
       shape-rendering="crispEdges"
       fill="#d9ead3"
       d="m 259.74418,73.949153 h 40.19424 v 40.000007 h -40.19424 z"
       fill-rule="nonzero"
       id="path3" />
    <path
       shape-rendering="crispEdges"
       fill="#d9ead3"
       d="m 299.93842,73.949153 h 40.19421 v 40.000007 h -40.19421 z"
       fill-rule="nonzero"
       id="path4" />
    <path
       shape-rendering="crispEdges"
       fill="#d9ead3"
       d="m 340.13264,73.949153 h 40.19421 v 40.000007 h -40.19421 z"
       fill-rule="nonzero"
       id="path5" />
    <path
       shape-rendering="crispEdges"
       fill="#d9ead3"
       d="m 380.32684,73.949153 h 40.19424 v 40.000007 h -40.19424 z"
       fill-rule="nonzero"
       id="path6" />
    <path
       shape-rendering="crispEdges"
       fill="#d9ead3"
       d="m 420.5211,73.949153 h 40.19421 V 113.94916 H 420.5211 Z"
       fill-rule="nonzero"
       id="path7" />
    <path
       shape-rendering="crispEdges"
       fill="#d9ead3"
       d="m 460.71531,73.949153 h 40.19421 v 40.000007 h -40.19421 z"
       fill-rule="nonzero"
       id="path8" />
    <path
       shape-rendering="crispEdges"
       fill="#d9d9d9"
       d="m 500.90954,73.949153 h 40.19421 v 40.000007 h -40.19421 z"
       fill-rule="nonzero"
       id="path9" />
    <path
       shape-rendering="crispEdges"
       fill="#d9d9d9"
       d="m 541.10374,73.949153 h 40.19427 v 40.000007 h -40.19427 z"
       fill-rule="nonzero"
       id="path10" />
    <path
       stroke="#9e9e9e"
       stroke-width="1"
       stroke-linecap="butt"
       d="M 259.74418,73.450463 V 114.44784"
       fill-rule="nonzero"
       id="path11" />
    <path
       stroke="#9e9e9e"
       stroke-width="1"
       stroke-linecap="butt"
       d="M 299.93842,73.450463 V 114.44784"
       fill-rule="nonzero"
       id="path12" />
    <path
       stroke="#9e9e9e"
       stroke-width="1"
       stroke-linecap="butt"
       d="M 340.13264,73.450463 V 114.44784"
       fill-rule="nonzero"
       id="path13" />
    <path
       stroke="#9e9e9e"
       stroke-width="1"
       stroke-linecap="butt"
       d="M 380.32684,73.450463 V 114.44784"
       fill-rule="nonzero"
       id="path14" />
    <path
       stroke="#9e9e9e"
       stroke-width="1"
       stroke-linecap="butt"
       d="M 420.5211,73.450463 V 114.44784"
       fill-rule="nonzero"
       id="path15" />
    <path
       stroke="#9e9e9e"
       stroke-width="1"
       stroke-linecap="butt"
       d="M 460.71531,73.450463 V 114.44784"
       fill-rule="nonzero"
       id="path16" />
    <path
       stroke="#9e9e9e"
       stroke-width="1"
       stroke-linecap="butt"
       d="M 500.90954,73.450463 V 114.44784"
       fill-rule="nonzero"
       id="path17" />
    <path
       stroke="#9e9e9e"
       stroke-width="1"
       stroke-linecap="butt"
       d="M 541.10374,73.450463 V 114.44784"
       fill-rule="nonzero"
       id="path18" />
    <path
       stroke="#9e9e9e"
       stroke-width="1"
       stroke-linecap="butt"
       d="M 581.29804,73.450463 V 114.44784"
       fill-rule="nonzero"
       id="path19" />
    <path
       stroke="#9e9e9e"
       stroke-width="1"
       stroke-linecap="butt"
       d="M 259.24549,73.949153 H 581.79667"
       fill-rule="nonzero"
       id="path20" />
    <path
       stroke="#9e9e9e"
       stroke-width="1"
       stroke-linecap="butt"
       d="M 259.24549,113.94916 H 581.79667"
       fill-rule="nonzero"
       id="path21" />
    <path
       fill="#1155cc"
       d="m 269.61918,98.405403 v -9.5625 h 1.07812 v 0.890625 q 0.375,-0.53125 0.84375,-0.78125 0.48438,-0.265625 1.15625,-0.265625 0.875,0 1.54688,0.453125 0.6875,0.453125 1.03125,1.28125 0.34375,0.828125 0.34375,1.828125 0,1.046875 -0.375,1.90625 -0.375,0.84375 -1.10938,1.296875 -0.71875,0.453125 -1.53125,0.453125 -0.57812,0 -1.04687,-0.25 -0.46875,-0.25 -0.76563,-0.625 v 3.375 z m 1.0625,-6.078125 q 0,1.34375 0.53125,1.984375 0.54687,0.625 1.3125,0.625 0.78125,0 1.34375,-0.65625 0.5625,-0.65625 0.5625,-2.046875 0,-1.3125 -0.54688,-1.96875 -0.54687,-0.671875 -1.29687,-0.671875 -0.75,0 -1.32813,0.703125 -0.57812,0.703125 -0.57812,2.03125 z m 6.02185,-1.28125 q 0,-1.6875 0.34375,-2.71875 0.35937,-1.03125 1.04687,-1.59375 0.6875,-0.5625 1.71875,-0.5625 0.78125,0 1.35938,0.3125 0.57812,0.296875 0.95312,0.890625 0.375,0.578125 0.59375,1.421875 0.21875,0.828125 0.21875,2.25 0,1.671875 -0.35937,2.703125 -0.34375,1.03125 -1.03125,1.59375 -0.67188,0.5625 -1.73438,0.5625 -1.375,0 -2.15625,-0.984375 -0.95312,-1.1875 -0.95312,-3.875 z m 1.20312,0 q 0,2.34375 0.54688,3.125 0.5625,0.78125 1.35937,0.78125 0.8125,0 1.35938,-0.78125 0.5625,-0.78125 0.5625,-3.125 0,-2.359375 -0.5625,-3.125 -0.54688,-0.78125 -1.35938,-0.78125 -0.8125,0 -1.29687,0.6875 -0.60938,0.875 -0.60938,3.21875 z"
       fill-rule="nonzero"
       id="path22" />
    <path
       fill="#1155cc"
       d="m 309.81342,98.405403 v -9.5625 h 1.07812 v 0.890625 q 0.375,-0.53125 0.84375,-0.78125 0.48438,-0.265625 1.15625,-0.265625 0.875,0 1.54688,0.453125 0.6875,0.453125 1.03125,1.28125 0.34375,0.828125 0.34375,1.828125 0,1.046875 -0.375,1.90625 -0.375,0.84375 -1.10938,1.296875 -0.71875,0.453125 -1.53125,0.453125 -0.57812,0 -1.04687,-0.25 -0.46875,-0.25 -0.76563,-0.625 v 3.375 z m 1.0625,-6.078125 q 0,1.34375 0.53125,1.984375 0.54687,0.625 1.3125,0.625 0.78125,0 1.34375,-0.65625 0.5625,-0.65625 0.5625,-2.046875 0,-1.3125 -0.54688,-1.96875 -0.54687,-0.671875 -1.29687,-0.671875 -0.75,0 -1.32813,0.703125 -0.57812,0.703125 -0.57812,2.03125 z m 10.44372,3.421875 h -1.17187 v -7.46875 q -0.42188,0.40625 -1.10938,0.8125 -0.6875,0.40625 -1.23437,0.609375 v -1.140625 q 0.98437,-0.453125 1.71875,-1.109375 0.73437,-0.671875 1.03125,-1.28125 h 0.76562 z"
       fill-rule="nonzero"
       id="path23" />
    <path
       fill="#1155cc"
       d="m 350.00764,98.405403 v -9.5625 h 1.07812 v 0.890625 q 0.375,-0.53125 0.84375,-0.78125 0.48438,-0.265625 1.15625,-0.265625 0.875,0 1.54688,0.453125 0.6875,0.453125 1.03125,1.28125 0.34375,0.828125 0.34375,1.828125 0,1.046875 -0.375,1.90625 -0.375,0.84375 -1.10938,1.296875 -0.71875,0.453125 -1.53125,0.453125 -0.57812,0 -1.04687,-0.25 -0.46875,-0.25 -0.76563,-0.625 v 3.375 z m 1.0625,-6.078125 q 0,1.34375 0.53125,1.984375 0.54687,0.625 1.3125,0.625 0.78125,0 1.34375,-0.65625 0.5625,-0.65625 0.5625,-2.046875 0,-1.3125 -0.54688,-1.96875 -0.54687,-0.671875 -1.29687,-0.671875 -0.75,0 -1.32813,0.703125 -0.57812,0.703125 -0.57812,2.03125 z m 12.1781,2.296875 v 1.125 h -6.29688 q -0.0156,-0.421875 0.14063,-0.8125 0.23437,-0.640625 0.76562,-1.265625 0.53125,-0.625 1.53125,-1.453125 1.5625,-1.265625 2.10938,-2.015625 0.54687,-0.75 0.54687,-1.40625 0,-0.703125 -0.5,-1.171875 -0.5,-0.484375 -1.29687,-0.484375 -0.85938,0 -1.375,0.515625 -0.5,0.5 -0.5,1.390625 l -1.20313,-0.109375 q 0.125,-1.359375 0.92188,-2.0625 0.8125,-0.703125 2.17187,-0.703125 1.375,0 2.17188,0.765625 0.8125,0.75 0.8125,1.875 0,0.578125 -0.23438,1.140625 -0.23437,0.546875 -0.78125,1.15625 -0.54687,0.609375 -1.8125,1.671875 -1.04687,0.890625 -1.35937,1.21875 -0.29688,0.3125 -0.48438,0.625 z"
       fill-rule="nonzero"
       id="path24" />
    <path
       fill="#1155cc"
       d="m 390.20184,98.405403 v -9.5625 h 1.07812 v 0.890625 q 0.375,-0.53125 0.84375,-0.78125 0.48438,-0.265625 1.15625,-0.265625 0.875,0 1.54688,0.453125 0.6875,0.453125 1.03125,1.28125 0.34375,0.828125 0.34375,1.828125 0,1.046875 -0.375,1.90625 -0.375,0.84375 -1.10938,1.296875 -0.71875,0.453125 -1.53125,0.453125 -0.57812,0 -1.04687,-0.25 -0.46875,-0.25 -0.76563,-0.625 v 3.375 z m 1.0625,-6.078125 q 0,1.34375 0.53125,1.984375 0.54687,0.625 1.3125,0.625 0.78125,0 1.34375,-0.65625 0.5625,-0.65625 0.5625,-2.046875 0,-1.3125 -0.54688,-1.96875 -0.54687,-0.671875 -1.29687,-0.671875 -0.75,0 -1.32813,0.703125 -0.57812,0.703125 -0.57812,2.03125 z m 6.03747,0.90625 1.17188,-0.15625 q 0.20312,1 0.6875,1.4375 0.48437,0.4375 1.17187,0.4375 0.82813,0 1.39063,-0.578125 0.57812,-0.578125 0.57812,-1.421875 0,-0.796875 -0.53125,-1.3125 -0.51562,-0.53125 -1.32812,-0.53125 -0.34375,0 -0.82813,0.125 l 0.125,-1.03125 q 0.125,0.01563 0.1875,0.01563 0.75,0 1.34375,-0.390625 0.60938,-0.390625 0.60938,-1.203125 0,-0.640625 -0.4375,-1.0625 -0.4375,-0.421875 -1.125,-0.421875 -0.6875,0 -1.14063,0.4375 -0.45312,0.421875 -0.59375,1.28125 l -1.17187,-0.21875 q 0.21875,-1.171875 0.98437,-1.8125 0.76563,-0.65625 1.89063,-0.65625 0.78125,0 1.4375,0.34375 0.65625,0.328125 1,0.90625 0.35937,0.578125 0.35937,1.234375 0,0.609375 -0.34375,1.125 -0.32812,0.5 -0.96875,0.796875 0.84375,0.203125 1.3125,0.828125 0.46875,0.609375 0.46875,1.53125 0,1.25 -0.92187,2.125 -0.90625,0.859375 -2.29688,0.859375 -1.25,0 -2.09375,-0.75 -0.82812,-0.75 -0.9375,-1.9375 z"
       fill-rule="nonzero"
       id="path25" />
    <path
       fill="#1155cc"
       d="m 430.3961,98.405403 v -9.5625 h 1.07812 v 0.890625 q 0.375,-0.53125 0.84375,-0.78125 0.48438,-0.265625 1.15625,-0.265625 0.875,0 1.54688,0.453125 0.6875,0.453125 1.03125,1.28125 0.34375,0.828125 0.34375,1.828125 0,1.046875 -0.375,1.90625 -0.375,0.84375 -1.10938,1.296875 -0.71875,0.453125 -1.53125,0.453125 -0.57812,0 -1.04687,-0.25 -0.46875,-0.25 -0.76563,-0.625 v 3.375 z m 1.0625,-6.078125 q 0,1.34375 0.53125,1.984375 0.54687,0.625 1.3125,0.625 0.78125,0 1.34375,-0.65625 0.5625,-0.65625 0.5625,-2.046875 0,-1.3125 -0.54688,-1.96875 -0.54687,-0.671875 -1.29687,-0.671875 -0.75,0 -1.32813,0.703125 -0.57812,0.703125 -0.57812,2.03125 z m 9.78747,3.421875 v -2.28125 h -4.14062 v -1.078125 l 4.34375,-6.1875 h 0.96875 v 6.1875 h 1.28125 v 1.078125 h -1.28125 v 2.28125 z m 0,-3.359375 v -4.296875 l -2.98437,4.296875 z"
       fill-rule="nonzero"
       id="path26" />
    <path
       fill="#1155cc"
       d="m 470.59031,98.405403 v -9.5625 h 1.07812 v 0.890625 q 0.375,-0.53125 0.84375,-0.78125 0.48438,-0.265625 1.15625,-0.265625 0.875,0 1.54688,0.453125 0.6875,0.453125 1.03125,1.28125 0.34375,0.828125 0.34375,1.828125 0,1.046875 -0.375,1.90625 -0.375,0.84375 -1.10938,1.296875 -0.71875,0.453125 -1.53125,0.453125 -0.57812,0 -1.04687,-0.25 -0.46875,-0.25 -0.76563,-0.625 v 3.375 z m 1.0625,-6.078125 q 0,1.34375 0.53125,1.984375 0.54687,0.625 1.3125,0.625 0.78125,0 1.34375,-0.65625 0.5625,-0.65625 0.5625,-2.046875 0,-1.3125 -0.54688,-1.96875 -0.54687,-0.671875 -1.29687,-0.671875 -0.75,0 -1.32813,0.703125 -0.57812,0.703125 -0.57812,2.03125 z m 6.02185,0.921875 1.23437,-0.109375 q 0.14063,0.90625 0.64063,1.359375 0.5,0.453125 1.20312,0.453125 0.84375,0 1.42188,-0.640625 0.59375,-0.640625 0.59375,-1.6875 0,-1 -0.5625,-1.578125 -0.5625,-0.59375 -1.48438,-0.59375 -0.5625,0 -1.01562,0.265625 -0.45313,0.25 -0.71875,0.671875 l -1.09375,-0.15625 0.92187,-4.890625 h 4.75 v 1.109375 h -3.8125 l -0.51562,2.5625 q 0.85937,-0.59375 1.79687,-0.59375 1.25,0 2.10938,0.875 0.85937,0.859375 0.85937,2.21875 0,1.296875 -0.75,2.234375 -0.92187,1.15625 -2.5,1.15625 -1.3125,0 -2.14062,-0.71875 -0.8125,-0.734375 -0.9375,-1.9375 z"
       fill-rule="nonzero"
       id="path27" />
    <path
       fill="#434343"
       d="m 510.78454,98.405403 v -9.5625 h 1.07812 v 0.890625 q 0.375,-0.53125 0.84375,-0.78125 0.48438,-0.265625 1.15625,-0.265625 0.875,0 1.54688,0.453125 0.6875,0.453125 1.03125,1.28125 0.34375,0.828125 0.34375,1.828125 0,1.046875 -0.375,1.90625 -0.375,0.84375 -1.10938,1.296875 -0.71875,0.453125 -1.53125,0.453125 -0.57812,0 -1.04687,-0.25 -0.46875,-0.25 -0.76563,-0.625 v 3.375 z m 1.0625,-6.078125 q 0,1.34375 0.53125,1.984375 0.54687,0.625 1.3125,0.625 0.78125,0 1.34375,-0.65625 0.5625,-0.65625 0.5625,-2.046875 0,-1.3125 -0.54688,-1.96875 -0.54687,-0.671875 -1.29687,-0.671875 -0.75,0 -1.32813,0.703125 -0.57812,0.703125 -0.57812,2.03125 z m 12.09997,-3.78125 -1.15625,0.09375 q -0.15625,-0.6875 -0.4375,-1 -0.48437,-0.5 -1.17187,-0.5 -0.5625,0 -0.98438,0.3125 -0.5625,0.390625 -0.89062,1.171875 -0.3125,0.765625 -0.3125,2.203125 0.42187,-0.640625 1.03125,-0.953125 0.60937,-0.3125 1.28125,-0.3125 1.17187,0 1.98437,0.859375 0.82813,0.859375 0.82813,2.234375 0,0.890625 -0.39063,1.671875 -0.375,0.765625 -1.0625,1.171875 -0.67187,0.40625 -1.53125,0.40625 -1.46875,0 -2.39062,-1.0625 -0.92188,-1.078125 -0.92188,-3.5625 0,-2.765625 1.01563,-4.015625 0.90625,-1.09375 2.40625,-1.09375 1.125,0 1.84375,0.640625 0.71875,0.625 0.85937,1.734375 z m -4.78125,4.109375 q 0,0.609375 0.25,1.171875 0.26563,0.546875 0.71875,0.84375 0.46875,0.28125 0.98438,0.28125 0.73437,0 1.26562,-0.59375 0.54688,-0.609375 0.54688,-1.640625 0,-0.984375 -0.53125,-1.546875 -0.53125,-0.578125 -1.32813,-0.578125 -0.79687,0 -1.35937,0.578125 -0.54688,0.5625 -0.54688,1.484375 z"
       fill-rule="nonzero"
       id="path28" />
    <path
       fill="#434343"
       d="m 550.97874,98.405403 v -9.5625 h 1.07812 v 0.890625 q 0.375,-0.53125 0.84375,-0.78125 0.48438,-0.265625 1.15625,-0.265625 0.875,0 1.54688,0.453125 0.6875,0.453125 1.03125,1.28125 0.34375,0.828125 0.34375,1.828125 0,1.046875 -0.375,1.90625 -0.375,0.84375 -1.10938,1.296875 -0.71875,0.453125 -1.53125,0.453125 -0.57812,0 -1.04687,-0.25 -0.46875,-0.25 -0.76563,-0.625 v 3.375 z m 1.0625,-6.078125 q 0,1.34375 0.53125,1.984375 0.54687,0.625 1.3125,0.625 0.78125,0 1.34375,-0.65625 0.5625,-0.65625 0.5625,-2.046875 0,-1.3125 -0.54688,-1.96875 -0.54687,-0.671875 -1.29687,-0.671875 -0.75,0 -1.32813,0.703125 -0.57812,0.703125 -0.57812,2.03125 z m 6.09997,-4.875 v -1.125 h 6.1875 v 0.921875 q -0.92187,0.96875 -1.8125,2.578125 -0.89062,1.59375 -1.375,3.296875 -0.35937,1.203125 -0.45312,2.625 h -1.20313 q 0.0156,-1.125 0.4375,-2.71875 0.42188,-1.59375 1.20313,-3.078125 0.79687,-1.484375 1.6875,-2.5 z"
       fill-rule="nonzero"
       id="path29" />
    <path
       fill="#000000"
       fill-opacity="0"
       d="m 247.20874,116.62633 h 39.24411 v 42.01574 h -39.24411 z"
       fill-rule="evenodd"
       id="path30" />
    <path
       fill="#000000"
       d="m 256.99,136.95258 q 0,-2.35938 0.48437,-3.79688 0.48438,-1.45312 1.4375,-2.23437 0.96875,-0.78125 2.42188,-0.78125 1.07812,0 1.89062,0.4375 0.8125,0.42187 1.32813,1.25 0.53125,0.8125 0.82812,1.98437 0.3125,1.15625 0.3125,3.14063 0,2.35937 -0.48437,3.8125 -0.48438,1.4375 -1.45313,2.23437 -0.95312,0.78125 -2.42187,0.78125 -1.92188,0 -3.03125,-1.39062 -1.3125,-1.67188 -1.3125,-5.4375 z m 1.67187,0 q 0,3.29687 0.76563,4.39062 0.78125,1.07813 1.90625,1.07813 1.14062,0 1.90625,-1.09375 0.76562,-1.09375 0.76562,-4.375 0,-3.29688 -0.76562,-4.375 -0.76563,-1.07813 -1.92188,-1.07813 -1.125,0 -1.79687,0.95313 -0.85938,1.21875 -0.85938,4.5 z"
       fill-rule="nonzero"
       id="path31" />
    <path
       fill="#000000"
       fill-opacity="0"
       d="m 491.74944,111.77593 h 70.07873 v 51.71653 h -70.07873 z"
       fill-rule="evenodd"
       id="path32" />
    <path
       fill="#000000"
       d="m 501.6088,133.57593 v -9.54688 h 1.17187 v 9.54688 z m 7.71112,-2.21875 1.20312,0.14062 q -0.28125,1.0625 -1.0625,1.65625 -0.76562,0.57813 -1.96875,0.57813 -1.51562,0 -2.40625,-0.9375 -0.89062,-0.9375 -0.89062,-2.60938 0,-1.75 0.89062,-2.70312 0.90625,-0.96875 2.34375,-0.96875 1.39063,0 2.26563,0.9375 0.875,0.9375 0.875,2.65625 0,0.10937 0,0.3125 h -5.15625 q 0.0625,1.14062 0.64062,1.75 0.57813,0.59375 1.4375,0.59375 0.65625,0 1.10938,-0.32813 0.45312,-0.34375 0.71875,-1.07812 z m -3.84375,-1.90625 h 3.85937 q -0.0781,-0.85938 -0.4375,-1.29688 -0.5625,-0.6875 -1.45312,-0.6875 -0.8125,0 -1.35938,0.54688 -0.54687,0.53125 -0.60937,1.4375 z m 6.52185,4.125 v -6.90625 h 1.0625 v 0.98437 q 0.75,-1.14062 2.1875,-1.14062 0.625,0 1.15625,0.21875 0.53125,0.21875 0.78125,0.59375 0.26563,0.35937 0.375,0.85937 0.0625,0.32813 0.0625,1.14063 v 4.25 h -1.17187 v -4.20313 q 0,-0.71875 -0.14063,-1.0625 -0.14062,-0.35937 -0.48437,-0.5625 -0.34375,-0.21875 -0.8125,-0.21875 -0.75,0 -1.29688,0.46875 -0.54687,0.46875 -0.54687,1.79688 v 3.78125 z m 9.66248,2.8125 q -0.98438,-1.23438 -1.65625,-2.875 -0.65625,-1.64063 -0.65625,-3.39063 0,-1.54687 0.5,-2.96875 0.57812,-1.64062 1.8125,-3.28125 h 0.82812 q -0.78125,1.35938 -1.03125,1.9375 -0.40625,0.89063 -0.625,1.875 -0.28125,1.21875 -0.28125,2.4375 0,3.14063 1.9375,6.26563 z m 1.7196,-4.875 1.15625,-0.1875 q 0.10938,0.70312 0.54688,1.07812 0.45312,0.35938 1.25,0.35938 0.8125,0 1.20312,-0.32813 0.39063,-0.32812 0.39063,-0.76562 0,-0.39063 -0.35938,-0.625 -0.23437,-0.15625 -1.1875,-0.39063 -1.29687,-0.32812 -1.79687,-0.5625 -0.48438,-0.25 -0.75,-0.65625 -0.25,-0.42187 -0.25,-0.9375 0,-0.45312 0.20312,-0.84375 0.21875,-0.40625 0.57813,-0.67187 0.28125,-0.1875 0.75,-0.32813 0.46875,-0.14062 1.01562,-0.14062 0.8125,0 1.42188,0.23437 0.60937,0.23438 0.90625,0.64063 0.29687,0.39062 0.40625,1.0625 l -1.14063,0.15625 q -0.0781,-0.53125 -0.45312,-0.82813 -0.375,-0.3125 -1.0625,-0.3125 -0.8125,0 -1.15625,0.26563 -0.34375,0.26562 -0.34375,0.625 0,0.23437 0.14062,0.42187 0.15625,0.1875 0.45313,0.3125 0.17187,0.0625 1.03125,0.29688 1.25,0.32812 1.73437,0.54687 0.5,0.20313 0.78125,0.60938 0.28125,0.40625 0.28125,1 0,0.59375 -0.34375,1.10937 -0.34375,0.51563 -1,0.79688 -0.64062,0.28125 -1.45312,0.28125 -1.34375,0 -2.04688,-0.5625 -0.70312,-0.5625 -0.90625,-1.65625 z m 7.89844,4.875 h -0.82813 q 1.9375,-3.125 1.9375,-6.26563 0,-1.21875 -0.28125,-2.42187 -0.21875,-0.98438 -0.60937,-1.875 -0.26563,-0.59375 -1.04688,-1.95313 h 0.82813 q 1.23437,1.64063 1.8125,3.28125 0.5,1.42188 0.5,2.96875 0,1.75 -0.67188,3.39063 -0.67187,1.64062 -1.64062,2.875 z"
       fill-rule="nonzero"
       id="path33" />
    <path
       fill="#000000"
       d="m 507.7963,143.96656 h -6.3125 v -1.09375 h 6.3125 z m 0,2.89062 h -6.3125 v -1.09375 h 6.3125 z m 11.06451,-4.48437 -1.15625,0.0937 q -0.15625,-0.6875 -0.4375,-1 -0.48437,-0.5 -1.17187,-0.5 -0.5625,0 -0.98438,0.3125 -0.5625,0.39062 -0.89062,1.17187 -0.3125,0.76563 -0.3125,2.20313 0.42187,-0.64063 1.03125,-0.95313 0.60937,-0.3125 1.28125,-0.3125 1.17187,0 1.98437,0.85938 0.82813,0.85937 0.82813,2.23437 0,0.89063 -0.39063,1.67188 -0.375,0.76562 -1.0625,1.17187 -0.67187,0.40625 -1.53125,0.40625 -1.46875,0 -2.39062,-1.0625 -0.92188,-1.07812 -0.92188,-3.5625 0,-2.76562 1.01563,-4.01562 0.90625,-1.09375 2.40625,-1.09375 1.125,0 1.84375,0.64062 0.71875,0.625 0.85937,1.73438 z m -4.78125,4.10937 q 0,0.60938 0.25,1.17188 0.26563,0.54687 0.71875,0.84375 0.46875,0.28125 0.98438,0.28125 0.73437,0 1.26562,-0.59375 0.54688,-0.60938 0.54688,-1.64063 0,-0.98437 -0.53125,-1.54687 -0.53125,-0.57813 -1.32813,-0.57813 -0.79687,0 -1.35937,0.57813 -0.54688,0.5625 -0.54688,1.48437 z"
       fill-rule="nonzero"
       id="path34" />
    <path
       fill="#000000"
       fill-opacity="0"
       d="m 571.74944,111.77593 h 70.07873 v 51.71653 h -70.07873 z"
       fill-rule="evenodd"
       id="path35" />
    <path
       fill="#000000"
       d="m 586.14004,131.04468 1.15625,0.15625 q -0.1875,1.1875 -0.96875,1.85937 -0.78125,0.67188 -1.92188,0.67188 -1.40625,0 -2.28125,-0.92188 -0.85937,-0.9375 -0.85937,-2.65625 0,-1.125 0.375,-1.96875 0.375,-0.84375 1.125,-1.25 0.76562,-0.42187 1.65625,-0.42187 1.125,0 1.84375,0.57812 0.71875,0.5625 0.92187,1.60938 l -1.14062,0.17187 q -0.17188,-0.70312 -0.59375,-1.04687 -0.40625,-0.35938 -0.98438,-0.35938 -0.89062,0 -1.45312,0.64063 -0.54688,0.64062 -0.54688,2 0,1.40625 0.53125,2.03125 0.54688,0.625 1.40625,0.625 0.6875,0 1.14063,-0.42188 0.46875,-0.42187 0.59375,-1.29687 z m 6.66406,1.67187 q -0.65625,0.5625 -1.26562,0.79688 -0.59375,0.21875 -1.28125,0.21875 -1.14063,0 -1.75,-0.54688 -0.60938,-0.5625 -0.60938,-1.4375 0,-0.5 0.21875,-0.92187 0.23438,-0.42188 0.60938,-0.67188 0.375,-0.25 0.84375,-0.39062 0.34375,-0.0781 1.04687,-0.17188 1.42188,-0.17187 2.09375,-0.40625 0,-0.23437 0,-0.29687 0,-0.71875 -0.32812,-1.01563 -0.45313,-0.39062 -1.34375,-0.39062 -0.8125,0 -1.21875,0.29687 -0.39063,0.28125 -0.57813,1.01563 l -1.14062,-0.15625 q 0.15625,-0.73438 0.51562,-1.1875 0.35938,-0.45313 1.03125,-0.6875 0.67188,-0.25 1.5625,-0.25 0.89063,0 1.4375,0.20312 0.5625,0.20313 0.8125,0.53125 0.26563,0.3125 0.375,0.79688 0.0469,0.29687 0.0469,1.07812 v 1.5625 q 0,1.625 0.0781,2.0625 0.0781,0.4375 0.29688,0.82813 h -1.21875 q -0.1875,-0.35938 -0.23438,-0.85938 z m -0.0937,-2.60937 q -0.64062,0.26562 -1.92187,0.4375 -0.71875,0.10937 -1.01563,0.25 -0.29687,0.125 -0.46875,0.375 -0.15625,0.25 -0.15625,0.54687 0,0.46875 0.34375,0.78125 0.35938,0.3125 1.04688,0.3125 0.67187,0 1.20312,-0.29687 0.53125,-0.29688 0.78125,-0.8125 0.1875,-0.39063 0.1875,-1.17188 z m 2.9906,6.125 v -9.5625 h 1.07813 v 0.89062 q 0.375,-0.53125 0.84375,-0.78125 0.48437,-0.26562 1.15625,-0.26562 0.875,0 1.54687,0.45312 0.6875,0.45313 1.03125,1.28125 0.34375,0.82813 0.34375,1.82813 0,1.04687 -0.375,1.90625 -0.375,0.84375 -1.10937,1.29687 -0.71875,0.45313 -1.53125,0.45313 -0.57813,0 -1.04688,-0.25 -0.46875,-0.25 -0.76562,-0.625 v 3.375 z m 1.0625,-6.07813 q 0,1.34375 0.53125,1.98438 0.54688,0.625 1.3125,0.625 0.78125,0 1.34375,-0.65625 0.5625,-0.65625 0.5625,-2.04688 0,-1.3125 -0.54687,-1.96875 -0.54688,-0.67187 -1.29688,-0.67187 -0.75,0 -1.32812,0.70312 -0.57813,0.70313 -0.57813,2.03125 z m 8.59998,6.23438 q -0.98438,-1.23438 -1.65625,-2.875 -0.65625,-1.64063 -0.65625,-3.39063 0,-1.54687 0.5,-2.96875 0.57812,-1.64062 1.8125,-3.28125 h 0.82812 q -0.78125,1.35938 -1.03125,1.9375 -0.40625,0.89063 -0.625,1.875 -0.28125,1.21875 -0.28125,2.4375 0,3.14063 1.9375,6.26563 z m 1.7196,-4.875 1.15625,-0.1875 q 0.10938,0.70312 0.54688,1.07812 0.45312,0.35938 1.25,0.35938 0.8125,0 1.20312,-0.32813 0.39063,-0.32812 0.39063,-0.76562 0,-0.39063 -0.35938,-0.625 -0.23437,-0.15625 -1.1875,-0.39063 -1.29687,-0.32812 -1.79687,-0.5625 -0.48438,-0.25 -0.75,-0.65625 -0.25,-0.42187 -0.25,-0.9375 0,-0.45312 0.20312,-0.84375 0.21875,-0.40625 0.57813,-0.67187 0.28125,-0.1875 0.75,-0.32813 0.46875,-0.14062 1.01562,-0.14062 0.8125,0 1.42188,0.23437 0.60937,0.23438 0.90625,0.64063 0.29687,0.39062 0.40625,1.0625 l -1.14063,0.15625 q -0.0781,-0.53125 -0.45312,-0.82813 -0.375,-0.3125 -1.0625,-0.3125 -0.8125,0 -1.15625,0.26563 -0.34375,0.26562 -0.34375,0.625 0,0.23437 0.14062,0.42187 0.15625,0.1875 0.45313,0.3125 0.17187,0.0625 1.03125,0.29688 1.25,0.32812 1.73437,0.54687 0.5,0.20313 0.78125,0.60938 0.28125,0.40625 0.28125,1 0,0.59375 -0.34375,1.10937 -0.34375,0.51563 -1,0.79688 -0.64062,0.28125 -1.45312,0.28125 -1.34375,0 -2.04688,-0.5625 -0.70312,-0.5625 -0.90625,-1.65625 z m 7.89844,4.875 h -0.82813 q 1.9375,-3.125 1.9375,-6.26563 0,-1.21875 -0.28125,-2.42187 -0.21875,-0.98438 -0.60937,-1.875 -0.26563,-0.59375 -1.04688,-1.95313 h 0.82813 q 1.23437,1.64063 1.8125,3.28125 0.5,1.42188 0.5,2.96875 0,1.75 -0.67188,3.39063 -0.67187,1.64062 -1.64062,2.875 z"
       fill-rule="nonzero"
       id="path36" />
    <path
       fill="#000000"
       d="m 587.7963,143.96656 h -6.3125 v -1.09375 h 6.3125 z m 0,2.89062 h -6.3125 v -1.09375 h 6.3125 z m 6.79889,-2.45312 q -0.73438,-0.26563 -1.09375,-0.76563 -0.34375,-0.5 -0.34375,-1.1875 0,-1.03125 0.75,-1.73437 0.75,-0.71875 1.98437,-0.71875 1.25,0 2.01563,0.73437 0.76562,0.71875 0.76562,1.75 0,0.67188 -0.35937,1.17188 -0.34375,0.48437 -1.04688,0.75 0.875,0.28125 1.32813,0.92187 0.46875,0.64063 0.46875,1.51563 0,1.23437 -0.875,2.0625 -0.85938,0.82812 -2.26563,0.82812 -1.42187,0 -2.28125,-0.82812 -0.85937,-0.84375 -0.85937,-2.09375 0,-0.92188 0.46875,-1.54688 0.46875,-0.64062 1.34375,-0.85937 z m -0.23438,-1.98438 q 0,0.67188 0.4375,1.10938 0.4375,0.42187 1.125,0.42187 0.67188,0 1.10938,-0.42187 0.4375,-0.42188 0.4375,-1.04688 0,-0.64062 -0.45313,-1.07812 -0.4375,-0.4375 -1.10937,-0.4375 -0.67188,0 -1.10938,0.4375 -0.4375,0.42187 -0.4375,1.01562 z m -0.375,4.40625 q 0,0.5 0.23438,0.96875 0.23437,0.46875 0.70312,0.73438 0.46875,0.25 1.01563,0.25 0.82812,0 1.375,-0.53125 0.54687,-0.54688 0.54687,-1.39063 0,-0.84375 -0.5625,-1.39062 -0.5625,-0.5625 -1.40625,-0.5625 -0.82812,0 -1.375,0.54687 -0.53125,0.54688 -0.53125,1.375 z"
       fill-rule="nonzero"
       id="path37" />
    <path
       fill="#000000"
       fill-opacity="0"
       d="m 266.83079,116.62633 v 0"
       fill-rule="evenodd"
       id="path38" />
    <path
       stroke="#595959"
       stroke-width="1"
       stroke-linejoin="round"
       stroke-linecap="butt"
       d="m 266.83079,116.62633 v 0"
       fill-rule="evenodd"
       id="path39" />
    <path
       fill="#000000"
       fill-opacity="0"
       d="m 259.72844,115.34286 v 7.96849"
       fill-rule="evenodd"
       id="path40" />
    <path
       stroke="#999999"
       stroke-width="1"
       stroke-linejoin="round"
       stroke-linecap="butt"
       d="m 259.72844,115.34286 v 7.96849"
       fill-rule="evenodd"
       id="path41" />
    <path
       fill="#000000"
       fill-opacity="0"
       d="m 501.66284,115.32268 v 7.9685"
       fill-rule="evenodd"
       id="path42" />
    <path
       stroke="#999999"
       stroke-width="1"
       stroke-linejoin="round"
       stroke-linecap="butt"
       d="m 501.66284,115.32268 v 7.9685"
       fill-rule="evenodd"
       id="path43" />
    <path
       fill="#000000"
       fill-opacity="0"
       d="m 582.24554,115.32268 v 7.9685"
       fill-rule="evenodd"
       id="path44" />
    <path
       stroke="#999999"
       stroke-width="1"
       stroke-linejoin="round"
       stroke-linecap="butt"
       d="m 582.24554,115.32268 v 7.9685"
       fill-rule="evenodd"
       id="path45" />
    <path
       fill="#000000"
       fill-opacity="0"
       d="m 133.68644,23.949153 h 30.96063 v 37.16535 h -30.96063 z"
       fill-rule="evenodd"
       id="path46" />
    <path
       fill="#000000"
       d="m 143.03019,44.857283 2.01563,-0.296875 q 0.125,0.578125 0.51562,0.890625 0.40625,0.296875 1.10938,0.296875 0.78125,0 1.17187,-0.28125 0.26563,-0.203125 0.26563,-0.546875 0,-0.21875 -0.14063,-0.375 -0.15625,-0.140625 -0.67187,-0.265625 -2.4375,-0.53125 -3.07813,-0.984375 -0.90625,-0.609375 -0.90625,-1.703125 0,-0.984375 0.78125,-1.65625 0.78125,-0.671875 2.42188,-0.671875 1.54687,0 2.3125,0.515625 0.76562,0.5 1.04687,1.484375 l -1.90625,0.359375 q -0.10937,-0.453125 -0.45312,-0.6875 -0.34375,-0.234375 -0.96875,-0.234375 -0.79688,0 -1.14063,0.21875 -0.23437,0.15625 -0.23437,0.40625 0,0.21875 0.20312,0.375 0.28125,0.203125 1.875,0.5625 1.60938,0.359375 2.25,0.890625 0.625,0.546875 0.625,1.5 0,1.046875 -0.875,1.796875 -0.85937,0.75 -2.57812,0.75 -1.54688,0 -2.45313,-0.625 -0.90625,-0.640625 -1.1875,-1.71875 z"
       fill-rule="nonzero"
       id="path47" />
    <path
       shape-rendering="crispEdges"
       fill="#ffffff"
       d="m 163.74418,25.949153 h 41.94226 v 32.874016 h -41.94226 z"
       fill-rule="nonzero"
       id="path48" />
    <path
       shape-rendering="crispEdges"
       fill="#ffffff"
       d="m 163.74418,58.823169 h 41.94226 v 32.874016 h -41.94226 z"
       fill-rule="nonzero"
       id="path49" />
    <path
       shape-rendering="crispEdges"
       fill="#ffffff"
       d="m 163.74418,91.697183 h 41.94226 v 28.225727 h -41.94226 z"
       fill-rule="nonzero"
       id="path50" />
    <path
       stroke="#9e9e9e"
       stroke-width="1"
       stroke-linecap="butt"
       d="M 163.74418,25.450463 V 120.4216"
       fill-rule="nonzero"
       id="path51" />
    <path
       stroke="#9e9e9e"
       stroke-width="1"
       stroke-linecap="butt"
       d="M 205.68644,25.450463 V 120.4216"
       fill-rule="nonzero"
       id="path52" />
    <path
       stroke="#9e9e9e"
       stroke-width="1"
       stroke-linecap="butt"
       d="m 163.24549,25.949153 h 42.93963"
       fill-rule="nonzero"
       id="path53" />
    <path
       stroke="#9e9e9e"
       stroke-width="1"
       stroke-linecap="butt"
       d="m 163.24549,58.823169 h 42.93963"
       fill-rule="nonzero"
       id="path54" />
    <path
       stroke="#9e9e9e"
       stroke-width="1"
       stroke-linecap="butt"
       d="m 163.24549,91.697183 h 42.93963"
       fill-rule="nonzero"
       id="path55" />
    <path
       stroke="#9e9e9e"
       stroke-width="1"
       stroke-linecap="butt"
       d="m 163.24549,119.92291 h 42.93963"
       fill-rule="nonzero"
       id="path56" />
    <path
       fill="#000000"
       d="m 167.40795,47.314153 v -7.65625 h 0.85938 v 0.71875 q 0.29687,-0.421875 0.67187,-0.625 0.39063,-0.21875 0.92188,-0.21875 0.70312,0 1.25,0.375 0.54687,0.359375 0.8125,1.03125 0.28125,0.65625 0.28125,1.453125 0,0.84375 -0.3125,1.53125 -0.29688,0.671875 -0.875,1.03125 -0.57813,0.359375 -1.21875,0.359375 -0.46875,0 -0.84375,-0.1875 -0.375,-0.203125 -0.60938,-0.515625 v 2.703125 z m 0.84375,-4.859375 q 0,1.0625 0.4375,1.578125 0.4375,0.515625 1.04688,0.515625 0.625,0 1.0625,-0.53125 0.45312,-0.53125 0.45312,-1.640625 0,-1.046875 -0.4375,-1.578125 -0.4375,-0.53125 -1.04687,-0.53125 -0.59375,0 -1.0625,0.5625 -0.45313,0.5625 -0.45313,1.625 z m 7.12962,1.890625 0.125,0.828125 q -0.39062,0.09375 -0.70312,0.09375 -0.5,0 -0.78125,-0.15625 -0.28125,-0.171875 -0.40625,-0.4375 -0.10938,-0.265625 -0.10938,-1.109375 v -3.171875 h -0.6875 v -0.734375 h 0.6875 v -1.359375 l 0.9375,-0.5625 v 1.921875 h 0.9375 v 0.734375 h -0.9375 v 3.234375 q 0,0.390625 0.0469,0.515625 0.0469,0.109375 0.15625,0.1875 0.10938,0.0625 0.32813,0.0625 0.15625,0 0.40625,-0.04687 z m 0.89815,0.84375 v -5.53125 h 0.84375 v 0.84375 q 0.32813,-0.59375 0.59375,-0.78125 0.28125,-0.1875 0.60938,-0.1875 0.46875,0 0.95312,0.3125 l -0.3125,0.859375 q -0.34375,-0.203125 -0.6875,-0.203125 -0.3125,0 -0.5625,0.1875 -0.23437,0.1875 -0.34375,0.515625 -0.15625,0.5 -0.15625,1.09375 v 2.890625 z"
       fill-rule="nonzero"
       id="path57" />
    <path
       fill="#000000"
       d="m 167.39233,78.063163 v -7.625 h 0.9375 v 7.625 z m 6.16435,-1.78125 0.96875,0.125 q -0.23437,0.84375 -0.85937,1.3125 -0.60938,0.46875 -1.57813,0.46875 -1.20312,0 -1.92187,-0.75 -0.70313,-0.75 -0.70313,-2.09375 0,-1.390625 0.71875,-2.15625 0.71875,-0.78125 1.85938,-0.78125 1.10937,0 1.8125,0.765625 0.70312,0.75 0.70312,2.125 0,0.07813 0,0.234375 h -4.125 q 0.0469,0.921875 0.51563,1.40625 0.46875,0.484375 1.15625,0.484375 0.51562,0 0.875,-0.265625 0.35937,-0.28125 0.57812,-0.875 z m -3.07812,-1.515625 h 3.09375 q -0.0625,-0.6875 -0.35938,-1.046875 -0.45312,-0.53125 -1.15625,-0.53125 -0.64062,0 -1.09375,0.4375 -0.4375,0.421875 -0.48437,1.140625 z m 5.22337,3.296875 v -5.53125 h 0.84375 v 0.796875 q 0.60938,-0.921875 1.75,-0.921875 0.5,0 0.92188,0.1875 0.42187,0.171875 0.625,0.46875 0.21875,0.296875 0.29687,0.6875 0.0469,0.265625 0.0469,0.921875 v 3.390625 h -0.9375 v -3.359375 q 0,-0.578125 -0.10937,-0.859375 -0.10938,-0.28125 -0.39063,-0.453125 -0.26562,-0.171875 -0.64062,-0.171875 -0.59375,0 -1.03125,0.390625 -0.4375,0.375 -0.4375,1.4375 v 3.015625 z m 10.84837,-4.484375 h -5.03125 v -0.875 h 5.03125 z m 0,2.3125 h -5.03125 v -0.875 h 5.03125 z m 5.89496,-3.59375 -0.92187,0.07813 q -0.125,-0.546875 -0.35938,-0.796875 -0.375,-0.40625 -0.9375,-0.40625 -0.4375,0 -0.78125,0.25 -0.4375,0.328125 -0.70312,0.953125 -0.25,0.609375 -0.26563,1.75 0.34375,-0.515625 0.82813,-0.765625 0.5,-0.25 1.03125,-0.25 0.9375,0 1.59375,0.703125 0.65625,0.6875 0.65625,1.765625 0,0.71875 -0.3125,1.34375 -0.3125,0.609375 -0.85938,0.9375 -0.53125,0.328125 -1.21875,0.328125 -1.17187,0 -1.90625,-0.859375 -0.73437,-0.859375 -0.73437,-2.828125 0,-2.21875 0.8125,-3.21875 0.71875,-0.875 1.92187,-0.875 0.89063,0 1.46875,0.5 0.57813,0.5 0.6875,1.390625 z m -3.8125,3.296875 q 0,0.484375 0.20313,0.921875 0.20312,0.4375 0.5625,0.671875 0.375,0.234375 0.78125,0.234375 0.59375,0 1.01562,-0.46875 0.4375,-0.484375 0.4375,-1.3125 0,-0.78125 -0.42187,-1.234375 -0.42188,-0.46875 -1.0625,-0.46875 -0.64063,0 -1.07813,0.46875 -0.4375,0.453125 -0.4375,1.1875 z"
       fill-rule="nonzero"
       id="path58" />
    <path
       fill="#000000"
       d="m 171.01733,108.90595 0.92188,0.125 q -0.15625,0.95312 -0.78125,1.5 -0.625,0.53125 -1.53125,0.53125 -1.125,0 -1.8125,-0.73438 -0.6875,-0.75 -0.6875,-2.125 0,-0.90625 0.29687,-1.57812 0.29688,-0.67188 0.89063,-1 0.60937,-0.34375 1.32812,-0.34375 0.89063,0 1.46875,0.46875 0.57813,0.45312 0.73438,1.28125 l -0.90625,0.14062 q -0.14063,-0.54687 -0.46875,-0.82812 -0.32813,-0.28125 -0.79688,-0.28125 -0.70312,0 -1.15625,0.51562 -0.4375,0.5 -0.4375,1.59375 0,1.10938 0.42188,1.625 0.4375,0.5 1.125,0.5 0.54687,0 0.90625,-0.34375 0.375,-0.34375 0.48437,-1.04687 z m 5.32813,1.34375 q -0.53125,0.45312 -1.01563,0.64062 -0.46875,0.17188 -1.01562,0.17188 -0.92188,0 -1.40625,-0.4375 -0.48438,-0.45313 -0.48438,-1.14063 0,-0.40625 0.17188,-0.73437 0.1875,-0.34375 0.48437,-0.54688 0.3125,-0.20312 0.6875,-0.3125 0.26563,-0.0625 0.82813,-0.14062 1.125,-0.125 1.67187,-0.3125 0,-0.20313 0,-0.25 0,-0.57813 -0.26562,-0.8125 -0.35938,-0.3125 -1.0625,-0.3125 -0.65625,0 -0.98438,0.23437 -0.3125,0.23438 -0.45312,0.8125 l -0.92188,-0.125 q 0.125,-0.57812 0.40625,-0.9375 0.29688,-0.375 0.82813,-0.5625 0.54687,-0.20312 1.25,-0.20312 0.71875,0 1.15625,0.17187 0.4375,0.17188 0.64062,0.42188 0.21875,0.25 0.29688,0.64062 0.0469,0.23438 0.0469,0.85938 v 1.25 q 0,1.29687 0.0625,1.65625 0.0625,0.34375 0.23437,0.65625 h -0.96875 q -0.15625,-0.29688 -0.1875,-0.6875 z m -0.0781,-2.07813 q -0.51563,0.20313 -1.53125,0.34375 -0.57813,0.0781 -0.82813,0.1875 -0.23437,0.10938 -0.35937,0.3125 -0.125,0.1875 -0.125,0.4375 0,0.375 0.28125,0.625 0.28125,0.25 0.82812,0.25 0.53125,0 0.95313,-0.23437 0.42187,-0.23438 0.625,-0.65625 0.15625,-0.3125 0.15625,-0.9375 z m 2.39524,4.89063 v -7.65625 h 0.85938 v 0.71875 q 0.29687,-0.42188 0.67187,-0.625 0.39063,-0.21875 0.92188,-0.21875 0.70312,0 1.25,0.375 0.54687,0.35937 0.8125,1.03125 0.28125,0.65625 0.28125,1.45312 0,0.84375 -0.3125,1.53125 -0.29688,0.67188 -0.875,1.03125 -0.57813,0.35938 -1.21875,0.35938 -0.46875,0 -0.84375,-0.1875 -0.375,-0.20313 -0.60938,-0.51563 v 2.70313 z m 0.84375,-4.85938 q 0,1.0625 0.4375,1.57813 0.4375,0.51562 1.04688,0.51562 0.625,0 1.0625,-0.53125 0.45312,-0.53125 0.45312,-1.64062 0,-1.04688 -0.4375,-1.57813 -0.4375,-0.53125 -1.04687,-0.53125 -0.59375,0 -1.0625,0.5625 -0.45313,0.5625 -0.45313,1.625 z m 10.00463,-1.75 h -5.03125 v -0.875 h 5.03125 z m 0,2.3125 h -5.03125 v -0.875 h 5.03125 z m 2.48871,-1.96875 q -0.59375,-0.20312 -0.875,-0.59375 -0.28125,-0.40625 -0.28125,-0.95312 0,-0.84375 0.59375,-1.40625 0.60937,-0.5625 1.59375,-0.5625 1,0 1.60937,0.57812 0.60938,0.57813 0.60938,1.40625 0,0.53125 -0.28125,0.9375 -0.26563,0.39063 -0.84375,0.59375 0.70312,0.23438 1.0625,0.75 0.375,0.5 0.375,1.20313 0,0.98437 -0.6875,1.65625 -0.6875,0.65625 -1.82813,0.65625 -1.125,0 -1.8125,-0.65625 -0.6875,-0.67188 -0.6875,-1.67188 0,-0.75 0.375,-1.25 0.375,-0.5 1.07813,-0.6875 z m -0.1875,-1.57812 q 0,0.53125 0.34375,0.875 0.34375,0.34375 0.90625,0.34375 0.53125,0 0.875,-0.32813 0.35937,-0.34375 0.35937,-0.84375 0,-0.51562 -0.35937,-0.85937 -0.35938,-0.35938 -0.89063,-0.35938 -0.53125,0 -0.89062,0.34375 -0.34375,0.34375 -0.34375,0.82813 z m -0.3125,3.51562 q 0,0.40625 0.1875,0.78125 0.20312,0.375 0.57812,0.57813 0.375,0.20312 0.79688,0.20312 0.67187,0 1.10937,-0.42187 0.4375,-0.4375 0.4375,-1.10938 0,-0.67187 -0.45312,-1.10937 -0.45313,-0.45313 -1.125,-0.45313 -0.65625,0 -1.09375,0.4375 -0.4375,0.4375 -0.4375,1.09375 z"
       fill-rule="nonzero"
       id="path59" />
    <path
       fill="#000000"
       fill-opacity="0"
       d="m 193.68644,41.949153 66.01575,48"
       fill-rule="evenodd"
       id="path60" />
    <path
       stroke="#674ea7"
       stroke-width="2"
       stroke-linejoin="round"
       stroke-linecap="butt"
       d="m 199.81716,46.406803 50.1794,36.48539"
       fill-rule="evenodd"
       id="path61" />
    <path
       fill="#674ea7"
       stroke="#674ea7"
       stroke-width="2"
       stroke-linecap="butt"
       d="m 194.49524,42.537233 c 1.06854,-1.469612 3.12613,-1.794731 4.59573,-0.726181 1.46962,1.06855 1.79474,3.126137 0.72618,4.595749 -1.06854,1.469604 -3.12612,1.794723 -4.59573,0.726173 -1.46962,-1.06855 -1.79474,-3.126136 -0.72618,-4.595741 z"
       fill-rule="nonzero"
       id="path62" />
    <path
       fill="#674ea7"
       stroke="#674ea7"
       stroke-width="2"
       stroke-linecap="butt"
       d="m 248.05384,85.564053 9.28357,2.665665 -5.39817,-8.009369 z"
       fill-rule="evenodd"
       id="path63" />
  </g>
</svg>
