<?xml version="1.0" encoding="UTF-8" standalone="no"?>
<svg
   version="1.1"
   viewBox="0 0 624 228"
   fill="none"
   stroke="none"
   stroke-linecap="square"
   stroke-miterlimit="10"
   id="svg138"
   sodipodi:docname="4_delete_s_2_5_nil.svg"
   width="624"
   height="228"
   inkscape:version="1.3.2 (091e20e, 2023-11-25)"
   xmlns:inkscape="http://www.inkscape.org/namespaces/inkscape"
   xmlns:sodipodi="http://sodipodi.sourceforge.net/DTD/sodipodi-0.dtd"
   xmlns="http://www.w3.org/2000/svg"
   xmlns:svg="http://www.w3.org/2000/svg">
  <defs
     id="defs138" />
  <sodipodi:namedview
     id="namedview138"
     pagecolor="#ffffff"
     bordercolor="#000000"
     borderopacity="0.25"
     inkscape:showpageshadow="2"
     inkscape:pageopacity="0.0"
     inkscape:pagecheckerboard="0"
     inkscape:deskcolor="#d1d1d1"
     inkscape:zoom="0.43703704"
     inkscape:cx="480.50847"
     inkscape:cy="270"
     inkscape:window-width="1312"
     inkscape:window-height="449"
     inkscape:window-x="118"
     inkscape:window-y="367"
     inkscape:window-maximized="0"
     inkscape:current-layer="g138" />
  <clipPath
     id="g2ae8329a7cf_0_31.0">
    <path
       d="M 0,0 H 960 V 540 H 0 Z"
       clip-rule="nonzero"
       id="path1" />
  </clipPath>
  <g
     clip-path="url(#g2ae8329a7cf_0_31.0)"
     id="g138">
    <path
       fill="#ffffff"
       d="M 0,0 H 616.77966 V 226.52542 H 0 Z"
       fill-rule="evenodd"
       id="path2"
       style="stroke-width:0.519148" />
    <path
       fill="#000000"
       fill-opacity="0"
       d="M 29.661017,13.541835 H 344.62165 V 55.557597 H 29.661017 Z"
       fill-rule="evenodd"
       id="path3" />
    <path
       fill="#000000"
       d="m 46.301642,37.758705 q 0,0.21875 -0.109375,0.421875 -0.109375,0.1875 -0.34375,0.328125 -0.234375,0.15625 -0.609375,0.25 -0.359375,0.07813 -0.859375,0.07813 -0.40625,0 -0.796875,-0.07813 -0.390625,-0.09375 -0.6875,-0.28125 -0.296875,-0.171875 -0.5,-0.453125 -0.1875,-0.28125 -0.203125,-0.6875 h -2.421875 q 0,0.609375 0.296875,1.203125 0.296875,0.59375 0.875,1.0625 0.5625,0.46875 1.421875,0.765625 0.859375,0.28125 1.96875,0.28125 1,0 1.8125,-0.21875 0.828125,-0.21875 1.421875,-0.625 0.5625,-0.40625 0.875,-0.953125 0.328125,-0.546875 0.328125,-1.203125 0,-0.71875 -0.328125,-1.234375 -0.3125,-0.515625 -0.859375,-0.875 -0.5625,-0.359375 -1.328125,-0.578125 -0.765625,-0.234375 -1.65625,-0.375 -0.625,-0.09375 -1.03125,-0.21875 -0.390625,-0.125 -0.609375,-0.28125 -0.25,-0.140625 -0.34375,-0.328125 -0.07813,-0.1875 -0.07813,-0.40625 0,-0.21875 0.09375,-0.40625 0.109375,-0.203125 0.3125,-0.34375 0.21875,-0.171875 0.5625,-0.25 0.34375,-0.09375 0.8125,-0.09375 0.546875,0 0.9375,0.140625 0.390625,0.125 0.609375,0.359375 0.171875,0.171875 0.25,0.390625 0.07813,0.203125 0.07813,0.453125 h 2.53125 q 0,-0.6875 -0.296875,-1.265625 -0.296875,-0.578125 -0.859375,-1.015625 -0.578125,-0.421875 -1.40625,-0.65625 -0.8125,-0.234375 -1.84375,-0.234375 -0.984375,0 -1.765625,0.25 -0.78125,0.234375 -1.328125,0.65625 -0.546875,0.421875 -0.84375,0.984375 -0.28125,0.546875 -0.28125,1.15625 0,0.625 0.28125,1.109375 0.28125,0.484375 0.796875,0.84375 0.515625,0.375 1.21875,0.640625 0.71875,0.25 1.578125,0.421875 0.6875,0.140625 1.125,0.265625 0.453125,0.125 0.734375,0.265625 0.265625,0.15625 0.359375,0.328125 0.109375,0.171875 0.109375,0.40625 z M 71.114661,33.93058 v -2.078125 h -8.625 v 2.078125 z m 0,3.921875 v -2.0625 h -8.625 v 2.0625 z m 19.969269,-0.09375 q 0,0.21875 -0.109375,0.421875 -0.109375,0.1875 -0.34375,0.328125 -0.234375,0.15625 -0.609375,0.25 -0.359375,0.07813 -0.859375,0.07813 -0.40625,0 -0.796875,-0.07813 -0.390625,-0.09375 -0.6875,-0.28125 -0.296875,-0.171875 -0.5,-0.453125 -0.1875,-0.28125 -0.203125,-0.6875 H 84.55268 q 0,0.609375 0.296875,1.203125 0.296875,0.59375 0.875,1.0625 0.5625,0.46875 1.421875,0.765625 0.859375,0.28125 1.96875,0.28125 1,0 1.8125,-0.21875 0.828125,-0.21875 1.421875,-0.625 0.5625,-0.40625 0.875,-0.953125 0.328125,-0.546875 0.328125,-1.203125 0,-0.71875 -0.328125,-1.234375 -0.3125,-0.515625 -0.859375,-0.875 -0.5625,-0.359375 -1.328125,-0.578125 -0.765625,-0.234375 -1.65625,-0.375 -0.625,-0.09375 -1.03125,-0.21875 -0.390625,-0.125 -0.609375,-0.28125 -0.25,-0.140625 -0.34375,-0.328125 -0.07813,-0.1875 -0.07813,-0.40625 0,-0.21875 0.09375,-0.40625 0.109375,-0.203125 0.3125,-0.34375 0.21875,-0.171875 0.5625,-0.25 0.34375,-0.09375 0.8125,-0.09375 0.546875,0 0.9375,0.140625 0.390625,0.125 0.609375,0.359375 0.171875,0.171875 0.25,0.390625 0.07813,0.203125 0.07813,0.453125 h 2.53125 q 0,-0.6875 -0.296875,-1.265625 -0.296875,-0.578125 -0.859375,-1.015625 -0.578125,-0.421875 -1.40625,-0.65625 -0.8125,-0.234375 -1.84375,-0.234375 -0.984375,0 -1.765625,0.25 -0.78125,0.234375 -1.328125,0.65625 -0.546875,0.421875 -0.84375,0.984375 -0.28125,0.546875 -0.28125,1.15625 0,0.625 0.28125,1.109375 0.28125,0.484375 0.796875,0.84375 0.515625,0.375 1.21875,0.640625 0.71875,0.25 1.578125,0.421875 0.6875,0.140625 1.125,0.265625 0.453125,0.125 0.734375,0.265625 0.265625,0.15625 0.359375,0.328125 0.109375,0.171875 0.109375,0.40625 z M 96.451377,26.46183 v 2.078125 h 2.953125 v 9.859375 h -2.953125 v 2.0625 h 8.328123 v -2.0625 h -2.8125 v -11.9375 z m 11.336193,4.140625 v 2.078125 h 2.8125 v 5.71875 h -2.8125 v 2.0625 h 8.04688 v -2.0625 h -2.67188 v -7.796875 z m 2.625,-2.515625 q 0,0.28125 0.10938,0.53125 0.10937,0.25 0.29687,0.421875 0.1875,0.1875 0.45313,0.296875 0.28125,0.09375 0.60937,0.09375 0.67188,0 1.0625,-0.375 0.39063,-0.375 0.39063,-0.96875 0,-0.59375 -0.39063,-0.96875 -0.39062,-0.390625 -1.0625,-0.390625 -0.32812,0 -0.60937,0.109375 -0.26563,0.09375 -0.45313,0.265625 -0.1875,0.1875 -0.29687,0.4375 -0.10938,0.25 -0.10938,0.546875 z m 12.25808,10.53125 q -0.60938,0 -1,-0.234375 -0.39063,-0.25 -0.625,-0.65625 -0.23438,-0.40625 -0.32813,-0.9375 -0.0937,-0.53125 -0.0937,-1.109375 v -0.28125 q 0,-0.5625 0.0937,-1.078125 0.10938,-0.53125 0.34375,-0.953125 0.21875,-0.40625 0.60938,-0.640625 0.39062,-0.25 1,-0.25 0.40625,0 0.75,0.140625 0.34375,0.140625 0.59375,0.375 0.25,0.234375 0.375,0.5625 0.125,0.328125 0.10937,0.6875 h 2.39063 q 0.0156,-0.875 -0.29688,-1.578125 -0.3125,-0.703125 -0.85937,-1.203125 -0.5625,-0.484375 -1.34375,-0.75 -0.76563,-0.28125 -1.6875,-0.28125 -1.14063,0 -2,0.390625 -0.85938,0.390625 -1.4375,1.0625 -0.57813,0.671875 -0.875,1.578125 -0.29688,0.90625 -0.29688,1.9375 v 0.28125 q 0,1.03125 0.29688,1.9375 0.29687,0.90625 0.875,1.59375 0.57812,0.671875 1.4375,1.0625 0.875,0.375 2.01562,0.375 0.85938,0 1.60938,-0.265625 0.76562,-0.265625 1.34375,-0.734375 0.5625,-0.484375 0.89062,-1.140625 0.34375,-0.65625 0.32813,-1.421875 h -2.39063 q 0.0156,0.34375 -0.125,0.640625 -0.14062,0.28125 -0.39062,0.46875 -0.25,0.203125 -0.59375,0.3125 -0.34375,0.109375 -0.71875,0.109375 z m 11.61744,2.03125 q 1.4375,0 2.48438,-0.546875 1.04687,-0.5625 1.53125,-1.25 l -1.26563,-1.375 q -0.4375,0.578125 -1.14062,0.859375 -0.70313,0.28125 -1.45313,0.28125 -0.53125,0 -0.98437,-0.15625 -0.4375,-0.171875 -0.78125,-0.484375 -0.32813,-0.28125 -0.53125,-0.640625 -0.20313,-0.359375 -0.32813,-0.953125 v -0.03125 h 6.6875 V 35.27433 q 0,-1.078125 -0.3125,-1.96875 -0.29687,-0.90625 -0.875,-1.546875 -0.57812,-0.640625 -1.42187,-0.984375 -0.82813,-0.34375 -1.89063,-0.34375 -1.03125,0 -1.90625,0.375 -0.875,0.359375 -1.5,1.03125 -0.64062,0.6875 -1,1.625 -0.35937,0.921875 -0.35937,2.046875 v 0.375 q 0,0.984375 0.35937,1.859375 0.35938,0.875 1.03125,1.5 0.65625,0.65625 1.57813,1.03125 0.9375,0.375 2.07812,0.375 z m -0.29687,-8.171875 q 0.48437,0 0.84375,0.15625 0.375,0.140625 0.625,0.390625 0.26562,0.265625 0.40625,0.625 0.14062,0.359375 0.14062,0.75 v 0.203125 h -4.14062 q 0.0781,-0.484375 0.26562,-0.875 0.1875,-0.390625 0.45313,-0.671875 0.26562,-0.28125 0.625,-0.421875 0.35937,-0.15625 0.78125,-0.15625 z m 13.07057,5.28125 q 0,0.21875 -0.10938,0.421875 -0.10937,0.1875 -0.34375,0.328125 -0.23437,0.15625 -0.60937,0.25 -0.35938,0.07813 -0.85938,0.07813 -0.40625,0 -0.79687,-0.07813 -0.39063,-0.09375 -0.6875,-0.28125 -0.29688,-0.171875 -0.5,-0.453125 -0.1875,-0.28125 -0.20313,-0.6875 h -2.42187 q 0,0.609375 0.29687,1.203125 0.29688,0.59375 0.875,1.0625 0.5625,0.46875 1.42188,0.765625 0.85937,0.28125 1.96875,0.28125 1,0 1.8125,-0.21875 0.82812,-0.21875 1.42187,-0.625 0.5625,-0.40625 0.875,-0.953125 0.32813,-0.546875 0.32813,-1.203125 0,-0.71875 -0.32813,-1.234375 -0.3125,-0.515625 -0.85937,-0.875 -0.5625,-0.359375 -1.32813,-0.578125 -0.76562,-0.234375 -1.65625,-0.375 -0.625,-0.09375 -1.03125,-0.21875 -0.39062,-0.125 -0.60937,-0.28125 -0.25,-0.140625 -0.34375,-0.328125 -0.0781,-0.1875 -0.0781,-0.40625 0,-0.21875 0.0937,-0.40625 0.10938,-0.203125 0.3125,-0.34375 0.21875,-0.171875 0.5625,-0.25 0.34375,-0.09375 0.8125,-0.09375 0.54688,0 0.9375,0.140625 0.39063,0.125 0.60938,0.359375 0.17187,0.171875 0.25,0.390625 0.0781,0.203125 0.0781,0.453125 h 2.53125 q 0,-0.6875 -0.29687,-1.265625 -0.29688,-0.578125 -0.85938,-1.015625 -0.57812,-0.421875 -1.40625,-0.65625 -0.8125,-0.234375 -1.84375,-0.234375 -0.98437,0 -1.76562,0.25 -0.78125,0.234375 -1.32813,0.65625 -0.54687,0.421875 -0.84375,0.984375 -0.28125,0.546875 -0.28125,1.15625 0,0.625 0.28125,1.109375 0.28125,0.484375 0.79688,0.84375 0.51562,0.375 1.21875,0.640625 0.71875,0.25 1.57812,0.421875 0.6875,0.140625 1.125,0.265625 0.45313,0.125 0.73438,0.265625 0.26562,0.15625 0.35937,0.328125 0.10938,0.171875 0.10938,0.40625 z m 7.3987,1.234375 q 0,0.703125 0.46875,1.1875 0.48437,0.46875 1.29687,0.46875 0.79688,0 1.26563,-0.46875 0.48437,-0.46875 0.48437,-1.1875 0,-0.703125 -0.46875,-1.1875 -0.46875,-0.484375 -1.28125,-0.484375 -0.84375,0 -1.3125,0.484375 -0.45312,0.484375 -0.45312,1.1875 z m 8.49244,1.46875 h 3.5625 q 0.875,0 1.65625,-0.21875 0.78125,-0.21875 1.42188,-0.625 0.5625,-0.34375 1.03125,-0.859375 0.46875,-0.515625 0.8125,-1.125 0.35937,-0.6875 0.5625,-1.5 0.20312,-0.828125 0.20312,-1.75 v -1.09375 q 0,-0.953125 -0.21875,-1.796875 -0.21875,-0.84375 -0.60937,-1.546875 -0.32813,-0.578125 -0.78125,-1.0625 -0.45313,-0.484375 -1.03125,-0.828125 -0.65625,-0.40625 -1.45313,-0.625 -0.79687,-0.234375 -1.71875,-0.234375 h -3.4375 z m 2.57813,-11.1875 h 0.85937 q 0.45313,0 0.84375,0.109375 0.40625,0.09375 0.73438,0.296875 0.4375,0.25 0.75,0.65625 0.32812,0.390625 0.53125,0.90625 0.15625,0.421875 0.23437,0.9375 0.0937,0.515625 0.0937,1.09375 v 1.109375 q 0,0.609375 -0.0937,1.140625 -0.0781,0.515625 -0.23437,0.953125 -0.20313,0.484375 -0.48438,0.859375 -0.28125,0.359375 -0.625,0.609375 -0.32812,0.21875 -0.75,0.34375 -0.40625,0.109375 -0.875,0.109375 h -0.98437 z m 13.53932,11.375 q 1.4375,0 2.48438,-0.546875 1.04687,-0.5625 1.53125,-1.25 l -1.26563,-1.375 q -0.4375,0.578125 -1.14062,0.859375 -0.70313,0.28125 -1.45313,0.28125 -0.53125,0 -0.98437,-0.15625 -0.4375,-0.171875 -0.78125,-0.484375 -0.32813,-0.28125 -0.53125,-0.640625 -0.20313,-0.359375 -0.32813,-0.953125 v -0.03125 h 6.6875 V 35.27433 q 0,-1.078125 -0.3125,-1.96875 -0.29687,-0.90625 -0.875,-1.546875 -0.57812,-0.640625 -1.42187,-0.984375 -0.82813,-0.34375 -1.89063,-0.34375 -1.03125,0 -1.90625,0.375 -0.875,0.359375 -1.5,1.03125 -0.64062,0.6875 -1,1.625 -0.35937,0.921875 -0.35937,2.046875 v 0.375 q 0,0.984375 0.35937,1.859375 0.35938,0.875 1.03125,1.5 0.65625,0.65625 1.57813,1.03125 0.9375,0.375 2.07812,0.375 z m -0.29687,-8.171875 q 0.48437,0 0.84375,0.15625 0.375,0.140625 0.625,0.390625 0.26562,0.265625 0.40625,0.625 0.14062,0.359375 0.14062,0.75 v 0.203125 h -4.14062 q 0.0781,-0.484375 0.26562,-0.875 0.1875,-0.390625 0.45313,-0.671875 0.26562,-0.28125 0.625,-0.421875 0.35937,-0.15625 0.78125,-0.15625 z m 7.24244,-6.015625 v 2.078125 h 2.95313 v 9.859375 h -2.95313 v 2.0625 h 8.32813 v -2.0625 h -2.8125 v -11.9375 z m 15.44557,14.1875 q 1.4375,0 2.48438,-0.546875 1.04687,-0.5625 1.53125,-1.25 l -1.26563,-1.375 q -0.4375,0.578125 -1.14062,0.859375 -0.70313,0.28125 -1.45313,0.28125 -0.53125,0 -0.98437,-0.15625 -0.4375,-0.171875 -0.78125,-0.484375 -0.32813,-0.28125 -0.53125,-0.640625 -0.20313,-0.359375 -0.32813,-0.953125 v -0.03125 h 6.6875 V 35.27433 q 0,-1.078125 -0.3125,-1.96875 -0.29687,-0.90625 -0.875,-1.546875 -0.57812,-0.640625 -1.42187,-0.984375 -0.82813,-0.34375 -1.89063,-0.34375 -1.03125,0 -1.90625,0.375 -0.875,0.359375 -1.5,1.03125 -0.64062,0.6875 -1,1.625 -0.35937,0.921875 -0.35937,2.046875 v 0.375 q 0,0.984375 0.35937,1.859375 0.35938,0.875 1.03125,1.5 0.65625,0.65625 1.57813,1.03125 0.9375,0.375 2.07812,0.375 z m -0.29687,-8.171875 q 0.48437,0 0.84375,0.15625 0.375,0.140625 0.625,0.390625 0.26562,0.265625 0.40625,0.625 0.14062,0.359375 0.14062,0.75 v 0.203125 h -4.14062 q 0.0781,-0.484375 0.26562,-0.875 0.1875,-0.390625 0.45313,-0.671875 0.26562,-0.28125 0.625,-0.421875 0.35937,-0.15625 0.78125,-0.15625 z m 11.36746,-4.28125 h -2.54687 v 2.40625 h -2.25 v 1.875 h 2.25 v 4.484375 q 0,0.96875 0.25,1.671875 0.26562,0.6875 0.73437,1.140625 0.46875,0.453125 1.125,0.671875 0.67188,0.203125 1.48438,0.203125 0.40625,0 0.84375,-0.04687 0.4375,-0.03125 0.82812,-0.109375 0.40625,-0.0625 0.76563,-0.171875 0.35937,-0.125 0.60937,-0.28125 l -0.23437,-1.734375 q -0.17188,0.04687 -0.42188,0.09375 -0.23437,0.04687 -0.51562,0.07813 -0.28125,0.04687 -0.59375,0.07813 -0.29688,0.01563 -0.59375,0.01563 -0.39063,0 -0.71875,-0.07813 -0.32813,-0.09375 -0.54688,-0.3125 -0.23437,-0.21875 -0.35937,-0.578125 -0.10938,-0.359375 -0.10938,-0.890625 V 32.47747 h 3.67188 v -1.875 h -3.67188 z m 11.32056,12.453125 q 1.4375,0 2.48437,-0.546875 1.04688,-0.5625 1.53125,-1.25 l -1.26562,-1.375 q -0.4375,0.578125 -1.14063,0.859375 -0.70312,0.28125 -1.45312,0.28125 -0.53125,0 -0.98438,-0.15625 -0.4375,-0.171875 -0.78125,-0.484375 -0.32812,-0.28125 -0.53125,-0.640625 -0.20312,-0.359375 -0.32812,-0.953125 v -0.03125 h 6.6875 V 35.27433 q 0,-1.078125 -0.3125,-1.96875 -0.29688,-0.90625 -0.875,-1.546875 -0.57813,-0.640625 -1.42188,-0.984375 -0.82812,-0.34375 -1.89062,-0.34375 -1.03125,0 -1.90625,0.375 -0.875,0.359375 -1.5,1.03125 -0.64063,0.6875 -1,1.625 -0.35938,0.921875 -0.35938,2.046875 v 0.375 q 0,0.984375 0.35938,1.859375 0.35937,0.875 1.03125,1.5 0.65625,0.65625 1.57812,1.03125 0.9375,0.375 2.07813,0.375 z m -0.29688,-8.171875 q 0.48438,0 0.84375,0.15625 0.375,0.140625 0.625,0.390625 0.26563,0.265625 0.40625,0.625 0.14063,0.359375 0.14063,0.75 v 0.203125 h -4.14063 q 0.0781,-0.484375 0.26563,-0.875 0.1875,-0.390625 0.45312,-0.671875 0.26563,-0.28125 0.625,-0.421875 0.35938,-0.15625 0.78125,-0.15625 z m 8.57056,2.59375 v 0.203125 q 0,1.28125 0.1875,2.421875 0.20313,1.125 0.54688,2.078125 0.32812,0.96875 0.78125,1.765625 0.45312,0.796875 0.95312,1.390625 0.5,0.609375 1.03125,1.03125 0.53125,0.4375 1.03125,0.65625 l 0.5,-1.359375 q -0.35937,-0.28125 -0.71875,-0.6875 -0.35937,-0.40625 -0.6875,-0.96875 -0.3125,-0.5 -0.59375,-1.1875 -0.26562,-0.6875 -0.45312,-1.484375 -0.15625,-0.578125 -0.28125,-1.53125 -0.125,-0.96875 -0.125,-2.109375 V 35.05558 q 0,-1.15625 0.125,-2.140625 0.14062,-0.984375 0.34375,-1.796875 0.23437,-0.84375 0.54687,-1.546875 0.32813,-0.71875 0.6875,-1.234375 0.28125,-0.40625 0.5625,-0.703125 0.29688,-0.3125 0.59375,-0.53125 l -0.5,-1.390625 q -0.5,0.234375 -1.03125,0.65625 -0.53125,0.421875 -1.03125,1.03125 -0.5,0.609375 -0.95312,1.40625 -0.45313,0.78125 -0.78125,1.75 -0.34375,0.953125 -0.54688,2.09375 -0.1875,1.140625 -0.1875,2.421875 z m 15.69559,2.6875 q 0,0.21875 -0.10938,0.421875 -0.10937,0.1875 -0.34375,0.328125 -0.23437,0.15625 -0.60937,0.25 -0.35938,0.07813 -0.85938,0.07813 -0.40625,0 -0.79687,-0.07813 -0.39063,-0.09375 -0.6875,-0.28125 -0.29688,-0.171875 -0.5,-0.453125 -0.1875,-0.28125 -0.20313,-0.6875 h -2.42187 q 0,0.609375 0.29687,1.203125 0.29688,0.59375 0.875,1.0625 0.5625,0.46875 1.42188,0.765625 0.85937,0.28125 1.96875,0.28125 1,0 1.8125,-0.21875 0.82812,-0.21875 1.42187,-0.625 0.5625,-0.40625 0.875,-0.953125 0.32813,-0.546875 0.32813,-1.203125 0,-0.71875 -0.32813,-1.234375 -0.3125,-0.515625 -0.85937,-0.875 -0.5625,-0.359375 -1.32813,-0.578125 -0.76562,-0.234375 -1.65625,-0.375 -0.625,-0.09375 -1.03125,-0.21875 -0.39062,-0.125 -0.60937,-0.28125 -0.25,-0.140625 -0.34375,-0.328125 -0.0781,-0.1875 -0.0781,-0.40625 0,-0.21875 0.0937,-0.40625 0.10938,-0.203125 0.3125,-0.34375 0.21875,-0.171875 0.5625,-0.25 0.34375,-0.09375 0.8125,-0.09375 0.54688,0 0.9375,0.140625 0.39063,0.125 0.60938,0.359375 0.17187,0.171875 0.25,0.390625 0.0781,0.203125 0.0781,0.453125 h 2.53125 q 0,-0.6875 -0.29687,-1.265625 -0.29688,-0.578125 -0.85938,-1.015625 -0.57812,-0.421875 -1.40625,-0.65625 -0.8125,-0.234375 -1.84375,-0.234375 -0.98437,0 -1.76562,0.25 -0.78125,0.234375 -1.32813,0.65625 -0.54687,0.421875 -0.84375,0.984375 -0.28125,0.546875 -0.28125,1.15625 0,0.625 0.28125,1.109375 0.28125,0.484375 0.79688,0.84375 0.51562,0.375 1.21875,0.640625 0.71875,0.25 1.57812,0.421875 0.6875,0.140625 1.125,0.265625 0.45313,0.125 0.73438,0.265625 0.26562,0.15625 0.35937,0.328125 0.10938,0.171875 0.10938,0.40625 z m 10.02371,2.5 0.0156,-2.015625 h -2.39062 v 2.140625 q 0,1 -0.23438,1.703125 -0.23437,0.71875 -0.57812,1.375 l 1.34375,0.703125 q 0.8125,-0.734375 1.32812,-1.796875 0.51563,-1.0625 0.51563,-2.109375 z m 25.87549,0.203125 v -2.03125 h -5.8125 l 2.48437,-2.640625 q 0.65625,-0.671875 1.17188,-1.265625 0.53125,-0.609375 0.92187,-1.1875 0.375,-0.59375 0.57813,-1.1875 0.20312,-0.59375 0.20312,-1.25 0,-0.875 -0.28125,-1.578125 -0.26562,-0.71875 -0.78125,-1.234375 -0.53125,-0.5 -1.3125,-0.78125 -0.78125,-0.296875 -1.78125,-0.296875 -1.0625,0 -1.9375,0.34375 -0.85937,0.34375 -1.46875,0.9375 -0.625,0.59375 -0.96875,1.390625 -0.32812,0.78125 -0.32812,1.65625 h 2.53125 q 0,-0.53125 0.14062,-0.953125 0.14063,-0.421875 0.40625,-0.703125 0.25,-0.265625 0.64063,-0.40625 0.39062,-0.140625 0.89062,-0.140625 0.39063,0 0.71875,0.125 0.32813,0.125 0.5625,0.359375 0.23438,0.25 0.35938,0.59375 0.125,0.34375 0.125,0.796875 0,0.296875 -0.0937,0.625 -0.0937,0.3125 -0.3125,0.671875 -0.21875,0.375 -0.5625,0.828125 -0.34375,0.4375 -0.84375,0.984375 l -4.29688,4.609375 v 1.734375 z m 7.71121,-0.203125 0.0156,-2.015625 h -2.39062 v 2.140625 q 0,1 -0.23438,1.703125 -0.23437,0.71875 -0.57812,1.375 l 1.34375,0.703125 q 0.8125,-0.734375 1.32812,-1.796875 0.51563,-1.0625 0.51563,-2.109375 z m 17.32864,-6.328125 2.03125,0.5 q 0.14063,-0.140625 0.29688,-0.265625 0.17187,-0.140625 0.39062,-0.25 0.20313,-0.09375 0.46875,-0.15625 0.28125,-0.0625 0.65625,-0.0625 0.54688,0 0.95313,0.171875 0.42187,0.171875 0.6875,0.484375 0.28125,0.328125 0.40625,0.765625 0.14062,0.4375 0.14062,0.96875 0,0.546875 -0.10937,1.015625 -0.10938,0.453125 -0.32813,0.796875 -0.21875,0.328125 -0.57812,0.53125 -0.35938,0.1875 -0.875,0.1875 -0.82813,0 -1.35938,-0.46875 -0.53125,-0.484375 -0.625,-1.34375 h -2.5 q 0.0312,0.921875 0.42188,1.640625 0.39062,0.703125 1,1.203125 0.625,0.484375 1.42187,0.75 0.79688,0.25 1.65625,0.25 1.125,0 1.95313,-0.359375 0.82812,-0.359375 1.375,-0.96875 0.54687,-0.609375 0.8125,-1.40625 0.26562,-0.8125 0.26562,-1.703125 0,-1.046875 -0.28125,-1.875 -0.26562,-0.828125 -0.78125,-1.40625 -0.51562,-0.5625 -1.26562,-0.859375 -0.75,-0.3125 -1.70313,-0.3125 -0.6875,0 -1.20312,0.171875 -0.51563,0.171875 -0.79688,0.328125 l 0.3125,-2.90625 h 5.28125 v -2.15625 h -7.35937 z m 17.82056,1.34375 v -0.203125 q 0,-1.25 -0.20312,-2.359375 -0.20313,-1.125 -0.54688,-2.09375 -0.34375,-0.953125 -0.8125,-1.75 -0.45312,-0.796875 -0.96875,-1.4375 -0.53125,-0.609375 -1.07812,-1.046875 -0.54688,-0.4375 -1.0625,-0.671875 l -0.48438,1.359375 q 0.28125,0.203125 0.54688,0.5 0.28125,0.296875 0.54687,0.671875 0.39063,0.5625 0.73438,1.34375 0.35937,0.765625 0.60937,1.75 0.1875,0.78125 0.29688,1.71875 0.125,0.921875 0.125,2 v 0.234375 q 0,1.09375 -0.125,2.046875 -0.10938,0.953125 -0.29688,1.734375 -0.23437,0.859375 -0.53125,1.546875 -0.29687,0.6875 -0.64062,1.234375 -0.3125,0.46875 -0.625,0.8125 -0.3125,0.359375 -0.64063,0.59375 l 0.48438,1.359375 q 0.51562,-0.21875 1.0625,-0.65625 0.54687,-0.4375 1.07812,-1.0625 0.51563,-0.625 0.96875,-1.421875 0.46875,-0.796875 0.8125,-1.765625 0.34375,-0.96875 0.54688,-2.078125 0.20312,-1.109375 0.20312,-2.359375 z"
       fill-rule="nonzero"
       id="path4" />
    <path
       fill="#eeeeee"
       d="m 13.317183,68.412125 v 0 c 0,12.054352 4.362465,22.582031 10.6063,25.595642 v -1.76773 l 3.535431,4.374847 -3.535431,2.696015 v -1.767701 0 c -6.243835,-3.01361 -10.6063,-13.54129 -10.6063,-25.595642 z"
       fill-rule="evenodd"
       id="path58" />
    <path
       fill="#bebebe"
       d="m 27.458917,45.512525 v 0 c -7.443192,0 -13.61235,10.784973 -14.110077,24.667328 v 0 c -0.261787,-7.301666 1.107361,-14.479462 3.781433,-19.82431 2.674072,-5.344848 6.41378,-8.378448 10.328644,-8.378448 z"
       fill-rule="evenodd"
       id="path59" />
    <path
       fill="#000000"
       fill-opacity="0"
       d="m 13.317183,68.412125 v 0 c 0,12.054352 4.362465,22.582031 10.6063,25.595642 v -1.76773 l 3.535431,4.374847 -3.535431,2.696015 v -1.767701 0 c -6.243835,-3.01361 -10.6063,-13.54129 -10.6063,-25.595642 v -3.535431 0 c 0,-14.59967 6.331474,-26.435028 14.141731,-26.435028 v 3.535431 0 c -7.443192,0 -13.61235,10.784973 -14.110077,24.667328"
       fill-rule="evenodd"
       id="path60" />
    <path
       stroke="#595959"
       stroke-width="1"
       stroke-linejoin="round"
       stroke-linecap="butt"
       d="m 13.317183,68.412125 v 0 c 0,12.054352 4.362465,22.582031 10.6063,25.595642 v -1.76773 l 3.535431,4.374847 -3.535431,2.696015 v -1.767701 0 c -6.243835,-3.01361 -10.6063,-13.54129 -10.6063,-25.595642 v -3.535431 0 c 0,-14.59967 6.331474,-26.435028 14.141731,-26.435028 v 3.535431 0 c -7.443192,0 -13.61235,10.784973 -14.110077,24.667328"
       fill-rule="evenodd"
       id="path61" />
    <path
       shape-rendering="crispEdges"
       fill="#d9ead3"
       d="M 243.71876,127.49153 H 283.913 v 40 h -40.19424 z"
       fill-rule="nonzero"
       id="path62" />
    <path
       shape-rendering="crispEdges"
       fill="#d9ead3"
       d="m 283.913,127.49153 h 40.19421 v 40 H 283.913 Z"
       fill-rule="nonzero"
       id="path63" />
    <path
       shape-rendering="crispEdges"
       fill="#d9ead3"
       d="m 324.10722,127.49153 h 40.19421 v 40 h -40.19421 z"
       fill-rule="nonzero"
       id="path64" />
    <path
       shape-rendering="crispEdges"
       fill="#d9d9d9"
       d="m 364.30142,127.49153 h 40.19424 v 40 h -40.19424 z"
       fill-rule="nonzero"
       id="path65" />
    <path
       shape-rendering="crispEdges"
       fill="#d9d9d9"
       d="m 404.49568,127.49153 h 40.19421 v 40 h -40.19421 z"
       fill-rule="nonzero"
       id="path66" />
    <path
       shape-rendering="crispEdges"
       fill="#d9d9d9"
       d="m 444.68989,127.49153 h 40.19421 v 40 h -40.19421 z"
       fill-rule="nonzero"
       id="path67" />
    <path
       shape-rendering="crispEdges"
       fill="#d9d9d9"
       d="m 484.88412,127.49153 h 40.19421 v 40 h -40.19421 z"
       fill-rule="nonzero"
       id="path68" />
    <path
       shape-rendering="crispEdges"
       fill="#d9d9d9"
       d="m 525.07832,127.49153 h 40.19427 v 40 h -40.19427 z"
       fill-rule="nonzero"
       id="path69" />
    <path
       stroke="#9e9e9e"
       stroke-width="1"
       stroke-linecap="butt"
       d="M 243.71876,126.99283 V 167.9902"
       fill-rule="nonzero"
       id="path70" />
    <path
       stroke="#9e9e9e"
       stroke-width="1"
       stroke-linecap="butt"
       d="M 283.913,126.99283 V 167.9902"
       fill-rule="nonzero"
       id="path71" />
    <path
       stroke="#9e9e9e"
       stroke-width="1"
       stroke-linecap="butt"
       d="M 324.10722,126.99283 V 167.9902"
       fill-rule="nonzero"
       id="path72" />
    <path
       stroke="#9e9e9e"
       stroke-width="1"
       stroke-linecap="butt"
       d="M 364.30142,126.99283 V 167.9902"
       fill-rule="nonzero"
       id="path73" />
    <path
       stroke="#9e9e9e"
       stroke-width="1"
       stroke-linecap="butt"
       d="M 404.49568,126.99283 V 167.9902"
       fill-rule="nonzero"
       id="path74" />
    <path
       stroke="#9e9e9e"
       stroke-width="1"
       stroke-linecap="butt"
       d="M 444.68989,126.99283 V 167.9902"
       fill-rule="nonzero"
       id="path75" />
    <path
       stroke="#9e9e9e"
       stroke-width="1"
       stroke-linecap="butt"
       d="M 484.88412,126.99283 V 167.9902"
       fill-rule="nonzero"
       id="path76" />
    <path
       stroke="#9e9e9e"
       stroke-width="1"
       stroke-linecap="butt"
       d="M 525.07832,126.99283 V 167.9902"
       fill-rule="nonzero"
       id="path77" />
    <path
       stroke="#9e9e9e"
       stroke-width="1"
       stroke-linecap="butt"
       d="M 565.27262,126.99283 V 167.9902"
       fill-rule="nonzero"
       id="path78" />
    <path
       stroke="#9e9e9e"
       stroke-width="1"
       stroke-linecap="butt"
       d="M 243.22007,127.49153 H 565.77125"
       fill-rule="nonzero"
       id="path79" />
    <path
       stroke="#9e9e9e"
       stroke-width="1"
       stroke-linecap="butt"
       d="M 243.22007,167.49153 H 565.77125"
       fill-rule="nonzero"
       id="path80" />
    <path
       fill="#1155cc"
       d="m 253.59376,151.94777 v -9.5625 h 1.07812 v 0.89062 q 0.375,-0.53125 0.84375,-0.78125 0.48438,-0.26562 1.15625,-0.26562 0.875,0 1.54688,0.45312 0.6875,0.45313 1.03125,1.28125 0.34375,0.82813 0.34375,1.82813 0,1.04687 -0.375,1.90625 -0.375,0.84375 -1.10938,1.29687 -0.71875,0.45313 -1.53125,0.45313 -0.57812,0 -1.04687,-0.25 -0.46875,-0.25 -0.76563,-0.625 v 3.375 z m 1.0625,-6.07813 q 0,1.34375 0.53125,1.98438 0.54687,0.625 1.3125,0.625 0.78125,0 1.34375,-0.65625 0.5625,-0.65625 0.5625,-2.04688 0,-1.3125 -0.54688,-1.96875 -0.54687,-0.67187 -1.29687,-0.67187 -0.75,0 -1.32813,0.70312 -0.57812,0.70313 -0.57812,2.03125 z m 6.02185,-1.28125 q 0,-1.6875 0.34375,-2.71875 0.35937,-1.03125 1.04687,-1.59375 0.6875,-0.5625 1.71875,-0.5625 0.78125,0 1.35938,0.3125 0.57812,0.29688 0.95312,0.89063 0.375,0.57812 0.59375,1.42187 0.21875,0.82813 0.21875,2.25 0,1.67188 -0.35937,2.70313 -0.34375,1.03125 -1.03125,1.59375 -0.67188,0.5625 -1.73438,0.5625 -1.375,0 -2.15625,-0.98438 -0.95312,-1.1875 -0.95312,-3.875 z m 1.20312,0 q 0,2.34375 0.54688,3.125 0.5625,0.78125 1.35937,0.78125 0.8125,0 1.35938,-0.78125 0.5625,-0.78125 0.5625,-3.125 0,-2.35937 -0.5625,-3.125 -0.54688,-0.78125 -1.35938,-0.78125 -0.8125,0 -1.29687,0.6875 -0.60938,0.875 -0.60938,3.21875 z"
       fill-rule="nonzero"
       id="path81" />
    <path
       fill="#1155cc"
       d="m 293.788,151.94777 v -9.5625 h 1.07812 v 0.89062 q 0.375,-0.53125 0.84375,-0.78125 0.48438,-0.26562 1.15625,-0.26562 0.875,0 1.54688,0.45312 0.6875,0.45313 1.03125,1.28125 0.34375,0.82813 0.34375,1.82813 0,1.04687 -0.375,1.90625 -0.375,0.84375 -1.10938,1.29687 -0.71875,0.45313 -1.53125,0.45313 -0.57812,0 -1.04687,-0.25 -0.46875,-0.25 -0.76563,-0.625 v 3.375 z m 1.0625,-6.07813 q 0,1.34375 0.53125,1.98438 0.54687,0.625 1.3125,0.625 0.78125,0 1.34375,-0.65625 0.5625,-0.65625 0.5625,-2.04688 0,-1.3125 -0.54688,-1.96875 -0.54687,-0.67187 -1.29687,-0.67187 -0.75,0 -1.32813,0.70312 -0.57812,0.70313 -0.57812,2.03125 z m 10.44372,3.42188 h -1.17187 v -7.46875 q -0.42188,0.40625 -1.10938,0.8125 -0.6875,0.40625 -1.23437,0.60937 v -1.14062 q 0.98437,-0.45313 1.71875,-1.10938 0.73437,-0.67187 1.03125,-1.28125 h 0.76562 z"
       fill-rule="nonzero"
       id="path82" />
    <path
       fill="#1155cc"
       d="m 333.98222,151.94777 v -9.5625 h 1.07812 v 0.89062 q 0.375,-0.53125 0.84375,-0.78125 0.48438,-0.26562 1.15625,-0.26562 0.875,0 1.54688,0.45312 0.6875,0.45313 1.03125,1.28125 0.34375,0.82813 0.34375,1.82813 0,1.04687 -0.375,1.90625 -0.375,0.84375 -1.10938,1.29687 -0.71875,0.45313 -1.53125,0.45313 -0.57812,0 -1.04687,-0.25 -0.46875,-0.25 -0.76563,-0.625 v 3.375 z m 1.0625,-6.07813 q 0,1.34375 0.53125,1.98438 0.54687,0.625 1.3125,0.625 0.78125,0 1.34375,-0.65625 0.5625,-0.65625 0.5625,-2.04688 0,-1.3125 -0.54688,-1.96875 -0.54687,-0.67187 -1.29687,-0.67187 -0.75,0 -1.32813,0.70312 -0.57812,0.70313 -0.57812,2.03125 z m 6.02185,0.92188 1.23437,-0.10938 q 0.14063,0.90625 0.64063,1.35938 0.5,0.45312 1.20312,0.45312 0.84375,0 1.42188,-0.64062 0.59375,-0.64063 0.59375,-1.6875 0,-1 -0.5625,-1.57813 -0.5625,-0.59375 -1.48438,-0.59375 -0.5625,0 -1.01562,0.26563 -0.45313,0.25 -0.71875,0.67187 l -1.09375,-0.15625 0.92187,-4.89062 h 4.75 v 1.10937 h -3.8125 l -0.51562,2.5625 q 0.85937,-0.59375 1.79687,-0.59375 1.25,0 2.10938,0.875 0.85937,0.85938 0.85937,2.21875 0,1.29688 -0.75,2.23438 -0.92187,1.15625 -2.5,1.15625 -1.3125,0 -2.14062,-0.71875 -0.8125,-0.73438 -0.9375,-1.9375 z"
       fill-rule="nonzero"
       id="path83" />
    <path
       fill="#434343"
       d="m 375.30142,142.38527 h 1.78125 l -0.1875,0.89062 q 0.65625,-0.57812 1.23437,-0.8125 0.57813,-0.25 1.21875,-0.25 0.84375,0 1.32813,0.5 0.5,0.48438 0.5,1.28125 0,0.375 -0.20313,1.39063 l -0.8125,3.90625 h -1.875 l 0.82813,-3.92188 q 0.17187,-0.875 0.17187,-1.04687 0,-0.35938 -0.21875,-0.5625 -0.20312,-0.20313 -0.57812,-0.20313 -0.40625,0 -0.90625,0.34375 -0.5,0.34375 -0.79688,0.90625 -0.20312,0.40625 -0.46875,1.64063 l -0.59375,2.84375 h -1.85937 z m 8.6726,-2.64063 h 1.85938 l -0.34375,1.70313 h -1.875 z m -0.54687,2.64063 h 1.85937 l -1.4375,6.90625 h -1.875 z m 2.23425,6.90625 2,-9.54688 h 1.85938 l -1.98438,9.54688 z"
       fill-rule="nonzero"
       id="path84" />
    <path
       fill="#434343"
       d="m 415.49568,142.38527 h 1.78125 l -0.1875,0.89062 q 0.65625,-0.57812 1.23437,-0.8125 0.57813,-0.25 1.21875,-0.25 0.84375,0 1.32813,0.5 0.5,0.48438 0.5,1.28125 0,0.375 -0.20313,1.39063 l -0.8125,3.90625 h -1.875 l 0.82813,-3.92188 q 0.17187,-0.875 0.17187,-1.04687 0,-0.35938 -0.21875,-0.5625 -0.20312,-0.20313 -0.57812,-0.20313 -0.40625,0 -0.90625,0.34375 -0.5,0.34375 -0.79688,0.90625 -0.20312,0.40625 -0.46875,1.64063 l -0.59375,2.84375 h -1.85937 z m 8.6726,-2.64063 h 1.85938 l -0.34375,1.70313 h -1.875 z m -0.54687,2.64063 h 1.85937 l -1.4375,6.90625 h -1.875 z m 2.23422,6.90625 2,-9.54688 h 1.85938 l -1.98438,9.54688 z"
       fill-rule="nonzero"
       id="path85" />
    <path
       fill="#434343"
       d="m 455.68989,142.38527 h 1.78125 l -0.1875,0.89062 q 0.65625,-0.57812 1.23437,-0.8125 0.57813,-0.25 1.21875,-0.25 0.84375,0 1.32813,0.5 0.5,0.48438 0.5,1.28125 0,0.375 -0.20313,1.39063 l -0.8125,3.90625 h -1.875 l 0.82813,-3.92188 q 0.17187,-0.875 0.17187,-1.04687 0,-0.35938 -0.21875,-0.5625 -0.20312,-0.20313 -0.57812,-0.20313 -0.40625,0 -0.90625,0.34375 -0.5,0.34375 -0.79688,0.90625 -0.20312,0.40625 -0.46875,1.64063 l -0.59375,2.84375 h -1.85937 z m 8.6726,-2.64063 h 1.85938 l -0.34375,1.70313 h -1.875 z m -0.54687,2.64063 h 1.85937 l -1.4375,6.90625 h -1.875 z m 2.23425,6.90625 2,-9.54688 h 1.85938 l -1.98438,9.54688 z"
       fill-rule="nonzero"
       id="path86" />
    <path
       fill="#434343"
       d="m 494.75912,151.94777 v -9.5625 h 1.07812 v 0.89062 q 0.375,-0.53125 0.84375,-0.78125 0.48438,-0.26562 1.15625,-0.26562 0.875,0 1.54688,0.45312 0.6875,0.45313 1.03125,1.28125 0.34375,0.82813 0.34375,1.82813 0,1.04687 -0.375,1.90625 -0.375,0.84375 -1.10938,1.29687 -0.71875,0.45313 -1.53125,0.45313 -0.57812,0 -1.04687,-0.25 -0.46875,-0.25 -0.76563,-0.625 v 3.375 z m 1.0625,-6.07813 q 0,1.34375 0.53125,1.98438 0.54687,0.625 1.3125,0.625 0.78125,0 1.34375,-0.65625 0.5625,-0.65625 0.5625,-2.04688 0,-1.3125 -0.54688,-1.96875 -0.54687,-0.67187 -1.29687,-0.67187 -0.75,0 -1.32813,0.70312 -0.57812,0.70313 -0.57812,2.03125 z m 12.09997,-3.78125 -1.15625,0.0937 q -0.15625,-0.6875 -0.4375,-1 -0.48437,-0.5 -1.17187,-0.5 -0.5625,0 -0.98438,0.3125 -0.5625,0.39063 -0.89062,1.17188 -0.3125,0.76562 -0.3125,2.20312 0.42187,-0.64062 1.03125,-0.95312 0.60937,-0.3125 1.28125,-0.3125 1.17187,0 1.98437,0.85937 0.82813,0.85938 0.82813,2.23438 0,0.89062 -0.39063,1.67187 -0.375,0.76563 -1.0625,1.17188 -0.67187,0.40625 -1.53125,0.40625 -1.46875,0 -2.39062,-1.0625 -0.92188,-1.07813 -0.92188,-3.5625 0,-2.76563 1.01563,-4.01563 0.90625,-1.09375 2.40625,-1.09375 1.125,0 1.84375,0.64063 0.71875,0.625 0.85937,1.73437 z m -4.78125,4.10938 q 0,0.60937 0.25,1.17187 0.26563,0.54688 0.71875,0.84375 0.46875,0.28125 0.98438,0.28125 0.73437,0 1.26562,-0.59375 0.54688,-0.60937 0.54688,-1.64062 0,-0.98438 -0.53125,-1.54688 -0.53125,-0.57812 -1.32813,-0.57812 -0.79687,0 -1.35937,0.57812 -0.54688,0.5625 -0.54688,1.48438 z"
       fill-rule="nonzero"
       id="path87" />
    <path
       fill="#434343"
       d="m 534.95332,151.94777 v -9.5625 h 1.07812 v 0.89062 q 0.375,-0.53125 0.84375,-0.78125 0.48438,-0.26562 1.15625,-0.26562 0.875,0 1.54688,0.45312 0.6875,0.45313 1.03125,1.28125 0.34375,0.82813 0.34375,1.82813 0,1.04687 -0.375,1.90625 -0.375,0.84375 -1.10938,1.29687 -0.71875,0.45313 -1.53125,0.45313 -0.57812,0 -1.04687,-0.25 -0.46875,-0.25 -0.76563,-0.625 v 3.375 z m 1.0625,-6.07813 q 0,1.34375 0.53125,1.98438 0.54687,0.625 1.3125,0.625 0.78125,0 1.34375,-0.65625 0.5625,-0.65625 0.5625,-2.04688 0,-1.3125 -0.54688,-1.96875 -0.54687,-0.67187 -1.29687,-0.67187 -0.75,0 -1.32813,0.70312 -0.57812,0.70313 -0.57812,2.03125 z m 6.09997,-4.875 v -1.125 h 6.1875 v 0.92188 q -0.92187,0.96875 -1.8125,2.57812 -0.89062,1.59375 -1.375,3.29688 -0.35937,1.20312 -0.45312,2.625 h -1.20313 q 0.0156,-1.125 0.4375,-2.71875 0.42188,-1.59375 1.20313,-3.07813 0.79687,-1.48437 1.6875,-2.5 z"
       fill-rule="nonzero"
       id="path88" />
    <path
       fill="#000000"
       fill-opacity="0"
       d="m 231.07047,168.88523 h 39.24408 v 42.01574 h -39.24408 z"
       fill-rule="evenodd"
       id="path89" />
    <path
       fill="#000000"
       d="m 240.85172,189.21147 q 0,-2.35938 0.48437,-3.79688 0.48438,-1.45312 1.4375,-2.23437 0.96875,-0.78125 2.42188,-0.78125 1.07812,0 1.89062,0.4375 0.8125,0.42187 1.32813,1.25 0.53125,0.8125 0.82812,1.98437 0.3125,1.15625 0.3125,3.14063 0,2.35937 -0.48437,3.8125 -0.48438,1.4375 -1.45313,2.23437 -0.95312,0.78125 -2.42187,0.78125 -1.92188,0 -3.03125,-1.39062 -1.3125,-1.67188 -1.3125,-5.4375 z m 1.67187,0 q 0,3.29687 0.76563,4.39062 0.78125,1.07813 1.90625,1.07813 1.14062,0 1.90625,-1.09375 0.76562,-1.09375 0.76562,-4.375 0,-3.29688 -0.76562,-4.375 -0.76563,-1.07813 -1.92188,-1.07813 -1.125,0 -1.79687,0.95313 -0.85938,1.21875 -0.85938,4.5 z"
       fill-rule="nonzero"
       id="path90" />
    <path
       fill="#000000"
       fill-opacity="0"
       d="m 355.72402,165.31831 h 70.07873 v 51.71652 h -70.07873 z"
       fill-rule="evenodd"
       id="path91" />
    <path
       fill="#000000"
       d="m 365.58338,187.1183 v -9.54688 h 1.17187 v 9.54688 z m 7.71109,-2.21875 1.20312,0.14062 q -0.28125,1.0625 -1.0625,1.65625 -0.76562,0.57813 -1.96875,0.57813 -1.51562,0 -2.40625,-0.9375 -0.89062,-0.9375 -0.89062,-2.60938 0,-1.75 0.89062,-2.70312 0.90625,-0.96875 2.34375,-0.96875 1.39063,0 2.26563,0.9375 0.875,0.9375 0.875,2.65625 0,0.10937 0,0.3125 h -5.15625 q 0.0625,1.14062 0.64062,1.75 0.57813,0.59375 1.4375,0.59375 0.65625,0 1.10938,-0.32813 0.45312,-0.34375 0.71875,-1.07812 z m -3.84375,-1.90625 h 3.85937 q -0.0781,-0.85938 -0.4375,-1.29688 -0.5625,-0.6875 -1.45312,-0.6875 -0.8125,0 -1.35938,0.54688 -0.54687,0.53125 -0.60937,1.4375 z m 6.52185,4.125 v -6.90625 h 1.0625 v 0.98437 q 0.75,-1.14062 2.1875,-1.14062 0.625,0 1.15625,0.21875 0.53125,0.21875 0.78125,0.59375 0.26562,0.35937 0.375,0.85937 0.0625,0.32813 0.0625,1.14063 v 4.25 h -1.17188 v -4.20313 q 0,-0.71875 -0.14062,-1.0625 -0.14063,-0.35937 -0.48438,-0.5625 -0.34375,-0.21875 -0.8125,-0.21875 -0.75,0 -1.29687,0.46875 -0.54688,0.46875 -0.54688,1.79688 v 3.78125 z m 9.66247,2.8125 q -0.98437,-1.23438 -1.65625,-2.875 -0.65625,-1.64063 -0.65625,-3.39063 0,-1.54687 0.5,-2.96875 0.57813,-1.64062 1.8125,-3.28125 h 0.82813 q -0.78125,1.35938 -1.03125,1.9375 -0.40625,0.89063 -0.625,1.875 -0.28125,1.21875 -0.28125,2.4375 0,3.14063 1.9375,6.26563 z m 1.71964,-4.875 1.15625,-0.1875 q 0.10937,0.70312 0.54687,1.07812 0.45313,0.35938 1.25,0.35938 0.8125,0 1.20313,-0.32813 0.39062,-0.32812 0.39062,-0.76562 0,-0.39063 -0.35937,-0.625 -0.23438,-0.15625 -1.1875,-0.39063 -1.29688,-0.32812 -1.79688,-0.5625 -0.48437,-0.25 -0.75,-0.65625 -0.25,-0.42187 -0.25,-0.9375 0,-0.45312 0.20313,-0.84375 0.21875,-0.40625 0.57812,-0.67187 0.28125,-0.1875 0.75,-0.32813 0.46875,-0.14062 1.01563,-0.14062 0.8125,0 1.42187,0.23437 0.60938,0.23438 0.90625,0.64063 0.29688,0.39062 0.40625,1.0625 l -1.14062,0.15625 q -0.0781,-0.53125 -0.45313,-0.82813 -0.375,-0.3125 -1.0625,-0.3125 -0.8125,0 -1.15625,0.26563 -0.34375,0.26562 -0.34375,0.625 0,0.23437 0.14063,0.42187 0.15625,0.1875 0.45312,0.3125 0.17188,0.0625 1.03125,0.29688 1.25,0.32812 1.73438,0.54687 0.5,0.20313 0.78125,0.60938 0.28125,0.40625 0.28125,1 0,0.59375 -0.34375,1.10937 -0.34375,0.51563 -1,0.79688 -0.64063,0.28125 -1.45313,0.28125 -1.34375,0 -2.04687,-0.5625 -0.70313,-0.5625 -0.90625,-1.65625 z m 7.89844,4.875 h -0.82813 q 1.9375,-3.125 1.9375,-6.26563 0,-1.21875 -0.28125,-2.42187 -0.21875,-0.98438 -0.60937,-1.875 -0.26563,-0.59375 -1.04688,-1.95313 h 0.82813 q 1.23437,1.64063 1.8125,3.28125 0.5,1.42188 0.5,2.96875 0,1.75 -0.67188,3.39063 -0.67187,1.64062 -1.64062,2.875 z"
       fill-rule="nonzero"
       id="path92" />
    <path
       fill="#000000"
       d="m 371.77088,197.50893 h -6.3125 v -1.09375 h 6.3125 z m 0,2.89062 h -6.3125 v -1.09375 h 6.3125 z m 5.00204,0.20313 1.17188,-0.15625 q 0.20312,1 0.6875,1.4375 0.48437,0.4375 1.17187,0.4375 0.82813,0 1.39063,-0.57813 0.57812,-0.57812 0.57812,-1.42187 0,-0.79688 -0.53125,-1.3125 -0.51562,-0.53125 -1.32812,-0.53125 -0.34375,0 -0.82813,0.125 l 0.125,-1.03125 q 0.125,0.0156 0.1875,0.0156 0.75,0 1.34375,-0.39062 0.60938,-0.39063 0.60938,-1.20313 0,-0.64062 -0.4375,-1.0625 -0.4375,-0.42187 -1.125,-0.42187 -0.6875,0 -1.14063,0.4375 -0.45312,0.42187 -0.59375,1.28125 l -1.17187,-0.21875 q 0.21875,-1.17188 0.98437,-1.8125 0.76563,-0.65625 1.89063,-0.65625 0.78125,0 1.4375,0.34375 0.65625,0.32812 1,0.90625 0.35937,0.57812 0.35937,1.23437 0,0.60938 -0.34375,1.125 -0.32812,0.5 -0.96875,0.79688 0.84375,0.20312 1.3125,0.82812 0.46875,0.60938 0.46875,1.53125 0,1.25 -0.92187,2.125 -0.90625,0.85938 -2.29688,0.85938 -1.25,0 -2.09375,-0.75 -0.82812,-0.75 -0.9375,-1.9375 z"
       fill-rule="nonzero"
       id="path93" />
    <path
       fill="#000000"
       fill-opacity="0"
       d="m 555.72402,165.31831 h 70.07873 v 51.71652 h -70.07873 z"
       fill-rule="evenodd"
       id="path94" />
    <path
       fill="#000000"
       d="m 570.11462,184.58705 1.15625,0.15625 q -0.1875,1.1875 -0.96875,1.85937 -0.78125,0.67188 -1.92188,0.67188 -1.40625,0 -2.28125,-0.92188 -0.85937,-0.9375 -0.85937,-2.65625 0,-1.125 0.375,-1.96875 0.375,-0.84375 1.125,-1.25 0.76562,-0.42187 1.65625,-0.42187 1.125,0 1.84375,0.57812 0.71875,0.5625 0.92187,1.60938 l -1.14062,0.17187 q -0.17188,-0.70312 -0.59375,-1.04687 -0.40625,-0.35938 -0.98438,-0.35938 -0.89062,0 -1.45312,0.64063 -0.54688,0.64062 -0.54688,2 0,1.40625 0.53125,2.03125 0.54688,0.625 1.40625,0.625 0.6875,0 1.14063,-0.42188 0.46875,-0.42187 0.59375,-1.29687 z m 6.66406,1.67187 q -0.65625,0.5625 -1.26563,0.79688 -0.59375,0.21875 -1.28125,0.21875 -1.14062,0 -1.75,-0.54688 -0.60937,-0.5625 -0.60937,-1.4375 0,-0.5 0.21875,-0.92187 0.23437,-0.42188 0.60937,-0.67188 0.375,-0.25 0.84375,-0.39062 0.34375,-0.0781 1.04688,-0.17188 1.42187,-0.17187 2.09375,-0.40625 0,-0.23437 0,-0.29687 0,-0.71875 -0.32813,-1.01563 -0.45312,-0.39062 -1.34375,-0.39062 -0.8125,0 -1.21875,0.29687 -0.39062,0.28125 -0.57812,1.01563 l -1.14063,-0.15625 q 0.15625,-0.73438 0.51563,-1.1875 0.35937,-0.45313 1.03125,-0.6875 0.67187,-0.25 1.5625,-0.25 0.89062,0 1.4375,0.20312 0.5625,0.20313 0.8125,0.53125 0.26562,0.3125 0.375,0.79688 0.0469,0.29687 0.0469,1.07812 v 1.5625 q 0,1.625 0.0781,2.0625 0.0781,0.4375 0.29687,0.82813 h -1.21875 q -0.1875,-0.35938 -0.23437,-0.85938 z m -0.0937,-2.60937 q -0.64063,0.26562 -1.92188,0.4375 -0.71875,0.10937 -1.01562,0.25 -0.29688,0.125 -0.46875,0.375 -0.15625,0.25 -0.15625,0.54687 0,0.46875 0.34375,0.78125 0.35937,0.3125 1.04687,0.3125 0.67188,0 1.20313,-0.29687 0.53125,-0.29688 0.78125,-0.8125 0.1875,-0.39063 0.1875,-1.17188 z m 2.9906,6.125 v -9.5625 h 1.07813 v 0.89062 q 0.375,-0.53125 0.84375,-0.78125 0.48437,-0.26562 1.15625,-0.26562 0.875,0 1.54687,0.45312 0.6875,0.45313 1.03125,1.28125 0.34375,0.82813 0.34375,1.82813 0,1.04687 -0.375,1.90625 -0.375,0.84375 -1.10937,1.29687 -0.71875,0.45313 -1.53125,0.45313 -0.57813,0 -1.04688,-0.25 -0.46875,-0.25 -0.76562,-0.625 v 3.375 z m 1.0625,-6.07813 q 0,1.34375 0.53125,1.98438 0.54688,0.625 1.3125,0.625 0.78125,0 1.34375,-0.65625 0.5625,-0.65625 0.5625,-2.04688 0,-1.3125 -0.54687,-1.96875 -0.54688,-0.67187 -1.29688,-0.67187 -0.75,0 -1.32812,0.70312 -0.57813,0.70313 -0.57813,2.03125 z m 8.59998,6.23438 q -0.98438,-1.23438 -1.65625,-2.875 -0.65625,-1.64063 -0.65625,-3.39063 0,-1.54687 0.5,-2.96875 0.57812,-1.64062 1.8125,-3.28125 h 0.82812 q -0.78125,1.35938 -1.03125,1.9375 -0.40625,0.89063 -0.625,1.875 -0.28125,1.21875 -0.28125,2.4375 0,3.14063 1.9375,6.26563 z m 1.7196,-4.875 1.15625,-0.1875 q 0.10938,0.70312 0.54688,1.07812 0.45312,0.35938 1.25,0.35938 0.8125,0 1.20312,-0.32813 0.39063,-0.32812 0.39063,-0.76562 0,-0.39063 -0.35938,-0.625 -0.23437,-0.15625 -1.1875,-0.39063 -1.29687,-0.32812 -1.79687,-0.5625 -0.48438,-0.25 -0.75,-0.65625 -0.25,-0.42187 -0.25,-0.9375 0,-0.45312 0.20312,-0.84375 0.21875,-0.40625 0.57813,-0.67187 0.28125,-0.1875 0.75,-0.32813 0.46875,-0.14062 1.01562,-0.14062 0.8125,0 1.42188,0.23437 0.60937,0.23438 0.90625,0.64063 0.29687,0.39062 0.40625,1.0625 l -1.14063,0.15625 q -0.0781,-0.53125 -0.45312,-0.82813 -0.375,-0.3125 -1.0625,-0.3125 -0.8125,0 -1.15625,0.26563 -0.34375,0.26562 -0.34375,0.625 0,0.23437 0.14062,0.42187 0.15625,0.1875 0.45313,0.3125 0.17187,0.0625 1.03125,0.29688 1.25,0.32812 1.73437,0.54687 0.5,0.20313 0.78125,0.60938 0.28125,0.40625 0.28125,1 0,0.59375 -0.34375,1.10937 -0.34375,0.51563 -1,0.79688 -0.64062,0.28125 -1.45312,0.28125 -1.34375,0 -2.04688,-0.5625 -0.70312,-0.5625 -0.90625,-1.65625 z m 7.89844,4.875 h -0.82813 q 1.9375,-3.125 1.9375,-6.26563 0,-1.21875 -0.28125,-2.42187 -0.21875,-0.98438 -0.60937,-1.875 -0.26563,-0.59375 -1.04688,-1.95313 h 0.82813 q 1.23437,1.64063 1.8125,3.28125 0.5,1.42188 0.5,2.96875 0,1.75 -0.67188,3.39063 -0.67187,1.64062 -1.64062,2.875 z"
       fill-rule="nonzero"
       id="path95" />
    <path
       fill="#000000"
       d="m 571.77088,197.50893 h -6.3125 v -1.09375 h 6.3125 z m 0,2.89062 h -6.3125 v -1.09375 h 6.3125 z m 6.79889,-2.45312 q -0.73438,-0.26563 -1.09375,-0.76563 -0.34375,-0.5 -0.34375,-1.1875 0,-1.03125 0.75,-1.73437 0.75,-0.71875 1.98437,-0.71875 1.25,0 2.01563,0.73437 0.76562,0.71875 0.76562,1.75 0,0.67188 -0.35937,1.17188 -0.34375,0.48437 -1.04688,0.75 0.875,0.28125 1.32813,0.92187 0.46875,0.64063 0.46875,1.51563 0,1.23437 -0.875,2.0625 -0.85938,0.82812 -2.26563,0.82812 -1.42187,0 -2.28125,-0.82812 -0.85937,-0.84375 -0.85937,-2.09375 0,-0.92188 0.46875,-1.54688 0.46875,-0.64062 1.34375,-0.85937 z m -0.23438,-1.98438 q 0,0.67188 0.4375,1.10938 0.4375,0.42187 1.125,0.42187 0.67188,0 1.10938,-0.42187 0.4375,-0.42188 0.4375,-1.04688 0,-0.64062 -0.45313,-1.07812 -0.4375,-0.4375 -1.10937,-0.4375 -0.67188,0 -1.10938,0.4375 -0.4375,0.42187 -0.4375,1.01562 z m -0.375,4.40625 q 0,0.5 0.23438,0.96875 0.23437,0.46875 0.70312,0.73438 0.46875,0.25 1.01563,0.25 0.82812,0 1.375,-0.53125 0.54687,-0.54688 0.54687,-1.39063 0,-0.84375 -0.5625,-1.39062 -0.5625,-0.5625 -1.40625,-0.5625 -0.82812,0 -1.375,0.54687 -0.53125,0.54688 -0.53125,1.375 z"
       fill-rule="nonzero"
       id="path96" />
    <path
       fill="#000000"
       fill-opacity="0"
       d="m 250.69252,168.88523 v 0"
       fill-rule="evenodd"
       id="path97" />
    <path
       stroke="#595959"
       stroke-width="1"
       stroke-linejoin="round"
       stroke-linecap="butt"
       d="m 250.69252,168.88523 v 0"
       fill-rule="evenodd"
       id="path98" />
    <path
       fill="#000000"
       fill-opacity="0"
       d="m 243.70302,168.88523 v 7.9685"
       fill-rule="evenodd"
       id="path99" />
    <path
       stroke="#999999"
       stroke-width="1"
       stroke-linejoin="round"
       stroke-linecap="butt"
       d="m 243.70302,168.88523 v 7.9685"
       fill-rule="evenodd"
       id="path100" />
    <path
       fill="#000000"
       fill-opacity="0"
       d="m 365.6374,168.86503 v 7.9685"
       fill-rule="evenodd"
       id="path101" />
    <path
       stroke="#999999"
       stroke-width="1"
       stroke-linejoin="round"
       stroke-linecap="butt"
       d="m 365.6374,168.86503 v 7.9685"
       fill-rule="evenodd"
       id="path102" />
    <path
       fill="#000000"
       fill-opacity="0"
       d="m 566.22012,168.86503 v 7.9685"
       fill-rule="evenodd"
       id="path103" />
    <path
       stroke="#999999"
       stroke-width="1"
       stroke-linejoin="round"
       stroke-linecap="butt"
       d="m 566.22012,168.86503 v 7.9685"
       fill-rule="evenodd"
       id="path104" />
    <path
       fill="#000000"
       fill-opacity="0"
       d="m 117.66102,77.491525 h 30.96063 v 37.165345 h -30.96063 z"
       fill-rule="evenodd"
       id="path121" />
    <path
       fill="#000000"
       d="m 127.00477,98.399625 2.01562,-0.296875 q 0.125,0.578125 0.51563,0.890625 0.40625,0.296875 1.10937,0.296875 0.78125,0 1.17188,-0.28125 0.26562,-0.203125 0.26562,-0.546875 0,-0.21875 -0.14062,-0.375 -0.15625,-0.140625 -0.67188,-0.265625 -2.4375,-0.53125 -3.07812,-0.984375 -0.90625,-0.609375 -0.90625,-1.703125 0,-0.984375 0.78125,-1.65625 0.78125,-0.671875 2.42187,-0.671875 1.54688,0 2.3125,0.515625 0.76563,0.5 1.04688,1.484375 l -1.90625,0.359375 q -0.10938,-0.453125 -0.45313,-0.6875 -0.34375,-0.234375 -0.96875,-0.234375 -0.79687,0 -1.14062,0.21875 -0.23438,0.15625 -0.23438,0.40625 0,0.21875 0.20313,0.375 0.28125,0.203125 1.875,0.5625 1.60937,0.359375 2.25,0.890625 0.625,0.546875 0.625,1.5 0,1.046875 -0.875,1.796875 -0.85938,0.750005 -2.57813,0.750005 -1.54687,0 -2.45312,-0.625 -0.90625,-0.64063 -1.1875,-1.718755 z"
       fill-rule="nonzero"
       id="path122" />
    <path
       shape-rendering="crispEdges"
       fill="#ffffff"
       d="m 147.71876,79.491525 h 41.94226 v 32.874025 h -41.94226 z"
       fill-rule="nonzero"
       id="path123" />
    <path
       shape-rendering="crispEdges"
       fill="#ffffff"
       d="m 147.71876,112.36555 h 41.94226 v 32.87399 h -41.94226 z"
       fill-rule="nonzero"
       id="path124" />
    <path
       shape-rendering="crispEdges"
       fill="#ffffff"
       d="m 147.71876,145.23955 h 41.94226 v 28.22573 h -41.94226 z"
       fill-rule="nonzero"
       id="path125" />
    <path
       stroke="#9e9e9e"
       stroke-width="1"
       stroke-linecap="butt"
       d="M 147.71876,78.992825 V 173.96396"
       fill-rule="nonzero"
       id="path126" />
    <path
       stroke="#9e9e9e"
       stroke-width="1"
       stroke-linecap="butt"
       d="M 189.66102,78.992825 V 173.96396"
       fill-rule="nonzero"
       id="path127" />
    <path
       stroke="#9e9e9e"
       stroke-width="1"
       stroke-linecap="butt"
       d="M 147.22007,79.491525 H 190.1597"
       fill-rule="nonzero"
       id="path128" />
    <path
       stroke="#9e9e9e"
       stroke-width="1"
       stroke-linecap="butt"
       d="M 147.22007,112.36555 H 190.1597"
       fill-rule="nonzero"
       id="path129" />
    <path
       stroke="#9e9e9e"
       stroke-width="1"
       stroke-linecap="butt"
       d="M 147.22007,145.23955 H 190.1597"
       fill-rule="nonzero"
       id="path130" />
    <path
       stroke="#9e9e9e"
       stroke-width="1"
       stroke-linecap="butt"
       d="M 147.22007,173.46528 H 190.1597"
       fill-rule="nonzero"
       id="path131" />
    <path
       fill="#000000"
       d="m 151.38253,100.85653 v -7.656255 h 0.85937 v 0.71875 q 0.29688,-0.421875 0.67188,-0.625 0.39062,-0.21875 0.92187,-0.21875 0.70313,0 1.25,0.375 0.54688,0.359375 0.8125,1.03125 0.28125,0.65625 0.28125,1.453125 0,0.84375 -0.3125,1.53125 -0.29687,0.671875 -0.875,1.03125 -0.57812,0.359375 -1.21875,0.359375 -0.46875,0 -0.84375,-0.1875 -0.375,-0.203125 -0.60937,-0.515625 v 2.70313 z m 0.84375,-4.85938 q 0,1.0625 0.4375,1.578125 0.4375,0.515625 1.04687,0.515625 0.625,0 1.0625,-0.53125 0.45313,-0.53125 0.45313,-1.640625 0,-1.046875 -0.4375,-1.578125 -0.4375,-0.53125 -1.04688,-0.53125 -0.59375,0 -1.0625,0.5625 -0.45312,0.5625 -0.45312,1.625 z m 7.12962,1.890625 0.125,0.828125 q -0.39062,0.09375 -0.70312,0.09375 -0.5,0 -0.78125,-0.15625 -0.28125,-0.171875 -0.40625,-0.4375 -0.10938,-0.265625 -0.10938,-1.109375 V 93.93465 h -0.6875 v -0.734375 h 0.6875 V 91.8409 l 0.9375,-0.5625 v 1.921875 h 0.9375 v 0.734375 h -0.9375 v 3.234375 q 0,0.390625 0.0469,0.515625 0.0469,0.109375 0.15625,0.1875 0.10937,0.0625 0.32812,0.0625 0.15625,0 0.40625,-0.04687 z m 0.89815,0.84375 v -5.53125 h 0.84375 v 0.84375 q 0.32812,-0.59375 0.59375,-0.78125 0.28125,-0.1875 0.60937,-0.1875 0.46875,0 0.95313,0.3125 l -0.3125,0.859375 q -0.34375,-0.203125 -0.6875,-0.203125 -0.3125,0 -0.5625,0.1875 -0.23438,0.1875 -0.34375,0.515625 -0.15625,0.5 -0.15625,1.09375 v 2.890625 z"
       fill-rule="nonzero"
       id="path132" />
    <path
       fill="#000000"
       d="m 151.36691,131.60553 v -7.625 h 0.9375 v 7.625 z m 6.16435,-1.78125 0.96875,0.125 q -0.23438,0.84375 -0.85938,1.3125 -0.60937,0.46875 -1.57812,0.46875 -1.20313,0 -1.92188,-0.75 -0.70312,-0.75 -0.70312,-2.09375 0,-1.39063 0.71875,-2.15625 0.71875,-0.78125 1.85937,-0.78125 1.10938,0 1.8125,0.76562 0.70313,0.75 0.70313,2.125 0,0.0781 0,0.23438 h -4.125 q 0.0469,0.92187 0.51562,1.40625 0.46875,0.48437 1.15625,0.48437 0.51563,0 0.875,-0.26562 0.35938,-0.28125 0.57813,-0.875 z m -3.07813,-1.51563 h 3.09375 q -0.0625,-0.6875 -0.35937,-1.04687 -0.45313,-0.53125 -1.15625,-0.53125 -0.64063,0 -1.09375,0.4375 -0.4375,0.42187 -0.48438,1.14062 z m 5.22338,3.29688 v -5.53125 h 0.84375 v 0.79687 q 0.60937,-0.92187 1.75,-0.92187 0.5,0 0.92187,0.1875 0.42188,0.17187 0.625,0.46875 0.21875,0.29687 0.29688,0.6875 0.0469,0.26562 0.0469,0.92187 v 3.39063 h -0.9375 v -3.35938 q 0,-0.57812 -0.10937,-0.85937 -0.10938,-0.28125 -0.39063,-0.45313 -0.26562,-0.17187 -0.64062,-0.17187 -0.59375,0 -1.03125,0.39062 -0.4375,0.375 -0.4375,1.4375 v 3.01563 z m 10.84837,-4.48438 h -5.03125 v -0.875 h 5.03125 z m 0,2.3125 h -5.03125 v -0.875 h 5.03125 z m 1.05121,0.15625 0.9375,-0.125 q 0.15625,0.79688 0.54687,1.15625 0.39063,0.34375 0.9375,0.34375 0.65625,0 1.10938,-0.45312 0.46875,-0.46875 0.46875,-1.14063 0,-0.64062 -0.42188,-1.0625 -0.42187,-0.42187 -1.07812,-0.42187 -0.26563,0 -0.65625,0.10937 l 0.10937,-0.82812 q 0.0937,0.0156 0.14063,0.0156 0.59375,0 1.07812,-0.3125 0.48438,-0.3125 0.48438,-0.96875 0,-0.51562 -0.35938,-0.84375 -0.34375,-0.34375 -0.89062,-0.34375 -0.54688,0 -0.92188,0.34375 -0.35937,0.34375 -0.45312,1.03125 l -0.9375,-0.17187 q 0.17187,-0.9375 0.78125,-1.45313 0.60937,-0.51562 1.5,-0.51562 0.625,0 1.15625,0.26562 0.53125,0.26563 0.79687,0.73438 0.28125,0.45312 0.28125,0.98437 0,0.48438 -0.26562,0.89063 -0.26563,0.40625 -0.78125,0.65625 0.67187,0.15625 1.04687,0.65625 0.375,0.48437 0.375,1.21875 0,1 -0.73437,1.70312 -0.71875,0.6875 -1.82813,0.6875 -1,0 -1.67187,-0.59375 -0.65625,-0.60937 -0.75,-1.5625 z"
       fill-rule="nonzero"
       id="path133" />
    <path
       fill="#000000"
       d="m 154.99191,162.44833 0.92187,0.125 q -0.15625,0.95312 -0.78125,1.5 -0.625,0.53125 -1.53125,0.53125 -1.125,0 -1.8125,-0.73438 -0.6875,-0.75 -0.6875,-2.125 0,-0.90625 0.29688,-1.57812 0.29687,-0.67188 0.89062,-1 0.60938,-0.34375 1.32813,-0.34375 0.89062,0 1.46875,0.46875 0.57812,0.45312 0.73437,1.28125 l -0.90625,0.14062 q -0.14062,-0.54687 -0.46875,-0.82812 -0.32812,-0.28125 -0.79687,-0.28125 -0.70313,0 -1.15625,0.51562 -0.4375,0.5 -0.4375,1.59375 0,1.10938 0.42187,1.625 0.4375,0.5 1.125,0.5 0.54688,0 0.90625,-0.34375 0.375,-0.34375 0.48438,-1.04687 z m 5.32812,1.34375 q -0.53125,0.45312 -1.01562,0.64062 -0.46875,0.17188 -1.01563,0.17188 -0.92187,0 -1.40625,-0.4375 -0.48437,-0.45313 -0.48437,-1.14063 0,-0.40625 0.17187,-0.73437 0.1875,-0.34375 0.48438,-0.54688 0.3125,-0.20312 0.6875,-0.3125 0.26562,-0.0625 0.82812,-0.14062 1.125,-0.125 1.67188,-0.3125 0,-0.20313 0,-0.25 0,-0.57813 -0.26563,-0.8125 -0.35937,-0.3125 -1.0625,-0.3125 -0.65625,0 -0.98437,0.23437 -0.3125,0.23438 -0.45313,0.8125 l -0.92187,-0.125 q 0.125,-0.57812 0.40625,-0.9375 0.29687,-0.375 0.82812,-0.5625 0.54688,-0.20312 1.25,-0.20312 0.71875,0 1.15625,0.17187 0.4375,0.17188 0.64063,0.42188 0.21875,0.25 0.29687,0.64062 0.0469,0.23438 0.0469,0.85938 v 1.25 q 0,1.29687 0.0625,1.65625 0.0625,0.34375 0.23437,0.65625 h -0.96875 q -0.15625,-0.29688 -0.1875,-0.6875 z m -0.0781,-2.07813 q -0.51563,0.20313 -1.53125,0.34375 -0.57813,0.0781 -0.82813,0.1875 -0.23437,0.10938 -0.35937,0.3125 -0.125,0.1875 -0.125,0.4375 0,0.375 0.28125,0.625 0.28125,0.25 0.82812,0.25 0.53125,0 0.95313,-0.23437 0.42187,-0.23438 0.625,-0.65625 0.15625,-0.3125 0.15625,-0.9375 z m 2.39525,4.89063 v -7.65625 h 0.85937 v 0.71875 q 0.29688,-0.42188 0.67188,-0.625 0.39062,-0.21875 0.92187,-0.21875 0.70313,0 1.25,0.375 0.54688,0.35937 0.8125,1.03125 0.28125,0.65625 0.28125,1.45312 0,0.84375 -0.3125,1.53125 -0.29687,0.67188 -0.875,1.03125 -0.57812,0.35938 -1.21875,0.35938 -0.46875,0 -0.84375,-0.1875 -0.375,-0.20313 -0.60937,-0.51563 v 2.70313 z m 0.84375,-4.85938 q 0,1.0625 0.4375,1.57813 0.4375,0.51562 1.04687,0.51562 0.625,0 1.0625,-0.53125 0.45313,-0.53125 0.45313,-1.64062 0,-1.04688 -0.4375,-1.57813 -0.4375,-0.53125 -1.04688,-0.53125 -0.59375,0 -1.0625,0.5625 -0.45312,0.5625 -0.45312,1.625 z m 10.00462,-1.75 h -5.03125 v -0.875 h 5.03125 z m 0,2.3125 h -5.03125 v -0.875 h 5.03125 z m 2.48871,-1.96875 q -0.59375,-0.20312 -0.875,-0.59375 -0.28125,-0.40625 -0.28125,-0.95312 0,-0.84375 0.59375,-1.40625 0.60937,-0.5625 1.59375,-0.5625 1,0 1.60937,0.57812 0.60938,0.57813 0.60938,1.40625 0,0.53125 -0.28125,0.9375 -0.26563,0.39063 -0.84375,0.59375 0.70312,0.23438 1.0625,0.75 0.375,0.5 0.375,1.20313 0,0.98437 -0.6875,1.65625 -0.6875,0.65625 -1.82813,0.65625 -1.125,0 -1.8125,-0.65625 -0.6875,-0.67188 -0.6875,-1.67188 0,-0.75 0.375,-1.25 0.375,-0.5 1.07813,-0.6875 z m -0.1875,-1.57812 q 0,0.53125 0.34375,0.875 0.34375,0.34375 0.90625,0.34375 0.53125,0 0.875,-0.32813 0.35937,-0.34375 0.35937,-0.84375 0,-0.51562 -0.35937,-0.85937 -0.35938,-0.35938 -0.89063,-0.35938 -0.53125,0 -0.89062,0.34375 -0.34375,0.34375 -0.34375,0.82813 z m -0.3125,3.51562 q 0,0.40625 0.1875,0.78125 0.20312,0.375 0.57812,0.57813 0.375,0.20312 0.79688,0.20312 0.67187,0 1.10937,-0.42187 0.4375,-0.4375 0.4375,-1.10938 0,-0.67187 -0.45312,-1.10937 -0.45313,-0.45313 -1.125,-0.45313 -0.65625,0 -1.09375,0.4375 -0.4375,0.4375 -0.4375,1.09375 z"
       fill-rule="nonzero"
       id="path134" />
    <path
       fill="#000000"
       fill-opacity="0"
       d="m 177.66102,95.491525 66.01575,48.000005"
       fill-rule="evenodd"
       id="path135" />
    <path
       stroke="#674ea7"
       stroke-width="2"
       stroke-linejoin="round"
       stroke-linecap="butt"
       d="m 183.79174,99.949165 50.17939,36.485385"
       fill-rule="evenodd"
       id="path136" />
    <path
       fill="#674ea7"
       stroke="#674ea7"
       stroke-width="2"
       stroke-linecap="butt"
       d="m 178.46982,96.079595 c 1.06854,-1.469604 3.12613,-1.794708 4.59573,-0.726165 1.46962,1.068542 1.79474,3.126129 0.72618,4.595733 -1.06854,1.469607 -3.12613,1.794737 -4.59573,0.726197 -1.46962,-1.068573 -1.79474,-3.12616 -0.72618,-4.595765 z"
       fill-rule="nonzero"
       id="path137" />
    <path
       fill="#674ea7"
       stroke="#674ea7"
       stroke-width="2"
       stroke-linecap="butt"
       d="m 232.02842,139.10643 9.28357,2.66568 -5.39817,-8.0094 z"
       fill-rule="evenodd"
       id="path138" />
  </g>
</svg>
