<svg width="305" height="64" viewBox="0 0 305 64" fill="none" xmlns="http://www.w3.org/2000/svg">
<g clip-path="url(#clip0_6_104)">
<path d="M12.3433 44.1102C11.795 42.4473 11.523 40.3482 11.523 37.5258C11.523 34.7024 11.795 32.599 12.3433 30.9403C13.875 26.1809 17.9325 23.5804 23.2455 23.5804C27.191 23.5804 30.3152 25.1858 32.3995 27.7318C32.5605 27.9516 32.6149 28.2833 32.344 28.5041L28.8934 31.5483C28.6182 31.7712 28.3451 31.7158 28.1243 31.4395C26.8081 29.9462 25.4385 29.1142 23.2465 29.1142C20.8914 29.1142 19.0845 30.2769 18.3154 32.6011C17.8802 33.9323 17.7682 35.48 17.7682 37.5269C17.7682 39.5738 17.8792 41.178 18.3154 42.5071C19.0834 44.7737 20.8914 45.9363 23.2465 45.9363C25.4385 45.9363 26.8081 45.1054 28.1243 43.6153C28.3451 43.3348 28.6182 43.3348 28.8934 43.5566L32.344 46.6009C32.6149 46.8217 32.5605 47.099 32.3995 47.3763C30.3163 49.868 27.1921 51.4712 23.2455 51.4712C17.9325 51.469 13.875 48.8664 12.3433 44.1102" fill="#204156"/>
<path d="M132.064 44.1102C131.516 42.4473 131.244 40.3482 131.244 37.5258C131.244 34.7024 131.516 32.599 132.064 30.9403C133.599 26.1809 137.652 23.5804 142.965 23.5804C146.912 23.5804 150.037 25.1858 152.118 27.7318C152.281 27.9516 152.338 28.2833 152.061 28.5041L148.61 31.5483C148.336 31.7712 148.064 31.7158 147.844 31.4395C146.53 29.9462 145.159 29.1142 142.965 29.1142C140.611 29.1142 138.802 30.2769 138.036 32.6011C137.597 33.9323 137.49 35.48 137.49 37.5269C137.49 39.5738 137.597 41.178 138.036 42.5071C138.802 44.7737 140.611 45.9363 142.965 45.9363C145.159 45.9363 146.53 45.1054 147.844 43.6153C148.064 43.3348 148.337 43.3348 148.61 43.5566L152.061 46.6009C152.338 46.8217 152.281 47.099 152.118 47.3763C150.037 49.868 146.912 51.4712 142.965 51.4712C137.652 51.469 133.599 48.8664 132.064 44.1102Z" fill="#204156"/>
<path d="M270.435 50.8621C270.106 50.8621 269.888 50.6424 269.888 50.3075V34.9253C269.888 31.4939 268.188 29.1132 264.899 29.1132C261.722 29.1132 259.859 31.4928 259.859 34.9253V50.3075C259.859 50.6413 259.638 50.8621 259.312 50.8621H254.269C253.94 50.8621 253.72 50.6424 253.72 50.3075V34.9253C253.72 31.4939 252.021 29.1132 248.738 29.1132C245.559 29.1132 243.694 31.4928 243.694 34.9253V50.3075C243.694 50.6413 243.475 50.8621 243.146 50.8621H238.105C237.774 50.8621 237.558 50.6424 237.558 50.3075V24.742C237.558 24.4092 237.774 24.1874 238.105 24.1874H243.146C243.475 24.1874 243.694 24.4092 243.694 24.742V26.6791H243.75C244.902 25.0183 247.201 23.5804 250.707 23.5804C253.832 23.5804 256.352 24.8508 257.938 27.1207H257.995C260.021 24.9095 262.653 23.5804 266.434 23.5804C272.568 23.5804 276.023 27.7852 276.023 33.4853V50.3064C276.023 50.6413 275.802 50.8621 275.473 50.8621H270.435V50.8621Z" fill="#204156"/>
<path d="M283.636 60.8214C283.308 60.8214 283.09 60.5995 283.09 60.2657V55.8402C283.09 55.5095 283.308 55.2844 283.636 55.2844H284.624C286.705 55.2844 287.749 54.3479 288.569 52.1325L289.337 49.8637L279.692 24.7409C279.581 24.4081 279.802 24.1863 280.133 24.1863H285.556C285.884 24.1863 286.104 24.4081 286.211 24.7409L292.186 42.1721H292.294L297.994 24.7409C298.104 24.4081 298.324 24.1863 298.649 24.1863H303.853C304.185 24.1863 304.405 24.4081 304.293 24.7409L294.213 52.5197C291.913 58.8289 289.718 60.8193 285.336 60.8193L283.636 60.8214V60.8214Z" fill="#204156"/>
<path d="M37.4404 44.1123C36.8378 42.2276 36.5637 40.458 36.5637 37.5258C36.5637 34.5978 36.8378 32.8261 37.4404 30.9488C38.9199 26.3004 42.971 23.5879 48.3395 23.5879C53.6514 23.5879 57.7046 26.2993 59.1841 30.9488C59.7835 32.8261 60.0598 34.5978 60.0598 37.5258C60.0598 40.458 59.7835 42.2276 59.1841 44.1123C57.7036 48.7576 53.6514 51.468 48.3395 51.468C42.971 51.469 38.9199 48.7587 37.4404 44.1123V44.1123ZM53.2685 42.4526C53.7079 41.0713 53.8167 39.7967 53.8167 37.5269C53.8167 35.2634 53.7079 34.0442 53.2685 32.6075C52.5026 30.3963 50.8034 29.1206 48.3395 29.1206C45.8766 29.1206 44.1209 30.3963 43.3561 32.6075C42.9198 34.0453 42.8089 35.2634 42.8089 37.5269C42.8089 39.7967 42.9198 41.0713 43.3561 42.4526C44.1209 44.6681 45.8776 45.9363 48.3395 45.9363C50.8034 45.9353 52.5026 44.667 53.2685 42.4526Z" fill="#204156"/>
<path d="M166.8 23.5804C162.471 23.5804 159.569 24.6311 157.43 26.1809C157.213 26.3495 157.157 26.6225 157.323 26.8988L159.346 30.5531C159.515 30.8305 159.839 30.8859 160.116 30.6641C161.377 29.6699 163.182 28.8369 166.143 28.8369C170.46 28.8369 171.926 30.1467 172 33.0256H172.001V33.0608C172.004 33.128 172.004 33.1963 172.004 33.2677V41.9012C172.004 44.9444 169.923 46.4355 166.143 46.4355C163.182 46.4355 161.595 45.3315 161.595 43.1193C161.595 40.6276 163.35 39.5183 167.293 39.5183L168.492 39.5204C168.821 39.5204 169.041 39.2986 169.041 38.969V35.4213C169.041 35.0907 168.821 34.8699 168.492 34.8699H168.229L166.308 34.8688C159.788 34.8688 155.73 37.529 155.73 43.3358C155.73 48.9262 159.788 51.4701 164.607 51.4701C168.33 51.4701 170.797 50.1987 172.058 48.3726H172.111V50.3096C172.111 50.6424 172.333 50.8643 172.661 50.8643H177.262C177.592 50.8643 177.811 50.6435 177.811 50.3096V32.8784C177.813 26.3495 174.855 23.5804 166.8 23.5804Z" fill="#204156"/>
<path d="M101.339 34.8666C101.196 34.8666 101.102 34.9615 101.102 35.1044V35.2623V35.7252V38.6564V39.05V39.2772C101.102 39.4201 101.196 39.5161 101.339 39.5161H101.476H114.907C115.291 39.5161 115.511 39.2964 115.511 38.9668C115.511 34.6468 115.234 32.8197 114.634 30.9402C113.152 26.4027 109.209 23.5814 103.784 23.5814C98.5242 23.5814 94.471 26.2918 92.9894 30.9402C92.4443 32.6554 92.1126 34.7588 92.1126 37.5257C92.1126 40.2926 92.4966 42.3384 93.0481 44.0557C94.5264 48.7021 98.4698 51.469 104.058 51.469C108.933 51.469 112.662 49.5874 114.906 46.9314C115.123 46.6562 115.123 46.38 114.85 46.156L111.621 43.2792C111.344 43.0584 111.071 43.116 110.796 43.3902C109.483 44.8301 107.565 45.9363 104.606 45.9363C101.651 45.9363 99.5664 44.4984 98.6896 41.899C98.5573 41.5353 98.4474 41.1534 98.3781 40.7385H98.377C98.1776 39.6121 98.0602 38.5156 98.0602 36.9049C98.1029 35.3871 98.1904 34.4175 98.4058 33.1855C98.408 33.1685 98.4112 33.1535 98.4144 33.1375C98.4165 33.1247 98.4186 33.1151 98.4208 33.1023V33.1034C98.473 32.8133 98.5445 32.5402 98.633 32.2682C99.3456 30.1104 101.318 28.8379 103.84 28.8379C106.306 28.8379 108.276 30.1104 108.988 32.2682C109.209 32.9359 109.317 33.5962 109.317 34.5391C109.317 34.7599 109.208 34.8687 108.988 34.8687H101.789L101.79 34.8676L101.339 34.8666V34.8666Z" fill="#204156"/>
<path d="M87.0226 13.235H81.9901C81.6584 13.235 81.4397 13.4558 81.4397 13.7843V26.7132V37.4053C81.4397 37.4341 81.4397 37.4628 81.4397 37.4906C81.4397 37.5194 81.4397 37.5482 81.4397 37.5759V38.9956H81.412C81.3533 40.5209 81.188 41.5236 80.8947 42.4633C80.1832 44.6713 78.484 45.8862 75.9699 45.8862C73.5081 45.8862 71.8132 44.6713 71.0986 42.4633C70.7167 41.2463 70.5546 39.9215 70.5546 37.4906C70.5546 35.0608 70.7167 33.7328 71.0986 32.52C71.7993 30.3536 73.4398 29.1302 75.8206 29.0822H77.9688C78.0734 29.0566 78.1416 28.9745 78.1416 28.855L78.1694 23.8033C78.1694 23.6743 78.0883 23.5879 77.9688 23.5729L76.2537 23.5665H74.2377V23.5676C69.8271 23.6145 66.5984 25.7649 65.2459 29.9728C64.5888 32.0197 64.3157 33.9013 64.3157 37.4906C64.3157 41.0809 64.5888 42.9604 65.2459 45.003C66.6133 49.2589 69.8964 51.4136 74.3817 51.4136C77.94 51.4136 80.1288 50.0898 81.3842 48.2637H81.4376V50.253C81.4376 50.5858 81.6573 50.8066 81.988 50.8066H87.0204C87.3489 50.8066 87.5687 50.5869 87.5687 50.253V13.7843C87.5708 13.4547 87.3511 13.235 87.0226 13.235" fill="#204156"/>
<path d="M218.951 34.8666C218.81 34.8666 218.714 34.9615 218.714 35.1044V35.2623V35.7252V38.6564V39.05V39.2772C218.714 39.4201 218.81 39.5161 218.951 39.5161H219.09H232.522C232.905 39.5161 233.125 39.2964 233.125 38.9668C233.125 34.6468 232.849 32.8197 232.249 30.9402C230.767 26.4027 226.823 23.5814 221.4 23.5814C216.139 23.5814 212.086 26.2918 210.604 30.9402C210.058 32.6554 209.728 34.7588 209.728 37.5257C209.728 40.2926 210.112 42.3384 210.663 44.0557C212.14 48.7021 216.085 51.469 221.673 51.469C226.548 51.469 230.277 49.5874 232.522 46.9314C232.74 46.6562 232.74 46.38 232.465 46.156L229.236 43.2792C228.96 43.0584 228.687 43.116 228.412 43.3902C227.099 44.8301 225.182 45.9363 222.221 45.9363C219.266 45.9363 217.183 44.4984 216.305 41.899C216.173 41.5353 216.063 41.1534 215.995 40.7385H215.994C215.794 39.6121 215.676 38.5156 215.676 36.9049C215.717 35.3871 215.804 34.4175 216.021 33.1855C216.025 33.1685 216.027 33.1535 216.029 33.1375C216.032 33.1247 216.034 33.1151 216.036 33.1023V33.1034C216.09 32.8133 216.161 32.5402 216.249 32.2682C216.961 30.1104 218.934 28.8379 221.457 28.8379C223.923 28.8379 225.892 30.1104 226.604 32.2682C226.824 32.9359 226.934 33.5962 226.934 34.5391C226.934 34.7599 226.824 34.8687 226.604 34.8687H219.405V34.8676L218.951 34.8666V34.8666Z" fill="#204156"/>
<path d="M204.896 13.235H199.854C199.524 13.235 199.304 13.4568 199.304 13.7854V26.7324V37.4415V37.5258V37.6122V39.034H199.278C199.218 40.5615 199.052 41.5652 198.758 42.506C198.046 44.7182 196.343 45.9363 193.827 45.9363C191.363 45.9363 189.665 44.7182 188.949 42.506C188.569 41.2868 188.402 39.9609 188.402 37.5258C188.402 35.0928 188.566 33.7616 188.949 32.5477C189.65 30.3782 191.294 29.1643 193.679 29.1163L195.83 29.1174C196.16 29.1174 196.38 28.8966 196.38 28.567V24.1329C196.38 23.8023 196.16 23.5815 195.83 23.5815H195.567L192.315 23.5804C192.289 23.5804 192.263 23.5804 192.239 23.5804C192.214 23.5804 192.192 23.5804 192.169 23.5804H192.094V23.5815C187.678 23.6273 184.444 25.782 183.09 29.9963C182.432 32.0464 182.159 33.929 182.159 37.5236C182.159 41.1193 182.432 43.003 183.09 45.0489C184.459 49.3091 187.748 51.4679 192.24 51.4679C195.803 51.4679 197.995 50.1432 199.253 48.3139H199.307V50.3053C199.307 50.6402 199.526 50.86 199.857 50.86H204.898C205.226 50.86 205.447 50.6413 205.447 50.3053V13.7854C205.443 13.4558 205.223 13.235 204.896 13.235" fill="#204156"/>
<path d="M131.652 58.4065V63.4486C131.652 63.7803 131.872 64 132.202 64H150.885C151.219 64 151.44 63.7792 151.44 63.4486V58.4065C151.44 58.0791 151.219 57.8583 150.885 57.8583H132.202C131.872 57.8583 131.652 58.0791 131.652 58.4065" fill="#204156"/>
<path d="M126.909 0.17813C126.9 0.169597 126.895 0.158931 126.887 0.151464C126.886 0.150398 126.885 0.150398 126.885 0.150398C126.789 0.0554657 126.653 0 126.491 0H126.484H0.550391C0.508792 0 0.469326 0.0042666 0.430926 0.0106665C0.42026 0.0127998 0.41066 0.0170664 0.398927 0.0191997C0.374394 0.0255996 0.347728 0.0309328 0.325328 0.0405327C0.321061 0.0415993 0.317861 0.0437326 0.314661 0.0458659C0.119465 0.125865 0 0.308262 0 0.549324V0.551458V63.4411V63.4453C0 63.6373 0.0746654 63.7877 0.20053 63.8837C0.21013 63.8933 0.218663 63.9019 0.231463 63.9083V63.9093C0.318928 63.9648 0.425593 63.9947 0.550391 63.9947H126.483H126.49C126.675 63.9947 126.826 63.9232 126.921 63.8005C126.995 63.7088 127.039 63.5883 127.039 63.4443V63.44V0.551458V0.549324C127.039 0.398927 126.991 0.271995 126.909 0.17813V0.17813ZM6.68362 57.8561C6.64416 57.8561 6.60576 57.8529 6.57162 57.8476C6.56096 57.8454 6.54922 57.8401 6.53856 57.8369C6.51296 57.8316 6.48736 57.8262 6.46389 57.8166C6.45963 57.8156 6.45749 57.8124 6.45323 57.8113C6.2591 57.7324 6.1407 57.551 6.13963 57.3121V11.7278V6.68789C6.13963 6.44576 6.2591 6.2655 6.45323 6.18443C6.45856 6.18336 6.46176 6.18016 6.46496 6.1791C6.48736 6.17056 6.55989 6.15243 6.57162 6.14923C6.60789 6.1439 6.64629 6.1407 6.68576 6.1407H120.352C120.393 6.1407 120.43 6.1439 120.466 6.14923C120.478 6.15243 120.489 6.1567 120.498 6.1599C120.524 6.16523 120.549 6.17056 120.573 6.18016C120.578 6.18123 120.58 6.18443 120.585 6.1855C120.78 6.2655 120.898 6.44683 120.898 6.68896V57.3132C120.897 57.5532 120.778 57.7345 120.586 57.8134C120.581 57.8145 120.579 57.8177 120.574 57.8188C120.552 57.8273 120.525 57.8337 120.5 57.839C120.489 57.8422 120.479 57.8476 120.467 57.8497C120.431 57.8561 120.396 57.8582 120.356 57.8582H6.68362V57.8561V57.8561Z" fill="#204156"/>
</g>
<defs>
<clipPath id="clip0_6_104">
<rect width="304.322" height="64" fill="white"/>
</clipPath>
</defs>
</svg>
