<svg width="410" height="64" viewBox="0 0 410 64" fill="none" xmlns="http://www.w3.org/2000/svg">
<path d="M30.327 31.1651L50.638 19.4781C55.09 16.4181 56.203 10.0181 53.142 5.56506C50.36 1.67006 45.073 5.56707e-05 40.622 2.22606L5.28598 22.5401L30.327 31.1661V31.1651Z" fill="#EA4335"/>
<path d="M45.63 61.496C46.947 61.5014 48.252 61.246 49.4698 60.7445C50.6876 60.2429 51.794 59.5052 52.7252 58.5738C53.6564 57.6424 54.3939 56.5359 54.8952 55.318C55.3965 54.1001 55.6517 52.795 55.646 51.478C55.646 47.861 53.699 44.522 50.638 42.852L15.303 22.54C10.295 19.758 4.45199 21.705 1.66899 26.436C-0.835012 31.165 0.555987 37.009 5.28599 39.79L40.622 60.103C42.012 61.216 43.682 61.495 45.63 61.495V61.496Z" fill="#4285F4"/>
<path d="M80.687 61.4961C82.357 61.4961 84.304 60.9391 85.695 60.1041L121.031 39.7911L96.268 30.8871L75.401 42.8521C70.671 45.6351 69.001 51.7571 71.784 56.4871C73.731 59.8271 77.07 61.4961 80.687 61.4961V61.4961Z" fill="#FBBC04"/>
<path d="M115.744 41.183C117.061 41.1886 118.366 40.9332 119.584 40.4318C120.802 39.9303 121.909 39.1925 122.84 38.2612C123.771 37.3298 124.509 36.2232 125.01 35.0052C125.511 33.7873 125.767 32.4821 125.761 31.165C125.761 27.548 123.813 24.209 120.752 22.539L85.695 2.22603C81.244 -0.833972 74.845 0.278028 71.784 4.73003C68.724 9.18303 69.836 15.583 74.288 18.643C74.844 18.922 75.122 19.2 75.678 19.478L111.014 39.791C112.405 40.626 114.074 41.183 115.744 41.183V41.183Z" fill="#0F9D58"/>
<path d="M165.548 51.478C161.931 49.53 159.148 46.748 157.201 43.13C155.253 39.513 154.141 35.617 154.141 31.443C154.141 27.27 155.253 23.096 157.201 19.757C159.148 16.139 161.931 13.357 165.548 11.409C169.165 9.46102 173.06 8.34802 177.233 8.34802C180.573 8.34802 183.633 8.90402 186.415 10.296C189.197 11.409 191.423 13.356 193.649 15.583L189.754 19.2C188.084 17.252 186.137 15.583 184.189 14.748C182.241 13.913 180.016 13.357 177.233 13.357C173.895 13.357 171.113 14.191 168.33 15.583C165.548 16.973 163.6 19.2 161.93 21.983C160.261 24.765 159.427 27.826 159.427 31.443C159.427 35.061 160.261 38.122 161.931 40.904C163.6 43.687 165.548 45.913 168.33 47.304C171.112 48.696 173.895 49.53 177.233 49.53C182.52 49.53 187.25 47.304 190.867 42.852L194.762 46.47C192.814 48.974 190.31 50.922 187.25 52.313C184.19 53.704 180.85 54.539 177.233 54.539C173.06 54.261 169.165 53.426 165.548 51.479V51.478ZM205.056 52.035C202.552 50.643 200.605 48.417 199.214 45.913C197.822 43.409 197.266 40.626 197.266 37.565C197.266 34.505 197.822 31.722 199.214 29.217C200.604 26.713 202.552 24.765 205.056 23.096C207.561 21.426 210.343 20.87 213.403 20.87C216.463 20.87 219.246 21.704 221.75 23.096C224.254 24.487 226.202 26.713 227.593 29.217C228.984 31.722 229.541 34.504 229.541 37.565C229.541 40.626 228.984 43.409 227.593 45.913C226.202 48.417 224.254 50.365 221.75 52.035C219.246 53.426 216.464 54.261 213.403 54.261C210.343 54.261 207.561 53.704 205.056 52.035ZM218.69 48.139C220.36 47.304 221.75 45.913 222.585 43.965C223.42 42.017 223.976 40.07 223.976 37.565C223.976 35.061 223.42 33.113 222.585 31.165C221.472 29.217 220.359 27.826 218.69 26.991C217.02 26.157 215.351 25.6 213.403 25.6C211.456 25.6 209.786 26.157 207.839 26.991C206.169 27.826 204.779 29.217 203.665 31.165C202.552 33.113 202.275 35.061 202.275 37.565C202.275 40.07 202.831 42.017 203.665 43.965C204.778 45.913 205.891 47.305 207.839 48.139C209.786 48.974 211.456 49.53 213.403 49.53C215.351 49.53 217.02 49.252 218.69 48.14V48.139ZM240.114 52.313C237.888 50.922 235.94 48.973 234.827 46.47C233.437 43.965 232.88 41.183 232.88 37.843C232.88 34.783 233.436 31.722 234.827 29.217C236.218 26.713 237.887 24.765 240.114 23.096C242.339 21.704 244.844 20.87 247.904 20.87C250.408 20.87 252.356 21.426 254.304 22.54C256.251 23.652 257.642 25.043 258.755 26.435H259.033L258.755 22.261V9.18302H264.041V53.426H259.033V48.696H258.755C257.642 50.366 256.251 51.478 254.303 52.591C252.356 53.704 250.13 54.261 247.904 54.261C245.122 54.261 242.618 53.704 240.114 52.313ZM253.747 48.139C255.417 47.026 256.529 45.635 257.642 43.965C258.477 42.017 259.033 40.07 259.033 37.565C259.033 35.061 258.477 33.113 257.643 31.165C256.807 29.217 255.416 27.826 253.747 26.991C252.077 25.878 250.408 25.6 248.461 25.6C246.695 25.5945 244.962 26.0758 243.452 26.991C241.783 28.104 240.67 29.496 239.557 31.165C238.722 33.113 238.166 35.061 238.166 37.565C238.166 39.791 238.722 42.017 239.557 43.965C240.392 45.913 241.783 47.305 243.452 48.139C245.122 49.252 246.792 49.53 248.461 49.53C250.408 49.53 252.078 49.252 253.747 48.14V48.139ZM276.284 52.313C273.78 50.922 272.11 48.973 270.719 46.47C269.328 43.965 268.771 41.183 268.771 37.843C268.771 34.783 269.328 32 270.719 29.496C272.11 26.991 273.779 24.766 276.005 23.374C278.231 21.983 281.014 21.148 284.075 21.148C287.135 21.148 289.917 21.704 292.143 23.096C294.369 24.487 296.038 26.435 297.429 28.939C298.542 31.443 299.377 34.226 299.377 37.287V38.957H274.337C274.337 41.461 275.171 43.409 276.005 45.078C277.118 46.748 278.231 47.861 279.901 48.696C281.571 49.53 283.239 49.809 284.909 49.809C289.082 49.809 292.143 47.861 294.369 44.243L298.82 46.47C297.43 48.974 295.76 50.922 293.256 52.591C290.752 54.261 287.969 54.817 284.909 54.817C281.292 54.261 278.509 53.704 276.284 52.313V52.313ZM293.256 34.226C293.256 32.835 292.699 31.722 292.143 30.33C291.586 28.94 290.473 27.826 289.083 26.991C287.691 26.157 286.022 25.6 283.796 25.6C281.292 25.6 279.344 26.435 277.396 28.104C275.727 29.774 274.614 31.722 274.058 34.504H293.256V34.226V34.226ZM303.829 9.18302H309.115V53.426H303.829V9.18302ZM319.131 53.148C317.396 52.4077 315.937 51.1424 314.958 49.53C313.845 47.86 313.567 46.191 313.567 44.243C313.567 40.904 314.957 38.4 317.462 36.453C319.966 34.504 323.027 33.67 326.922 33.67C328.869 33.67 330.539 33.948 332.208 34.226C333.878 34.504 334.99 35.061 335.825 35.617V33.391C335.825 31.165 334.99 29.217 333.321 27.826C331.651 26.435 329.704 25.6 327.2 25.6C325.53 25.6 323.861 25.878 322.47 26.713C321.079 27.548 319.688 28.661 318.853 29.773L314.958 26.713C316.071 24.765 318.018 23.373 319.966 22.261C321.914 21.148 324.696 20.591 327.2 20.591C331.373 20.591 334.99 21.704 337.216 23.931C339.72 26.157 340.833 29.217 340.833 33.113V53.148H335.825V48.696H335.547C334.712 50.087 333.321 51.478 331.373 52.591C329.426 53.704 327.478 54.261 325.253 54.261C323.027 54.261 321.079 53.983 319.131 53.148V53.148ZM330.817 48.418C332.208 47.583 333.599 46.191 334.434 44.8C335.349 43.2899 335.83 41.5568 335.825 39.791C334.712 39.235 333.599 38.678 332.208 38.121C330.817 37.843 329.148 37.565 327.756 37.565C324.974 37.565 322.748 38.122 321.357 39.235C319.966 40.348 319.131 42.017 319.131 43.965C319.131 45.635 319.688 47.026 321.079 48.139C322.47 49.252 324.139 49.809 326.087 49.809C327.757 49.809 329.426 49.252 330.817 48.417V48.418ZM356.414 52.87C354.467 51.757 353.076 50.365 352.241 48.974H351.963V53.704H346.954V9.18302H352.241V22.26L351.963 26.712H352.241C353.076 25.042 354.745 23.652 356.414 22.538C358.362 21.425 360.588 20.868 362.814 20.868C365.596 20.868 368.1 21.703 370.604 23.095C372.83 24.486 374.778 26.434 375.89 29.216C377.003 31.999 377.838 34.782 377.838 37.842C377.838 41.182 377.282 43.964 375.89 46.469C374.5 48.973 372.83 50.921 370.604 52.312C368.378 53.703 365.874 54.538 362.814 54.538C360.588 54.26 358.362 53.703 356.414 52.868V52.87ZM367.544 48.14C369.213 47.026 370.326 45.635 371.439 43.965C372.273 42.017 372.829 40.07 372.829 37.565C372.829 35.061 372.273 33.113 371.439 31.165C370.604 29.217 369.213 27.826 367.544 26.991C365.874 25.878 364.204 25.6 362.535 25.6C360.588 25.6 358.918 26.157 357.249 26.991C355.579 28.104 354.467 29.496 353.354 31.165C352.519 33.113 351.963 35.061 351.963 37.565C351.963 40.07 352.519 42.017 353.353 43.965C354.188 45.913 355.58 47.305 357.249 48.139C358.919 49.252 360.588 49.53 362.535 49.53C364.205 49.53 365.875 49.252 367.544 48.14ZM385.35 52.035C383.124 50.365 381.455 48.417 380.62 45.913L385.35 43.687C386.185 45.635 387.298 47.027 388.967 48.139C390.637 49.252 392.307 49.809 393.976 49.809C395.923 49.809 397.593 49.53 398.984 48.696C400.374 47.861 401.21 46.748 401.21 45.356C401.21 43.966 400.653 42.852 399.54 42.296C398.427 41.461 396.758 40.904 394.254 40.348L390.359 39.235C387.854 38.678 385.907 37.565 384.237 36.174C382.568 34.783 381.733 32.834 381.733 30.33C381.733 28.383 382.29 26.991 383.403 25.6C384.516 24.209 385.907 23.096 387.854 22.54C389.802 21.704 391.75 21.426 393.697 21.426C396.48 21.426 398.984 21.983 401.21 23.096C403.435 24.209 404.827 25.878 405.94 28.104L401.488 30.33C400.097 27.548 397.593 26.157 393.976 26.157C392.306 26.157 390.636 26.435 389.524 27.27C388.133 28.104 387.576 29.217 387.576 30.33C387.576 31.443 388.133 32.557 388.967 33.113C389.802 33.67 391.193 34.504 393.141 34.783L397.593 35.896C400.653 36.73 403.157 37.843 404.548 39.513C406.218 41.183 406.774 42.853 406.774 45.078C406.774 47.026 406.218 48.696 405.104 50.087C403.992 51.478 402.601 52.591 400.654 53.427C398.705 54.261 396.758 54.539 394.254 54.539C390.359 54.261 387.576 53.704 385.35 52.035V52.035Z" fill="#676C72"/>
</svg>
