<svg width="355" height="64" viewBox="0 0 355 64" fill="none" xmlns="http://www.w3.org/2000/svg">
<path d="M44.7229 40.959C44.7229 43.6694 42.3765 45.3632 40.2981 45.3632C38.2197 45.3632 35.7261 44.5211 35.7261 40.959V39.2267H32.9883V40.959C32.9883 44.9038 36.2688 48.1123 40.2981 48.1123C44.3275 48.1123 47.6077 44.9038 47.6077 40.959V39.2267H44.7229V40.959Z" fill="white"/>
<path d="M21.7278 32.5936C21.7278 30.0053 23.9726 27.9005 26.7307 27.9005C29.487 27.9005 31.7318 30.0072 31.7318 32.5936H34.883C34.883 28.3733 31.2278 24.9414 26.7307 24.9414C22.2336 24.9414 18.5765 28.3733 18.5765 32.5936H21.7278Z" fill="white"/>
<path d="M47.6958 32.5936C47.6958 30.0053 49.9408 27.9005 52.6968 27.9005C55.455 27.9005 57.6998 30.0072 57.6998 32.5936H60.851C60.851 28.3733 57.1939 24.9414 52.6968 24.9414C48.1998 24.9414 44.5446 28.3733 44.5446 32.5936H47.6958Z" fill="white"/>
<path fill-rule="evenodd" clip-rule="evenodd" d="M65.9355 22.5548V12.3832C65.9355 8.95541 65.519 6.57709 64.6854 5.24821C63.852 3.91931 62.1168 2.89469 59.4798 2.17437C58.6835 1.95082 58.2856 1.59066 58.2856 1.09387C58.2856 0.423213 59.1811 0.0878906 60.9723 0.0878906H63.6966C66.6571 0.0878906 68.9024 1.00693 70.4323 2.84501C71.9624 4.68312 72.7272 7.36571 72.7272 10.8929V21.6233C72.7272 24.1073 72.9947 26.0198 73.5296 27.3611C74.0646 28.7024 75.0534 29.9568 76.4963 31.1243C76.9192 31.472 77.1307 31.7576 77.1307 31.9813C77.1307 32.2048 76.9192 32.4904 76.4963 32.8381C75.0286 34.0304 74.0334 35.2909 73.511 36.62C72.9886 37.9488 72.7272 39.8552 72.7272 42.3392V53.0323C72.7272 56.5843 71.956 59.2792 70.4136 61.1173C68.8712 62.9555 66.6323 63.8747 63.6966 63.8747H60.9723C59.803 63.8747 59.063 63.8187 58.752 63.7069C58.4411 63.5952 58.2856 63.3157 58.2856 62.8685C58.2856 62.2477 58.696 61.8379 59.5171 61.6389L61.0096 61.3037C64.2936 60.5587 65.9355 57.3171 65.9355 51.5792V41.4077C65.9355 37.5576 66.8686 34.8376 68.7344 33.248L69.4435 32.652C69.7918 32.3539 69.9659 32.1301 69.9659 31.9813C69.9659 31.8075 69.7918 31.5837 69.4435 31.3107L68.7344 30.7144C66.8686 29.1248 65.9355 26.4049 65.9355 22.5548Z" fill="white"/>
<path fill-rule="evenodd" clip-rule="evenodd" d="M14.1953 22.4669V12.2953C14.1953 8.86752 14.612 6.4892 15.4455 5.16032C16.2789 3.83141 18.0141 2.80683 20.6512 2.08648C21.4473 1.86293 21.8454 1.50277 21.8454 1.00598C21.8454 0.335323 20.9498 0 19.1585 0H16.4344C13.4739 0 11.2286 0.919035 9.69858 2.75715C8.16858 4.59523 7.40356 7.27781 7.40356 10.805V21.5355C7.40356 24.0194 7.13612 25.9319 6.60124 27.2733C6.06636 28.6147 5.07746 29.8691 3.63452 31.0363C3.21159 31.3843 3.00012 31.6699 3.00012 31.8933C3.00012 32.1168 3.21159 32.4027 3.63452 32.7504C5.10234 33.9427 6.09746 35.2032 6.61991 36.532C7.14236 37.8608 7.40356 39.7672 7.40356 42.2512V52.9445C7.40356 56.4965 8.17479 59.1915 9.71724 61.0296C11.2597 62.8677 13.4987 63.7867 16.4344 63.7867H19.1585C20.3278 63.7867 21.0679 63.7307 21.3789 63.6189C21.6899 63.5072 21.8454 63.2277 21.8454 62.7808C21.8454 62.1597 21.4349 61.7499 20.6139 61.5512L19.1212 61.2157C15.8373 60.4707 14.1953 57.2291 14.1953 51.4915V41.3197C14.1953 37.4696 13.2624 34.7499 11.3965 33.16L10.6875 32.564C10.3392 32.2659 10.1651 32.0424 10.1651 31.8933C10.1651 31.7195 10.3392 31.496 10.6875 31.2227L11.3965 30.6267C13.2624 29.0368 14.1953 26.317 14.1953 22.4669Z" fill="white"/>
<path fill-rule="evenodd" clip-rule="evenodd" d="M252.411 14.5894C252.411 18.0934 254.391 19.8455 258.351 19.8455C261.871 19.8455 263.631 18.0934 263.631 14.5894C263.631 11.0854 261.871 9.33337 258.351 9.33337C254.391 9.33337 252.411 11.0854 252.411 14.5894ZM173.958 41.3427C177.336 46.5496 183.765 47.4174 193.246 43.9462C196.571 57.6139 163.316 58.9158 163.316 38.0886C164.613 19.3704 181.274 19.3704 187.925 23.1191C195.546 27.0099 196.571 36.787 189.921 40.0411C187.898 41.1368 182.578 41.571 173.958 41.3427ZM173.958 34.1835C175.953 25.7225 183.934 28.9768 183.934 32.231C183.934 32.2643 183.936 32.3011 183.938 32.3406C183.973 33.075 184.055 34.8011 173.958 34.1835ZM219.158 29.8336C214.544 29.192 211.869 29.8558 211.131 31.8248C210.394 33.7939 210.171 40.8739 210.462 53.0646C205.517 53.8707 202.395 52.9856 201.097 50.4096C199.799 47.8336 199.353 41.6387 199.759 31.8248C200.206 26.5149 202.435 23.1962 206.449 21.8687C209.151 20.9748 215.585 20.4784 218.49 23.1962C219.429 24.075 219.652 26.2875 219.158 29.8336ZM268.227 52.3958C263.607 55.5363 256.53 53.5438 254.809 51.076C252.57 47.8632 251.899 38.6251 252.797 23.3611C257.602 22.8086 260.733 23.2485 262.189 24.6809C264.05 26.5118 264.046 34.2683 264.043 39.3635V39.3638V39.364C264.042 41.6139 264.041 43.3448 264.201 43.8174C264.885 45.835 266.675 46.4947 269.568 45.7971C269.603 49.5643 269.157 51.7638 268.227 52.3958ZM231.898 37.3646C231.898 28.2734 242.402 28.2734 247.654 32.1696C247.654 32.0251 247.665 31.8278 247.678 31.5878C247.841 28.5584 248.371 18.7086 232.554 21.7278C225.989 23.6829 221.393 30.8515 221.393 37.3952C221.393 45.1883 225.332 50.4019 232.554 53.0086C250.281 55.6152 247.654 42.5595 247.654 42.5595C243.059 45.8064 231.898 46.4558 231.898 37.3646ZM130.485 21.9434C140.062 20.9441 143.06 26.0826 144.827 29.1118C145.362 30.028 145.783 30.7512 146.241 31.0534C146.241 31.0534 150.836 26.4983 151.493 21.9434C161.996 21.5096 161.996 26.932 151.493 38.211C155.431 44.2843 158.933 47.5379 161.996 47.9718C161.34 53.1774 156.554 54.3976 152.149 52.5267C147.554 50.5744 144.271 44.0675 144.271 44.0675C141.646 44.0675 139.019 52.5267 139.019 53.1774C127.641 53.6112 127.422 47.9718 138.363 36.259C133.111 30.1856 130.485 25.4138 130.485 21.9434ZM125.93 43.9462C116.449 47.4174 110.02 46.5496 106.642 41.3427C115.261 41.571 120.582 41.1368 122.604 40.0411C129.255 36.787 128.23 27.0099 120.609 23.1191C113.958 19.3704 97.2968 19.3704 96 38.0886C96 58.9158 129.255 57.6139 125.93 43.9462ZM116.618 32.231C116.618 28.9768 108.637 25.7225 106.642 34.1835C116.739 34.8011 116.657 33.075 116.622 32.3406C116.62 32.3008 116.618 32.2643 116.618 32.231ZM297.936 31.8931C301.197 17.3703 275.744 18.6906 273.133 29.2526C271.432 39.5851 278.333 40.652 283.341 41.4259C286.013 41.8387 288.144 42.168 288.144 43.7752C288.144 48.3963 277.051 45.7558 273.787 43.7752C269.872 56.9779 294.019 58.2982 297.936 47.076C299.6 41.743 298.056 37.7323 294.672 35.8539C292.627 34.7187 290.453 34.4664 288.501 34.2398C286.085 33.9595 284.005 33.7182 282.923 31.8931C281.619 29.2526 289.451 27.2723 297.936 31.8931ZM314.901 45.0944C315.04 47.8112 315.189 50.7379 315.189 53.7395C303.589 55.4926 303.739 48.4966 303.939 39.0976C303.965 37.8251 303.995 36.5086 303.995 35.1638C303.995 19.9048 323.093 17.2511 329.019 26.5391C334.947 17.9146 353.387 18.578 353.387 37.5846V53.7395C342.421 55.0784 342.189 49.759 342.189 43.1248C342.189 42.1374 342.197 41.2102 342.205 40.3414C342.264 33.0355 342.288 29.8563 337.581 29.8563C333.733 30.3406 333.749 34.2371 333.781 42.5923C333.792 45.6811 333.808 49.3792 333.629 53.7395C323.752 55.0664 323.752 50.4224 323.752 45.7784C323.752 44.8395 323.76 43.9067 323.771 42.9912C323.848 35.9096 323.915 29.8563 319.141 29.8563C314.123 29.8563 314.459 36.4024 314.901 45.0944Z" fill="white"/>
</svg>
