<svg width="59px" height="59px" viewBox="0 0 59 59" version="1.1" xmlns="http://www.w3.org/2000/svg" xmlns:xlink="http://www.w3.org/1999/xlink">
    <g id="Final" stroke="none" stroke-width="1" fill="none" fill-rule="evenodd">
        <g id="solutions" transform="translate(-250.000000, -645.000000)" fill="#FFFFFF" fill-rule="nonzero">
            <g id="noun_Network_58995-Copy" transform="translate(250.000000, 645.000000)">
                <path d="M58.9678767,28.2498556 C58.9521428,27.8729111 58.9259198,27.4992444 58.8957632,27.1262333 C58.8957632,27.1223 58.8957632,27.1183667 58.8957632,27.1144333 C58.8957632,27.1144333 58.8957632,27.1144333 58.8951076,27.1144333 C57.7426025,12.7459667 46.2536085,1.25801111 31.8846628,0.104233333 C31.8833517,0.104233333 31.8820405,0.104233333 31.8813849,0.104233333 C31.5050835,0.0740777778 31.1274709,0.0478555556 30.747236,0.0314666667 C30.3348778,0.0118 29.9212085,0 29.5042613,0 C29.5042613,0 29.5042613,0 29.4996722,0 C29.4950832,0 29.4950832,0 29.4950832,0 C29.0781359,0 28.663811,0.0124555556 28.2521084,0.0321222222 C27.8712179,0.0478555556 27.4929498,0.0747333333 27.1159928,0.105544444 L27.1153372,0.105544444 C12.3694345,1.29472222 0.652955099,13.3582556 0.0314677156,28.2485444 C0.0124559708,28.6602333 0,29.0745444 0,29.4914778 L0,29.4960667 C0,29.5013111 0,29.5013111 0,29.5013111 C0,29.5059 0,29.5104889 0,29.5150778 C0,29.9313556 0.0131115482,30.3450111 0.0327788704,30.7567 C0.665411069,45.6463333 12.373368,57.7026556 27.1146816,58.8944556 C27.1179595,58.8944556 27.121893,58.8951111 27.1251708,58.8951111 C27.4995055,58.9252667 27.875807,58.9521444 28.2547307,58.9678778 C28.6657777,58.9868889 29.0787915,59 29.4950832,59 C29.4950832,59 29.4950832,59 29.4996722,59 C29.5042613,59 29.5042613,59 29.5042613,59 C29.9225196,59 30.3375001,58.9875444 30.7498583,58.9685333 C31.1281265,58.9528 31.5024612,58.9259222 31.8774515,58.8964222 C31.8800738,58.8957667 31.8826961,58.8957667 31.8846628,58.8957667 C46.6213874,57.7111778 58.3339334,45.6509222 58.9672211,30.7573556 C58.9868885,30.3456667 59,29.9320111 59,29.5150778 C59,29.5098333 59,29.5052444 59,29.5013111 C59,29.5013111 59,29.5013111 59,29.4960667 L59,29.4914778 C58.9993444,29.0752 58.987544,28.6615444 58.9678767,28.2498556 Z M20.9883107,3.78911111 C18.7665589,5.93277778 16.8765292,8.91096667 15.4296699,12.4857111 C14.0051002,12.6384556 12.8912742,13.8302556 12.8912742,15.2960778 C12.8912742,15.3150889 12.8965188,15.3334444 12.8971744,15.3524556 C9.11318155,16.8549889 5.95198729,18.8531222 3.71187928,21.1914889 C6.35975644,12.9937667 12.8191606,6.50245556 20.9883107,3.78911111 Z M13.7887596,17.5026778 C13.0453348,20.4467778 12.5995422,23.6688333 12.4435148,27.0587111 C11.949865,27.3491222 11.5525851,27.7791667 11.3080547,28.3009889 L4.20421792,28.3009889 C3.92297521,27.7011556 3.44178139,27.2186667 2.84258364,26.9361222 C4.09539207,23.0591667 8.12588197,19.7040333 13.7887596,17.5026778 Z M4.20290676,30.7009778 L11.3087103,30.7009778 C11.5532407,31.2221444 11.9505206,31.6508778 12.4435148,31.9412889 C12.593642,35.2033333 13.0191117,38.3034556 13.715335,41.1590556 C13.6471549,41.2278889 13.5907752,41.3085222 13.5298065,41.3845667 C8.00460015,39.1819 4.07506917,35.8779 2.84192806,32.0638778 C3.44047024,31.7813333 3.92166406,31.2995 4.20290676,30.7009778 Z M3.79120415,38.0078 C6.02868985,40.3271556 9.16890563,42.2912 12.958143,43.7596444 C13.1974288,44.8675333 14.0824583,45.7328667 15.2002178,45.9446111 C16.6700223,49.7743667 18.6498661,52.9498778 20.9876551,55.2082667 C12.8886518,52.5178667 6.48234941,46.1111222 3.79120415,38.0078 Z M28.2999656,54.7952667 C27.7007678,55.0765 27.2182628,55.5583333 26.935709,56.1568556 C23.0894363,54.9119556 19.7558252,50.9242111 17.5498072,45.3244556 C17.5838972,45.2956111 17.6192984,45.2700444 17.6520773,45.2398889 C20.491383,45.9439556 23.5765303,46.3766222 26.8222941,46.5398556 C27.1212374,47.1796778 27.6456993,47.6923222 28.2999656,47.9650333 L28.2999656,54.7952667 L28.2999656,54.7952667 Z M28.2999656,42.7205889 C27.6424214,42.9946111 27.1159928,43.5098778 26.817705,44.1542889 C23.9049746,43.9995778 21.125982,43.5964111 18.5548074,42.9795333 C18.4663044,41.5825444 17.3767348,40.4707222 15.9914997,40.3435444 C15.3870573,37.7947444 14.9930553,35.0446889 14.8403058,32.1609 C15.548985,31.9032667 16.1232708,31.3788222 16.4405702,30.7009778 L26.8249164,30.7009778 C27.1238597,31.3388333 27.6470105,31.8501667 28.2999656,32.1222222 L28.2999656,42.7205889 Z M28.2999656,26.8777778 C27.6463549,27.1498333 27.1225485,27.6618222 26.8236052,28.3009889 L16.4412258,28.3009889 C16.1245819,27.6231444 15.5496405,27.0967333 14.8403058,26.8391 C15.0035446,23.7435667 15.443437,20.8007778 16.1265487,18.0972667 C17.2593864,17.9386222 18.1693279,17.1198333 18.462371,16.0362 C21.1882618,15.3740889 24.154094,14.9591222 27.2634977,14.8208 C27.5257286,15.2043 27.8856406,15.5104444 28.2999656,15.7274333 L28.2999656,26.8777778 Z M28.2999656,10.7137444 C27.6207874,11.0690556 27.1087814,11.6865889 26.8917853,12.4372 C23.794182,12.5938778 20.8349056,13.0304778 18.0841028,13.7043889 C17.9772437,13.5464 17.852684,13.4015222 17.7163239,13.2677889 C19.919064,7.88371111 23.1825283,4.05723333 26.9350534,2.84314444 C27.2176073,3.44232222 27.6994566,3.92415556 28.29931,4.20538889 L28.29931,10.7137444 L28.2999656,10.7137444 Z M55.2874651,21.1914889 C53.0467016,18.8491889 49.8881296,16.8569556 46.1015145,15.3504889 C46.1021701,15.3321333 46.1074147,15.3144333 46.1074147,15.2960778 C46.1074147,13.7955111 44.9411425,12.5801111 43.4667489,12.4758778 C41.9851439,8.88212222 40.0610243,5.86722222 37.8097714,3.71437778 C46.0772581,6.38576667 52.6159872,12.9236222 55.2874651,21.1914889 Z M56.1561052,26.9367778 C55.557563,27.2193222 55.0763692,27.7011556 54.7951265,28.3009889 L48.1272487,28.3009889 C47.8145383,27.6329778 47.2527084,27.1105 46.5571408,26.8489333 C46.3866907,23.5364111 45.9015634,20.3805667 45.1443715,17.4744889 C50.8433059,19.6765 54.8973966,23.0447444 56.1561052,26.9367778 Z M30.6993789,4.20538889 C31.2992322,3.92415556 31.7810816,3.44232222 32.0636355,2.84314444 C35.8161605,4.05723333 39.0756914,7.88371111 41.282365,13.2677889 C41.1466604,13.4008667 41.0227563,13.5457444 40.914586,13.7043889 C38.2280298,13.0475222 35.3461115,12.6174778 32.3304555,12.4509667 C32.093792,11.6131667 31.4932831,10.9294222 30.6993789,10.5983667 L30.6993789,4.20538889 L30.6993789,4.20538889 Z M30.6993789,15.8428111 C31.2067958,15.6317222 31.6394769,15.2764111 31.9475983,14.8293222 C34.9796438,14.9768222 37.8707401,15.3891667 40.5350067,16.0335778 C40.8273942,17.1178667 41.7393024,17.9379667 42.8721402,18.0972667 C43.5677078,20.8578111 44.0115337,23.8720556 44.1669056,27.0397 C43.6562108,27.3294556 43.2445082,27.7667111 42.9940776,28.3016444 L31.9574319,28.3016444 C31.6932342,27.7378667 31.2494083,27.2816 30.6993789,26.9938111 L30.6993789,15.8428111 L30.6993789,15.8428111 Z M30.6993789,32.0068444 C31.2487527,31.7197111 31.6919231,31.2634444 31.9561208,30.7009778 L42.9953887,30.7009778 C43.2458193,31.2346 43.6575219,31.6705444 44.1669056,31.9609556 C44.0226785,34.9162 43.6267098,37.7350889 43.0085003,40.3435444 C41.6219541,40.4700667 40.5310733,41.5838556 40.4438815,42.9815 C37.8091159,43.6114889 34.9566986,44.0159667 31.96661,44.1628111 C31.704379,43.5898556 31.2553085,43.1270333 30.6987233,42.8359667 L30.6987233,32.0068444 L30.6993789,32.0068444 Z M32.0636355,56.1568556 C31.7810816,55.5576778 31.2992322,55.0758444 30.6993789,54.7946111 L30.6993789,47.8496556 C31.2461304,47.5625222 31.6879896,47.1101889 31.9515317,46.551 C35.2805538,46.3982556 38.4424036,45.961 41.3472671,45.2398889 C41.3793904,45.2700444 41.4154472,45.2962667 41.4495372,45.3244556 C39.2435192,50.9242111 35.9105637,54.9119556 32.0636355,56.1568556 Z M37.8143605,55.283 C40.1823061,53.0147778 42.1982066,49.8045222 43.7047235,45.9544444 C44.8657511,45.7735111 45.7933931,44.899 46.0398902,43.7616111 C49.8258498,42.2931667 52.9680323,40.3278111 55.2074847,38.0078 C52.4986388,46.1812667 46.0071113,52.6352111 37.8143605,55.283 Z M45.4701935,41.3852222 C45.3967688,41.2941 45.3253108,41.2029778 45.2407414,41.1216889 C45.940898,38.3250889 46.3945576,35.3115 46.5571408,32.1510667 C47.2520528,31.8901556 47.8132271,31.3683333 48.1259375,30.7009778 L54.7964377,30.7009778 C55.0776804,31.2995 55.5588742,31.7806778 56.1567608,32.0632222 C54.9223085,35.8759333 50.9953998,39.1812444 45.4701935,41.3852222 Z" id="Shape"></path>
            </g>
        </g>
    </g>
</svg>