<svg width="41px" height="41px" viewBox="0 0 41 41" version="1.1" xmlns="http://www.w3.org/2000/svg" xmlns:xlink="http://www.w3.org/1999/xlink">
    <g id="Final" stroke="none" stroke-width="1" fill="none" fill-rule="evenodd">
        <g id="go.dev" transform="translate(-1183.000000, -1062.000000)" fill="#FFFFFF" fill-rule="nonzero">
            <g id="Group-8" transform="translate(105.000000, 987.000000)">
                <g id="Group-4" transform="translate(964.000000, 65.000000)">
                    <g id="noun_operations_1361408-copy" transform="translate(114.000000, 10.000000)">
                        <path d="M20.5,15 C17.4797688,15 15,17.4479769 15,20.5 C15,23.5202312 17.4797688,26 20.5,26 C23.5202312,26 26,23.5520231 26,20.5 C26,17.4797688 23.5202312,15 20.5,15 Z M20.5,24.7283237 C18.1791908,24.7283237 16.2716763,22.8208092 16.2716763,20.5 C16.2716763,18.1791908 18.1791908,16.2716763 20.5,16.2716763 C22.8208092,16.2716763 24.7283237,18.1791908 24.7283237,20.5 C24.7283237,22.8208092 22.8208092,24.7283237 20.5,24.7283237 Z" id="Shape"></path>
                        <path d="M34.9224349,25.9736385 C34.7569626,25.2538167 34.3267347,24.6648715 33.7310346,24.3376798 L32.2417841,23.4869813 C32.374162,22.7344403 32.4403509,21.9818993 32.4403509,21.2620775 C32.4403509,20.1823447 32.3410675,19.2334887 32.0763119,18.2846327 L33.5655623,17.401215 C34.8893404,16.648674 35.3195683,15.2417495 34.6245848,14.0311401 L33.40009,11.937113 C32.9036732,11.1191336 31.9770285,10.5629077 31.0172894,10.5629077 C30.5870615,10.5629077 30.1568336,10.6610652 29.7597001,10.8900994 L28.071883,11.8716746 C26.7811993,10.7592227 25.2919489,9.9412434 23.6372263,9.45045579 L23.6372263,7.5854629 C23.6372263,6.08038091 22.6112982,5.00064818 21.2213312,5.00064818 L18.7723416,5.00064818 C17.2830912,4.967929 16.025502,6.17853843 16.025502,7.5854629 L16.025502,9.54861331 C14.4369682,10.0721201 12.9477178,10.9228186 11.6570341,12.1007089 L10.0685004,11.184572 C9.60517802,10.9228186 9.10876122,10.7919419 8.61234442,10.7919419 C7.75188863,10.7919419 7.02381066,11.2172912 6.59358276,11.9698322 L5.36908799,14.0638593 C5.03814345,14.6528044 4.90576564,15.3726262 5.0712379,16.0597289 C5.23671017,16.7795507 5.66693807,17.3684958 6.29573268,17.7284067 L7.85117199,18.5791052 C7.65260527,19.4625229 7.55332191,20.3459406 7.55332191,21.2620775 C7.55332191,22.112776 7.65260527,22.9961937 7.81807754,23.814173 L6.42811049,24.5994332 C5.10433236,25.3519742 4.67410446,26.7588987 5.36908799,27.9695081 L6.59358276,30.0635352 C7.08999956,30.8815145 8.01664426,31.4377405 8.97638341,31.4377405 C9.4066113,31.4377405 9.83683919,31.339583 10.2339726,31.1105487 L11.5908452,30.3252886 C12.9477178,31.5686172 14.6024405,32.484754 16.3564465,33.0082608 L16.3564465,34.4151853 C16.3564465,35.9202673 17.3823746,37 18.7723416,37 L21.2213312,37 C22.7105816,37 23.9681708,35.8221097 23.9681708,34.3824661 L23.9350763,32.8773841 C25.6890824,32.288439 27.3107106,31.339583 28.6344887,30.0635352 L29.9251724,30.8160762 C30.3884948,31.0778296 30.8849116,31.2087063 31.3813284,31.2087063 C32.2417841,31.2087063 32.9698621,30.783357 33.40009,30.030816 L34.6245848,27.9367889 C34.9886238,27.3805629 35.0879071,26.628022 34.9224349,25.9736385 Z M33.4993734,27.3151246 L32.2748786,29.4091517 C32.0432174,29.834501 31.646084,29.9326585 31.3813284,29.9326585 C31.1165727,29.9326585 30.8518171,29.8672201 30.5870615,29.7036243 L28.4028276,28.4602957 L28.0387886,28.8202066 C26.681916,30.2271311 24.9610044,31.2741446 23.0746206,31.7976514 L22.5782038,31.9285281 L22.6443927,34.4151853 C22.6443927,35.1022879 21.9825036,35.6912331 21.2213312,35.6912331 L18.7723416,35.6912331 C17.9780747,35.6912331 17.6802247,35.0041304 17.6802247,34.4151853 L17.6802247,32.0266856 L17.1838079,31.8958089 C15.297424,31.4050213 13.543418,30.4234461 12.1534509,29.0492408 L11.7894119,28.6893299 L9.57208357,29.9653777 C9.4066113,30.0635352 9.20804458,30.1289735 8.97638341,30.1289735 C8.47996661,30.1289735 7.9835498,29.834501 7.71879418,29.4091517 L6.4942994,27.3151246 C6.09716596,26.628022 6.56048831,26.0390768 7.08999956,25.7446043 L9.34042239,24.4685565 L9.20804458,23.9777689 C8.97638341,23.0943512 8.87710005,22.1782143 8.87710005,21.2620775 C8.87710005,20.3132214 9.00947786,19.3643654 9.24113903,18.4155094 L9.37351685,17.9247218 L6.9245273,16.5832356 C6.62667721,16.4196398 6.42811049,16.1251672 6.36192159,15.7652563 C6.26263823,15.4053454 6.32882713,15.0127153 6.52739385,14.7182427 L7.75188863,12.6242156 C7.9835498,12.1988664 8.38068325,12.1007089 8.64543887,12.1007089 C8.9101945,12.1007089 9.17495013,12.1661472 9.43970575,12.3297431 L11.8886953,13.7366675 L12.2527343,13.3767566 C13.6427013,12.0352705 15.1650462,11.1518528 16.9190522,10.6610652 L17.3492801,10.5301885 L17.3492801,7.5854629 C17.3492801,6.89836025 18.0111692,6.30941512 18.7723416,6.30941512 L21.2213312,6.30941512 C22.015598,6.30941512 22.3134481,6.99651777 22.3134481,7.61818207 L22.3465426,10.4974694 L22.8429594,10.628346 C24.6300599,11.0864145 26.2516881,11.9698322 27.5754662,13.1804416 L27.9395052,13.5076333 L30.4546837,12.0352705 C30.6201559,11.937113 30.8187227,11.8716746 31.0503838,11.8716746 C31.5468006,11.8716746 32.0432174,12.1661472 32.3079731,12.5914965 L33.5324678,14.6855236 C33.9296013,15.3726262 33.4662789,15.9615713 32.9367677,16.2560439 L30.553967,17.6302492 L30.7194393,18.1210368 C31.0172894,19.102612 31.1496672,20.0841872 31.1496672,21.2293583 C31.1496672,22.0473376 31.0503838,22.865317 30.8849116,23.6505772 L30.7856282,24.1086456 L33.1022399,25.4174125 C33.40009,25.5810084 33.5986567,25.875481 33.6648456,26.2353919 C33.7310346,26.628022 33.6648456,26.9879329 33.4993734,27.3151246 Z" id="Shape"></path>
                        <path d="M8.65948859,4.6706979 C8.78861222,4.6706979 8.91773584,4.6397839 9.04685947,4.54704189 C14.9219844,0.528221598 23.0244919,0.126339569 29.3838304,3.43413781 L27.3178524,4.26881587 L34,6 L30.4813812,0.28090958 L30.1908531,2.47580374 C23.3473009,-1.17204853 14.6314563,-0.770166497 8.27211772,3.55779382 C7.98158956,3.74327783 7.91702775,4.14515986 8.11071319,4.42338588 C8.23983681,4.5779559 8.46580316,4.6706979 8.65948859,4.6706979 Z" id="Path"></path>
                        <path d="M3.44729022,10.6186335 L4.27768979,12.6857143 L6,6 L0.279469659,9.52049689 L2.46311296,9.81118012 C-1.1660407,16.6583851 -0.766218683,25.378882 3.53955684,31.7416149 C3.662579,31.9031056 3.84711224,32 4.03164547,32 C4.15466763,32 4.27768979,31.9677019 4.40071195,31.8708075 C4.6775118,31.6770186 4.73902288,31.2571429 4.55448965,30.9664596 C0.556269514,25.0881988 0.125691962,17.0136646 3.44729022,10.6186335 Z" id="Path"></path>
                        <path d="M30.9854214,36.4536082 C25.1102965,40.4742268 17.007789,40.8762887 10.6161696,37.5670103 L12.6821476,36.7319588 L6,35 L9.51861878,40.7216495 L9.80914694,38.5257732 C12.9081139,40.1958763 16.3944518,41 19.8807897,41 C24.0773075,41 28.2415444,39.7938144 31.7278823,37.443299 C32.0184104,37.257732 32.0829722,36.8556701 31.8892868,36.5773196 C31.6633205,36.3298969 31.2759496,36.2680412 30.9854214,36.4536082 Z" id="Path"></path>
                        <path d="M37.4624966,8.27245599 C37.2778094,7.98156668 36.8776537,7.91692461 36.6006228,8.11085082 C36.3235919,8.30477703 36.2620295,8.72495049 36.4467168,9.0158398 C40.4482738,14.8982682 40.8484295,23.010848 37.5548403,29.378092 L36.7237477,27.3095457 L35,34 L40.6945235,30.4770072 L38.5090577,30.1861178 C42.1720215,23.3663794 41.7718658,14.6396999 37.4624966,8.27245599 Z" id="Path"></path>
                    </g>
                </g>
            </g>
        </g>
    </g>
</svg>