<svg width="61px" height="61px" viewBox="0 0 61 61" version="1.1" xmlns="http://www.w3.org/2000/svg" xmlns:xlink="http://www.w3.org/1999/xlink">
    <g id="Final" stroke="none" stroke-width="1" fill="none" fill-rule="evenodd">
        <g id="solutions" transform="translate(-842.000000, -643.000000)" fill="#FFFFFF" fill-rule="nonzero">
            <g id="noun_operations_1361408-copy" transform="translate(842.000000, 643.000000)">
                <path d="M30.5,22 C25.8323699,22 22,25.783237 22,30.5 C22,35.1676301 25.8323699,39 30.5,39 C35.1676301,39 39,35.216763 39,30.5 C39,25.8323699 35.1676301,22 30.5,22 Z M30.5,37.0346821 C26.9132948,37.0346821 23.9653179,34.0867052 23.9653179,30.5 C23.9653179,26.9132948 26.9132948,23.9653179 30.5,23.9653179 C34.0867052,23.9653179 37.0346821,26.9132948 37.0346821,30.5 C37.0346821,34.0867052 34.0867052,37.0346821 30.5,37.0346821 Z" id="Shape"></path>
                <path d="M51.8862378,37.8050315 C51.6435452,36.7477932 51.0125442,35.8827801 50.1388507,35.4022172 L47.9546168,34.1527538 C48.1487709,33.0474592 48.2458479,31.9421646 48.2458479,30.8849263 C48.2458479,29.2990688 48.1002323,27.9054365 47.7119241,26.5118042 L49.896158,25.2142845 C51.8376993,24.1089899 52.4687002,22.0425696 51.449391,20.264487 L49.6534654,17.1888847 C48.9253874,15.9874775 47.5663085,15.1705207 46.1586911,15.1705207 C45.5276902,15.1705207 44.8966893,15.3146895 44.3142269,15.6510835 L41.8387618,17.0927721 C39.945759,15.4588584 37.7615251,14.2574512 35.3345985,13.5366069 L35.3345985,10.7973986 C35.3345985,8.58680946 33.829904,7.00095201 31.7912857,7.00095201 L28.1994344,7.00095201 C26.0152004,6.95289573 24.1707362,8.73097832 24.1707362,10.7973986 L24.1707362,13.6807758 C21.8408867,14.4496764 19.6566528,15.6991398 17.7636501,17.4291661 L15.4338005,16.0835901 C14.7542611,15.6991398 14.0261831,15.5069147 13.2981051,15.5069147 C12.0361033,15.5069147 10.9682556,16.1316464 10.3372547,17.236941 L8.54132905,20.3125433 C8.05594373,21.1775565 7.8617896,22.2347948 8.10448226,23.2439768 C8.34717492,24.3012151 8.97817583,25.1662282 9.90040793,25.6948474 L12.1817189,26.9443108 C11.8904877,28.2418306 11.7448721,29.5393503 11.7448721,30.8849263 C11.7448721,32.1343897 11.8904877,33.4319095 12.1331804,34.6333166 L10.0945621,35.7866675 C8.15302079,36.8919621 7.52201988,38.9583824 8.54132905,40.736465 L10.3372547,43.8120673 C11.0653327,45.0134745 12.4244116,45.8304313 13.832029,45.8304313 C14.4630299,45.8304313 15.0940308,45.6862625 15.6764932,45.3498685 L17.666573,44.1965176 C19.6566528,46.0226565 22.0835794,47.3682325 24.6561216,48.1371331 L24.6561216,50.2035534 C24.6561216,52.4141426 26.160816,54 28.1994344,54 L31.7912857,54 C33.9755196,54 35.8199838,52.2699737 35.8199838,50.1554971 L35.7714453,47.9449079 C38.3439875,47.0798948 40.7223755,45.6862625 42.6639168,43.8120673 L44.5569195,44.9173619 C45.236459,45.3018122 45.964537,45.4940373 46.6926149,45.4940373 C47.9546168,45.4940373 49.0224644,44.8693056 49.6534654,43.764011 L51.449391,40.6884087 C51.9833149,39.8714518 52.1289305,38.7661572 51.8862378,37.8050315 Z M49.799081,39.7753393 L48.0031553,42.8509416 C47.6633856,43.4756733 47.0809232,43.6198422 46.6926149,43.6198422 C46.3043067,43.6198422 45.9159984,43.5237296 45.5276902,43.2834482 L42.3241471,41.4573093 L41.7902232,41.9859284 C39.8001434,44.0523487 37.2761398,45.5901499 34.5094435,46.3590505 L33.7813655,46.5512756 L33.8784426,50.2035534 C33.8784426,51.2127354 32.9076719,52.0777485 31.7912857,52.0777485 L28.1994344,52.0777485 C27.0345096,52.0777485 26.5976628,51.0685665 26.5976628,50.2035534 L26.5976628,46.6954445 L25.8695848,46.5032193 C23.1028885,45.782375 20.5303464,44.3406865 18.491728,42.3223224 L17.9578042,41.7937033 L14.7057226,43.6678984 C14.4630299,43.8120673 14.1717987,43.9081799 13.832029,43.9081799 C13.103951,43.9081799 12.375873,43.4756733 11.9875648,42.8509416 L10.1916391,39.7753393 C9.60917674,38.7661572 10.2887162,37.9011441 11.0653327,37.4686375 L14.3659528,35.5944424 L14.1717987,34.8735981 C13.832029,33.5760783 13.6864134,32.2305023 13.6864134,30.8849263 C13.6864134,29.491294 13.8805675,28.0976617 14.2203372,26.7040294 L14.4144914,25.9831851 L10.82264,24.0128774 C10.3857932,23.7725959 10.0945621,23.3400893 9.997485,22.8114702 C9.8518694,22.2828511 9.94894646,21.7061756 10.2401777,21.273669 L12.0361033,18.1980667 C12.375873,17.573335 12.9583354,17.4291661 13.3466437,17.4291661 C13.7349519,17.4291661 14.1232602,17.5252787 14.5115684,17.7655601 L18.1034198,19.8319805 L18.6373436,19.3033613 C20.675962,17.3330536 22.9087344,16.0355338 25.4812766,15.3146895 L26.1122775,15.1224644 L26.1122775,10.7973986 C26.1122775,9.78821662 27.0830481,8.92320346 28.1994344,8.92320346 L31.7912857,8.92320346 C32.9562105,8.92320346 33.3930573,9.93238548 33.3930573,10.8454549 L33.4415958,15.0744081 L34.1696738,15.2666333 C36.7907545,15.9394213 39.1691425,17.236941 41.1106838,19.0150236 L41.6446076,19.4955864 L45.333536,17.3330536 C45.5762287,17.1888847 45.8674599,17.0927721 46.2072296,17.0927721 C46.9353076,17.0927721 47.6633856,17.5252787 48.0516938,18.1500104 L49.8476195,21.2256128 C50.4300819,22.2347948 49.7505424,23.0998079 48.9739259,23.5323145 L45.4791516,25.5506785 L45.7218443,26.2715228 C46.1586911,27.7132114 46.3528452,29.1549 46.3528452,30.83687 C46.3528452,32.0382772 46.2072296,33.2396843 45.964537,34.3930352 L45.8189214,35.0658232 L49.2166186,36.9880747 C49.6534654,37.2283561 49.9446966,37.6608627 50.0417736,38.1894818 C50.1388507,38.7661572 50.0417736,39.2947764 49.799081,39.7753393 Z" id="Shape"></path>
                <path d="M12.9892329,7.00604685 C13.1829183,7.00604685 13.3766038,6.95967585 13.5702892,6.82056284 C22.3829766,0.792332397 34.5367378,0.189509353 44.0757456,5.15120672 L40.9767786,6.40322381 L51,9 L45.7220718,0.42136437 L45.2862796,3.71370561 C35.0209514,-1.75807279 21.9471844,-1.15524975 12.4081766,5.33669073 C11.9723843,5.61491675 11.8755416,6.2177398 12.1660698,6.63507883 C12.3597552,6.86693384 12.6987047,7.00604685 12.9892329,7.00604685 Z" id="Path"></path>
                <path d="M5.17093534,15.9279503 L6.41653468,19.0285714 L9,9 L0.419204489,14.2807453 L3.69466944,14.7167702 C-1.74906104,24.9875776 -1.14932802,38.068323 5.30933526,47.6124224 C5.4938685,47.8546584 5.77066836,48 6.04746821,48 C6.23200145,48 6.41653468,47.9515528 6.60106792,47.8062112 C7.0162677,47.515528 7.10853432,46.8857143 6.83173447,46.4496894 C0.834404272,37.6322981 0.188537943,25.5204969 5.17093534,15.9279503 Z" id="Path"></path>
                <path d="M46.4781322,54.1804124 C37.6654447,60.2113402 25.5116835,60.814433 15.9242544,55.8505155 L19.0232214,54.5979381 L9,52 L14.2779282,60.5824742 L14.7137204,57.2886598 C19.3621709,59.7938144 24.5916777,61 29.8211845,61 C36.1159612,61 42.3623166,59.1907216 47.5918234,55.6649485 C48.0276157,55.3865979 48.1244584,54.7835052 47.8339302,54.3659794 C47.4949807,53.9948454 46.9139244,53.9020619 46.4781322,54.1804124 Z" id="Path"></path>
                <path d="M55.693745,12.408684 C55.4167141,11.97235 54.8164805,11.8753869 54.4009342,12.1662762 C53.9853879,12.4571655 53.8930443,13.0874257 54.1700752,13.5237597 C60.1724107,22.3474023 60.7726443,34.5162721 55.8322604,44.067138 L54.5856215,40.9643186 L52,51 L60.5417852,45.7155107 L57.2635866,45.2791768 C62.7580322,35.0495691 62.1577987,21.9595499 55.693745,12.408684 Z" id="Path"></path>
            </g>
        </g>
    </g>
</svg>