<svg width="75px" height="50px" viewBox="0 0 75 50" version="1.1" xmlns="http://www.w3.org/2000/svg" xmlns:xlink="http://www.w3.org/1999/xlink">
    <g id="Final" stroke="none" stroke-width="1" fill="none" fill-rule="evenodd">
        <g id="solutions" transform="translate(-248.000000, -457.000000)" fill="#FFFFFF" fill-rule="nonzero">
            <g id="Group-Copy" transform="translate(248.000000, 457.000000)">
                <polygon id="Path" points="17 24.484525 31 18 31 20.5366715 19.8950953 25.4706244 19.8950953 25.5270717 31 30.4898241 31 33 17 26.515475"></polygon>
                <polygon id="Path" points="33 33 39.6555652 13 42 13 35.3455491 33"></polygon>
                <polygon id="Path" points="58 26.5719223 44 33 44 30.4898241 55.28351 25.5270717 55.28351 25.4717764 44 20.5090239 44 18 58 24.4280777"></polygon>
                <polygon id="Path" points="71.2505274 50 3.75064464 50 0 47 75 47"></polygon>
                <path d="M70.9988294,46 L68.6576152,46 L68.6576152,3.03599533 C68.6576152,2.65649591 68.3368688,2.33538102 67.9552509,2.33538102 L8.04357851,2.33538102 C7.6631312,2.33538102 7.34121424,2.65532822 7.34121424,3.03599533 L7.34121424,46 L5,46 L5,3.03599533 C5,1.36152714 6.3649279,0 8.04357851,0 L67.9564215,0 C69.6350721,0 71,1.36152714 71,3.03599533 L71,46 L70.9988294,46 Z" id="Path"></path>
                <path d="M30.8314219,45 L0,45 L0,47 L33,47 C31.8951418,47 31.0112552,46.1226667 30.8314219,45 Z" id="Path"></path>
                <path d="M44.1674028,45 C43.9875695,46.1226667 43.1048582,47 42,47 L75,47 L75,45 L44.1674028,45 Z" id="Path"></path>
            </g>
        </g>
    </g>
</svg>