<svg width="183" height="572" viewBox="0 0 183 572" fill="none" xmlns="http://www.w3.org/2000/svg">
<g clip-path="url(#clip0_951_2)">
<mask id="mask0_951_2" style="mask-type:alpha" maskUnits="userSpaceOnUse" x="0" y="0" width="10" height="572">
<path fill-rule="evenodd" clip-rule="evenodd" d="M0 0.199219H9.7V571.999H0V0.199219Z" fill="white"/>
</mask>
<g mask="url(#mask0_951_2)">
</g>
<mask id="mask1_951_2" style="mask-type:alpha" maskUnits="userSpaceOnUse" x="0" y="0" width="10" height="572">
<path fill-rule="evenodd" clip-rule="evenodd" d="M0.398438 0.199219H9.69844V571.999H0.398438V0.199219Z" fill="white"/>
</mask>
<g mask="url(#mask1_951_2)">
</g>
<mask id="mask2_951_2" style="mask-type:alpha" maskUnits="userSpaceOnUse" x="0" y="0" width="116" height="572">
<path fill-rule="evenodd" clip-rule="evenodd" d="M0 572H116V0H0V572Z" fill="white"/>
</mask>
<g mask="url(#mask2_951_2)">
</g>
<g opacity="0.6">
<path d="M9.7 571.999H0V0.699219H7.5L9.2 3.09922V571.999H9.7Z" fill="white"/>
<path d="M115.801 571.999H106.301V2.59922L108.001 0.199219H115.301V571.999H115.801Z" fill="white"/>
<path d="M0 373H115V364H0V373ZM0 291H115V282H0V291ZM0 127H115V118H0V127ZM0 209H115V200H0V209ZM0 46H115V37H0V46ZM0 454H115V445H0V454ZM0 536H115V527H0V536Z" fill="white"/>
</g>
<path d="M29.0985 92.8984C25.2985 110.298 25.4985 127.898 27.0985 145.498C27.5985 152.098 30.4985 157.998 33.4985 163.698C34.8985 166.198 35.5985 168.098 34.1985 170.698C32.7985 173.198 31.8985 176.098 34.4985 178.398C36.9985 180.798 39.7985 180.098 42.6985 178.798C45.3985 177.598 48.9 175.3 52 178C54.7 177.6 53.6985 175.498 53.9985 173.698C53.9985 172.598 53.7985 171.598 52.7985 170.898C49.5985 169.998 47.2985 172.398 44.5985 173.298C42.8985 173.798 40.5985 175.398 39.5985 173.698C38.2985 171.698 40.8985 170.298 42.1985 168.998C44.1985 166.998 47.0985 166.298 48.6985 163.998C49.4985 161.898 48.4985 159.998 46.6985 160.398C38.4985 162.198 37.1985 155.498 34.3985 150.598C29.9985 141.198 30.5985 130.998 30.9985 120.998C31.2985 113.298 31.9985 105.498 33.6985 97.8984C34.2985 94.7984 34.6985 91.6984 34.4985 88.4984C34.6985 82.7984 37.6985 77.9984 39.0985 72.5984C39.6985 70.3984 41.0985 68.1984 39.2985 65.8984C37.0985 66.8984 37.2985 69.0984 36.4985 70.5984C35.7985 71.9984 36.0985 74.3984 33.8985 74.1984C31.8985 73.9984 31.2985 71.4984 30.9985 69.7984L30.7985 69.2984C30.3985 67.5984 26.4985 66.0984 27.0985 70.6984C26.8985 75.0984 31.0985 78.6984 29.3985 83.2984C28.1985 84.4984 27.8985 85.8984 28.8985 87.2984C29.8985 89.0984 29.5985 90.8984 29.1985 92.7984L29.0985 92.8984Z" fill="#15293D"/>
<path d="M80.5992 21.9985L73.2992 22.7985C68.3992 21.9985 66.2992 26.5985 62.5992 28.1985C58.8992 31.0985 55.5992 34.4985 51.0992 36.2985C47.2992 39.1985 42.8992 41.5985 42.3992 47.7985C38.5992 44.2985 37.5992 40.2985 36.3992 36.4985C35.3992 33.5985 37.8992 33.1985 39.6992 32.2985C42.7992 30.8985 45.4992 29.1985 43.0992 25.0985C42.5992 24.0985 39.2992 25.3985 40.8992 22.1985C42.2992 19.4985 40.2992 18.8985 37.8992 18.9985C31.5992 19.4985 30.7992 21.1985 30.9992 27.2985C31.2992 34.6985 31.9992 41.5985 36.2992 47.8985C37.7992 49.9985 39.0992 52.1985 41.2992 53.6985C42.9992 57.0985 46.2992 59.5985 46.2992 63.7985C49.4992 63.6985 49.1992 60.4985 50.9992 59.3985C51.6992 59.3985 52.1992 59.6985 52.4992 60.2985C52.5992 63.1985 53.4992 65.0985 56.7992 63.2985L59.0992 63.4985C62.7992 63.7985 62.5992 62.0985 60.9992 59.5985C58.2992 56.1985 55.7992 52.3985 51.4992 50.5985C49.6992 49.7985 48.4992 47.9985 49.4992 45.9985C50.8992 43.6985 52.4992 45.3985 53.6992 46.3985C56.9992 48.9985 61.2992 48.9985 64.9992 50.6985C66.1992 50.6985 66.9992 50.0985 67.4992 49.0985C67.5992 44.9985 67.4992 40.8985 65.1992 37.2985C63.2992 34.5985 64.3992 32.8985 66.6992 31.2985C69.6992 29.3985 72.6992 27.8985 76.2992 27.0985C78.5992 26.5985 81.0992 26.2985 81.9992 23.4985C81.9992 22.5985 81.6992 21.8985 80.5992 22.0985V21.9985ZM130.999 152.899C132.499 141.299 132.999 129.399 141.999 120.299C146.879 114.995 151.048 109.079 154.399 102.699C156.97 98.2652 158.622 93.3598 159.258 88.2746C159.894 83.1894 159.5 78.0283 158.099 73.0985C157.499 70.9985 156.199 68.6985 159.599 67.0985C163.599 65.1985 166.099 61.8985 164.499 57.0985C162.899 52.4985 160.199 49.8985 154.999 50.0985C153.199 50.4985 147.899 49.2985 145.999 50.0985C145.599 50.3985 151.299 52.2985 151.999 52.7985C153.299 53.7985 154.999 54.0985 156.399 54.7985C158.599 56.0985 160.499 57.7985 159.599 60.4985C158.799 62.9985 156.599 63.4985 154.199 62.8985H153.899C151.099 63.0985 146.799 60.6985 147.699 66.8985C147.999 67.4985 148.399 68.3985 148.999 68.4985C155.399 69.6985 155.699 74.6985 156.199 79.7985C157.128 88.504 154.853 97.2495 149.799 104.399C146.217 109.49 142.379 114.396 138.299 119.099C130.099 129.699 128.199 148.599 127.199 161.099C127.099 162.499 129.199 161.199 130.199 158.799L131.099 152.799L130.999 152.899Z" fill="#132433"/>
<path d="M154.9 50.5992C146.8 51.3992 143.1 44.0992 137.2 40.6992C134 38.8992 131.2 36.2992 128.2 34.2992C126.2 33.0992 125.9 31.8992 126.6 29.6992C128.2 24.4992 124.7 20.1992 119.8 22.3992C112.8 25.5992 106.8 22.8992 100.4 21.7992C93.8 20.6992 87.4 20.7992 81 22.0992L81.8 23.7992C83.7 25.7992 86 25.0992 88.1 24.7992C96.7 23.9992 104.4 25.5992 111.8 30.4992C119.6 35.6992 128.7 38.8992 135.8 45.1992C138.6 47.5992 141.5 49.4992 142.2 53.3992C142.6 55.3992 143.9 56.1992 145.8 55.9992C148.4 55.0992 151.4 54.9992 153.3 52.6992C150.5 49.4992 155.8 52.2992 154.9 50.5992V50.5992ZM130.9 151.999C128.1 152.599 128.7 155.399 127.5 157.099H128.8C127.6 161.099 126.4 165.099 124.4 168.799C115.7 180.299 105.3 188.199 89.9 186.799C89 186.599 84.8 186.999 83.9 187.499C81.1 192.199 86 192.099 87.5 192.999C89 192.999 90.9 193.199 92 192.999C95.5 192.099 102.1 198.299 104.5 194.999C108.5 193.999 108.8 189.799 111.1 187.999C115.6 184.699 119.9 180.399 122.8 175.399C124.3 169.599 128.3 170.399 132.5 171.699C135.8 172.399 137.5 170.099 138.2 167.699C138.9 165.499 137.2 162.399 135.7 161.999C129 160.599 129.3 156.299 130.3 151.399" fill="#132433"/>
<path d="M53.1989 62.2992C52.7989 60.9992 54.0989 59.6992 52.9989 58.4992C51.7989 58.4992 51.3989 59.8992 50.3989 60.4992C50.1989 58.9992 50.8989 57.4992 49.9989 56.2992C47.3989 57.2992 47.9989 60.0992 46.1989 62.4992C48.1989 56.3992 43.0989 54.4992 40.0989 52.6992C41.3989 54.9992 41.8989 57.4992 40.0989 59.6992C37.6989 62.4992 36.3989 65.9992 34.7989 69.2992C34.2989 70.3992 34.3989 72.2992 32.8989 72.4992C30.8989 72.6992 31.4989 70.1992 30.2989 69.4992C29.4989 72.0992 30.1989 74.7992 32.6989 75.2992C34.8989 75.5992 35.2989 73.4992 36.1989 71.7992C36.9989 70.3992 31.6989 80.1992 31.8989 87.9992C34.3989 86.7992 34.8989 84.2992 35.6989 81.9992C37.8989 75.1992 42.2989 67.2992 45.4989 60.3992C44.6989 65.6992 44.8989 68.6992 51.4989 69.3992L53.9989 68.1992C56.4989 66.4992 56.3989 64.1992 55.7989 60.8992C54.3989 60.3992 54.2989 62.1992 53.1989 62.2992V62.2992Z" fill="#15293D"/>
<path d="M73.3008 22.7999C71.7008 22.2999 69.3008 21.4999 68.1008 20.5999C58.2008 12.9999 47.5008 11.4999 36.7008 18.9999C37.7008 19.7999 40.7008 18.9999 39.2008 21.2999C38.3008 22.5999 35.7008 22.9999 37.0008 25.1999C38.4008 27.4999 40.3008 24.1999 42.0008 25.0999C42.5008 24.7999 42.6008 24.8999 42.7008 24.3999C41.3008 21.4999 44.4008 19.5999 47.0008 19.1999C52.0523 18.5555 57.1831 19.3529 61.8008 21.4999C66.4008 23.4999 61.0008 26.4999 62.5008 28.7999C67.0008 28.1999 69.0008 23.3999 73.3008 22.7999Z" fill="#132433"/>
<path d="M88 193C87.7 191.5 83.6 193.2 85.4 189.9C85 188.4 83.8 187.9 82.6 187.5C76.6 186.4 70.9 184.3 65.5 181.5C60.7 179.4 57.5 174.8 52.5 173C51.7 174.3 52.5 176.2 51 177.3C61.1705 186.618 74.2322 192.16 88 193" fill="#15293D"/>
<path d="M170.898 85.3C172.098 86.4 173.198 87.8 174.498 88.7C177.098 90.2 179.998 90.8 182.098 88.1C184.098 85.5 182.498 83.1 180.798 80.8C177.998 76.8 173.498 76.8 169.798 75C168.598 75.4 166.798 74.3 166.498 76.2C166.098 77.9 167.398 78.5 168.698 78.9C171.598 79.9 174.698 80.4 176.898 83.9C176.598 89.2 171.898 80.2 169.298 79.6C167.898 79.3 166.898 74.7 166.298 76.6C165.798 78.1 165.698 78.4 167.598 81C168.298 82 170.198 84 170.898 85.3" fill="#333333"/>
<path d="M101.3 192.901C98.2003 195.501 95.1003 190.601 92.0003 192.901C95.2003 193.301 97.4003 195.001 99.2003 198.101C100.8 201.101 103.4 204.101 107.1 202.601C110.6 201.101 110.3 197.201 109.5 193.901C108.9 191.401 110.1 189.901 111 188.001C108.4 189.201 107 192.801 103.6 192.401C103.8 193.501 104.8 194.401 104.6 195.801C102.9 195.601 102.1 194.301 101.3 192.801V192.901ZM28.4003 86.0007L31.0003 83.8007C31.4003 81.2007 27.5003 78.4007 27.0003 76.2007C26.4003 74.1007 25.7003 72.4007 27.5003 70.5007C26.5003 68.0007 27.9003 67.6007 30.0003 68.4007C26.5003 65.2007 24.0003 65.4007 22.1003 69.5007C19.1003 76.5007 23.4003 83.0007 28.8003 87.5007L28.4003 86.0007Z" fill="#15293D"/>
<path d="M132.501 171.498C125.501 168.198 122.901 172.498 122.801 175.498C125.101 170.998 128.901 170.698 133.001 171.498H132.501Z" fill="#132433"/>
<path d="M45.6998 60C39.0998 68.4 36.6998 78.4 32.9998 87.8C31.7998 97.6 30.3998 107.5 29.4998 117.4C28.6998 126.3 28.4998 135.2 30.7998 143.9C31.3998 146.2 31.4998 148.7 33.5998 150.3L33.9998 150L34.1998 149.5C37.4093 154.347 42.4065 157.726 48.0998 158.9C51.6998 159.9 54.0998 162.7 54.9998 167.3C56.5998 176 61.0244 180.134 70 183.5C74 185 78.2 185.9 82 187C97.4 192 109.8 184.4 119.5 173C124.5 167.3 124.1 159.9 125.1 153.3C126.6 143.8 128.4 134.3 130.4 125C131 122.4 133.2 120.7 134.8 118.6C138 114.2 137.7 109.7 133.9 106.8C129.6 103.4 125.3 103.8 121.7 107.9C117.7 112.291 114.728 117.517 113 123.2C111.9 127.3 108 130.9 108.2 135.8C108.3 138.8 108.6 141.6 108.3 144.6C108.1 148.3 106.8 149 102.9 148.2C96.4998 146.9 93.1998 141.9 88.8998 137.8C88.3599 137.281 88.0007 136.603 87.8747 135.865C87.7487 135.127 87.8626 134.368 88.1998 133.7C90.5998 128.6 89.8998 123.1 90.1998 117.7C90.4998 114.1 91.5998 111 94.8998 108.8C97.8998 106.8 98.8998 103.5 99.3998 100.2C99.9998 96.5 98.0998 94.1 94.6998 93C92.3998 92.4 90.2998 93 90.4998 95.8C90.6998 100.1 89.1998 102.3 84.6998 101.6C81.3998 101 77.7998 96 79.2998 93.1C83.4998 84.5 74.5998 80.4 73.2998 73.8C73.0998 73.2 73.4998 73.5 72.8998 73.5C67.0998 73.5 63.5998 67.9 58.0998 67.3C56.0998 66.7 54.5998 68.5 52.5998 68.5C48.3998 67.5 43.9998 66.5 45.6998 60Z" fill="#79D4FD"/>
<path d="M63.4 73.6983C63.9 74.6983 65.1 75.3983 66.3 74.8983C71.7 72.8983 72.3 76.8983 73.5 80.3983C74 81.9983 74.3 84.1983 75.4 84.8983C79.6 87.5983 78.4 89.4983 76.2 93.2983C74.3 96.4983 77.5 100.798 80.6 102.998C83.6 105.198 87.4 104.998 90.5 102.298C91.5 101.398 91.6 100.098 91.4 98.6983C91.2 97.2983 90 94.85 92.2 94.6983C95.1 94.4983 97.4 96.6983 97.4 99.4983C97.4 102.398 96.7 106.398 94.2 107.498C87.5 110.698 87.4 116.498 87.6 122.098C87.8081 126.549 87.0225 130.99 85.3 135.098C84.4 137.198 84.8 138.398 86.9 140.098C91.7 144.098 95.5 149.398 102.3 151.098C106.6 152.098 109 150.698 109.2 146.198C109.2 141.798 108.5 137.498 109.4 132.998C109.9 130.498 110 128.298 112.7 127.198C113.9 126.698 115 125.798 114.7 124.198C113.6 115.898 120.5 111.998 124.9 106.998C126.8 104.798 131 107.198 133.3 109.298C135.6 111.498 136.6 114.998 134 117.298C127 123.798 127.3 132.398 125.4 140.598C123.9 147.098 122.5 153.598 122.4 159.998C122 171.498 113.5 177.798 106.3 182.698C101 186.398 94.6 187.598 88.8 186.398C81 184.798 71.8 182.398 65.6 179.898C59.4 177.398 55.7 172.998 55 165.598C54.4 160.398 49.7 159.198 46.4 158.098C43.2714 157.142 40.3757 155.546 37.8968 153.412C35.4178 151.277 33.4097 148.65 32 145.698V151.298C32.4 155.498 35.6 158.198 37.8 161.298C39.3 163.398 41 162.498 42.7 161.898C44.6 161.098 46.7 159.898 46.6 163.698C47.5 166.498 47.9 169.598 51.2 170.798C52.2 171.598 52 172.598 51.6 173.698C54.6 177.898 58.6 180.998 63.5 182.698C69.5 185.598 75.5 187.698 81.9 189.198L84.9 190.398C101.7 193.298 113.2 185.298 122.3 172.398C126.3 165.598 127.1 164.398 127.9 159.998L128 156.398C128.6 148.398 129.3 142.098 131 135.698C132.2 130.898 133.8 125.998 137 120.898C140.9 115.898 143.6 110.398 146.2 105.498C151 95.8983 156.2 86.2983 153 74.7983C152.2 71.9983 151.2 69.6983 147.8 69.0983C145.4 68.6983 146 68.0983 148 67.2983C146.3 60.3983 151.6 63.5983 151.6 63.5983C151.2 62.2983 149.7 62.0983 149.4 60.6983C149 59.3983 149.4 57.8983 148.7 56.6983C148 55.4983 146.7 55.1983 145.6 54.6983C144.5 54.3983 142.1 55.1983 142.7 53.2983C144.5 48.2983 139.9 47.0983 137.7 45.2983C127.1 36.5983 114.5 30.8983 102.4 24.5983C97.2 21.7983 91.1 23.4983 85.4 23.5983C83.7 23.5983 82.1 23.7983 80.4 23.8983C74.7 26.3983 68.1 26.5983 63.4 31.3983C61.3 33.3983 59.2 34.4983 62.5 37.1983C65.8 39.9983 64.3 44.6983 66 48.1983C66.7 51.3983 66.9 54.7983 68.6 57.7983C70 58.1983 70.9 57.2983 71 56.2983C71.6 52.7983 74 50.8983 76.5 48.9983C86 39.3983 99.4 37.1983 108 44.9983C119 54.6983 123 65.8983 114.7 77.9983C112.466 81.428 109.194 84.0541 105.363 85.4933C101.531 86.9324 97.3394 87.1094 93.4 85.9983C88.4176 84.6807 83.8302 82.1718 80.0326 78.6878C76.235 75.2038 73.3411 70.8489 71.6 65.9983C70 63.9983 72 59.9983 68 59.2983C65.9 60.1983 65 62.2983 63.2 63.5983C61.6 66.1983 56.5 64.1983 56.2 68.5983C59.1 69.6983 62 70.5983 63.4 73.6983Z" fill="#79D4FD"/>
<path d="M46.7 163.4C42.8 165.4 39.5 166.8 37.2 170.7C36.6 171.7 35.4 172.7 36.4 174C37.2 175.2 39.1 175.6 40.3 175.1C44.3 173.6 47 172.3 51 170.7C50 166.9 48.5 164.4 46.7 163.4ZM24.9 77.5C25.3 79.9 27.9 81 30 82.8C31.9 82.2 32.9 79.2 32 78C29.7 75 28.7 74 27.3 71C22.1 71.9 24.5 75.4 24.9 77.5V77.5Z" fill="#C9B8BC"/>
<path d="M62.8985 28.7003C62.9985 27.4003 64.1985 27.1003 65.0985 26.5003C67.8985 24.5003 67.4985 22.5003 64.5985 21.2003C58.5985 18.6003 52.3985 17.1003 45.8985 18.6003C42.7985 19.3003 40.4985 20.7003 43.1985 24.2003C45.0985 27.0003 42.7985 29.7003 43.1985 32.5003C44.4985 40.1003 45.1985 40.5003 51.5985 36.3003C56.5985 35.5003 59.1985 31.3003 62.8985 28.7003" fill="#F0F4FB"/>
<path d="M64.801 49.6C64.458 48.8308 63.8692 48.1974 63.1271 47.7991C62.385 47.4009 61.5316 47.2605 60.701 47.4C57.901 47.8 56.201 46.3 54.301 44.9C52.401 43.6 50.701 39.9 48.101 43.6C46.101 46.3 46.701 50 49.801 51.1C54.501 52.8 57.101 56.3 60.301 59.4C64.701 60.9 66.701 59.7 67.001 55.3C67.001 53.1 67.001 50.9 64.801 49.6Z" fill="#C9B8BC"/>
<path d="M50.6003 37C48.3003 36.3 47.8003 38.5 45.2003 38.2C44.8003 34.4 42.9003 30.7 44.2003 26.5C44.5003 25.2 43.8003 24.5 42.6003 24H43.6003C45.1003 28.5 41.9003 29.6 38.8003 30C36.3003 30.3 34.9003 30.5 35.2003 34.2C35.7003 39.2 37.5003 43.2 40.4003 47.2C42.4003 49.7 44.7003 49.5 44.7003 47.5C44.5003 41.2 49.2003 38.8 52.4003 35.3" fill="#F0F4FB"/>
<path d="M64.5 49C66.3 57.7 66.7 59.3 61 59.6C62.5 62.6 59.6 62.3 58 61.9C59 66.2 61.9 64.5 64.5 63.5C67 63.2 67.2 61.4 68 59.5C68.5 58.2 69 58 68.7 57.3C69.3 53.8 67.8 50.3 65.7 47.5C65.2 48.5 66 49.5 64.7 49.6L64.5 49Z" fill="#282B3A"/>
<path d="M64.9984 63.7C62.9984 62.9 59.9984 64.6 58.6984 61.6L56.9984 61C55.2984 63.4 55.9984 67 52.8984 68.6C54.5984 69.6 56.0984 68.2 57.6984 68.1" fill="#67D3FD"/>
<path d="M59.4988 44.3997C60.8988 45.1997 62.4988 45.3997 62.8988 43.5997C63.4988 40.9997 61.8988 39.3997 59.5988 38.5997C57.9988 37.8997 55.5988 37.3997 55.0988 39.5997C54.2988 42.7997 57.8988 42.8997 59.4988 44.3997Z" fill="#6B6E7F"/>
<path d="M50.9014 57.0005L50.7014 57.5005C50.4014 60.1005 47.0014 63.5005 50.7014 64.9005C53.5014 65.9005 52.5014 61.0005 54.0014 59.3005C53.6014 57.7005 52.6014 56.9005 50.9014 57.0005" fill="white"/>
<path d="M142.7 59.9974C140.6 65.8974 141.7 67.7974 148.1 69.3974C149.7 69.7974 151.2 70.4974 151.3 71.9974C151.6 77.0974 154.4 81.7974 152.3 87.3974C148.8 96.3974 145.6 105.197 138.6 112.397C137.8 113.197 135 116.197 138.6 118.797C143.3 114.497 146.1 109.397 149.8 104.397C156.9 94.8974 157.3 83.5974 155.1 72.8974C154.1 67.9974 149.5 68.5974 146.8 66.3974C142.9 65.6974 147.3 60.0974 142.7 59.9974V59.9974ZM152.1 63.7974C156.1 65.7974 160.2 65.5974 161.7 61.1974C163.1 56.6974 159.6 54.4974 155.3 53.5974L153 52.9974C150.5 53.1974 148.1 53.6974 145.9 54.9974C146.2 56.3974 147.6 56.6974 148.7 57.1974C150.1 58.9974 152.5 58.3974 155.1 59.7974C152.3 60.1974 149.8 59.7974 148.3 61.4974C148.9 63.0974 150.7 63.0974 152 63.7974H152.1ZM123.5 28.4974C124.1 28.1974 124.2 27.3974 123.5 26.8974C121.5 25.3974 119.5 25.9974 117 27.0974C119.3 28.8974 121.3 29.5974 123.5 28.4974V28.4974Z" fill="#79D4FD"/>
<path d="M129.201 164.1C128.501 166.9 129.801 167.8 131.501 168.5C133.201 169.2 134.801 169.5 135.701 167.3C136.901 164.4 134.501 164.5 133.201 163.9C131.801 163.3 130.201 162.1 129.201 164.1Z" fill="#C9B8BC"/>
<path d="M101.201 192.4C101.201 193.2 100.801 194.1 101.201 194.6C101.574 195.482 102.164 196.257 102.916 196.851C103.667 197.445 104.556 197.84 105.501 198C106.501 198.1 106.801 196.8 106.901 195.9C107.301 193.3 105.701 192.5 103.701 192L101.201 192.4Z" fill="#B5A4A8"/>
<path d="M83 189L65 182C70.3382 185.769 76.5183 188.172 83 189Z" fill="#67D3FD"/>
<path d="M70.6986 66C72.3013 71.141 75.1912 75.7871 79.0941 79.4975C82.9969 83.2078 87.7832 85.8592 92.9986 87.2C108.099 91.7 124.499 76.2 120.199 60.2C115.399 42.2 98.9986 33.5 80.9986 42.7C78.8934 43.9944 77.1683 45.823 75.9986 48C72.2986 51.1 70.4986 57.1 70.6986 66Z" fill="#132433"/>
<path d="M91.8015 131.7C88.9015 133.1 90.2015 135.7 91.0015 137.3C93.0015 141.9 96.4015 145.4 101.501 146.8C105.001 147.8 107.801 145.4 106.801 141.8C105.501 137.6 103.501 133.6 101.801 129.4C97.7015 128 98.1015 130.7 98.5015 133C98.8015 135.5 101.001 137.5 100.701 140.6C96.0015 139.1 96.0015 133.3 91.8015 131.6" fill="#19364E"/>
<path d="M92 131.601C94.4 135.201 95.6 138.001 99 140.801C100.1 141.601 101.1 142.601 102.4 141.501C103.4 140.501 102.9 139.301 102.5 138.301C101.6 135.701 99.8 131.301 99.1 130.001C98.9 129.301 98.8 129.301 98.1 129.301C97.3 129.301 95.2 130.101 92 131.601Z" fill="#C9B8BC"/>
<path d="M148.3 61.6H151.5C153.9 61.4 157.7 63.5 158 59.8C158.2 57.2 154.1 56.4 151.5 56C150.5 56 149.6 56.2 148.7 56.4C147.7 58 148 59.8 148.3 61.6" fill="#132433"/>
<path d="M70.7 66C70.3017 59.5642 72.1777 53.1931 76 48C71.3 49.5 71.2 54.3 68.7 57.3L68 59.4C71.2 60.7 68.3 64.4 70.7 66Z" fill="#79D4FD"/>
<path d="M76.5006 54.6004C71.5006 68.4004 79.3006 77.3004 92.2006 83.6004C101.701 88.1004 113.601 81.4004 117.301 70.8004C120.301 62.1004 112.301 46.5004 103.101 43.2004C92.7006 39.4004 80.0006 44.9004 76.5006 54.6004" fill="#F9FAFA"/>
<path d="M84.4006 54.7973C83.6006 57.8973 83.6006 61.3973 87.8006 63.2973C91.8006 65.0973 96.2006 63.2973 97.7006 59.2973C98.9006 55.7973 96.5006 50.2973 93.2006 49.2973C90.0006 48.2973 86.0006 50.4973 84.4006 54.7973" fill="#0E0C16"/>
</g>
<defs>
<clipPath id="clip0_951_2">
<rect width="183" height="572" fill="white"/>
</clipPath>
</defs>
</svg>
