<?xml version="1.0" encoding="UTF-8" standalone="no"?><!DOCTYPE svg PUBLIC "-//W3C//DTD SVG 1.1//EN" "http://www.w3.org/Graphics/SVG/1.1/DTD/svg11.dtd"><svg width="100%" height="100%" viewBox="0 0 486 365" version="1.1" xmlns="http://www.w3.org/2000/svg" xmlns:xlink="http://www.w3.org/1999/xlink" xml:space="preserve" xmlns:serif="http://www.serif.com/" style="fill-rule:evenodd;clip-rule:evenodd;stroke-linejoin:round;stroke-miterlimit:2;"><path d="M484.729,133.358c0.201,-0.274 -1.123,1.531 0,0m-404.303,231.03c-9.975,0 -13.723,-16.675 -12.594,-23.45c2.193,-6.581 -8.526,-7.759 -11.942,-10.151c-7.308,-5.116 -17.087,-14.573 -22.854,-21.388c-5.249,-6.204 -4.402,-9.245 -13.408,-6.243c-4.245,2.124 -12.467,0.746 -16.502,-0.868c-5.899,0 -2.108,-10.269 0.489,-12.865c3.459,-3.46 10.994,-7.546 16.013,-7.546c1.738,-1.737 -1.056,-11.077 -1.205,-13.521c-0.502,-8.238 -0.126,-16.792 2.508,-24.694c0.769,-3.079 6.934,-24.123 6.948,-24.102c-3.288,-4.932 5.632,-13.299 4.343,-18.457c0,-7.261 2.215,-15.034 3.667,-21.81c2.438,-11.377 1.071,-23.163 -0.193,-34.536c-1.335,-12.019 -0.653,-20.832 1.031,-32.624c2.268,-15.873 4.684,-38.339 16.774,-50.43c1.203,-1.203 9.988,-11.259 9.988,-12.159c1.572,-1.339 3.271,-2.566 3.909,-3.909c15.234,-7.57 5.795,-16.953 2.171,-26.924c-4.483,-2.242 -1.128,-10.331 0.869,-11.725c2.439,-2.44 16.79,-2.465 18.239,0.434c3.746,3.746 9.378,8.048 13.494,11.661c7.92,6.95 13.523,4.018 23.527,2.197c6.776,-1.233 14.39,-2.096 21.285,-1.608c5.41,0.382 10.693,1.493 16.082,1.936c7.66,0.629 6.102,-0.132 7.634,-6.261c2.194,-8.776 15.065,-25.206 20.736,-7.382c1.72,5.403 -0.396,12.652 4.764,16.393c8.408,6.099 19.486,6.717 27.101,14.331c6.654,0 12.161,10.578 19.053,11.563c10.453,1.493 16.115,-0.702 24.699,8.359c3.069,3.24 4.147,4.586 8.021,6.127c2.943,1.172 6.1,2.524 7.179,5.761c2.246,6.738 -5.872,7.422 -3.8,13.788c-0.106,3.624 -0.212,6.295 -0.967,10.584c-2.152,2.568 -6.416,16.656 -6.416,21.986c-2.354,7.063 -15.407,8.27 -10.856,17.371c0,5.056 3.859,11.053 2.605,16.068c0,2.207 -1.095,19.114 1.52,17.371c6.182,-4.121 12.52,-12.304 19.759,-14.114c4.869,-1.217 -6.948,-8.41 -6.948,-11.074c-1.767,-3.579 -1.303,-9.653 -1.303,-14.765c0,-11.006 9.986,-12.364 16.448,-18.239c6.326,-5.751 15.591,-12.46 24.374,-13.478c7.383,-0.856 14.343,1.53 21.661,-1.11c11.695,-4.219 22.068,-8.444 33.056,-13.64c5.78,0 14.919,-7.432 19.784,-10.39c4.076,-2.478 11.149,-9.357 14.958,-9.586c-2.133,2.209 -4.459,4.576 -6.08,6.948c7.198,-5.356 10.695,-13.992 18.022,-19.487c7.712,-5.784 10.211,-6.94 18.891,-9.609l0,1.738c4.564,-5.616 26.49,-0.451 26.49,8.251c0,3.082 6.807,11.902 8.197,15.145c3.068,7.159 6.466,14.224 8.088,21.93c5.211,24.751 7.765,46.513 1.52,71.492c-6.364,19.092 -14.76,48.56 -39.502,47.222c-12.728,-0.688 -21.775,-6.277 -31.826,-13.187c-4.397,-3.022 -8.159,-5.954 -13.137,-8.088c-6.679,-2.862 -14.685,-3.217 -21.062,-6.405c-4.481,-2.988 -21.647,-5.896 -26.49,-3.474c-4.854,2.426 -9.118,5.21 -14.331,6.948c-2.373,1.186 -4.26,-0.489 -5.871,2.043c-1.903,2.991 -3.011,6.642 -7.157,6.642c-5.923,-1.184 -11.996,-0.988 -17.914,0.048c-7.642,1.337 -6.706,-5.373 -12.322,-5.748c-7.329,-0.488 -26.306,1.366 -30.318,9.29c-4.687,9.258 0.494,26.548 -5.889,35.06c-2.14,1.07 -4.777,11.673 -4.777,14.331c0,5.4 -5.211,10.408 -5.211,14.765c0,2.777 -3.747,10.459 -5.646,11.725c-1.134,2.789 -0.917,6.724 -3.04,9.554c-6.103,7.121 -10.315,15.854 -16.502,23.451c0,2.105 -9.474,11.264 -10.857,11.725c-1.9,0 -8.362,8.29 -9.988,9.554c-1.362,3.262 0.742,4.83 3.094,8.251c2.585,3.76 10.689,14.011 6.026,18.673c-2.115,2.115 -19.542,4.566 -19.542,-3.908c-7.937,-7.478 -7.752,-11.541 -19.542,-5.645c-8.649,5.765 -25.547,5.645 -35.61,5.645c-10.454,0 -24.771,1.587 -34.742,-1.737c-8.685,-1.241 -5.429,2.35 -6.031,8.573c-0.757,7.824 -4.723,12.123 -12.642,11.403c-1.303,0 4.777,0.435 0,0" style="fill:#010101;fill-rule:nonzero;"/><path d="M167.714,91.234c-4.66,-0.666 -1.913,-7.167 1.431,-7.431c2.669,-0.211 3.015,9.209 -1.431,7.431c-3.04,-0.435 2.171,0.868 0,0m264.035,47.769c-5.504,-7.338 0.093,-36.61 6.568,-26.436c3.44,5.406 3.973,11.867 3.474,17.859c-0.281,3.378 -6.111,12.509 -10.042,8.577c-1.303,-1.737 0.434,0.434 0,0m-20.411,8.685c-5.243,-7.864 -2.496,-28.474 -1.735,-37.937c0.508,-6.318 15.136,-4.831 17.369,-1.581c1.718,2.502 0.856,6.961 -1.303,9.12c-1.996,2.993 -0.169,13.168 0.466,16.518c0.567,2.987 3.514,6.205 2.139,8.669c-2.141,2.142 -15.187,6.96 -16.936,5.211c-0.869,-1.302 0.434,0.435 0,0m26.056,45.164c-11.936,0 -20.104,-21.353 -22.473,-30.833c-3.743,-14.971 6.68,-6.788 15.09,-15.199c7.783,-2.594 14.604,-5.761 16.367,-14.623c1.333,-6.696 0.814,-18.178 -3.23,-24.244c-4.173,-6.259 -16.951,-2.124 -22.69,-4.994c-4.973,-4.972 -8.251,-0.773 -8.251,-9.554c0,-5.237 3.069,-15.229 6.948,-19.108c0,-5.843 8.691,-14.748 12.512,-18.463c6.058,-5.889 17.748,0.8 22.175,6.032c9.549,11.286 13.022,25.903 16.394,40.061c2.853,11.985 0.628,23.367 -0.867,35.194c-0.749,5.923 0.34,23.417 -4.182,27.938c0,10.359 -16.41,33.484 -27.793,27.793c-0.868,0 0.869,0.435 0,0m-337.861,-175.878c0.42,0 -1.472,-2.099 0,-0.869c0.819,0 0.194,2.161 0,0.869c-0.434,0 0,0 0,0m88.591,5.645c0,-3.347 0.719,-6.784 -1.303,-8.685c0.605,9.079 -10.856,12.695 -10.856,3.04c0,-6.918 2.732,-13.833 10.422,-9.988c3.317,3.317 4.147,17.685 1.737,15.633c0,-0.434 0,0 0,0m-131.149,34.307c1.55,-1.651 1.413,-3.138 3.04,-3.039c1.137,-1.613 0.747,-1.74 2.606,-3.04c-1.661,2.287 -4.092,5.724 -5.646,6.079m-17.371,37.782c-0.399,-0.441 0.249,-1.349 0.435,0.434c-0.916,2.257 -0.15,-0.121 -0.435,-0.434m201.935,2.605c-6.749,0 -9.945,-6.34 -5.103,-11.182c3.36,-3.36 10.135,-3.904 14.44,-3.366c21.051,2.632 -3.604,20.281 -9.337,14.548c-0.434,0 0.434,0.435 0,0m25.622,0c-3.996,-3.996 0.147,-10.356 -4.614,-14.059c-2.907,-2.261 -7.111,-7.356 -7.111,-11.128c0,-3.703 -13.017,-19.627 -3.909,-17.805c7.281,2.427 8.536,2.021 14.331,7.817c3.447,3.446 5.406,7.967 6.948,12.593c0,2.699 2.789,33.828 -5.645,22.582c-1.737,-1.737 1.303,1.737 0,0m-38.65,32.136c-3.982,-3.982 -9.668,-2.52 -11.508,-9.879c-1.718,-6.872 0.954,-11.676 5.428,-17.045c0,-3.881 11.797,-2.702 14.277,-1.575c5.481,2.492 9.913,1.661 15.471,0.272c5.682,-1.421 12.449,-5.246 15.416,2.171c3.594,5.391 -2.09,13.399 -6.08,16.502c-4.642,3.095 -10.043,-0.379 -14.765,4.343c-3.371,2.248 -14.43,7.115 -18.239,5.211c-0.434,-0.434 0.869,0.434 0,0m17.371,8.686c0,-2.514 -2.781,-7.348 1.737,-8.252c2.45,-1.225 7.29,-4.951 8.396,-0.16c1.15,4.984 -4.349,14.196 -10.133,8.412c0,-0.435 0.434,0.434 0,0m-68.18,-36.479c1.872,-1.872 3.424,-0.263 5.645,-3.04c3.104,-3.724 5.646,-7.592 5.646,-12.594c0,-10.104 -11.843,-10.884 -18.835,-9.65c-18.895,3.334 -11.807,31.735 7.544,25.284c0.434,-0.434 -1.303,0.434 0,0m-15.634,38.216c-26.882,-4.481 -37.781,-22.797 -37.781,-47.77c2.62,-10.479 10.419,-21.325 18.945,-27.956c6.084,-4.732 14.97,-6.016 23.501,-6.93c25.36,-2.717 45.072,24.32 41.319,47.464c-3.598,22.194 -23.462,38.945 -45.984,35.192c-2.606,-0.435 2.606,0.434 0,0m321.358,0.868c0,-4.106 1.755,-7.49 0.435,-11.725c1.891,3.093 1.78,9.504 0.434,13.462c-1.467,0.123 -0.556,-0.7 -0.869,-1.737c0,-0.868 0,0 0,0m-201.5,3.909c-4.651,-6.202 -4.509,-24.854 5.211,-26.056c-0.806,4.084 -2.105,7.74 -3.155,11.691c-0.159,0.6 0.562,19.6 -2.056,14.365c-1.303,-1.737 0.434,0.868 0,0m2.171,30.398c-5.195,-3.463 -1.737,-14.522 5.813,-14.522c2.212,0 6.762,19.552 -5.813,14.522c-1.302,-0.868 2.172,0.869 0,0m21.28,-54.717c0,-4.023 2.59,-8.28 3.474,-12.16c-4.244,1.97 -5.28,13.966 -3.474,12.16c0,-0.435 -0.435,0.434 0,0m-4.343,64.706c-5.111,-2.045 -4.822,-15.945 -5.754,-20.14c-1.575,-7.085 -5.886,-14.019 -6.711,-21.244c-2.237,-19.573 5.696,-34.891 23.659,-41.948c14.02,-5.507 6.611,4.649 6.611,10.809c-2.981,4.471 -3.866,17.368 -3.056,22.534c1.65,10.517 4.848,20.91 11.307,29.307c1.329,1.727 2.407,4.573 4.126,5.862c3.088,2.317 8.984,0.137 11.508,2.66c0,5.533 -14.408,6.279 -17.371,3.908c-3.709,-1.236 -10.97,-12.938 -14.331,-10.856c-1.638,4.917 10.928,10.706 12.16,15.633c0,6.098 -18.493,5.302 -22.148,3.475c-2.171,-0.869 0.868,0.434 0,0m-37.781,0.434c-2.903,0 0.434,-10.824 0.434,-11.725c0,-2.81 4.804,-4.803 6.948,-5.646c3.162,6.911 4.49,20.363 -7.382,17.371c-0.435,0 0,0 0,0m134.188,-78.168c0,-4.416 5.397,-28.745 4.994,-28.879c-4.066,-1.356 -7.675,25.784 -7.165,30.181c0.988,0.205 1.712,-0.229 2.171,-1.302c0,-0.435 -0.434,0.434 0,0m-9.119,33.004c0,-8.498 2.236,-24.282 -0.435,-32.136c-3.543,4.84 -2.566,13.056 -2.895,19.076c-0.189,3.47 -0.507,17.971 3.33,13.06c0,-1.303 0,0 0,0m57.323,55.152c28.296,-4.716 28.438,-58.72 29.53,-77.3c1.278,-21.735 -9.633,-69.935 -38.379,-69.017c-6.276,0.2 -14.806,7.966 -16.773,13.865c-1.571,3.144 -5.645,5.479 -5.645,9.554c0,1.965 -2.363,8.443 -3.909,9.988c-7.135,14.272 -6.033,35.331 -6.569,50.876c-0.796,23.082 7.808,69.575 41.745,62.034c2.606,-0.434 -3.908,0.869 0,0m-10.422,3.474c-12.267,0 -23.681,-13.054 -28.662,-23.016c0,-3.58 -3.924,-8.324 -4.798,-11.868c-1.153,-4.676 -1.248,-9.689 -4.322,-13.32c1.545,11.816 3.861,26.192 12.594,35.176c-7.044,-1.79 -13.527,-10.422 -21.279,-10.422c-2.897,2.896 -22.794,-5.646 -27.359,-5.646c-8.683,0 -24.271,-0.627 -31.172,-7.138c-10.076,-9.506 -9.875,-33.766 -7.586,-45.897c3.982,-21.102 28.407,-19.245 43.101,-29.042c6.326,-3.162 13.035,-5.557 19.639,-7.881c8.294,-2.918 13.253,-12.149 20.748,-16.438c-0.937,1.413 -1.427,3.538 -2.172,4.777c6.038,-1.955 14.308,-14.307 19.108,-19.107c10.218,-10.219 25.425,-11.512 35.24,-0.226c10.848,12.475 15.028,29.907 18.664,45.661c4.098,17.759 6.561,41.146 -0.461,58.85c-6.406,16.146 -14.619,54.425 -41.283,45.537c-0.869,0 2.605,0.869 0,0m-430.794,100.75c-8.826,-4.412 18.239,-21.304 18.239,-9.554c9.552,9.552 -13.111,11.264 -18.239,9.554c-0.869,-0.434 1.303,0.435 0,0m99.447,-255.784c4.122,-4.122 -12.453,-13.985 -15.633,-16.502c-0.939,3.064 13.466,18.669 15.633,16.502c0.434,-0.434 -0.434,0.435 0,0m19.976,224.517c12.428,-4.142 17.921,-22.183 16.503,-33.873l-1.303,0c-0.328,7.83 -2.951,18.15 -8.685,23.885c-4.789,0 -7.79,10.999 -13.463,3.908c-1.901,-3.802 0.468,-10.957 1.737,-14.765c5.116,-7.673 1.608,-16.628 -1.52,-2.551c-0.919,4.134 -7.916,30.72 6.731,23.396c1.303,-0.434 -2.605,1.303 0,0m1.303,73.826c-10.433,-2.609 -22.411,-1.92 -33.113,-3.257c-9.325,-1.166 -19.326,-5.142 -27.877,-9.193c-17.54,-8.308 -31.837,-30.224 -39.163,-47.317c-3.899,-9.097 -1.982,-21.923 -1.031,-31.43c0.68,-11.561 8.251,-22.595 8.251,-33.873c3.927,-7.855 6.948,-21.632 6.948,-29.964c0,-11.925 5.77,-24.917 2.172,-36.913c-4.165,-10.411 -1.303,-22.3 -1.303,-33.004c1.794,-5.383 1.912,-11.732 3.04,-17.371c0.578,-4.048 2.868,-17.199 5.645,-19.976c3.063,-9.187 7.989,-17.44 15.362,-23.994c3.745,-3.329 6.717,-7.205 10.26,-10.748c4.933,-4.933 5.585,-0.434 9.554,-0.434c2.583,0 9.486,2.538 3.474,-3.474c-3.411,-3.411 -6.555,-9.049 -9.409,-13.012c-2.914,-4.047 -6.953,-9.352 -7.093,-14.449c-0.186,-6.733 10.797,-5.726 14.746,-3.78c7.63,3.761 18.817,11.7 21.298,20.384c0.761,1.522 6.862,7.929 7.383,4.343c0,-5.754 -9.226,-5.657 0.868,-8.686c17.636,-5.426 48.862,-5.125 66.887,0.889c4.664,1.556 16.311,1.536 19.967,5.191c0,-2.288 21.821,9.916 23.884,11.291c5.7,1.9 16.151,12.761 18.674,17.805c0,2.638 10.396,11.051 8.685,14.765c-3.323,7.215 -20.37,-0.93 -22.485,12.465c-0.997,6.317 -2.651,6.336 -8.782,8.38c-3.967,0.992 -5.845,6.174 -8.251,9.12c-1.268,-4.534 1.14,-9.043 0.434,-13.625c-1.179,-7.666 -4.92,-12.717 -8.251,-19.38c-2.41,-7.231 -18.357,-19.542 -26.49,-19.542c-7.098,-3.549 -19.745,-2.478 -25.622,-0.434c-14.288,0 -22.34,16.261 -30.399,24.319c-5.669,5.669 -6.202,26.246 -3.04,32.57c4.383,8.766 8.164,20.584 17.371,25.188c7.613,7.612 22.932,11.189 33.33,10.368c6.254,-0.494 23.07,-10.216 26.165,-8.631c4.611,-6.13 9.803,-14.572 14.331,-19.542c0.201,2.228 0.471,7.419 2.171,9.119c1.178,1.592 6.948,2.88 6.948,5.212c2.972,0 5.384,3.039 8.686,3.039c4.767,-1.192 2.064,1.524 3.04,3.475c2.756,2.756 1.759,15.435 8.088,16.339c11.184,1.598 7.199,-12.554 17.099,-12.431c3.601,8.211 1.746,20.832 0.862,29.499c-1.168,11.451 -1.325,22.743 -3.87,34.194c-2.293,10.322 -4.374,21.745 -5.84,32.009c-0.672,4.701 -5.049,9.3 -5.049,14.602c-1.337,5.348 -7.816,12.5 -7.816,17.805c0,7.935 -9.655,18.986 -14.541,24.618c-8.675,9.998 -17.227,22.183 -28.452,29.666c-9.393,4.696 -18.151,9.866 -28.227,13.896c-12.952,3.238 -25.897,3.909 -39.519,3.909c-1.737,-0.435 1.303,0 0,0m73.826,4.777c-3.701,0 -13.963,-7.221 -13.462,-11.291c0.363,-2.958 7.816,-3.155 7.816,-8.034c0,-3.744 6.476,5.174 6.949,5.862c0,2.47 4.339,7.373 5.211,9.988c2.709,4.515 -5.528,5.447 -6.514,3.475c-0.434,0 0.434,0.868 0,0m-118.555,12.159c-4.08,-1.36 -9.554,-8.895 -9.554,-13.028c-1.412,-11.292 3.803,-5.645 10.856,-5.645c5.097,5.096 6.848,2.299 7.383,10.856c0,3.576 -2.716,13.786 -8.685,7.817c-1.303,-0.434 0.868,0.869 0,0" style="fill:#fff;fill-rule:nonzero;"/></svg>