<svg width="84" height="63" viewBox="0 0 84 63" fill="none" xmlns="http://www.w3.org/2000/svg">
<path fill-rule="evenodd" clip-rule="evenodd" d="M53.6575 4.36048H59.0102L60.9812 3.78335L64.1748 4.37397L65.1816 4.90303L67.8903 2.35736L69.6967 1.77466L71.4318 1.84676L71.2856 3.13821L69.8677 5.52091L69.6737 7.18608L73.2412 10.1377L74.8928 13.155L76.9406 20.0378V24.0804L76.6104 27.9967L77.0216 33.292L78.6571 40.0805L79.2498 42.3503L79.5317 46.1912V48.9535L78.9539 50.891L75.5701 54.6865L74.0339 56.5835L71.1272 58.1959L67.6258 59.3261L64.171 59.4507H58.2449L54.0981 58.934L51.7022 57.5974L47.7081 54.3934L44.0625 49.9838L40.6255 42.7443L39.4696 37.9372L38.4253 32.1034L38.6178 26.945L39.248 23.7539L38.9122 17.9254L40.0928 11.9148L41.9142 9.61802L47.0324 6.44568L50.5816 4.90303L53.6575 4.36048Z" fill="#FEFEFE"/>
<mask id="mask0" mask-type="alpha" maskUnits="userSpaceOnUse" x="0" y="0" width="84" height="63">
<path fill-rule="evenodd" clip-rule="evenodd" d="M0 0.121582H83.9282V63H0V0.121582Z" fill="white"/>
</mask>
<g mask="url(#mask0)">
<path fill-rule="evenodd" clip-rule="evenodd" d="M33.948 31.2259C33.6713 30.9343 33.4672 30.9197 33.3009 31.1591C33.5371 31.1834 33.7424 31.2048 33.948 31.2259ZM34.4252 27.0728C34.7703 27.4397 35.0646 27.5256 35.1701 27.3914C34.9043 27.2777 34.6646 27.1751 34.4252 27.0728ZM7.80369 23.3602C7.64627 23.7048 7.77814 24.0163 8.17494 24.397C8.04806 24.0427 7.93762 23.7347 7.80369 23.3602ZM44.3217 16.3324C44.3487 16.3476 44.512 16.2064 44.5035 16.1888C44.4459 16.0678 44.3745 15.9421 44.2732 15.8594C44.2424 15.8342 44.1046 15.9394 43.9463 16.02C44.1105 16.163 44.2054 16.2661 44.3217 16.3324ZM6.20358 34.186C6.8841 34.4368 7.16987 34.4137 7.30968 34.113C7.15372 34.1277 6.99013 34.1675 6.83241 34.1508C6.68408 34.135 6.54252 34.0591 6.35513 33.9949C6.35014 34.0011 6.27789 34.0922 6.20358 34.186ZM36.0386 30.9027C36.2468 30.7107 36.3596 30.4687 36.3414 30.1886C36.3038 30.1683 36.2659 30.1478 36.228 30.1273C36.0641 30.377 35.9002 30.6263 35.6758 30.9677C35.8485 30.9402 35.9778 30.9583 36.0386 30.9027ZM5.31629 33.0197C5.33421 33.0016 5.35242 32.9837 5.37034 32.9655C5.20615 32.931 4.9988 32.9465 4.88748 32.8504C4.71801 32.7048 4.61287 32.4838 4.48657 32.2907C4.4622 32.2538 4.47365 32.16 4.45662 32.1568C4.10622 32.0932 4.05894 31.7835 3.93734 31.5341C3.89094 31.4389 3.84365 31.3442 3.79343 31.2508C3.74937 31.169 3.70855 31.026 3.65274 31.0187C3.15315 30.9557 3.10439 30.4535 2.82214 30.1833C2.78836 30.1511 2.85034 30.0192 2.8753 29.8955C2.83506 29.9043 2.6838 29.9207 2.68351 29.9392C2.68145 30.0822 2.66148 30.2604 2.73608 30.362C2.9455 30.6463 3.20308 30.8945 3.42952 31.1667C3.48415 31.2323 3.48709 31.3384 3.52439 31.4213C3.62484 31.6452 3.73116 31.8664 3.83513 32.0885C3.87361 32.0812 3.91208 32.0742 3.95056 32.0671C3.88917 32.1102 3.8275 32.1533 3.8131 32.1635C4.13442 32.49 4.44898 32.8123 4.76618 33.132C5.0872 33.4552 5.17884 33.4933 5.68666 33.4042C5.56271 33.2756 5.43965 33.1475 5.31629 33.0197ZM34.5821 22.1861C34.5862 22.2107 34.5824 22.2473 34.597 22.2576C35.0679 22.5861 34.8837 23.093 34.8908 23.5141C34.899 23.9665 34.7351 24.4198 34.6825 24.8772C34.6696 24.9894 34.8047 25.2239 34.8584 25.2198C35.0335 25.2069 35.272 25.1579 35.3577 25.0346C35.4931 24.8391 35.5868 24.5725 35.5883 24.3351C35.5936 23.5996 35.8007 22.8671 35.6056 22.1266C35.5275 21.8307 35.5504 21.508 35.4714 21.2127C35.3448 20.7406 34.8963 20.4098 34.2851 20.5285C34.3873 21.0999 34.4846 21.6428 34.5821 22.1861ZM34.2146 30.471C34.3991 30.5109 34.595 30.5912 34.6247 30.2812C34.6276 30.2513 34.7583 30.1997 34.8159 30.2138C35.2676 30.3251 35.561 30.0904 35.4197 29.6632C35.2505 29.1513 35.2191 28.5579 34.7624 28.1819C34.4793 27.949 34.1615 27.7245 33.7547 27.8139C33.6672 27.8329 33.5388 27.9317 33.5321 28.0032C33.5056 28.2906 33.5277 28.5825 33.515 28.8717C33.5056 29.0909 33.4601 29.3086 33.4501 29.5278C33.4384 29.7895 33.4475 30.0523 33.4475 30.3125C33.7051 30.3655 33.9603 30.4168 34.2146 30.471ZM38.4528 29.8993C38.4655 29.8566 38.3897 29.7625 38.3333 29.7288C37.8916 29.4671 37.4445 29.2146 36.9523 28.9321C36.9523 29.6175 36.974 30.229 36.9347 30.8364C36.9267 30.9618 36.6926 31.0729 36.5349 31.2156C36.6045 31.3457 36.7 31.5239 36.7969 31.7041C37.3297 31.8978 37.8824 32.0988 38.5127 32.3279C38.5524 31.9133 38.5574 31.5918 38.6249 31.2836C38.6517 31.1629 38.8182 31.0726 38.9148 30.9744C38.8672 30.5921 38.3039 30.4095 38.4528 29.8993ZM82.9258 50.4707C82.3211 49.9205 81.625 49.5545 80.8147 49.4343C80.513 49.3895 80.2522 49.4402 80.1209 49.8141C80.0452 50.03 79.8087 50.1897 79.6445 50.3752C79.9065 50.5888 79.8772 50.7655 79.4219 51.0676C79.8598 51.4146 80.3136 51.6563 80.8675 51.7718C81.1607 51.833 81.427 51.9842 81.7504 51.9306C81.9657 51.8948 82.191 51.9177 82.4118 51.9162C82.5587 51.9151 82.7079 51.9004 82.8518 51.9209C83.2093 51.9722 83.6234 51.5602 83.5549 51.2077C83.5279 51.0676 83.4974 50.9282 83.4874 50.8798C83.2633 50.7181 83.0797 50.6105 82.9258 50.4707ZM51.1762 57.3128C50.9286 57.164 50.7004 57.0266 50.5139 56.9143C50.5673 56.7338 50.6114 56.5859 50.6554 56.4379C50.5277 56.447 50.4002 56.456 50.2416 56.4672C50.2525 56.4889 50.2304 56.4452 50.194 56.3722C50.0072 56.6201 49.8269 56.8502 49.6571 57.0875C49.4595 57.3632 49.2677 57.6437 49.0809 57.927C49.0318 58.0012 49.0242 58.1028 48.974 58.1758C48.8462 58.3616 48.7049 58.5383 48.5155 58.79C48.4817 58.906 48.4385 59.1431 48.3457 59.3593C48.0926 59.9489 48.2473 60.1927 48.8991 60.1464C49.2004 60.125 49.5335 60.2149 49.7937 59.96C49.8301 59.9243 49.9159 59.9175 49.9735 59.9281C50.4258 60.0095 50.5891 59.6336 50.8381 59.393C50.94 59.2949 51.0575 59.2084 51.1412 59.0968C51.4158 58.7293 51.6784 58.3528 51.9378 57.9906C51.7994 57.5944 51.0969 57.8435 51.1762 57.3128ZM9.70485 23.1246C9.81029 22.4516 9.80706 21.7621 9.87638 21.0823C9.92954 20.5598 9.71748 20.1288 9.46959 19.7036C9.36122 19.5181 9.23962 19.3397 9.11538 19.1639C8.94738 18.9259 8.71448 18.9042 8.50066 19.0865C8.08771 19.4387 7.87095 19.9201 7.78724 20.4198C7.69003 20.9991 7.60808 21.6056 7.8827 22.182C7.90766 22.2341 7.81838 22.3408 7.78343 22.4196C8.47305 22.8891 8.66366 23.718 9.0775 24.4424C9.50014 24.0342 9.63436 23.5727 9.70485 23.1246ZM39.8611 14.4485C39.5824 14.506 39.3187 14.7439 39.101 14.9549C38.9333 15.1175 39.1372 15.5942 39.3448 15.7551C39.6964 16.027 40.0103 16.3467 40.3619 16.6187C40.5064 16.7306 40.7017 16.7901 40.8832 16.8381C41.1872 16.9184 41.4968 17.0049 41.8078 17.0224C42.0325 17.035 42.2751 16.9697 42.4889 16.8859C42.8035 16.7631 43.1386 16.64 43.3944 16.4308C43.7143 16.1689 43.7061 15.8864 43.4872 15.5307C43.2676 15.1735 43.0405 14.8224 42.6252 14.6574C42.2927 14.5253 41.9591 14.3955 41.6498 14.2742C41.0166 14.3287 40.4271 14.3319 39.8611 14.4485ZM70.2844 62.0053C70.4997 61.7838 70.6918 61.5397 70.8939 61.3053C71.1091 61.0559 71.3092 60.7907 71.5453 60.5625C71.6569 60.4546 71.8372 60.4177 71.9797 60.3518C71.913 59.8545 71.8393 59.3224 71.7709 58.7897C71.7154 58.3554 71.6713 58.3654 71.2399 58.448C70.989 58.4961 70.7723 58.5415 70.5881 58.7182C70.3549 58.9421 70.1675 58.5951 69.9443 58.6613C69.8835 58.6792 69.8195 58.6877 69.7572 58.7006C69.7901 58.7654 69.823 58.8301 69.8586 58.8999C69.6688 58.9579 69.4494 59.0522 69.2206 59.0897C68.6743 59.1794 68.6103 59.5847 68.5516 60.0177C68.538 60.1168 68.4399 60.2041 68.3745 60.3064C68.4053 60.3685 68.4952 60.4734 68.506 60.5859C68.5316 60.8508 68.4846 61.1257 68.5333 61.3838C68.5739 61.5986 68.7084 61.7958 68.8018 62.0003C68.8582 62.1234 68.9155 62.2462 68.9768 62.3786C69.3989 62.3004 69.9129 62.3871 70.2844 62.0053ZM38.0886 15.5887C38.096 15.3068 38.1397 15.0252 38.1811 14.7454C38.1911 14.6783 38.2472 14.5684 38.2916 14.5637C38.8937 14.4978 39.0223 13.8707 39.4497 13.6011C39.5084 13.5642 39.5569 13.4903 39.581 13.4232C39.7586 12.9307 39.9272 12.4352 40.1035 11.942C40.1322 11.8617 40.1701 11.7744 40.2297 11.7167C40.4309 11.5215 40.4835 11.2962 40.532 11.0175C40.5922 10.6682 40.8183 10.3439 40.9928 10.0192C41.2031 9.62858 41.083 9.38098 40.6406 9.42581C40.1173 9.47885 39.5877 9.56089 39.0884 9.71825C38.859 9.79062 38.6928 10.0693 38.5033 10.2598C38.3832 10.3808 38.2842 10.5244 38.1568 10.636C37.8196 10.9317 37.4146 11.1426 37.3784 11.6962C37.362 11.9534 37.1082 12.1925 36.9725 12.4454C36.9088 12.5641 36.8601 12.6933 36.8219 12.8231C36.6874 13.2802 36.5182 13.7333 36.443 14.2006C36.3772 14.61 36.4483 15.0398 36.4075 15.4556C36.3599 15.9383 36.4107 16.3845 36.628 16.8249C36.8633 17.3008 36.962 17.3597 37.5165 17.2021C37.7415 17.1382 38.1547 16.5905 38.1394 16.3702C38.1206 16.1097 38.0819 15.8486 38.0886 15.5887ZM43.627 17.4385C43.5962 17.4757 43.5845 17.5048 43.5683 17.5074C43.0857 17.5853 42.5994 17.6428 42.1215 17.7412C41.7053 17.8271 41.3338 17.8704 40.9059 17.6765C40.5167 17.5001 40.0418 17.5115 39.5583 17.4327C39.5627 17.4078 39.5789 17.3111 39.5974 17.2015C39.5701 17.1997 39.5381 17.198 39.5061 17.1962C39.2884 17.1833 39.067 17.1912 38.8537 17.1525C38.5509 17.098 38.2834 17.0512 38.0331 17.324C37.6974 17.6899 37.5253 18.0776 37.5238 18.5892C37.5232 18.8421 37.4169 19.0912 37.5561 19.3414C37.661 19.5298 37.787 19.713 37.8522 19.9152C38.0187 20.43 38.4769 20.6756 38.8599 20.9583C39.0373 21.0896 39.3939 21.0081 39.6647 20.9788C40.2811 20.9123 40.7937 21.0612 41.2066 21.5529C41.3279 21.6976 41.5503 21.7592 41.7282 21.8556C41.9426 21.9719 42.1476 22.129 42.3776 22.1873C42.6461 22.2552 42.9389 22.2198 43.2167 22.2591C43.4714 22.2951 43.7727 22.303 43.9586 22.446C44.193 22.6265 44.3651 22.5664 44.5751 22.4841C44.6212 22.4659 44.6659 22.4199 44.7091 22.4229C45.2571 22.4577 45.6472 22.1067 45.9976 21.7949C46.2563 21.5652 46.3996 21.1711 46.513 20.8235C46.6152 20.5103 46.6869 20.1458 46.6273 19.8311C46.5515 19.4305 46.3503 19.0469 46.1644 18.6751C46.0213 18.3888 45.8322 18.1224 45.6372 17.8669C45.5461 17.7471 45.4063 17.6372 45.2659 17.5874C44.8589 17.4429 44.4447 17.3119 44.0241 17.2147C43.8185 17.1669 43.5927 17.2065 43.3762 17.2065C43.375 17.2407 43.3739 17.2753 43.373 17.3099C43.4558 17.3518 43.5386 17.3937 43.627 17.4385ZM34.1324 23.8921C34.2378 23.3799 34.1671 22.9134 33.9809 22.4129C33.7635 21.8283 33.7145 21.1834 33.5576 20.5733C33.491 20.3134 33.2583 20.0822 33.2387 19.8273C33.2069 19.4167 32.8574 19.3238 32.6518 19.0935C32.3631 18.7694 32.0512 18.4398 31.5968 18.3786C30.9436 18.2906 30.5069 17.7861 29.9227 17.5724C29.4475 17.3987 28.9884 17.3697 28.5176 17.6135C28.315 17.7184 28.2694 17.828 28.3358 18.0243C28.5684 18.7108 28.8043 19.3959 29.0225 20.0866C29.0539 20.1859 28.9729 20.3151 28.9837 20.4268C29.0187 20.7895 29.0528 21.1544 29.1256 21.5107C29.1744 21.7477 29.2375 22.0141 29.3855 22.1914C29.5891 22.4343 29.4249 22.6201 29.4017 22.8348C29.3708 23.1214 29.2924 23.4332 29.3714 23.6928C29.459 23.9794 29.3203 24.1183 29.2119 24.3231C29.0868 24.5599 29.0639 24.8514 28.9359 25.0859C28.757 25.4135 28.7711 25.7554 28.7599 26.1018C28.7585 26.1513 28.7593 26.2108 28.7335 26.2474C28.4043 26.7148 28.5664 27.4634 27.8844 27.7283C27.8312 28.1148 27.344 28.2338 27.3222 28.6722C27.3155 28.8105 27.0221 28.9347 26.8135 28.9983C26.7654 29.1633 26.7639 29.4238 26.6596 29.4745C26.3736 29.6139 26.0487 29.6901 25.7312 29.7446C25.3524 29.8097 24.9655 29.8258 24.4941 29.8718C24.6375 30.0447 24.7065 30.1839 24.819 30.2545C25.5703 30.7266 26.3935 31.0272 27.2802 30.91C27.6268 30.8643 27.9766 30.588 28.2545 30.3383C28.7529 29.8908 29.1893 29.3757 29.6704 28.908C29.8043 28.7779 30.0044 28.7155 30.2511 28.5799C30.2144 29.1583 29.8631 29.391 29.5961 29.662C29.1573 30.1068 28.6342 30.4798 28.2536 30.9665C28.0759 31.1939 28.1346 31.6159 28.1229 31.9508C28.1211 32.0003 28.3223 32.0979 28.4322 32.102C28.7358 32.1134 29.0413 32.0712 29.3453 32.0786C30.0011 32.0947 30.6582 32.1653 31.3119 32.1404C31.6541 32.1272 31.9919 31.9634 32.3276 31.8553C32.3652 31.843 32.3854 31.7513 32.3981 31.6932C32.4571 31.4213 32.522 31.1503 32.5637 30.8754C32.6888 30.0517 32.7767 29.2213 32.9347 28.404C33.0107 28.0105 33.219 27.6437 33.3544 27.2601C33.5274 26.7704 33.7142 26.2829 33.8452 25.7815C33.9685 25.31 34.022 24.8204 34.1201 24.3413C34.1342 24.2727 34.2246 24.2194 34.2467 24.1954C34.1944 24.0638 34.1168 23.9683 34.1324 23.8921ZM49.7834 22.075C50.0948 22.3924 50.4231 22.698 50.6957 23.0464C50.891 23.2961 51.2205 23.2946 51.4109 23.517C51.6329 23.7766 51.9598 23.7763 52.2473 23.8771C52.3334 23.9073 52.4012 23.9858 52.4811 24.0368C52.5739 24.0957 52.6841 24.2109 52.7637 24.1936C53.2729 24.0849 53.7373 24.2841 54.2213 24.3398C54.8684 24.4139 55.5389 24.2519 56.1991 24.2528C56.8585 24.2534 57.3537 23.82 57.9549 23.6793C58.2448 23.6114 58.5373 23.5369 58.8105 23.4224C59.0466 23.3233 59.2745 23.1859 59.4749 23.0262C59.9345 22.6593 60.3915 22.2857 60.8165 21.8802C61.0344 21.6727 61.1922 21.3982 61.3572 21.1415C61.628 20.7207 61.9194 20.3069 62.1338 19.858C62.3403 19.4258 62.4395 18.9502 62.3414 18.4591C62.3323 18.4117 62.3217 18.3381 62.3473 18.3138C62.8583 17.8303 62.5241 17.2446 62.5409 16.7045C62.55 16.41 62.5409 16.1064 62.4792 15.8199C62.4022 15.4624 62.315 15.0891 62.1382 14.7752C61.8724 14.3032 61.5237 13.8777 61.213 13.4309C61.0726 13.2287 60.9534 13.0098 60.7989 12.8196C60.3953 12.3232 59.9994 11.8183 59.5577 11.3568C59.2851 11.072 58.9368 10.8581 58.6158 10.6208C58.5826 10.5961 58.5044 10.6269 58.4483 10.6383C58.3685 10.655 58.2786 10.7128 58.2116 10.692C57.7987 10.5654 57.3945 10.4095 56.9801 10.2873C56.6747 10.1973 56.3616 10.122 56.0467 10.079C55.5589 10.0122 55.0651 9.93069 54.5758 9.94124C53.4656 9.96527 52.381 10.1408 51.4173 10.7509C51.3266 10.808 51.2896 10.9451 51.2029 11.0146C50.8828 11.2701 50.5526 11.5133 50.2257 11.7603C50.1961 11.7829 50.1544 11.7943 50.1329 11.8222C49.5816 12.5439 48.9772 13.2339 48.5037 14.0037C48.2459 14.4227 48.2097 14.9777 48.0758 15.4718C48.0535 15.5547 48.0456 15.6414 48.0276 15.7258C47.9313 16.1885 47.8094 16.6482 47.7486 17.1156C47.724 17.3049 47.8629 17.5097 47.8729 17.7102C47.8978 18.2133 48.1031 18.6473 48.3046 19.0959C48.6788 19.9289 49.0095 20.7813 49.354 21.6276C49.3634 21.6504 49.3261 21.6921 49.3343 21.6745C49.5047 21.8254 49.6527 21.9417 49.7834 22.075ZM4.86575 11.2932C4.8772 11.2994 4.9286 11.3287 5.01466 11.3779C4.86957 11.4881 4.72947 11.5948 4.6302 11.6704C4.58702 11.8793 4.60787 12.1105 4.50185 12.2309C4.14411 12.6379 4.06158 13.1244 3.97494 13.6257C3.93558 13.8519 3.90004 14.1555 3.5147 14.0339C3.49062 14.026 3.44362 14.0904 3.36579 14.1564C3.92383 14.2853 3.57843 14.7316 3.51088 14.8037C3.16724 15.1685 3.28855 15.6312 3.1602 16.0326C3.06738 16.3224 3.06298 16.6418 2.95754 16.9254C2.89087 17.1042 2.71053 17.2407 2.57631 17.4022C2.6794 17.4394 2.7772 17.4749 2.97457 17.5464C2.78866 17.5815 2.70319 17.5976 2.57102 17.6228C2.61508 17.8406 2.70789 18.0621 2.69173 18.2748C2.66618 18.6045 2.53813 18.9253 2.50523 19.2553C2.46558 19.6535 2.47997 20.0573 2.47028 20.4584C2.46764 20.5677 2.48496 20.6835 2.45501 20.7854C2.31373 21.2654 2.36484 21.7293 2.48585 22.2095C2.62477 22.7595 2.70378 23.3251 2.78983 23.8868C2.79982 23.9513 2.68968 24.0345 2.67441 24.0553C2.73667 24.2639 2.81685 24.4605 2.85298 24.6645C3.00424 25.5166 3.14199 26.3711 3.28473 27.2246C3.384 27.8171 3.47622 28.4111 3.58754 29.0012C3.61015 29.1208 3.70208 29.2289 3.76699 29.3394C4.13882 29.9717 4.50273 30.6093 4.89042 31.232C5.02464 31.4477 5.23141 31.617 5.38296 31.8236C5.46315 31.9326 5.49575 32.0759 5.59561 32.1486C5.86876 32.4583 6.17538 32.7449 6.40771 33.0828C6.74283 33.5703 7.06032 33.6735 7.60779 33.4903C7.93645 33.3802 8.30387 33.3828 8.65485 33.3415C9.03168 33.2975 9.38119 33.2413 9.55359 32.8179C9.61792 32.6596 9.78386 32.5075 9.94158 32.4284C10.586 32.1041 10.791 31.455 11.1088 30.8953C11.3766 30.4236 11.6245 29.9357 11.8266 29.4329C12.0436 28.8937 12.1967 28.3284 12.3788 27.7749C12.4137 27.6683 12.4542 27.5637 12.4921 27.4582C12.7588 26.7098 12.7083 26.7555 12.0178 26.3851C11.3734 26.0396 10.7202 25.7915 10.015 25.6388C9.86845 25.6071 9.72982 25.511 9.60235 25.4234C9.28397 25.2048 9.01934 25.2206 8.8534 25.5485C8.37554 25.2186 7.91618 24.9015 7.40748 24.5505C7.54993 24.5218 7.65067 24.5016 7.8175 24.4679C7.62952 24.3345 7.49354 24.2302 7.34962 24.1385C7.18867 24.0354 7.18104 23.7757 7.34257 23.6281C6.91582 23.425 6.6227 22.5374 6.85943 22.235C6.80039 22.1149 6.74635 22.0053 6.6926 21.8954C6.81302 21.8488 6.93138 21.7961 7.05445 21.7574C7.13434 21.7322 7.22069 21.7269 7.38927 21.6985C7.10173 21.6156 6.88762 21.598 6.73695 21.491C6.66176 21.438 6.70259 21.2215 6.68144 20.9589C6.94666 21.1125 7.09997 21.201 7.27561 21.3023C7.28765 21.2045 7.30469 21.065 7.31673 20.9683C7.11436 20.9068 6.93667 20.8525 6.75898 20.7986C6.83329 20.5935 6.90789 20.3887 6.9822 20.1836C7.01597 20.1894 7.04945 20.1953 7.08323 20.2014C7.02478 20.1358 6.96634 20.0699 6.90642 20.0025C7.29852 19.6066 7.54406 19.4164 7.70912 19.4074C7.55992 19.2629 7.18955 19.3719 7.29264 19.0156C7.38575 18.6936 7.60074 18.5526 7.92499 18.5412C8.0272 18.5377 8.12824 18.5098 8.22604 18.4269C8.11326 18.4064 8.00018 18.3862 7.8874 18.3657C7.88505 18.3369 7.8827 18.3085 7.88035 18.2798C8.05393 18.2531 8.23015 18.1925 8.4008 18.2054C9.19527 18.2663 9.95979 18.1846 10.7093 17.8869C10.9863 17.777 11.3202 17.8192 11.6163 17.745C11.9858 17.6527 12.3476 17.5232 12.7015 17.3826C12.7711 17.3547 12.8035 17.2056 12.8311 17.1062C12.8825 16.9216 12.9174 16.7323 12.9518 16.5791C12.8666 16.3705 12.7538 16.1724 12.7054 15.9599C12.5855 15.4345 12.498 14.9018 12.3893 14.3738C12.3729 14.2935 12.3265 14.2088 12.2695 14.1493C11.8237 13.6861 11.7188 13.0561 11.4518 12.5055C11.3687 12.3338 11.2832 12.1594 11.171 12.0065C10.7137 11.3823 10.2441 10.7673 9.78298 10.1464C9.65992 9.9805 9.5859 9.74931 9.42613 9.64675C9.18734 9.4935 8.90039 9.38391 8.6199 9.33292C7.94702 9.21103 7.36578 9.48061 6.81185 9.83165C6.53929 10.0048 6.24441 10.1437 5.97508 10.3216C5.85378 10.4019 5.78299 10.5554 5.66639 10.6468C5.52982 10.7541 5.36857 10.83 5.2179 10.9194C5.16386 10.8936 5.09631 10.8801 5.05901 10.8394C5.00173 10.7766 4.96531 10.6952 4.92008 10.6216H5.15945C5.05284 10.1938 5.74481 9.23066 6.1234 9.32237V8.99214H6.77513C6.77396 8.96723 6.76897 8.8717 6.76485 8.79347C7.00511 8.68505 7.23948 8.57927 7.48238 8.46938C7.5652 8.66395 7.73908 8.72578 8.00635 8.60974C8.2372 8.50982 8.47657 8.49341 8.58877 8.79405C9.07221 8.52652 9.07074 8.52799 9.51571 8.96166C9.60088 9.04488 9.69986 9.11638 9.79972 9.18231C9.9034 9.25088 10.0159 9.30596 10.1425 9.37717C10.1052 9.45365 10.0711 9.52368 10.0176 9.63386C10.1354 9.59811 10.2115 9.57525 10.2632 9.55943C10.4579 9.80469 10.6447 10.0374 10.8295 10.2715C11.2054 10.7485 11.6266 11.1983 11.9411 11.7126C12.1814 12.1058 12.2754 12.5858 12.4551 13.0189C12.575 13.3078 12.7447 13.5765 12.8619 13.8663C12.8983 13.9565 12.8358 14.0866 12.807 14.2756C12.8554 14.2947 13.0049 14.353 13.1192 14.3975C13.1318 14.5936 13.1212 14.777 13.1603 14.9496C13.224 15.2306 13.3448 15.5002 13.3959 15.7827C13.4461 16.0584 13.439 16.3447 13.4616 16.6948C13.7477 16.8607 13.7947 17.1508 13.6531 17.5672C13.5915 17.7483 13.7927 18.0073 13.8338 18.2382C13.857 18.3683 13.7971 18.513 13.7733 18.6593C13.8103 18.8099 13.8649 18.9792 13.8908 19.1524C13.9204 19.3493 13.9627 19.5577 13.9257 19.7467C13.9022 19.8668 13.7586 20.0309 13.6449 20.0535C13.3747 20.1065 13.2816 19.8762 13.2487 19.6637C13.1982 19.337 13.1647 19.005 13.1577 18.6748C13.15 18.3167 12.9362 18.3129 12.6769 18.3451C12.4346 18.3753 12.1911 18.3947 11.9496 18.4278C11.3669 18.5078 10.7822 18.5778 10.2059 18.6903C10.1081 18.7097 10.0476 18.9201 9.97036 19.0422C9.99973 19.0651 10.0294 19.088 10.0591 19.1108C9.95773 19.1665 9.8567 19.2225 9.81499 19.2453C10.0144 19.6262 10.1783 19.9996 10.398 20.3371C10.546 20.5645 10.4876 21.2218 10.3093 21.3691C10.3428 21.598 10.4015 21.7779 10.3889 21.9526C10.351 22.4759 10.3155 23.003 10.218 23.517C10.166 23.7922 9.98857 24.0436 9.85171 24.3401H9.47517C9.57327 24.4096 9.6655 24.4427 9.70427 24.5074C9.97036 24.9528 10.4497 24.9701 10.8712 25.1149C11.3951 25.2951 11.9085 25.5058 12.4293 25.6965C12.5653 25.7463 12.7106 25.7709 12.8525 25.8073C12.9532 25.2212 13.0748 24.6528 13.1412 24.0779C13.1917 23.6418 13.1583 23.1964 13.19 22.7572C13.2 22.6165 13.2983 22.4826 13.3392 22.3862C13.2816 22.1111 13.1888 21.8468 13.1803 21.5801C13.1685 21.2229 13.2267 20.864 13.2472 20.5053C13.2652 20.1924 13.5016 20.1856 13.7004 20.224C13.9219 20.2668 14.0197 20.4347 13.9422 20.6782C13.8488 20.97 13.6934 21.2449 13.8831 21.5801C13.9521 21.702 13.847 21.9271 13.8094 22.1026C13.7621 22.3244 13.6241 22.5269 13.8006 22.7727C13.8614 22.8574 13.7674 23.0526 13.7374 23.2369C13.926 23.2231 14.121 23.2093 14.3492 23.1929C14.3075 23.3394 14.2755 23.4531 14.2435 23.5665C14.2729 23.5566 14.3025 23.5466 14.3322 23.5366C14.3968 23.7239 14.4614 23.9108 14.5448 24.1529C14.4036 24.1259 14.3113 24.108 14.2576 24.0981C14.2417 24.5898 14.2391 25.0627 14.2068 25.5336C14.1806 25.9177 14.1953 26.3303 14.0549 26.6746C13.8678 27.1338 13.8678 27.6105 13.7601 28.0735C13.6943 28.3563 13.5515 28.5283 13.1897 28.3847C13.61 28.6267 13.3321 28.9514 13.3139 29.2163C13.2975 29.4566 13.1362 29.6907 13.0214 29.919C12.9568 30.0473 12.844 30.1511 12.7761 30.2779C12.6031 30.6014 12.2721 30.8687 12.4255 31.3111C12.5042 31.5385 12.0472 32.1093 11.8151 32.1597C11.6101 32.204 11.4204 32.3174 11.2401 32.4835C11.3323 32.4791 11.4242 32.4753 11.5217 32.4709C11.4856 32.795 11.273 32.9017 10.9816 32.9506C10.8882 32.9664 10.818 33.0951 10.7275 33.1584C10.5396 33.289 10.3451 33.4106 10.156 33.4461C10.0552 33.4256 9.9501 33.3767 9.85435 33.3904C9.58473 33.4297 9.56417 33.481 9.53333 34.0951C9.726 33.9633 9.85552 33.8748 10.0168 33.7649C10.0285 33.8575 10.0379 33.9313 10.0529 34.0483C11.5725 33.5009 12.5159 32.3306 13.3806 31.0518C13.5063 31.1078 13.6255 31.1605 13.7427 31.2124C13.5136 31.5822 13.2901 31.9435 13.039 32.3487C13.1489 32.3352 13.2202 32.3476 13.2616 32.318C13.7134 31.9948 14.1466 31.6431 14.6139 31.3442C14.9413 31.1347 15.3126 30.9938 15.6656 30.8244C15.8186 30.7512 15.9699 30.6694 16.13 30.6175C16.3485 30.5475 16.5726 30.4913 16.7982 30.4485C17.1853 30.3752 17.5756 30.3178 17.9642 30.2513C18.1818 30.2141 18.4 30.1786 18.6156 30.1308C19.6694 29.8964 20.7227 29.6602 21.7747 29.42C22.057 29.3555 22.3316 29.2441 22.6159 29.211C22.8805 29.18 23.156 29.2518 23.4224 29.2298C23.8838 29.1914 24.3411 29.0824 24.8022 29.066C25.162 29.0531 25.4584 28.8679 25.7953 28.8017C25.9424 28.7727 26.0687 28.6358 26.202 28.545C26.3615 28.4363 26.5192 28.3246 26.6767 28.2136C26.8385 28.0996 27.0776 28.0193 27.1478 27.8637C27.4377 27.2208 27.6844 26.5577 27.9299 25.8958C28.0327 25.618 28.1335 25.3288 28.164 25.0375C28.2574 24.1529 28.3402 23.2653 28.3808 22.3771C28.423 21.4591 28.3385 20.5428 28.0991 19.6535C27.9613 19.1416 27.7684 18.6628 27.2133 18.3938C26.9807 18.2813 26.8579 17.9431 26.6849 17.7078C26.6358 17.6413 26.5985 17.5431 26.5325 17.5156C26.0637 17.3213 25.5941 17.127 25.1142 16.963C24.8398 16.8689 24.5696 16.8484 24.3191 16.6219C24.0918 16.4165 23.702 16.396 23.3916 16.2746C23.1663 16.1864 22.961 16.0446 22.7334 15.9667C22.3748 15.8436 22.0017 15.763 21.6405 15.6476C21.4214 15.5778 21.2049 15.4908 21.0008 15.3853C20.7423 15.2514 20.5097 15.0633 20.2445 14.9472C19.5349 14.6364 18.8183 14.3398 18.0952 14.0617C17.7163 13.9161 17.3077 13.8469 16.9318 13.6957C16.6117 13.5671 16.3153 13.3758 16.0163 13.1991C15.9505 13.1601 15.8774 13.0657 15.8768 12.9966C15.8744 12.722 15.7558 12.5814 15.4791 12.5597C15.4368 12.5562 15.4019 12.4782 15.3605 12.4381C15.0618 12.1506 14.7581 11.8679 14.4644 11.5751C14.3105 11.4216 14.1795 11.2455 14.0264 11.0911C13.9836 11.0477 13.8999 11.0439 13.8626 11.0316C13.9865 11.404 14.1028 11.7536 14.2191 12.1029C14.1859 12.1125 14.1527 12.1222 14.1193 12.1316C14.0147 12.0273 13.8943 11.9344 13.8088 11.8163C13.6496 11.5968 13.526 11.351 13.3597 11.1377C13.2123 10.9489 13.0287 10.7878 12.8569 10.619C12.8137 10.5768 12.7374 10.5639 12.7036 10.5176C12.4692 10.1953 12.2636 9.84864 12.0046 9.548C11.8263 9.34113 11.5405 9.22568 11.3658 9.01704C10.8297 8.37767 10.1296 7.96597 9.42172 7.56658C9.22464 7.45552 8.97441 7.43853 8.70566 7.36674C8.61256 7.16602 8.06538 6.93335 7.73996 7.00163C7.27943 7.09774 6.81126 7.16631 6.35983 7.29436C6.11048 7.36469 5.86053 7.49801 5.66052 7.66298C5.27987 7.97681 4.92155 8.32111 4.58115 8.67889C4.44751 8.81955 4.42049 9.06158 4.28685 9.20282C3.85393 9.66082 3.58431 10.1924 3.33319 10.7705C3.01863 11.494 2.70172 12.2104 2.45559 12.9614C2.32901 13.3479 2.10902 13.7028 1.95248 14.0808C1.91606 14.169 2.00564 14.3099 1.96775 14.3958C1.93074 14.4805 1.80503 14.5262 1.68873 14.61C2.15073 14.9045 1.85232 15.2391 1.76891 15.5576C1.70547 15.7999 1.5545 16.035 1.55245 16.2741C1.5498 16.5726 1.50105 16.8249 1.32218 17.0629C1.21792 17.2009 1.46815 17.4239 1.22496 17.5443C1.40853 17.9249 1.02818 17.7225 1.00997 17.8376C0.980014 17.9601 0.944769 18.082 0.922154 18.206C0.898363 18.3352 0.839328 18.5637 0.876629 18.5819C1.1486 18.7126 0.96151 18.8749 0.947119 19.0346C0.910405 19.4416 0.89337 19.851 0.882503 20.2598C0.881916 20.2879 0.999398 20.3187 1.0928 20.3632C0.983832 20.5405 0.883091 20.7043 0.812014 20.82C0.893664 21.1113 0.985594 21.3565 1.02759 21.61C1.0834 21.9458 1.1348 22.2892 1.12364 22.6274C1.11306 22.9368 0.997636 23.241 0.965622 23.5516C0.946825 23.7365 0.982657 23.9328 1.02407 24.1171C1.1862 24.8365 1.33922 25.5588 1.54393 26.2661C1.59973 26.4595 1.82383 26.6043 1.97127 26.7722C1.62147 27.0424 2.01533 27.3647 1.96041 27.6662C1.87729 28.1242 2.3851 28.14 2.47263 28.4603C2.59129 28.3006 2.6838 28.1758 2.77456 28.0536C2.65238 27.7456 2.51845 27.4145 2.39157 27.0808C2.3713 27.0277 2.35544 26.9383 2.38364 26.9079C2.60098 26.6723 2.502 26.5671 2.23855 26.5088C2.19508 26.4994 2.13927 26.4622 2.12312 26.4235C1.88463 25.8547 1.66523 25.3001 1.89021 24.6472C1.96892 24.4192 1.79975 24.1066 1.73866 23.8068C1.89579 23.7464 2.01973 23.6322 1.84234 23.418C1.58505 23.1077 1.5965 22.8179 1.80827 22.4586C1.86143 22.3684 1.80915 22.1568 1.73102 22.0621C1.59856 21.9019 1.5592 21.8055 1.69989 21.617C2.03295 21.1719 1.96364 20.8865 1.46522 20.6615C1.57477 20.6219 1.66699 20.6161 1.71252 20.5671C1.81296 20.4584 1.97215 20.3201 1.96158 20.2079C1.92575 19.8331 1.81561 19.466 1.75687 19.0924C1.74042 18.986 1.81091 18.8691 1.82736 18.7548C1.85643 18.5532 1.87464 18.3501 1.90225 18.1037C2.22562 18.0246 2.17364 17.7846 2.08288 17.4889C2.03618 17.3366 2.0447 17.0872 2.13986 16.9861C2.44414 16.6629 2.54841 16.369 2.36131 15.9251C2.20506 15.5553 2.39392 15.3047 2.79159 15.1146C2.8662 15.0791 2.92347 15.0073 3.01041 14.9341C2.91994 14.864 2.84769 14.8081 2.7775 14.7533C3.27533 14.2885 3.16901 13.6345 3.49091 12.9951C3.83866 12.8123 3.84688 12.7853 3.53262 12.4721C3.7012 12.3012 3.8695 12.131 4.03926 11.9593C3.98874 11.8948 3.93352 11.8251 3.88829 11.7677C4.11592 11.4108 4.33326 11.0697 4.49127 10.8221C4.80848 10.8602 5.01789 10.8851 5.22701 10.9103C5.11217 11.0322 4.99704 11.1541 4.86575 11.2932ZM51.6731 2.50196C51.7034 2.79557 51.7237 3.05519 51.7586 3.31305C51.7827 3.49414 51.7956 3.68724 51.872 3.84694C51.9213 3.94979 52.067 4.02715 52.1862 4.0711C52.3246 4.1218 52.4829 4.11506 52.6294 4.14758C53.0773 4.24721 53.149 3.88621 53.2803 3.63303C53.3719 3.6805 53.458 3.72475 53.5438 3.76929C53.5661 3.68285 53.6072 3.5967 53.6081 3.51026C53.6139 2.7525 53.4971 2.01349 53.0847 1.36796C52.9663 1.18277 52.6794 1.10219 52.4656 0.981466C52.4277 0.960076 52.3343 0.960076 52.3231 0.980587C52.1069 1.38642 51.5477 1.16871 51.3204 1.59975H51.9633L51.9874 1.70318C51.7759 1.77204 51.5645 1.8412 51.2819 1.9335C51.4329 2.07122 51.5416 2.17026 51.5994 2.22301C51.5424 2.39501 51.4878 2.55969 51.4332 2.72408C51.2367 2.62503 51.1171 2.51017 51.328 2.30447C51.3483 2.28483 51.3148 2.2107 51.3066 2.16206C51.2514 2.18931 51.1521 2.21187 51.1489 2.2441C51.1362 2.36629 51.1597 2.49142 51.1612 2.61595C51.1668 3.08098 51.1788 3.5463 51.1694 4.01103C51.1627 4.35709 51.3037 4.29409 51.5095 4.15227C51.4581 4.07638 51.4135 4.00986 51.3665 3.94012C51.4649 3.86218 51.5492 3.79537 51.637 3.72592C51.264 3.43466 51.264 3.43466 51.4769 3.16449C51.2787 2.90985 51.2743 2.87147 51.4247 2.71822C51.5051 2.65258 51.5818 2.58372 51.6731 2.50196ZM39.6485 22.8135C39.6297 22.9468 39.6224 23.083 39.6256 23.2175C39.6379 23.793 39.9416 24.0916 40.5161 24.0802C40.7757 24.0749 41.0348 24.0401 41.2944 24.0181C41.6519 23.9876 41.5743 23.6776 41.6219 23.4728C41.7658 22.8542 41.5861 22.5908 41.0054 22.3991C40.8339 22.3426 40.702 22.1659 40.5067 22.0074C40.3654 22.0167 40.1137 22.0331 39.7915 22.0545C39.7213 22.1817 39.736 22.5152 39.3777 22.4949C39.0256 22.1345 38.6734 21.7735 38.3198 21.4143C38.3045 21.399 38.2728 21.3958 38.2484 21.3949C37.8551 21.38 37.6645 21.1435 37.4598 20.823C36.9725 20.0602 36.6054 19.2855 36.7326 18.3519C36.742 18.2836 36.7385 18.2045 36.7135 18.1415C36.4724 17.5326 36.1922 16.9363 35.9922 16.3145C35.8641 15.916 35.7895 15.4706 36.1872 15.0993H35.9137C35.9578 14.8582 35.9789 14.6337 36.0421 14.4224C36.1534 14.0515 36.0841 13.8751 35.7592 13.7086C34.9557 13.2969 34.8288 12.2523 35.5398 11.7178C35.7519 11.5584 36.0856 11.559 36.2938 11.397C36.5214 11.2197 36.7015 11.1974 36.9176 11.3478C37.2848 10.888 37.6072 10.4156 38.0002 10.0116C38.3809 9.62038 38.7213 9.13308 39.3055 9.01734C40.0726 8.86555 40.8483 8.75567 41.6207 8.63025C41.6677 8.62263 41.7373 8.61824 41.7647 8.6449C42.0199 8.89456 42.212 8.70087 42.4208 8.56755C42.5459 8.48784 42.691 8.4395 42.8182 8.36243C43.3703 8.02809 43.9199 7.68877 44.4697 7.34974C44.7205 7.19502 44.9713 7.04031 45.2186 6.88002C45.5723 6.65029 45.9153 6.40357 46.276 6.18585C46.7148 5.92096 47.1512 5.64317 47.6179 5.43659C48.0887 5.22796 48.5907 5.08203 49.0888 4.94402C49.3302 4.87721 49.4524 4.65012 49.7473 4.61115C50.0075 4.57686 50.3797 4.25776 50.4275 4.01133C50.5015 3.63157 50.7638 3.23745 50.5338 2.80612C50.4736 2.69302 50.5388 2.492 50.5888 2.34608C50.7139 1.98068 50.8566 1.62026 51.0058 1.26365C51.1336 0.957146 51.1788 0.587936 51.6135 0.508527C51.7568 0.482448 51.9137 0.389853 52.0106 0.280262C52.1724 0.0971223 52.4042 0.0616665 52.5798 0.230448C52.6606 0.308392 52.8112 0.437908 52.8527 0.413587C53.1308 0.248615 53.2879 0.497099 53.4783 0.581783C53.7229 0.690787 53.893 1.1523 53.8081 1.38818C54.1984 1.42628 54.2504 1.6226 54.0795 1.94434C54.0313 2.03518 54.0571 2.16528 54.0492 2.27722C54.1476 2.24147 54.246 2.20572 54.3271 2.17612C54.3946 2.60687 54.4631 3.04406 54.5321 3.48389C54.4816 3.48887 54.3879 3.49854 54.2942 3.50762C54.5121 3.58469 54.7206 3.64446 54.5291 3.85309C55.1538 3.85309 55.8082 3.85749 56.462 3.84401C56.5093 3.84313 56.5536 3.71274 56.5995 3.6427C56.8923 3.84958 57.7126 3.7813 57.9646 3.52989C57.9846 3.5756 58.0031 3.65882 58.0248 3.6597C58.5221 3.67962 59.0202 3.69662 59.518 3.69603C59.5809 3.69603 59.6387 3.55509 59.7078 3.54601C60.069 3.49766 60.4077 3.82467 60.7877 3.61809C60.8056 3.60842 60.8744 3.69135 60.9833 3.78716C60.9275 3.57619 60.8955 3.45429 60.8632 3.33239C61.0497 3.79566 61.3851 3.52286 61.6674 3.50498C61.8036 3.49648 61.9411 3.50352 62.078 3.50352C62.0791 3.53692 62.0803 3.57062 62.0815 3.60402C61.9828 3.63684 61.8841 3.66966 61.7851 3.70277C62.2054 3.83405 62.663 3.36521 63.0029 3.93631C63.0563 3.72827 63.0898 3.59846 63.123 3.46865C63.1858 3.71948 63.8346 3.30221 63.5192 3.90056H64.5272C64.3436 3.98642 64.2673 4.02217 64.1912 4.05762C64.3069 4.15725 64.4693 4.22523 64.5169 4.17806C64.756 3.941 64.9836 4.07989 65.2394 4.12004C65.4253 4.14934 65.6342 4.03242 65.8785 3.96913C65.7361 3.8487 65.6682 3.79127 65.603 3.73647C65.8092 3.69252 66.0371 3.7101 66.1602 3.6052C66.4774 3.33503 66.8915 3.15248 67.0495 2.71616C67.0748 2.64584 67.1858 2.61097 67.2413 2.54621C67.3861 2.37626 67.5151 2.19253 67.6649 2.02756C67.7318 1.95342 67.8334 1.91035 67.9195 1.85292C68.0179 1.8116 68.0725 1.65776 68.1636 1.63227C68.4611 1.54935 68.7718 1.5133 69.0247 1.46847C69.0808 1.37646 69.1122 1.25544 69.1704 1.24079C69.7787 1.08666 70.3907 1.14263 70.9999 1.24343C71.0915 1.25867 71.1782 1.3161 71.2622 1.36269C71.4446 1.46437 71.8625 1.0682 71.8358 1.6519C71.829 1.79461 72.0411 1.94698 72.1556 2.09935C72.1706 2.0929 72.2246 2.07005 72.3195 2.0299C72.311 2.63969 72.3474 3.20786 71.6058 3.42645C71.7412 3.49238 71.8328 3.53663 71.9025 3.57033C71.8443 3.75317 71.8275 3.9328 71.7362 4.0585C71.6449 4.18392 71.4792 4.25541 71.3168 4.37145C71.4542 4.71839 71.1056 4.85992 70.9027 5.08028C70.5975 5.41169 70.6369 5.55263 71.187 5.68947C70.9414 5.82162 70.7793 5.90924 70.6007 6.00564C70.6577 6.05223 70.732 6.11318 70.8034 6.17179C70.7106 6.25706 70.6248 6.33588 70.6063 6.35317C70.7106 6.52312 70.7743 6.62978 70.841 6.73468C70.9691 6.9357 71.068 7.16748 71.2346 7.32982C71.5961 7.6832 71.9941 7.99908 72.3744 8.33342C72.7239 8.64109 73.1087 8.91976 73.4083 9.2708C73.9757 9.93538 74.4838 10.6501 75.0337 11.3302C75.8023 12.2807 76.1674 13.415 76.5313 14.5499C76.5556 14.6267 76.4819 14.7345 76.4796 14.743C76.6018 15.0627 76.7219 15.3097 76.7909 15.5702C77.0958 16.7212 77.2112 17.9182 77.6391 19.0393C77.6479 19.0619 77.665 19.0953 77.6559 19.1079C77.3795 19.4985 77.7701 19.8091 77.8001 20.1669C77.8479 20.7438 78.127 21.305 78.1525 21.8796C78.1822 22.5392 78.06 23.2087 77.9707 23.8698C77.8418 24.8236 77.6794 25.773 77.5413 26.7256C77.521 26.8663 77.5751 27.0163 77.5654 27.1602C77.5296 27.6905 77.3768 28.2382 77.4647 28.7454C77.5722 29.3666 77.7067 29.9682 77.6209 30.6029C77.6012 30.7479 77.6438 30.912 77.6946 31.0541C77.7719 31.2692 77.8814 31.4729 77.988 31.7058C77.8723 31.7765 77.7751 31.8356 77.6779 31.8951L77.7369 31.9822H78.0347C78.0383 32.0071 78.0418 32.0317 78.0453 32.0566C77.9149 32.0888 77.7845 32.1213 77.6541 32.1536C77.6479 32.1943 77.6418 32.2353 77.6353 32.2761C77.7786 32.2969 77.922 32.3177 78.0579 32.337C77.9531 32.4097 77.8394 32.4885 77.6767 32.6013C77.8838 32.6587 78.0245 32.6974 78.2462 32.759C78.1508 32.9784 78.0641 33.178 77.9825 33.3661C78.6439 33.5396 78.1023 33.9223 78.0788 34.2252C78.2057 34.2077 78.3026 34.1945 78.3992 34.181C78.411 34.2138 78.4227 34.2463 78.4345 34.2789C78.3132 34.3392 78.1922 34.3999 77.9572 34.5168C78.1786 34.5833 78.3102 34.6229 78.3963 34.6487C78.3657 34.92 78.3349 35.1934 78.2923 35.5702C78.4171 35.4302 78.4683 35.373 78.5434 35.2886C78.6342 35.4961 78.7302 35.6848 78.7993 35.8829C78.8609 36.0607 78.8932 36.2489 78.9564 36.505C78.8589 36.4874 78.7238 36.4631 78.5778 36.437C78.3381 36.9085 79.0269 36.5516 79.0075 36.8393C78.9153 36.8991 78.8242 36.958 78.6727 37.0559C78.8921 37.1021 79.0292 37.1309 79.1846 37.1637C79.1223 37.2449 79.0786 37.3017 79.0342 37.3594C79.337 37.5499 79.3453 37.7896 79.0771 38.1154C79.1614 38.3709 79.3453 38.5989 79.4845 38.7756C79.8701 39.2652 79.972 39.7868 79.9832 40.3614C79.9847 40.4482 79.9253 40.5364 79.8907 40.6337C79.965 40.7564 80.1121 40.9079 80.1527 41.0838C80.2481 41.4966 80.2954 41.9209 80.3565 42.3414C80.4111 42.7171 80.4581 43.0939 80.5086 43.4704C80.5233 43.5668 80.6464 43.6638 80.6584 43.7728C80.7148 44.28 80.7454 44.7905 80.7741 45.3001C80.7815 45.4337 80.7471 45.5693 80.7339 45.7041C80.6769 46.2881 80.6194 46.8721 80.5644 47.4561C80.5271 47.8538 80.4895 48.2514 80.4637 48.6496C80.4602 48.7068 80.5107 48.8058 80.5577 48.8216C80.9354 48.9488 81.3146 49.1413 81.7005 49.1601C82.4309 49.1952 82.8791 49.7274 83.3931 50.0819C83.8824 50.4189 83.9852 51.0811 83.9024 51.6947C83.8833 51.8377 83.7782 52.039 83.661 52.0862C83.2727 52.2424 82.8633 52.4246 82.4577 52.4364C82.092 52.4466 81.6717 52.7185 81.3222 52.3443C81.2931 52.3127 81.1648 52.3766 81.0816 52.3912C80.9868 52.4082 80.8825 52.4513 80.7973 52.4281C80.2957 52.2919 79.7999 52.1334 79.2977 51.9992C79.2175 51.9778 79.0683 52.0126 79.0298 52.0721C78.833 52.378 78.6618 52.7001 78.4818 53.0165C78.3787 53.1982 78.307 53.4127 78.1619 53.5498C78.072 53.6342 77.8703 53.6005 77.719 53.6202C77.7275 53.5249 77.7357 53.4294 77.7528 53.2372C77.5833 53.396 77.4661 53.5059 77.4194 53.5498C77.4981 53.8054 77.6218 53.9938 77.5813 54.1347C77.5384 54.2833 77.3384 54.387 77.2071 54.5104C77.1865 54.4899 77.166 54.4691 77.1457 54.4482C77.166 54.3398 77.1865 54.2317 77.2174 54.0702C77.0699 54.1766 76.9759 54.2443 76.8819 54.312C76.9527 54.4187 77.01 54.5051 77.0388 54.5482C76.8593 54.6487 76.6857 54.7137 76.5533 54.8265C76.2851 55.056 76.0563 55.3329 75.7788 55.5488C75.5603 55.7194 75.3291 55.8463 75.241 56.1446C75.2137 56.2374 75.0269 56.2837 74.8874 56.3667C75.0777 56.7655 74.5672 56.7461 74.455 56.9885C74.2615 57.4072 73.8994 56.9688 73.6996 57.1725C73.6612 57.3298 73.6186 57.5432 73.507 57.5889C73.1155 57.7489 72.7001 57.8511 72.311 57.9701C72.2851 58.1137 72.185 58.3091 72.2437 58.4222C72.3683 58.6622 71.8384 58.996 72.3418 59.1111C72.2957 59.2881 72.1826 59.5301 72.2311 59.5685C72.4763 59.7619 72.2602 59.9292 72.2517 60.1056C72.2461 60.2182 72.2746 60.3336 72.2975 60.4458C72.3092 60.5033 72.365 60.5572 72.3624 60.6108C72.3536 60.8013 71.8217 61.2461 71.6008 61.264C71.5717 61.2663 71.5447 61.2968 71.451 61.3554C71.5735 61.4178 71.6675 61.4659 71.6898 61.477C71.5403 61.6393 71.4325 61.7513 71.33 61.8679C71.1415 62.0824 70.9873 62.4264 70.7605 62.4824C70.4924 62.5492 70.4336 62.6843 70.3484 62.87C70.3291 62.9122 70.2835 62.9427 70.2501 62.9784C70.2468 62.9506 70.2436 62.9228 70.2404 62.8949C69.734 62.9298 69.2277 62.965 68.7216 63.0001C68.7395 62.9579 68.7574 62.9154 68.7757 62.8733C68.7219 62.7968 68.672 62.7177 68.6144 62.6441C68.4664 62.456 68.2482 62.2922 68.1797 62.0795C68.0446 61.6598 67.9756 61.2162 67.9148 60.7775C67.8951 60.636 68.0167 60.4795 68.0197 60.3289C68.0252 60.04 67.9923 59.7502 67.9721 59.403C67.75 59.4317 67.4904 59.4651 67.357 59.4824C67.1702 59.4434 67.0868 59.4068 67.0075 59.4141C66.8789 59.4258 66.7541 59.4833 66.6257 59.4912C66.1813 59.5196 65.7355 59.5249 65.2917 59.5577C64.8597 59.5893 64.4303 59.6676 63.9982 59.6831C63.1847 59.7121 62.3702 59.7057 61.5561 59.7241C61.1328 59.7338 60.7093 59.7877 60.2875 59.7745C60.1143 59.7693 59.9489 59.5961 59.7724 59.5791C59.5964 59.5621 59.412 59.6688 59.2287 59.6781C58.9612 59.6919 58.6892 59.6846 58.4228 59.6529C58.2469 59.6318 58.0463 59.594 57.9123 59.4912C57.6727 59.3077 57.5329 59.3751 57.4001 59.5952C56.712 59.3573 55.884 59.4792 55.3621 58.7856C55.3001 58.8785 55.2487 58.9555 55.2038 59.0232C55.0516 58.9787 54.918 58.9544 54.7973 58.9013C54.5585 58.7961 54.2528 58.732 54.11 58.5471C53.9129 58.2912 53.6445 58.2051 53.401 58.1729C53.0248 58.1228 52.6309 58.2004 52.2218 58.225C52.4021 58.5459 52.2573 58.7258 52.0041 58.8808C51.909 58.9388 51.7815 59.0455 51.7786 59.134C51.7677 59.4628 51.5765 59.5515 51.3254 59.5448C51.2757 59.7162 51.2781 59.9064 51.1841 59.9966C50.8234 60.3433 50.377 60.5675 49.915 60.7526C49.4982 60.9197 49.0776 60.8734 48.6418 60.7931C48.1302 60.6987 47.7671 60.3178 47.8218 59.8082C47.8376 59.66 47.9569 59.5196 47.9607 59.374C47.9739 58.8585 48.22 58.4729 48.5801 58.1362C48.6603 58.0615 48.7484 57.9827 48.7957 57.8872C49.0562 57.3606 49.2879 56.8194 49.564 56.3019C49.777 55.9034 49.7056 55.7138 49.2724 55.548C49.0641 55.4683 48.8909 55.2966 48.7026 55.165C48.5945 55.0894 48.4882 55.0114 48.4653 54.995C48.2512 54.6639 48.1128 54.2138 47.9099 54.1825C47.4035 54.1048 47.3557 53.629 47.037 53.3928H47.2916C47.2925 53.3723 47.2934 53.3515 47.2946 53.331C47.0919 53.2882 46.8892 53.2454 46.6728 53.1997C46.7718 53.0409 46.8326 52.9436 46.8428 52.9266C46.6193 52.8659 46.3938 52.8656 46.2672 52.754C46.1171 52.6215 46.0522 52.3927 45.9277 52.1641C45.9291 52.1612 45.9682 52.0941 46.0243 51.9977C45.8504 51.9324 45.7041 51.8778 45.5593 51.8233C45.5737 51.7454 45.5875 51.673 45.601 51.6004C45.5637 51.6185 45.5264 51.6367 45.4894 51.6549C45.4002 51.5476 45.3029 51.4453 45.2236 51.3311C45.1158 51.1752 45.0468 50.8977 44.9176 50.8693C44.4856 50.774 44.5343 50.4962 44.5901 50.2208C44.4007 50.1581 44.2362 50.1036 44.0497 50.0418C44.1275 49.9287 44.1804 49.8513 44.2333 49.7742C44.1995 49.7862 44.1657 49.7983 44.1319 49.8103C43.9628 49.526 43.7912 49.2427 43.6247 48.957C43.5469 48.8231 43.4908 48.6751 43.4027 48.5491C43.2355 48.3097 43.0373 48.0905 42.8851 47.8426C42.8411 47.7708 42.9104 47.6302 42.9201 47.5675C42.8179 47.3448 42.7227 47.1382 42.6003 46.8721C42.7847 46.8484 43.0361 46.7687 43.0672 46.8203C43.2194 47.0749 43.3134 47.3641 43.4414 47.6738C43.4937 47.7272 43.6103 47.8019 43.6632 47.908C43.882 48.3487 44.0808 48.7993 44.2899 49.245C44.304 49.2752 44.3422 49.3057 44.3745 49.3142C44.7211 49.4041 44.6245 49.6087 44.472 49.8328C44.628 49.8443 44.7475 49.8531 44.8668 49.8618C44.8468 49.8932 44.8271 49.9246 44.8072 49.9562C44.8944 50.0397 44.9922 50.1147 45.0659 50.2085C45.1432 50.3072 45.1975 50.4239 45.2618 50.5323C45.2324 50.5519 45.2028 50.5713 45.1731 50.5906C45.3843 50.7532 45.6663 50.7866 45.7071 51.1857C45.7312 51.4225 46.1588 51.6024 46.367 51.8409C46.5556 52.0569 46.693 52.3174 46.8848 52.606C47.3286 52.6432 47.8526 53.2114 47.8737 53.7327C48.1134 53.876 48.4051 53.9589 48.5402 54.1508C48.8189 54.547 49.1158 54.891 49.5582 55.107C49.6859 55.1694 49.8284 55.2784 49.8818 55.4017C50.0354 55.7543 50.3159 55.9488 50.6337 56.1211C50.7515 56.185 50.9486 56.2876 50.9436 56.3611C50.9233 56.6576 51.1495 56.6008 51.2969 56.6615C51.4866 56.7397 51.7375 56.7602 51.684 57.1027H52.9317C52.9804 57.1942 52.9992 57.2938 53.0562 57.3254C53.3508 57.4898 53.6501 57.6469 53.9564 57.7875C54.7247 58.1403 55.4901 58.5005 56.272 58.8213C56.6479 58.9757 57.1217 58.7885 57.4641 59.1267C57.4938 59.1557 57.6019 59.0974 57.6741 59.0933C58.157 59.0645 58.6428 58.9948 59.1218 59.0256C59.7186 59.0634 60.3028 59.2377 60.914 59.1029C61.1281 59.0557 61.4148 59.047 61.5834 59.1539C61.7901 59.2852 61.8853 59.2688 62.0154 59.0502C62.033 59.1806 62.0439 59.2609 62.046 59.2749C62.8349 59.1618 63.6088 59.0508 64.3768 58.9409C64.4103 59.0935 64.4267 59.17 64.4435 59.2462C64.4667 59.2436 64.4899 59.2409 64.5131 59.2383C64.5222 59.1694 64.5313 59.1009 64.5522 58.945C64.6297 59.0686 64.6667 59.1272 64.6597 59.1158C64.8045 59.0522 64.914 58.9626 65.0224 58.9643C65.285 58.9678 65.5519 59.0616 65.8077 59.0326C66.2833 58.979 66.7611 58.8966 67.2214 58.7668C67.8966 58.5767 68.625 58.7155 69.2802 58.3885C69.6007 58.2285 69.966 58.1588 70.3144 58.0469C70.3587 58.1011 70.4081 58.162 70.5047 58.2807V57.9405C70.6128 57.9212 70.7041 57.9194 70.7834 57.888C71.6243 57.556 72.4714 57.2372 73.2996 56.8754C73.623 56.7338 73.9405 56.5325 74.1939 56.2893C74.6198 55.8803 74.9905 55.4143 75.3899 54.9774C75.431 54.9326 75.5153 54.9303 75.5714 54.8954C75.6898 54.821 75.8402 54.7621 75.9098 54.6537C76.0519 54.4318 76.1321 54.171 76.2719 53.9472C76.3448 53.83 76.4963 53.672 76.5997 53.6805C76.9213 53.7081 77.0082 53.4561 77.1536 53.2864C77.3859 53.0151 77.5877 52.7182 77.8065 52.4352C77.904 52.3089 78.0377 52.2037 78.1108 52.0657C78.5922 51.1555 79.0756 50.246 79.5274 49.3212C79.6854 48.9971 79.7491 48.6282 79.866 48.2833C79.9952 47.9021 79.812 47.5165 79.9197 47.1206C80.0178 46.7608 79.9729 46.3629 80.0046 45.9828C80.0105 45.911 80.0795 45.8445 80.0877 45.8298C80.0501 45.7185 79.9999 45.6344 79.9958 45.548C79.972 45.046 79.9732 44.5423 79.9362 44.0412C79.9195 43.8168 79.7573 43.5841 79.7935 43.3784C79.9015 42.7648 79.7409 42.1981 79.5887 41.6253C79.3435 40.7022 79.1074 39.7763 78.8363 38.8609C78.5822 38.0035 78.2867 37.1584 78.0112 36.3072C77.981 36.2134 77.954 36.1179 77.9384 36.0209C77.8711 35.596 77.7199 35.1597 77.7695 34.7483C77.8218 34.3134 77.5583 33.9911 77.5328 33.5744C77.4802 32.7282 77.161 31.8983 76.9536 31.0615C76.9328 30.9774 76.9154 30.8904 76.9113 30.8042C76.8632 29.8094 76.8115 28.8149 76.7753 27.8198C76.7615 27.4318 76.7539 27.0386 76.8003 26.6547C76.8414 26.3186 77.0168 25.9951 77.035 25.6611C77.0617 25.1705 76.9974 24.6756 76.9824 24.1822C76.9803 24.1142 77.0473 24.0471 77.0676 23.9756C77.1601 23.6474 77.3202 23.3201 77.1016 22.9734C77.1768 22.921 77.2523 22.8683 77.3504 22.7997C77.2541 22.727 77.1815 22.6722 77.0996 22.6107C77.2041 22.5128 77.297 22.4261 77.4247 22.3065C77.2714 22.2983 77.1704 22.293 77.0599 22.2872C77.0494 21.603 77.2285 20.9489 77.0297 20.2864C76.8781 19.7818 76.7985 19.2541 76.7128 18.7325C76.6931 18.6127 76.7792 18.4755 76.8238 18.322C76.7627 18.2382 76.6041 18.1131 76.5759 17.963C76.5078 17.602 76.5177 17.2296 76.4102 16.8698C76.358 16.6954 76.3729 16.5009 76.3544 16.2796C76.3201 16.2609 76.1944 16.2339 76.18 16.1782C76.0255 15.5825 75.8922 14.9812 75.7453 14.3835C75.6751 14.0987 75.5832 13.8194 75.5112 13.5349C75.3837 13.0318 75.1984 12.5486 74.8251 12.1823C74.3763 11.7416 74.3117 11.0565 73.7801 10.6559C73.6347 10.546 73.6033 10.253 73.3619 10.1302C73.1281 10.0116 72.8978 9.85509 72.7201 9.66462C72.365 9.28428 72.0508 8.86643 71.7107 8.47173C71.649 8.40023 71.5424 8.36829 71.4584 8.31467C71.3955 8.27452 71.2786 8.21914 71.2842 8.18779C71.3564 7.77462 70.9335 7.87923 70.7734 7.71075C70.6016 7.52966 70.3117 7.46724 70.1061 7.31018C69.8671 7.12704 69.7067 7.12646 69.5672 7.38783C69.685 7.37142 69.7948 7.35648 69.9044 7.34124C69.9205 7.37406 69.9367 7.40629 69.9525 7.43911C69.6171 7.6665 69.2817 7.89388 68.9463 8.12098L69.0147 8.19834C68.6508 8.37708 68.5706 8.0697 68.4902 7.86869C68.4558 7.78254 68.5965 7.61053 68.6825 7.49625C68.8987 7.2088 69.1633 6.95211 69.3443 6.64531C69.5443 6.3057 69.5105 5.81547 70.0072 5.67629C70.0166 5.67365 70.0216 5.65665 70.0286 5.6464C70.6366 4.77905 71.3186 3.96034 71.6883 2.94296C71.8493 2.49933 71.777 2.01642 71.4164 1.81893C70.698 1.4254 69.6127 1.4758 68.8 2.05042C68.7196 2.10726 68.6282 2.15004 68.5395 2.19546C68.3747 2.27956 68.1835 2.33201 68.047 2.44834C67.5759 2.85008 67.12 3.26969 66.6665 3.69164C66.5579 3.79244 66.4818 3.9284 66.3899 4.04737C66.2125 4.27651 66.0316 4.50273 65.8577 4.73422C65.6612 4.9953 65.4785 5.26693 65.2756 5.52274C65.075 5.77562 64.8708 6.02938 64.6385 6.25178C64.5627 6.32416 64.3936 6.29925 64.2673 6.31889C64.272 6.20373 64.2388 6.06776 64.2893 5.97839C64.3771 5.82426 64.5166 5.69943 64.6341 5.56201C64.8059 5.3607 65.0165 5.17727 64.9789 4.88014C64.7225 4.80923 64.4896 4.74389 64.2561 4.6803C63.7806 4.55108 63.3071 4.4113 62.8275 4.29908C62.6125 4.24897 62.384 4.25629 62.162 4.23549C60.9525 4.12062 59.7433 4.04737 58.5365 4.26362C58.3461 4.29761 58.13 4.49892 57.9858 4.18333C57.9781 4.16692 57.8935 4.1845 57.8451 4.18773C57.7079 4.1971 57.571 4.20707 57.4274 4.21732C57.4257 4.24633 57.4213 4.31373 57.418 4.36383C57.2459 4.319 56.981 4.2267 56.9701 4.25073C56.8062 4.60646 56.6582 4.34362 56.4908 4.26743C56.3951 4.22406 56.2696 4.22904 56.1595 4.23695C55.7269 4.26772 55.2939 4.30201 54.8625 4.34655C54.3814 4.39577 53.8962 4.42889 53.4227 4.52031C52.517 4.69524 51.6458 5.01581 50.7192 5.12833C50.4824 5.15675 50.056 5.1843 49.9635 5.59043C49.9608 5.60244 49.9235 5.60625 49.8886 5.61915C49.9018 5.54765 49.9135 5.48465 49.9426 5.32554C49.4392 5.52684 48.9981 5.70295 48.5449 5.88404C48.5816 5.82075 48.6159 5.76185 48.7046 5.60948C48.4409 5.66515 48.2535 5.70969 48.0641 5.74397C47.5947 5.82866 47.3653 6.30541 46.864 6.4021C46.2525 6.5199 45.7247 6.87211 45.2577 7.32776C44.8242 7.75089 44.2814 8.06003 43.8165 8.45415C43.4053 8.80255 43.0314 9.19491 42.6481 9.57496C42.301 9.91897 41.9632 10.2726 41.6093 10.6345C41.5432 11.0245 41.065 11.0667 40.8451 11.3436C40.9279 11.3982 41.0089 11.4512 41.0988 11.5101C40.92 11.6847 40.7105 11.8066 40.6286 11.9862C40.4509 12.3748 40.3516 12.7982 40.1939 13.1973C40.099 13.4376 40.1443 13.5431 40.4063 13.5598C40.7757 13.5838 41.1587 13.4739 41.5118 13.6729C41.5511 13.6949 41.6128 13.6934 41.6595 13.6831C42.1626 13.5733 42.6114 13.774 43.027 13.9885C43.3598 14.1605 43.7821 14.3981 43.892 14.7043C44.0444 15.1298 44.4682 15.1064 44.6019 15.4281C44.6086 15.5673 44.6389 15.7012 44.6879 15.8281C44.7878 16.0868 44.8973 16.3417 45.0321 16.6691C45.2401 16.7171 45.5632 16.7804 45.8777 16.8727C45.9538 16.895 46.0052 17.0107 46.0616 17.0881C46.3145 17.4338 46.5603 17.7849 46.8202 18.1254C46.8787 18.2022 46.9838 18.2441 47.0675 18.3021C47.0854 18.1802 47.1383 18.0515 47.1151 17.9378C47.0226 17.4834 46.9057 17.0336 46.8003 16.5817C46.7894 16.5351 46.7817 16.4806 46.795 16.4367C46.9729 15.8501 47.1439 15.2614 47.3383 14.6806C47.5322 14.1016 47.6555 13.4777 48.223 13.1038C48.2632 13.0772 48.3149 13.0364 48.3219 12.9954C48.4021 12.5333 48.764 12.2535 48.9892 11.8934C49.2454 11.4846 49.6245 11.2581 49.9179 10.9243C50.0804 10.7394 50.3459 10.6351 50.5785 10.5229C50.8716 10.3814 51.2467 10.3398 51.4658 10.1297C51.9886 9.628 52.6092 9.3968 53.2923 9.28868C53.8745 9.19667 54.461 9.1237 55.0484 9.07711C55.3641 9.05221 55.7313 9.20253 55.9915 9.08649C56.2441 8.97397 56.41 8.99272 56.6285 9.07213C56.8271 9.14421 57.0406 9.17821 57.2356 9.2582C57.6451 9.4264 58.0325 9.66257 58.4542 9.78125C59.0058 9.93655 59.5245 10.0731 59.9571 10.5123C60.4558 11.0187 61.0459 11.4365 61.6019 11.8863C62.112 12.2986 62.342 12.8946 62.5834 13.461C62.8633 14.1186 63.1277 14.8072 63.2352 15.5075C63.3559 16.2952 63.2695 17.1121 63.3195 17.9135C63.3597 18.557 63.1465 19.1258 62.9441 19.713C62.7456 20.2899 62.2275 20.7128 62.1755 21.3554C62.1725 21.3932 62.0953 21.428 62.0483 21.4582C61.9802 21.5019 61.8835 21.523 61.8421 21.5833C61.6735 21.8292 61.4362 22.0695 61.3813 22.3432C61.2779 22.8592 60.8106 22.9535 60.4981 23.1997C59.985 23.6046 59.3077 23.784 58.8801 24.3249C58.8393 24.3767 58.7532 24.4324 58.6957 24.4254C58.2601 24.3703 57.9617 24.9112 57.4929 24.6964C57.4744 24.6879 57.433 24.6941 57.4221 24.7087C57.1064 25.1307 56.7029 24.9566 56.3116 24.8763C56.2417 24.862 56.1495 24.8344 56.0993 24.8649C55.5721 25.1861 54.9776 25.1585 54.399 25.1916C54.0654 25.211 53.7285 25.1743 53.3931 25.1606C53.3722 25.1597 53.352 25.1363 53.3208 25.1166C53.3352 25.0404 53.3502 24.9604 53.3734 24.8371C53.0207 24.7662 52.6835 24.6982 52.2685 24.6147C52.3989 24.7735 52.4673 24.857 52.5443 24.9508C52.0987 24.9971 51.9407 24.876 51.9701 24.5587C51.7971 24.5707 51.5824 24.6542 51.4514 24.5833C50.8922 24.2806 50.3415 23.9554 49.8219 23.59C49.599 23.4335 49.4636 23.1557 49.2794 22.9406C48.9628 22.5702 48.593 22.2356 48.331 21.8309C48.0673 21.4234 47.9157 20.9448 47.6966 20.5062C47.6347 20.3817 47.5093 20.2888 47.3912 20.1569C47.3031 20.5938 47.2355 20.9311 47.1668 21.2722C47.1877 21.2777 47.2499 21.295 47.2564 21.2968C47.1647 21.484 47.0963 21.6516 47.0038 21.8043C46.9374 21.9139 46.8581 22.0469 46.7509 22.0947C46.3197 22.2866 45.9103 22.4891 45.6354 22.9025C45.5726 22.9975 45.4049 23.04 45.2768 23.0713C45.1023 23.1138 44.9191 23.1188 44.7408 23.1457C44.371 23.2014 44.0021 23.2606 43.5806 23.3268C43.6417 23.4297 43.7216 23.5642 43.788 23.6761C43.7457 23.8809 43.5971 24.1974 43.6799 24.2789C43.887 24.4822 43.7043 24.5816 43.6608 24.7222C43.625 24.8391 43.5877 24.9552 43.5507 25.0718C43.5069 25.1726 43.3275 25.2277 43.2922 25.3311C43.2552 25.4398 43.3918 25.5978 43.3821 25.7287C43.378 25.7847 43.193 25.8237 43.0957 25.8805C43.0831 25.8879 43.1048 25.9547 43.111 25.9945H42.5812C42.5817 26.0229 42.582 26.0517 42.5826 26.0801H42.9744C42.8487 26.325 42.7571 26.514 42.6516 26.6954C42.6364 26.7218 42.5547 26.7189 42.5051 26.7145C42.4375 26.7083 42.36 26.6573 42.3065 26.6778C41.6859 26.9155 41.5467 26.914 41.147 26.4235C40.9614 26.1955 40.8903 25.8744 40.7713 25.594C40.7197 25.4721 40.6404 25.3463 40.6395 25.2218C40.6374 24.8813 40.4292 24.792 40.1496 24.7383C39.9783 24.7055 39.8109 24.6393 39.6491 24.5719C39.4693 24.4966 39.3801 24.496 39.301 24.7246C39.0749 25.38 39.1339 26.0596 39.0708 26.7288C39.0602 26.8408 39.0141 26.9492 38.9968 27.0128C39.0532 27.1259 39.138 27.2214 39.1433 27.3216C39.1563 27.5534 39.1145 27.7884 39.1245 28.0208C39.1483 28.5719 39.1918 29.1222 39.2232 29.6734C39.2567 30.2645 39.289 30.8558 39.3151 31.4471C39.3469 32.1518 39.3707 32.8565 39.3997 33.5613C39.405 33.6925 39.4024 33.827 39.4315 33.9533C39.5119 34.3026 39.603 34.6493 39.6993 34.9944C39.744 35.1541 39.8241 35.3039 39.865 35.4641C39.9454 35.7815 40.03 36.1003 40.0758 36.4235C40.1381 36.8636 40.1319 37.3149 40.2162 37.7497C40.3414 38.3926 40.5208 39.0253 40.6747 39.6629C40.6982 39.7607 40.6915 39.8686 40.7282 39.96C40.8888 40.3617 41.0918 40.7547 40.8689 41.1828C41.3673 41.5034 41.5599 42.0182 41.3964 42.1943C41.5532 42.7215 41.693 43.185 41.8219 43.6515C41.8257 43.6647 41.7185 43.7084 41.6357 43.7523C41.7967 43.8698 41.9426 43.9768 42.0886 44.0834C42.0619 44.0562 42.0355 44.0286 42.009 44.0014C41.9189 44.0653 41.8287 44.1294 41.7382 44.1933C42.0669 44.3958 42.2807 44.5153 42.2716 44.6144C42.2196 45.1805 42.6804 45.5154 42.8396 45.9805C42.9122 46.1929 43.0238 46.3919 43.1169 46.5955C42.9644 46.616 42.8346 46.6503 42.706 46.6462C42.6049 46.6427 42.4452 46.6213 42.4143 46.558C42.2328 46.1844 42.0798 45.7967 41.9206 45.4123C41.8669 45.2819 41.8219 45.1477 41.7764 45.0141C41.7232 44.8567 41.6739 44.6982 41.6055 44.4858C41.609 44.4547 41.6381 44.2478 41.6319 44.2466C41.327 44.1945 41.3053 43.8892 41.1426 43.7157C40.8289 43.3822 40.8333 42.9477 40.7669 42.5369C40.7261 42.2831 40.6988 42.0273 40.6647 41.7656C40.6392 41.753 40.4923 41.7269 40.4697 41.6592C40.4312 41.5456 40.4718 41.4055 40.4738 41.3724C40.3323 40.9094 40.1875 40.5261 40.1046 40.13C40.0529 39.8826 40.0949 39.6163 40.0949 39.3696C39.9023 39.345 39.7816 39.3297 39.6118 39.3083C39.6118 38.7712 39.6391 38.249 39.6012 37.7316C39.5795 37.4371 39.4617 37.1467 39.3657 36.8616C39.3254 36.7417 39.1836 36.6468 39.1671 36.5293C39.0705 35.8401 38.9941 35.1477 38.9178 34.4559C38.8834 34.1444 38.894 33.8256 38.8297 33.5214C38.7903 33.3362 38.6893 33.1106 38.5424 33.0115C38.0634 32.6878 37.4701 32.6107 36.9875 32.2336C36.5108 31.8614 35.8538 31.976 35.2629 31.9432C34.7824 31.9162 34.2986 31.8752 33.827 31.7841C33.5335 31.7272 33.0304 31.9294 32.9262 32.2321C32.7778 32.6623 32.4133 32.8946 31.9196 32.8354C31.0135 32.727 30.1221 32.4481 29.1923 32.6473C29.0072 32.6869 28.7872 32.6001 28.6166 32.6623C27.9652 32.8999 27.4265 32.5697 27.3763 31.8699C27.3416 31.3876 27.2244 31.2185 26.7768 31.3035C26.2499 31.4031 25.8455 31.1353 25.4178 30.9771C24.96 30.8074 24.564 30.4792 24.125 30.2513C23.1672 29.7543 22.1918 29.7279 21.1861 30.1405C20.8848 30.2642 20.5323 30.2624 20.2049 30.3248C19.8662 30.3893 19.3966 30.3509 19.2227 30.5572C18.9725 30.8546 18.7125 30.7075 18.4696 30.7843C18.324 30.83 18.1624 30.8244 18.0135 30.8631C17.7703 30.9264 17.533 31.0122 17.2904 31.0785C16.9077 31.1831 16.5047 31.2379 16.1432 31.3905C15.7135 31.5725 15.3396 31.8951 14.9032 32.0493C14.2846 32.2676 13.7483 32.5729 13.3016 33.0499C13.2035 33.1548 13.0651 33.2398 12.9292 33.2893C12.3608 33.4965 11.8836 33.8089 11.6418 34.28C11.3528 34.3445 11.1226 34.3618 10.9229 34.4491C10.7014 34.5464 10.5234 34.753 10.2984 34.8312C9.8335 34.9927 9.35358 35.1163 8.87337 35.2259C8.44838 35.3226 7.99519 35.3253 7.58958 35.4683C7.1358 35.6282 6.76397 35.1738 6.33164 35.3792C6.30726 35.3906 6.26232 35.3592 6.22708 35.3466C5.79973 35.1946 5.37445 35.0358 4.94417 34.8922C4.70685 34.8131 4.46366 34.7729 4.48569 34.4268C4.49127 34.3395 4.37291 34.2396 4.30154 34.1535C4.21137 34.0447 4.10916 33.946 4.01606 33.8393C3.94527 33.7582 3.88506 33.6676 3.81252 33.5882C3.54906 33.2987 3.28238 33.0124 3.01687 32.7244C3.00894 32.7153 2.99866 32.7024 2.99954 32.6919C3.03008 32.3355 2.84064 32.0405 2.64973 31.7914C2.25088 31.271 1.96334 30.716 1.8394 30.0731C1.82148 29.9796 1.76215 29.8935 1.71957 29.805C1.55773 29.4712 1.35214 29.1516 1.24141 28.8017C1.00674 28.0624 0.786461 27.3146 0.627566 26.5562C0.500391 25.95 0.47014 25.3232 0.402881 24.7049C0.380266 24.4972 0.393189 24.2847 0.360881 24.0787C0.318294 23.808 0.150881 23.5191 0.20786 23.2779C0.32358 22.7891 0.14207 22.3625 0.0850908 21.9071C0.0213565 21.3979 -0.0435526 20.8654 0.0386852 20.367C0.159986 19.6301 0.414629 18.9204 0.359412 18.15C0.336797 17.8394 0.440182 17.515 0.514196 17.2035C0.697175 16.4332 0.890433 15.6652 1.09192 14.8995C1.15917 14.6443 1.26109 14.3975 1.35361 14.1496C1.43849 13.9217 1.59474 13.701 1.60943 13.4704C1.63997 12.9805 1.83117 12.567 2.06731 12.1559C2.24618 11.8447 2.50347 11.5297 2.53871 11.1968C2.586 10.7444 2.76399 10.3843 2.98603 10.0183C3.10674 9.81963 3.20983 9.61042 3.32731 9.40969C3.44832 9.20253 3.5661 8.99214 3.70943 8.80079C3.75143 8.74482 3.87537 8.74981 3.97464 8.72343C3.93206 8.66541 3.89006 8.60828 3.89094 8.60974C4.10593 8.32785 4.29684 8.05651 4.51095 7.80481C4.61404 7.68379 4.76089 7.59969 4.82668 7.54695C5.05284 7.37875 5.20087 7.26125 5.35653 7.15488C5.47255 7.07547 5.69576 6.93629 5.70545 6.94888C5.95217 7.27414 5.94218 6.81761 6.07964 6.83021C6.12369 6.83431 6.17039 6.78216 6.21768 6.77776C6.66147 6.73703 7.10555 6.67696 7.55022 6.67374C7.79106 6.67198 8.03073 6.79827 8.27509 6.81644C9.05517 6.87416 9.80794 6.99782 10.4465 7.50006C10.7108 7.70782 10.9922 7.89447 11.2509 8.10838C11.3552 8.19482 11.4022 8.34954 11.5059 8.43656C11.7631 8.65223 12.0519 8.83127 12.3024 9.05367C12.6877 9.39592 13.0463 9.76806 13.4264 10.1162C13.6972 10.3641 13.9815 10.5976 14.2655 10.8306C14.5616 11.0735 14.8585 11.3167 15.1675 11.5426C15.3058 11.6437 15.5282 11.6639 15.6201 11.7888C15.9905 12.291 16.5597 12.5157 17.0519 12.8363C17.5019 13.1293 18.0229 13.3128 18.5099 13.5507C18.9252 13.7538 19.332 13.9741 19.7508 14.1704C19.9567 14.2671 20.1799 14.3278 20.3961 14.4022C20.6011 14.4728 20.8028 14.5733 21.0137 14.5994C21.217 14.6249 21.3571 14.6378 21.3124 14.8957C21.3039 14.9446 21.3806 15.0085 21.4364 15.0932C21.4869 14.9821 21.5192 14.9115 21.5515 14.8409C21.5853 15.1875 22.269 14.7333 22.0972 15.1899C22.2822 15.2924 22.4165 15.3924 22.5671 15.4442C22.766 15.5125 22.9851 15.5219 23.1819 15.5931C23.6412 15.7601 24.0921 15.9503 24.5476 16.1281C24.9006 16.2659 25.2481 16.427 25.6123 16.5269C26.0323 16.6427 26.4646 16.7253 26.8972 16.7804C27.3378 16.8367 27.7845 16.8598 28.2289 16.8616C28.433 16.8624 28.6369 16.7751 28.8422 16.7347C28.8909 16.7253 28.9482 16.7564 28.9964 16.7455C29.0933 16.7241 29.1905 16.6532 29.2804 16.6635C29.4302 16.6808 29.5829 16.7285 29.7192 16.7951C29.95 16.9076 30.1697 17.0438 30.3932 17.1716C30.4658 17.2132 30.5316 17.2689 30.6073 17.3017C31.2127 17.5651 31.8303 17.8042 32.421 18.097C32.6292 18.2001 32.7737 18.4316 32.9914 18.649C33.2804 18.7091 33.4049 19.0607 33.6202 19.3022C33.7576 19.456 33.8431 19.6843 34.009 19.7786C34.3389 19.9662 34.6966 20.1601 35.0635 20.2164C36.1463 20.3822 36.3411 21.2692 36.0688 22.3306C36.0603 22.364 36.0753 22.4038 36.0791 22.441C36.1625 22.4217 36.2427 22.4032 36.364 22.3754C36.2113 22.8782 36.4862 23.4136 35.9907 23.8607C36.1508 23.8065 36.2286 23.7798 36.3537 23.7374C36.3223 23.8464 36.3014 23.902 36.2906 23.9595C36.2171 24.3539 35.8432 24.6621 35.9998 25.1348C36.0618 25.3217 35.5322 25.7847 35.3648 25.7434C35.1915 25.7006 35.0226 25.6411 34.8905 25.6007C34.7624 25.7384 34.6244 25.8375 34.5571 25.9717C34.4781 26.1287 34.4311 26.3174 34.4346 26.4909C34.4355 26.5442 34.6458 26.5996 34.7648 26.6427C35.0555 26.7488 35.3622 26.8214 35.6359 26.9597C35.808 27.0468 35.9117 27.3081 36.082 27.3512C36.4166 27.4365 36.4577 27.7357 36.6307 27.9355C36.7208 28.0401 36.7761 28.1802 36.8789 28.2675C36.9984 28.3692 37.1544 28.4281 37.2912 28.5107C37.6698 28.7387 38.0466 28.9693 38.4243 29.199C38.4472 29.1744 38.4699 29.1498 38.4931 29.1249C38.4375 29.005 38.3823 28.8849 38.3259 28.763C38.4995 28.7416 38.6725 28.7205 38.9483 28.6865C38.5095 28.5462 38.4217 28.341 38.563 27.988C38.6 28.0943 38.6349 28.1942 38.6693 28.2942L38.7971 28.2581C38.7113 27.915 38.6252 27.5722 38.5395 27.2293C38.4975 27.1543 38.5815 27.0008 38.5456 26.9641C38.3133 26.7277 38.412 26.5803 38.6396 26.4754C38.5727 26.2037 38.5122 25.9579 38.4546 25.7252C38.9504 25.4993 38.4725 24.9059 38.8147 24.719C38.7709 24.5086 38.6737 24.3316 38.7186 24.2044C38.9001 23.6881 39.1101 23.1847 39.1157 22.623C39.116 22.5793 39.2867 22.5371 39.378 22.4944C39.6221 22.4712 39.6788 22.5993 39.6485 22.8135Z" fill="#231F20"/>
</g>
<path fill-rule="evenodd" clip-rule="evenodd" d="M64.1516 45.2852C64.2183 45.2142 64.302 45.1257 64.3818 45.0411C64.4068 44.8902 63.9096 44.7557 64.3742 44.6159C64.3281 44.4732 64.2884 44.3281 64.2344 44.1887C64.1724 44.0284 64.0185 43.9035 64.2391 43.706C64.3175 43.636 64.2127 43.3439 64.168 43.1584C64.0564 42.6939 63.9942 42.6309 63.6699 42.5369C63.6699 42.2081 63.6843 41.8981 63.6584 41.5916C63.6532 41.5274 63.5001 41.4756 63.4179 41.4202C63.7662 41.0146 63.084 41.0205 63.1177 40.7242C63.1389 41.1242 62.8886 41.4647 63.1747 41.9224C63.4975 42.4387 63.568 43.1165 63.7242 43.7301C63.8121 44.0744 63.8682 44.4289 63.9093 44.7823C63.9903 45.4744 63.4978 45.8823 62.8278 45.7097C62.5685 45.6432 62.3717 45.5325 62.1808 45.3271C61.9268 45.0534 61.5893 44.8579 61.2912 44.6244C61.2368 44.5816 61.1995 44.5174 61.1229 44.4257C61.0304 44.4055 60.8606 44.3683 60.6911 44.3311C60.695 44.3065 60.6988 44.2815 60.7026 44.2569C60.818 44.2839 60.9334 44.3108 61.0489 44.3378C61.0803 44.3114 61.1117 44.2851 61.1431 44.2587C60.3196 43.2885 59.9927 42.1416 59.9187 40.85C59.6737 41.1521 59.6687 41.4342 59.7856 41.9535C59.8843 42.3915 59.9407 42.839 60.0297 43.2794C60.0558 43.4078 60.1093 43.5405 60.1842 43.6477C60.5878 44.225 60.5839 45.0334 61.253 45.4659C61.554 45.6605 61.7855 45.9638 62.0889 46.1531C62.4026 46.3491 62.7553 46.5053 63.1116 46.5999C63.2587 46.6389 63.4722 46.4918 63.6344 46.3942C63.7633 46.3169 63.8602 46.1868 64.0021 46.0502C63.9674 46.0233 63.882 45.9565 63.8027 45.8941C63.8024 45.6423 64.4268 45.7367 64.1516 45.2852Z" fill="#231F20"/>
<path fill-rule="evenodd" clip-rule="evenodd" d="M68.8272 4.70703C68.6087 4.91684 68.4557 5.1577 68.2381 5.25704C67.3543 5.65965 66.8074 6.447 66.1069 7.05591C65.9651 7.17927 65.926 7.41984 65.8335 7.6191C66.0168 7.69528 66.1495 7.75066 66.2482 7.79169C66.7825 7.22439 67.295 6.67585 67.8137 6.13318C67.8889 6.05465 67.9875 5.9934 68.0853 5.9433C68.5641 5.69862 68.8155 5.3007 68.8272 4.70703Z" fill="#231F20"/>
<path fill-rule="evenodd" clip-rule="evenodd" d="M16.8889 18.2885C16.8131 18.1511 16.7421 18.0213 16.6707 17.8918C16.7638 18.3369 16.7191 18.8271 17.0319 19.1969C17.0663 19.1872 17.1007 19.1782 17.135 19.1685C17.081 18.8435 17.0269 18.5183 16.9653 18.1482C16.9397 18.1956 16.9183 18.2346 16.8889 18.2885ZM16.955 23.1398C17.375 23.1425 17.565 22.9538 17.4928 22.516C17.4188 22.5069 17.3283 22.4958 17.18 22.4776C17.3168 22.3964 17.4132 22.3393 17.5515 22.257H17.3418C17.3089 21.8936 17.7342 21.5086 17.345 21.2047C17.345 20.7496 17.4173 20.3042 17.3151 19.9031C17.2631 19.6994 17.1791 19.3094 16.7479 19.2552C17.0566 20.5908 16.9949 21.8664 16.955 23.1398ZM13.9871 30.6872C13.9677 30.442 14.2059 30.1809 14.3102 29.9195C14.4185 29.6473 14.5037 29.366 14.6015 29.0891C14.6708 28.8922 14.7446 28.6967 14.8153 28.5004C14.9478 28.1344 15.0897 27.7714 15.2042 27.3998C15.2315 27.3113 15.1716 27.1935 15.1449 27.091C15.1299 27.0338 15.0744 26.9359 15.0823 26.9313C15.4221 26.7258 15.0468 26.4264 15.2409 26.2069C15.1969 26.1958 15.1531 26.1843 15.109 26.1729C15.0594 26.3461 15.0042 26.5178 14.9604 26.6927C14.7868 27.3843 14.6197 28.0779 14.4415 28.7685C14.4091 28.8948 14.3269 29.0076 14.284 29.1322C14.1986 29.3801 14.1237 29.6312 14.0473 29.882C14.03 29.9391 14.0429 30.037 14.0106 30.0528C13.637 30.2371 13.7251 30.631 13.5456 31.0172C13.7918 30.9398 14.0191 31.0863 13.9871 30.6872ZM15.6157 17.5967C15.5132 17.0171 15.4048 16.4387 15.2973 15.86C15.2556 15.6352 15.2306 15.4043 15.161 15.1881C15.065 14.8895 14.9237 14.6055 14.8227 14.3084C14.7819 14.1871 14.8168 14.0409 14.778 13.9187C14.7481 13.8258 14.6702 13.7273 14.5863 13.6802C14.5337 13.6506 14.43 13.7112 14.3495 13.7317C14.3812 13.8237 14.4262 13.9137 14.4415 14.0083C14.462 14.1326 14.4344 14.2686 14.4711 14.3861C14.645 14.9478 14.8703 15.496 15.0057 16.0662C15.1038 16.4812 15.0747 16.9248 15.134 17.3512C15.1584 17.5258 15.2668 17.6887 15.3367 17.8569C15.3035 18.0776 15.27 18.2982 15.2365 18.5189C15.2682 18.5288 15.3005 18.5388 15.3326 18.5487C15.4166 18.406 15.5009 18.2633 15.5531 18.1751C15.4662 18.048 15.3983 17.9486 15.3302 17.8493C15.5572 17.9152 15.6562 17.8253 15.6157 17.5967ZM16.8792 23.689C16.8522 23.7168 16.8249 23.7446 16.7976 23.7725C16.9664 23.9383 17.0766 24.079 16.8169 24.2363C16.7658 24.2674 16.8487 24.5191 16.8777 24.7248C16.9709 24.6137 17.0208 24.554 17.071 24.4942C17.0966 24.5097 17.1221 24.5255 17.1477 24.5411C17.098 24.6117 17.0634 24.7046 16.9961 24.7494C16.6651 24.9706 16.6472 25.0852 16.9471 25.3917C17.2936 24.8921 17.3142 24.3515 17.2223 23.7898C17.4452 23.6945 17.4983 23.5284 17.3359 23.3611C17.2701 23.2931 17.101 23.3247 16.9253 23.3054C17.0689 23.5354 17.1512 23.6673 17.2334 23.7991C17.1154 23.7625 16.9973 23.7259 16.8792 23.689ZM5.227 10.9105C5.01789 10.8853 4.80847 10.8601 4.49127 10.8223C4.33326 11.0696 4.11591 11.411 3.88829 11.7679C3.93352 11.825 3.98874 11.8948 4.03926 11.9592C3.86949 12.1309 3.7012 12.3012 3.53261 12.472C3.84688 12.7853 3.83865 12.8125 3.49091 12.9951C3.169 13.6344 3.27533 14.2888 2.77749 14.7535C2.84769 14.808 2.91994 14.864 3.0104 14.934C2.92347 15.0076 2.86619 15.0791 2.79159 15.1145C2.39391 15.3047 2.20506 15.5552 2.36131 15.925C2.5484 16.3689 2.44414 16.6631 2.13986 16.986C2.0447 17.0871 2.03618 17.3365 2.08288 17.4889C2.17363 17.7845 2.22562 18.0248 1.90225 18.1036C1.87464 18.3501 1.85643 18.5531 1.82735 18.7547C1.81091 18.869 1.74042 18.9862 1.75686 19.0923C1.81561 19.4662 1.92575 19.8331 1.96158 20.2081C1.97215 20.3204 1.81296 20.4584 1.71252 20.5671C1.66699 20.616 1.57477 20.6222 1.46521 20.6614C1.96363 20.8865 2.03295 21.1722 1.69989 21.617C1.5592 21.8054 1.59856 21.9021 1.73102 22.0621C1.80914 22.157 1.86142 22.3683 1.80826 22.4586C1.5965 22.8178 1.58534 23.1079 1.84233 23.4182C2.01973 23.6324 1.89579 23.7464 1.73866 23.807C1.79975 24.1065 1.96892 24.4195 1.89021 24.6474C1.66523 25.3 1.88463 25.8547 2.12312 26.4237C2.13927 26.4624 2.19507 26.4993 2.23854 26.509C2.502 26.567 2.60127 26.6722 2.38363 26.9081C2.35544 26.9383 2.3713 27.028 2.39156 27.0807C2.51845 27.4145 2.65238 27.7456 2.77456 28.0535C2.6838 28.1757 2.59128 28.3006 2.47263 28.4605C2.3851 28.1403 1.87728 28.1242 1.9604 27.6662C2.01533 27.3646 1.62147 27.0423 1.97127 26.7721C1.82383 26.6042 1.59973 26.4595 1.54393 26.2664C1.33921 25.559 1.18619 24.8364 1.02407 24.1174C0.982655 23.9328 0.946823 23.7364 0.96562 23.5515C0.997634 23.2412 1.11306 22.9368 1.12363 22.6276C1.13479 22.2895 1.0834 21.9458 1.02759 21.61C0.985592 21.3565 0.893662 21.1115 0.812012 20.8203C0.883089 20.7045 0.98383 20.5407 1.09279 20.3631C0.999396 20.3189 0.881914 20.2878 0.882501 20.26C0.893368 19.8512 0.910403 19.4419 0.947117 19.0346C0.961508 18.8749 1.1486 18.7125 0.876627 18.5819C0.839326 18.5637 0.898361 18.3354 0.922152 18.2059C0.944767 18.082 0.980012 17.9601 1.00997 17.8376C1.02818 17.7224 1.40853 17.9249 1.22496 17.5443C1.46815 17.4241 1.21791 17.2011 1.32218 17.0628C1.50105 16.8249 1.5498 16.5729 1.55245 16.274C1.5545 16.0349 1.70547 15.8002 1.76891 15.5579C1.85232 15.239 2.15073 14.9044 1.68872 14.6102C1.80503 14.5261 1.93074 14.4804 1.96775 14.396C2.00563 14.3099 1.91605 14.1689 1.95277 14.081C2.10902 13.703 2.329 13.3479 2.45559 12.9614C2.70172 12.2106 3.01863 11.4942 3.33319 10.7707C3.58431 10.1926 3.85393 9.66105 4.28685 9.20277C4.42049 9.06153 4.44751 8.81978 4.58114 8.67884C4.92155 8.32135 5.27987 7.97705 5.66081 7.66293C5.86053 7.49825 6.11047 7.36492 6.35983 7.2943C6.81126 7.16625 7.27942 7.09798 7.73996 7.00157C8.06538 6.93359 8.61256 7.16596 8.70566 7.36697C8.9744 7.43847 9.22464 7.45576 9.42172 7.56682C10.1295 7.96591 10.8297 8.37761 11.3658 9.01699C11.5405 9.22562 11.8263 9.34107 12.0046 9.54795C12.2636 9.84859 12.4692 10.1952 12.7036 10.5176C12.7374 10.5639 12.8137 10.5768 12.8569 10.6189C13.0287 10.7877 13.2123 10.9492 13.3597 11.1379C13.526 11.3509 13.6496 11.5968 13.8088 11.8162C13.8943 11.9343 14.0147 12.0275 14.1193 12.1318C14.1527 12.1222 14.1859 12.1125 14.2191 12.1031C14.1028 11.7535 13.9865 11.4042 13.8626 11.0315C13.8999 11.0441 13.9836 11.0476 14.0264 11.091C14.1795 11.2457 14.3105 11.4215 14.4644 11.5751C14.7581 11.8678 15.0618 12.1506 15.3605 12.4383C15.4022 12.4782 15.4368 12.5564 15.4791 12.5596C15.7558 12.5813 15.8744 12.722 15.8768 12.9965C15.8774 13.066 15.9505 13.1603 16.0163 13.199C16.3153 13.376 16.6116 13.5671 16.9318 13.696C17.3077 13.8472 17.7163 13.9163 18.0952 14.062C18.8183 14.3398 19.5349 14.6366 20.2445 14.9472C20.5097 15.0632 20.7423 15.2516 21.0008 15.3856C21.2049 15.491 21.4214 15.5778 21.6405 15.6478C22.0017 15.763 22.3748 15.8438 22.7334 15.9666C22.961 16.0446 23.1663 16.1867 23.3916 16.2746C23.702 16.3959 24.0918 16.4167 24.3191 16.6221C24.5696 16.8483 24.8398 16.8688 25.1142 16.9629C25.5941 17.1273 26.0637 17.3216 26.5325 17.5158C26.5985 17.5434 26.6358 17.6415 26.6849 17.7081C26.8579 17.9431 26.9807 18.2815 27.2133 18.394C27.7684 18.6627 27.9613 19.1418 28.0991 19.6537C28.3385 20.5428 28.423 21.459 28.3808 22.3771C28.3402 23.2655 28.2574 24.1528 28.164 25.0374C28.1335 25.329 28.0327 25.6182 27.9299 25.8957C27.6844 26.5577 27.4377 27.2208 27.1478 27.864C27.0776 28.0193 26.8385 28.0995 26.6767 28.2138C26.5192 28.3246 26.3615 28.4362 26.202 28.5449C26.0687 28.6361 25.9424 28.7726 25.7953 28.8016C25.4584 28.8678 25.162 29.0533 24.8022 29.0659C24.3411 29.0823 23.8838 29.1913 23.4224 29.2297C23.156 29.2517 22.8805 29.1799 22.6162 29.211C22.3316 29.2444 22.057 29.3557 21.7747 29.4199C20.7227 29.6602 19.6694 29.8964 18.6156 30.1308C18.4003 30.1788 18.1818 30.2143 17.9642 30.2515C17.5756 30.318 17.1853 30.3752 16.7982 30.4487C16.5726 30.4915 16.3485 30.5475 16.1303 30.6178C15.9699 30.6694 15.8186 30.7511 15.6656 30.8244C15.3126 30.9937 14.9413 31.1347 14.6139 31.3442C14.1466 31.6431 13.7134 31.9947 13.2616 32.3179C13.2202 32.3475 13.1489 32.3352 13.039 32.3487C13.2901 31.9434 13.5136 31.5824 13.7427 31.2123C13.6255 31.1605 13.5063 31.1077 13.3806 31.052C12.5159 32.3305 11.5725 33.5011 10.0529 34.0482C10.0379 33.9313 10.0285 33.8577 10.0168 33.7649C9.85552 33.8747 9.726 33.9635 9.53333 34.0951C9.56417 33.4812 9.58472 33.4296 9.85435 33.3907C9.9501 33.3766 10.0552 33.4258 10.156 33.446C10.3451 33.4106 10.5396 33.289 10.7275 33.1583C10.818 33.0953 10.8882 32.9664 10.9816 32.9508C11.2729 32.9016 11.4856 32.7949 11.5217 32.4709C11.4245 32.4753 11.3323 32.4794 11.2401 32.4835C11.4204 32.3173 11.6101 32.2042 11.8151 32.1597C12.0472 32.1093 12.5042 31.5388 12.4255 31.3111C12.2721 30.8686 12.6031 30.6017 12.7761 30.2782C12.844 30.151 12.9568 30.0473 13.0214 29.9189C13.1362 29.691 13.2975 29.4565 13.3139 29.2163C13.3321 28.9517 13.61 28.6267 13.1897 28.3849C13.5515 28.5282 13.6943 28.3562 13.7601 28.0738C13.8678 27.6105 13.8678 27.134 14.0549 26.6749C14.1953 26.3303 14.1806 25.9177 14.2068 25.5335C14.2391 25.0626 14.2417 24.5897 14.2576 24.098C14.3113 24.1083 14.4036 24.1259 14.5451 24.1528C14.4614 23.9108 14.3968 23.7238 14.3322 23.5369C14.3025 23.5468 14.2729 23.5568 14.2435 23.5668C14.2755 23.4531 14.3075 23.3397 14.3492 23.1929C14.121 23.2093 13.926 23.2233 13.7374 23.2368C13.7674 23.0525 13.8614 22.8574 13.8006 22.773C13.6241 22.5268 13.7621 22.3243 13.8094 22.1025C13.847 21.927 13.9521 21.702 13.8831 21.5801C13.6934 21.2451 13.8488 20.97 13.9422 20.6781C14.0197 20.4346 13.9219 20.2667 13.7007 20.224C13.5016 20.1859 13.2652 20.1923 13.2472 20.5053C13.2267 20.8639 13.1685 21.2232 13.1803 21.5801C13.1888 21.847 13.2816 22.111 13.3392 22.3862C13.2983 22.4826 13.2 22.6168 13.19 22.7571C13.1582 23.1967 13.1917 23.6418 13.1412 24.0781C13.0748 24.653 12.9532 25.2215 12.8525 25.8072C12.7106 25.7709 12.5653 25.7463 12.4293 25.6965C11.9085 25.5057 11.3951 25.295 10.8712 25.1148C10.4497 24.9701 9.97036 24.9528 9.70426 24.5077C9.66549 24.4426 9.57327 24.4095 9.47517 24.3403H9.852C9.98857 24.0435 10.166 23.7921 10.218 23.517C10.3155 23.003 10.351 22.4761 10.3889 21.9525C10.4015 21.7779 10.3428 21.5979 10.3093 21.3694C10.4876 21.2217 10.546 20.5647 10.398 20.3374C10.1783 19.9998 10.0144 19.6262 9.81499 19.2453C9.8567 19.2224 9.95773 19.1667 10.0591 19.1108C10.0294 19.0882 9.99973 19.065 9.97036 19.0425C10.0479 18.9203 10.1081 18.7096 10.2059 18.6906C10.7822 18.5778 11.3669 18.5077 11.9496 18.428C12.1911 18.3946 12.4346 18.3753 12.6769 18.3451C12.9362 18.3129 13.1503 18.3167 13.1577 18.6747C13.1647 19.0053 13.1982 19.3373 13.2487 19.664C13.2816 19.8761 13.3747 20.1067 13.6449 20.0534C13.7586 20.0311 13.9022 19.8671 13.9257 19.7466C13.9627 19.5576 13.9204 19.3496 13.8908 19.1524C13.8649 18.9792 13.8103 18.8101 13.7733 18.6595C13.7971 18.513 13.857 18.3682 13.8338 18.2384C13.7927 18.0075 13.5915 17.7482 13.6531 17.5671C13.7947 17.1507 13.7477 16.8606 13.4616 16.6948C13.439 16.3446 13.4461 16.0586 13.3959 15.7826C13.3448 15.5001 13.224 15.2305 13.1603 14.9495C13.1212 14.7772 13.1318 14.5935 13.1192 14.3978C13.0049 14.3532 12.8554 14.2946 12.807 14.2759C12.8358 14.0866 12.8983 13.9565 12.8619 13.8665C12.7447 13.5764 12.5749 13.3077 12.4551 13.0188C12.2754 12.586 12.1814 12.1057 11.9411 11.7128C11.6266 11.1983 11.2054 10.7488 10.8295 10.2717C10.6447 10.0373 10.4579 9.80464 10.2632 9.55937C10.2115 9.5752 10.1354 9.59835 10.0176 9.6338C10.0711 9.52392 10.1052 9.45389 10.1425 9.37711C10.0159 9.3062 9.9034 9.25082 9.79972 9.18225C9.69986 9.11632 9.60117 9.04512 9.5157 8.96161C9.07074 8.52793 9.07221 8.52647 8.58877 8.79429C8.47657 8.49336 8.2372 8.50977 8.00635 8.60998C7.73907 8.72572 7.5652 8.6639 7.48238 8.46962C7.23948 8.57921 7.0051 8.68529 6.76485 8.7937C6.76896 8.87194 6.77396 8.96717 6.77513 8.99208H6.1234V9.32261C5.74481 9.2309 5.05284 10.1938 5.15945 10.6216H4.92008C4.96531 10.6951 5.00173 10.7769 5.059 10.8396C5.09631 10.8803 5.16386 10.8938 5.2179 10.9193L5.227 10.9105Z" fill="#FEFEFE"/>
<path fill-rule="evenodd" clip-rule="evenodd" d="M5.227 10.9104C5.11187 11.0323 4.99703 11.1542 4.86574 11.2931C4.8769 11.2996 4.9283 11.3289 5.01465 11.3781C4.86956 11.4883 4.72946 11.5947 4.6299 11.6703C4.58672 11.8792 4.60757 12.1104 4.50184 12.2308C4.14381 12.6381 4.06128 13.1245 3.97464 13.6259C3.93557 13.8521 3.89974 14.1557 3.5144 14.0338C3.49032 14.0262 3.44362 14.0906 3.36578 14.1566C3.92383 14.2852 3.57813 14.7318 3.51058 14.8038C3.16694 15.1687 3.28825 15.6313 3.1599 16.0325C3.06738 16.3226 3.06297 16.642 2.95724 16.9253C2.89057 17.1044 2.71023 17.2409 2.57601 17.4021C2.6791 17.4396 2.7772 17.4748 2.97457 17.5463C2.78865 17.5817 2.70318 17.5978 2.57101 17.6227C2.61478 17.8407 2.70788 18.062 2.69143 18.275C2.66618 18.6044 2.53783 18.9255 2.50493 19.2555C2.46528 19.6537 2.47967 20.0572 2.47027 20.4583C2.46734 20.5679 2.48496 20.6837 2.455 20.7853C2.31373 21.2656 2.36454 21.7292 2.48584 22.2097C2.62447 22.7597 2.70348 23.3253 2.78983 23.887C2.79952 23.9515 2.68967 24.0344 2.6744 24.0552C2.73666 24.2641 2.81655 24.4604 2.85297 24.6647C3.00394 25.5168 3.14169 26.3712 3.28472 27.2245C3.3837 27.8173 3.47622 28.411 3.58753 29.0011C3.61015 29.121 3.70178 29.2291 3.76669 29.3393C4.13852 29.9719 4.50243 30.6095 4.89041 31.2322C5.02464 31.4476 5.23111 31.6172 5.38296 31.8238C5.46285 31.9325 5.49574 32.0761 5.59531 32.1485C5.86875 32.4582 6.17538 32.7451 6.4077 33.0826C6.74252 33.5705 7.06032 33.6734 7.60778 33.4902C7.93644 33.3804 8.30387 33.3827 8.65485 33.3417C9.03138 33.2974 9.38118 33.2415 9.55329 32.8177C9.61762 32.6598 9.78356 32.5077 9.94128 32.4283C10.586 32.1039 10.7907 31.4552 11.1085 30.8955C11.3763 30.4237 11.6242 29.9356 11.8266 29.433C12.0436 28.8936 12.1964 28.3283 12.3785 27.7748C12.4134 27.6684 12.4542 27.5638 12.4918 27.4584C12.7588 26.71 12.708 26.7557 12.0175 26.3853C11.3734 26.0395 10.7202 25.7916 10.015 25.639C9.86815 25.607 9.72981 25.5112 9.60205 25.4236C9.28397 25.205 9.01904 25.2205 8.85339 25.5487C8.37524 25.2188 7.91618 24.9017 7.40748 24.5507C7.54963 24.522 7.65037 24.5015 7.8172 24.4681C7.62922 24.3347 7.49353 24.2304 7.34962 24.1384C7.18837 24.0355 7.18103 23.7756 7.34227 23.628C6.91581 23.4252 6.6224 22.5373 6.85913 22.2352C6.80009 22.1148 6.74634 22.0052 6.6923 21.8956C6.81272 21.8487 6.93138 21.7963 7.05415 21.7576C7.13433 21.7321 7.22068 21.7271 7.38897 21.6987C7.10173 21.6155 6.88732 21.5979 6.73665 21.4912C6.66146 21.4379 6.70258 21.2214 6.68143 20.9591C6.94665 21.1123 7.09967 21.2008 7.2756 21.3025C7.28764 21.2046 7.30468 21.0652 7.31643 20.9682C7.11436 20.9066 6.93637 20.8527 6.75868 20.7985C6.83328 20.5934 6.90788 20.3886 6.98219 20.1835C7.01597 20.1896 7.04945 20.1955 7.08293 20.2016C7.02478 20.1357 6.96633 20.0701 6.90612 20.0024C7.29822 19.6068 7.54376 19.4166 7.70911 19.4072C7.55991 19.2631 7.18925 19.3721 7.29264 19.0155C7.38574 18.6937 7.60073 18.5528 7.92499 18.5414C8.0269 18.5376 8.12794 18.51 8.22574 18.4271C8.11296 18.4066 8.00018 18.3864 7.88739 18.3658C7.88504 18.3371 7.88269 18.3084 7.88034 18.2797C8.05392 18.253 8.23015 18.1927 8.4005 18.2056C9.19527 18.2665 9.95978 18.1848 10.7093 17.887C10.986 17.7769 11.3199 17.8191 11.6163 17.7452C11.9855 17.6526 12.3473 17.5234 12.7015 17.3825C12.7711 17.3549 12.8034 17.2058 12.8311 17.1064C12.8822 16.9215 12.9174 16.7322 12.9518 16.579C12.8666 16.3704 12.7538 16.1726 12.7053 15.9598C12.5852 15.4344 12.498 14.902 12.3893 14.3737C12.3729 14.2937 12.3265 14.2087 12.2695 14.1495C11.8233 13.686 11.7188 13.056 11.4518 12.5057C11.3687 12.334 11.2832 12.1596 11.171 12.0064C10.7137 11.3825 10.2441 10.7675 9.78268 10.1462C9.65962 9.98069 9.5859 9.74949 9.42583 9.64693C9.18734 9.49368 8.90038 9.38409 8.6199 9.33311C7.94701 9.21091 7.36577 9.4805 6.81184 9.83183C6.53899 10.0047 6.24411 10.1439 5.97507 10.3218C5.85348 10.4018 5.78299 10.5553 5.66638 10.6467C5.52981 10.754 5.36827 10.8299 5.2176 10.9192L5.227 10.9104Z" fill="#FEFEFE"/>
<path fill-rule="evenodd" clip-rule="evenodd" d="M55.7599 17.1534C56.0195 16.9828 56.3044 16.8764 56.3737 16.5729C56.4759 16.1269 56.5611 15.6654 56.5549 15.2118C56.5517 14.9733 56.3411 14.7362 56.2201 14.5006C56.1305 14.326 56.0462 14.1463 55.9384 13.9828C55.5657 13.4167 54.9583 13.4123 54.3736 13.3098C53.8628 13.2204 53.3726 13.2271 52.8572 13.2515C52.3805 13.2743 52.1949 13.5723 51.9185 13.8117C51.8542 13.8677 51.8198 13.9565 51.7587 14.0168C51.0118 14.7573 51.2289 15.4849 51.6468 16.2547C51.8621 16.6517 52.1737 16.9978 52.4545 17.357C52.5097 17.4276 52.619 17.4733 52.7115 17.495C53.1259 17.5908 53.5436 17.6735 53.7914 17.7256C54.6206 17.7022 55.1962 17.5234 55.7599 17.1534ZM49.3541 21.6278C49.0096 20.7816 48.6789 19.9289 48.3047 19.0958C48.1032 18.6472 47.8979 18.2132 47.873 17.7104C47.8633 17.51 47.7244 17.3051 47.749 17.1158C47.8098 16.6482 47.9314 16.1887 48.028 15.7257C48.0457 15.6414 48.0536 15.5546 48.0759 15.472C48.2098 14.9777 48.246 14.423 48.5038 14.0036C48.9776 13.2339 49.5818 12.5441 50.1333 11.8221C50.1545 11.7943 50.1962 11.7828 50.2258 11.7606C50.5527 11.5132 50.8832 11.2703 51.203 11.0145C51.2897 10.9451 51.327 10.8082 51.4177 10.7508C52.3811 10.141 53.4657 9.96549 54.5762 9.94117C55.0655 9.93062 55.559 10.0124 56.0471 10.0789C56.362 10.122 56.6751 10.1976 56.9802 10.2875C57.3946 10.4097 57.7988 10.5653 58.212 10.6922C58.279 10.7127 58.3686 10.655 58.4487 10.6386C58.5045 10.6268 58.5827 10.5964 58.6162 10.621C58.9369 10.858 59.2852 11.0719 59.5581 11.3571C59.9995 11.8183 60.3957 12.3235 60.799 12.8195C60.9538 13.0097 61.0727 13.2286 61.2131 13.4308C61.5238 13.8779 61.8725 14.3031 62.1383 14.7752C62.3151 15.0893 62.4026 15.4623 62.4793 15.8201C62.541 16.1067 62.5504 16.41 62.541 16.7047C62.5245 17.2445 62.8585 17.8302 62.3477 18.3137C62.3221 18.338 62.3324 18.4116 62.3418 18.4591C62.4399 18.9505 62.3404 19.426 62.1342 19.858C61.9198 20.3072 61.6281 20.7206 61.3576 21.1414C61.1923 21.3984 61.0345 21.6729 60.8169 21.8804C60.3919 22.2857 59.9346 22.6593 59.475 23.0261C59.2746 23.1858 59.0467 23.3235 58.8109 23.4226C58.5377 23.5372 58.2449 23.6116 57.955 23.6793C57.3538 23.8199 56.8589 24.2533 56.1995 24.2527C55.539 24.2518 54.8688 24.4142 54.2217 24.3397C53.7374 24.2841 53.2731 24.0851 52.7638 24.1938C52.6845 24.2108 52.574 24.0957 52.4812 24.0368C52.4013 23.9861 52.3335 23.9072 52.2477 23.8771C51.9599 23.7766 51.633 23.7766 51.411 23.5172C51.2206 23.2945 50.8911 23.2963 50.6958 23.0466C50.4232 22.6979 50.0949 22.3923 49.7835 22.075C49.6528 21.9419 49.5051 21.8253 49.3347 21.6744C49.3262 21.692 49.3635 21.6504 49.3541 21.6278Z" fill="#FEFEFE"/>
<path fill-rule="evenodd" clip-rule="evenodd" d="M31.5522 21.0768C31.5076 21.0762 31.4626 21.0759 31.4177 21.0754C31.4703 21.0053 31.5228 20.9356 31.5839 20.8544C31.5158 20.8409 31.4559 20.8292 31.3807 20.8143C31.6917 20.5007 31.1152 19.0517 30.5477 18.7013C30.8731 19.7699 31.1918 20.816 31.5105 21.8624C31.5654 21.8404 31.6203 21.8185 31.675 21.7965C31.6341 21.5565 31.5933 21.3165 31.5522 21.0768ZM34.1201 24.3414C34.0223 24.8205 33.9685 25.3098 33.8452 25.7816C33.7142 26.283 33.5274 26.7706 33.3544 27.2602C33.219 27.6438 33.0107 28.0106 32.935 28.4042C32.7767 29.2211 32.6888 30.0518 32.5637 30.8755C32.522 31.1501 32.4571 31.4214 32.3981 31.6933C32.3854 31.7514 32.3652 31.8431 32.3276 31.8554C31.9919 31.9635 31.6544 32.1273 31.3119 32.1405C30.6584 32.1654 30.0014 32.0948 29.3453 32.0787C29.0413 32.0713 28.7358 32.1135 28.4322 32.1021C28.3223 32.098 28.1211 32.0001 28.1229 31.9506C28.1346 31.6157 28.0759 31.194 28.2539 30.9664C28.6342 30.4799 29.1573 30.1069 29.5961 29.6618C29.8631 29.3911 30.2144 29.1584 30.2511 28.58C30.0044 28.7156 29.8044 28.7778 29.6704 28.9082C29.1893 29.3755 28.7529 29.891 28.2545 30.3384C27.9769 30.5878 27.6268 30.8644 27.2805 30.9101C26.3938 31.0273 25.5703 30.7267 24.819 30.2546C24.7065 30.184 24.6375 30.0445 24.4941 29.8719C24.9655 29.8259 25.3526 29.8095 25.7312 29.7447C26.0487 29.6902 26.3736 29.6138 26.6596 29.4746C26.7639 29.4239 26.7654 29.1634 26.8138 28.9984C27.0224 28.9348 27.3155 28.8106 27.3225 28.672C27.344 28.2339 27.8315 28.1149 27.8844 27.7284C28.5664 27.4633 28.4043 26.7149 28.7335 26.2475C28.7593 26.2109 28.7585 26.1511 28.7599 26.1019C28.7711 25.7555 28.757 25.4136 28.9359 25.086C29.0639 24.8513 29.0868 24.56 29.2119 24.3232C29.3203 24.1181 29.4592 23.9795 29.3717 23.6926C29.2924 23.4333 29.3708 23.1215 29.4017 22.835C29.4249 22.6202 29.5891 22.4341 29.3858 22.1915C29.2375 22.0142 29.1744 21.7478 29.1256 21.5105C29.0528 21.1545 29.0187 20.7897 28.9837 20.4269C28.9729 20.3153 29.0539 20.1857 29.0225 20.0867C28.8043 19.396 28.5684 18.7107 28.3358 18.0244C28.2694 17.8281 28.315 17.7185 28.5176 17.6136C28.9884 17.3698 29.4475 17.3985 29.923 17.5726C30.5069 17.7862 30.9436 18.2908 31.5968 18.3787C32.0512 18.4396 32.3631 18.7696 32.6521 19.0933C32.8574 19.324 33.2069 19.4166 33.2387 19.8271C33.2583 20.082 33.491 20.3135 33.5576 20.5734C33.7145 21.1832 33.7635 21.8284 33.9809 22.413C34.1671 22.9135 34.2381 23.3797 34.1327 23.8922C34.1168 23.9684 34.1944 24.0636 34.2467 24.1955C34.2246 24.2195 34.1342 24.2725 34.1201 24.3414Z" fill="#FEFEFE"/>
<path fill-rule="evenodd" clip-rule="evenodd" d="M43.3729 17.3098C43.4557 17.3517 43.5386 17.3939 43.627 17.4385C43.5961 17.4757 43.5844 17.505 43.5682 17.5073C43.0857 17.5853 42.5993 17.6427 42.1214 17.7415C41.7053 17.8273 41.3337 17.8704 40.9058 17.6764C40.5166 17.5 40.0417 17.5114 39.5583 17.4326C39.5627 17.4077 39.5791 17.311 39.5973 17.2014C39.57 17.2 39.538 17.1979 39.506 17.1961C39.2883 17.1833 39.0669 17.1912 38.8537 17.1525C38.5511 17.098 38.2833 17.0514 38.033 17.3239C37.6973 17.6899 37.5252 18.0779 37.5238 18.5895C37.5232 18.8421 37.4168 19.0911 37.5561 19.3417C37.6609 19.5298 37.7869 19.7132 37.8524 19.9151C38.0189 20.4299 38.4771 20.6755 38.8598 20.9586C39.0372 21.0895 39.3941 21.0081 39.6646 20.9788C40.2811 20.9123 40.7936 21.0611 41.2065 21.5528C41.3281 21.6976 41.5502 21.7594 41.7282 21.8555C41.9426 21.9718 42.1479 22.1289 42.3775 22.1872C42.646 22.2552 42.9388 22.2197 43.2167 22.2593C43.4713 22.295 43.7727 22.3032 43.9586 22.4459C44.1929 22.6265 44.3651 22.5664 44.5751 22.484C44.6212 22.4662 44.6658 22.4199 44.709 22.4228C45.257 22.4577 45.6471 22.1066 45.9978 21.7949C46.2562 21.5651 46.3996 21.171 46.5129 20.8238C46.6151 20.5102 46.6868 20.1457 46.6272 19.831C46.5514 19.4304 46.3502 19.0469 46.1643 18.675C46.0216 18.389 45.8321 18.1224 45.6371 17.8669C45.5461 17.7473 45.4062 17.6374 45.2659 17.5873C44.8588 17.4429 44.4447 17.3119 44.0241 17.2146C43.8185 17.1671 43.5929 17.2064 43.3761 17.2064C43.375 17.241 43.3738 17.2753 43.3729 17.3098Z" fill="#FEFEFE"/>
<path fill-rule="evenodd" clip-rule="evenodd" d="M38.1395 16.3703C38.1207 16.1098 38.0819 15.8487 38.0887 15.5888C38.096 15.3069 38.1398 15.0253 38.1812 14.7455C38.1912 14.6784 38.2473 14.5685 38.2916 14.5635C38.8937 14.4979 39.0224 13.8708 39.4497 13.6012C39.5085 13.564 39.5569 13.4904 39.581 13.4231C39.7587 12.9308 39.9273 12.435 40.1035 11.9421C40.1323 11.8615 40.1702 11.7745 40.2298 11.7168C40.431 11.5216 40.4836 11.2963 40.532 11.0173C40.5922 10.6683 40.8184 10.344 40.9929 10.0193C41.2031 9.62869 41.083 9.3808 40.6407 9.42563C40.1173 9.47867 39.5878 9.56101 39.0885 9.71836C38.8591 9.79074 38.6928 10.0694 38.5034 10.2599C38.3833 10.3809 38.2843 10.5242 38.1568 10.6361C37.8197 10.9318 37.4146 11.1427 37.3785 11.6963C37.3621 11.9532 37.1083 12.1926 36.9726 12.4455C36.9089 12.5642 36.8601 12.6934 36.8219 12.8232C36.6874 13.2804 36.5182 13.7331 36.443 14.2007C36.3773 14.6101 36.4483 15.0397 36.4075 15.4555C36.3599 15.9384 36.4107 16.3846 36.6281 16.8251C36.8633 17.3009 36.962 17.3598 37.5165 17.2022C37.7415 17.1383 38.1548 16.5903 38.1395 16.3703Z" fill="#FEFEFE"/>
<path fill-rule="evenodd" clip-rule="evenodd" d="M68.9769 62.3787C69.399 62.3004 69.9129 62.3872 70.2845 62.0053C70.4998 61.7838 70.6919 61.5397 70.8939 61.3053C71.1092 61.0559 71.3092 60.7908 71.5454 60.5625C71.657 60.4547 71.8373 60.4177 71.9798 60.3518C71.9131 59.8546 71.8394 59.3224 71.7709 58.7897C71.7154 58.3554 71.6714 58.3654 71.2399 58.448C70.9891 58.4961 70.7723 58.5415 70.5882 58.7182C70.355 58.9421 70.1676 58.5951 69.9444 58.6614C69.8833 58.6792 69.8195 58.6877 69.7573 58.7006C69.7902 58.7654 69.8231 58.8301 69.8586 58.8999C69.6689 58.9579 69.4495 59.0523 69.2207 59.0898C68.6744 59.1794 68.6101 59.5847 68.5516 60.0178C68.5381 60.1168 68.4397 60.2041 68.3745 60.3064C68.4054 60.3685 68.4949 60.4734 68.5058 60.5859C68.5316 60.8508 68.4847 61.1257 68.5334 61.3838C68.5739 61.5986 68.7085 61.7958 68.8019 62.0004C68.8582 62.1234 68.9155 62.2462 68.9769 62.3787Z" fill="#FEFEFE"/>
<path fill-rule="evenodd" clip-rule="evenodd" d="M41.6498 14.2742C41.0165 14.3287 40.4271 14.3319 39.8611 14.4485C39.5821 14.5062 39.3186 14.7442 39.101 14.9549C38.9333 15.1175 39.1371 15.5942 39.3448 15.7551C39.6963 16.027 40.0103 16.3467 40.3619 16.6186C40.5064 16.7306 40.7017 16.7901 40.8832 16.8381C41.1872 16.9184 41.4968 17.0049 41.8078 17.0224C42.0325 17.035 42.2748 16.9697 42.4886 16.8862C42.8035 16.7631 43.1386 16.64 43.3941 16.4308C43.7142 16.1689 43.7057 15.8864 43.4872 15.5309C43.2675 15.1735 43.0405 14.8224 42.6252 14.6574C42.2927 14.5253 41.959 14.3955 41.6498 14.2742Z" fill="#FEFEFE"/>
<path fill-rule="evenodd" clip-rule="evenodd" d="M9.07747 24.4423C9.50011 24.0341 9.63434 23.5729 9.70453 23.1245C9.81027 22.4515 9.80674 21.762 9.87606 21.0822C9.92922 20.5597 9.71746 20.1287 9.46928 19.7038C9.36119 19.518 9.2396 19.3396 9.11536 19.1638C8.94736 18.9261 8.71445 18.9044 8.50063 19.0867C8.08739 19.4386 7.87093 19.92 7.78693 20.4196C7.68971 20.9992 7.60806 21.6055 7.88267 22.1822C7.90764 22.2343 7.81835 22.3407 7.78311 22.4195C8.47302 22.8892 8.66335 23.7179 9.07747 24.4423Z" fill="#FEFEFE"/>
<path fill-rule="evenodd" clip-rule="evenodd" d="M51.9378 57.9906C51.7992 57.5944 51.0966 57.8435 51.1762 57.3128C50.9286 57.1639 50.7001 57.0265 50.5136 56.9146C50.5674 56.7338 50.6114 56.5858 50.6552 56.4378C50.5277 56.4469 50.4 56.456 50.2416 56.4671C50.2522 56.4888 50.2305 56.4452 50.1941 56.3722C50.0073 56.6201 49.8269 56.8501 49.6569 57.0875C49.4595 57.3632 49.2674 57.6436 49.0806 57.927C49.0316 58.0011 49.0242 58.1028 48.974 58.1758C48.846 58.3618 48.705 58.5385 48.5155 58.7899C48.4818 58.9063 48.4383 59.1433 48.3458 59.3593C48.0926 59.9491 48.2474 60.1929 48.8991 60.1463C49.2002 60.1249 49.5335 60.2149 49.7935 59.96C49.8299 59.9245 49.9159 59.9175 49.9732 59.928C50.4258 60.0098 50.5888 59.6335 50.8379 59.3933C50.9398 59.2948 51.0573 59.2084 51.141 59.0967C51.4159 58.7293 51.6785 58.3527 51.9378 57.9906Z" fill="#FEFEFE"/>
<path fill-rule="evenodd" clip-rule="evenodd" d="M83.4877 50.8798C83.2633 50.7183 83.0797 50.6108 82.9258 50.4707C82.321 49.9204 81.625 49.5547 80.8146 49.4343C80.5133 49.3895 80.2522 49.4402 80.1212 49.8141C80.0451 50.03 79.809 50.19 79.6448 50.3752C79.9068 50.5888 79.8774 50.7655 79.4219 51.0676C79.8598 51.4146 80.3136 51.6563 80.8675 51.7717C81.1606 51.833 81.427 51.9842 81.7507 51.9306C81.966 51.8948 82.1912 51.9177 82.4118 51.9162C82.5587 51.9153 82.7082 51.9004 82.8521 51.9212C83.2092 51.9725 83.6236 51.5602 83.5552 51.2077C83.5282 51.0676 83.4976 50.9281 83.4877 50.8798Z" fill="#FEFEFE"/>
<path fill-rule="evenodd" clip-rule="evenodd" d="M51.4286 2.72104C51.5052 2.65248 51.5819 2.58391 51.6732 2.50186C51.7035 2.79547 51.7238 3.05509 51.7587 3.31324C51.7828 3.49404 51.7957 3.68714 51.8721 3.84684C51.9214 3.94969 52.0671 4.02734 52.1864 4.071C52.3247 4.12169 52.483 4.11525 52.6296 4.14777C53.0775 4.24711 53.1491 3.8864 53.2804 3.63293C53.372 3.6804 53.4581 3.72494 53.5439 3.76919C53.5662 3.68275 53.6073 3.5966 53.6079 3.51016C53.6141 2.7524 53.4969 2.01339 53.0848 1.36816C52.9664 1.18267 52.6795 1.10209 52.4657 0.981365C52.4278 0.959974 52.3341 0.959974 52.3232 0.980486C52.1071 1.38632 51.5478 1.16861 51.3205 1.59964H51.9634L51.9875 1.70308C51.776 1.77223 51.5646 1.84109 51.2817 1.9334C51.433 2.07112 51.5417 2.17045 51.5995 2.2229C51.5425 2.39491 51.4879 2.55959 51.4333 2.72427L51.4286 2.72104Z" fill="#FEFEFE"/>
<path fill-rule="evenodd" clip-rule="evenodd" d="M38.9149 30.9743C38.867 30.5919 38.3037 30.4094 38.4529 29.8995C38.4655 29.8564 38.3897 29.7624 38.3333 29.729C37.8916 29.467 37.4446 29.2144 36.9523 28.9323C36.9523 29.6176 36.9741 30.2292 36.9347 30.8366C36.9268 30.962 36.6927 31.0728 36.5347 31.2155C36.6046 31.3459 36.7 31.5237 36.7969 31.7043C37.3297 31.8979 37.8822 32.0987 38.5128 32.3281C38.5524 31.9135 38.5574 31.5917 38.625 31.2838C38.6517 31.1627 38.8179 31.0725 38.9149 30.9743Z" fill="#FEFEFE"/>
<path fill-rule="evenodd" clip-rule="evenodd" d="M33.4477 30.3126C33.7053 30.3656 33.9605 30.4166 34.2149 30.4711C34.3993 30.5107 34.5952 30.5913 34.6249 30.2813C34.6278 30.2514 34.7585 30.1995 34.8161 30.2139C35.2678 30.3249 35.5612 30.0905 35.4199 29.6633C35.2508 29.1514 35.2193 28.5577 34.7626 28.182C34.4795 27.9491 34.1617 27.7243 33.7549 27.814C33.6677 27.833 33.5393 27.9318 33.5326 28.0033C33.5059 28.2907 33.5279 28.5823 33.5153 28.8718C33.5059 29.091 33.4603 29.3084 33.4503 29.5276C33.4386 29.7896 33.4477 30.0524 33.4477 30.3126Z" fill="#FEFEFE"/>
<path fill-rule="evenodd" clip-rule="evenodd" d="M34.2852 20.5284C34.3874 21.0998 34.4846 21.6431 34.5821 22.1863C34.5862 22.2106 34.5824 22.2473 34.5971 22.2575C35.0679 22.586 34.8837 23.0929 34.8911 23.514C34.899 23.9664 34.7351 24.42 34.6825 24.8772C34.6696 24.9897 34.8047 25.2238 34.8585 25.2197C35.0335 25.2071 35.272 25.1582 35.3578 25.0345C35.4932 24.8391 35.5869 24.5724 35.5883 24.3351C35.5936 23.5996 35.8007 22.867 35.6057 22.1265C35.5275 21.8306 35.5504 21.5083 35.4714 21.2126C35.3448 20.7408 34.8967 20.4097 34.2852 20.5284Z" fill="#FEFEFE"/>
<path fill-rule="evenodd" clip-rule="evenodd" d="M39.3782 22.4945C39.6223 22.471 39.6787 22.5994 39.6487 22.8133C39.6299 22.9466 39.6226 23.0831 39.6255 23.2176C39.6382 23.7931 39.9416 24.0917 40.5163 24.0803C40.776 24.075 41.035 24.0401 41.2944 24.0182C41.6521 23.9877 41.5746 23.6777 41.6221 23.4726C41.7658 22.8543 41.5863 22.5909 41.0056 22.3992C40.8341 22.3427 40.7023 22.1657 40.5069 22.0074C40.3654 22.0168 40.114 22.0332 39.7918 22.0546C39.7216 22.1818 39.736 22.5153 39.3779 22.495L39.3782 22.4945Z" fill="#FEFEFE"/>
<path fill-rule="evenodd" clip-rule="evenodd" d="M5.68693 33.4042C5.56298 33.2756 5.43963 33.1475 5.31627 33.0198C5.33448 33.0016 5.3524 32.9834 5.37031 32.9656C5.20613 32.931 4.99877 32.9465 4.88746 32.8504C4.71828 32.7048 4.61314 32.4838 4.48684 32.2907C4.46246 32.2538 4.47392 32.1598 4.45688 32.1568C4.10649 32.0932 4.05921 31.7835 3.93761 31.5342C3.89121 31.4389 3.84392 31.3443 3.7937 31.2508C3.74935 31.169 3.70881 31.0261 3.65301 31.0187C3.15342 30.9557 3.10466 30.4535 2.82241 30.1833C2.78834 30.1508 2.85031 30.0192 2.87557 29.8956C2.83533 29.9044 2.68378 29.9208 2.68349 29.9392C2.68172 30.0822 2.66146 30.2604 2.73635 30.3621C2.94577 30.6463 3.20305 30.8945 3.42979 31.1667C3.48442 31.2323 3.48736 31.3384 3.52437 31.4213C3.62511 31.6452 3.73143 31.8662 3.8354 32.0886C3.87388 32.0812 3.91235 32.0742 3.95083 32.0672C3.88915 32.1102 3.82777 32.1533 3.81337 32.1636C4.1344 32.49 4.44925 32.8123 4.76645 33.132C5.08718 33.4552 5.17911 33.4933 5.68693 33.4042Z" fill="#FEFEFE"/>
<path fill-rule="evenodd" clip-rule="evenodd" d="M51.4335 2.72425C51.237 2.62521 51.1175 2.51034 51.3284 2.30435C51.3484 2.28472 51.3152 2.21087 51.3067 2.16223C51.2517 2.18919 51.1525 2.21175 51.1492 2.24428C51.1366 2.36647 51.1601 2.49159 51.1616 2.61583C51.1671 3.08086 51.1789 3.54618 51.1698 4.01121C51.163 4.35698 51.304 4.29427 51.5099 4.15245C51.4585 4.07626 51.4139 4.01004 51.3666 3.9403C51.465 3.86235 51.5495 3.79554 51.6371 3.7258C51.2644 3.43454 51.2644 3.43454 51.4773 3.16437C51.279 2.91003 51.2746 2.87135 51.4271 2.71985C51.4288 2.72103 51.4335 2.72425 51.4335 2.72425Z" fill="#FEFEFE"/>
<path fill-rule="evenodd" clip-rule="evenodd" d="M35.6758 30.9678C35.8485 30.9402 35.9777 30.9584 36.0385 30.9027C36.2467 30.7108 36.3595 30.4685 36.3413 30.1886C36.3037 30.1681 36.2658 30.1479 36.2279 30.1274C36.0641 30.3767 35.9002 30.6261 35.6758 30.9678Z" fill="#FEFEFE"/>
<path fill-rule="evenodd" clip-rule="evenodd" d="M6.35517 33.995C6.35017 34.0011 6.27792 34.0923 6.20361 34.1858C6.88442 34.4366 7.16991 34.4137 7.30971 34.1128C7.15405 34.1277 6.99016 34.1676 6.83244 34.1509C6.68441 34.1351 6.54255 34.0592 6.35517 33.995Z" fill="#FEFEFE"/>
<path fill-rule="evenodd" clip-rule="evenodd" d="M43.9463 16.02C44.1105 16.163 44.2053 16.2662 44.3216 16.3324C44.3487 16.3476 44.512 16.2064 44.5034 16.1888C44.4459 16.0678 44.3745 15.9421 44.2732 15.8595C44.2423 15.8343 44.1046 15.9395 43.9463 16.02Z" fill="#FEFEFE"/>
<path fill-rule="evenodd" clip-rule="evenodd" d="M8.17525 24.3971C8.04837 24.0428 7.93794 23.7348 7.80401 23.3604C7.64658 23.7047 7.77845 24.0161 8.17525 24.3971Z" fill="#FEFEFE"/>
<path fill-rule="evenodd" clip-rule="evenodd" d="M35.1699 27.3914C34.9041 27.2777 34.6645 27.1751 34.4248 27.0729C34.7702 27.4397 35.0645 27.5256 35.1699 27.3914Z" fill="#FEFEFE"/>
<path fill-rule="evenodd" clip-rule="evenodd" d="M33.3013 31.1591C33.5374 31.1834 33.7427 31.2048 33.9483 31.2259C33.6713 30.9343 33.4672 30.9197 33.3013 31.1591Z" fill="#FEFEFE"/>
<path fill-rule="evenodd" clip-rule="evenodd" d="M15.3288 17.8475C15.5573 17.9152 15.656 17.8253 15.6158 17.5967C15.5133 17.0171 15.4049 16.4387 15.2974 15.86C15.2554 15.6352 15.2304 15.4043 15.1608 15.1881C15.0648 14.8895 14.9235 14.6055 14.8228 14.3081C14.7817 14.1871 14.8169 14.0409 14.7778 13.9187C14.7482 13.8255 14.67 13.7273 14.586 13.6802C14.5335 13.6506 14.4301 13.7112 14.3496 13.7317C14.3813 13.8238 14.426 13.9137 14.4415 14.0084C14.4621 14.1326 14.4345 14.2686 14.4709 14.3861C14.6451 14.9478 14.8704 15.496 15.0055 16.0663C15.1038 16.4812 15.0745 16.9248 15.1338 17.3512C15.1582 17.5258 15.2666 17.6887 15.3368 17.8569L15.3288 17.8475Z" fill="#231F20"/>
<path fill-rule="evenodd" clip-rule="evenodd" d="M13.5459 31.0171C13.792 30.9398 14.0191 31.0863 13.9873 30.6872C13.968 30.4419 14.2062 30.1808 14.3104 29.9194C14.4188 29.6472 14.504 29.3659 14.6018 29.089C14.6711 28.8921 14.7448 28.6967 14.8156 28.5003C14.9481 28.1343 15.0899 27.7713 15.2045 27.3997C15.2318 27.3112 15.1719 27.1935 15.1451 27.0909C15.1302 27.0338 15.0746 26.9359 15.0823 26.9312C15.4224 26.7258 15.047 26.4263 15.2409 26.2068C15.1971 26.1957 15.1534 26.1843 15.1093 26.1729C15.0594 26.346 15.0044 26.518 14.9607 26.6927C14.7871 27.3842 14.62 28.0778 14.4417 28.7685C14.4091 28.8947 14.3272 29.0076 14.2843 29.1321C14.1988 29.38 14.1239 29.6314 14.0475 29.8819C14.0299 29.9391 14.0431 30.0369 14.0108 30.0528C13.6372 30.2371 13.7254 30.6309 13.5459 31.0171Z" fill="#231F20"/>
<path fill-rule="evenodd" clip-rule="evenodd" d="M16.748 19.2553C17.057 20.5909 16.9951 21.8664 16.9554 23.1396C17.3751 23.1426 17.5651 22.9538 17.4932 22.5158C17.4189 22.5067 17.3287 22.4959 17.1804 22.4777C17.317 22.3965 17.4133 22.3394 17.5519 22.257H17.3419C17.3093 21.8937 17.7346 21.5087 17.3454 21.2048C17.3454 20.7497 17.4174 20.3043 17.3152 19.9029C17.2632 19.6995 17.1792 19.3095 16.748 19.2553Z" fill="#231F20"/>
<path fill-rule="evenodd" clip-rule="evenodd" d="M17.2335 23.7991C17.1154 23.7625 16.9973 23.7259 16.8793 23.689C16.8522 23.7168 16.8249 23.7446 16.7979 23.7725C16.9665 23.9383 17.0766 24.079 16.8173 24.2363C16.7659 24.2674 16.8487 24.5191 16.8778 24.7248C16.9709 24.6137 17.0208 24.554 17.071 24.4942C17.0966 24.5097 17.1221 24.5255 17.1477 24.5411C17.0981 24.6117 17.0634 24.7046 16.9961 24.7494C16.6651 24.9706 16.6472 25.0852 16.9471 25.3917C17.294 24.8921 17.3142 24.3515 17.2223 23.7898L17.2335 23.7991Z" fill="#231F20"/>
<path fill-rule="evenodd" clip-rule="evenodd" d="M16.9655 18.1483C16.9399 18.1955 16.9185 18.2347 16.8891 18.2887C16.8133 18.1509 16.742 18.0214 16.6709 17.8919C16.7637 18.337 16.7194 18.8272 17.0322 19.1967C17.0665 19.1874 17.1009 19.178 17.1352 19.1686C17.0812 18.8436 17.0272 18.5184 16.9655 18.1483Z" fill="#231F20"/>
<path fill-rule="evenodd" clip-rule="evenodd" d="M17.2222 23.7897C17.4449 23.6945 17.498 23.5283 17.3359 23.361C17.2701 23.2931 17.1006 23.3247 16.9253 23.3054C17.0689 23.5354 17.1512 23.6672 17.2334 23.7991L17.2222 23.7897Z" fill="#231F20"/>
<path fill-rule="evenodd" clip-rule="evenodd" d="M15.3368 17.8568C15.3033 18.0775 15.2698 18.2981 15.2363 18.5188C15.2683 18.5287 15.3004 18.5387 15.3324 18.5487C15.4167 18.4059 15.501 18.2632 15.5532 18.175C15.4663 18.0479 15.3982 17.9485 15.3297 17.8483C15.3288 17.8474 15.3368 17.8568 15.3368 17.8568Z" fill="#231F20"/>
<path fill-rule="evenodd" clip-rule="evenodd" d="M55.2291 15.8236C55.3019 15.7957 55.3704 15.7181 55.4089 15.6463C55.6021 15.2832 55.2044 14.5671 54.7935 14.5263C54.4522 14.4924 54.3177 14.6488 54.363 14.9884C54.3979 15.2507 54.3991 15.5173 54.4211 15.8745C54.6382 16.031 54.9372 15.9346 55.2291 15.8236ZM52.7115 17.495C52.6189 17.4733 52.5097 17.4276 52.4545 17.3569C52.1737 16.9977 51.8621 16.6516 51.6468 16.2546C51.2288 15.4848 51.0121 14.7572 51.7587 14.0168C51.8198 13.9564 51.8541 13.8676 51.9184 13.8117C52.1948 13.5723 52.3804 13.2743 52.8571 13.2514C53.3726 13.2271 53.8628 13.2203 54.3735 13.3097C54.9586 13.4123 55.5657 13.4167 55.9387 13.9828C56.0462 14.1463 56.1305 14.3259 56.2204 14.5006C56.3411 14.7361 56.5517 14.9732 56.5549 15.2117C56.5611 15.6653 56.4759 16.1268 56.3737 16.5728C56.3044 16.8764 56.0195 16.9828 55.7598 17.1533C55.1962 17.5234 54.6205 17.7021 53.7914 17.7256C53.5435 17.6734 53.1259 17.5908 52.7115 17.495Z" fill="#231F20"/>
<path fill-rule="evenodd" clip-rule="evenodd" d="M31.6751 21.7965C31.6343 21.5565 31.5932 21.3165 31.5523 21.0768C31.5074 21.0762 31.4625 21.076 31.4178 21.0754C31.4704 21.0053 31.5227 20.9356 31.584 20.8544C31.5159 20.8409 31.4557 20.8292 31.3805 20.8143C31.6915 20.5007 31.115 19.0517 30.5479 18.7013C30.8733 19.7699 31.1919 20.816 31.5106 21.8624C31.5653 21.8405 31.6202 21.8185 31.6751 21.7965Z" fill="#231F20"/>
<path fill-rule="evenodd" clip-rule="evenodd" d="M54.4211 15.8747C54.6382 16.0311 54.9372 15.9347 55.2291 15.8237C55.302 15.7958 55.3704 15.7182 55.4089 15.6461C55.6021 15.283 55.2044 14.5672 54.7935 14.5262C54.4523 14.4925 54.3177 14.6486 54.363 14.9885C54.3979 15.2508 54.3991 15.5172 54.4211 15.8747Z" fill="#FEFEFE"/>
</svg>
