<svg width="147" height="95" fill="none" xmlns="http://www.w3.org/2000/svg">
  <mask id="a" maskUnits="userSpaceOnUse" x="0" y="84" width="129" height="10">
    <path
      fill-rule="evenodd"
      clip-rule="evenodd"
      d="M12.6 84.5H14.4l7.7.3h43.2c16.8 0 32 0 49 .4h.5c1.1 0 2.3 0 3.4-.2h8.6c.7.2 1.8.1 1.7.4l-.4.6c0 .1 0 .2-.2.2l-.8.2h-.5c-3.2.6-6.8.5-10.5.4H108.5l-12.7.1h-3.2c-2.8-.1-4.5-.1-4.5 1l-.1.2c-2.5 4.5-18.9 5.4-23.4 5.4h-.2c-9.9 0-39.6.5-41 .5h-.3c-3.5 0-7.3 0-9.3-.5-.7-.2-4.6-.5-7.6-1.6-.6-.1-5.9-.2-5.9-.6l.4-.2 5-.4h-.2c-.5-.6-.4-1-.8-1.5-.5-.8.4-1.4 1.5-2 0-.2-4-.7-3.7-.8.4-.2 3-1.2 4.8-1h.1l1-.4c2-.5 3.3-.5 4.2-.5z"
      fill="#fff"
    />
  </mask>
  <g mask="url(#a)">
    <path
      fill-rule="evenodd"
      clip-rule="evenodd"
      d="M8.3 85l-1 .5c-1.8-.3-4.6.8-4.8.9-.2 0 4 .6 3.7.8-1.2.6-2 1.3-1.5 2 .4.6.3 1 1 1.5l-5 .4c-.3 0-.4.1-.4.2 0 .4 5.5.5 5.9.6 3.1 1.1 7 1.4 7.6 1.6 2 .5 6 .5 9.7.5 1.3 0 31.6-.5 41.1-.5 4.6 0 21.2-1 23.5-5.5 0-1.3 1.8-1.2 4.7-1.1h3l16-.2 4.3.1a61.6 61.6 0 0011.8-.6c.2 0 .2-.1.2-.2l.4-.6c.1-.3-1-.2-1.8-.4h-8.5l-4 .2c-17.6-.4-33.4-.3-51.1-.3a5409.3 5409.3 0 01-49.6-.4h-.9c-1 0-2.3 0-4.3.5z"
      fill="url(#paint0_linear)"
    />
  </g>
  <path
    fill-rule="evenodd"
    clip-rule="evenodd"
    d="M83.6 77.4h.4c.2-.1.2-.2 0-.3 0-.2-.3-.2-.5-.1-.2 0-.4 0-.4.2 0 .3.2.2.4.2h.1zm-6-1.4l-.7.1V76.4c.3 0 .6.2.9 0 0 0 .2 0 .2-.2l-.3-.2h-.2zm-.2 1.7c.2 0 .4 0 .5-.2.2 0 .1-.3 0-.3H77l-.1.2.1.2h.4zm43-.6c-.4 0-.6 0-.6.2s.3.3.7.3c.3 0 .5-.1.5-.3l-.6-.2zm6.4 0h-.5c-.2 0-.2.2 0 .3.1.2.8.2 1 0v-.3h-.5zm-6.7-.5h.2c.2 0 .3 0 .3-.2s0-.3-.2-.3h-.9v.2c-.1 0 0 .2 0 .2h.6zm6.3 0h.2c.1 0 .3-.1.3-.3l-.2-.2h-1V76.5l.7.2zm-43-.1h.2c.1 0 .2 0 .3-.2 0-.2-.1-.3-.3-.3h-.9v.4h.6zm48.3 2.7l-2-.1c-1.4-.3-2.9-.3-4.3-.3h-3.6l-2-.1h-15.5c-2.3 0-4.6-.2-7-.1H79.2l-3.5.4c-1.4.1-2.9.2-4.3 0h-1c-.8 0-1.5-.1-2.2-.3-1.7-.5-3.5-1-5.1-1.8l-3-1.7c-.6-.3-1-.7-1.4-1.1-.4-.4-.3-.6.1-.9l.6-.1c1-.1 2.1 0 3.2.2l7 1.6 3.8.4c1.9 0 3.7-.2 5.6-.4 1.6-.1 3.3-.4 5-.3h26.3l4.5-.1 5 .1h2.3c1.1.1 2.3 0 3.3.3a18 18 0 007.7 0c2-.4 4.1-1 6.2-1.6 1.5-.3 3-.5 4.6-.5h1c.6 0 1 .3 1.3.7.4.4.4.7 0 1.1-.5.5-1 .8-1.7 1.1a57.5 57.5 0 01-11.4 3.4h-1.3z"
    fill="#D5BBAC"
  />
  <path
    fill-rule="evenodd"
    clip-rule="evenodd"
    d="M124.4 89.1c0 .2.1.3.3.3l-.1-.2s-.1-.1-.2 0zm-.4-.4c0-.2-.1-.3-.4-.4 0 .2.2.4.4.4zm3.2-4.2c.2 0 .4.3.7.5-.2-.4-.4-.5-.7-.5zm1 .2l.4.8c0-.4-.1-.7-.4-.8zm-5 2.2h-.2c0 .4 0 .8.3 1h.1l-.3-1zm4.8-.8c0-.4-.3-.6-.6-.8-.1 0 0 .1 0 .1l.6.7zm-3.7.9c0-.4 0-.7.2-1l.5-.7c-.7.4-1 1.2-.7 1.7zm-1.1-.9c.2-.6.5-1.2 1-1.6.6-.4 1.2-.6 1.9-.7.6 0 1.3.2 1.9.6 0-.3-.2-.3-.3-.4-.6-.4-1.3-.4-2-.3-1.2.2-2 .8-2.5 2-.1 0-.2.2 0 .4zm1.5.8c0 .6.4 1.4 1.1 1.5.5 0 .8 0 1.2-.3.4-.1.6-.5.7-.9.1-.9-.5-1.7-1.4-1.8-.9 0-1.6.6-1.6 1.5zm1.3 3c-.8.1-1.4-.2-2-.7-.6-.5-1-1.2-1.3-2-.3-.9-.2-1.8.4-2.6 1-1.6 3-2 4.4-1.2 1.3.7 2.4 2.2 1.8 4.1-.4 1.1-1 2-2.2 2.3l-1.1.2zM80.9 88.2c-.2.1-.3.2-.3.4.2-.1.2-.1.3-.4zm-.8.9c-.1 0-.3 0-.4.2.2 0 .4 0 .4-.2zm-2.8-4.8c-.2.1-.4.1-.5.4.3 0 .4-.1.5-.4zm3.9 3.5c.2-.2.3-.5.3-1l-.1.3-.2.7zm-5.3-2.1l.4-1.1c-.3.3-.5.6-.4 1zm3.7-.3c.5.4.6 1 .7 1.7.2-.7-.1-1.5-.7-1.7zm-2.3-.1c-.6 0-1 .7-.9 1.1.2-.5.5-.8.9-1.1zm-.3-1.4c0 .1.1 0 .2 0l1.3-.1c1.6 0 2.8 1.2 3 2.4v.1c.2-.6-.4-1.6-1.3-2.2-1-.6-2.6-.7-3.2-.2zm1.1 1.4c-.5 0-1 .2-1.1.6-.5.8-.5 1.5.3 2.1l.4.3c.3.2.7.2 1 0 .6-.1 1-.6 1.2-1.2 0-.3 0-.7-.2-1-.4-.5-.8-.8-1.6-.8zm3.9 1c0 .8-.3 1.6-.8 2.3-.3.4-.7.7-1.2 1-1.6.6-3.2.1-4.3-1.1-.4-.6-.6-1.3-.6-2 0-1.2.5-2.1 1.3-2.9.6-.5 1.3-.6 2-.6.8 0 1.6.2 2.2.6.6.4 1 .8 1.2 1.4l.2 1.3z"
    fill="#FBE900"
  />
  <path
    fill-rule="evenodd"
    clip-rule="evenodd"
    d="M58.3 74.7a28.4 28.4 0 009.3 4.4l2 .5h5.7l2-.3 5.4-.2H96l8.9.1a219.7 219.7 0 007.3 0h13.7c1.2 0 2.3.2 3.4.4 1.6.2 3.1.1 4.8 0 2-.4 3.8-1 5.7-1.6 2-.5 3.8-1.4 5.7-2.3h.2l-1.1.6c-2 1-4 1.7-6 2.3l-3.5 1-3 .3c-1 .1-2 0-2.9-.1-1.5-.3-3-.3-4.4-.3H108.1l-7.2-.1H81.7c-2 0-3.8 0-5.7.2-1.7.2-3.5.2-5.2.2a31.3 31.3 0 01-12-4.7c-.2 0-.4-.2-.5-.4z"
    fill="#D38628"
  />
  <path
    fill-rule="evenodd"
    clip-rule="evenodd"
    d="M138.1 78.3c-1.2.4-2.3.8-3.6 1l-2 .2c-1 .1-2 0-3-.1a32 32 0 00-4.5-.3h-18.3l-11.5-.2H124l3.2.2c1.3 0 2.5.2 3.7.3 1 0 2.1 0 3.2-.3 1.3-.2 2.5-.4 3.8-.8h.1zM76 79.2l1.7-.2c1.5-.2 3-.2 4.5-.2h11.1l-.4.1H79.6l-3.3.3h-.4z"
    fill="#D38628"
  />
  <path
    fill-rule="evenodd"
    clip-rule="evenodd"
    d="M125 80.8l-.1-.2h-.1l.1.2zm-.3-.4l.6.3v.2a2 2 0 01-.6.7c-.3.2-.7 0-.8-.4 0-.5.2-.8.8-.8z"
    fill="#0781A8"
  />
  <path
    fill-rule="evenodd"
    clip-rule="evenodd"
    d="M69 79.2c1.7.2 3.3.1 5 .2-1.7 0-3.4.2-5-.2zM143.2 76.5c-.8.5-1.7.8-2.7 1l2.7-1z"
    fill="#D38628"
  />
  <path
    fill-rule="evenodd"
    clip-rule="evenodd"
    d="M127 81.8v1l-.1.1-.1-.1c0-.3 0-.6.2-1zM77.6 81.9c.2.2.2.5.2.7l-.1.2c-.1 0-.2 0-.2-.2V82z"
    fill="#0781A8"
  />
  <path
    fill-rule="evenodd"
    clip-rule="evenodd"
    d="M80.5 81.4c-.2.1-.4 0-.5.2h-.2l.1-.2h.6z"
    fill="#847D6F"
  />
  <path
    fill-rule="evenodd"
    clip-rule="evenodd"
    d="M138.7 78l.6-.1c0 .1 0 0-.1 0l-.5.2zM75.5 79.3a2 2 0 01-.8 0h.8zM63.1 77.2c.1 0 .3 0 .4.2l-.4-.2zM145.7 75.2l-.1.2v-.2h.1z"
    fill="#D38628"
  />
  <path
    fill-rule="evenodd"
    clip-rule="evenodd"
    d="M122.6 84.8v-.1h.1z"
    fill="#0781A8"
  />
  <path
    fill-rule="evenodd"
    clip-rule="evenodd"
    d="M83.6 76.2H83h.5zM126.2 76.3h.2-.2zM119.8 76.3h.5-.5zM126.7 77.3h0zM120 77.3h.6-.5zM77.7 77.4h-.2-.2c.1-.1.3 0 .4 0zM77.4 76.3h.1zM83.7 77.2h-.2.2z"
    fill="#FEFEFE"
  />
  <path
    fill-rule="evenodd"
    clip-rule="evenodd"
    d="M127.2 87.1c0-.7-.4-1.2-.9-1.3-.6 0-1.2.5-1.2 1 0 .7.4 1.1 1 1.1s1.1-.3 1.1-.8zm.3-.1c0 .7-.7 1.2-1.5 1.2-.6 0-1.1-.6-1.1-1.3 0-.7.5-1.3 1.3-1.3.7 0 1.3.6 1.3 1.4zM78.4 88c.6 0 1-.4 1-1s-.6-1.2-1.1-1.2c-.7 0-1.2.4-1.2 1 0 .7.6 1.2 1.3 1.2zm-.3-2.5c.7 0 1.1.3 1.4.7.2.3.2.6.2.9-.1.4-.4.7-.7 1-.5.2-.9.2-1.3 0l-.3-.3c-.6-.5-.6-1.2-.2-1.8.2-.4.6-.5 1-.5z"
    fill="#847D6F"
  />
  <path
    fill-rule="evenodd"
    clip-rule="evenodd"
    d="M126.1 87.5c.3 0 .5-.2.5-.4 0-.3-.2-.5-.4-.5s-.5.2-.5.5c0 .2.2.4.4.4zm1-.5c0 .4-.5.7-1 .7-.4 0-.8-.4-.8-.9 0-.3.6-.8 1-.8s.8.5.7 1zM78.7 87c0-.3-.2-.5-.4-.5-.3 0-.5.3-.5.5 0 .3.2.5.5.5s.4-.2.4-.5zm-.5-1c.5 0 1 .4 1 1 0 .4-.3.8-.8.8-.6 0-1-.4-1-.9s.3-1 .8-1z"
    fill="#847D6F"
  />
  <path
    fill-rule="evenodd"
    clip-rule="evenodd"
    d="M126.4 87c0 .2-.1.2-.2.2-.2 0-.3 0-.3-.2l.3-.2c.2 0 .2.1.2.3zM78 87c0-.2.2-.2.3-.2.2 0 .2 0 .2.2s0 .3-.2.2c-.2 0-.3 0-.3-.2z"
    fill="#847D6F"
  />
  <path
    fill-rule="evenodd"
    clip-rule="evenodd"
    d="M145.7 75.2s-.2 0-.1.2l.1-.2zm-82.6 2l.4.2a.7.7 0 00-.4-.2zm12.4 2h-.8c.3.1.5.1.8 0zm63.2-1.1l.5-.1s.1 0 0-.1l-.5.2zm4.5-1.6l-2.7 1c1-.2 1.9-.5 2.7-1zM69 79.2c1.6.4 3.3.1 5 .2-1.7 0-3.3 0-5-.2zm7 0h.3l3.3-.2h7.1c2-.2 4.1-.1 6.2-.1h.4v-.1H82.1c-1.5 0-3 0-4.5.2-.6 0-1.2 0-1.8.2zm62.1-1h-.1a32.5 32.5 0 01-7 1.2c-1.2 0-2.4-.3-3.7-.3l-3.2-.1h-8l-5.8-.1H95.2l11.5.1H125c1.5 0 3 .2 4.4.4 1 .1 2 .2 3 .1.8 0 1.4-.2 2.1-.3 1.3-.1 2.4-.5 3.6-1zm-79.8-3.5l.5.4a24.7 24.7 0 009 4.2c1 .3 2 .5 3 .5 1.7 0 3.5 0 5.2-.2l5.7-.3h19.2l7.2.2H124.8c1.5 0 3 0 4.4.3 1 .1 2 .2 3 .1 1 0 2-.2 2.9-.4 1.2-.2 2.3-.6 3.5-1 2-.5 4-1.2 6-2.2.4-.2.7-.3 1-.6h-.1c-1.9 1-3.7 1.8-5.7 2.3-2 .6-3.8 1.2-5.7 1.5-1.7.2-3.2.3-4.8 0l-3.4-.2h-13.7a88.8 88.8 0 01-7.3 0L96 79H82.8l-5.4.2-2.1.2c-1.8.2-3.5.1-5.3.1h-.4l-2-.5a29.8 29.8 0 01-9.3-4.4zM82 86.3c0-.5 0-1-.2-1.3-.3-.6-.6-1-1.2-1.4-.6-.4-1.4-.5-2.1-.6-.8 0-1.5.1-2 .6-1 .8-1.4 1.7-1.4 2.9 0 .7.2 1.4.6 2 1 1.2 2.7 1.7 4.3 1 .5-.2.9-.5 1.2-1 .5-.6.8-1.4.8-2.2zm44 3.7c.4 0 .8 0 1.1-.2 1.2-.4 1.8-1.2 2.2-2.3.6-1.9-.5-3.4-1.8-4a3.5 3.5 0 00-4.4 1.1c-.6.8-.7 1.7-.4 2.6.2.8.7 1.5 1.3 2 .6.5 1.2.8 2 .8zm5.7-10.8h1.3a42 42 0 0011.4-3.5c.6-.3 1.2-.6 1.7-1.1.4-.4.4-.7 0-1.1-.3-.4-.7-.6-1.2-.7h-1.1c-1.6 0-3.1.2-4.6.5L133 75a16.1 16.1 0 01-7.7-.1c-1-.2-2.2-.2-3.3-.2l-2.2-.1-5-.1-4.6.1H83.8l-4.9.3a46 46 0 01-9.3 0l-7.1-1.6c-1-.2-2.1-.3-3.2-.2l-.6.1c-.4.3-.5.5-.1.9s.8.8 1.4 1.1l3 1.7c1.6.8 3.4 1.3 5.1 1.8l2.1.4h1.1c1.4.1 2.9 0 4.3-.1l3.5-.4h29.6l5.2.1h11.5c1.4.1 3 .1 4.4.4h2zm-29.5.5c-3.4-.2-6.7-.1-10.1-.2h-7.2c-.2 0-.3.1-.3.3-.2.4-3.6 1.1-3.8 1.5 0 .2-.8.3-.8.5 0 .7.4.4.2 1-.3.5.4.4.9.8a7 7 0 011 1.8c.2 1.2 0 2.3-.7 3.3-.6.7-1.4 1.2-2.4 1.3a4 4 0 01-2.5-.5c-1.3-.8-1.7-2-1.6-3.5a4 4 0 012.2-3c.2-.1.2-.2.2-.5l.1-1V81l-.2-.1H77a1 1 0 01-.9-.6c-.1-.3-.3-.3-.5-.3l-3.3.1h-3c-2-.6-3.8-1.1-5.6-1.9a23.5 23.5 0 01-5-2.9c-.5-.3-.7-.7-.6-1.3 0-.6.4-.9 1-1a5 5 0 011.9 0c.8 0 1.6.2 2.4.4l6.4 1.4c2 .4 3.9.4 5.9.3l2.7-.2c1.6-.2 3.2-.4 4.8-.4h26l3.2-.1h6.5c1.5 0 3 0 4.5.2 1.1 0 2.2.2 3.4.4a15.4 15.4 0 006.8-.3l3.3-.8 3.2-.8a16 16 0 015-.3c.6 0 1 .3 1.4.7.2.2.2.4.2.7l-.1 1a2 2 0 01-.9 1l-2 .9c-1.7.9-3.6 1.3-5.4 2-2 .6-4 1-6.1 1.2l-2.2-.1-1-.2c-.3 0-.4 0-.5.2-.2.5-.5.7-1 .7-.3 0-.4 0-.3.4v.3c.2.4.2.8.1 1.3 0 .1 0 .2.2.3.7.3 1.2.8 1.7 1.5.7 1 .7 2 .3 3.1-.3 1.2-1.2 2-2.4 2.4-1.4.3-2.6 0-3.5-1.1-.5-.6-1-1.3-1.1-2-.1-.6-.1-1 0-1.6.2-1 .8-1.4.6-1.6 1-1.2 1.3-1.2 1-1.8-.2-.6-.3-1-.2-1.6l-3.6-.4c-.3-.4-.5-.3-.7-.3H102.2z"
    fill="#2E0940"
  />
  <path
    fill-rule="evenodd"
    clip-rule="evenodd"
    d="M83.6 76.3H83h.5zm-.3.4l-.5-.1-.2-.2.1-.2c.3-.3.6-.3 1-.2l.2.4c0 .2-.2.3-.3.3h-.3zM126.2 76.4h.1s.1.1.1 0h-.2zm.2.4c-.3 0-.5 0-.6-.2-.1 0-.2 0-.2-.2 0 0 0-.2.2-.2.3-.1.6-.2.9 0 0 0 .2 0 .2.3 0 .2-.2.2-.3.3h-.2zM119.8 76.5h.5c-.2-.2-.4-.2-.5 0zm.3.3h-.6l-.1-.4.1-.2c.3-.2.6-.2.9 0 .1 0 .2.1.2.3 0 .2-.1.3-.3.3h-.2zM126.7 77.4h0zm.1-.3h.4c.2.2.2.4 0 .5-.1.3-.8.2-1 0v-.4c.2-.2.4-.1.6-.1zM120 77.5h.6c-.1-.2-.3-.2-.5 0zm.4-.4c.3 0 .5.1.6.3 0 .3-.2.4-.5.5-.4 0-.7-.2-.7-.4 0-.3.2-.4.6-.4zM77.7 77.5c-.1 0-.3-.2-.4.1h.4zm-.3.4H77l-.1-.3.1-.3c.3-.2.6-.2.9-.1.1 0 .2.3 0 .5-.1.2-.3.2-.5.2zM77.4 76.4h.1zm.1-.4h.2c.2 0 .3.1.3.4 0 .2-.1.2-.2.3-.3.1-.6 0-.8 0l-.2-.3.1-.2c.2-.2.4-.1.6-.2zM83.7 77.4v-.1h-.2.2zm0 .3h-.2c-.2 0-.4 0-.4-.3s.2-.4.4-.4.4 0 .6.2c0 .1.1.3 0 .4h-.5zM127.5 87c0-.8-.6-1.4-1.3-1.4-.8 0-1.3.6-1.3 1.3 0 .7.5 1.3 1.1 1.3.8 0 1.5-.5 1.5-1.2zm-2.8-.1c0-.9.7-1.5 1.6-1.5.9 0 1.5 1 1.4 1.8 0 .4-.3.8-.7 1-.4.1-.7.3-1.2.2-.7 0-1.2-1-1.1-1.5zM123.2 86.1c-.2-.2-.1-.3 0-.5a3.2 3.2 0 012.6-2c.6 0 1.3 0 1.9.4 0 0 .2.1.3.4-.6-.4-1.3-.6-2-.6-.6.1-1.2.3-1.7.7-.6.4-.9 1-1.1 1.6z"
    fill="#2E0940"
  />
  <path
    fill-rule="evenodd"
    clip-rule="evenodd"
    d="M124.3 87c-.3-.5 0-1.3.7-1.7l-.5.8-.2.9zM128 86.1l-.7-.7.1-.1c.3.2.6.4.6.8zM123.1 87l.3 1c-.3-.3-.4-.7-.4-1h.1zM128.2 84.7c.3.1.5.4.4.8l-.4-.8zM127.2 84.5c.3 0 .5.1.7.5l-.7-.5zM124 88.7c-.2 0-.3-.2-.4-.4.3 0 .3.2.4.4zM124.4 89.1h.2v.3s-.2-.1-.2-.3zM78.1 85.5c-.3 0-.7 0-1 .5-.3.6-.3 1.3.3 1.8l.3.2c.4.3.8.3 1.3 0 .3-.2.6-.5.7-1 0-.2 0-.5-.2-.8-.3-.4-.7-.7-1.4-.7zm0-.2c.8 0 1.2.3 1.6.8.2.3.3.7.2 1-.2.6-.6 1-1.2 1.3-.3.1-.7.1-1-.1l-.4-.3c-.8-.6-.8-1.3-.3-2.1.2-.4.6-.6 1.1-.6zM77 84c.6-.6 2.3-.5 3.2 0 1 .7 1.5 1.7 1.3 2.3-.2-1.3-1.4-2.5-3-2.5-.5 0-1 0-1.3.2H77zM77.3 85.3c-.4.3-.7.6-.9 1.1-.2-.4.3-1 .9-1.1zM79.6 85.4c.6.2.9 1 .7 1.7 0-.7-.2-1.3-.7-1.7zM75.9 85.7c-.1-.5 0-.8.4-1.1 0 .4-.3.7-.4 1zM81.2 87.8l.2-.7.1-.2c0 .4 0 .7-.3.9zM77.3 84.3c-.1.3-.2.3-.5.4.1-.3.3-.3.5-.4zM80.1 89c0 .2-.2.3-.4.3.1-.2.3-.2.4-.2zM80.9 88.2l-.3.4c0-.2.1-.3.3-.4zM126.4 81.8c.2-.3 0-.6.3-.9 0 .6 0 1-.3 1.5v-.5-.1zM126.4 81.8v.1l-.3.3c0-.4.2-.7.3-1v.6zM125.9 82c0-.3 0-.4.2-.6l-.2.6zM77.9 81l.2.6c0 .2.1.4.3.5v.3l-.2-.2-.4-1V81zM78.3 81.2l.2.7c-.3-.1-.3-.4-.3-.6h.1zM78.5 81.3c.2.1.3.2.2.4-.2 0-.2-.2-.2-.4zM127 87c0-.5-.3-1-.7-1-.4 0-1 .4-1 .8 0 .5.4 1 .8 1 .5 0 1-.4 1-.8zm.2.1c0 .5-.5.8-1 .8-.7 0-1-.4-1-1s.5-1 1.1-1c.5 0 1 .5.9 1.2z"
    fill="#2E0940"
  />
  <path
    fill-rule="evenodd"
    clip-rule="evenodd"
    d="M78.2 86c-.5 0-.9.4-.9 1 0 .4.5.8 1.1.8.5 0 .8-.4.8-.9s-.5-1-1-1zm.2 2c-.7 0-1.3-.5-1.3-1.1 0-.7.5-1.1 1.2-1.1.5 0 1 .6 1 1.1 0 .7-.3 1.1-1 1zM126.5 87.1c0-.1 0-.3-.2-.3s-.3.1-.4.3c0 .2.1.2.3.2.1 0 .3 0 .3-.2zm-.3.5c-.3 0-.5-.2-.5-.5 0-.2.3-.5.6-.5.2 0 .4.3.4.6 0 .2-.2.4-.5.4z"
    fill="#2E0940"
  />
  <path
    fill-rule="evenodd"
    clip-rule="evenodd"
    d="M78 87c0 .2.1.3.3.3.2 0 .3 0 .3-.3 0-.1-.1-.2-.3-.2-.1 0-.2 0-.3.2zm.8 0c0 .3-.2.5-.5.5-.2 0-.5-.2-.5-.5 0-.2.2-.5.5-.5s.5.2.5.5z"
    fill="#2E0940"
  />
  <path
    fill-rule="evenodd"
    clip-rule="evenodd"
    d="M86.3 20.6c-3 6-1.1 13.2-3.3 19.5-1.8 5.1-5.2 9.6-6.7 14.8-.2.6-.4 1.3-.3 2 .2.6.6 1.2 1 1.8l6 8c.4.7.8 1.3 1.4 1.8.6.6 1.3 1 2 1.4 1.3.9 2.7 1.8 4.2 2.5 3.5 1.7 7.5 1.8 11.4 1.5 5.7-.5 11.7-2 16-6 1.5-1.5 2.8-3.2 4-5 6-9 9.7-19.4 10.7-30 .1-.8.2-1.6.6-2.3.4-.8 1.2-1.3 1.7-2 .5-.8.6-2-.2-2.4 1.8-.2 2.3-2.5 2.2-4.2a9.6 9.6 0 00-1.5-5.2c-1.1-1.5-3-1.3-4.8-1.9 0-.4-1-.3-1-.7-1.8-2-5.1-4.6-8.4-6.2a28.5 28.5 0 00-11.6-2.4c-.8 0-6.8-1.5-5.3.3C107 8.7 101.2 9.7 99 9c-1.1-.3.8-3.1 0-2.6-2.1 1.1-6.5 3.6-8 5.3-2.4 2.7-3 5.6-4.7 8.9z"
    fill="#8CD0E4"
  />
  <path
    fill-rule="evenodd"
    clip-rule="evenodd"
    d="M99.1 9.2l-2.5-5-.2-1.7-.4-1.2 2.3-.3 1.6 1 2.1 2.4 1.8 3.6.2 1s-2.4 2.1-4.9.2zM117 6.4l1.7-3.1s.5-.4 1.2-.3c.7.2 1.8 1.5 1.8 1.5s.3.8.3 1.3-1.1 2.2-1.1 2.2-3-.3-3.9-1.6z"
    fill="#BCB9C3"
  />
  <mask id="b" maskUnits="userSpaceOnUse" x="72" y="0" width="67" height="77">
    <path
      fill-rule="evenodd"
      clip-rule="evenodd"
      d="M72.2.4h66.1v76H72.3V.4z"
      fill="#fff"
    />
  </mask>
  <g mask="url(#b)">
    <path
      fill-rule="evenodd"
      clip-rule="evenodd"
      d="M127 23.5v-.2h-.5l-.2.3.2.2.5-.3zm6.5 18.5h-.1.1zm-.7-1.6l-1.6.6-.3.3c0 .6-.6.7-.7 1.1l.2.5v1.3l2.1-.5.5-.6c-.4-.1-.6-.4-.4-.8v-.2l.2-1.7zM77.5 57.9l-.4-.8c-.1-.5-.4-.6-.8-.6-1 0-1.9.3-2.7.8l-.8.4v.3c-.3.5 0 1 .6 1l.5.1.8.2c.4.2.7 0 1 0 .8 0 1.4-.2 2-.6-.6-.4-.6-.7-.2-.8zm35.7 16l-.4-.7v-.3l-1-2h-.2l-.5-.1v.6l-.8.3c0 .7-.8.3-1 .7l.7 1.4c0 .2.2.3.3.5.3.3.4.8 1 .8h.1c.3.4.7.4 1 .5.9.2 1-.1.9-.9l-.1-.7zm17.1-52h-1c-.6.3-1.1.4-1.5 1-.5.6-.5 1.3.3 1.7.6.2 1.1.6 1.7.5.6-.1 1.1.2 1.6-.4.3-.3.8-.4 1.2-.6.3-.2.6-.7.4-1-.2-.3-.5-.6-.8-.7-.6-.3-1.3-.4-1.9-.5zm-41.2 50c-.4-.2-.2-.5-.2-.8 0-.2 0-.4-.2-.5l-1.1-.6.2-.2-.2-.1c-.3-.2-.6.3-.8 0-.2-.3-.5-.4-.8-.5-.4-.2-.5-.2-.7.2l-.5 2s.2 0 .3.2l1 1.5.3.5c.4.5 1 .6 1.6.7l.3-.4.4-.7.2-.9.2-.4zM133.9 25c0 .3.3 1 .6 1.2.6.3.8.2 1.2-.4.3-.4.5-1 .5-1.5 0-.6.2-1.2 0-1.8L136 20l-.1-.9-.6-1-.5-.6-.6-.8a10 10 0 00-1.8-.6c-.5-.1-.7.1-.6.6l.4 1.4.1.7.2.6.4 1.7v.2c.5.4.6 1.2 1.3 1.4v1.3l-.2 1zm-6.4.1c-.3-.2-.6-.2-1-.1-1 0-2 0-2.5 1.1-.9.8-1 1.7-1 2.8 0 .3.1.8.3 1l1 1 1 .4h.3l1.2-.2h1c.2 0 .4 0 .7-.2.2 0 .5 0 .7-.2.6-.6 1.3-.6 2-.4.3.1.8.3 1 .1.4-.3 1-.4 1.3-.9.3-.5.7-1 .7-1.7 0-.6 0-1-.3-1.6-.3-.4-.6-.4-1-.4h-.8v.2h-1.8c-.5.2-.9.1-1.3 0l-1.9-.7.4-.2zm-8.1 4.7l1.6-2.3.8-1.3.2-.6v-1.1l-.3-1.6c-.1-.6-.5-1.2-1-1.8-.6-.5-.7-1.2-1.5-1.6a.6.6 0 01-.2-.2c-.4-.7-1-1-1.8-1.3-1.4-.7-3-.7-4.5-.9h-.3c-.8 0-1.5.4-2.4.1l-1.2.5L107 19l-.6.6-1.3 1a3.2 3.2 0 00-.8 1.9c0 .5-.6 1 0 1.6v.1c-.3.6-.1 1.1 0 1.7l.6 1 .7 1a17.4 17.4 0 002.2 1.9c.2.1.6.1.8.3.8.5 1.6 1 2.6 1.1l.5.1 1.7.2 1.2.1h.6l.3-.1c.8 0 1.5-.2 2-.5l1.3-.8.6-.3zM120.7 6c.1.2.1.3-.2.6.2.3.2.3-.3.6l.3.3-.2.2c.2.2.4.3.4 0 0-.6.2-1.2.3-1.7v-.5-.1l-.1.1c.2.3 0 .4-.3.5v-.6l.4-.3-.8-.4v-.1l.8.1c-.2-.6-.9-.4-1-1h-.2c-.3.1-.7.2-.9.4-.6.7-.9 1.5-1 2.5v.3l.4-.1c0 .3 0 .7.6.7h.6c.1 0 .3 0 .4-.2l.2-.6.3-1 .3.3zm11.5 38.3c-.6.4-1.4.4-2 .7-.2 0-.4.3-.4.5l-.3 1.1-.7 2.5-.3.3-.5 1-.3 2h-.6c0 .2 0 .5-.2.8-.1.5-.4 1-.7 1.4v.4h-.3l-.2 1c-.2.5-.3 1-.7 1.3-.2.2-.3.6-.7.6v.3l-.3.6-.3.4-.8 1.3h-.8l.4-.8c.3-.5 1-.8 1-1.5l.7-.4-.3-.3h-.1l.6-.2-.2-.2.8-1.6c-.2-.3.2-.9.8-1.2-.2-.5.1-1 .4-1.4l.1-.4 1-2.2.4-1.5.4-1.1.3-.6.5-1.2.2-.4.5-2.6.4-2 .5-2V38l.3-.3v-.4c0-.8.2-1.6.1-2.4 0-.3-.2-.4-.4-.3l-.6.1c-5.9-.5-5.8-1.6-6-1.7 0 0 1.8 0 1.8-.3l.3-.4-1.3-.4-.6-.2c-.2 0-.4-.1-.4-.3-.3-.5-.7-.8-1.2-1.2l-.3-.4c0-.2 0-.4-.2-.6h.1v-1.4l-.4.3-1 1.5-1.4 1.2c-.3.2-.5.5-.8.6l-2.1 1-.7-.2c0 .4-.2.5-.7.3l.4-.3H114v.4l-1.3-.1c-.7-.2-1.4-.3-2-.8h-.2c-.5 0-1 .2-1.3-.4h-.1c-.6.1-.9-.6-1.4-.6l-.2-.1c-.4-.8-1.2-1.1-1.7-1.7-.3-.4-.9-.6-1-1.2 0-.4-.2-.7-.3-1l-.2-.2-.2-.2c0-.7-.4-1.4-.6-2-.1-.8-.2-1.6 0-2.3l.3-1.5c.2-.8.5-.1 1-.9.3-.6.6-.6 1.3-1l2.2-1.3c.6-.5 1.3-.5 2-.6.5 0 1-.3 1.5-.4h.8c.3-.1.5-.1.8 0 .3.2.7.1 1.1.2l2 .6a4 4 0 012 1.4c.3.3.8.4 1 .6l.8.6c.3.5.7.8 1 1.4.1.5.5.9.5 1.4l.1.2c.6.6.6 1.3.7 2 .2.8.5.1.6.9v.1c-.3.6-.1-1-.3-.5v.4l.3-.1 1-1.1.3-.3h1.1l.6-1 .2-.5c.2-.3.7-.2 1-.7.1-.3.7-.5 1.1-.7.6-.2 1.1-.3 1.7 0h.2c.5-.2 1 0 1.4 0 .3 0 .3 0 .3-.4l-.3-1.5-.1-.6c.1 0-.1-.2 0-.2-.2-.4-.8-.6-.8-1l-1-1.5c-.4-.4 1 1-1.2-1.6-.5-.6-1.1-1-1.5-1.6-.5-.7-1-1.2-1.8-1.5-.6-.2-.8-.8-1.3-1l-.7-.3.1.4-1.6-1v.4c0-.5-.6-.7-.9-.7-1-.4-2-1-3-1.3l-1.8-.5a47.7 47.7 0 00-2-.4c-.1 0-.4.3-.5-.1h-.5v-.1l-.5-.2h-.2c-.2.4-.4 0-.7 0-1.4-.5-2.8-.6-4.3-.7l-.8-.1-1.8.2h-1c0 .4.2.7.4 1 0 .2.2.3.3.5V8l-.5-.2-.6-1-.5-1-.5-1-.3-.5-1.4-1.7-.6-.4-.2-.3a3.1 3.1 0 00-3.1-.8c-.5.2-.7.8-.6 1.3.3 1.3 1 2.5 1.5 3.6.6.3.4 1 .6 1.4l.6 1.1c.1.2.3.4.2.5-.1.2-.3.6-.7.3h.1l-1-1.1V8l.4.1c-.1-.3-.3-.4-.6-.2l-1 .4c-.1.1-.6 0-.6.4l-.3.2h-.3l-1.4 1.3-.9.5c-.3 0-.4.4-.6.5-.7.4-1 1.2-1.5 1.6-.6.4-.9 1-1.1 1.5l-.5 1-.8 2c0 .2-.2.2-.3.2 0 .2 0 .5-.2.7l-.4 1.3-.3.3v.6l-.7 1.8c-.3.7-.3 1.5-.4 2.4h-.4l.3.3-.3.2.2.3c-.3.4-.2.8-.1 1.2v.3c0 .5-.3 1.1-.3 1.7V30l-.1 1.4-.8 3.5v.3c-.5 1-1 2-1.3 3 0 .4-.5.8-.5 1.3s-.3 1-.4 1.5l-.2.3-1.5 3-1.4 3.1c-.3.7-.6 1.3-.6 2.1l-.3.8L78 52l-.1.3v1.5c0 .5-.3 1-.2 1.5 0 .4 0 .9.2 1.3l1.1 3.6c0 .2.2.3.3.5l.6 1.1c.2.3.2.6.6.6.2 0 .3.2.4.4l.3 1 .3.3.2.1L83 66c.3.4.6.7 1 .9l2.8 1.7.3.1v.4l.2-.2 1.2.6c.7.5 1.6.5 2.4.9l1.6.5 1 .1.4.3.1-.2v.3h.1l.2-.3 2.7.9v-.3c.2.3.3.3.6.2h.8c.7.4 1.4.3 2.1.3l1.8.4s.2.1.2 0c.5-.3 1 0 1.5 0l3-.8 1.1-.4.2-.3 1.5.3c0-.4.3-.4.6-.5.2 0 .4 0 .5-.3l.4-.2c.4-.1.8-.3 1-.7.1-.2.3-.3.5-.3.5-.2 1-.5 1.4-1 .2-.2.5-.2.9-.3 0-.7.8-1.2 1.4-1.2l.7-.8c.3-.3.9-.4 1-.7 0-.4.4-.4.7-.6l.2-.4.4-.3V64h.4c-.1-.3-.2-.5.2-.6h.1l1-1.5.4-.3.6-1 .5.2-.5.8v.4l-.8.7-.3.5-.8.9h-.1l.2.3h-.7c0 .4 0 .8-.5.8-.2 0-.3.3-.5.5l-.4.3h-.1v.2a226.3 226.3 0 01-.5.4l-.5.6-.7.1.1.4h-.8l.3.1c-.4.2-.5.8-1.2.8-.2 0-.5.5-.8.9l-.3.1-.8.4c-.5 0-.6.3-.5.8l.6 2c0 .2.2.3.3.4.3.5.5 1 .5 1.6v.6c0 .6-.5 1-1.1 1-.6 0-1 0-1.6-.3-.5-.3-1-.7-1.3-1.1l-.1-.6c-.3 0-.5-.2-.5-.6 0-.1 0-.3-.2-.3-.3-.3-.4-.5-.1-.9-.5 0-1-.3-1.4-.3-.3 0-.7 0-1 .3-.2.2-.5.3-.8.3l-.6.1-.1-.3c-.8.7-1.7.4-2.6.6-.1-.3-.3-.4-.6-.3l-.6.1h-1l-.6-.3-.7.1-1.5-.3-3-.5-1.5-.4-1.5-.4-.5-.1h-.4l-.7-.2-.3 1v.6l-.5 1.5c-.1.3-.4.4-.6.6l-.3.3v.1c-.5 0-1.1-.2-1.7-.4v.1l-.2-.1c0-.3 0-.4-.4-.6-.2 0-.4-.5-.6-.8l-.3-.6h.3l-.2-.2c-.2 0-.8-.7-.7-1v-.1l.2-.4c0-.2-.2-.5.1-.7v-.5c.6 0 0-.6.2-.8v-.6l-1.3-.7c-.2 0-.2-.3-.2-.5-.2-.3-.7.1-.8-.4-.1-.3-.7-.4-.4-.8-.2-.2-.4-.2-.4-.4 0-.3-.3-.5-.6-.8l-.7-1-.6-.4.3-.3-.4-.3v.4c-.2 0-.4-.3-.4-.4l.3-.7-.4-.5v.5c-.2 0-.4 0-.5-.2-.2-.2-.2-.5-.3-.7l-.5-1.2s-.2-.2-.3-.1l-1.9.2-.3-.1s-.2-.2-.3-.1c-.5.4-1 0-1.4-.1-.4-.1-.9-.4-1.3-.7-.2 0-.2-.4-.2-.6 0-.7.3-1.3.8-1.8.8-.1 1.4-.8 2.3-.7l1.4-.2.2-.2v-1.5l.2-2v-.4c0-.8.4-1.4.5-2l.2-.3.4-1.4.5-1.4.4-.5v-.4A3 3 0 0180 44l.6-.7c-.3-.4-.2-.7.2-.9l-.1-.3h.6l-.4-.3c0-.4.8.2.6-.4H81l.8-1.4.2.4v-1.1l.6-.1-.5-.4h.5c0-.3-.6-1 .2-1 0-.2 0-.5-.2-.8h.8l-.5-.4h.6v-.2l-.5-.2h.4V36l-.2-.3.4-.7.2-.5c0-.8.3-1.5.6-2.2.2-.6 0-1.3.1-2l.2-.5v-3.5c0-.8 0-1.7.2-2.4.1-.7.6-1.3.7-2 .1-.5.7-.8.4-1.3.8-1.3 1.1-2.7 1.7-4l.6-1s-.1-.2 0-.2c.6-1.3 1.3-2.6 2.4-3.6L93 9.6l1.4-1c.6-.2 1.1-.5 1.6-.9l.6-.6.4-.4-.2-.3.2-.2-.6-.5c.7 0 .7-.2.4-.6-.2-.3-.5-.6-.3-1-.7 0-.3-.7-.6-1l.4-.2c-.8-.4-.6-1-.6-1.7h.2l.5-.4c0-.7.5-.2.7-.3h.4c.7 0 1.5 0 2.2.3l.1.3c.3.3 1 0 1.2.6l.3.3.4.7.2.3c.1.5.6.8 1 1.2 0 .2.3.2.6.3l-.4.2.7.3c.3 0 .6-.1.9.2h.4l-.4-.3 1.2.2c-.2-.8.4-.2.6-.5v.6c.6-.6 1 0 1.5 0l-.3-.2V5h.5c.6.3.6.3 1 0l-.2.5.3-.1c.4.3.8 0 1.3.1a42 42 0 002 .5v-.2c.3.4 1.3.6 1.7.4l.1.3 2.3.4c-.1-.3 0-.4.4-.4h-.3l.5-1.6.3.2v-.4c-.1-.4 0-.7.5-.6 0-.3.2-.9.5-1 .3 0 .5-.3.8 0l.4-.2c.2-.2.5 0 .6.2.1.1.3.3.5.3.5.2.5.7.5 1l.3 1.4v.6c-.3.5-.1 1-.1 1.5 0 .3.4.7.7.8.3.1.5.4.7.6l1.7.8 1.5 1.2 1 1 .9.7 1.8 1.6.4.3c.2.2.4.5.8.2h.2l2.7 1c.6.2 1 .9 1.3 1.4l1 1.8c.4-.1 1 0 1.3.3l.4.4c.7.8.3 2-.7 2.4-.4.1-.5.3-.5.8v.8h-.3c.4.5.2 1 0 1.5-.3.7-.8 1.4-1.2 2v.3c-.1 1.1-.7 2-1.4 2.8-.3.4-.6.6-1 .6h-.2l-1.5 1c-.4 0-.3-.4-.4-.6l-.8-.1-.7.3c-.7.1-1 .4-1 1.2 0 .3 0 .6.3.7l1 .2c.7.2 1-.1 1.2-.8v-.5c0-.3.2-.4.4-.3l.3.2c0 .6 0 1.3.2 2l-.2.5c.4.3-.3 1 .2 1.3l-.3.9c.2.2.3.4 0 .6v.3l-.6 1.2h.2s0-.2.2-.3c0 .5 0 .7-.6.8l.4.1h.3l-.3.5v.1l1.6-.6c.2 0 1 0 .9.3.1 0 .4.4.5.3.2.8.3 2-.2 3.2m.9-9v-.4.3zm.2-2l.3.1v-.1"
      fill="#020303"
    />
  </g>
  <path
    fill-rule="evenodd"
    clip-rule="evenodd"
    d="M98 42c.3-.4.7-.5 1.1-.6l1.6-.4h.5l2.1.1c.5.1 1 .4 1.4.7l.9.7c.5.4.5.5.2 1.2v.5l-.3-.2c-.3.2 0 .8-.5.7l-.2.4c-.2 0-.5-.4-.5.2h-.5c-.2 0-.4 0-.6.3l-.6.2c-.4 0-.8.2-1-.4l-.6.5h-.8c0 .2 0 .2-1-.2"
    fill="#D8B8B9"
  />
  <path
    fill-rule="evenodd"
    clip-rule="evenodd"
    d="M102.6 41.7l-.4-.5.2.4v.2c-1.5-.5-3-.3-4.4.2.3-.4.7-.5 1.1-.6l1.6-.4h.5l2.1.1c.5.1 1 .4 1.4.7l.9.7c.5.4.5.5.2 1.2v.5l-.3-.2c-.3.2 0 .8-.5.7l-.2.4c-.2 0-.5-.4-.5.2h-.5c-.2 0-.4 0-.6.3l-.6.2c-.4 0-.8.2-1-.4l-.6.5h-.8c0 .2 0 .2-1-.2.6-.1.9-.6 1.5-.4l1.6-.1 2-.5c.8-.3 1-1 .5-1.7l-.7-.5-1.2-.7-.3-.1zM94.4 44.8l.2-.6-.2.6zM102.5 9L101 6.8l-.4-.3c-.5-.4-.6-.9-.6-1.4l.1-.1.3.5c1 .7 1.7 1.7 2.4 2.7.3.4.2.7-.3.8z"
    fill="#020303"
  />
  <path
    fill-rule="evenodd"
    clip-rule="evenodd"
    d="M119.4 30.3l-.6.3-1.2.7c-.6.3-1.3.6-2 .6h-.4l-.6.1-1.3-.1-1.6-.2-.6-.1c-1-.2-1.7-.7-2.5-1.1l-.9-.3-.8-.6-1.3-1.2-.7-1-.6-1c-.2-.5-.3-1 0-1.6v-.1c-.6-.6 0-1 0-1.6 0-.3 0-.6.2-.8.1-.3.3-.7.6-1l1.3-1 .6-.5 1.7-1.2 1.2-.5h.1c.8.3 1.6 0 2.4 0l.3-.1c1.5.2 3 .2 4.5.8.7.3 1.4.7 1.8 1.3 0 0 0 .2.2.2.8.4 1 1.1 1.5 1.6s.9 1 1 1.7c.2.5.2 1 .2 1.6l.1 1-.2.6c-.1.5-.5.9-.8 1.3l-1.6 2.1v.1zM128.4 26.1l-.3.2 1.8.6c.4.2.8.3 1.3.2.5-.1 1 0 1.6 0v-.4h.1c.3.1.5.2.8.1.4 0 .7 0 1 .4.3.5.3 1 .3 1.5 0 .7-.4 1.1-.8 1.6-.3.5-.8.6-1.2.9-.2.1-.6 0-1-.1-.7-.3-1.3-.2-1.9.3-.2.2-.5.2-.7.3l-.8.2h-2c-.1.1-.3.1-.4 0-.3 0-.6-.1-.8-.3-.4-.3-.8-.5-1-.9a2 2 0 01-.4-1c0-1 .1-1.9 1-2.6.5-1 1.5-1 2.4-1h1zM134.4 25.7l.3-.9v-1-.2c-.9-.3-1-1-1.4-1.4l-.1-.2-.4-1.8-.2-.5-.1-.7-.4-1.3c-.2-.5 0-.8.6-.7l2 .7c.2.1.3.4.5.7l.6.6.6 1c.2.3.2.6.2.9l.4 2.3-.2 1.8c0 .5-.1 1-.5 1.5-.4.6-.6.6-1.2.3-.3-.1-.7-.8-.7-1z"
    fill="#FEFEFE"
  />
  <path
    fill-rule="evenodd"
    clip-rule="evenodd"
    d="M89 72.7l-.2.4c0 .3 0 .6-.2.9 0 .2-.2.4-.4.6l-.2.4c-.5-.1-1-.2-1.5-.7l-.3-.5-.9-1.4-.3-.2.5-1.9c.1-.4.3-.4.6-.2.3.1.6.2.8.5.2.3.5-.1.7 0l.2.1-.2.2 1 .6c.2 0 .2.2.2.4 0 .3-.1.7.2.8z"
    fill="#D8B8B9"
  />
  <path
    fill-rule="evenodd"
    clip-rule="evenodd"
    d="M131 22l2 .5c.4.1.7.4 1 .7.1.2-.2.7-.5.8-.5.2-1 .4-1.3.7-.5.5-1.1.2-1.7.3-.6 0-1.2-.2-1.8-.5-.8-.3-1-1-.3-1.6.4-.5 1-.6 1.5-.8.3-.2.7 0 1.1 0V22z"
    fill="#FEFEFE"
  />
  <path
    fill-rule="evenodd"
    clip-rule="evenodd"
    d="M113.8 74.3l.1.8c.2.8 0 1-.8.8-.3 0-.7 0-1-.4h-.2c-.5 0-.6-.5-.9-.9l-.3-.4-.7-1.5c.2-.5 1 0 1-.7l.8-.3V71l.5.2V71h.1l1 2.1v.3l.4.8zM77.9 58.4c-.4.2-.4.4.1 1-.6.3-1.2.5-1.9.5-.3 0-.7.2-1 0l-.9-.1-.4-.1c-.6 0-1-.6-.7-1.1v-.4c.3 0 .6-.2.8-.3.8-.6 1.8-1 2.8-.9.3 0 .6.1.7.6 0 .3.3.5.5.8zM133.5 41c.3 0 .4.4.4 1l.1 1-.3 1-.4.6c-.7 0-1.3.2-2.1.4v-1.3l-.2-.5c.1-.5.8-.6.7-1.3l.3-.2 1.5-.7z"
    fill="#D8B8B9"
  />
  <path
    fill-rule="evenodd"
    clip-rule="evenodd"
    d="M132 33c-.3-.1-.4 0-.4.4v.5c-.2.9-.6 1.2-1.3 1l-1-.2c-.4-.1-.3-.6-.3-.9 0-.9.2-1.2 1-1.4l.7-.4.9.2c0 .2 0 .7.4.8zM128 23.5l-.7.4-.3-.2c0-.2.1-.5.3-.6l.6.1v.3z"
    fill="#FEFEFE"
  />
  <path
    fill-rule="evenodd"
    clip-rule="evenodd"
    d="M116.8 24.8c0-.3 0-.6.2-.9.1-.4 0-.6-.6-.6-.5 0-1 .7-1 1.1l.3.2c.3.2.7.4 1 .2zm-2.8-.5c0-.5.4-1 .7-1.3.2-.4.7-.4.8-.8l.2-.1h2.5c.5 0 1.1.1 1.6.3.3.1.4.4.6.6 0 0 0 .2.2.3.8.9.4 1.7-.4 2.5l-1.3 1-.4.1c-1 .2-2.1 0-3-.4-.2 0-.4-.2-.5-.3-.4-.3-1-.4-1-1v-1z"
    fill="#020303"
  />
  <path
    fill-rule="evenodd"
    clip-rule="evenodd"
    d="M114.9 22c-.3.1-.5 0-.8-.3v-.3c-.2-.5.2-1.3.5-1.4.3 0 .5.3.4.8l-.1 1.1z"
    fill="#FEFEFE"
  />
  <defs>
    <linearGradient
      id="paint0_linear"
      x1=".3"
      y1="94"
      x2="128.5"
      y2="94"
      gradientUnits="userSpaceOnUse"
    >
      <stop stop-color="#D7BB9E" />
      <stop offset="1" stop-color="#AD8888" />
    </linearGradient>
  </defs>
</svg>
