<svg version="1.1" viewBox="0.0 0.0 624.0 480.0" fill="none" stroke="none" stroke-linecap="square" stroke-miterlimit="10" xmlns:xlink="http://www.w3.org/1999/xlink" xmlns="http://www.w3.org/2000/svg"><clipPath id="p.0"><path d="m0 0l624.0 0l0 480.0l-624.0 0l0 -480.0z" clip-rule="nonzero"/></clipPath><g clip-path="url(#p.0)"><path fill="#000000" fill-opacity="0.0" d="m0 0l624.0 0l0 480.0l-624.0 0z" fill-rule="evenodd"/><path fill="#d9ead3" d="m40.559055 104.43537l302.80316 0l0 64.661415l-302.80316 0z" fill-rule="evenodd"/><path stroke="#000000" stroke-width="2.0" stroke-linejoin="round" stroke-linecap="butt" d="m40.559055 104.43537l302.80316 0l0 64.661415l-302.80316 0z" fill-rule="evenodd"/><path fill="#000000" d="m53.715305 132.68608l0 -12.406258l1.59375 0l0 12.406258l-1.59375 0zm-3.75 -11.843758l0 -1.515625l9.078125 0l0 1.515625l-9.078125 0z" fill-rule="nonzero"/><path fill="#000000" d="m51.027805 154.68608l0 -13.359375l4.03125 0q2.09375 0 3.59375 0.859375q1.515625 0.84375 2.328125 2.359375q0.828125 1.5 0.828125 3.46875q0 1.953125 -0.828125 3.453125q-0.8125 1.5 -2.328125 2.359375q-1.5 0.859375 -3.59375 0.859375l-4.03125 0zm1.59375 -1.515625l2.4375 0q1.578125 0 2.734375 -0.59375q1.15625 -0.609375 1.78125 -1.765625q0.640625 -1.15625 0.640625 -2.796875q0 -1.65625 -0.640625 -2.8125q-0.625 -1.15625 -1.78125 -1.75q-1.15625 -0.609375 -2.734375 -0.609375l-2.4375 0l0 10.328125zm15.406155 1.8125q-1.375 0 -2.453125 -0.640625q-1.078125 -0.65625 -1.6874962 -1.796875q-0.59375 -1.140625 -0.59375 -2.59375q0 -1.359375 0.5625 -2.515625q0.5781212 -1.15625 1.6093712 -1.859375q1.03125 -0.703125 2.4375 -0.703125q1.40625 0 2.421875 0.625q1.03125 0.625 1.578125 1.734375q0.546875 1.09375 0.546875 2.515625q0 0.125 -0.015625 0.265625q0 0.125 -0.015625 0.21875l-8.203125 0l0 -1.3125l6.5625 0q-0.03125 -0.390625 -0.1875 -0.84375q-0.15625 -0.46875 -0.5 -0.859375q-0.34375 -0.40625 -0.875 -0.65625q-0.53125 -0.25 -1.3125 -0.25q-0.9375 0 -1.625 0.484375q-0.671875 0.46875 -1.046875 1.296875q-0.359375 0.8125 -0.359375 1.859375q0 1.203125 0.46875 2.015625q0.46875 0.796875 1.203125 1.1875q0.734375 0.390625 1.546875 0.390625q1.046875 0 1.71875 -0.484375q0.6875 -0.5 1.09375 -1.234375l1.34375 0.65625q-0.5625 1.078125 -1.609375 1.796875q-1.046875 0.703125 -2.609375 0.703125zm5.170944 -8.375l0 -1.4375l1.84375 0l0 1.4375l-1.84375 0zm1.75 8.078125l0 -10.546875q0 -0.875 0.375 -1.53125q0.390625 -0.671875 1.09375 -1.046875q0.703125 -0.375 1.625 -0.375q0.359375 0 0.6875 0.0625q0.34375 0.046875 0.65625 0.15625l0 1.546875q-0.375 -0.15625 -0.703125 -0.21875q-0.3125 -0.078125 -0.59375 -0.078125q-0.6875 0 -1.125 0.453125q-0.421875 0.4375 -0.421875 1.203125l0 10.375l-1.59375 0zm1.5 -8.078125l0 -1.4375l4.578125 0l0 1.4375l-4.578125 0zm4.453125 8.078125l0 -9.515625l1.59375 0l0 9.515625l-1.59375 0zm0.78125 -11.265625q-0.46875 0 -0.8125 -0.328125q-0.328125 -0.34375 -0.328125 -0.8125q0 -0.484375 0.328125 -0.8125q0.34375 -0.328125 0.8125 -0.328125q0.484375 0 0.8125 0.328125q0.328125 0.328125 0.328125 0.8125q0 0.46875 -0.328125 0.8125q-0.328125 0.328125 -0.8125 0.328125zm3.117035 11.265625l0 -9.515625l1.515625 0l0 1.40625l0.078125 0q0.359375 -0.703125 1.203125 -1.203125q0.859375 -0.5 1.875 -0.5q1.75 0 2.625 1.015625q0.890625 1.015625 0.890625 2.703125l0 6.09375l-1.578125 0l0 -5.859375q0 -1.375 -0.671875 -1.9375q-0.65625 -0.578125 -1.703125 -0.578125q-0.78125 0 -1.375 0.4375q-0.59375 0.4375 -0.9375 1.125q-0.328125 0.6875 -0.328125 1.453125l0 5.359375l-1.59375 0zm14.663223 0.296875q-1.375 0 -2.453125 -0.640625q-1.078125 -0.65625 -1.6875 -1.796875q-0.59375 -1.140625 -0.59375 -2.59375q0 -1.359375 0.5625 -2.515625q0.578125 -1.15625 1.609375 -1.859375q1.03125 -0.703125 2.4375 -0.703125q1.40625 0 2.421875 0.625q1.03125 0.625 1.578125 1.734375q0.546875 1.09375 0.546875 2.515625q0 0.125 -0.015625 0.265625q0 0.125 -0.015625 0.21875l-8.203125 0l0 -1.3125l6.5625 0q-0.03125 -0.390625 -0.1875 -0.84375q-0.15625 -0.46875 -0.5 -0.859375q-0.34375 -0.40625 -0.875 -0.65625q-0.53125 -0.25 -1.3125 -0.25q-0.9375 0 -1.625 0.484375q-0.671875 0.46875 -1.046875 1.296875q-0.359375 0.8125 -0.359375 1.859375q0 1.203125 0.46875 2.015625q0.46875 0.796875 1.203125 1.1875q0.734375 0.390625 1.546875 0.390625q1.046875 0 1.71875 -0.484375q0.6875 -0.5 1.09375 -1.234375l1.34375 0.65625q-0.5625 1.078125 -1.609375 1.796875q-1.046875 0.703125 -2.609375 0.703125zm10.278656 0q-1.28125 0 -2.328125 -0.640625q-1.03125 -0.65625 -1.625 -1.796875q-0.59375 -1.140625 -0.59375 -2.609375q0 -1.484375 0.59375 -2.609375q0.59375 -1.140625 1.625 -1.796875q1.046875 -0.65625 2.328125 -0.65625q0.765625 0 1.390625 0.25q0.640625 0.234375 1.109375 0.625q0.484375 0.390625 0.75 0.84375l0.078125 0l-0.078125 -1.328125l0 -3.9375l1.578125 0l0 13.359375l-1.5 0l0 -1.40625l-0.078125 0q-0.265625 0.4375 -0.75 0.828125q-0.46875 0.390625 -1.109375 0.625q-0.625 0.25 -1.390625 0.25zm0.171875 -1.4375q0.8125 0 1.53125 -0.4375q0.71875 -0.4375 1.171875 -1.25q0.453125 -0.8125 0.453125 -1.921875q0 -1.125 -0.453125 -1.9375q-0.453125 -0.8125 -1.171875 -1.25q-0.71875 -0.4375 -1.53125 -0.4375q-0.828125 0 -1.546875 0.4375q-0.71875 0.4375 -1.171875 1.25q-0.4375 0.8125 -0.4375 1.9375q0 1.09375 0.4375 1.921875q0.453125 0.8125 1.171875 1.25q0.71875 0.4375 1.546875 0.4375z" fill-rule="nonzero"/><path fill="#000000" fill-opacity="0.0" d="m40.559055 7.375003l232.06299 0l0 90.48819l-232.06299 0z" fill-rule="evenodd"/><path fill="#34a853" d="m58.32468 25.285002l-2.671875 0l0 3.75l-4.0625 0l0 2.046875l4.0625 0l0 8.421877q0 1.4375 0.375 2.453125q0.390625 1.0 1.046875 1.640625q0.65625 0.640625 1.546875 0.9375q0.90625 0.28125 1.9375 0.28125q0.609375 0 1.234375 -0.0625q0.625 -0.046875 1.1875 -0.15625q0.5625 -0.109375 1.0312462 -0.25q0.46875 -0.15625 0.796875 -0.359375l-0.375 -1.875q-0.234375 0.0625 -0.6249962 0.140625q-0.375 0.078125 -0.796875 0.140625q-0.453125 0.078125 -0.90625 0.125q-0.453125 0.046875 -0.890625 0.046875q-0.59375 0 -1.109375 -0.140625q-0.515625 -0.140625 -0.921875 -0.5q-0.40625 -0.34375 -0.640625 -0.921875q-0.21875 -0.59375 -0.21875 -1.5l0 -8.421877l5.906246 0l0 -2.046875l-5.906246 0l0 -3.75zm12.568493 25.515627q1.046875 0 1.84375 -0.390625q0.8125 -0.390625 1.40625 -0.96875q0.609375 -0.5625 1.03125 -1.234375q0.421875 -0.671875 0.6875 -1.28125l7.859375 -17.890627l-2.953125 0l-4.0 10.062502l-0.734375 1.8125l-0.6875 -1.875l-4.25 -10.000002l-2.96875 0l6.671875 14.765627l-1.046875 2.0625q-0.15625 0.296875 -0.40625 0.734375q-0.25 0.4375 -0.59375 0.859375q-0.359375 0.421875 -0.8125 0.71875q-0.4375 0.296875 -0.984375 0.296875q-0.203125 0 -0.5625 -0.03125q-0.34375 -0.015625 -0.703125 -0.046875l-0.421875 2.171875q0.25 0.0625 0.75 0.140625q0.5 0.09375 0.875 0.09375zm16.349747 -0.3125l2.640625 0l0 -7.4375q0.28125 0.3125 0.609375 0.578125q0.34375 0.265625 0.703125 0.484375q0.625 0.34375 1.390625 0.515625q0.765625 0.1875 1.65625 0.1875q1.453125 0 2.59375 -0.59375q1.140625 -0.609375 1.90625 -1.65625q0.78125 -1.0625 1.171875 -2.5q0.40625 -1.453125 0.40625 -3.109375l0 -0.296875q0 -1.734375 -0.40625 -3.1875q-0.390625 -1.453125 -1.171875 -2.500002q-0.765625 -1.046875 -1.921875 -1.625q-1.140625 -0.59375 -2.625 -0.59375q-0.84375 0 -1.578125 0.1875q-0.734375 0.171875 -1.34375 0.515625q-0.421875 0.234375 -0.796875 0.5625q-0.375 0.3125 -0.6875 0.703125l-0.140625 -1.6875l-2.40625 0l0 21.453127zm10.4375 -13.828125l0 0.296875q0 1.140625 -0.25 2.171875q-0.25 1.03125 -0.765625 1.8125q-0.515625 0.78125 -1.328125 1.25q-0.796875 0.46875 -1.90625 0.46875q-0.6875 0 -1.25 -0.171875q-0.5625 -0.171875 -1.015625 -0.46875q-0.40625 -0.265625 -0.71875 -0.625q-0.3125 -0.375 -0.5625 -0.8125l0 -7.453125q0.28125 -0.5 0.625 -0.890625q0.359375 -0.4062519 0.828125 -0.6718769q0.40625 -0.28125 0.921875 -0.421875q0.53125 -0.140625 1.15625 -0.140625q1.109375 0 1.90625 0.46875q0.8125 0.453125 1.34375 1.2187519q0.515625 0.78125 0.765625 1.8125q0.25 1.03125 0.25 2.15625zm14.021622 8.15625q2.25 0 3.78125 -0.90625q1.546875 -0.90625 2.328125 -2.078125l-1.625 -1.265625q-0.71875 0.953125 -1.828125 1.53125q-1.109375 0.5625 -2.515625 0.5625q-1.078125 0 -1.96875 -0.390625q-0.890625 -0.40625 -1.515625 -1.109375q-0.609375 -0.65625 -0.96875 -1.515625q-0.34375 -0.859375 -0.453125 -2.0l0 -0.09375l11.078125 0l0 -1.1875q0 -1.625 -0.421875 -3.015625q-0.40625 -1.3906269 -1.234375 -2.421877q-0.828125 -1.015625 -2.078125 -1.59375q-1.25 -0.578125 -2.921875 -0.578125q-1.34375 0 -2.609375 0.546875q-1.265625 0.546875 -2.25 1.5625q-1.0 1.03125 -1.609375 2.515627q-0.59375 1.46875 -0.59375 3.359375l0 0.59375q0 1.625 0.53125 3.0q0.546875 1.375 1.53125 2.375q0.96875 1.0 2.328125 1.5625q1.375 0.546875 3.015625 0.546875zm-0.34375 -13.890627q1.015625 0 1.75 0.375q0.734375 0.375 1.21875 0.9687519q0.484375 0.609375 0.75 1.4375q0.28125 0.8125 0.28125 1.53125l0 0.125l-8.328125 0q0.15625 -1.0625 0.546875 -1.890625q0.390625 -0.828125 0.96875 -1.390625q0.578125 -0.5625019 1.28125 -0.8593769q0.71875 -0.296875 1.53125 -0.296875zm42.74637 -4.984375l0 -2.25l-15.453125 0l0 2.25l6.4375 0l0 18.593752l2.578125 0l0 -18.593752l6.4375 0zm30.418243 -3.0625l0 -2.171875l-5.671875 0l0 28.296877l5.671875 0l0 -2.171875l-3.15625 0l0 -23.953127l3.15625 0zm11.630997 -2.171875l0 2.171875l3.1875 0l0 23.953127l-3.1875 0l0 2.171875l5.6875 0l0 -28.296877l-5.6875 0zm27.380997 2.984375l-2.5625 0l-0.046875 14.109377q-0.015625 0.9375 -0.296875 1.796875q-0.265625 0.859375 -0.78125 1.515625q-0.53125 0.671875 -1.3125 1.0625q-0.765625 0.390625 -1.78125 0.390625q-1.015625 0 -1.796875 -0.390625q-0.78125 -0.40625 -1.296875 -1.0625q-0.53125 -0.65625 -0.8125 -1.515625q-0.28125 -0.859375 -0.296875 -1.796875l-0.046875 -14.109377l-2.53125 0l-0.03125 14.109377q0.015625 1.46875 0.515625 2.75q0.5 1.28125 1.390625 2.21875q0.890625 0.96875 2.140625 1.515625q1.25 0.53125 2.765625 0.53125q1.484375 0 2.734375 -0.546875q1.25 -0.546875 2.140625 -1.515625q0.90625 -0.9375 1.421875 -2.203125q0.515625 -1.28125 0.515625 -2.75l-0.03125 -14.109377z" fill-rule="nonzero"/><path fill="#34a853" d="m58.32468 60.485004l-2.671875 0l0 3.7499962l-4.0625 0l0 2.046875l4.0625 0l0 8.421875q0 1.4375 0.375 2.453125q0.390625 1.0 1.046875 1.640625q0.65625 0.640625 1.546875 0.9375q0.90625 0.28125 1.9375 0.28125q0.609375 0 1.234375 -0.0625q0.625 -0.046875 1.1875 -0.15625q0.5625 -0.109375 1.0312462 -0.25q0.46875 -0.15625 0.796875 -0.359375l-0.375 -1.875q-0.234375 0.0625 -0.6249962 0.140625q-0.375 0.078125 -0.796875 0.140625q-0.453125 0.078125 -0.90625 0.125q-0.453125 0.046875 -0.890625 0.046875q-0.59375 0 -1.109375 -0.140625q-0.515625 -0.140625 -0.921875 -0.5q-0.40625 -0.34375 -0.640625 -0.921875q-0.21875 -0.59375 -0.21875 -1.5l0 -8.421875l5.906246 0l0 -2.046875l-5.906246 0l0 -3.7499962zm12.568493 25.515621q1.046875 0 1.84375 -0.390625q0.8125 -0.390625 1.40625 -0.96875q0.609375 -0.5625 1.03125 -1.234375q0.421875 -0.671875 0.6875 -1.28125l7.859375 -17.890625l-2.953125 0l-4.0 10.0625l-0.734375 1.8125l-0.6875 -1.875l-4.25 -10.0l-2.96875 0l6.671875 14.765625l-1.046875 2.0625q-0.15625 0.296875 -0.40625 0.734375q-0.25 0.4375 -0.59375 0.859375q-0.359375 0.421875 -0.8125 0.71875q-0.4375 0.296875 -0.984375 0.296875q-0.203125 0 -0.5625 -0.03125q-0.34375 -0.015625 -0.703125 -0.046875l-0.421875 2.171875q0.25 0.0625 0.75 0.140625q0.5 0.09375 0.875 0.09375zm16.349747 -0.3125l2.640625 0l0 -7.4375q0.28125 0.3125 0.609375 0.578125q0.34375 0.265625 0.703125 0.484375q0.625 0.34375 1.390625 0.515625q0.765625 0.1875 1.65625 0.1875q1.453125 0 2.59375 -0.59375q1.140625 -0.609375 1.90625 -1.65625q0.78125 -1.0625 1.171875 -2.5q0.40625 -1.453125 0.40625 -3.109375l0 -0.296875q0 -1.734375 -0.40625 -3.1875q-0.390625 -1.453125 -1.171875 -2.5q-0.765625 -1.046875 -1.921875 -1.625q-1.140625 -0.5937462 -2.625 -0.5937462q-0.84375 0 -1.578125 0.18749619q-0.734375 0.171875 -1.34375 0.515625q-0.421875 0.234375 -0.796875 0.5625q-0.375 0.3125 -0.6875 0.703125l-0.140625 -1.6875l-2.40625 0l0 21.453125zm10.4375 -13.828125l0 0.296875q0 1.140625 -0.25 2.171875q-0.25 1.03125 -0.765625 1.8125q-0.515625 0.78125 -1.328125 1.25q-0.796875 0.46875 -1.90625 0.46875q-0.6875 0 -1.25 -0.171875q-0.5625 -0.171875 -1.015625 -0.46875q-0.40625 -0.265625 -0.71875 -0.625q-0.3125 -0.375 -0.5625 -0.8125l0 -7.453125q0.28125 -0.5 0.625 -0.890625q0.359375 -0.40625 0.828125 -0.671875q0.40625 -0.28125 0.921875 -0.421875q0.53125 -0.140625 1.15625 -0.140625q1.109375 0 1.90625 0.46875q0.8125 0.453125 1.34375 1.21875q0.515625 0.78125 0.765625 1.8125q0.25 1.03125 0.25 2.15625zm14.021622 8.15625q2.25 0 3.78125 -0.90625q1.546875 -0.90625 2.328125 -2.078125l-1.625 -1.265625q-0.71875 0.953125 -1.828125 1.53125q-1.109375 0.5625 -2.515625 0.5625q-1.078125 0 -1.96875 -0.390625q-0.890625 -0.40625 -1.515625 -1.109375q-0.609375 -0.65625 -0.96875 -1.515625q-0.34375 -0.859375 -0.453125 -2.0l0 -0.09375l11.078125 0l0 -1.1875q0 -1.625 -0.421875 -3.015625q-0.40625 -1.390625 -1.234375 -2.421875q-0.828125 -1.015625 -2.078125 -1.59375q-1.25 -0.5781212 -2.921875 -0.5781212q-1.34375 0 -2.609375 0.5468712q-1.265625 0.546875 -2.25 1.5625q-1.0 1.03125 -1.609375 2.515625q-0.59375 1.46875 -0.59375 3.359375l0 0.59375q0 1.625 0.53125 3.0q0.546875 1.375 1.53125 2.375q0.96875 1.0 2.328125 1.5625q1.375 0.546875 3.015625 0.546875zm-0.34375 -13.890625q1.015625 0 1.75 0.375q0.734375 0.375 1.21875 0.96875q0.484375 0.609375 0.75 1.4375q0.28125 0.8125 0.28125 1.53125l0 0.125l-8.328125 0q0.15625 -1.0625 0.546875 -1.890625q0.390625 -0.828125 0.96875 -1.390625q0.578125 -0.5625 1.28125 -0.859375q0.71875 -0.296875 1.53125 -0.296875zm41.77762 -7.234371l-2.5625 0l-0.046875 14.109371q-0.015625 0.9375 -0.296875 1.796875q-0.265625 0.859375 -0.78125 1.515625q-0.53125 0.671875 -1.3125 1.0625q-0.765625 0.390625 -1.78125 0.390625q-1.015625 0 -1.796875 -0.390625q-0.78125 -0.40625 -1.296875 -1.0625q-0.53125 -0.65625 -0.8125 -1.515625q-0.28125 -0.859375 -0.296875 -1.796875l-0.046875 -14.109371l-2.53125 0l-0.03125 14.109371q0.015625 1.46875 0.515625 2.75q0.5 1.28125 1.390625 2.21875q0.890625 0.96875 2.140625 1.515625q1.25 0.53125 2.765625 0.53125q1.484375 0 2.734375 -0.546875q1.25 -0.546875 2.140625 -1.515625q0.90625 -0.9375 1.421875 -2.203125q0.515625 -1.28125 0.515625 -2.75l-0.03125 -14.109371zm27.308868 7.734371l-3.734375 4.6875l2.09375 1.515625l3.03125 -5.0625l3.0625 5.1875l2.09375 -1.5625l-3.671875 -4.640625l5.46875 -1.34375l-0.765625 -2.5624962l-5.203125 2.1562462l0.421875 -6.109371l-2.546875 0l0.359375 6.015621l-5.234375 -2.1562462l-0.765625 2.4999962l5.390625 1.375zm12.818497 -2.390625l0 2.3125l5.265625 0l0 10.890625l-5.265625 0l0 2.296875l12.96875 0l0 -2.296875l-5.046875 0l0 -13.203125l-7.921875 0zm4.921875 -4.062496q0 0.640625 0.390625 1.078125q0.40625 0.421875 1.203125 0.421875q0.78125 0 1.1875 -0.421875q0.40625 -0.4375 0.40625 -1.078125q0 -0.359375 -0.125 -0.65625q-0.109375 -0.296875 -0.34375 -0.5q-0.171875 -0.1875 -0.46875 -0.296875q-0.28125 -0.109375 -0.65625 -0.109375q-0.375 0 -0.671875 0.109375q-0.28125 0.109375 -0.46875 0.296875q-0.234375 0.21875 -0.34375 0.515625q-0.109375 0.296875 -0.109375 0.640625zm12.255997 19.562496l2.65625 0l0 -11.109375q0.265625 -0.5 0.625 -0.90625q0.375 -0.421875 0.8125 -0.75q0.53125 -0.359375 1.15625 -0.5625q0.625 -0.203125 1.359375 -0.203125q0.84375 0 1.484375 0.203125q0.65625 0.203125 1.125 0.640625q0.4375 0.4375 0.671875 1.15625q0.234375 0.71875 0.234375 1.75l0 9.78125l2.640625 0l0 -9.84375q0 -1.546875 -0.375 -2.671875q-0.375 -1.125 -1.078125 -1.84375q-0.703125 -0.734375 -1.703125 -1.078125q-1.0 -0.3437462 -2.21875 -0.3437462q-0.890625 0.015625 -1.703125 0.2656212q-0.8125 0.25 -1.5 0.703125q-0.453125 0.3125 -0.859375 0.71875q-0.40625 0.40625 -0.75 0.890625l-0.1875 -2.296875l-2.390625 0l0 15.5zm23.880997 -19.249996l-2.671875 0l0 3.7499962l-4.0625 0l0 2.046875l4.0625 0l0 8.421875q0 1.4375 0.375 2.453125q0.390625 1.0 1.046875 1.640625q0.65625 0.640625 1.546875 0.9375q0.90625 0.28125 1.9375 0.28125q0.609375 0 1.234375 -0.0625q0.625 -0.046875 1.1875 -0.15625q0.5625 -0.109375 1.03125 -0.25q0.46875 -0.15625 0.796875 -0.359375l-0.375 -1.875q-0.234375 0.0625 -0.625 0.140625q-0.375 0.078125 -0.796875 0.140625q-0.453125 0.078125 -0.90625 0.125q-0.453125 0.046875 -0.890625 0.046875q-0.59375 0 -1.109375 -0.140625q-0.515625 -0.140625 -0.921875 -0.5q-0.40625 -0.34375 -0.640625 -0.921875q-0.21875 -0.59375 -0.21875 -1.5l0 -8.421875l5.90625 0l0 -2.046875l-5.90625 0l0 -3.7499962z" fill-rule="nonzero"/><path fill="#000000" fill-opacity="0.0" d="m343.3622 148.08891l24.99942 0l0 38.207138l-176.401 0l0 17.194443" fill-rule="evenodd"/><path stroke="#000000" stroke-width="2.0" stroke-linejoin="round" stroke-linecap="butt" d="m350.94223 148.08891l17.419403 0l0 38.207138l-176.401 0l0 5.1944275" fill-rule="evenodd"/><path fill="#000000" stroke="#000000" stroke-width="2.0" stroke-linecap="butt" d="m350.9422 151.3789l-6.5799866 0l0 -6.580002l6.5799866 0l0 6.580002z" fill-rule="nonzero"/><path fill="#000000" stroke="#000000" stroke-width="2.0" stroke-linecap="butt" d="m188.65717 191.49048l3.3034668 9.076202l3.3034668 -9.076202z" fill-rule="evenodd"/><path fill="#000000" fill-opacity="0.0" d="m237.72441 127.08104l105.6378 0l0 42.015747l-105.6378 0z" fill-rule="evenodd"/><path fill="#000000" d="m255.83995 154.00104l0 -1.421875q-1.125 1.640625 -3.0625 1.640625q-0.859375 0 -1.609375 -0.328125q-0.734375 -0.328125 -1.09375 -0.828125q-0.359375 -0.5 -0.5 -1.21875q-0.109375 -0.46875 -0.109375 -1.53125l0 -5.984375l1.640625 0l0 5.359375q0 1.28125 0.109375 1.734375q0.15625 0.640625 0.65625 1.015625q0.5 0.375 1.234375 0.375q0.734375 0 1.375 -0.375q0.65625 -0.390625 0.921875 -1.03125q0.265625 -0.65625 0.265625 -1.890625l0 -5.1875l1.6406403 0l0 9.671875l-1.4687653 0zm4.047592 0l0 -9.671875l1.46875 0l0 1.375q1.0625 -1.59375 3.078125 -1.59375q0.875 0 1.609375 0.3125q0.734375 0.3125 1.09375 0.828125q0.375 0.5 0.515625 1.203125q0.09375 0.453125 0.09375 1.59375l0 5.953125l-1.640625 0l0 -5.890625q0 -1.0 -0.203125 -1.484375q-0.1875 -0.5 -0.671875 -0.796875q-0.484375 -0.296875 -1.140625 -0.296875q-1.046875 0 -1.8125 0.671875q-0.75 0.65625 -0.75 2.515625l0 5.28125l-1.640625 0zm16.641357 0l0 -1.21875q-0.90625 1.4375 -2.703125 1.4375q-1.15625 0 -2.125 -0.640625q-0.96875 -0.640625 -1.5 -1.78125q-0.53125 -1.140625 -0.53125 -2.625q0 -1.453125 0.484375 -2.625q0.484375 -1.1875 1.4375 -1.8125q0.96875 -0.625 2.171875 -0.625q0.875 0 1.546875 0.375q0.6875 0.359375 1.109375 0.953125l0 -4.796875l1.640625 0l0 13.359375l-1.53125 0zm-5.171875 -4.828125q0 1.859375 0.78125 2.78125q0.78125 0.921875 1.84375 0.921875q1.078125 0 1.828125 -0.875q0.75 -0.890625 0.75 -2.6875q0 -1.984375 -0.765625 -2.90625q-0.765625 -0.9375 -1.890625 -0.9375q-1.078125 0 -1.8125 0.890625q-0.734375 0.890625 -0.734375 2.8125zm15.906952 1.71875l1.6875 0.203125q-0.40625 1.484375 -1.484375 2.3125q-1.078125 0.8125 -2.765625 0.8125q-2.125 0 -3.375 -1.296875q-1.234375 -1.3125 -1.234375 -3.671875q0 -2.453125 1.25 -3.796875q1.265625 -1.34375 3.265625 -1.34375q1.9375 0 3.15625 1.328125q1.234375 1.3125 1.234375 3.703125q0 0.15625 0 0.4375l-7.21875 0q0.09375 1.59375 0.90625 2.453125q0.8125 0.84375 2.015625 0.84375q0.90625 0 1.546875 -0.46875q0.640625 -0.484375 1.015625 -1.515625zm-5.390625 -2.65625l5.40625 0q-0.109375 -1.21875 -0.625 -1.828125q-0.78125 -0.953125 -2.03125 -0.953125q-1.125 0 -1.90625 0.765625q-0.765625 0.75 -0.84375 2.015625zm9.125732 5.765625l0 -9.671875l1.46875 0l0 1.46875q0.5625 -1.03125 1.03125 -1.359375q0.484375 -0.328125 1.0625 -0.328125q0.828125 0 1.6875 0.53125l-0.5625 1.515625q-0.609375 -0.359375 -1.203125 -0.359375q-0.546875 0 -0.96875 0.328125q-0.421875 0.328125 -0.609375 0.890625q-0.28125 0.875 -0.28125 1.921875l0 5.0625l-1.625 0zm6.181427 0l0 -13.359375l1.640625 0l0 13.359375l-1.640625 0zm4.113556 3.71875l-0.1875 -1.53125q0.546875 0.140625 0.9375 0.140625q0.546875 0 0.875 -0.1875q0.328125 -0.171875 0.546875 -0.5q0.15625 -0.25 0.5 -1.21875q0.046875 -0.140625 0.140625 -0.40625l-3.671875 -9.6875l1.765625 0l2.015625 5.59375q0.390625 1.078125 0.703125 2.25q0.28125 -1.125 0.671875 -2.203125l2.078125 -5.640625l1.640625 0l-3.6875 9.828125q-0.59375 1.609375 -0.921875 2.203125q-0.4375 0.8125 -1.0 1.1875q-0.5625 0.375 -1.34375 0.375q-0.484375 0 -1.0625 -0.203125zm9.40625 -15.1875l0 -1.890625l1.640625 0l0 1.890625l-1.640625 0zm0 11.46875l0 -9.671875l1.640625 0l0 9.671875l-1.640625 0zm4.1448364 0l0 -9.671875l1.46875 0l0 1.375q1.0625 -1.59375 3.078125 -1.59375q0.875 0 1.609375 0.3125q0.734375 0.3125 1.09375 0.828125q0.375 0.5 0.515625 1.203125q0.09375 0.453125 0.09375 1.59375l0 5.953125l-1.640625 0l0 -5.890625q0 -1.0 -0.203125 -1.484375q-0.1875 -0.5 -0.671875 -0.796875q-0.484375 -0.296875 -1.140625 -0.296875q-1.046875 0 -1.8125 0.671875q-0.75 0.65625 -0.75 2.515625l0 5.28125l-1.640625 0zm10.063202 0.796875l1.59375 0.234375q0.109375 0.75 0.5625 1.078125q0.609375 0.453125 1.671875 0.453125q1.140625 0 1.75 -0.453125q0.625 -0.453125 0.84375 -1.265625q0.125 -0.5 0.109375 -2.109375q-1.0625 1.265625 -2.671875 1.265625q-2.0 0 -3.09375 -1.4375q-1.09375 -1.4375 -1.09375 -3.453125q0 -1.390625 0.5 -2.5625q0.515625 -1.171875 1.453125 -1.796875q0.953125 -0.640625 2.25 -0.640625q1.703125 0 2.8125 1.375l0 -1.15625l1.515625 0l0 8.359375q0 2.265625 -0.46875 3.203125q-0.453125 0.9375 -1.453125 1.484375q-0.984375 0.546875 -2.453125 0.546875q-1.71875 0 -2.796875 -0.78125q-1.0625 -0.765625 -1.03125 -2.34375zm1.359375 -5.8125q0 1.90625 0.75 2.78125q0.765625 0.875 1.90625 0.875q1.125 0 1.890625 -0.859375q0.765625 -0.875 0.765625 -2.734375q0 -1.78125 -0.796875 -2.671875q-0.78125 -0.90625 -1.890625 -0.90625q-1.09375 0 -1.859375 0.890625q-0.765625 0.875 -0.765625 2.625z" fill-rule="nonzero"/><path fill="#d9ead3" d="m40.559055 203.49574l302.80316 0l0 64.66142l-302.80316 0z" fill-rule="evenodd"/><path stroke="#000000" stroke-width="2.0" stroke-linejoin="round" stroke-linecap="butt" d="m40.559055 203.49574l302.80316 0l0 64.66142l-302.80316 0z" fill-rule="evenodd"/><path fill="#000000" d="m51.027805 234.05894l0 -17.09375l3.75 0l0 1.3125l-2.3125 0l0 14.46875l2.3125 0l0 1.3125l-3.75 0zm5.0984955 0l0 -1.3125l2.3125 0l0 -14.46875l-2.3125 0l0 -1.3125l3.75 0l0 17.09375l-3.75 0zm11.442242 -2.015625q-1.46875 0 -2.5625 -0.65625q-1.0937462 -0.671875 -1.7187462 -1.84375q-0.625 -1.1875 -0.625 -2.734375l0 -8.421875l1.5781212 0l0 8.484375q0 1.046875 0.375 1.875q0.375 0.828125 1.109375 1.3125q0.734375 0.46875 1.84375 0.46875q1.09375 0 1.84375 -0.46875q0.75 -0.484375 1.109375 -1.3125q0.375 -0.828125 0.375 -1.875l0 -8.484375l1.59375 0l0 8.421875q0 1.546875 -0.59375 2.734375q-0.578125 1.171875 -1.6875 1.84375q-1.09375 0.65625 -2.640625 0.65625z" fill-rule="nonzero"/><path fill="#000000" d="m54.76218 254.04332q-0.96875 0 -1.921875 -0.40625q-0.953125 -0.40625 -1.6875 -1.203125q-0.71875 -0.8125 -1.046875 -2.015625l1.5 -0.609375q0.328125 1.15625 1.15625 1.9375q0.84375 0.78125 2.046875 0.78125q0.734375 0 1.359375 -0.265625q0.625 -0.265625 1.0 -0.78125q0.390625 -0.53125 0.390625 -1.28125q0 -0.671875 -0.328125 -1.140625q-0.328125 -0.46875 -0.984375 -0.828125q-0.640625 -0.359375 -1.59375 -0.703125l-0.84375 -0.296875q-0.5625 -0.203125 -1.125 -0.484375q-0.5625 -0.296875 -1.046875 -0.71875q-0.46875 -0.421875 -0.75 -1.0q-0.28125 -0.59375 -0.28125 -1.390625q0 -0.96875 0.515625 -1.765625q0.53125 -0.8125 1.4375 -1.296875q0.921875 -0.484375 2.109375 -0.484375q1.25 0 2.09375 0.453125q0.859375 0.453125 1.34375 1.078125q0.5 0.625 0.671875 1.15625l-1.46875 0.640625q-0.125 -0.40625 -0.4375 -0.8125q-0.3125 -0.421875 -0.84375 -0.703125q-0.53125 -0.296875 -1.34375 -0.296875q-0.640625 0 -1.21875 0.265625q-0.5625 0.25 -0.90625 0.71875q-0.34375 0.453125 -0.34375 1.046875q0 0.84375 0.671875 1.328125q0.671875 0.484375 1.796875 0.875l0.875 0.296875q0.609375 0.203125 1.234375 0.5q0.625 0.296875 1.15625 0.765625q0.546875 0.46875 0.875 1.15625q0.34375 0.671875 0.34375 1.625q0 1.03125 -0.40625 1.765625q-0.390625 0.734375 -1.046875 1.203125q-0.65625 0.46875 -1.4375 0.671875q-0.765625 0.21875 -1.515625 0.21875zm6.3073425 -0.296875l0 -13.359375l1.59375 0l0 13.359375l-1.59375 0zm3.8991508 0l0 -9.515625l1.59375 0l0 9.515625l-1.59375 0zm0.78125 -11.265625q-0.46875 0 -0.8125 -0.328125q-0.328125 -0.34375 -0.328125 -0.8125q0 -0.484375 0.328125 -0.8125q0.34375 -0.328125 0.8125 -0.328125q0.484375 0 0.8125 0.328125q0.328125 0.328125 0.328125 0.8125q0 0.46875 -0.328125 0.8125q-0.328125 0.328125 -0.8125 0.328125zm7.4304047 11.5625q-1.40625 0 -2.5 -0.65625q-1.078125 -0.671875 -1.703125 -1.8125q-0.609375 -1.15625 -0.609375 -2.578125q0 -1.46875 0.609375 -2.59375q0.625 -1.140625 1.703125 -1.796875q1.09375 -0.671875 2.5 -0.671875q1.609375 0 2.640625 0.734375q1.03125 0.734375 1.46875 1.890625l-1.4375 0.609375q-0.359375 -0.890625 -1.0625 -1.34375q-0.703125 -0.453125 -1.6875 -0.453125q-0.84375 0 -1.5625 0.453125q-0.71875 0.4375 -1.171875 1.25q-0.4375 0.8125 -0.4375 1.921875q0 1.078125 0.4375 1.90625q0.453125 0.8125 1.171875 1.265625q0.71875 0.4375 1.5625 0.4375q1.015625 0 1.734375 -0.46875q0.734375 -0.46875 1.078125 -1.3125l1.421875 0.59375q-0.46875 1.09375 -1.515625 1.859375q-1.03125 0.765625 -2.640625 0.765625zm9.809586 0q-1.375 0 -2.453125 -0.640625q-1.078125 -0.65625 -1.6875 -1.796875q-0.59375 -1.140625 -0.59375 -2.59375q0 -1.359375 0.5625 -2.515625q0.578125 -1.15625 1.609375 -1.859375q1.03125 -0.703125 2.4375 -0.703125q1.40625 0 2.421875 0.625q1.03125 0.625 1.578125 1.734375q0.546875 1.09375 0.546875 2.515625q0 0.125 -0.015625 0.265625q0 0.125 -0.015625 0.21875l-8.203125 0l0 -1.3125l6.5625 0q-0.03125 -0.390625 -0.1875 -0.84375q-0.15625 -0.46875 -0.5 -0.859375q-0.34375 -0.40625 -0.875 -0.65625q-0.53125 -0.25 -1.3125 -0.25q-0.9375 0 -1.625 0.484375q-0.671875 0.46875 -1.046875 1.296875q-0.359375 0.8125 -0.359375 1.859375q0 1.203125 0.46875 2.015625q0.46875 0.796875 1.203125 1.1875q0.734375 0.390625 1.546875 0.390625q1.046875 0 1.71875 -0.484375q0.6875 -0.5 1.09375 -1.234375l1.34375 0.65625q-0.5625 1.078125 -1.609375 1.796875q-1.046875 0.703125 -2.609375 0.703125z" fill-rule="nonzero"/><path fill="#000000" fill-opacity="0.0" d="m237.72441 226.1414l105.6378 0l0 42.015762l-105.6378 0z" fill-rule="evenodd"/><path fill="#000000" d="m275.8498 249.95203l1.6875 0.203125q-0.40625 1.484375 -1.484375 2.3125q-1.078125 0.8125 -2.765625 0.8125q-2.125 0 -3.375 -1.296875q-1.234375 -1.3125 -1.234375 -3.671875q0 -2.453125 1.25 -3.796875q1.265625 -1.34375 3.265625 -1.34375q1.9375 0 3.15625 1.328125q1.234375 1.3125 1.234375 3.703125q0 0.15625 0 0.4375l-7.21875 0q0.09375 1.59375 0.90625 2.453125q0.8125 0.84375 2.015625 0.84375q0.90625 0 1.546875 -0.46875q0.640625 -0.484375 1.015625 -1.515625zm-5.390625 -2.65625l5.40625 0q-0.109375 -1.21875 -0.625 -1.828125q-0.78125 -0.953125 -2.03125 -0.953125q-1.125 0 -1.90625 0.765625q-0.765625 0.75 -0.84375 2.015625zm9.094452 5.765625l0 -13.359375l1.640625 0l0 13.359375l-1.640625 0zm10.816711 -3.109375l1.6875 0.203125q-0.40625 1.484375 -1.484375 2.3125q-1.078125 0.8125 -2.765625 0.8125q-2.125 0 -3.375 -1.296875q-1.234375 -1.3125 -1.234375 -3.671875q0 -2.453125 1.25 -3.796875q1.265625 -1.34375 3.265625 -1.34375q1.9375 0 3.15625 1.328125q1.234375 1.3125 1.234375 3.703125q0 0.15625 0 0.4375l-7.21875 0q0.09375 1.59375 0.90625 2.453125q0.8125 0.84375 2.015625 0.84375q0.90625 0 1.546875 -0.46875q0.640625 -0.484375 1.015625 -1.515625zm-5.390625 -2.65625l5.40625 0q-0.109375 -1.21875 -0.625 -1.828125q-0.78125 -0.953125 -2.03125 -0.953125q-1.125 0 -1.90625 0.765625q-0.765625 0.75 -0.84375 2.015625zm9.141327 5.765625l0 -9.671875l1.46875 0l0 1.359375q0.453125 -0.71875 1.203125 -1.140625q0.765625 -0.4375 1.71875 -0.4375q1.078125 0 1.765625 0.453125q0.6875 0.4375 0.96875 1.234375q1.15625 -1.6875 2.984375 -1.6875q1.453125 0 2.21875 0.796875q0.78125 0.796875 0.78125 2.453125l0 6.640625l-1.640625 0l0 -6.09375q0 -0.984375 -0.15625 -1.40625q-0.15625 -0.4375 -0.578125 -0.703125q-0.421875 -0.265625 -0.984375 -0.265625q-1.015625 0 -1.6875 0.6875q-0.671875 0.671875 -0.671875 2.15625l0 5.625l-1.640625 0l0 -6.28125q0 -1.09375 -0.40625 -1.640625q-0.40625 -0.546875 -1.3125 -0.546875q-0.6875 0 -1.28125 0.359375q-0.59375 0.359375 -0.859375 1.0625q-0.25 0.703125 -0.25 2.03125l0 5.015625l-1.640625 0zm22.165802 -3.109375l1.6875 0.203125q-0.40625 1.484375 -1.484375 2.3125q-1.078125 0.8125 -2.765625 0.8125q-2.125 0 -3.375 -1.296875q-1.234375 -1.3125 -1.234375 -3.671875q0 -2.453125 1.25 -3.796875q1.265625 -1.34375 3.265625 -1.34375q1.9375 0 3.15625 1.328125q1.234375 1.3125 1.234375 3.703125q0 0.15625 0 0.4375l-7.21875 0q0.09375 1.59375 0.90625 2.453125q0.8125 0.84375 2.015625 0.84375q0.90625 0 1.546875 -0.46875q0.640625 -0.484375 1.015625 -1.515625zm-5.390625 -2.65625l5.40625 0q-0.109375 -1.21875 -0.625 -1.828125q-0.78125 -0.953125 -2.03125 -0.953125q-1.125 0 -1.90625 0.765625q-0.765625 0.75 -0.84375 2.015625zm9.141357 5.765625l0 -9.671875l1.46875 0l0 1.375q1.0625 -1.59375 3.078125 -1.59375q0.875 0 1.609375 0.3125q0.734375 0.3125 1.09375 0.828125q0.375 0.5 0.515625 1.203125q0.09375 0.453125 0.09375 1.59375l0 5.953125l-1.640625 0l0 -5.890625q0 -1.0 -0.203125 -1.484375q-0.1875 -0.5 -0.671875 -0.796875q-0.484375 -0.296875 -1.140625 -0.296875q-1.046875 0 -1.8125 0.671875q-0.75 0.65625 -0.75 2.515625l0 5.28125l-1.640625 0zm13.953827 -1.46875l0.234375 1.453125q-0.6875 0.140625 -1.234375 0.140625q-0.890625 0 -1.390625 -0.28125q-0.484375 -0.28125 -0.6875 -0.734375q-0.203125 -0.46875 -0.203125 -1.9375l0 -5.578125l-1.203125 0l0 -1.265625l1.203125 0l0 -2.390625l1.625 -0.984375l0 3.375l1.65625 0l0 1.265625l-1.65625 0l0 5.671875q0 0.6875 0.078125 0.890625q0.09375 0.203125 0.28125 0.328125q0.203125 0.109375 0.578125 0.109375q0.265625 0 0.71875 -0.0625z" fill-rule="nonzero"/><path fill="#000000" fill-opacity="0.0" d="m343.3622 247.14928l24.99942 0l0 38.207138l-176.401 0l0 17.194427" fill-rule="evenodd"/><path stroke="#000000" stroke-width="2.0" stroke-linejoin="round" stroke-linecap="butt" d="m350.94223 247.14928l17.419403 0l0 38.207138l-176.401 0l0 5.1944275" fill-rule="evenodd"/><path fill="#000000" stroke="#000000" stroke-width="2.0" stroke-linecap="butt" d="m350.9422 250.43929l-6.5799866 0l0 -6.580002l6.5799866 0l0 6.580002z" fill-rule="nonzero"/><path fill="#000000" stroke="#000000" stroke-width="2.0" stroke-linecap="butt" d="m188.65717 290.55084l3.3034668 9.076202l3.3034668 -9.076202z" fill-rule="evenodd"/><path fill="#d9ead3" d="m40.559055 302.5561l302.80316 0l0 64.66144l-302.80316 0z" fill-rule="evenodd"/><path stroke="#000000" stroke-width="2.0" stroke-linejoin="round" stroke-linecap="butt" d="m40.559055 302.5561l302.80316 0l0 64.66144l-302.80316 0z" fill-rule="evenodd"/><path fill="#000000" d="m55.777805 331.1037q-1.46875 0 -2.5625 -0.65625q-1.09375 -0.671875 -1.71875 -1.84375q-0.625 -1.1875 -0.625 -2.734375l0 -8.421875l1.578125 0l0 8.484375q0 1.046875 0.375 1.875q0.375 0.828125 1.109375 1.3125q0.734375 0.46875 1.84375 0.46875q1.09375 0 1.84375 -0.46875q0.75 -0.484375 1.109375 -1.3125q0.375 -0.828125 0.375 -1.875l0 -8.484375l1.59375 0l0 8.421875q0 1.546875 -0.59375 2.734375q-0.578125 1.171875 -1.6875 1.84375q-1.09375 0.65625 -2.640625 0.65625z" fill-rule="nonzero"/><path fill="#000000" d="m51.027805 352.80682l0 -13.359375l4.03125 0q2.09375 0 3.59375 0.859375q1.515625 0.84375 2.328125 2.359375q0.828125 1.5 0.828125 3.46875q0 1.953125 -0.828125 3.453125q-0.8125 1.5 -2.328125 2.359375q-1.5 0.859375 -3.59375 0.859375l-4.03125 0zm1.59375 -1.515625l2.4375 0q1.578125 0 2.734375 -0.59375q1.15625 -0.609375 1.78125 -1.765625q0.640625 -1.15625 0.640625 -2.796875q0 -1.65625 -0.640625 -2.8125q-0.625 -1.15625 -1.78125 -1.75q-1.15625 -0.609375 -2.734375 -0.609375l-2.4375 0l0 10.328125zm15.406155 1.8125q-1.375 0 -2.453125 -0.640625q-1.078125 -0.65625 -1.6874962 -1.796875q-0.59375 -1.140625 -0.59375 -2.59375q0 -1.359375 0.5625 -2.515625q0.5781212 -1.15625 1.6093712 -1.859375q1.03125 -0.703125 2.4375 -0.703125q1.40625 0 2.421875 0.625q1.03125 0.625 1.578125 1.734375q0.546875 1.09375 0.546875 2.515625q0 0.125 -0.015625 0.265625q0 0.125 -0.015625 0.21875l-8.203125 0l0 -1.3125l6.5625 0q-0.03125 -0.390625 -0.1875 -0.84375q-0.15625 -0.46875 -0.5 -0.859375q-0.34375 -0.40625 -0.875 -0.65625q-0.53125 -0.25 -1.3125 -0.25q-0.9375 0 -1.625 0.484375q-0.671875 0.46875 -1.046875 1.296875q-0.359375 0.8125 -0.359375 1.859375q0 1.203125 0.46875 2.015625q0.46875 0.796875 1.203125 1.1875q0.734375 0.390625 1.546875 0.390625q1.046875 0 1.71875 -0.484375q0.6875 -0.5 1.09375 -1.234375l1.34375 0.65625q-0.5625 1.078125 -1.609375 1.796875q-1.046875 0.703125 -2.609375 0.703125zm5.170944 -8.375l0 -1.4375l1.84375 0l0 1.4375l-1.84375 0zm1.75 8.078125l0 -10.546875q0 -0.875 0.375 -1.53125q0.390625 -0.671875 1.09375 -1.046875q0.703125 -0.375 1.625 -0.375q0.359375 0 0.6875 0.0625q0.34375 0.046875 0.65625 0.15625l0 1.546875q-0.375 -0.15625 -0.703125 -0.21875q-0.3125 -0.078125 -0.59375 -0.078125q-0.6875 0 -1.125 0.453125q-0.421875 0.4375 -0.421875 1.203125l0 10.375l-1.59375 0zm1.5 -8.078125l0 -1.4375l4.578125 0l0 1.4375l-4.578125 0zm4.453125 8.078125l0 -9.515625l1.59375 0l0 9.515625l-1.59375 0zm0.78125 -11.265625q-0.46875 0 -0.8125 -0.328125q-0.328125 -0.34375 -0.328125 -0.8125q0 -0.484375 0.328125 -0.8125q0.34375 -0.328125 0.8125 -0.328125q0.484375 0 0.8125 0.328125q0.328125 0.328125 0.328125 0.8125q0 0.46875 -0.328125 0.8125q-0.328125 0.328125 -0.8125 0.328125zm3.117035 11.265625l0 -9.515625l1.515625 0l0 1.40625l0.078125 0q0.359375 -0.703125 1.203125 -1.203125q0.859375 -0.5 1.875 -0.5q1.75 0 2.625 1.015625q0.890625 1.015625 0.890625 2.703125l0 6.09375l-1.578125 0l0 -5.859375q0 -1.375 -0.671875 -1.9375q-0.65625 -0.578125 -1.703125 -0.578125q-0.78125 0 -1.375 0.4375q-0.59375 0.4375 -0.9375 1.125q-0.328125 0.6875 -0.328125 1.453125l0 5.359375l-1.59375 0zm14.663223 0.296875q-1.375 0 -2.453125 -0.640625q-1.078125 -0.65625 -1.6875 -1.796875q-0.59375 -1.140625 -0.59375 -2.59375q0 -1.359375 0.5625 -2.515625q0.578125 -1.15625 1.609375 -1.859375q1.03125 -0.703125 2.4375 -0.703125q1.40625 0 2.421875 0.625q1.03125 0.625 1.578125 1.734375q0.546875 1.09375 0.546875 2.515625q0 0.125 -0.015625 0.265625q0 0.125 -0.015625 0.21875l-8.203125 0l0 -1.3125l6.5625 0q-0.03125 -0.390625 -0.1875 -0.84375q-0.15625 -0.46875 -0.5 -0.859375q-0.34375 -0.40625 -0.875 -0.65625q-0.53125 -0.25 -1.3125 -0.25q-0.9375 0 -1.625 0.484375q-0.671875 0.46875 -1.046875 1.296875q-0.359375 0.8125 -0.359375 1.859375q0 1.203125 0.46875 2.015625q0.46875 0.796875 1.203125 1.1875q0.734375 0.390625 1.546875 0.390625q1.046875 0 1.71875 -0.484375q0.6875 -0.5 1.09375 -1.234375l1.34375 0.65625q-0.5625 1.078125 -1.609375 1.796875q-1.046875 0.703125 -2.609375 0.703125zm10.278656 0q-1.28125 0 -2.328125 -0.640625q-1.03125 -0.65625 -1.625 -1.796875q-0.59375 -1.140625 -0.59375 -2.609375q0 -1.484375 0.59375 -2.609375q0.59375 -1.140625 1.625 -1.796875q1.046875 -0.65625 2.328125 -0.65625q0.765625 0 1.390625 0.25q0.640625 0.234375 1.109375 0.625q0.484375 0.390625 0.75 0.84375l0.078125 0l-0.078125 -1.328125l0 -3.9375l1.578125 0l0 13.359375l-1.5 0l0 -1.40625l-0.078125 0q-0.265625 0.4375 -0.75 0.828125q-0.46875 0.390625 -1.109375 0.625q-0.625 0.25 -1.390625 0.25zm0.171875 -1.4375q0.8125 0 1.53125 -0.4375q0.71875 -0.4375 1.171875 -1.25q0.453125 -0.8125 0.453125 -1.921875q0 -1.125 -0.453125 -1.9375q-0.453125 -0.8125 -1.171875 -1.25q-0.71875 -0.4375 -1.53125 -0.4375q-0.828125 0 -1.546875 0.4375q-0.71875 0.4375 -1.171875 1.25q-0.4375 0.8125 -0.4375 1.9375q0 1.09375 0.4375 1.921875q0.453125 0.8125 1.171875 1.25q0.71875 0.4375 1.546875 0.4375z" fill-rule="nonzero"/><path fill="#000000" fill-opacity="0.0" d="m237.72441 325.20178l105.6378 0l0 42.015747l-105.6378 0z" fill-rule="evenodd"/><path fill="#000000" d="m255.83995 352.12177l0 -1.421875q-1.125 1.640625 -3.0625 1.640625q-0.859375 0 -1.609375 -0.328125q-0.734375 -0.328125 -1.09375 -0.828125q-0.359375 -0.5 -0.5 -1.21875q-0.109375 -0.46875 -0.109375 -1.53125l0 -5.984375l1.640625 0l0 5.359375q0 1.28125 0.109375 1.734375q0.15625 0.640625 0.65625 1.015625q0.5 0.375 1.234375 0.375q0.734375 0 1.375 -0.375q0.65625 -0.390625 0.921875 -1.03125q0.265625 -0.65625 0.265625 -1.890625l0 -5.1875l1.6406403 0l0 9.671875l-1.4687653 0zm4.047592 0l0 -9.671875l1.46875 0l0 1.375q1.0625 -1.59375 3.078125 -1.59375q0.875 0 1.609375 0.3125q0.734375 0.3125 1.09375 0.828125q0.375 0.5 0.515625 1.203125q0.09375 0.453125 0.09375 1.59375l0 5.953125l-1.640625 0l0 -5.890625q0 -1.0 -0.203125 -1.484375q-0.1875 -0.5 -0.671875 -0.796875q-0.484375 -0.296875 -1.140625 -0.296875q-1.046875 0 -1.8125 0.671875q-0.75 0.65625 -0.75 2.515625l0 5.28125l-1.640625 0zm16.641357 0l0 -1.21875q-0.90625 1.4375 -2.703125 1.4375q-1.15625 0 -2.125 -0.640625q-0.96875 -0.640625 -1.5 -1.78125q-0.53125 -1.140625 -0.53125 -2.625q0 -1.453125 0.484375 -2.625q0.484375 -1.1875 1.4375 -1.8125q0.96875 -0.625 2.171875 -0.625q0.875 0 1.546875 0.375q0.6875 0.359375 1.109375 0.953125l0 -4.796875l1.640625 0l0 13.359375l-1.53125 0zm-5.171875 -4.828125q0 1.859375 0.78125 2.78125q0.78125 0.921875 1.84375 0.921875q1.078125 0 1.828125 -0.875q0.75 -0.890625 0.75 -2.6875q0 -1.984375 -0.765625 -2.90625q-0.765625 -0.9375 -1.890625 -0.9375q-1.078125 0 -1.8125 0.890625q-0.734375 0.890625 -0.734375 2.8125zm15.906952 1.71875l1.6875 0.203125q-0.40625 1.484375 -1.484375 2.3125q-1.078125 0.8125 -2.765625 0.8125q-2.125 0 -3.375 -1.296875q-1.234375 -1.3125 -1.234375 -3.671875q0 -2.453125 1.25 -3.796875q1.265625 -1.34375 3.265625 -1.34375q1.9375 0 3.15625 1.328125q1.234375 1.3125 1.234375 3.703125q0 0.15625 0 0.4375l-7.21875 0q0.09375 1.59375 0.90625 2.453125q0.8125 0.84375 2.015625 0.84375q0.90625 0 1.546875 -0.46875q0.640625 -0.484375 1.015625 -1.515625zm-5.390625 -2.65625l5.40625 0q-0.109375 -1.21875 -0.625 -1.828125q-0.78125 -0.953125 -2.03125 -0.953125q-1.125 0 -1.90625 0.765625q-0.765625 0.75 -0.84375 2.015625zm9.125732 5.765625l0 -9.671875l1.46875 0l0 1.46875q0.5625 -1.03125 1.03125 -1.359375q0.484375 -0.328125 1.0625 -0.328125q0.828125 0 1.6875 0.53125l-0.5625 1.515625q-0.609375 -0.359375 -1.203125 -0.359375q-0.546875 0 -0.96875 0.328125q-0.421875 0.328125 -0.609375 0.890625q-0.28125 0.875 -0.28125 1.921875l0 5.0625l-1.625 0zm6.181427 0l0 -13.359375l1.640625 0l0 13.359375l-1.640625 0zm4.113556 3.71875l-0.1875 -1.53125q0.546875 0.140625 0.9375 0.140625q0.546875 0 0.875 -0.1875q0.328125 -0.171875 0.546875 -0.5q0.15625 -0.25 0.5 -1.21875q0.046875 -0.140625 0.140625 -0.40625l-3.671875 -9.6875l1.765625 0l2.015625 5.59375q0.390625 1.078125 0.703125 2.25q0.28125 -1.125 0.671875 -2.203125l2.078125 -5.640625l1.640625 0l-3.6875 9.828125q-0.59375 1.609375 -0.921875 2.203125q-0.4375 0.8125 -1.0 1.1875q-0.5625 0.375 -1.34375 0.375q-0.484375 0 -1.0625 -0.203125zm9.40625 -15.1875l0 -1.890625l1.640625 0l0 1.890625l-1.640625 0zm0 11.46875l0 -9.671875l1.640625 0l0 9.671875l-1.640625 0zm4.1448364 0l0 -9.671875l1.46875 0l0 1.375q1.0625 -1.59375 3.078125 -1.59375q0.875 0 1.609375 0.3125q0.734375 0.3125 1.09375 0.828125q0.375 0.5 0.515625 1.203125q0.09375 0.453125 0.09375 1.59375l0 5.953125l-1.640625 0l0 -5.890625q0 -1.0 -0.203125 -1.484375q-0.1875 -0.5 -0.671875 -0.796875q-0.484375 -0.296875 -1.140625 -0.296875q-1.046875 0 -1.8125 0.671875q-0.75 0.65625 -0.75 2.515625l0 5.28125l-1.640625 0zm10.063202 0.796875l1.59375 0.234375q0.109375 0.75 0.5625 1.078125q0.609375 0.453125 1.671875 0.453125q1.140625 0 1.75 -0.453125q0.625 -0.453125 0.84375 -1.265625q0.125 -0.5 0.109375 -2.109375q-1.0625 1.265625 -2.671875 1.265625q-2.0 0 -3.09375 -1.4375q-1.09375 -1.4375 -1.09375 -3.453125q0 -1.390625 0.5 -2.5625q0.515625 -1.171875 1.453125 -1.796875q0.953125 -0.640625 2.25 -0.640625q1.703125 0 2.8125 1.375l0 -1.15625l1.515625 0l0 8.359375q0 2.265625 -0.46875 3.203125q-0.453125 0.9375 -1.453125 1.484375q-0.984375 0.546875 -2.453125 0.546875q-1.71875 0 -2.796875 -0.78125q-1.0625 -0.765625 -1.03125 -2.34375zm1.359375 -5.8125q0 1.90625 0.75 2.78125q0.765625 0.875 1.90625 0.875q1.125 0 1.890625 -0.859375q0.765625 -0.875 0.765625 -2.734375q0 -1.78125 -0.796875 -2.671875q-0.78125 -0.90625 -1.890625 -0.90625q-1.09375 0 -1.859375 0.890625q-0.765625 0.875 -0.765625 2.625z" fill-rule="nonzero"/><path fill="#000000" fill-opacity="0.0" d="m343.3622 346.20966l24.99942 0l0 38.207123l-176.401 0l0 17.194458" fill-rule="evenodd"/><path stroke="#000000" stroke-width="2.0" stroke-linejoin="round" stroke-linecap="butt" d="m350.94223 346.20966l17.419403 0l0 38.207123l-176.401 0l0 5.1944275" fill-rule="evenodd"/><path fill="#000000" stroke="#000000" stroke-width="2.0" stroke-linecap="butt" d="m350.9422 349.49963l-6.5799866 0l0 -6.5799866l6.5799866 0l0 6.5799866z" fill-rule="nonzero"/><path fill="#000000" stroke="#000000" stroke-width="2.0" stroke-linecap="butt" d="m188.65717 389.6112l3.3034668 9.076202l3.3034668 -9.076202z" fill-rule="evenodd"/><path fill="#d9ead3" d="m40.559055 401.6165l302.80316 0l0 64.66141l-302.80316 0z" fill-rule="evenodd"/><path stroke="#000000" stroke-width="2.0" stroke-linejoin="round" stroke-linecap="butt" d="m40.559055 401.6165l302.80316 0l0 64.66141l-302.80316 0z" fill-rule="evenodd"/><path fill="#000000" d="m52.059055 422.85156l-1.078125 -0.78125l1.40625 -1.921875l-0.03125 -0.15625l-2.09375 -0.703125l0.4375 -1.25l2.046875 0.734375l0.109375 -0.046875l0 -2.21875l1.328125 0l0 2.21875l0.09375 0.046875l2.078125 -0.734375l0.421875 1.25l-2.09375 0.703125l-0.046875 0.15625l1.4375 1.921875l-1.09375 0.78125l-1.390625 -1.921875l-0.125 0l-1.40625 1.921875zm6.5851593 7.015625l0 -9.515625l1.59375 0l0 9.515625l-1.59375 0zm0.78125 -11.265625q-0.46875 0 -0.8125 -0.328125q-0.328125 -0.34375 -0.328125 -0.8125q0 -0.484375 0.328125 -0.8125q0.34375 -0.328125 0.8125 -0.328125q0.484375 0 0.8125 0.328125q0.328125 0.328125 0.328125 0.8125q0 0.46875 -0.328125 0.8125q-0.328125 0.328125 -0.8125 0.328125zm3.1179047 11.265625l0 -9.515625l1.5156212 0l0 1.40625l0.078125 0q0.359375 -0.703125 1.203125 -1.203125q0.859375 -0.5 1.875 -0.5q1.75 0 2.625 1.015625q0.890625 1.015625 0.890625 2.703125l0 6.09375l-1.578125 0l0 -5.859375q0 -1.375 -0.671875 -1.9375q-0.65625 -0.578125 -1.703125 -0.578125q-0.78125 0 -1.375 0.4375q-0.59375 0.4375 -0.9375 1.125q-0.328125 0.6875 -0.328125 1.453125l0 5.359375l-1.5937462 0zm9.461346 -8.078125l0 -1.4375l1.765625 0l0 1.4375l-1.765625 0zm4.328125 8.234375q-1.203125 0 -1.9375 -0.71875q-0.71875 -0.71875 -0.71875 -1.9375l0 -9.703125l1.59375 0l0 9.3125q0 0.796875 0.3125 1.1875q0.328125 0.375 0.984375 0.375q0.296875 0 0.5625 -0.078125q0.265625 -0.09375 0.5 -0.234375l0 1.546875q-0.296875 0.109375 -0.609375 0.171875q-0.3125 0.078125 -0.6875 0.078125zm-1.15625 -8.234375l0 -1.4375l2.421875 0l0 1.4375l-2.421875 0z" fill-rule="nonzero"/><path fill="#000000" d="m51.027805 451.8672l0 -13.359375l4.5 0q1.125 0 2.078125 0.515625q0.953125 0.5 1.515625 1.390625q0.5625 0.875 0.5625 2.046875q0 1.15625 -0.5625 2.0625q-0.5625 0.890625 -1.515625 1.390625q-0.953125 0.5 -2.078125 0.5l-3.65625 0l0 -1.5l3.6875 0q0.796875 0 1.34375 -0.359375q0.5625 -0.375 0.875 -0.9375q0.3125 -0.5625 0.3125 -1.15625q0 -0.59375 -0.3125 -1.15625q-0.3125 -0.5625 -0.875 -0.921875q-0.546875 -0.359375 -1.34375 -0.359375l-2.9375 0l0 11.84375l-1.59375 0zm14.320156 0.296875q-1.4374962 0 -2.5468712 -0.671875q-1.09375 -0.671875 -1.71875 -1.8125q-0.625 -1.15625 -0.625 -2.5625q0 -1.421875 0.625 -2.5625q0.625 -1.15625 1.71875 -1.828125q1.109375 -0.671875 2.5468712 -0.671875q1.4375 0 2.53125 0.6875q1.09375 0.671875 1.71875 1.828125q0.625 1.140625 0.625 2.546875q0 1.40625 -0.625 2.5625q-0.625 1.140625 -1.71875 1.8125q-1.09375 0.671875 -2.53125 0.671875zm0 -1.4375q0.859375 0 1.609375 -0.421875q0.75 -0.4375 1.21875 -1.25q0.46875 -0.8125 0.46875 -1.9375q0 -1.140625 -0.46875 -1.953125q-0.46875 -0.8125 -1.21875 -1.234375q-0.75 -0.4375 -1.609375 -0.4375q-0.859375 0 -1.6249962 0.4375q-0.765625 0.421875 -1.234375 1.234375q-0.46875 0.8125 -0.46875 1.953125q0 1.125 0.46875 1.9375q0.46875 0.8125 1.234375 1.25q0.7656212 0.421875 1.6249962 0.421875zm6.6911926 1.140625l0 -9.515625l1.59375 0l0 9.515625l-1.59375 0zm0.78125 -11.265625q-0.46875 0 -0.8125 -0.328125q-0.328125 -0.34375 -0.328125 -0.8125q0 -0.484375 0.328125 -0.8125q0.34375 -0.328125 0.8125 -0.328125q0.484375 0 0.8125 0.328125q0.328125 0.328125 0.328125 0.8125q0 0.46875 -0.328125 0.8125q-0.328125 0.328125 -0.8125 0.328125zm3.1179047 11.265625l0 -9.515625l1.515625 0l0 1.40625l0.078125 0q0.359375 -0.703125 1.203125 -1.203125q0.859375 -0.5 1.875 -0.5q1.75 0 2.625 1.015625q0.890625 1.015625 0.890625 2.703125l0 6.09375l-1.578125 0l0 -5.859375q0 -1.375 -0.671875 -1.9375q-0.65625 -0.578125 -1.703125 -0.578125q-0.78125 0 -1.375 0.4375q-0.59375 0.4375 -0.9375 1.125q-0.328125 0.6875 -0.328125 1.453125l0 5.359375l-1.59375 0zm9.4613495 -8.078125l0 -1.4375l1.765625 0l0 1.4375l-1.765625 0zm4.328125 8.234375q-1.203125 0 -1.9375 -0.71875q-0.71875 -0.71875 -0.71875 -1.9375l0 -9.703125l1.59375 0l0 9.3125q0 0.796875 0.3125 1.1875q0.328125 0.375 0.984375 0.375q0.296875 0 0.5625 -0.078125q0.265625 -0.09375 0.5 -0.234375l0 1.546875q-0.296875 0.109375 -0.609375 0.171875q-0.3125 0.078125 -0.6875 0.078125zm-1.15625 -8.234375l0 -1.4375l2.421875 0l0 1.4375l-2.421875 0zm8.074219 8.375q-1.375 0 -2.453125 -0.640625q-1.078125 -0.65625 -1.6875 -1.796875q-0.59375 -1.140625 -0.59375 -2.59375q0 -1.359375 0.5625 -2.515625q0.578125 -1.15625 1.609375 -1.859375q1.03125 -0.703125 2.4375 -0.703125q1.40625 0 2.421875 0.625q1.03125 0.625 1.578125 1.734375q0.546875 1.09375 0.546875 2.515625q0 0.125 -0.015625 0.265625q0 0.125 -0.015625 0.21875l-8.203125 0l0 -1.3125l6.5625 0q-0.03125 -0.390625 -0.1875 -0.84375q-0.15625 -0.46875 -0.5 -0.859375q-0.34375 -0.40625 -0.875 -0.65625q-0.53125 -0.25 -1.3125 -0.25q-0.9375 0 -1.625 0.484375q-0.671875 0.46875 -1.046875 1.296875q-0.359375 0.8125 -0.359375 1.859375q0 1.203125 0.46875 2.015625q0.46875 0.796875 1.203125 1.1875q0.734375 0.390625 1.546875 0.390625q1.046875 0 1.71875 -0.484375q0.6875 -0.5 1.09375 -1.234375l1.34375 0.65625q-0.5625 1.078125 -1.609375 1.796875q-1.046875 0.703125 -2.609375 0.703125zm6.231781 -0.296875l0 -9.515625l1.515625 0l0 1.53125l0.078125 0q0.171875 -0.546875 0.609375 -0.9375q0.453125 -0.40625 1.015625 -0.640625q0.5625 -0.234375 1.125 -0.234375q0.4375 0 0.671875 0.046875q0.25 0.046875 0.453125 0.140625l0 1.71875q-0.296875 -0.15625 -0.640625 -0.21875q-0.34375 -0.078125 -0.703125 -0.078125q-0.6875 0 -1.265625 0.390625q-0.578125 0.390625 -0.921875 1.046875q-0.34375 0.65625 -0.34375 1.4375l0 5.3125l-1.59375 0z" fill-rule="nonzero"/><path fill="#000000" fill-opacity="0.0" d="m237.72441 424.2569l105.6378 0l0 42.015747l-105.6378 0z" fill-rule="evenodd"/><path fill="#000000" d="m296.6413 451.17688l-1.515625 0l0 -13.359375l1.640625 0l0 4.765625q1.046875 -1.296875 2.65625 -1.296875q0.890625 0 1.6875 0.359375q0.796875 0.359375 1.3125 1.015625q0.515625 0.640625 0.796875 1.5625q0.296875 0.921875 0.296875 1.96875q0 2.484375 -1.234375 3.84375q-1.21875 1.359375 -2.953125 1.359375q-1.703125 0 -2.6875 -1.4375l0 1.21875zm-0.015625 -4.90625q0 1.734375 0.484375 2.515625q0.765625 1.265625 2.09375 1.265625q1.078125 0 1.859375 -0.9375q0.78125 -0.9375 0.78125 -2.78125q0 -1.890625 -0.75 -2.796875q-0.75 -0.90625 -1.828125 -0.90625q-1.0625 0 -1.859375 0.9375q-0.78125 0.9375 -0.78125 2.703125zm15.203857 3.71875q-0.921875 0.765625 -1.765625 1.09375q-0.828125 0.3125 -1.796875 0.3125q-1.59375 0 -2.453125 -0.78125q-0.859375 -0.78125 -0.859375 -1.984375q0 -0.71875 0.328125 -1.296875q0.328125 -0.59375 0.84375 -0.9375q0.53125 -0.359375 1.1875 -0.546875q0.46875 -0.125 1.453125 -0.25q1.984375 -0.234375 2.921875 -0.5625q0.015625 -0.34375 0.015625 -0.421875q0 -1.0 -0.46875 -1.421875q-0.625 -0.546875 -1.875 -0.546875q-1.15625 0 -1.703125 0.40625q-0.546875 0.40625 -0.8125 1.421875l-1.609375 -0.21875q0.21875 -1.015625 0.71875 -1.640625q0.5 -0.640625 1.453125 -0.984375q0.953125 -0.34375 2.1875 -0.34375q1.25 0 2.015625 0.296875q0.78125 0.28125 1.140625 0.734375q0.375 0.4375 0.515625 1.109375q0.078125 0.421875 0.078125 1.515625l0 2.1875q0 2.28125 0.109375 2.890625q0.109375 0.59375 0.40625 1.15625l-1.703125 0q-0.265625 -0.515625 -0.328125 -1.1875zm-0.140625 -3.671875q-0.890625 0.375 -2.671875 0.625q-1.015625 0.140625 -1.4375 0.328125q-0.421875 0.1875 -0.65625 0.53125q-0.21875 0.34375 -0.21875 0.78125q0 0.65625 0.5 1.09375q0.5 0.4375 1.453125 0.4375q0.9375 0 1.671875 -0.40625q0.75 -0.421875 1.09375 -1.140625q0.265625 -0.5625 0.265625 -1.640625l0 -0.609375zm3.547577 1.96875l1.625 -0.25q0.125 0.96875 0.75 1.5q0.625 0.515625 1.75 0.515625q1.125 0 1.671875 -0.453125q0.546875 -0.46875 0.546875 -1.09375q0 -0.546875 -0.484375 -0.875q-0.328125 -0.21875 -1.671875 -0.546875q-1.8125 -0.46875 -2.515625 -0.796875q-0.6875 -0.328125 -1.046875 -0.90625q-0.359375 -0.59375 -0.359375 -1.3125q0 -0.640625 0.296875 -1.1875q0.296875 -0.5625 0.8125 -0.921875q0.375 -0.28125 1.03125 -0.46875q0.671875 -0.203125 1.421875 -0.203125q1.140625 0 2.0 0.328125q0.859375 0.328125 1.265625 0.890625q0.421875 0.5625 0.578125 1.5l-1.609375 0.21875q-0.109375 -0.75 -0.640625 -1.171875q-0.515625 -0.421875 -1.46875 -0.421875q-1.140625 0 -1.625 0.375q-0.46875 0.375 -0.46875 0.875q0 0.3125 0.1875 0.578125q0.203125 0.265625 0.640625 0.4375q0.234375 0.09375 1.4375 0.421875q1.75 0.453125 2.4375 0.75q0.6875 0.296875 1.078125 0.859375q0.390625 0.5625 0.390625 1.40625q0 0.828125 -0.484375 1.546875q-0.46875 0.71875 -1.375 1.125q-0.90625 0.390625 -2.046875 0.390625q-1.875 0 -2.875 -0.78125q-0.984375 -0.78125 -1.25 -2.328125zm16.609375 -0.21875l1.6875 0.203125q-0.40625 1.484375 -1.484375 2.3125q-1.078125 0.8125 -2.765625 0.8125q-2.125 0 -3.375 -1.296875q-1.234375 -1.3125 -1.234375 -3.671875q0 -2.453125 1.25 -3.796875q1.265625 -1.34375 3.265625 -1.34375q1.9375 0 3.15625 1.328125q1.234375 1.3125 1.234375 3.703125q0 0.15625 0 0.4375l-7.21875 0q0.09375 1.59375 0.90625 2.453125q0.8125 0.84375 2.015625 0.84375q0.90625 0 1.546875 -0.46875q0.640625 -0.484375 1.015625 -1.515625zm-5.390625 -2.65625l5.40625 0q-0.109375 -1.21875 -0.625 -1.828125q-0.78125 -0.953125 -2.03125 -0.953125q-1.125 0 -1.90625 0.765625q-0.765625 0.75 -0.84375 2.015625z" fill-rule="nonzero"/><path fill="#efefef" d="m321.84253 313.8737c0 -11.602325 9.405548 -21.007874 21.007874 -21.007874c5.5716248 0 10.91507 2.2133179 14.854797 6.153076c3.9397583 3.9397278 6.153076 9.283173 6.153076 14.854797c0 11.602325 -9.405548 21.007874 -21.007874 21.007874c-11.602325 0 -21.007874 -9.405548 -21.007874 -21.007874z" fill-rule="evenodd"/><path stroke="#000000" stroke-width="2.0" stroke-linejoin="round" stroke-linecap="butt" d="m321.84253 313.8737c0 -11.602325 9.405548 -21.007874 21.007874 -21.007874c5.5716248 0 10.91507 2.2133179 14.854797 6.153076c3.9397583 3.9397278 6.153076 9.283173 6.153076 14.854797c0 11.602325 -9.405548 21.007874 -21.007874 21.007874c-11.602325 0 -21.007874 -9.405548 -21.007874 -21.007874z" fill-rule="evenodd"/><path fill="#000000" d="m338.39883 319.7337l0 -9.546875l-1.921875 1.375l-0.703125 -1.046875l3.125 -2.234375l0.859375 0l0 11.453125l-1.359375 0z" fill-rule="nonzero"/><path fill="#000000" d="m344.40387 313.90558q-0.609375 0 -1.078125 -0.1875q-0.46875 -0.203125 -0.765625 -0.53125q-0.296875 -0.34375 -0.453125 -0.75l0.8125 -0.359375q0.21875 0.5 0.609375 0.765625q0.40625 0.265625 0.9375 0.265625q0.5 0 0.828125 -0.203125q0.34375 -0.203125 0.34375 -0.59375q0 -0.25 -0.140625 -0.40625q-0.140625 -0.171875 -0.40625 -0.28125q-0.265625 -0.125 -0.65625 -0.21875l-0.65625 -0.171875q-0.375 -0.109375 -0.71875 -0.296875q-0.34375 -0.203125 -0.5625 -0.5q-0.203125 -0.3125 -0.203125 -0.734375q0 -0.5 0.28125 -0.84375q0.296875 -0.359375 0.765625 -0.546875q0.46875 -0.1875 1.0 -0.1875q0.46875 0 0.875 0.140625q0.421875 0.125 0.71875 0.390625q0.3125 0.265625 0.484375 0.640625l-0.796875 0.359375q-0.203125 -0.390625 -0.546875 -0.546875q-0.328125 -0.171875 -0.75 -0.171875q-0.453125 0 -0.78125 0.203125q-0.328125 0.1875 -0.328125 0.53125q0 0.34375 0.265625 0.515625q0.28125 0.171875 0.671875 0.28125l0.78125 0.203125q0.8125 0.203125 1.203125 0.609375q0.40625 0.390625 0.40625 0.96875q0 0.5 -0.28125 0.875q-0.28125 0.375 -0.78125 0.578125q-0.484375 0.203125 -1.078125 0.203125zm2.7222595 -4.78125l0 -0.828125l1.015625 0l0 0.828125l-1.015625 0zm2.484375 4.6875q-0.6875 0 -1.109375 -0.40625q-0.40625 -0.40625 -0.40625 -1.09375l0 -5.546875l0.90625 0l0 5.3125q0 0.46875 0.1875 0.6875q0.1875 0.21875 0.546875 0.21875q0.171875 0 0.3125 -0.046875q0.15625 -0.0625 0.296875 -0.140625l0 0.890625q-0.171875 0.0625 -0.359375 0.09375q-0.171875 0.03125 -0.375 0.03125zm-0.671875 -4.6875l0 -0.828125l1.390625 0l0 0.828125l-1.390625 0z" fill-rule="nonzero"/><path fill="#efefef" d="m321.84253 215.57973c0 -11.602325 9.405548 -21.007874 21.007874 -21.007874c5.5716248 0 10.91507 2.2133179 14.854797 6.153061c3.9397583 3.939743 6.153076 9.283173 6.153076 14.854813c0 11.602325 -9.405548 21.007874 -21.007874 21.007874c-11.602325 0 -21.007874 -9.405548 -21.007874 -21.007874z" fill-rule="evenodd"/><path stroke="#000000" stroke-width="2.0" stroke-linejoin="round" stroke-linecap="butt" d="m321.84253 215.57973c0 -11.602325 9.405548 -21.007874 21.007874 -21.007874c5.5716248 0 10.91507 2.2133179 14.854797 6.153061c3.9397583 3.939743 6.153076 9.283173 6.153076 14.854813c0 11.602325 -9.405548 21.007874 -21.007874 21.007874c-11.602325 0 -21.007874 -9.405548 -21.007874 -21.007874z" fill-rule="evenodd"/><path fill="#000000" d="m333.18616 221.43973l0 -1.359375q0.046875 -0.046875 0.28125 -0.3125q0.25 -0.265625 0.609375 -0.671875q0.375 -0.40625 0.796875 -0.875q0.421875 -0.484375 0.859375 -0.953125q0.4375 -0.484375 0.796875 -0.875q0.375 -0.40625 0.59375 -0.65625q0.75 -0.8125 1.109375 -1.4375q0.359375 -0.640625 0.359375 -1.34375q0 -0.53125 -0.265625 -0.96875q-0.25 -0.4375 -0.71875 -0.703125q-0.46875 -0.265625 -1.09375 -0.265625q-0.59375 0 -1.03125 0.265625q-0.4375 0.25 -0.703125 0.625q-0.265625 0.359375 -0.34375 0.71875l-1.234375 -0.5q0.09375 -0.328125 0.34375 -0.734375q0.25 -0.421875 0.65625 -0.796875q0.421875 -0.390625 1.015625 -0.625q0.59375 -0.25 1.359375 -0.25q1.078125 0 1.828125 0.46875q0.765625 0.46875 1.171875 1.203125q0.421875 0.71875 0.421875 1.546875q0 0.71875 -0.3125 1.40625q-0.296875 0.6875 -0.734375 1.28125q-0.421875 0.578125 -0.828125 1.0q-0.203125 0.203125 -0.5625 0.59375q-0.359375 0.390625 -0.78125 0.859375q-0.40625 0.453125 -0.8125 0.890625q-0.390625 0.421875 -0.6875 0.75q-0.296875 0.3125 -0.40625 0.421875l0 0l5.21875 0l0 1.296875l-6.90625 0z" fill-rule="nonzero"/><path fill="#000000" d="m341.5233 215.43973l0 -5.4375l0.875 0l0 0.796875l0.03125 0q0.21875 -0.390625 0.703125 -0.671875q0.484375 -0.296875 1.0625 -0.296875q1.0 0 1.5 0.59375q0.515625 0.578125 0.515625 1.53125l0 3.484375l-0.90625 0l0 -3.34375q0 -0.796875 -0.390625 -1.109375q-0.375 -0.328125 -0.96875 -0.328125q-0.453125 0 -0.796875 0.25q-0.328125 0.25 -0.53125 0.640625q-0.1875 0.390625 -0.1875 0.828125l0 3.0625l-0.90625 0zm8.269409 0.171875q-0.734375 0 -1.328125 -0.375q-0.578125 -0.375 -0.921875 -1.015625q-0.34375 -0.65625 -0.34375 -1.5q0 -0.84375 0.34375 -1.484375q0.34375 -0.65625 0.921875 -1.03125q0.59375 -0.375 1.328125 -0.375q0.4375 0 0.796875 0.140625q0.375 0.140625 0.640625 0.375q0.265625 0.21875 0.421875 0.46875l0.046875 0l-0.046875 -0.75l0 -2.25l0.90625 0l0 7.625l-0.859375 0l0 -0.796875l-0.046875 0q-0.15625 0.25 -0.421875 0.46875q-0.265625 0.21875 -0.640625 0.359375q-0.359375 0.140625 -0.796875 0.140625zm0.09375 -0.828125q0.46875 0 0.875 -0.25q0.421875 -0.25 0.671875 -0.703125q0.265625 -0.46875 0.265625 -1.109375q0 -0.640625 -0.265625 -1.09375q-0.25 -0.46875 -0.671875 -0.71875q-0.40625 -0.25 -0.875 -0.25q-0.46875 0 -0.875 0.25q-0.40625 0.25 -0.671875 0.71875q-0.25 0.453125 -0.25 1.09375q0 0.625 0.25 1.09375q0.265625 0.46875 0.671875 0.71875q0.40625 0.25 0.875 0.25z" fill-rule="nonzero"/><path fill="#efefef" d="m321.84253 117.28577c0 -11.602333 9.405548 -21.007874 21.007874 -21.007874c5.5716248 0 10.91507 2.2133179 14.854797 6.153061c3.9397583 3.939743 6.153076 9.283173 6.153076 14.854813c0 11.602325 -9.405548 21.007874 -21.007874 21.007874c-11.602325 0 -21.007874 -9.405548 -21.007874 -21.007874z" fill-rule="evenodd"/><path stroke="#000000" stroke-width="2.0" stroke-linejoin="round" stroke-linecap="butt" d="m321.84253 117.28577c0 -11.602333 9.405548 -21.007874 21.007874 -21.007874c5.5716248 0 10.91507 2.2133179 14.854797 6.153061c3.9397583 3.939743 6.153076 9.283173 6.153076 14.854813c0 11.602325 -9.405548 21.007874 -21.007874 21.007874c-11.602325 0 -21.007874 -9.405548 -21.007874 -21.007874z" fill-rule="evenodd"/><path fill="#000000" d="m337.7343 123.39576q-0.640625 0 -1.359375 -0.265625q-0.71875 -0.28125 -1.3125 -0.90625q-0.59375 -0.640625 -0.875 -1.6875l1.25 -0.546875q0.265625 0.96875 0.859375 1.546875q0.609375 0.5625 1.4375 0.5625q0.625 0 1.140625 -0.28125q0.53125 -0.28125 0.84375 -0.78125q0.3125 -0.515625 0.3125 -1.125q0 -0.609375 -0.328125 -1.078125q-0.3125 -0.484375 -0.84375 -0.765625q-0.53125 -0.28125 -1.171875 -0.28125l-0.9375 0l0 -1.28125l0.84375 0q0.578125 0 1.046875 -0.234375q0.46875 -0.25 0.734375 -0.671875q0.28125 -0.4375 0.28125 -1.03125q0 -0.578125 -0.265625 -0.984375q-0.25 -0.421875 -0.703125 -0.640625q-0.4375 -0.21875 -1.03125 -0.21875q-0.609375 0 -1.015625 0.265625q-0.390625 0.25 -0.625 0.625q-0.234375 0.375 -0.34375 0.734375l-1.25 -0.5625q0.171875 -0.5 0.578125 -1.03125q0.421875 -0.546875 1.09375 -0.9375q0.6875 -0.390625 1.625 -0.390625q1.0 0 1.734375 0.390625q0.75 0.375 1.15625 1.078125q0.421875 0.6875 0.421875 1.640625q0 0.640625 -0.203125 1.140625q-0.1875 0.5 -0.53125 0.84375q-0.34375 0.328125 -0.765625 0.515625l0 0.0625q0.515625 0.203125 0.9375 0.59375q0.421875 0.390625 0.671875 0.953125q0.265625 0.546875 0.265625 1.25q0 1.03125 -0.5 1.828125q-0.5 0.78125 -1.328125 1.234375q-0.828125 0.4375 -1.84375 0.4375z" fill-rule="nonzero"/><path fill="#000000" d="m342.76233 117.14576l0 -5.4375l0.875 0l0 0.875l0.03125 0q0.109375 -0.3125 0.359375 -0.53125q0.25 -0.234375 0.578125 -0.359375q0.328125 -0.140625 0.640625 -0.140625q0.25 0 0.390625 0.03125q0.140625 0.015625 0.25 0.078125l0 0.984375q-0.171875 -0.09375 -0.375 -0.125q-0.1875 -0.046875 -0.390625 -0.046875q-0.390625 0 -0.734375 0.21875q-0.328125 0.21875 -0.53125 0.59375q-0.1875 0.375 -0.1875 0.828125l0 3.03125l-0.90625 0zm5.9353333 0.171875q-0.734375 0 -1.328125 -0.375q-0.578125 -0.375 -0.921875 -1.015625q-0.34375 -0.65625 -0.34375 -1.5q0 -0.84375 0.34375 -1.484375q0.34375 -0.65625 0.921875 -1.03125q0.59375 -0.375 1.328125 -0.375q0.4375 0 0.796875 0.140625q0.375 0.140625 0.640625 0.375q0.265625 0.21875 0.421875 0.46875l0.046875 0l-0.046875 -0.75l0 -2.25l0.90625 0l0 7.625l-0.859375 0l0 -0.796875l-0.046875 0q-0.15625 0.25 -0.421875 0.46875q-0.265625 0.21875 -0.640625 0.359375q-0.359375 0.140625 -0.796875 0.140625zm0.09375 -0.828125q0.46875 0 0.875 -0.25q0.421875 -0.25 0.671875 -0.703125q0.265625 -0.46875 0.265625 -1.109375q0 -0.640625 -0.265625 -1.09375q-0.25 -0.46875 -0.671875 -0.71875q-0.40625 -0.25 -0.875 -0.25q-0.46875 0 -0.875 0.25q-0.40625 0.25 -0.671875 0.71875q-0.25 0.453125 -0.25 1.09375q0 0.625 0.25 1.09375q0.265625 0.46875 0.671875 0.71875q0.40625 0.25 0.875 0.25z" fill-rule="nonzero"/><path fill="#d9ead3" d="m515.8189 401.6165l67.62201 0l0 64.66141l-67.62201 0z" fill-rule="evenodd"/><path stroke="#000000" stroke-width="2.0" stroke-linejoin="round" stroke-linecap="butt" d="m515.8189 401.6165l67.62201 0l0 64.66141l-67.62201 0z" fill-rule="evenodd"/><path fill="#000000" d="m525.97516 429.8672l0 -9.515625l1.59375 0l0 9.515625l-1.59375 0zm0.78125 -11.265625q-0.46875 0 -0.8125 -0.328125q-0.328125 -0.34375 -0.328125 -0.8125q0 -0.484375 0.328125 -0.8125q0.34375 -0.328125 0.8125 -0.328125q0.484375 0 0.8125 0.328125q0.328125 0.328125 0.328125 0.8125q0 0.46875 -0.328125 0.8125q-0.328125 0.328125 -0.8125 0.328125zm3.11792 11.265625l0 -9.515625l1.515625 0l0 1.40625l0.078125 0q0.359375 -0.703125 1.203125 -1.203125q0.859375 -0.5 1.875 -0.5q1.75 0 2.625 1.015625q0.890625 1.015625 0.890625 2.703125l0 6.09375l-1.578125 0l0 -5.859375q0 -1.375 -0.671875 -1.9375q-0.65625 -0.578125 -1.703125 -0.578125q-0.78125 0 -1.375 0.4375q-0.59375 0.4375 -0.9375 1.125q-0.328125 0.6875 -0.328125 1.453125l0 5.359375l-1.59375 0zm9.461304 -8.078125l0 -1.4375l1.765625 0l0 1.4375l-1.765625 0zm4.328125 8.234375q-1.203125 0 -1.9375 -0.71875q-0.71875 -0.71875 -0.71875 -1.9375l0 -9.703125l1.59375 0l0 9.3125q0 0.796875 0.3125 1.1875q0.328125 0.375 0.984375 0.375q0.296875 0 0.5625 -0.078125q0.265625 -0.09375 0.5 -0.234375l0 1.546875q-0.296875 0.109375 -0.609375 0.171875q-0.3125 0.078125 -0.6875 0.078125zm-1.15625 -8.234375l0 -1.4375l2.421875 0l0 1.4375l-2.421875 0z" fill-rule="nonzero"/><path fill="#000000" fill-opacity="0.0" d="m343.3622 445.27002l86.031494 0l0 0.06298828l86.03146 0" fill-rule="evenodd"/><path stroke="#000000" stroke-width="2.0" stroke-linejoin="round" stroke-linecap="butt" d="m350.94223 445.27002l78.45148 0l0 0.06298828l74.031494 0" fill-rule="evenodd"/><path fill="#000000" stroke="#000000" stroke-width="2.0" stroke-linecap="butt" d="m350.9422 448.56003l-6.5799866 0l0 -6.580017l6.5799866 0l0 6.580017z" fill-rule="nonzero"/><path fill="#000000" stroke="#000000" stroke-width="2.0" stroke-linecap="butt" d="m503.4252 448.63647l9.076202 -3.3034668l-9.076202 -3.3034668z" fill-rule="evenodd"/></g></svg>