<svg version="1.1" viewBox="0.0 0.0 624.0 480.0" fill="none" stroke="none" stroke-linecap="square" stroke-miterlimit="10" xmlns:xlink="http://www.w3.org/1999/xlink" xmlns="http://www.w3.org/2000/svg"><clipPath id="p.0"><path d="m0 0l624.0 0l0 480.0l-624.0 0l0 -480.0z" clip-rule="nonzero"/></clipPath><g clip-path="url(#p.0)"><path fill="#000000" fill-opacity="0.0" d="m0 0l624.0 0l0 480.0l-624.0 0z" fill-rule="evenodd"/><path fill="#fff2cc" d="m74.56693 102.848595l302.80316 0l0 64.661415l-302.80316 0z" fill-rule="evenodd"/><path stroke="#000000" stroke-width="2.0" stroke-linejoin="round" stroke-linecap="butt" d="m74.56693 102.848595l302.80316 0l0 64.661415l-302.80316 0z" fill-rule="evenodd"/><path fill="#000000" d="m87.72318 131.0993l0 -12.406258l1.59375 0l0 12.406258l-1.59375 0zm-3.75 -11.843758l0 -1.515625l9.078125 0l0 1.515625l-9.078125 0z" fill-rule="nonzero"/><path fill="#000000" d="m85.03568 153.0993l0 -13.359375l4.03125 0q2.09375 0 3.59375 0.859375q1.515625 0.84375 2.328125 2.359375q0.828125 1.5 0.828125 3.46875q0 1.953125 -0.828125 3.453125q-0.8125 1.5 -2.328125 2.359375q-1.5 0.859375 -3.59375 0.859375l-4.03125 0zm1.59375 -1.515625l2.4375 0q1.578125 0 2.734375 -0.59375q1.15625 -0.609375 1.78125 -1.765625q0.640625 -1.15625 0.640625 -2.796875q0 -1.65625 -0.640625 -2.8125q-0.625 -1.15625 -1.78125 -1.75q-1.15625 -0.609375 -2.734375 -0.609375l-2.4375 0l0 10.328125zm15.406158 1.8125q-1.375 0 -2.453125 -0.640625q-1.078125 -0.65625 -1.6875 -1.796875q-0.59375 -1.140625 -0.59375 -2.59375q0 -1.359375 0.5625 -2.515625q0.578125 -1.15625 1.609375 -1.859375q1.03125 -0.703125 2.4375 -0.703125q1.40625 0 2.421875 0.625q1.03125 0.625 1.578125 1.734375q0.546875 1.09375 0.546875 2.515625q0 0.125 -0.015625 0.265625q0 0.125 -0.015625 0.21875l-8.203125 0l0 -1.3125l6.5625 0q-0.03125 -0.390625 -0.1875 -0.84375q-0.15625 -0.46875 -0.5 -0.859375q-0.34375 -0.40625 -0.875 -0.65625q-0.53125 -0.25 -1.3125 -0.25q-0.9375 0 -1.625 0.484375q-0.671875 0.46875 -1.046875 1.296875q-0.359375 0.8125 -0.359375 1.859375q0 1.203125 0.46875 2.015625q0.46875 0.796875 1.203125 1.1875q0.734375 0.390625 1.546875 0.390625q1.046875 0 1.71875 -0.484375q0.6875 -0.5 1.09375 -1.234375l1.34375 0.65625q-0.5625 1.078125 -1.609375 1.796875q-1.046875 0.703125 -2.609375 0.703125zm5.170944 -8.375l0 -1.4375l1.84375 0l0 1.4375l-1.84375 0zm1.75 8.078125l0 -10.546875q0 -0.875 0.375 -1.53125q0.390625 -0.671875 1.09375 -1.046875q0.703125 -0.375 1.625 -0.375q0.359375 0 0.6875 0.0625q0.34375 0.046875 0.65625 0.15625l0 1.546875q-0.375 -0.15625 -0.703125 -0.21875q-0.3125 -0.078125 -0.59375 -0.078125q-0.6875 0 -1.125 0.453125q-0.421875 0.4375 -0.421875 1.203125l0 10.375l-1.59375 0zm1.5 -8.078125l0 -1.4375l4.578125 0l0 1.4375l-4.578125 0zm4.453125 8.078125l0 -9.515625l1.59375 0l0 9.515625l-1.59375 0zm0.78125 -11.265625q-0.46875 0 -0.8125 -0.328125q-0.328125 -0.34375 -0.328125 -0.8125q0 -0.484375 0.328125 -0.8125q0.34375 -0.328125 0.8125 -0.328125q0.484375 0 0.8125 0.328125q0.328125 0.328125 0.328125 0.8125q0 0.46875 -0.328125 0.8125q-0.328125 0.328125 -0.8125 0.328125zm3.117035 11.265625l0 -9.515625l1.515625 0l0 1.40625l0.078125 0q0.359375 -0.703125 1.203125 -1.203125q0.859375 -0.5 1.875 -0.5q1.75 0 2.625 1.015625q0.890625 1.015625 0.890625 2.703125l0 6.09375l-1.578125 0l0 -5.859375q0 -1.375 -0.671875 -1.9375q-0.65625 -0.578125 -1.703125 -0.578125q-0.78125 0 -1.375 0.4375q-0.59375 0.4375 -0.9375 1.125q-0.328125 0.6875 -0.328125 1.453125l0 5.359375l-1.59375 0zm14.663216 0.296875q-1.375 0 -2.453125 -0.640625q-1.078125 -0.65625 -1.6875 -1.796875q-0.59375 -1.140625 -0.59375 -2.59375q0 -1.359375 0.5625 -2.515625q0.578125 -1.15625 1.609375 -1.859375q1.03125 -0.703125 2.4375 -0.703125q1.40625 0 2.421875 0.625q1.03125 0.625 1.578125 1.734375q0.546875 1.09375 0.546875 2.515625q0 0.125 -0.015625 0.265625q0 0.125 -0.015625 0.21875l-8.203125 0l0 -1.3125l6.5625 0q-0.03125 -0.390625 -0.1875 -0.84375q-0.15625 -0.46875 -0.5 -0.859375q-0.34375 -0.40625 -0.875 -0.65625q-0.53125 -0.25 -1.3125 -0.25q-0.9375 0 -1.625 0.484375q-0.671875 0.46875 -1.046875 1.296875q-0.359375 0.8125 -0.359375 1.859375q0 1.203125 0.46875 2.015625q0.46875 0.796875 1.203125 1.1875q0.734375 0.390625 1.546875 0.390625q1.046875 0 1.71875 -0.484375q0.6875 -0.5 1.09375 -1.234375l1.34375 0.65625q-0.5625 1.078125 -1.609375 1.796875q-1.046875 0.703125 -2.609375 0.703125zm10.278656 0q-1.28125 0 -2.328125 -0.640625q-1.03125 -0.65625 -1.625 -1.796875q-0.59375 -1.140625 -0.59375 -2.609375q0 -1.484375 0.59375 -2.609375q0.59375 -1.140625 1.625 -1.796875q1.046875 -0.65625 2.328125 -0.65625q0.765625 0 1.390625 0.25q0.640625 0.234375 1.109375 0.625q0.484375 0.390625 0.75 0.84375l0.078125 0l-0.078125 -1.328125l0 -3.9375l1.578125 0l0 13.359375l-1.5 0l0 -1.40625l-0.078125 0q-0.265625 0.4375 -0.75 0.828125q-0.46875 0.390625 -1.109375 0.625q-0.625 0.25 -1.390625 0.25zm0.171875 -1.4375q0.8125 0 1.53125 -0.4375q0.71875 -0.4375 1.171875 -1.25q0.453125 -0.8125 0.453125 -1.921875q0 -1.125 -0.453125 -1.9375q-0.453125 -0.8125 -1.171875 -1.25q-0.71875 -0.4375 -1.53125 -0.4375q-0.828125 0 -1.546875 0.4375q-0.71875 0.4375 -1.171875 1.25q-0.4375 0.8125 -0.4375 1.9375q0 1.09375 0.4375 1.921875q0.453125 0.8125 1.171875 1.25q0.71875 0.4375 1.546875 0.4375z" fill-rule="nonzero"/><path fill="#000000" fill-opacity="0.0" d="m74.56693 5.7882257l232.06299 0l0 90.48819l-232.06299 0z" fill-rule="evenodd"/><path fill="#fbbc04" d="m92.33256 23.698225l-2.671875 0l0 3.75l-4.0625 0l0 2.046875l4.0625 0l0 8.421877q0 1.4375 0.375 2.453125q0.390625 1.0 1.046875 1.640625q0.65625 0.640625 1.546875 0.9375q0.90625 0.28125 1.9375 0.28125q0.609375 0 1.234375 -0.0625q0.625 -0.046875 1.1875 -0.15625q0.5625 -0.109375 1.03125 -0.25q0.46875 -0.15625 0.796875 -0.359375l-0.375 -1.875q-0.234375 0.0625 -0.625 0.140625q-0.375 0.078125 -0.796875 0.140625q-0.453125 0.078125 -0.90625 0.125q-0.453125 0.046875 -0.890625 0.046875q-0.59375 0 -1.109375 -0.140625q-0.515625 -0.140625 -0.921875 -0.5q-0.40625 -0.34375 -0.640625 -0.921875q-0.21875 -0.59375 -0.21875 -1.5l0 -8.421877l5.90625 0l0 -2.046875l-5.90625 0l0 -3.75zm12.568497 25.515627q1.046875 0 1.84375 -0.390625q0.8125 -0.390625 1.40625 -0.96875q0.609375 -0.5625 1.03125 -1.234375q0.421875 -0.671875 0.6875 -1.28125l7.859375 -17.890627l-2.953125 0l-4.0 10.062502l-0.734375 1.8125l-0.6875 -1.875l-4.25 -10.000002l-2.96875 0l6.671875 14.765627l-1.046875 2.0625q-0.15625 0.296875 -0.40625 0.734375q-0.25 0.4375 -0.59375 0.859375q-0.359375 0.421875 -0.8125 0.71875q-0.4375 0.296875 -0.984375 0.296875q-0.203125 0 -0.5625 -0.03125q-0.34375 -0.015625 -0.703125 -0.046875l-0.421875 2.171875q0.25 0.0625 0.75 0.140625q0.5 0.09375 0.875 0.09375zm16.349747 -0.3125l2.640625 0l0 -7.4375q0.28125 0.3125 0.609375 0.578125q0.34375 0.265625 0.703125 0.484375q0.625 0.34375 1.390625 0.515625q0.765625 0.1875 1.6562424 0.1875q1.453125 0 2.59375 -0.59375q1.140625 -0.609375 1.90625 -1.65625q0.78125 -1.0625 1.171875 -2.5q0.40625 -1.453125 0.40625 -3.109375l0 -0.296875q0 -1.734375 -0.40625 -3.187502q-0.390625 -1.453125 -1.171875 -2.5q-0.765625 -1.046875 -1.921875 -1.625q-1.140625 -0.59375 -2.625 -0.59375q-0.8437424 0 -1.5781174 0.1875q-0.734375 0.171875 -1.34375 0.515625q-0.421875 0.234375 -0.796875 0.5625q-0.375 0.3125 -0.6875 0.703125l-0.140625 -1.6875l-2.40625 0l0 21.453127zm10.437492 -13.828125l0 0.296875q0 1.140625 -0.25 2.171875q-0.25 1.03125 -0.765625 1.8125q-0.515625 0.78125 -1.328125 1.25q-0.796875 0.46875 -1.9062424 0.46875q-0.6875 0 -1.25 -0.171875q-0.5625 -0.171875 -1.015625 -0.46875q-0.40625 -0.265625 -0.71875 -0.625q-0.3125 -0.375 -0.5625 -0.8125l0 -7.453127q0.28125 -0.5 0.625 -0.890625q0.359375 -0.40625 0.828125 -0.671875q0.40625 -0.28125 0.921875 -0.421875q0.53125 -0.140625 1.15625 -0.140625q1.1093674 0 1.9062424 0.46875q0.8125 0.453125 1.34375 1.21875q0.515625 0.78125 0.765625 1.8125019q0.25 1.03125 0.25 2.15625zm14.021622 8.15625q2.25 0 3.78125 -0.90625q1.546875 -0.90625 2.328125 -2.078125l-1.625 -1.265625q-0.71875 0.953125 -1.828125 1.53125q-1.109375 0.5625 -2.515625 0.5625q-1.078125 0 -1.96875 -0.390625q-0.890625 -0.40625 -1.515625 -1.109375q-0.609375 -0.65625 -0.96875 -1.515625q-0.34375 -0.859375 -0.453125 -2.0l0 -0.09375l11.078125 0l0 -1.1875q0 -1.625 -0.421875 -3.015627q-0.40625 -1.390625 -1.234375 -2.421875q-0.828125 -1.015625 -2.078125 -1.59375q-1.25 -0.578125 -2.921875 -0.578125q-1.34375 0 -2.609375 0.546875q-1.265625 0.546875 -2.25 1.5625q-1.0 1.03125 -1.609375 2.515625q-0.59375 1.4687519 -0.59375 3.359377l0 0.59375q0 1.625 0.53125 3.0q0.546875 1.375 1.53125 2.375q0.96875 1.0 2.328125 1.5625q1.375 0.546875 3.015625 0.546875zm-0.34375 -13.890627q1.015625 0 1.75 0.375q0.734375 0.375 1.21875 0.96875q0.484375 0.609375 0.75 1.4375019q0.28125 0.8125 0.28125 1.53125l0 0.125l-8.328125 0q0.15625 -1.0625 0.546875 -1.8906269q0.390625 -0.828125 0.96875 -1.390625q0.578125 -0.5625 1.28125 -0.859375q0.71875 -0.296875 1.53125 -0.296875zm42.74637 -4.984375l0 -2.25l-15.453125 0l0 2.25l6.4375 0l0 18.593752l2.578125 0l0 -18.593752l6.4375 0zm30.418243 -3.0625l0 -2.171875l-5.671875 0l0 28.296877l5.671875 0l0 -2.171875l-3.15625 0l0 -23.953127l3.15625 0zm11.630997 -2.171875l0 2.171875l3.1875 0l0 23.953127l-3.1875 0l0 2.171875l5.6875 0l0 -28.296877l-5.6875 0zm27.381012 2.984375l-2.5625153 0l-0.046875 14.109377q-0.015625 0.9375 -0.296875 1.796875q-0.265625 0.859375 -0.78125 1.515625q-0.53125 0.671875 -1.3125 1.0625q-0.765625 0.390625 -1.78125 0.390625q-1.015625 0 -1.796875 -0.390625q-0.78125 -0.40625 -1.296875 -1.0625q-0.53125 -0.65625 -0.8125 -1.515625q-0.28125 -0.859375 -0.296875 -1.796875l-0.046875 -14.109377l-2.53125 0l-0.03125 14.109377q0.015625 1.46875 0.515625 2.75q0.5 1.28125 1.390625 2.21875q0.890625 0.96875 2.140625 1.515625q1.25 0.53125 2.765625 0.53125q1.484375 0 2.734375 -0.546875q1.25 -0.546875 2.140625 -1.515625q0.90626526 -0.9375 1.4218903 -2.203125q0.515625 -1.28125 0.515625 -2.75l-0.03125 -14.109377z" fill-rule="nonzero"/><path fill="#fbbc04" d="m92.33256 58.898228l-2.671875 0l0 3.75l-4.0625 0l0 2.0468712l4.0625 0l0 8.421875q0 1.4375 0.375 2.453125q0.390625 1.0 1.046875 1.640625q0.65625 0.640625 1.546875 0.9375q0.90625 0.28125 1.9375 0.28125q0.609375 0 1.234375 -0.0625q0.625 -0.046875 1.1875 -0.15625q0.5625 -0.109375 1.03125 -0.25q0.46875 -0.15625 0.796875 -0.359375l-0.375 -1.875q-0.234375 0.0625 -0.625 0.140625q-0.375 0.078125 -0.796875 0.140625q-0.453125 0.078125 -0.90625 0.125q-0.453125 0.046875 -0.890625 0.046875q-0.59375 0 -1.109375 -0.140625q-0.515625 -0.140625 -0.921875 -0.5q-0.40625 -0.34375 -0.640625 -0.921875q-0.21875 -0.59375 -0.21875 -1.5l0 -8.421875l5.90625 0l0 -2.0468712l-5.90625 0l0 -3.75zm12.568497 25.515621q1.046875 0 1.84375 -0.390625q0.8125 -0.390625 1.40625 -0.96875q0.609375 -0.5625 1.03125 -1.234375q0.421875 -0.671875 0.6875 -1.28125l7.859375 -17.890621l-2.953125 0l-4.0 10.062496l-0.734375 1.8125l-0.6875 -1.875l-4.25 -9.999996l-2.96875 0l6.671875 14.765621l-1.046875 2.0625q-0.15625 0.296875 -0.40625 0.734375q-0.25 0.4375 -0.59375 0.859375q-0.359375 0.421875 -0.8125 0.71875q-0.4375 0.296875 -0.984375 0.296875q-0.203125 0 -0.5625 -0.03125q-0.34375 -0.015625 -0.703125 -0.046875l-0.421875 2.171875q0.25 0.0625 0.75 0.140625q0.5 0.09375 0.875 0.09375zm16.349747 -0.3125l2.640625 0l0 -7.4375q0.28125 0.3125 0.609375 0.578125q0.34375 0.265625 0.703125 0.484375q0.625 0.34375 1.390625 0.515625q0.765625 0.1875 1.6562424 0.1875q1.453125 0 2.59375 -0.59375q1.140625 -0.609375 1.90625 -1.65625q0.78125 -1.0625 1.171875 -2.5q0.40625 -1.453125 0.40625 -3.109375l0 -0.296875q0 -1.734375 -0.40625 -3.1875q-0.390625 -1.453125 -1.171875 -2.5q-0.765625 -1.0468712 -1.921875 -1.6249962q-1.140625 -0.59375 -2.625 -0.59375q-0.8437424 0 -1.5781174 0.1875q-0.734375 0.171875 -1.34375 0.515625q-0.421875 0.234375 -0.796875 0.5625q-0.375 0.3125 -0.6875 0.7031212l-0.140625 -1.6874962l-2.40625 0l0 21.453121zm10.437492 -13.828125l0 0.296875q0 1.140625 -0.25 2.171875q-0.25 1.03125 -0.765625 1.8125q-0.515625 0.78125 -1.328125 1.25q-0.796875 0.46875 -1.9062424 0.46875q-0.6875 0 -1.25 -0.171875q-0.5625 -0.171875 -1.015625 -0.46875q-0.40625 -0.265625 -0.71875 -0.625q-0.3125 -0.375 -0.5625 -0.8125l0 -7.453125q0.28125 -0.5 0.625 -0.890625q0.359375 -0.40625 0.828125 -0.671875q0.40625 -0.28125 0.921875 -0.421875q0.53125 -0.140625 1.15625 -0.140625q1.1093674 0 1.9062424 0.46875q0.8125 0.453125 1.34375 1.21875q0.515625 0.78125 0.765625 1.8125q0.25 1.03125 0.25 2.15625zm14.021622 8.15625q2.25 0 3.78125 -0.90625q1.546875 -0.90625 2.328125 -2.078125l-1.625 -1.265625q-0.71875 0.953125 -1.828125 1.53125q-1.109375 0.5625 -2.515625 0.5625q-1.078125 0 -1.96875 -0.390625q-0.890625 -0.40625 -1.515625 -1.109375q-0.609375 -0.65625 -0.96875 -1.515625q-0.34375 -0.859375 -0.453125 -2.0l0 -0.09375l11.078125 0l0 -1.1875q0 -1.625 -0.421875 -3.015625q-0.40625 -1.390625 -1.234375 -2.421875q-0.828125 -1.0156212 -2.078125 -1.5937462q-1.25 -0.578125 -2.921875 -0.578125q-1.34375 0 -2.609375 0.546875q-1.265625 0.546875 -2.25 1.5624962q-1.0 1.03125 -1.609375 2.515625q-0.59375 1.46875 -0.59375 3.359375l0 0.59375q0 1.625 0.53125 3.0q0.546875 1.375 1.53125 2.375q0.96875 1.0 2.328125 1.5625q1.375 0.546875 3.015625 0.546875zm-0.34375 -13.890625q1.015625 0 1.75 0.375q0.734375 0.375 1.21875 0.96875q0.484375 0.609375 0.75 1.4375q0.28125 0.8125 0.28125 1.53125l0 0.125l-8.328125 0q0.15625 -1.0625 0.546875 -1.890625q0.390625 -0.828125 0.96875 -1.390625q0.578125 -0.5625 1.28125 -0.859375q0.71875 -0.296875 1.53125 -0.296875zm41.77762 -7.234371l-2.5625 0l-0.046875 14.109371q-0.015625 0.9375 -0.296875 1.796875q-0.265625 0.859375 -0.78125 1.515625q-0.53125 0.671875 -1.3125 1.0625q-0.765625 0.390625 -1.78125 0.390625q-1.015625 0 -1.796875 -0.390625q-0.78125 -0.40625 -1.296875 -1.0625q-0.53125 -0.65625 -0.8125 -1.515625q-0.28125 -0.859375 -0.296875 -1.796875l-0.046875 -14.109371l-2.53125 0l-0.03125 14.109371q0.015625 1.46875 0.515625 2.75q0.5 1.28125 1.390625 2.21875q0.890625 0.96875 2.140625 1.515625q1.25 0.53125 2.765625 0.53125q1.484375 0 2.734375 -0.546875q1.25 -0.546875 2.140625 -1.515625q0.90625 -0.9375 1.421875 -2.203125q0.515625 -1.28125 0.515625 -2.75l-0.03125 -14.109371zm27.308868 7.734371l-3.734375 4.6875l2.09375 1.515625l3.03125 -5.0625l3.0625 5.1875l2.09375 -1.5625l-3.671875 -4.640625l5.46875 -1.3437462l-0.765625 -2.5625l-5.203125 2.15625l0.421875 -6.109375l-2.546875 0l0.359375 6.015625l-5.234375 -2.15625l-0.765625 2.5l5.390625 1.3749962zm26.459122 -5.484371l0 -2.25l-15.453125 0l0 2.25l6.4375 0l0 18.593746l2.578125 0l0 -18.593746l6.4375 0z" fill-rule="nonzero"/><path fill="#000000" fill-opacity="0.0" d="m271.73227 125.49426l105.63782 0l0 42.015747l-105.63782 0z" fill-rule="evenodd"/><path fill="#000000" d="m289.84784 152.41426l0 -1.421875q-1.125 1.640625 -3.0625 1.640625q-0.859375 0 -1.609375 -0.328125q-0.734375 -0.328125 -1.09375 -0.828125q-0.359375 -0.5 -0.5 -1.21875q-0.109375 -0.46875 -0.109375 -1.53125l0 -5.984375l1.640625 0l0 5.359375q0 1.28125 0.109375 1.734375q0.15625 0.640625 0.65625 1.015625q0.5 0.375 1.234375 0.375q0.734375 0 1.375 -0.375q0.65625 -0.390625 0.921875 -1.03125q0.265625 -0.65625 0.265625 -1.890625l0 -5.1875l1.640625 0l0 9.671875l-1.46875 0zm4.047577 0l0 -9.671875l1.46875 0l0 1.375q1.0625 -1.59375 3.078125 -1.59375q0.875 0 1.609375 0.3125q0.734375 0.3125 1.09375 0.828125q0.375 0.5 0.515625 1.203125q0.09375 0.453125 0.09375 1.59375l0 5.953125l-1.640625 0l0 -5.890625q0 -1.0 -0.203125 -1.484375q-0.1875 -0.5 -0.671875 -0.796875q-0.484375 -0.296875 -1.140625 -0.296875q-1.046875 0 -1.8125 0.671875q-0.75 0.65625 -0.75 2.515625l0 5.28125l-1.640625 0zm16.641357 0l0 -1.21875q-0.90625 1.4375 -2.703125 1.4375q-1.15625 0 -2.125 -0.640625q-0.96875 -0.640625 -1.5 -1.78125q-0.53125 -1.140625 -0.53125 -2.625q0 -1.453125 0.484375 -2.625q0.484375 -1.1875 1.4375 -1.8125q0.96875 -0.625 2.171875 -0.625q0.875 0 1.546875 0.375q0.6875 0.359375 1.109375 0.953125l0 -4.796875l1.640625 0l0 13.359375l-1.53125 0zm-5.171875 -4.828125q0 1.859375 0.78125 2.78125q0.78125 0.921875 1.84375 0.921875q1.078125 0 1.828125 -0.875q0.75 -0.890625 0.75 -2.6875q0 -1.984375 -0.765625 -2.90625q-0.765625 -0.9375 -1.890625 -0.9375q-1.078125 0 -1.8125 0.890625q-0.734375 0.890625 -0.734375 2.8125zm15.906952 1.71875l1.6875 0.203125q-0.40625 1.484375 -1.484375 2.3125q-1.078125 0.8125 -2.765625 0.8125q-2.125 0 -3.375 -1.296875q-1.234375 -1.3125 -1.234375 -3.671875q0 -2.453125 1.25 -3.796875q1.265625 -1.34375 3.265625 -1.34375q1.9375 0 3.15625 1.328125q1.234375 1.3125 1.234375 3.703125q0 0.15625 0 0.4375l-7.21875 0q0.09375 1.59375 0.90625 2.453125q0.8125 0.84375 2.015625 0.84375q0.90625 0 1.546875 -0.46875q0.640625 -0.484375 1.015625 -1.515625zm-5.390625 -2.65625l5.40625 0q-0.109375 -1.21875 -0.625 -1.828125q-0.78125 -0.953125 -2.03125 -0.953125q-1.125 0 -1.90625 0.765625q-0.765625 0.75 -0.84375 2.015625zm9.125732 5.765625l0 -9.671875l1.46875 0l0 1.46875q0.5625 -1.03125 1.03125 -1.359375q0.484375 -0.328125 1.0625 -0.328125q0.828125 0 1.6875 0.53125l-0.5625 1.515625q-0.609375 -0.359375 -1.203125 -0.359375q-0.546875 0 -0.96875 0.328125q-0.421875 0.328125 -0.609375 0.890625q-0.28125 0.875 -0.28125 1.921875l0 5.0625l-1.625 0zm6.181427 0l0 -13.359375l1.640625 0l0 13.359375l-1.640625 0zm4.113556 3.71875l-0.1875 -1.53125q0.546875 0.140625 0.9375 0.140625q0.546875 0 0.875 -0.1875q0.328125 -0.171875 0.546875 -0.5q0.15625 -0.25 0.5 -1.21875q0.046875 -0.140625 0.140625 -0.40625l-3.671875 -9.6875l1.765625 0l2.015625 5.59375q0.390625 1.078125 0.703125 2.25q0.28125 -1.125 0.671875 -2.203125l2.078125 -5.640625l1.640625 0l-3.6875 9.828125q-0.59375 1.609375 -0.921875 2.203125q-0.4375 0.8125 -1.0 1.1875q-0.5625 0.375 -1.34375 0.375q-0.484375 0 -1.0625 -0.203125zm9.40625 -15.1875l0 -1.890625l1.640625 0l0 1.890625l-1.640625 0zm0 11.46875l0 -9.671875l1.640625 0l0 9.671875l-1.640625 0zm4.1448364 0l0 -9.671875l1.46875 0l0 1.375q1.0625 -1.59375 3.078125 -1.59375q0.875 0 1.609375 0.3125q0.734375 0.3125 1.09375 0.828125q0.375 0.5 0.515625 1.203125q0.09375 0.453125 0.09375 1.59375l0 5.953125l-1.640625 0l0 -5.890625q0 -1.0 -0.203125 -1.484375q-0.1875 -0.5 -0.671875 -0.796875q-0.484375 -0.296875 -1.140625 -0.296875q-1.046875 0 -1.8125 0.671875q-0.75 0.65625 -0.75 2.515625l0 5.28125l-1.640625 0zm10.063202 0.796875l1.59375 0.234375q0.109375 0.75 0.5625 1.078125q0.609375 0.453125 1.671875 0.453125q1.140625 0 1.75 -0.453125q0.625 -0.453125 0.84375 -1.265625q0.125 -0.5 0.109375 -2.109375q-1.0625 1.265625 -2.671875 1.265625q-2.0 0 -3.09375 -1.4375q-1.09375 -1.4375 -1.09375 -3.453125q0 -1.390625 0.5 -2.5625q0.515625 -1.171875 1.453125 -1.796875q0.953125 -0.640625 2.25 -0.640625q1.703125 0 2.8125 1.375l0 -1.15625l1.515625 0l0 8.359375q0 2.265625 -0.46875 3.203125q-0.453125 0.9375 -1.453125 1.484375q-0.984375 0.546875 -2.453125 0.546875q-1.71875 0 -2.796875 -0.78125q-1.0625 -0.765625 -1.03125 -2.34375zm1.359375 -5.8125q0 1.90625 0.75 2.78125q0.765625 0.875 1.90625 0.875q1.125 0 1.890625 -0.859375q0.765625 -0.875 0.765625 -2.734375q0 -1.78125 -0.796875 -2.671875q-0.78125 -0.90625 -1.890625 -0.90625q-1.09375 0 -1.859375 0.890625q-0.765625 0.875 -0.765625 2.625z" fill-rule="nonzero"/><path fill="#fff2cc" d="m74.56693 201.90897l302.80316 0l0 64.66141l-302.80316 0z" fill-rule="evenodd"/><path stroke="#000000" stroke-width="2.0" stroke-linejoin="round" stroke-linecap="butt" d="m74.56693 201.90897l302.80316 0l0 64.66141l-302.80316 0z" fill-rule="evenodd"/><path fill="#000000" d="m85.03568 232.47217l0 -17.09375l3.75 0l0 1.3125l-2.3125 0l0 14.46875l2.3125 0l0 1.3125l-3.75 0zm5.0984955 0l0 -1.3125l2.3125 0l0 -14.46875l-2.3125 0l0 -1.3125l3.75 0l0 17.09375l-3.75 0zm11.4422455 -2.015625q-1.46875 0 -2.5625 -0.65625q-1.09375 -0.671875 -1.71875 -1.84375q-0.625 -1.1875 -0.625 -2.734375l0 -8.421875l1.578125 0l0 8.484375q0 1.046875 0.375 1.875q0.375 0.828125 1.109375 1.3125q0.734375 0.46875 1.84375 0.46875q1.09375 0 1.84375 -0.46875q0.75 -0.484375 1.109375 -1.3125q0.375 -0.828125 0.375 -1.875l0 -8.484375l1.59375 0l0 8.421875q0 1.546875 -0.59375 2.734375q-0.578125 1.171875 -1.6875 1.84375q-1.09375 0.65625 -2.640625 0.65625z" fill-rule="nonzero"/><path fill="#000000" d="m88.77006 252.45654q-0.96875 0 -1.921875 -0.40625q-0.953125 -0.40625 -1.6875 -1.203125q-0.71875 -0.8125 -1.046875 -2.015625l1.5 -0.609375q0.328125 1.15625 1.15625 1.9375q0.84375 0.78125 2.046875 0.78125q0.734375 0 1.359375 -0.265625q0.625 -0.265625 1.0 -0.78125q0.390625 -0.53125 0.390625 -1.28125q0 -0.671875 -0.328125 -1.140625q-0.328125 -0.46875 -0.984375 -0.828125q-0.640625 -0.359375 -1.59375 -0.703125l-0.84375 -0.296875q-0.5625 -0.203125 -1.125 -0.484375q-0.5625 -0.296875 -1.046875 -0.71875q-0.46875 -0.421875 -0.75 -1.0q-0.28125 -0.59375 -0.28125 -1.390625q0 -0.96875 0.515625 -1.765625q0.53125 -0.8125 1.4375 -1.296875q0.921875 -0.484375 2.109375 -0.484375q1.25 0 2.09375 0.453125q0.859375 0.453125 1.34375 1.078125q0.5 0.625 0.671875 1.15625l-1.46875 0.640625q-0.125 -0.40625 -0.4375 -0.8125q-0.3125 -0.421875 -0.84375 -0.703125q-0.53125 -0.296875 -1.34375 -0.296875q-0.640625 0 -1.21875 0.265625q-0.5625 0.25 -0.90625 0.71875q-0.34375 0.453125 -0.34375 1.046875q0 0.84375 0.671875 1.328125q0.671875 0.484375 1.796875 0.875l0.875 0.296875q0.609375 0.203125 1.234375 0.5q0.625 0.296875 1.15625 0.765625q0.546875 0.46875 0.875 1.15625q0.34375 0.671875 0.34375 1.625q0 1.03125 -0.40625 1.765625q-0.390625 0.734375 -1.046875 1.203125q-0.65625 0.46875 -1.4375 0.671875q-0.765625 0.21875 -1.515625 0.21875zm6.3073425 -0.296875l0 -13.359375l1.59375 0l0 13.359375l-1.59375 0zm3.8991547 0l0 -9.515625l1.59375 0l0 9.515625l-1.59375 0zm0.78125 -11.265625q-0.46875 0 -0.8125 -0.328125q-0.328125 -0.34375 -0.328125 -0.8125q0 -0.484375 0.328125 -0.8125q0.34375 -0.328125 0.8125 -0.328125q0.484375 0 0.8125 0.328125q0.328125 0.328125 0.328125 0.8125q0 0.46875 -0.328125 0.8125q-0.328125 0.328125 -0.8125 0.328125zm7.4304047 11.5625q-1.40625 0 -2.5 -0.65625q-1.078125 -0.671875 -1.703125 -1.8125q-0.609375 -1.15625 -0.609375 -2.578125q0 -1.46875 0.609375 -2.59375q0.625 -1.140625 1.703125 -1.796875q1.09375 -0.671875 2.5 -0.671875q1.609375 0 2.640625 0.734375q1.03125 0.734375 1.46875 1.890625l-1.4375 0.609375q-0.359375 -0.890625 -1.0625 -1.34375q-0.703125 -0.453125 -1.6875 -0.453125q-0.84375 0 -1.5625 0.453125q-0.71875 0.4375 -1.171875 1.25q-0.4375 0.8125 -0.4375 1.921875q0 1.078125 0.4375 1.90625q0.453125 0.8125 1.171875 1.265625q0.71875 0.4375 1.5625 0.4375q1.015625 0 1.734375 -0.46875q0.734375 -0.46875 1.078125 -1.3125l1.421875 0.59375q-0.46875 1.09375 -1.515625 1.859375q-1.03125 0.765625 -2.640625 0.765625zm9.809586 0q-1.375 0 -2.453125 -0.640625q-1.078125 -0.65625 -1.6875 -1.796875q-0.59375 -1.140625 -0.59375 -2.59375q0 -1.359375 0.5625 -2.515625q0.578125 -1.15625 1.609375 -1.859375q1.03125 -0.703125 2.4375 -0.703125q1.40625 0 2.421875 0.625q1.03125 0.625 1.578125 1.734375q0.546875 1.09375 0.546875 2.515625q0 0.125 -0.015625 0.265625q0 0.125 -0.015625 0.21875l-8.203125 0l0 -1.3125l6.5625 0q-0.03125 -0.390625 -0.1875 -0.84375q-0.15625 -0.46875 -0.5 -0.859375q-0.34375 -0.40625 -0.875 -0.65625q-0.53125 -0.25 -1.3125 -0.25q-0.9375 0 -1.625 0.484375q-0.671875 0.46875 -1.046875 1.296875q-0.359375 0.8125 -0.359375 1.859375q0 1.203125 0.46875 2.015625q0.46875 0.796875 1.203125 1.1875q0.734375 0.390625 1.546875 0.390625q1.046875 0 1.71875 -0.484375q0.6875 -0.5 1.09375 -1.234375l1.34375 0.65625q-0.5625 1.078125 -1.609375 1.796875q-1.046875 0.703125 -2.609375 0.703125z" fill-rule="nonzero"/><path fill="#000000" fill-opacity="0.0" d="m271.73227 224.41159l105.63782 0l0 42.015747l-105.63782 0z" fill-rule="evenodd"/><path fill="#000000" d="m309.85767 248.22221l1.6875 0.203125q-0.40625 1.484375 -1.484375 2.3125q-1.078125 0.8125 -2.765625 0.8125q-2.125 0 -3.375 -1.296875q-1.234375 -1.3125 -1.234375 -3.671875q0 -2.453125 1.25 -3.796875q1.265625 -1.34375 3.265625 -1.34375q1.9375 0 3.15625 1.328125q1.234375 1.3125 1.234375 3.703125q0 0.15625 0 0.4375l-7.21875 0q0.09375 1.59375 0.90625 2.453125q0.8125 0.84375 2.015625 0.84375q0.90625 0 1.546875 -0.46875q0.640625 -0.484375 1.015625 -1.515625zm-5.390625 -2.65625l5.40625 0q-0.109375 -1.21875 -0.625 -1.828125q-0.78125 -0.953125 -2.03125 -0.953125q-1.125 0 -1.90625 0.765625q-0.765625 0.75 -0.84375 2.015625zm9.094452 5.765625l0 -13.359375l1.640625 0l0 13.359375l-1.640625 0zm10.816711 -3.109375l1.6875 0.203125q-0.40625 1.484375 -1.484375 2.3125q-1.078125 0.8125 -2.765625 0.8125q-2.125 0 -3.375 -1.296875q-1.234375 -1.3125 -1.234375 -3.671875q0 -2.453125 1.25 -3.796875q1.265625 -1.34375 3.265625 -1.34375q1.9375 0 3.15625 1.328125q1.234375 1.3125 1.234375 3.703125q0 0.15625 0 0.4375l-7.21875 0q0.09375 1.59375 0.90625 2.453125q0.8125 0.84375 2.015625 0.84375q0.90625 0 1.546875 -0.46875q0.640625 -0.484375 1.015625 -1.515625zm-5.390625 -2.65625l5.40625 0q-0.109375 -1.21875 -0.625 -1.828125q-0.78125 -0.953125 -2.03125 -0.953125q-1.125 0 -1.90625 0.765625q-0.765625 0.75 -0.84375 2.015625zm9.141327 5.765625l0 -9.671875l1.46875 0l0 1.359375q0.453125 -0.71875 1.203125 -1.140625q0.765625 -0.4375 1.71875 -0.4375q1.078125 0 1.765625 0.453125q0.6875 0.4375 0.96875 1.234375q1.15625 -1.6875 2.984375 -1.6875q1.453125 0 2.21875 0.796875q0.78125 0.796875 0.78125 2.453125l0 6.640625l-1.640625 0l0 -6.09375q0 -0.984375 -0.15625 -1.40625q-0.15625 -0.4375 -0.578125 -0.703125q-0.421875 -0.265625 -0.984375 -0.265625q-1.015625 0 -1.6875 0.6875q-0.671875 0.671875 -0.671875 2.15625l0 5.625l-1.640625 0l0 -6.28125q0 -1.09375 -0.40625 -1.640625q-0.40625 -0.546875 -1.3125 -0.546875q-0.6875 0 -1.28125 0.359375q-0.59375 0.359375 -0.859375 1.0625q-0.25 0.703125 -0.25 2.03125l0 5.015625l-1.640625 0zm22.165802 -3.109375l1.6875 0.203125q-0.40625 1.484375 -1.484375 2.3125q-1.078125 0.8125 -2.765625 0.8125q-2.125 0 -3.375 -1.296875q-1.234375 -1.3125 -1.234375 -3.671875q0 -2.453125 1.25 -3.796875q1.265625 -1.34375 3.265625 -1.34375q1.9375 0 3.15625 1.328125q1.234375 1.3125 1.234375 3.703125q0 0.15625 0 0.4375l-7.21875 0q0.09375 1.59375 0.90625 2.453125q0.8125 0.84375 2.015625 0.84375q0.90625 0 1.546875 -0.46875q0.640625 -0.484375 1.015625 -1.515625zm-5.390625 -2.65625l5.40625 0q-0.109375 -1.21875 -0.625 -1.828125q-0.78125 -0.953125 -2.03125 -0.953125q-1.125 0 -1.90625 0.765625q-0.765625 0.75 -0.84375 2.015625zm9.141357 5.765625l0 -9.671875l1.46875 0l0 1.375q1.0625 -1.59375 3.078125 -1.59375q0.875 0 1.609375 0.3125q0.734375 0.3125 1.09375 0.828125q0.375 0.5 0.515625 1.203125q0.09375 0.453125 0.09375 1.59375l0 5.953125l-1.640625 0l0 -5.890625q0 -1.0 -0.203125 -1.484375q-0.1875 -0.5 -0.671875 -0.796875q-0.484375 -0.296875 -1.140625 -0.296875q-1.046875 0 -1.8125 0.671875q-0.75 0.65625 -0.75 2.515625l0 5.28125l-1.640625 0zm13.953827 -1.46875l0.234375 1.453125q-0.6875 0.140625 -1.234375 0.140625q-0.890625 0 -1.390625 -0.28125q-0.484375 -0.28125 -0.6875 -0.734375q-0.203125 -0.46875 -0.203125 -1.9375l0 -5.578125l-1.203125 0l0 -1.265625l1.203125 0l0 -2.390625l1.625 -0.984375l0 3.375l1.65625 0l0 1.265625l-1.65625 0l0 5.671875q0 0.6875 0.078125 0.890625q0.09375 0.203125 0.28125 0.328125q0.203125 0.109375 0.578125 0.109375q0.265625 0 0.71875 -0.0625z" fill-rule="nonzero"/><path fill="#fff2cc" d="m74.56693 400.0297l302.80316 0l0 64.66141l-302.80316 0z" fill-rule="evenodd"/><path stroke="#000000" stroke-width="2.0" stroke-linejoin="round" stroke-linecap="butt" d="m74.56693 400.0297l302.80316 0l0 64.66141l-302.80316 0z" fill-rule="evenodd"/><path fill="#000000" d="m86.06693 421.26477l-1.078125 -0.78125l1.40625 -1.921875l-0.03125 -0.15625l-2.09375 -0.703125l0.4375 -1.25l2.046875 0.734375l0.109375 -0.046875l0 -2.21875l1.328125 0l0 2.21875l0.09375 0.046875l2.078125 -0.734375l0.421875 1.25l-2.09375 0.703125l-0.046875 0.15625l1.4375 1.921875l-1.09375 0.78125l-1.390625 -1.921875l-0.125 0l-1.40625 1.921875zm9.585159 7.015625l0 -12.40625l1.59375 0l0 12.40625l-1.59375 0zm-3.75 -11.84375l0 -1.515625l9.078125 0l0 1.515625l-9.078125 0z" fill-rule="nonzero"/><path fill="#000000" d="m85.03568 450.2804l0 -13.359375l4.5 0q1.125 0 2.078125 0.515625q0.953125 0.5 1.515625 1.390625q0.5625 0.875 0.5625 2.046875q0 1.15625 -0.5625 2.0625q-0.5625 0.890625 -1.515625 1.390625q-0.953125 0.5 -2.078125 0.5l-3.65625 0l0 -1.5l3.6875 0q0.796875 0 1.34375 -0.359375q0.5625 -0.375 0.875 -0.9375q0.3125 -0.5625 0.3125 -1.15625q0 -0.59375 -0.3125 -1.15625q-0.3125 -0.5625 -0.875 -0.921875q-0.546875 -0.359375 -1.34375 -0.359375l-2.9375 0l0 11.84375l-1.59375 0zm14.32016 0.296875q-1.4375 0 -2.546875 -0.671875q-1.09375 -0.671875 -1.71875 -1.8125q-0.625 -1.15625 -0.625 -2.5625q0 -1.421875 0.625 -2.5625q0.625 -1.15625 1.71875 -1.828125q1.109375 -0.671875 2.546875 -0.671875q1.4375 0 2.53125 0.6875q1.09375 0.671875 1.71875 1.828125q0.625 1.140625 0.625 2.546875q0 1.40625 -0.625 2.5625q-0.625 1.140625 -1.71875 1.8125q-1.09375 0.671875 -2.53125 0.671875zm0 -1.4375q0.859375 0 1.609375 -0.421875q0.75 -0.4375 1.21875 -1.25q0.46875 -0.8125 0.46875 -1.9375q0 -1.140625 -0.46875 -1.953125q-0.46875 -0.8125 -1.21875 -1.234375q-0.75 -0.4375 -1.609375 -0.4375q-0.859375 0 -1.625 0.4375q-0.765625 0.421875 -1.234375 1.234375q-0.46875 0.8125 -0.46875 1.953125q0 1.125 0.46875 1.9375q0.46875 0.8125 1.234375 1.25q0.765625 0.421875 1.625 0.421875zm6.6911926 1.140625l0 -9.515625l1.59375 0l0 9.515625l-1.59375 0zm0.78125 -11.265625q-0.46875 0 -0.8125 -0.328125q-0.328125 -0.34375 -0.328125 -0.8125q0 -0.484375 0.328125 -0.8125q0.34375 -0.328125 0.8125 -0.328125q0.484375 0 0.8125 0.328125q0.328125 0.328125 0.328125 0.8125q0 0.46875 -0.328125 0.8125q-0.328125 0.328125 -0.8125 0.328125zm3.1179047 11.265625l0 -9.515625l1.515625 0l0 1.40625l0.078125 0q0.359375 -0.703125 1.203125 -1.203125q0.859375 -0.5 1.875 -0.5q1.75 0 2.625 1.015625q0.890625 1.015625 0.890625 2.703125l0 6.09375l-1.578125 0l0 -5.859375q0 -1.375 -0.671875 -1.9375q-0.65625 -0.578125 -1.703125 -0.578125q-0.78125 0 -1.375 0.4375q-0.59375 0.4375 -0.9375 1.125q-0.328125 0.6875 -0.328125 1.453125l0 5.359375l-1.59375 0zm9.4613495 -8.078125l0 -1.4375l1.765625 0l0 1.4375l-1.765625 0zm4.328125 8.234375q-1.203125 0 -1.9375 -0.71875q-0.71875 -0.71875 -0.71875 -1.9375l0 -9.703125l1.59375 0l0 9.3125q0 0.796875 0.3125 1.1875q0.328125 0.375 0.984375 0.375q0.296875 0 0.5625 -0.078125q0.265625 -0.09375 0.5 -0.234375l0 1.546875q-0.296875 0.109375 -0.609375 0.171875q-0.3125 0.078125 -0.6875 0.078125zm-1.15625 -8.234375l0 -1.4375l2.421875 0l0 1.4375l-2.421875 0zm8.074211 8.375q-1.375 0 -2.453125 -0.640625q-1.0781174 -0.65625 -1.6874924 -1.796875q-0.59375 -1.140625 -0.59375 -2.59375q0 -1.359375 0.5625 -2.515625q0.578125 -1.15625 1.6093674 -1.859375q1.03125 -0.703125 2.4375 -0.703125q1.40625 0 2.421875 0.625q1.03125 0.625 1.578125 1.734375q0.546875 1.09375 0.546875 2.515625q0 0.125 -0.015625 0.265625q0 0.125 -0.015625 0.21875l-8.203117 0l0 -1.3125l6.5624924 0q-0.03125 -0.390625 -0.1875 -0.84375q-0.15625 -0.46875 -0.5 -0.859375q-0.34375 -0.40625 -0.875 -0.65625q-0.53125 -0.25 -1.3125 -0.25q-0.9375 0 -1.625 0.484375q-0.671875 0.46875 -1.0468674 1.296875q-0.359375 0.8125 -0.359375 1.859375q0 1.203125 0.46875 2.015625q0.46874237 0.796875 1.2031174 1.1875q0.734375 0.390625 1.546875 0.390625q1.046875 0 1.71875 -0.484375q0.6875 -0.5 1.09375 -1.234375l1.34375 0.65625q-0.5625 1.078125 -1.609375 1.796875q-1.046875 0.703125 -2.609375 0.703125zm6.231781 -0.296875l0 -9.515625l1.515625 0l0 1.53125l0.078125 0q0.171875 -0.546875 0.609375 -0.9375q0.453125 -0.40625 1.015625 -0.640625q0.5625 -0.234375 1.125 -0.234375q0.4375 0 0.671875 0.046875q0.25 0.046875 0.453125 0.140625l0 1.71875q-0.296875 -0.15625 -0.640625 -0.21875q-0.34375 -0.078125 -0.703125 -0.078125q-0.6875 0 -1.265625 0.390625q-0.578125 0.390625 -0.921875 1.046875q-0.34375 0.65625 -0.34375 1.4375l0 5.3125l-1.59375 0z" fill-rule="nonzero"/><path fill="#000000" fill-opacity="0.0" d="m271.73227 422.10318l105.63782 0l0 42.015747l-105.63782 0z" fill-rule="evenodd"/><path fill="#000000" d="m330.64917 449.0232l-1.515625 0l0 -13.359375l1.640625 0l0 4.765625q1.046875 -1.296875 2.65625 -1.296875q0.890625 0 1.6875 0.359375q0.796875 0.359375 1.3125 1.015625q0.515625 0.640625 0.796875 1.5625q0.296875 0.921875 0.296875 1.96875q0 2.484375 -1.234375 3.84375q-1.21875 1.359375 -2.953125 1.359375q-1.703125 0 -2.6875 -1.4375l0 1.21875zm-0.015625 -4.90625q0 1.734375 0.484375 2.515625q0.765625 1.265625 2.09375 1.265625q1.078125 0 1.859375 -0.9375q0.78125 -0.9375 0.78125 -2.78125q0 -1.890625 -0.75 -2.796875q-0.75 -0.90625 -1.828125 -0.90625q-1.0625 0 -1.859375 0.9375q-0.78125 0.9375 -0.78125 2.703125zm15.203857 3.71875q-0.921875 0.765625 -1.765625 1.09375q-0.828125 0.3125 -1.796875 0.3125q-1.59375 0 -2.453125 -0.78125q-0.859375 -0.78125 -0.859375 -1.984375q0 -0.71875 0.328125 -1.296875q0.328125 -0.59375 0.84375 -0.9375q0.53125 -0.359375 1.1875 -0.546875q0.46875 -0.125 1.453125 -0.25q1.984375 -0.234375 2.921875 -0.5625q0.015625 -0.34375 0.015625 -0.421875q0 -1.0 -0.46875 -1.421875q-0.625 -0.546875 -1.875 -0.546875q-1.15625 0 -1.703125 0.40625q-0.546875 0.40625 -0.8125 1.421875l-1.609375 -0.21875q0.21875 -1.015625 0.71875 -1.640625q0.5 -0.640625 1.453125 -0.984375q0.953125 -0.34375 2.1875 -0.34375q1.25 0 2.015625 0.296875q0.78125 0.28125 1.140625 0.734375q0.375 0.4375 0.515625 1.109375q0.078125 0.421875 0.078125 1.515625l0 2.1875q0 2.28125 0.109375 2.890625q0.109375 0.59375 0.40625 1.15625l-1.703125 0q-0.265625 -0.515625 -0.328125 -1.1875zm-0.140625 -3.671875q-0.890625 0.375 -2.671875 0.625q-1.015625 0.140625 -1.4375 0.328125q-0.421875 0.1875 -0.65625 0.53125q-0.21875 0.34375 -0.21875 0.78125q0 0.65625 0.5 1.09375q0.5 0.4375 1.453125 0.4375q0.9375 0 1.671875 -0.40625q0.75 -0.421875 1.09375 -1.140625q0.265625 -0.5625 0.265625 -1.640625l0 -0.609375zm3.547577 1.96875l1.625 -0.25q0.125 0.96875 0.75 1.5q0.625 0.515625 1.75 0.515625q1.125 0 1.671875 -0.453125q0.546875 -0.46875 0.546875 -1.09375q0 -0.546875 -0.484375 -0.875q-0.328125 -0.21875 -1.671875 -0.546875q-1.8125 -0.46875 -2.515625 -0.796875q-0.6875 -0.328125 -1.046875 -0.90625q-0.359375 -0.59375 -0.359375 -1.3125q0 -0.640625 0.296875 -1.1875q0.296875 -0.5625 0.8125 -0.921875q0.375 -0.28125 1.03125 -0.46875q0.671875 -0.203125 1.421875 -0.203125q1.140625 0 2.0 0.328125q0.859375 0.328125 1.265625 0.890625q0.421875 0.5625 0.578125 1.5l-1.609375 0.21875q-0.109375 -0.75 -0.640625 -1.171875q-0.515625 -0.421875 -1.46875 -0.421875q-1.140625 0 -1.625 0.375q-0.46875 0.375 -0.46875 0.875q0 0.3125 0.1875 0.578125q0.203125 0.265625 0.640625 0.4375q0.234375 0.09375 1.4375 0.421875q1.75 0.453125 2.4375 0.75q0.6875 0.296875 1.078125 0.859375q0.390625 0.5625 0.390625 1.40625q0 0.828125 -0.484375 1.546875q-0.46875 0.71875 -1.375 1.125q-0.90625 0.390625 -2.046875 0.390625q-1.875 0 -2.875 -0.78125q-0.984375 -0.78125 -1.25 -2.328125zm16.609375 -0.21875l1.6875 0.203125q-0.40625 1.484375 -1.484375 2.3125q-1.078125 0.8125 -2.765625 0.8125q-2.125 0 -3.375 -1.296875q-1.234375 -1.3125 -1.234375 -3.671875q0 -2.453125 1.25 -3.796875q1.265625 -1.34375 3.265625 -1.34375q1.9375 0 3.15625 1.328125q1.234375 1.3125 1.234375 3.703125q0 0.15625 0 0.4375l-7.21875 0q0.09375 1.59375 0.90625 2.453125q0.8125 0.84375 2.015625 0.84375q0.90625 0 1.546875 -0.46875q0.640625 -0.484375 1.015625 -1.515625zm-5.390625 -2.65625l5.40625 0q-0.109375 -1.21875 -0.625 -1.828125q-0.78125 -0.953125 -2.03125 -0.953125q-1.125 0 -1.90625 0.765625q-0.765625 0.75 -0.84375 2.015625z" fill-rule="nonzero"/><path fill="#fff2cc" d="m74.56693 300.96933l302.80316 0l0 64.66141l-302.80316 0z" fill-rule="evenodd"/><path stroke="#000000" stroke-width="2.0" stroke-linejoin="round" stroke-linecap="butt" d="m74.56693 300.96933l302.80316 0l0 64.66141l-302.80316 0z" fill-rule="evenodd"/><path fill="#000000" d="m89.78568 329.5169q-1.46875 0 -2.5625 -0.65625q-1.09375 -0.671875 -1.71875 -1.84375q-0.625 -1.1875 -0.625 -2.734375l0 -8.421875l1.578125 0l0 8.484375q0 1.046875 0.375 1.875q0.375 0.828125 1.109375 1.3125q0.734375 0.46875 1.84375 0.46875q1.09375 0 1.84375 -0.46875q0.75 -0.484375 1.109375 -1.3125q0.375 -0.828125 0.375 -1.875l0 -8.484375l1.59375 0l0 8.421875q0 1.546875 -0.59375 2.734375q-0.578125 1.171875 -1.6875 1.84375q-1.09375 0.65625 -2.640625 0.65625z" fill-rule="nonzero"/><path fill="#000000" d="m85.03568 351.22003l0 -13.359375l4.03125 0q2.09375 0 3.59375 0.859375q1.515625 0.84375 2.328125 2.359375q0.828125 1.5 0.828125 3.46875q0 1.953125 -0.828125 3.453125q-0.8125 1.5 -2.328125 2.359375q-1.5 0.859375 -3.59375 0.859375l-4.03125 0zm1.59375 -1.515625l2.4375 0q1.578125 0 2.734375 -0.59375q1.15625 -0.609375 1.78125 -1.765625q0.640625 -1.15625 0.640625 -2.796875q0 -1.65625 -0.640625 -2.8125q-0.625 -1.15625 -1.78125 -1.75q-1.15625 -0.609375 -2.734375 -0.609375l-2.4375 0l0 10.328125zm15.406158 1.8125q-1.375 0 -2.453125 -0.640625q-1.078125 -0.65625 -1.6875 -1.796875q-0.59375 -1.140625 -0.59375 -2.59375q0 -1.359375 0.5625 -2.515625q0.578125 -1.15625 1.609375 -1.859375q1.03125 -0.703125 2.4375 -0.703125q1.40625 0 2.421875 0.625q1.03125 0.625 1.578125 1.734375q0.546875 1.09375 0.546875 2.515625q0 0.125 -0.015625 0.265625q0 0.125 -0.015625 0.21875l-8.203125 0l0 -1.3125l6.5625 0q-0.03125 -0.390625 -0.1875 -0.84375q-0.15625 -0.46875 -0.5 -0.859375q-0.34375 -0.40625 -0.875 -0.65625q-0.53125 -0.25 -1.3125 -0.25q-0.9375 0 -1.625 0.484375q-0.671875 0.46875 -1.046875 1.296875q-0.359375 0.8125 -0.359375 1.859375q0 1.203125 0.46875 2.015625q0.46875 0.796875 1.203125 1.1875q0.734375 0.390625 1.546875 0.390625q1.046875 0 1.71875 -0.484375q0.6875 -0.5 1.09375 -1.234375l1.34375 0.65625q-0.5625 1.078125 -1.609375 1.796875q-1.046875 0.703125 -2.609375 0.703125zm5.170944 -8.375l0 -1.4375l1.84375 0l0 1.4375l-1.84375 0zm1.75 8.078125l0 -10.546875q0 -0.875 0.375 -1.53125q0.390625 -0.671875 1.09375 -1.046875q0.703125 -0.375 1.625 -0.375q0.359375 0 0.6875 0.0625q0.34375 0.046875 0.65625 0.15625l0 1.546875q-0.375 -0.15625 -0.703125 -0.21875q-0.3125 -0.078125 -0.59375 -0.078125q-0.6875 0 -1.125 0.453125q-0.421875 0.4375 -0.421875 1.203125l0 10.375l-1.59375 0zm1.5 -8.078125l0 -1.4375l4.578125 0l0 1.4375l-4.578125 0zm4.453125 8.078125l0 -9.515625l1.59375 0l0 9.515625l-1.59375 0zm0.78125 -11.265625q-0.46875 0 -0.8125 -0.328125q-0.328125 -0.34375 -0.328125 -0.8125q0 -0.484375 0.328125 -0.8125q0.34375 -0.328125 0.8125 -0.328125q0.484375 0 0.8125 0.328125q0.328125 0.328125 0.328125 0.8125q0 0.46875 -0.328125 0.8125q-0.328125 0.328125 -0.8125 0.328125zm3.117035 11.265625l0 -9.515625l1.515625 0l0 1.40625l0.078125 0q0.359375 -0.703125 1.203125 -1.203125q0.859375 -0.5 1.875 -0.5q1.75 0 2.625 1.015625q0.890625 1.015625 0.890625 2.703125l0 6.09375l-1.578125 0l0 -5.859375q0 -1.375 -0.671875 -1.9375q-0.65625 -0.578125 -1.703125 -0.578125q-0.78125 0 -1.375 0.4375q-0.59375 0.4375 -0.9375 1.125q-0.328125 0.6875 -0.328125 1.453125l0 5.359375l-1.59375 0zm14.663216 0.296875q-1.375 0 -2.453125 -0.640625q-1.078125 -0.65625 -1.6875 -1.796875q-0.59375 -1.140625 -0.59375 -2.59375q0 -1.359375 0.5625 -2.515625q0.578125 -1.15625 1.609375 -1.859375q1.03125 -0.703125 2.4375 -0.703125q1.40625 0 2.421875 0.625q1.03125 0.625 1.578125 1.734375q0.546875 1.09375 0.546875 2.515625q0 0.125 -0.015625 0.265625q0 0.125 -0.015625 0.21875l-8.203125 0l0 -1.3125l6.5625 0q-0.03125 -0.390625 -0.1875 -0.84375q-0.15625 -0.46875 -0.5 -0.859375q-0.34375 -0.40625 -0.875 -0.65625q-0.53125 -0.25 -1.3125 -0.25q-0.9375 0 -1.625 0.484375q-0.671875 0.46875 -1.046875 1.296875q-0.359375 0.8125 -0.359375 1.859375q0 1.203125 0.46875 2.015625q0.46875 0.796875 1.203125 1.1875q0.734375 0.390625 1.546875 0.390625q1.046875 0 1.71875 -0.484375q0.6875 -0.5 1.09375 -1.234375l1.34375 0.65625q-0.5625 1.078125 -1.609375 1.796875q-1.046875 0.703125 -2.609375 0.703125zm10.278656 0q-1.28125 0 -2.328125 -0.640625q-1.03125 -0.65625 -1.625 -1.796875q-0.59375 -1.140625 -0.59375 -2.609375q0 -1.484375 0.59375 -2.609375q0.59375 -1.140625 1.625 -1.796875q1.046875 -0.65625 2.328125 -0.65625q0.765625 0 1.390625 0.25q0.640625 0.234375 1.109375 0.625q0.484375 0.390625 0.75 0.84375l0.078125 0l-0.078125 -1.328125l0 -3.9375l1.578125 0l0 13.359375l-1.5 0l0 -1.40625l-0.078125 0q-0.265625 0.4375 -0.75 0.828125q-0.46875 0.390625 -1.109375 0.625q-0.625 0.25 -1.390625 0.25zm0.171875 -1.4375q0.8125 0 1.53125 -0.4375q0.71875 -0.4375 1.171875 -1.25q0.453125 -0.8125 0.453125 -1.921875q0 -1.125 -0.453125 -1.9375q-0.453125 -0.8125 -1.171875 -1.25q-0.71875 -0.4375 -1.53125 -0.4375q-0.828125 0 -1.546875 0.4375q-0.71875 0.4375 -1.171875 1.25q-0.4375 0.8125 -0.4375 1.9375q0 1.09375 0.4375 1.921875q0.453125 0.8125 1.171875 1.25q0.71875 0.4375 1.546875 0.4375z" fill-rule="nonzero"/><path fill="#000000" fill-opacity="0.0" d="m271.73227 323.615l105.63782 0l0 42.015747l-105.63782 0z" fill-rule="evenodd"/><path fill="#000000" d="m289.84784 350.535l0 -1.421875q-1.125 1.640625 -3.0625 1.640625q-0.859375 0 -1.609375 -0.328125q-0.734375 -0.328125 -1.09375 -0.828125q-0.359375 -0.5 -0.5 -1.21875q-0.109375 -0.46875 -0.109375 -1.53125l0 -5.984375l1.640625 0l0 5.359375q0 1.28125 0.109375 1.734375q0.15625 0.640625 0.65625 1.015625q0.5 0.375 1.234375 0.375q0.734375 0 1.375 -0.375q0.65625 -0.390625 0.921875 -1.03125q0.265625 -0.65625 0.265625 -1.890625l0 -5.1875l1.640625 0l0 9.671875l-1.46875 0zm4.047577 0l0 -9.671875l1.46875 0l0 1.375q1.0625 -1.59375 3.078125 -1.59375q0.875 0 1.609375 0.3125q0.734375 0.3125 1.09375 0.828125q0.375 0.5 0.515625 1.203125q0.09375 0.453125 0.09375 1.59375l0 5.953125l-1.640625 0l0 -5.890625q0 -1.0 -0.203125 -1.484375q-0.1875 -0.5 -0.671875 -0.796875q-0.484375 -0.296875 -1.140625 -0.296875q-1.046875 0 -1.8125 0.671875q-0.75 0.65625 -0.75 2.515625l0 5.28125l-1.640625 0zm16.641357 0l0 -1.21875q-0.90625 1.4375 -2.703125 1.4375q-1.15625 0 -2.125 -0.640625q-0.96875 -0.640625 -1.5 -1.78125q-0.53125 -1.140625 -0.53125 -2.625q0 -1.453125 0.484375 -2.625q0.484375 -1.1875 1.4375 -1.8125q0.96875 -0.625 2.171875 -0.625q0.875 0 1.546875 0.375q0.6875 0.359375 1.109375 0.953125l0 -4.796875l1.640625 0l0 13.359375l-1.53125 0zm-5.171875 -4.828125q0 1.859375 0.78125 2.78125q0.78125 0.921875 1.84375 0.921875q1.078125 0 1.828125 -0.875q0.75 -0.890625 0.75 -2.6875q0 -1.984375 -0.765625 -2.90625q-0.765625 -0.9375 -1.890625 -0.9375q-1.078125 0 -1.8125 0.890625q-0.734375 0.890625 -0.734375 2.8125zm15.906952 1.71875l1.6875 0.203125q-0.40625 1.484375 -1.484375 2.3125q-1.078125 0.8125 -2.765625 0.8125q-2.125 0 -3.375 -1.296875q-1.234375 -1.3125 -1.234375 -3.671875q0 -2.453125 1.25 -3.796875q1.265625 -1.34375 3.265625 -1.34375q1.9375 0 3.15625 1.328125q1.234375 1.3125 1.234375 3.703125q0 0.15625 0 0.4375l-7.21875 0q0.09375 1.59375 0.90625 2.453125q0.8125 0.84375 2.015625 0.84375q0.90625 0 1.546875 -0.46875q0.640625 -0.484375 1.015625 -1.515625zm-5.390625 -2.65625l5.40625 0q-0.109375 -1.21875 -0.625 -1.828125q-0.78125 -0.953125 -2.03125 -0.953125q-1.125 0 -1.90625 0.765625q-0.765625 0.75 -0.84375 2.015625zm9.125732 5.765625l0 -9.671875l1.46875 0l0 1.46875q0.5625 -1.03125 1.03125 -1.359375q0.484375 -0.328125 1.0625 -0.328125q0.828125 0 1.6875 0.53125l-0.5625 1.515625q-0.609375 -0.359375 -1.203125 -0.359375q-0.546875 0 -0.96875 0.328125q-0.421875 0.328125 -0.609375 0.890625q-0.28125 0.875 -0.28125 1.921875l0 5.0625l-1.625 0zm6.181427 0l0 -13.359375l1.640625 0l0 13.359375l-1.640625 0zm4.113556 3.71875l-0.1875 -1.53125q0.546875 0.140625 0.9375 0.140625q0.546875 0 0.875 -0.1875q0.328125 -0.171875 0.546875 -0.5q0.15625 -0.25 0.5 -1.21875q0.046875 -0.140625 0.140625 -0.40625l-3.671875 -9.6875l1.765625 0l2.015625 5.59375q0.390625 1.078125 0.703125 2.25q0.28125 -1.125 0.671875 -2.203125l2.078125 -5.640625l1.640625 0l-3.6875 9.828125q-0.59375 1.609375 -0.921875 2.203125q-0.4375 0.8125 -1.0 1.1875q-0.5625 0.375 -1.34375 0.375q-0.484375 0 -1.0625 -0.203125zm9.40625 -15.1875l0 -1.890625l1.640625 0l0 1.890625l-1.640625 0zm0 11.46875l0 -9.671875l1.640625 0l0 9.671875l-1.640625 0zm4.1448364 0l0 -9.671875l1.46875 0l0 1.375q1.0625 -1.59375 3.078125 -1.59375q0.875 0 1.609375 0.3125q0.734375 0.3125 1.09375 0.828125q0.375 0.5 0.515625 1.203125q0.09375 0.453125 0.09375 1.59375l0 5.953125l-1.640625 0l0 -5.890625q0 -1.0 -0.203125 -1.484375q-0.1875 -0.5 -0.671875 -0.796875q-0.484375 -0.296875 -1.140625 -0.296875q-1.046875 0 -1.8125 0.671875q-0.75 0.65625 -0.75 2.515625l0 5.28125l-1.640625 0zm10.063202 0.796875l1.59375 0.234375q0.109375 0.75 0.5625 1.078125q0.609375 0.453125 1.671875 0.453125q1.140625 0 1.75 -0.453125q0.625 -0.453125 0.84375 -1.265625q0.125 -0.5 0.109375 -2.109375q-1.0625 1.265625 -2.671875 1.265625q-2.0 0 -3.09375 -1.4375q-1.09375 -1.4375 -1.09375 -3.453125q0 -1.390625 0.5 -2.5625q0.515625 -1.171875 1.453125 -1.796875q0.953125 -0.640625 2.25 -0.640625q1.703125 0 2.8125 1.375l0 -1.15625l1.515625 0l0 8.359375q0 2.265625 -0.46875 3.203125q-0.453125 0.9375 -1.453125 1.484375q-0.984375 0.546875 -2.453125 0.546875q-1.71875 0 -2.796875 -0.78125q-1.0625 -0.765625 -1.03125 -2.34375zm1.359375 -5.8125q0 1.90625 0.75 2.78125q0.765625 0.875 1.90625 0.875q1.125 0 1.890625 -0.859375q0.765625 -0.875 0.765625 -2.734375q0 -1.78125 -0.796875 -2.671875q-0.78125 -0.90625 -1.890625 -0.90625q-1.09375 0 -1.859375 0.890625q-0.765625 0.875 -0.765625 2.625z" fill-rule="nonzero"/><path fill="#000000" fill-opacity="0.0" d="m377.3701 146.50214l86.031494 0l0 0.06298828l86.03146 0" fill-rule="evenodd"/><path stroke="#000000" stroke-width="2.0" stroke-linejoin="round" stroke-linecap="butt" d="m384.9501 146.50214l78.45148 0l0 0.06298828l78.45151 0" fill-rule="evenodd"/><path fill="#000000" stroke="#000000" stroke-width="2.0" stroke-linecap="butt" d="m384.95007 149.79213l-6.5799866 0l0 -6.580002l6.5799866 0l0 6.580002z" fill-rule="nonzero"/><path stroke="#000000" stroke-width="2.0" stroke-linecap="butt" d="m548.43304 146.56512c0 1.8170166 -1.4729614 3.2899933 -3.289978 3.2899933c-1.8170166 0 -3.289978 -1.4729767 -3.289978 -3.2899933c0 -1.8170166 1.4729614 -3.2899933 3.289978 -3.2899933c1.8170166 0 3.289978 1.4729767 3.289978 3.2899933z" fill-rule="nonzero"/><path fill="#000000" fill-opacity="0.0" d="m377.3701 245.531l86.031494 0l0 0.06298828l86.03146 0" fill-rule="evenodd"/><path stroke="#000000" stroke-width="2.0" stroke-linejoin="round" stroke-linecap="butt" d="m384.9501 245.531l78.45148 0l0 0.06298828l78.45151 0" fill-rule="evenodd"/><path fill="#000000" stroke="#000000" stroke-width="2.0" stroke-linecap="butt" d="m384.95007 248.821l-6.5799866 0l0 -6.580002l6.5799866 0l0 6.580002z" fill-rule="nonzero"/><path stroke="#000000" stroke-width="2.0" stroke-linecap="butt" d="m548.43304 245.594c0 1.8170166 -1.4729614 3.2900085 -3.289978 3.2900085c-1.8170166 0 -3.289978 -1.472992 -3.289978 -3.2900085c0 -1.8170166 1.4729614 -3.2899933 3.289978 -3.2899933c1.8170166 0 3.289978 1.4729767 3.289978 3.2899933z" fill-rule="nonzero"/><path fill="#000000" fill-opacity="0.0" d="m377.3701 344.62286l24.99942 0l0 38.207153l-176.401 0l0 17.194427" fill-rule="evenodd"/><path stroke="#000000" stroke-width="2.0" stroke-linejoin="round" stroke-linecap="butt" d="m384.9501 344.62286l17.419403 0l0 38.207153l-176.401 0l0 5.1944275" fill-rule="evenodd"/><path fill="#000000" stroke="#000000" stroke-width="2.0" stroke-linecap="butt" d="m384.95007 347.91287l-6.5799866 0l0 -6.580017l6.5799866 0l0 6.580017z" fill-rule="nonzero"/><path fill="#000000" stroke="#000000" stroke-width="2.0" stroke-linecap="butt" d="m222.66504 388.02444l3.3034668 9.076202l3.3034668 -9.076202z" fill-rule="evenodd"/><path fill="#000000" fill-opacity="0.0" d="m377.3701 443.11105l181.17587 0l0 -307.937l-181.11288 0" fill-rule="evenodd"/><path stroke="#000000" stroke-width="2.0" stroke-linejoin="round" stroke-linecap="butt" d="m384.9501 443.11105l173.59586 0l0 -307.937l-169.11288 0" fill-rule="evenodd"/><path fill="#000000" stroke="#000000" stroke-width="2.0" stroke-linecap="butt" d="m384.95007 446.40106l-6.5799866 0l0 -6.580017l6.5799866 0l0 6.580017z" fill-rule="nonzero"/><path fill="#000000" stroke="#000000" stroke-width="2.0" stroke-linecap="butt" d="m389.43307 131.87059l-9.076202 3.3034515l9.076202 3.3034668z" fill-rule="evenodd"/></g></svg>