<svg version="1.1" viewBox="0.0 0.0 624.0 240.0" fill="none" stroke="none" stroke-linecap="square" stroke-miterlimit="10" xmlns:xlink="http://www.w3.org/1999/xlink" xmlns="http://www.w3.org/2000/svg"><clipPath id="p.0"><path d="m0 0l624.0 0l0 240.0l-624.0 0l0 -240.0z" clip-rule="nonzero"/></clipPath><g clip-path="url(#p.0)"><path fill="#000000" fill-opacity="0.0" d="m0 0l624.0 0l0 240.0l-624.0 0z" fill-rule="evenodd"/><path fill="#fff2cc" d="m34.866142 62.340973l302.80313 0l0 64.661415l-302.80313 0z" fill-rule="evenodd"/><path stroke="#000000" stroke-width="2.0" stroke-linejoin="round" stroke-linecap="butt" d="m34.866142 62.340973l302.80313 0l0 64.661415l-302.80313 0z" fill-rule="evenodd"/><path fill="#000000" d="m48.022392 90.59168l0 -12.40625l1.59375 0l0 12.40625l-1.59375 0zm-3.75 -11.84375l0 -1.515625l9.078125 0l0 1.515625l-9.078125 0z" fill-rule="nonzero"/><path fill="#000000" d="m45.334892 112.59168l0 -13.359375l4.03125 0q2.09375 0 3.59375 0.859375q1.515625 0.84375 2.328125 2.359375q0.828125 1.5 0.828125 3.46875q0 1.953125 -0.828125 3.453125q-0.8125 1.5 -2.328125 2.359375q-1.5 0.859375 -3.59375 0.859375l-4.03125 0zm1.59375 -1.515625l2.4375 0q1.578125 0 2.734375 -0.59375q1.15625 -0.609375 1.78125 -1.765625q0.640625 -1.15625 0.640625 -2.796875q0 -1.65625 -0.640625 -2.8125q-0.625 -1.15625 -1.78125 -1.75q-1.15625 -0.609375 -2.734375 -0.609375l-2.4375 0l0 10.328125zm15.406158 1.8125q-1.375 0 -2.453125 -0.640625q-1.078125 -0.65625 -1.6875 -1.796875q-0.59375 -1.140625 -0.59375 -2.59375q0 -1.359375 0.5625 -2.515625q0.578125 -1.15625 1.609375 -1.859375q1.03125 -0.703125 2.4375 -0.703125q1.40625 0 2.421875 0.625q1.03125 0.625 1.578125 1.734375q0.546875 1.09375 0.546875 2.515625q0 0.125 -0.015625 0.265625q0 0.125 -0.015625 0.21875l-8.203125 0l0 -1.3125l6.5625 0q-0.03125 -0.390625 -0.1875 -0.84375q-0.15625 -0.46875 -0.5 -0.859375q-0.34375 -0.40625 -0.875 -0.65625q-0.53125 -0.25 -1.3125 -0.25q-0.9375 0 -1.625 0.484375q-0.671875 0.46875 -1.046875 1.296875q-0.359375 0.8125 -0.359375 1.859375q0 1.203125 0.46875 2.015625q0.46875 0.796875 1.203125 1.1875q0.734375 0.390625 1.546875 0.390625q1.046875 0 1.71875 -0.484375q0.6875 -0.5 1.09375 -1.234375l1.34375 0.65625q-0.5625 1.078125 -1.609375 1.796875q-1.046875 0.703125 -2.609375 0.703125zm5.170944 -8.375l0 -1.4375l1.84375 0l0 1.4375l-1.84375 0zm1.75 8.078125l0 -10.546875q0 -0.875 0.375 -1.53125q0.390625 -0.671875 1.09375 -1.046875q0.703125 -0.375 1.625 -0.375q0.359375 0 0.6875 0.0625q0.34375 0.046875 0.65625 0.15625l0 1.546875q-0.375 -0.15625 -0.703125 -0.21875q-0.3125 -0.078125 -0.59375 -0.078125q-0.6875 0 -1.125 0.453125q-0.421875 0.4375 -0.421875 1.203125l0 10.375l-1.59375 0zm1.5 -8.078125l0 -1.4375l4.578125 0l0 1.4375l-4.578125 0zm4.453125 8.078125l0 -9.515625l1.59375 0l0 9.515625l-1.59375 0zm0.78125 -11.265625q-0.46875 0 -0.8125 -0.328125q-0.328125 -0.34375 -0.328125 -0.8125q0 -0.484375 0.328125 -0.8125q0.34375 -0.328125 0.8125 -0.328125q0.484375 0 0.8125 0.328125q0.328125 0.328125 0.328125 0.8125q0 0.46875 -0.328125 0.8125q-0.328125 0.328125 -0.8125 0.328125zm3.117035 11.265625l0 -9.515625l1.515625 0l0 1.40625l0.078125 0q0.359375 -0.703125 1.203125 -1.203125q0.859375 -0.5 1.875 -0.5q1.75 0 2.625 1.015625q0.890625 1.015625 0.890625 2.703125l0 6.09375l-1.578125 0l0 -5.859375q0 -1.375 -0.671875 -1.9375q-0.65625 -0.578125 -1.703125 -0.578125q-0.78125 0 -1.375 0.4375q-0.59375 0.4375 -0.9375 1.125q-0.328125 0.6875 -0.328125 1.453125l0 5.359375l-1.59375 0zm14.663223 0.296875q-1.375 0 -2.453125 -0.640625q-1.078125 -0.65625 -1.6875 -1.796875q-0.59375 -1.140625 -0.59375 -2.59375q0 -1.359375 0.5625 -2.515625q0.578125 -1.15625 1.609375 -1.859375q1.03125 -0.703125 2.4375 -0.703125q1.40625 0 2.421875 0.625q1.03125 0.625 1.578125 1.734375q0.546875 1.09375 0.546875 2.515625q0 0.125 -0.015625 0.265625q0 0.125 -0.015625 0.21875l-8.203125 0l0 -1.3125l6.5625 0q-0.03125 -0.390625 -0.1875 -0.84375q-0.15625 -0.46875 -0.5 -0.859375q-0.34375 -0.40625 -0.875 -0.65625q-0.53125 -0.25 -1.3125 -0.25q-0.9375 0 -1.625 0.484375q-0.671875 0.46875 -1.046875 1.296875q-0.359375 0.8125 -0.359375 1.859375q0 1.203125 0.46875 2.015625q0.46875 0.796875 1.203125 1.1875q0.734375 0.390625 1.546875 0.390625q1.046875 0 1.71875 -0.484375q0.6875 -0.5 1.09375 -1.234375l1.34375 0.65625q-0.5625 1.078125 -1.609375 1.796875q-1.046875 0.703125 -2.609375 0.703125zm10.278656 0q-1.28125 0 -2.328125 -0.640625q-1.03125 -0.65625 -1.625 -1.796875q-0.59375 -1.140625 -0.59375 -2.609375q0 -1.484375 0.59375 -2.609375q0.59375 -1.140625 1.625 -1.796875q1.046875 -0.65625 2.328125 -0.65625q0.765625 0 1.390625 0.25q0.640625 0.234375 1.109375 0.625q0.484375 0.390625 0.75 0.84375l0.078125 0l-0.078125 -1.328125l0 -3.9375l1.578125 0l0 13.359375l-1.5 0l0 -1.40625l-0.078125 0q-0.265625 0.4375 -0.75 0.828125q-0.46875 0.390625 -1.109375 0.625q-0.625 0.25 -1.390625 0.25zm0.171875 -1.4375q0.8125 0 1.53125 -0.4375q0.71875 -0.4375 1.171875 -1.25q0.453125 -0.8125 0.453125 -1.921875q0 -1.125 -0.453125 -1.9375q-0.453125 -0.8125 -1.171875 -1.25q-0.71875 -0.4375 -1.53125 -0.4375q-0.828125 0 -1.546875 0.4375q-0.71875 0.4375 -1.171875 1.25q-0.4375 0.8125 -0.4375 1.9375q0 1.09375 0.4375 1.921875q0.453125 0.8125 1.171875 1.25q0.71875 0.4375 1.546875 0.4375z" fill-rule="nonzero"/><path fill="#000000" fill-opacity="0.0" d="m232.0315 84.98664l105.63779 0l0 42.015747l-105.63779 0z" fill-rule="evenodd"/><path fill="#000000" d="m250.14705 111.90664l0 -1.421875q-1.125 1.640625 -3.0625 1.640625q-0.859375 0 -1.609375 -0.328125q-0.734375 -0.328125 -1.09375 -0.828125q-0.359375 -0.5 -0.5 -1.21875q-0.109375 -0.46875 -0.109375 -1.53125l0 -5.984375l1.640625 0l0 5.359375q0 1.28125 0.109375 1.734375q0.15625 0.640625 0.65625 1.015625q0.5 0.375 1.234375 0.375q0.734375 0 1.375 -0.375q0.65625 -0.390625 0.921875 -1.03125q0.265625 -0.65625 0.265625 -1.890625l0 -5.1875l1.640625 0l0 9.671875l-1.46875 0zm4.047592 0l0 -9.671875l1.46875 0l0 1.375q1.0625 -1.59375 3.078125 -1.59375q0.875 0 1.609375 0.3125q0.734375 0.3125 1.09375 0.828125q0.375 0.5 0.515625 1.203125q0.09375 0.453125 0.09375 1.59375l0 5.953125l-1.640625 0l0 -5.890625q0 -1.0 -0.203125 -1.484375q-0.1875 -0.5 -0.671875 -0.796875q-0.484375 -0.296875 -1.140625 -0.296875q-1.046875 0 -1.8125 0.671875q-0.75 0.65625 -0.75 2.515625l0 5.28125l-1.640625 0zm16.641327 0l0 -1.21875q-0.90625 1.4375 -2.703125 1.4375q-1.15625 0 -2.125 -0.640625q-0.96875 -0.640625 -1.5 -1.78125q-0.53125 -1.140625 -0.53125 -2.625q0 -1.453125 0.484375 -2.625q0.484375 -1.1875 1.4375 -1.8125q0.96875 -0.625 2.171875 -0.625q0.875 0 1.546875 0.375q0.6875 0.359375 1.109375 0.953125l0 -4.796875l1.640625 0l0 13.359375l-1.53125 0zm-5.171875 -4.828125q0 1.859375 0.78125 2.78125q0.78125 0.921875 1.84375 0.921875q1.078125 0 1.828125 -0.875q0.75 -0.890625 0.75 -2.6875q0 -1.984375 -0.765625 -2.90625q-0.765625 -0.9375 -1.890625 -0.9375q-1.078125 0 -1.8125 0.890625q-0.734375 0.890625 -0.734375 2.8125zm15.906982 1.71875l1.6875 0.203125q-0.40625 1.484375 -1.484375 2.3125q-1.078125 0.8125 -2.765625 0.8125q-2.125 0 -3.375 -1.296875q-1.234375 -1.3125 -1.234375 -3.671875q0 -2.453125 1.25 -3.796875q1.265625 -1.34375 3.265625 -1.34375q1.9375 0 3.15625 1.328125q1.234375 1.3125 1.234375 3.703125q0 0.15625 0 0.4375l-7.21875 0q0.09375 1.59375 0.90625 2.453125q0.8125 0.84375 2.015625 0.84375q0.90625 0 1.546875 -0.46875q0.640625 -0.484375 1.015625 -1.515625zm-5.390625 -2.65625l5.40625 0q-0.109375 -1.21875 -0.625 -1.828125q-0.78125 -0.953125 -2.03125 -0.953125q-1.125 0 -1.90625 0.765625q-0.765625 0.75 -0.84375 2.015625zm9.125702 5.765625l0 -9.671875l1.46875 0l0 1.46875q0.5625 -1.03125 1.03125 -1.359375q0.484375 -0.328125 1.0625 -0.328125q0.828125 0 1.6875 0.53125l-0.5625 1.515625q-0.609375 -0.359375 -1.203125 -0.359375q-0.546875 0 -0.96875 0.328125q-0.421875 0.328125 -0.609375 0.890625q-0.28125 0.875 -0.28125 1.921875l0 5.0625l-1.625 0zm6.181427 0l0 -13.359375l1.640625 0l0 13.359375l-1.640625 0zm4.1135864 3.71875l-0.1875 -1.53125q0.546875 0.140625 0.9375 0.140625q0.546875 0 0.875 -0.1875q0.328125 -0.171875 0.546875 -0.5q0.15625 -0.25 0.5 -1.21875q0.046875 -0.140625 0.140625 -0.40625l-3.671875 -9.6875l1.765625 0l2.015625 5.59375q0.390625 1.078125 0.703125 2.25q0.28125 -1.125 0.671875 -2.203125l2.078125 -5.640625l1.640625 0l-3.6875 9.828125q-0.59375 1.609375 -0.921875 2.203125q-0.4375 0.8125 -1.0 1.1875q-0.5625 0.375 -1.34375 0.375q-0.484375 0 -1.0625 -0.203125zm9.40625 -15.1875l0 -1.890625l1.640625 0l0 1.890625l-1.640625 0zm0 11.46875l0 -9.671875l1.640625 0l0 9.671875l-1.640625 0zm4.144806 0l0 -9.671875l1.46875 0l0 1.375q1.0625 -1.59375 3.078125 -1.59375q0.875 0 1.609375 0.3125q0.734375 0.3125 1.09375 0.828125q0.375 0.5 0.515625 1.203125q0.09375 0.453125 0.09375 1.59375l0 5.953125l-1.640625 0l0 -5.890625q0 -1.0 -0.203125 -1.484375q-0.1875 -0.5 -0.671875 -0.796875q-0.484375 -0.296875 -1.140625 -0.296875q-1.046875 0 -1.8125 0.671875q-0.75 0.65625 -0.75 2.515625l0 5.28125l-1.640625 0zm10.063232 0.796875l1.59375 0.234375q0.109375 0.75 0.5625 1.078125q0.609375 0.453125 1.671875 0.453125q1.140625 0 1.75 -0.453125q0.625 -0.453125 0.84375 -1.265625q0.125 -0.5 0.109375 -2.109375q-1.0625 1.265625 -2.671875 1.265625q-2.0 0 -3.09375 -1.4375q-1.09375 -1.4375 -1.09375 -3.453125q0 -1.390625 0.5 -2.5625q0.515625 -1.171875 1.453125 -1.796875q0.953125 -0.640625 2.25 -0.640625q1.703125 0 2.8125 1.375l0 -1.15625l1.515625 0l0 8.359375q0 2.265625 -0.46875 3.203125q-0.453125 0.9375 -1.453125 1.484375q-0.984375 0.546875 -2.453125 0.546875q-1.71875 0 -2.796875 -0.78125q-1.0625 -0.765625 -1.03125 -2.34375zm1.359375 -5.8125q0 1.90625 0.75 2.78125q0.765625 0.875 1.90625 0.875q1.125 0 1.890625 -0.859375q0.765625 -0.875 0.765625 -2.734375q0 -1.78125 -0.796875 -2.671875q-0.78125 -0.90625 -1.890625 -0.90625q-1.09375 0 -1.859375 0.890625q-0.765625 0.875 -0.765625 2.625z" fill-rule="nonzero"/><path fill="#fff2cc" d="m34.866142 161.40134l302.80313 0l0 64.66142l-302.80313 0z" fill-rule="evenodd"/><path stroke="#000000" stroke-width="2.0" stroke-linejoin="round" stroke-linecap="butt" d="m34.866142 161.40134l302.80313 0l0 64.66142l-302.80313 0z" fill-rule="evenodd"/><path fill="#000000" d="m45.334892 191.96455l0 -17.09375l3.75 0l0 1.3125l-2.3125 0l0 14.46875l2.3125 0l0 1.3125l-3.75 0zm9.0359955 -2.015625q-1.75 0 -2.640625 -1.015625q-0.890625 -1.03125 -0.890625 -2.8125l0 -5.984375l1.59375 0l0 5.75q0 1.421875 0.640625 2.03125q0.65625 0.59375 1.625 0.59375q0.84375 0 1.453125 -0.4375q0.625 -0.4375 0.953125 -1.125q0.34375 -0.6875 0.34375 -1.4375l0 -5.375l1.578125 0l0 9.515625l-1.5 0l0 -1.375l-0.078125 0q-0.25 0.4375 -0.71875 0.828125q-0.46875 0.375 -1.078125 0.609375q-0.609375 0.234375 -1.28125 0.234375zm6.9757233 -0.296875l0 -9.515625l1.515625 0l0 1.40625l0.078125 0q0.359375 -0.703125 1.203125 -1.203125q0.859375 -0.5 1.875 -0.5q1.75 0 2.625 1.015625q0.890625 1.015625 0.890625 2.703125l0 6.09375l-1.578125 0l0 -5.859375q0 -1.375 -0.671875 -1.9375q-0.65625 -0.578125 -1.703125 -0.578125q-0.78125 0 -1.375 0.4375q-0.59375 0.4375 -0.9375 1.125q-0.328125 0.6875 -0.328125 1.453125l0 5.359375l-1.59375 0zm13.756973 0.296875q-1.0625 0 -1.875 -0.34375q-0.8125 -0.34375 -1.34375 -0.921875q-0.53125 -0.59375 -0.796875 -1.28125l1.421875 -0.640625q0.359375 0.859375 1.0625 1.328125q0.71875 0.46875 1.640625 0.46875q0.875 0 1.453125 -0.359375q0.59375 -0.359375 0.59375 -1.046875q0 -0.421875 -0.25 -0.703125q-0.234375 -0.296875 -0.703125 -0.5q-0.46875 -0.21875 -1.140625 -0.375l-1.15625 -0.3125q-0.671875 -0.1875 -1.265625 -0.515625q-0.59375 -0.34375 -0.96875 -0.875q-0.359375 -0.53125 -0.359375 -1.296875q0 -0.84375 0.5 -1.453125q0.515625 -0.625 1.328125 -0.953125q0.828125 -0.328125 1.765625 -0.328125q0.8125 0 1.53125 0.234375q0.71875 0.234375 1.25 0.6875q0.546875 0.453125 0.828125 1.125l-1.375 0.640625q-0.359375 -0.703125 -0.953125 -0.984375q-0.59375 -0.28125 -1.328125 -0.28125q-0.78125 0 -1.359375 0.34375q-0.578125 0.34375 -0.578125 0.9375q0 0.59375 0.46875 0.90625q0.484375 0.296875 1.171875 0.46875l1.375 0.359375q1.40625 0.359375 2.109375 1.0625q0.71875 0.6875 0.71875 1.703125q0 0.890625 -0.515625 1.546875q-0.5 0.65625 -1.359375 1.015625q-0.859375 0.34375 -1.890625 0.34375zm8.537094 0q-1.0625 0 -1.875 -0.40625q-0.796875 -0.40625 -1.25 -1.125q-0.453125 -0.71875 -0.453125 -1.640625q0 -1.046875 0.53125 -1.765625q0.546875 -0.71875 1.453125 -1.078125q0.921875 -0.359375 2.03125 -0.359375q0.625 0 1.15625 0.109375q0.546875 0.09375 0.953125 0.234375q0.40625 0.140625 0.609375 0.265625l0 -0.578125q0 -1.078125 -0.765625 -1.703125q-0.765625 -0.640625 -1.875 -0.640625q-0.78125 0 -1.46875 0.34375q-0.671875 0.34375 -1.0625 0.953125l-1.1875 -0.890625q0.375 -0.5625 0.921875 -0.96875q0.5625 -0.40625 1.28125 -0.625q0.71875 -0.234375 1.515625 -0.234375q1.953125 0 3.046875 1.03125q1.109375 1.015625 1.109375 2.75l0 6.03125l-1.515625 0l0 -1.359375l-0.078125 0q-0.234375 0.40625 -0.6875 0.796875q-0.453125 0.375 -1.0625 0.609375q-0.59375 0.25 -1.328125 0.25zm0.15625 -1.390625q0.8125 0 1.484375 -0.40625q0.6875 -0.421875 1.09375 -1.109375q0.421875 -0.6875 0.421875 -1.515625q-0.4375 -0.296875 -1.078125 -0.484375q-0.640625 -0.1875 -1.40625 -0.1875q-1.359375 0 -2.0 0.5625q-0.625 0.5625 -0.625 1.375q0 0.78125 0.59375 1.28125q0.59375 0.484375 1.515625 0.484375zm5.70459 -6.984375l0 -1.4375l1.84375 0l0 1.4375l-1.84375 0zm1.75 8.078125l0 -10.546875q0 -0.875 0.375 -1.53125q0.390625 -0.671875 1.09375 -1.046875q0.703125 -0.375 1.625 -0.375q0.359375 0 0.6875 0.0625q0.34375 0.046875 0.65625 0.15625l0 1.546875q-0.375 -0.15625 -0.703125 -0.21875q-0.3125 -0.078125 -0.59375 -0.078125q-0.6875 0 -1.125 0.453125q-0.421875 0.4375 -0.421875 1.203125l0 10.375l-1.59375 0zm1.5 -8.078125l0 -1.4375l2.53125 0l0 1.4375l-2.53125 0zm7.958786 8.375q-1.375 0 -2.453125 -0.640625q-1.078125 -0.65625 -1.6875 -1.796875q-0.59375 -1.140625 -0.59375 -2.59375q0 -1.359375 0.5625 -2.515625q0.578125 -1.15625 1.609375 -1.859375q1.03125 -0.703125 2.4375 -0.703125q1.40625 0 2.421875 0.625q1.03125 0.625 1.578125 1.734375q0.546875 1.09375 0.546875 2.515625q0 0.125 -0.015625 0.265625q0 0.125 -0.015625 0.21875l-8.203125 0l0 -1.3125l6.5625 0q-0.03125 -0.390625 -0.1875 -0.84375q-0.15625 -0.46875 -0.5 -0.859375q-0.34375 -0.40625 -0.875 -0.65625q-0.53125 -0.25 -1.3125 -0.25q-0.9375 0 -1.625 0.484375q-0.671875 0.46875 -1.046875 1.296875q-0.359375 0.8125 -0.359375 1.859375q0 1.203125 0.46875 2.015625q0.46875 0.796875 1.203125 1.1875q0.734375 0.390625 1.546875 0.390625q1.046875 0 1.71875 -0.484375q0.6875 -0.5 1.09375 -1.234375l1.34375 0.65625q-0.5625 1.078125 -1.609375 1.796875q-1.046875 0.703125 -2.609375 0.703125zm7.278656 -0.1875q-0.5 0 -0.859375 -0.34375q-0.34375 -0.34375 -0.34375 -0.84375q0 -0.484375 0.34375 -0.828125q0.359375 -0.34375 0.859375 -0.34375q0.5 0 0.84375 0.34375q0.34375 0.34375 0.34375 0.828125q0 0.5 -0.34375 0.84375q-0.34375 0.34375 -0.84375 0.34375zm7.402878 0.1875q-0.96875 0 -1.921875 -0.40625q-0.953125 -0.40625 -1.6875 -1.203125q-0.71875 -0.8125 -1.046875 -2.015625l1.5 -0.609375q0.328125 1.15625 1.15625 1.9375q0.84375 0.78125 2.046875 0.78125q0.734375 0 1.359375 -0.265625q0.625 -0.265625 1.0 -0.78125q0.390625 -0.53125 0.390625 -1.28125q0 -0.671875 -0.328125 -1.140625q-0.328125 -0.46875 -0.984375 -0.828125q-0.640625 -0.359375 -1.59375 -0.703125l-0.84375 -0.296875q-0.5625 -0.203125 -1.125 -0.484375q-0.5625 -0.296875 -1.046875 -0.71875q-0.46875 -0.421875 -0.75 -1.0q-0.28125 -0.59375 -0.28125 -1.390625q0 -0.96875 0.515625 -1.765625q0.53125 -0.8125 1.4375 -1.296875q0.921875 -0.484375 2.109375 -0.484375q1.25 0 2.09375 0.453125q0.859375 0.453125 1.34375 1.078125q0.5 0.625 0.671875 1.15625l-1.46875 0.640625q-0.125 -0.40625 -0.4375 -0.8125q-0.3125 -0.421875 -0.84375 -0.703125q-0.53125 -0.296875 -1.34375 -0.296875q-0.640625 0 -1.21875 0.265625q-0.5625 0.25 -0.90625 0.71875q-0.34375 0.453125 -0.34375 1.046875q0 0.84375 0.671875 1.328125q0.671875 0.484375 1.796875 0.875l0.875 0.296875q0.609375 0.203125 1.234375 0.5q0.625 0.296875 1.15625 0.765625q0.546875 0.46875 0.875 1.15625q0.34375 0.671875 0.34375 1.625q0 1.03125 -0.40625 1.765625q-0.390625 0.734375 -1.046875 1.203125q-0.65625 0.46875 -1.4375 0.671875q-0.765625 0.21875 -1.515625 0.21875zm6.3073425 -0.296875l0 -9.515625l1.59375 0l0 9.515625l-1.59375 0zm0.78125 -11.265625q-0.46875 0 -0.8125 -0.328125q-0.328125 -0.34375 -0.328125 -0.8125q0 -0.484375 0.328125 -0.8125q0.34375 -0.328125 0.8125 -0.328125q0.484375 0 0.8125 0.328125q0.328125 0.328125 0.328125 0.8125q0 0.46875 -0.328125 0.8125q-0.328125 0.328125 -0.8125 0.328125zm2.7116547 11.265625l0 -1.359375l5.6093674 -6.71875l-5.4374924 0l0 -1.4375l7.3749924 0l0 1.359375l-5.6093674 6.71875l5.7656174 0l0 1.4375l-7.7031174 0zm13.334221 0.296875q-1.375 0 -2.453125 -0.640625q-1.078125 -0.65625 -1.6875 -1.796875q-0.59375 -1.140625 -0.59375 -2.59375q0 -1.359375 0.5625 -2.515625q0.578125 -1.15625 1.609375 -1.859375q1.03125 -0.703125 2.4375 -0.703125q1.40625 0 2.421875 0.625q1.03125 0.625 1.578125 1.734375q0.546875 1.09375 0.546875 2.515625q0 0.125 -0.015625 0.265625q0 0.125 -0.015625 0.21875l-8.203125 0l0 -1.3125l6.5625 0q-0.03125 -0.390625 -0.1875 -0.84375q-0.15625 -0.46875 -0.5 -0.859375q-0.34375 -0.40625 -0.875 -0.65625q-0.53125 -0.25 -1.3125 -0.25q-0.9375 0 -1.625 0.484375q-0.671875 0.46875 -1.046875 1.296875q-0.359375 0.8125 -0.359375 1.859375q0 1.203125 0.46875 2.015625q0.46875 0.796875 1.203125 1.1875q0.734375 0.390625 1.546875 0.390625q1.046875 0 1.71875 -0.484375q0.6875 -0.5 1.09375 -1.234375l1.34375 0.65625q-0.5625 1.078125 -1.609375 1.796875q-1.046875 0.703125 -2.609375 0.703125zm10.622406 0q-1.4375 0 -2.546875 -0.671875q-1.09375 -0.671875 -1.71875 -1.8125q-0.625 -1.15625 -0.625 -2.5625q0 -1.421875 0.625 -2.5625q0.625 -1.15625 1.71875 -1.828125q1.109375 -0.671875 2.546875 -0.671875q1.4375 0 2.53125 0.6875q1.09375 0.671875 1.71875 1.828125q0.625 1.140625 0.625 2.546875q0 1.40625 -0.625 2.5625q-0.625 1.140625 -1.71875 1.8125q-1.09375 0.671875 -2.53125 0.671875zm0 -1.4375q0.859375 0 1.609375 -0.421875q0.75 -0.4375 1.21875 -1.25q0.46875 -0.8125 0.46875 -1.9375q0 -1.140625 -0.46875 -1.953125q-0.46875 -0.8125 -1.21875 -1.234375q-0.75 -0.4375 -1.609375 -0.4375q-0.859375 0 -1.625 0.4375q-0.765625 0.421875 -1.234375 1.234375q-0.46875 0.8125 -0.46875 1.953125q0 1.125 0.46875 1.9375q0.46875 0.8125 1.234375 1.25q0.765625 0.421875 1.625 0.421875zm5.630356 -6.9375l0 -1.4375l1.84375 0l0 1.4375l-1.84375 0zm1.75 8.078125l0 -10.546875q0 -0.875 0.375 -1.53125q0.390625 -0.671875 1.09375 -1.046875q0.703125 -0.375 1.625 -0.375q0.359375 0 0.6875 0.0625q0.34375 0.046875 0.65625 0.15625l0 1.546875q-0.375 -0.15625 -0.703125 -0.21875q-0.3125 -0.078125 -0.59375 -0.078125q-0.6875 0 -1.125 0.453125q-0.421875 0.4375 -0.421875 1.203125l0 10.375l-1.59375 0zm1.5 -8.078125l0 -1.4375l2.53125 0l0 1.4375l-2.53125 0zm7.5191956 10.609375q-0.5625 -0.640625 -1.15625 -1.546875q-0.578125 -0.890625 -1.078125 -1.984375q-0.484375 -1.09375 -0.796875 -2.34375q-0.296875 -1.265625 -0.296875 -2.65625q0 -1.40625 0.296875 -2.65625q0.3125 -1.265625 0.796875 -2.359375q0.5 -1.09375 1.078125 -1.984375q0.59375 -0.90625 1.15625 -1.546875l1.15625 0.8125q-0.796875 0.9375 -1.453125 2.171875q-0.65625 1.234375 -1.0625 2.65625q-0.40625 1.40625 -0.40625 2.90625q0 1.484375 0.40625 2.90625q0.40625 1.421875 1.0625 2.65625q0.65625 1.21875 1.453125 2.15625l-1.15625 0.8125zm6.0338745 -2.53125l0 -12.40625l1.59375 0l0 12.40625l-1.59375 0zm-3.75 -11.84375l0 -1.515625l9.078125 0l0 1.515625l-9.078125 0zm14.309692 14.15625q-0.921875 0 -1.625 -0.390625q-0.6875 -0.375 -1.046875 -1.0625q-0.359375 -0.671875 -0.359375 -1.59375l0 -3.265625q0 -0.53125 -0.1875 -0.875q-0.171875 -0.34375 -0.5 -0.515625q-0.3125 -0.1875 -0.703125 -0.1875l0 -1.3125q0.390625 0 0.703125 -0.171875q0.328125 -0.171875 0.5 -0.53125q0.1875 -0.359375 0.1875 -0.875l0 -3.265625q0 -0.921875 0.359375 -1.59375q0.359375 -0.6875 1.046875 -1.0625q0.703125 -0.390625 1.625 -0.390625l0.421875 0l0 1.3125l-0.40625 0q-0.6875 0 -1.140625 0.484375q-0.453125 0.46875 -0.453125 1.3125l0 3.265625q0 0.890625 -0.328125 1.40625q-0.3125 0.5 -0.9375 0.734375l0 0.078125q0.625 0.21875 0.9375 0.71875q0.328125 0.5 0.328125 1.421875l0 3.265625q0 0.84375 0.453125 1.3125q0.453125 0.46875 1.140625 0.46875l0.40625 0l0 1.3125l-0.421875 0zm1.5364685 0l0 -1.3125l0.390625 0q0.703125 0 1.15625 -0.46875q0.46875 -0.46875 0.46875 -1.3125l0 -3.265625q0 -0.921875 0.296875 -1.421875q0.3125 -0.5 0.953125 -0.71875l0 -0.078125q-0.640625 -0.234375 -0.953125 -0.734375q-0.296875 -0.515625 -0.296875 -1.40625l0 -3.265625q0 -0.84375 -0.46875 -1.3125q-0.453125 -0.484375 -1.15625 -0.484375l-0.390625 0l0 -1.3125l0.40625 0q0.953125 0 1.625 0.390625q0.6875 0.375 1.046875 1.0625q0.375 0.671875 0.375 1.59375l0 3.265625q0 0.515625 0.1875 0.875q0.1875 0.359375 0.484375 0.53125q0.3125 0.171875 0.703125 0.171875l0 1.3125q-0.390625 0 -0.703125 0.1875q-0.296875 0.171875 -0.484375 0.515625q-0.1875 0.34375 -0.1875 0.875l0 3.265625q0 0.921875 -0.375 1.59375q-0.359375 0.6875 -1.046875 1.0625q-0.671875 0.390625 -1.625 0.390625l-0.40625 0zm6.7552185 0.21875l-1.15625 -0.8125q0.78125 -0.9375 1.4375 -2.15625q0.671875 -1.234375 1.0625 -2.65625q0.40625 -1.421875 0.40625 -2.90625q0 -1.5 -0.40625 -2.90625q-0.390625 -1.421875 -1.0625 -2.65625q-0.65625 -1.234375 -1.4375 -2.171875l1.15625 -0.8125q0.734375 0.859375 1.5 2.15625q0.765625 1.296875 1.28125 2.90625q0.53125 1.609375 0.53125 3.484375q0 1.390625 -0.3125 2.65625q-0.296875 1.25 -0.78125 2.34375q-0.484375 1.09375 -1.078125 1.984375q-0.578125 0.90625 -1.140625 1.546875zm5.1449127 -0.21875l0 -1.3125l2.3125 0l0 -14.46875l-2.3125 0l0 -1.3125l3.75 0l0 17.09375l-3.75 0zm6.3797455 -2.3125l0 -9.515625l1.59375 0l0 9.515625l-1.59375 0zm0.78125 -11.265625q-0.46875 0 -0.8125 -0.328125q-0.328125 -0.34375 -0.328125 -0.8125q0 -0.484375 0.328125 -0.8125q0.34375 -0.328125 0.8125 -0.328125q0.484375 0 0.8125 0.328125q0.328125 0.328125 0.328125 0.8125q0 0.46875 -0.328125 0.8125q-0.328125 0.328125 -0.8125 0.328125zm3.1179047 11.265625l0 -9.515625l1.515625 0l0 1.40625l0.078125 0q0.359375 -0.703125 1.203125 -1.203125q0.859375 -0.5 1.875 -0.5q1.75 0 2.625 1.015625q0.890625 1.015625 0.890625 2.703125l0 6.09375l-1.578125 0l0 -5.859375q0 -1.375 -0.671875 -1.9375q-0.65625 -0.578125 -1.703125 -0.578125q-0.78125 0 -1.375 0.4375q-0.59375 0.4375 -0.9375 1.125q-0.328125 0.6875 -0.328125 1.453125l0 5.359375l-1.59375 0zm9.4613495 -8.078125l0 -1.4375l1.765625 0l0 1.4375l-1.765625 0zm4.328125 8.234375q-1.203125 0 -1.9375 -0.71875q-0.71875 -0.71875 -0.71875 -1.9375l0 -9.703125l1.59375 0l0 9.3125q0 0.796875 0.3125 1.1875q0.328125 0.375 0.984375 0.375q0.296875 0 0.5625 -0.078125q0.265625 -0.09375 0.5 -0.234375l0 1.546875q-0.296875 0.109375 -0.609375 0.171875q-0.3125 0.078125 -0.6875 0.078125zm-1.15625 -8.234375l0 -1.4375l2.421875 0l0 1.4375l-2.421875 0z" fill-rule="nonzero"/><path fill="#000000" d="m44.147392 211.65205l5.078125 -13.359375l1.78125 0l5.078125 13.359375l-1.734375 0l-3.671875 -9.984375l-0.53125 -1.4375l-0.0625 0l-0.53125 1.4375l-3.671875 9.984375l-1.734375 0zm5.78125 -3.671875l0 -1.5l3.078125 0l0.546875 1.5l-3.625 0zm-3.625 0l0.546875 -1.5l3.078125 0l0 1.5l-3.625 0zm11.218445 3.671875l0 -9.515625l1.515625 0l0 1.53125l0.078125 0q0.171875 -0.546875 0.609375 -0.9375q0.453125 -0.40625 1.015625 -0.640625q0.5625 -0.234375 1.125 -0.234375q0.4375 0 0.671875 0.046875q0.25 0.046875 0.453125 0.140625l0 1.71875q-0.296875 -0.15625 -0.640625 -0.21875q-0.34375 -0.078125 -0.703125 -0.078125q-0.6875 0 -1.265625 0.390625q-0.578125 0.390625 -0.921875 1.046875q-0.34375 0.65625 -0.34375 1.4375l0 5.3125l-1.59375 0zm6.902817 0l0 -9.515625l1.515625 0l0 1.53125l0.078125 0q0.171875 -0.546875 0.609375 -0.9375q0.453125 -0.40625 1.015625 -0.640625q0.5625 -0.234375 1.125 -0.234375q0.4375 0 0.671875 0.046875q0.25 0.046875 0.453125 0.140625l0 1.71875q-0.296875 -0.15625 -0.640625 -0.21875q-0.34375 -0.078125 -0.703125 -0.078125q-0.6875 0 -1.265625 0.390625q-0.578125 0.390625 -0.921875 1.046875q-0.34375 0.65625 -0.34375 1.4375l0 5.3125l-1.59375 0zm9.700943 0.296875q-1.0625 0 -1.875 -0.40625q-0.796875 -0.40625 -1.25 -1.125q-0.453125 -0.71875 -0.453125 -1.640625q0 -1.046875 0.53125 -1.765625q0.546875 -0.71875 1.453125 -1.078125q0.921875 -0.359375 2.03125 -0.359375q0.625 0 1.15625 0.109375q0.546875 0.09375 0.953125 0.234375q0.40625 0.140625 0.609375 0.265625l0 -0.578125q0 -1.078125 -0.765625 -1.703125q-0.765625 -0.640625 -1.875 -0.640625q-0.78125 0 -1.46875 0.34375q-0.671875 0.34375 -1.0625 0.953125l-1.1875 -0.890625q0.375 -0.5625 0.921875 -0.96875q0.5625 -0.40625 1.28125 -0.625q0.71875 -0.234375 1.515625 -0.234375q1.953125 0 3.046875 1.03125q1.109375 1.015625 1.109375 2.75l0 6.03125l-1.515625 0l0 -1.359375l-0.078125 0q-0.234375 0.40625 -0.6875 0.796875q-0.453125 0.375 -1.0625 0.609375q-0.59375 0.25 -1.328125 0.25zm0.15625 -1.390625q0.8125 0 1.484375 -0.40625q0.6875 -0.421875 1.09375 -1.109375q0.421875 -0.6875 0.421875 -1.515625q-0.4375 -0.296875 -1.078125 -0.484375q-0.640625 -0.1875 -1.40625 -0.1875q-1.359375 0 -2.0 0.5625q-0.625 0.5625 -0.625 1.375q0 0.78125 0.59375 1.28125q0.59375 0.484375 1.515625 0.484375zm8.98584 4.640625q-0.0625 0.125 -0.140625 0.28125q-0.0625 0.171875 -0.078125 0.203125l-1.640625 0q0.109375 -0.25 0.234375 -0.546875q0.125 -0.28125 0.3125 -0.6875q0.125 -0.234375 0.21875 -0.453125q0.09375 -0.203125 0.203125 -0.453125q0.125 -0.25 0.296875 -0.625l1.296875 -2.828125l0.359375 -0.875l2.875 -7.078125l1.71875 0l-4.921875 11.359375q-0.078125 0.171875 -0.25 0.53125q-0.15625 0.375 -0.296875 0.71875q-0.125 0.34375 -0.1875 0.453125zm0.359375 -3.9375l-4.03125 -9.125l1.71875 0l2.984375 7.078125l0.140625 0l-0.8125 2.046875z" fill-rule="nonzero"/><path fill="#000000" fill-opacity="0.0" d="m232.0315 184.04701l105.63779 0l0 42.015747l-105.63779 0z" fill-rule="evenodd"/><path fill="#000000" d="m270.15686 207.85764l1.6875 0.203125q-0.40625 1.484375 -1.484375 2.3125q-1.078125 0.8125 -2.765625 0.8125q-2.125 0 -3.375 -1.296875q-1.234375 -1.3125 -1.234375 -3.671875q0 -2.453125 1.25 -3.796875q1.265625 -1.34375 3.265625 -1.34375q1.9375 0 3.15625 1.328125q1.234375 1.3125 1.234375 3.703125q0 0.15625 0 0.4375l-7.21875 0q0.09375 1.59375 0.90625 2.453125q0.8125 0.84375 2.015625 0.84375q0.90625 0 1.546875 -0.46875q0.640625 -0.484375 1.015625 -1.515625zm-5.390625 -2.65625l5.40625 0q-0.109375 -1.21875 -0.625 -1.828125q-0.78125 -0.953125 -2.03125 -0.953125q-1.125 0 -1.90625 0.765625q-0.765625 0.75 -0.84375 2.015625zm9.094482 5.765625l0 -13.359375l1.640625 0l0 13.359375l-1.640625 0zm10.816681 -3.109375l1.6875 0.203125q-0.40625 1.484375 -1.484375 2.3125q-1.078125 0.8125 -2.765625 0.8125q-2.125 0 -3.375 -1.296875q-1.234375 -1.3125 -1.234375 -3.671875q0 -2.453125 1.25 -3.796875q1.265625 -1.34375 3.265625 -1.34375q1.9375 0 3.15625 1.328125q1.234375 1.3125 1.234375 3.703125q0 0.15625 0 0.4375l-7.21875 0q0.09375 1.59375 0.90625 2.453125q0.8125 0.84375 2.015625 0.84375q0.90625 0 1.546875 -0.46875q0.640625 -0.484375 1.015625 -1.515625zm-5.390625 -2.65625l5.40625 0q-0.109375 -1.21875 -0.625 -1.828125q-0.78125 -0.953125 -2.03125 -0.953125q-1.125 0 -1.90625 0.765625q-0.765625 0.75 -0.84375 2.015625zm9.141357 5.765625l0 -9.671875l1.46875 0l0 1.359375q0.453125 -0.71875 1.203125 -1.140625q0.765625 -0.4375 1.71875 -0.4375q1.078125 0 1.765625 0.453125q0.6875 0.4375 0.96875 1.234375q1.15625 -1.6875 2.984375 -1.6875q1.453125 0 2.21875 0.796875q0.78125 0.796875 0.78125 2.453125l0 6.640625l-1.640625 0l0 -6.09375q0 -0.984375 -0.15625 -1.40625q-0.15625 -0.4375 -0.578125 -0.703125q-0.421875 -0.265625 -0.984375 -0.265625q-1.015625 0 -1.6875 0.6875q-0.671875 0.671875 -0.671875 2.15625l0 5.625l-1.640625 0l0 -6.28125q0 -1.09375 -0.40625 -1.640625q-0.40625 -0.546875 -1.3125 -0.546875q-0.6875 0 -1.28125 0.359375q-0.59375 0.359375 -0.859375 1.0625q-0.25 0.703125 -0.25 2.03125l0 5.015625l-1.640625 0zm22.165802 -3.109375l1.6875 0.203125q-0.40625 1.484375 -1.484375 2.3125q-1.078125 0.8125 -2.765625 0.8125q-2.125 0 -3.375 -1.296875q-1.234375 -1.3125 -1.234375 -3.671875q0 -2.453125 1.25 -3.796875q1.265625 -1.34375 3.265625 -1.34375q1.9375 0 3.15625 1.328125q1.234375 1.3125 1.234375 3.703125q0 0.15625 0 0.4375l-7.21875 0q0.09375 1.59375 0.90625 2.453125q0.8125 0.84375 2.015625 0.84375q0.90625 0 1.546875 -0.46875q0.640625 -0.484375 1.015625 -1.515625zm-5.390625 -2.65625l5.40625 0q-0.109375 -1.21875 -0.625 -1.828125q-0.78125 -0.953125 -2.03125 -0.953125q-1.125 0 -1.90625 0.765625q-0.765625 0.75 -0.84375 2.015625zm9.141327 5.765625l0 -9.671875l1.46875 0l0 1.375q1.0625 -1.59375 3.078125 -1.59375q0.875 0 1.609375 0.3125q0.734375 0.3125 1.09375 0.828125q0.375 0.5 0.515625 1.203125q0.09375 0.453125 0.09375 1.59375l0 5.953125l-1.640625 0l0 -5.890625q0 -1.0 -0.203125 -1.484375q-0.1875 -0.5 -0.671875 -0.796875q-0.484375 -0.296875 -1.140625 -0.296875q-1.046875 0 -1.8125 0.671875q-0.75 0.65625 -0.75 2.515625l0 5.28125l-1.640625 0zm13.953857 -1.46875l0.234375 1.453125q-0.6875 0.140625 -1.234375 0.140625q-0.890625 0 -1.390625 -0.28125q-0.484375 -0.28125 -0.6875 -0.734375q-0.203125 -0.46875 -0.203125 -1.9375l0 -5.578125l-1.203125 0l0 -1.265625l1.203125 0l0 -2.390625l1.625 -0.984375l0 3.375l1.65625 0l0 1.265625l-1.65625 0l0 5.671875q0 0.6875 0.078125 0.890625q0.09375 0.203125 0.28125 0.328125q0.203125 0.109375 0.578125 0.109375q0.265625 0 0.71875 -0.0625z" fill-rule="nonzero"/><path fill="#000000" fill-opacity="0.0" d="m232.0315 161.40659l105.63779 0l0 42.015747l-105.63779 0z" fill-rule="evenodd"/><path fill="#000000" d="m296.07062 185.43596l1.625 -0.25q0.125 0.96875 0.75 1.5q0.625 0.515625 1.75 0.515625q1.125 0 1.671875 -0.453125q0.546875 -0.46875 0.546875 -1.09375q0 -0.546875 -0.484375 -0.875q-0.328125 -0.21875 -1.671875 -0.546875q-1.8125 -0.46875 -2.515625 -0.796875q-0.6875 -0.328125 -1.046875 -0.90625q-0.359375 -0.59375 -0.359375 -1.3125q0 -0.640625 0.296875 -1.1875q0.296875 -0.5625 0.8125 -0.921875q0.375 -0.28125 1.03125 -0.46875q0.671875 -0.203125 1.421875 -0.203125q1.140625 0 2.0 0.328125q0.859375 0.328125 1.265625 0.890625q0.421875 0.5625 0.578125 1.5l-1.609375 0.21875q-0.109375 -0.75 -0.640625 -1.171875q-0.515625 -0.421875 -1.46875 -0.421875q-1.140625 0 -1.625 0.375q-0.46875 0.375 -0.46875 0.875q0 0.3125 0.1875 0.578125q0.203125 0.265625 0.640625 0.4375q0.234375 0.09375 1.4375 0.421875q1.75 0.453125 2.4375 0.75q0.6875 0.296875 1.078125 0.859375q0.390625 0.5625 0.390625 1.40625q0 0.828125 -0.484375 1.546875q-0.46875 0.71875 -1.375 1.125q-0.90625 0.390625 -2.046875 0.390625q-1.875 0 -2.875 -0.78125q-0.984375 -0.78125 -1.25 -2.328125zm9.984375 -8.578125l0 -1.890625l1.640625 0l0 1.890625l-1.640625 0zm0 11.46875l0 -9.671875l1.640625 0l0 9.671875l-1.640625 0zm3.2698364 0l0 -1.328125l6.15625 -7.078125q-1.046875 0.0625 -1.84375 0.0625l-3.9375 0l0 -1.328125l7.90625 0l0 1.078125l-5.25 6.140625l-1.0 1.125q1.09375 -0.078125 2.0625 -0.078125l4.46875 0l0 1.40625l-8.5625 0zm16.828125 -3.109375l1.6875 0.203125q-0.40625 1.484375 -1.484375 2.3125q-1.078125 0.8125 -2.765625 0.8125q-2.125 0 -3.375 -1.296875q-1.234375 -1.3125 -1.234375 -3.671875q0 -2.453125 1.25 -3.796875q1.265625 -1.34375 3.265625 -1.34375q1.9375 0 3.15625 1.328125q1.234375 1.3125 1.234375 3.703125q0 0.15625 0 0.4375l-7.21875 0q0.09375 1.59375 0.90625 2.453125q0.8125 0.84375 2.015625 0.84375q0.90625 0 1.546875 -0.46875q0.640625 -0.484375 1.015625 -1.515625zm-5.390625 -2.65625l5.40625 0q-0.109375 -1.21875 -0.625 -1.828125q-0.78125 -0.953125 -2.03125 -0.953125q-1.125 0 -1.90625 0.765625q-0.765625 0.75 -0.84375 2.015625z" fill-rule="nonzero"/><path fill="#000000" fill-opacity="0.0" d="m34.866142 -34.719395l554.2677 0l0 90.48819l-554.2677 0z" fill-rule="evenodd"/><path fill="#fbbc04" d="m52.631767 18.390606l-2.671875 0l0 3.75l-4.0625 0l0 2.046875l4.0625 0l0 8.421875q0 1.4375 0.375 2.453125q0.390625 1.0 1.046875 1.640625q0.65625 0.640625 1.546875 0.9375q0.90625 0.28125 1.9375 0.28125q0.609375 0 1.234375 -0.0625q0.625 -0.046875 1.1875 -0.15625q0.5625 -0.109375 1.03125 -0.25q0.46875 -0.15625 0.796875 -0.359375l-0.375 -1.875q-0.234375 0.0625 -0.625 0.140625q-0.375 0.078125 -0.796875 0.140625q-0.453125 0.078125 -0.90625 0.125q-0.453125 0.046875 -0.890625 0.046875q-0.59375 0 -1.109375 -0.140625q-0.515625 -0.140625 -0.921875 -0.5q-0.40625 -0.34375 -0.640625 -0.921875q-0.21875 -0.59375 -0.21875 -1.5l0 -8.421875l5.90625 0l0 -2.046875l-5.90625 0l0 -3.75zm12.568497 25.515625q1.046875 0 1.84375 -0.390625q0.8125 -0.390625 1.40625 -0.96875q0.609375 -0.5625 1.03125 -1.234375q0.421875 -0.671875 0.6875 -1.28125l7.859375 -17.890625l-2.953125 0l-4.0 10.0625l-0.734375 1.8125l-0.6875 -1.875l-4.25 -10.0l-2.96875 0l6.671875 14.765625l-1.046875 2.0625q-0.15625 0.296875 -0.40625 0.734375q-0.25 0.4375 -0.59375 0.859375q-0.359375 0.421875 -0.8125 0.71875q-0.4375 0.296875 -0.984375 0.296875q-0.203125 0 -0.5625 -0.03125q-0.34375 -0.015625 -0.703125 -0.046875l-0.421875 2.171875q0.25 0.0625 0.75 0.140625q0.5 0.09375 0.875 0.09375zm16.349747 -0.3125l2.640625 0l0 -7.4375q0.28125 0.3125 0.609375 0.578125q0.34375 0.265625 0.703125 0.484375q0.625 0.34375 1.390625 0.515625q0.765625 0.1875 1.65625 0.1875q1.453125 0 2.59375 -0.59375q1.140625 -0.609375 1.90625 -1.65625q0.78125 -1.0625 1.171875 -2.5q0.40625 -1.453125 0.40625 -3.109375l0 -0.296875q0 -1.734375 -0.40625 -3.1875q-0.390625 -1.453125 -1.171875 -2.5q-0.765625 -1.046875 -1.921875 -1.625q-1.140625 -0.59375 -2.625 -0.59375q-0.84375 0 -1.578125 0.1875q-0.734375 0.171875 -1.34375 0.515625q-0.421875 0.234375 -0.796875 0.5625q-0.375 0.3125 -0.6875 0.703125l-0.140625 -1.6875l-2.40625 0l0 21.453125zm10.4375 -13.828125l0 0.296875q0 1.140625 -0.25 2.171875q-0.25 1.03125 -0.765625 1.8125q-0.515625 0.78125 -1.328125 1.25q-0.796875 0.46875 -1.90625 0.46875q-0.6875 0 -1.25 -0.171875q-0.5625 -0.171875 -1.015625 -0.46875q-0.40625 -0.265625 -0.71875 -0.625q-0.3125 -0.375 -0.5625 -0.8125l0 -7.453125q0.28125 -0.5 0.625 -0.890625q0.359375 -0.40625 0.828125 -0.671875q0.40625 -0.28125 0.921875 -0.421875q0.53125 -0.140625 1.15625 -0.140625q1.109375 0 1.90625 0.46875q0.8125 0.453125 1.34375 1.21875q0.515625 0.78125 0.765625 1.8125q0.25 1.03125 0.25 2.15625zm14.021622 8.15625q2.25 0 3.78125 -0.90625q1.546875 -0.90625 2.328125 -2.078125l-1.625 -1.265625q-0.71875 0.953125 -1.828125 1.53125q-1.109375 0.5625 -2.515625 0.5625q-1.078125 0 -1.96875 -0.390625q-0.890625 -0.40625 -1.515625 -1.109375q-0.609375 -0.65625 -0.96875 -1.515625q-0.34375 -0.859375 -0.453125 -2.0l0 -0.09375l11.078125 0l0 -1.1875q0 -1.625 -0.421875 -3.015625q-0.40625 -1.390625 -1.234375 -2.421875q-0.828125 -1.015625 -2.078125 -1.59375q-1.25 -0.578125 -2.921875 -0.578125q-1.34375 0 -2.609375 0.546875q-1.265625 0.546875 -2.25 1.5625q-1.0 1.03125 -1.609375 2.515625q-0.59375 1.46875 -0.59375 3.359375l0 0.59375q0 1.625 0.53125 3.0q0.546875 1.375 1.53125 2.375q0.96875 1.0 2.328125 1.5625q1.375 0.546875 3.015625 0.546875zm-0.34375 -13.890625q1.015625 0 1.75 0.375q0.734375 0.375 1.21875 0.96875q0.484375 0.609375 0.75 1.4375q0.28125 0.8125 0.28125 1.53125l0 0.125l-8.328125 0q0.15625 -1.0625 0.546875 -1.890625q0.390625 -0.828125 0.96875 -1.390625q0.578125 -0.5625 1.28125 -0.859375q0.71875 -0.296875 1.53125 -0.296875zm42.74636 -4.984375l0 -2.25l-15.453125 0l0 2.25l6.4375 0l0 18.59375l2.578125 0l0 -18.59375l6.4375 0zm30.418243 -3.0625l0 -2.171875l-5.671875 0l0 28.296875l5.671875 0l0 -2.171875l-3.15625 0l0 -23.953125l3.15625 0z" fill-rule="nonzero"/><path fill="#000000" d="m197.36723 37.640606l2.40625 0l0 -15.5l-2.671875 0l0 11.125q-0.203125 0.5 -0.53125 0.921875q-0.328125 0.421875 -0.75 0.71875q-0.515625 0.375 -1.21875 0.578125q-0.703125 0.203125 -1.59375 0.203125q-0.75 0 -1.328125 -0.1875q-0.578125 -0.203125 -0.984375 -0.703125q-0.40625 -0.5 -0.609375 -1.328125q-0.1875 -0.828125 -0.1875 -2.09375l0 -9.234375l-2.65625 0l0 9.21875q0 1.734375 0.375 2.96875q0.390625 1.234375 1.078125 2.03125q0.703125 0.8125 1.6875 1.1875q1.0 0.375 2.21875 0.375q1.515625 0 2.671875 -0.625q1.15625 -0.640625 1.9375 -1.796875l0.15625 2.140625zm7.3809967 0l2.65625 0l0 -11.109375q0.265625 -0.5 0.625 -0.90625q0.375 -0.421875 0.8125 -0.75q0.53125 -0.359375 1.15625 -0.5625q0.625 -0.203125 1.359375 -0.203125q0.84375 0 1.484375 0.203125q0.65625 0.203125 1.125 0.640625q0.4375 0.4375 0.671875 1.15625q0.234375 0.71875 0.234375 1.75l0 9.78125l2.640625 0l0 -9.84375q0 -1.546875 -0.375 -2.671875q-0.375 -1.125 -1.078125 -1.84375q-0.703125 -0.734375 -1.703125 -1.078125q-1.0 -0.34375 -2.21875 -0.34375q-0.890625 0.015625 -1.703125 0.265625q-0.8125 0.25 -1.5 0.703125q-0.453125 0.3125 -0.859375 0.71875q-0.40625 0.40625 -0.75 0.890625l-0.1875 -2.296875l-2.390625 0l0 15.5zm27.896622 -4.109375q0 0.375 -0.140625 0.703125q-0.140625 0.328125 -0.40625 0.59375q-0.453125 0.453125 -1.25 0.703125q-0.78125 0.25 -1.828125 0.25q-0.671875 0 -1.359375 -0.140625q-0.6875 -0.140625 -1.25 -0.484375q-0.578125 -0.34375 -0.953125 -0.90625q-0.375 -0.5625 -0.4375 -1.375l-2.65625 0q0 0.984375 0.453125 1.90625q0.453125 0.90625 1.3125 1.59375q0.84375 0.703125 2.078125 1.125q1.234375 0.421875 2.8125 0.421875q1.375 0 2.53125 -0.328125q1.15625 -0.328125 1.984375 -0.921875q0.828125 -0.609375 1.296875 -1.453125q0.46875 -0.84375 0.46875 -1.875q0 -0.953125 -0.40625 -1.6875q-0.40625 -0.734375 -1.1875 -1.296875q-0.765625 -0.53125 -1.90625 -0.921875q-1.125 -0.40625 -2.5625 -0.703125q-1.078125 -0.21875 -1.796875 -0.4375q-0.703125 -0.234375 -1.125 -0.515625q-0.421875 -0.296875 -0.59375 -0.65625q-0.171875 -0.359375 -0.171875 -0.8125q0 -0.4375 0.203125 -0.859375q0.21875 -0.421875 0.65625 -0.734375q0.40625 -0.3125 1.046875 -0.5q0.640625 -0.1875 1.484375 -0.1875q0.8125 0 1.46875 0.234375q0.65625 0.234375 1.109375 0.59375q0.453125 0.375 0.703125 0.859375q0.265625 0.484375 0.265625 0.984375l2.65625 0q0 -1.015625 -0.4375 -1.890625q-0.4375 -0.890625 -1.234375 -1.546875q-0.8125 -0.65625 -1.953125 -1.03125q-1.140625 -0.375 -2.578125 -0.375q-1.328125 0 -2.4375 0.359375q-1.109375 0.359375 -1.921875 0.96875q-0.796875 0.625 -1.25 1.453125q-0.4375 0.8125 -0.4375 1.765625q0 0.953125 0.421875 1.6875q0.4375 0.71875 1.234375 1.234375q0.765625 0.546875 1.859375 0.9375q1.09375 0.390625 2.4375 0.65625q1.078125 0.21875 1.8125 0.484375q0.734375 0.265625 1.171875 0.578125q0.453125 0.3125 0.625 0.703125q0.1875 0.375 0.1875 0.84375zm17.490372 4.109375l2.765625 0l0 -0.234375q-0.265625 -0.640625 -0.40625 -1.5q-0.140625 -0.875 -0.140625 -1.640625l0 -7.203125q0 -1.3125 -0.46875 -2.28125q-0.46875 -0.96875 -1.296875 -1.640625q-0.828125 -0.640625 -1.96875 -0.953125q-1.125 -0.328125 -2.4375 -0.328125q-1.4375 0 -2.578125 0.40625q-1.140625 0.390625 -1.9375 1.046875q-0.796875 0.65625 -1.21875 1.46875q-0.421875 0.8125 -0.4375 1.65625l2.671875 0q0 -0.484375 0.234375 -0.9375q0.234375 -0.453125 0.65625 -0.78125q0.4375 -0.328125 1.0625 -0.515625q0.625 -0.203125 1.40625 -0.203125q0.84375 0 1.515625 0.21875q0.6875 0.203125 1.15625 0.59375q0.484375 0.390625 0.734375 0.953125q0.265625 0.5625 0.265625 1.265625l0 1.21875l-2.90625 0q-1.609375 0 -2.921875 0.3125q-1.3125 0.3125 -2.234375 0.9375q-0.9375 0.65625 -1.453125 1.609375q-0.5 0.953125 -0.5 2.234375q0 0.96875 0.375 1.8125q0.390625 0.84375 1.078125 1.4375q0.6875 0.625 1.6875 0.984375q1.0 0.34375 2.234375 0.34375q0.75 0 1.421875 -0.15625q0.671875 -0.15625 1.28125 -0.421875q0.578125 -0.28125 1.078125 -0.625q0.5 -0.359375 0.890625 -0.765625q0.046875 0.484375 0.140625 0.9375q0.09375 0.453125 0.25 0.75zm-4.6875 -2.015625q-0.765625 0 -1.359375 -0.203125q-0.578125 -0.203125 -0.96875 -0.5625q-0.390625 -0.34375 -0.578125 -0.828125q-0.1875 -0.484375 -0.1875 -1.0625q0 -0.59375 0.21875 -1.0625q0.21875 -0.484375 0.640625 -0.828125q0.609375 -0.484375 1.625 -0.71875q1.03125 -0.234375 2.40625 -0.234375l2.46875 0l0 3.140625q-0.234375 0.453125 -0.640625 0.875q-0.390625 0.421875 -0.9375 0.75q-0.5625 0.328125 -1.234375 0.53125q-0.671875 0.203125 -1.453125 0.203125zm16.052887 2.015625l2.671875 0l0 -13.453125l5.96875 0l0 -2.046875l-5.96875 0l0 -1.078125q0 -0.984375 0.25 -1.703125q0.25 -0.734375 0.734375 -1.1875q0.453125 -0.453125 1.140625 -0.671875q0.703125 -0.21875 1.609375 -0.21875q0.890625 0 1.671875 0.15625q0.78125 0.140625 1.359375 0.34375l0.328125 -2.1875q-0.375 -0.109375 -0.734375 -0.1875q-0.359375 -0.078125 -0.71875 -0.140625q-0.546875 -0.109375 -1.109375 -0.171875q-0.546875 -0.0625 -1.125 -0.0625q-1.375 0 -2.5 0.390625q-1.109375 0.375 -1.890625 1.140625q-0.8125 0.75 -1.25 1.875q-0.4375 1.125 -0.4375 2.625l0 1.078125l-4.265625 0l0 2.046875l4.265625 0l0 13.453125zm20.505981 0.28125q2.25 0 3.78125 -0.90625q1.546875 -0.90625 2.328125 -2.078125l-1.625 -1.265625q-0.71875 0.953125 -1.828125 1.53125q-1.109375 0.5625 -2.515625 0.5625q-1.078125 0 -1.96875 -0.390625q-0.890625 -0.40625 -1.515625 -1.109375q-0.609375 -0.65625 -0.96875 -1.515625q-0.34375 -0.859375 -0.453125 -2.0l0 -0.09375l11.078125 0l0 -1.1875q0 -1.625 -0.421875 -3.015625q-0.40625 -1.390625 -1.234375 -2.421875q-0.828125 -1.015625 -2.078125 -1.59375q-1.25 -0.578125 -2.921875 -0.578125q-1.34375 0 -2.609375 0.546875q-1.265625 0.546875 -2.25 1.5625q-1.0 1.03125 -1.609375 2.515625q-0.59375 1.46875 -0.59375 3.359375l0 0.59375q0 1.625 0.53125 3.0q0.546875 1.375 1.53125 2.375q0.96875 1.0 2.328125 1.5625q1.375 0.546875 3.015625 0.546875zm-0.34375 -13.890625q1.015625 0 1.75 0.375q0.734375 0.375 1.21875 0.96875q0.484375 0.609375 0.75 1.4375q0.28125 0.8125 0.28125 1.53125l0 0.125l-8.328125 0q0.15625 -1.0625 0.546875 -1.890625q0.390625 -0.828125 0.96875 -1.390625q0.578125 -0.5625 1.28125 -0.859375q0.71875 -0.296875 1.53125 -0.296875zm15.709137 11.890625q0 0.828125 0.515625 1.40625q0.515625 0.578125 1.546875 0.578125q1.03125 0 1.5625 -0.5625q0.546875 -0.578125 0.546875 -1.421875q0 -0.859375 -0.546875 -1.453125q-0.53125 -0.59375 -1.5625 -0.59375q-1.03125 0 -1.546875 0.609375q-0.515625 0.59375 -0.515625 1.4375zm23.896637 -3.546875q0 0.859375 -0.375 1.484375q-0.375 0.609375 -0.953125 1.015625q-0.59375 0.421875 -1.34375 0.609375q-0.75 0.1875 -1.53125 0.1875q-0.96875 0 -1.796875 -0.25q-0.8125 -0.265625 -1.453125 -0.796875q-0.625 -0.515625 -1.03125 -1.265625q-0.390625 -0.765625 -0.53125 -1.734375l-2.703125 0q0.046875 1.34375 0.59375 2.4375q0.546875 1.09375 1.5 1.921875q1.0625 0.9375 2.5 1.4375q1.4375 0.5 2.921875 0.5q1.25 0 2.5 -0.34375q1.25 -0.359375 2.234375 -1.046875q0.984375 -0.6875 1.609375 -1.734375q0.625 -1.046875 0.625 -2.453125q0 -1.390625 -0.59375 -2.453125q-0.578125 -1.0625 -1.515625 -1.78125q-0.953125 -0.796875 -2.125 -1.296875q-1.15625 -0.515625 -2.3125 -0.875q-0.703125 -0.21875 -1.5 -0.5q-0.796875 -0.28125 -1.46875 -0.71875q-0.6875 -0.421875 -1.140625 -1.046875q-0.4375 -0.625 -0.453125 -1.53125q0 -0.828125 0.34375 -1.453125q0.34375 -0.625 0.90625 -1.0625q0.5625 -0.421875 1.28125 -0.640625q0.71875 -0.21875 1.484375 -0.21875q0.953125 0 1.703125 0.296875q0.75 0.296875 1.296875 0.828125q0.53125 0.515625 0.859375 1.265625q0.34375 0.734375 0.453125 1.640625l2.71875 0q-0.03125 -1.4375 -0.625 -2.59375q-0.578125 -1.171875 -1.546875 -1.984375q-0.984375 -0.8125 -2.25 -1.265625q-1.25 -0.453125 -2.609375 -0.453125q-1.234375 0 -2.453125 0.390625q-1.21875 0.375 -2.171875 1.109375q-0.953125 0.71875 -1.546875 1.78125q-0.59375 1.0625 -0.59375 2.40625q0 1.34375 0.59375 2.34375q0.59375 1.0 1.53125 1.71875q0.9375 0.71875 2.0625 1.234375q1.140625 0.5 2.25 0.859375q0.765625 0.25 1.578125 0.546875q0.828125 0.296875 1.515625 0.75q0.6875 0.453125 1.125 1.109375q0.4375 0.65625 0.4375 1.625zm7.0997314 -10.234375l0 2.3125l5.265625 0l0 10.890625l-5.265625 0l0 2.296875l12.96875 0l0 -2.296875l-5.046875 0l0 -13.203125l-7.921875 0zm4.921875 -4.0625q0 0.640625 0.390625 1.078125q0.40625 0.421875 1.203125 0.421875q0.78125 0 1.1875 -0.421875q0.40625 -0.4375 0.40625 -1.078125q0 -0.359375 -0.125 -0.65625q-0.109375 -0.296875 -0.34375 -0.5q-0.171875 -0.1875 -0.46875 -0.296875q-0.28125 -0.109375 -0.65625 -0.109375q-0.375 0 -0.671875 0.109375q-0.28125 0.109375 -0.46875 0.296875q-0.234375 0.21875 -0.34375 0.515625q-0.109375 0.296875 -0.109375 0.640625zm15.443481 17.40625l9.34375 -11.46875l0 -1.875l-12.59375 0l0 2.203125l9.125 0l-9.25 11.34375l0 1.953125l13.234375 0l0 -2.15625l-9.859375 0zm21.271637 2.4375q2.25 0 3.78125 -0.90625q1.546875 -0.90625 2.328125 -2.078125l-1.625 -1.265625q-0.71875 0.953125 -1.828125 1.53125q-1.109375 0.5625 -2.515625 0.5625q-1.078125 0 -1.96875 -0.390625q-0.890625 -0.40625 -1.515625 -1.109375q-0.609375 -0.65625 -0.96875 -1.515625q-0.34375 -0.859375 -0.453125 -2.0l0 -0.09375l11.078125 0l0 -1.1875q0 -1.625 -0.421875 -3.015625q-0.40625 -1.390625 -1.234375 -2.421875q-0.828125 -1.015625 -2.078125 -1.59375q-1.25 -0.578125 -2.921875 -0.578125q-1.34375 0 -2.609375 0.546875q-1.265625 0.546875 -2.25 1.5625q-1.0 1.03125 -1.609375 2.515625q-0.59375 1.46875 -0.59375 3.359375l0 0.59375q0 1.625 0.53125 3.0q0.546875 1.375 1.53125 2.375q0.96875 1.0 2.328125 1.5625q1.375 0.546875 3.015625 0.546875zm-0.34375 -13.890625q1.015625 0 1.75 0.375q0.734375 0.375 1.21875 0.96875q0.484375 0.609375 0.75 1.4375q0.28125 0.8125 0.28125 1.53125l0 0.125l-8.328125 0q0.15625 -1.0625 0.546875 -1.890625q0.390625 -0.828125 0.96875 -1.390625q0.578125 -0.5625 1.28125 -0.859375q0.71875 -0.296875 1.53125 -0.296875zm10.349762 5.71875l0 0.3125q0 1.671875 0.484375 3.109375q0.484375 1.4375 1.40625 2.5q0.90625 1.046875 2.203125 1.65625q1.3125 0.59375 2.96875 0.59375q1.625 0 2.921875 -0.59375q1.3125 -0.609375 2.234375 -1.65625q0.890625 -1.0625 1.375 -2.5q0.5 -1.4375 0.5 -3.109375l0 -0.3125q0 -1.671875 -0.5 -3.109375q-0.484375 -1.4375 -1.375 -2.5q-0.921875 -1.0625 -2.234375 -1.671875q-1.3125 -0.609375 -2.953125 -0.609375q-1.640625 0 -2.9375 0.609375q-1.296875 0.609375 -2.203125 1.671875q-0.921875 1.0625 -1.40625 2.5q-0.484375 1.4375 -0.484375 3.109375zm2.640625 0.3125l0 -0.3125q0 -1.125 0.265625 -2.15625q0.28125 -1.046875 0.84375 -1.84375q0.546875 -0.78125 1.359375 -1.25q0.8125 -0.46875 1.921875 -0.46875q1.09375 0 1.921875 0.46875q0.828125 0.46875 1.390625 1.25q0.53125 0.796875 0.8125 1.84375q0.28125 1.03125 0.28125 2.15625l0 0.3125q0 1.140625 -0.28125 2.1875q-0.265625 1.03125 -0.8125 1.828125q-0.546875 0.78125 -1.375 1.25q-0.828125 0.453125 -1.90625 0.453125q-1.109375 0 -1.9375 -0.453125q-0.828125 -0.46875 -1.375 -1.25q-0.5625 -0.796875 -0.84375 -1.828125q-0.265625 -1.046875 -0.265625 -2.1875zm19.646606 7.578125l2.671875 0l0 -13.453125l5.96875 0l0 -2.046875l-5.96875 0l0 -1.078125q0 -0.984375 0.25 -1.703125q0.25 -0.734375 0.734375 -1.1875q0.453125 -0.453125 1.140625 -0.671875q0.703125 -0.21875 1.609375 -0.21875q0.890625 0 1.671875 0.15625q0.78125 0.140625 1.359375 0.34375l0.328125 -2.1875q-0.375 -0.109375 -0.734375 -0.1875q-0.359375 -0.078125 -0.71875 -0.140625q-0.546875 -0.109375 -1.109375 -0.171875q-0.546875 -0.0625 -1.125 -0.0625q-1.375 0 -2.5 0.390625q-1.109375 0.375 -1.890625 1.140625q-0.8125 0.75 -1.25 1.875q-0.4375 1.125 -0.4375 2.625l0 1.078125l-4.265625 0l0 2.046875l4.265625 0l0 13.453125zm16.271606 -8.46875l0 0.15625q0 2.046875 0.3125 3.859375q0.328125 1.796875 0.875 3.328125q0.53125 1.546875 1.234375 2.8125q0.71875 1.265625 1.5 2.25q0.78125 1.0 1.578125 1.6875q0.796875 0.703125 1.5 1.109375l0.5625 -1.625q-0.578125 -0.46875 -1.171875 -1.140625q-0.578125 -0.65625 -1.125 -1.515625q-0.515625 -0.90625 -1.015625 -2.046875q-0.484375 -1.140625 -0.859375 -2.46875q-0.34375 -1.3125 -0.546875 -2.875q-0.1875 -1.5625 -0.1875 -3.359375l0 -0.1875q0 -1.875 0.203125 -3.484375q0.21875 -1.625 0.609375 -2.96875q0.40625 -1.484375 1.0 -2.734375q0.609375 -1.265625 1.265625 -2.1875q0.4375 -0.609375 0.90625 -1.09375q0.46875 -0.484375 0.921875 -0.828125l-0.5625 -1.75q-0.703125 0.40625 -1.5 1.109375q-0.78125 0.703125 -1.5625 1.6875q-0.78125 0.984375 -1.5 2.265625q-0.703125 1.265625 -1.25 2.796875q-0.546875 1.546875 -0.875 3.359375q-0.3125 1.796875 -0.3125 3.84375zm29.037262 -10.125l0 -2.25l-15.453125 0l0 2.25l6.4375 0l0 18.59375l2.578125 0l0 -18.59375l6.4375 0zm15.052887 23.828125l0.3125 -1.640625q-0.890625 -0.03125 -1.46875 -0.484375q-0.578125 -0.453125 -0.921875 -1.171875q-0.359375 -0.703125 -0.515625 -1.59375q-0.140625 -0.875 -0.140625 -1.765625l0 -2.421875q-0.015625 -1.703125 -0.796875 -3.0q-0.78125 -1.296875 -2.453125 -1.953125q1.671875 -0.671875 2.453125 -1.96875q0.796875 -1.296875 0.796875 -3.015625l0 -2.421875q0 -0.875 0.078125 -1.765625q0.09375 -0.890625 0.40625 -1.609375q0.3125 -0.703125 0.921875 -1.15625q0.609375 -0.453125 1.640625 -0.484375l-0.3125 -1.65625q-1.4375 0.046875 -2.453125 0.625q-1.015625 0.578125 -1.65625 1.5q-0.671875 0.953125 -0.984375 2.171875q-0.296875 1.203125 -0.296875 2.375l0 2.421875q0 2.078125 -0.984375 3.0q-0.984375 0.921875 -3.0 0.921875l0 2.078125q2.015625 0.015625 3.0 0.953125q0.984375 0.921875 0.984375 2.984375l0 2.421875q0 1.15625 0.328125 2.3125q0.328125 1.171875 0.96875 2.109375q0.671875 1.0 1.6875 1.59375q1.015625 0.609375 2.40625 0.640625zm8.224731 -1.640625l0.296875 1.640625q1.40625 -0.015625 2.421875 -0.640625q1.015625 -0.609375 1.6875 -1.578125q0.65625 -0.953125 0.96875 -2.125q0.328125 -1.15625 0.328125 -2.3125l0 -2.421875q0 -1.0 0.21875 -1.71875q0.234375 -0.734375 0.703125 -1.21875q0.5 -0.515625 1.265625 -0.75q0.765625 -0.234375 1.796875 -0.25l0 -2.078125q-1.1875 0 -2.03125 -0.296875q-0.828125 -0.3125 -1.296875 -0.984375q-0.328125 -0.46875 -0.5 -1.125q-0.15625 -0.65625 -0.15625 -1.515625l0 -2.421875q0 -1.203125 -0.328125 -2.4375q-0.3125 -1.234375 -1.046875 -2.21875q-0.640625 -0.875 -1.640625 -1.421875q-1.0 -0.546875 -2.390625 -0.59375l-0.28125 1.65625q1.03125 0.03125 1.625 0.484375q0.609375 0.453125 0.921875 1.15625q0.296875 0.71875 0.390625 1.609375q0.09375 0.890625 0.09375 1.765625l0 2.421875q0 1.125 0.328125 2.078125q0.328125 0.953125 1.015625 1.671875q0.359375 0.375 0.84375 0.703125q0.484375 0.3125 1.046875 0.53125q-0.546875 0.234375 -1.015625 0.53125q-0.46875 0.296875 -0.84375 0.671875q-0.703125 0.703125 -1.046875 1.671875q-0.328125 0.953125 -0.328125 2.078125l0 2.421875q0 0.890625 -0.15625 1.765625q-0.140625 0.890625 -0.484375 1.59375q-0.359375 0.71875 -0.953125 1.171875q-0.578125 0.453125 -1.453125 0.484375zm25.130981 -11.90625l0 -0.15625q0 -2.1875 -0.34375 -3.9375q-0.328125 -1.75 -0.84375 -3.265625q-0.53125 -1.5625 -1.234375 -2.796875q-0.703125 -1.25 -1.5 -2.265625q-0.78125 -0.984375 -1.578125 -1.6875q-0.796875 -0.703125 -1.515625 -1.109375l-0.5625 1.625q0.484375 0.375 0.984375 0.9375q0.5 0.546875 0.96875 1.28125q0.609375 0.921875 1.1875 2.1875q0.59375 1.25 1.015625 2.828125q0.28125 1.09375 0.515625 2.671875q0.25 1.578125 0.25 3.515625l0 0.1875q0 1.703125 -0.1875 3.203125q-0.171875 1.5 -0.5 2.78125q-0.328125 1.390625 -0.828125 2.5625q-0.484375 1.171875 -1.015625 2.09375q-0.546875 0.921875 -1.171875 1.625q-0.609375 0.703125 -1.21875 1.140625l0.5625 1.625q0.71875 -0.40625 1.515625 -1.109375q0.796875 -0.6875 1.578125 -1.6875q0.765625 -0.984375 1.46875 -2.25q0.71875 -1.265625 1.265625 -2.8125q0.546875 -1.53125 0.859375 -3.328125q0.328125 -1.8125 0.328125 -3.859375z" fill-rule="nonzero"/><path fill="#fbbc04" d="m507.2564 13.812481l0 2.171875l3.1875 0l0 23.953125l-3.1875 0l0 2.171875l5.6875 0l0 -28.296875l-5.6875 0z" fill-rule="nonzero"/><path fill="#000000" d="m521.9655 22.140606l0 2.3125l5.265625 0l0 10.890625l-5.265625 0l0 2.296875l12.96875 0l0 -2.296875l-5.046875 0l0 -13.203125l-7.921875 0zm4.921875 -4.0625q0 0.640625 0.390625 1.078125q0.40625 0.421875 1.203125 0.421875q0.78125 0 1.1875 -0.421875q0.40625 -0.4375 0.40625 -1.078125q0 -0.359375 -0.125 -0.65625q-0.109375 -0.296875 -0.34375 -0.5q-0.171875 -0.1875 -0.46875 -0.296875q-0.28125 -0.109375 -0.65625 -0.109375q-0.375 0 -0.671875 0.109375q-0.28125 0.109375 -0.46875 0.296875q-0.234375 0.21875 -0.34375 0.515625q-0.109375 0.296875 -0.109375 0.640625zm12.255981 19.5625l2.65625 0l0 -11.109375q0.265625 -0.5 0.625 -0.90625q0.375 -0.421875 0.8125 -0.75q0.53125 -0.359375 1.15625 -0.5625q0.625 -0.203125 1.359375 -0.203125q0.84375 0 1.484375 0.203125q0.65625 0.203125 1.125 0.640625q0.4375 0.4375 0.671875 1.15625q0.234375 0.71875 0.234375 1.75l0 9.78125l2.640625 0l0 -9.84375q0 -1.546875 -0.375 -2.671875q-0.375 -1.125 -1.078125 -1.84375q-0.703125 -0.734375 -1.703125 -1.078125q-1.0 -0.34375 -2.21875 -0.34375q-0.890625 0.015625 -1.703125 0.265625q-0.8125 0.25 -1.5 0.703125q-0.453125 0.3125 -0.859375 0.71875q-0.40625 0.40625 -0.75 0.890625l-0.1875 -2.296875l-2.390625 0l0 15.5zm23.880981 -19.25l-2.671875 0l0 3.75l-4.0625 0l0 2.046875l4.0625 0l0 8.421875q0 1.4375 0.375 2.453125q0.390625 1.0 1.046875 1.640625q0.65625 0.640625 1.546875 0.9375q0.90625 0.28125 1.9375 0.28125q0.609375 0 1.234375 -0.0625q0.625 -0.046875 1.1875 -0.15625q0.5625 -0.109375 1.03125 -0.25q0.46875 -0.15625 0.796875 -0.359375l-0.375 -1.875q-0.234375 0.0625 -0.625 0.140625q-0.375 0.078125 -0.796875 0.140625q-0.453125 0.078125 -0.90625 0.125q-0.453125 0.046875 -0.890625 0.046875q-0.59375 0 -1.109375 -0.140625q-0.515625 -0.140625 -0.921875 -0.5q-0.40625 -0.34375 -0.640625 -0.921875q-0.21875 -0.59375 -0.21875 -1.5l0 -8.421875l5.90625 0l0 -2.046875l-5.90625 0l0 -3.75z" fill-rule="nonzero"/><path fill="#000000" fill-opacity="0.0" d="m337.66928 105.96302l86.031494 0l0 0.06299591l86.031494 0" fill-rule="evenodd"/><path stroke="#000000" stroke-width="2.0" stroke-linejoin="round" stroke-linecap="butt" d="m345.2493 105.96302l78.45148 0l0 0.06298828l78.45151 0" fill-rule="evenodd"/><path fill="#000000" stroke="#000000" stroke-width="2.0" stroke-linecap="butt" d="m345.2493 109.25302l-6.580017 0l0 -6.580002l6.580017 0l0 6.580002z" fill-rule="nonzero"/><path stroke="#000000" stroke-width="2.0" stroke-linecap="butt" d="m508.73227 106.02601c0 1.8170166 -1.4729614 3.290001 -3.289978 3.290001c-1.8170166 0 -3.2900085 -1.4729843 -3.2900085 -3.290001c0 -1.8170166 1.472992 -3.290001 3.2900085 -3.290001c1.8170166 0 3.289978 1.4729843 3.289978 3.290001z" fill-rule="nonzero"/><path fill="#000000" fill-opacity="0.0" d="m337.66928 205.02339l86.031494 0l0 0.06298828l86.031494 0" fill-rule="evenodd"/><path stroke="#000000" stroke-width="2.0" stroke-linejoin="round" stroke-linecap="butt" d="m345.2493 205.02339l78.45148 0l0 0.06300354l78.45151 0" fill-rule="evenodd"/><path fill="#000000" stroke="#000000" stroke-width="2.0" stroke-linecap="butt" d="m345.2493 208.3134l-6.580017 0l0 -6.580002l6.580017 0l0 6.580002z" fill-rule="nonzero"/><path stroke="#000000" stroke-width="2.0" stroke-linecap="butt" d="m508.73227 205.0864c0 1.8170166 -1.4729614 3.2899933 -3.289978 3.2899933c-1.8170166 0 -3.2900085 -1.4729767 -3.2900085 -3.2899933c0 -1.8170166 1.472992 -3.2900085 3.2900085 -3.2900085c1.8170166 0 3.289978 1.472992 3.289978 3.2900085z" fill-rule="nonzero"/><path fill="#000000" fill-opacity="0.0" d="m510.12598 161.40659l57.88977 0l0 42.015747l-57.88977 0z" fill-rule="evenodd"/><path fill="#000000" d="m522.8135 184.38908l0 -0.890625q0 -0.65625 0.15625 -1.125q0.171875 -0.484375 0.53125 -0.921875q0.359375 -0.4375 0.9375 -0.984375q0.421875 -0.375 0.734375 -0.703125q0.3125 -0.34375 0.484375 -0.71875q0.1875 -0.375 0.1875 -0.875q0 -0.875 -0.578125 -1.421875q-0.5625 -0.5625 -1.609375 -0.5625q-0.671875 0 -1.140625 0.28125q-0.46875 0.28125 -0.75 0.703125q-0.265625 0.421875 -0.421875 0.859375l-1.453125 -0.609375q0.203125 -0.59375 0.671875 -1.21875q0.46875 -0.640625 1.234375 -1.078125q0.765625 -0.453125 1.859375 -0.453125q1.140625 0 1.984375 0.453125q0.859375 0.453125 1.328125 1.25q0.484375 0.796875 0.484375 1.796875q0 0.796875 -0.328125 1.40625q-0.328125 0.609375 -0.765625 1.0625q-0.421875 0.4375 -0.734375 0.734375q-0.40625 0.34375 -0.671875 0.6875q-0.25 0.328125 -0.390625 0.703125q-0.125 0.375 -0.125 0.84375l0 0.78125l-1.625 0zm0.828125 4.046875q-0.5 0 -0.84375 -0.34375q-0.34375 -0.34375 -0.34375 -0.84375q0 -0.484375 0.34375 -0.828125q0.34375 -0.34375 0.84375 -0.34375q0.484375 0 0.828125 0.34375q0.34375 0.34375 0.34375 0.828125q0 0.5 -0.34375 0.84375q-0.34375 0.34375 -0.828125 0.34375z" fill-rule="nonzero"/><path fill="#000000" fill-opacity="0.0" d="m337.66928 182.38297l86.031494 0l0 0.06298828l86.031494 0" fill-rule="evenodd"/><path stroke="#000000" stroke-width="2.0" stroke-linejoin="round" stroke-linecap="butt" stroke-dasharray="8.0,6.0" d="m345.2493 182.38298l78.45148 0l0 0.06298828l74.031494 0" fill-rule="evenodd"/><path fill="#000000" stroke="#000000" stroke-width="2.0" stroke-linecap="butt" d="m345.2493 185.67297l-6.580017 0l0 -6.580002l6.580017 0l0 6.580002z" fill-rule="nonzero"/><path fill="#000000" stroke="#000000" stroke-width="2.0" stroke-linecap="butt" d="m497.73227 185.74944l9.076202 -3.3034668l-9.076202 -3.3034668z" fill-rule="evenodd"/></g></svg>