<svg version="1.1" viewBox="0.0 0.0 624.0 144.0" fill="none" stroke="none" stroke-linecap="square" stroke-miterlimit="10" xmlns:xlink="http://www.w3.org/1999/xlink" xmlns="http://www.w3.org/2000/svg"><clipPath id="p.0"><path d="m0 0l624.0 0l0 144.0l-624.0 0l0 -144.0z" clip-rule="nonzero"/></clipPath><g clip-path="url(#p.0)"><path fill="#000000" fill-opacity="0.0" d="m0 0l624.0 0l0 144.0l-624.0 0z" fill-rule="evenodd"/><path fill="#000000" fill-opacity="0.0" d="m11.496063 -21.23583l601.00793 0l0 90.48819l-601.00793 0z" fill-rule="evenodd"/><path fill="#f4cccc" d="m161.29404 22.96417l246.39642 0l0 35.199997l-246.39642 0l0 -35.199997z" fill-rule="nonzero"/><path fill="#d9ead3" d="m407.69046 22.96417l87.99878 0l0 35.199997l-87.99878 0l0 -35.199997z" fill-rule="nonzero"/><path fill="#f4cccc" d="m495.68924 22.96417l17.5997 0l0 35.199997l-17.5997 0l0 -35.199997z" fill-rule="nonzero"/><path fill="#fbbc04" d="m29.261688 31.87417l-2.671875 0l0 3.749998l-4.0625 0l0 2.046875l4.0625 0l0 8.421875q0 1.4375 0.375 2.453125q0.390625 1.0 1.046875 1.640625q0.65625 0.640625 1.546875 0.9375q0.90625 0.28125 1.9375 0.28125q0.609375 0 1.234375 -0.0625q0.625 -0.046875 1.1875 -0.15625q0.5625 -0.109375 1.03125 -0.25q0.46875 -0.15625 0.796875 -0.359375l-0.375 -1.875q-0.234375 0.0625 -0.625 0.140625q-0.375 0.078125 -0.796875 0.140625q-0.453125 0.078125 -0.90625 0.125q-0.453125 0.046875 -0.890625 0.046875q-0.59375 0 -1.109375 -0.140625q-0.515625 -0.140625 -0.921875 -0.5q-0.40625 -0.34375 -0.640625 -0.921875q-0.21875 -0.59375 -0.21875 -1.5l0 -8.421875l5.90625 0l0 -2.046875l-5.90625 0l0 -3.749998zm12.568497 25.515623q1.046875 0 1.84375 -0.390625q0.8125 -0.390625 1.40625 -0.96875q0.609375 -0.5625 1.03125 -1.234375q0.421875 -0.671875 0.6875 -1.28125l7.859375 -17.890625l-2.953125 0l-4.0 10.0625l-0.734375 1.8125l-0.6875 -1.875l-4.25 -10.0l-2.96875 0l6.671875 14.765625l-1.046875 2.0625q-0.15625 0.296875 -0.40625 0.734375q-0.25 0.4375 -0.59375 0.859375q-0.359375 0.421875 -0.8125 0.71875q-0.4375 0.296875 -0.984375 0.296875q-0.203125 0 -0.5625 -0.03125q-0.34375 -0.015625 -0.703125 -0.046875l-0.421875 2.171875q0.25 0.0625 0.75 0.140625q0.5 0.09375 0.875 0.09375zm16.349747 -0.3125l2.640625 0l0 -7.4375q0.28125 0.3125 0.609375 0.578125q0.34375 0.265625 0.703125 0.484375q0.625 0.34375 1.390625 0.515625q0.765625 0.1875 1.65625 0.1875q1.453125 0 2.59375 -0.59375q1.140625 -0.609375 1.90625 -1.65625q0.78125 -1.0625 1.171875 -2.5q0.40625 -1.453125 0.40625 -3.109375l0 -0.296875q0 -1.734375 -0.40625 -3.1875q-0.390625 -1.453125 -1.171875 -2.5q-0.765625 -1.046875 -1.921875 -1.625q-1.140625 -0.59375 -2.625 -0.59375q-0.84375 0 -1.578125 0.1875q-0.734375 0.171875 -1.34375 0.515625q-0.421875 0.234375 -0.796875 0.5625q-0.375 0.3125 -0.6875 0.703125l-0.140625 -1.6875l-2.40625 0l0 21.453125zm10.4375 -13.828125l0 0.296875q0 1.140625 -0.25 2.171875q-0.25 1.03125 -0.765625 1.8125q-0.515625 0.78125 -1.328125 1.25q-0.796875 0.46875 -1.90625 0.46875q-0.6875 0 -1.25 -0.171875q-0.5625 -0.171875 -1.015625 -0.46875q-0.40625 -0.265625 -0.71875 -0.625q-0.3125 -0.375 -0.5625 -0.8125l0 -7.453125q0.28125 -0.5 0.625 -0.890625q0.359375 -0.40625 0.828125 -0.671875q0.40625 -0.28125 0.921875 -0.421875q0.53125 -0.140625 1.15625 -0.140625q1.109375 0 1.90625 0.46875q0.8125 0.453125 1.34375 1.21875q0.515625 0.78125 0.765625 1.8125q0.25 1.03125 0.25 2.15625zm14.021622 8.15625q2.25 0 3.78125 -0.90625q1.546875 -0.90625 2.328125 -2.078125l-1.625 -1.265625q-0.71875 0.953125 -1.828125 1.53125q-1.109375 0.5625 -2.515625 0.5625q-1.078125 0 -1.96875 -0.390625q-0.890625 -0.40625 -1.515625 -1.109375q-0.609375 -0.65625 -0.96875 -1.515625q-0.34375 -0.859375 -0.453125 -2.0l0 -0.09375l11.078125 0l0 -1.1875q0 -1.625 -0.421875 -3.015625q-0.40625 -1.390625 -1.234375 -2.421875q-0.828125 -1.015625 -2.078125 -1.59375q-1.25 -0.578125 -2.921875 -0.578125q-1.34375 0 -2.609375 0.546875q-1.265625 0.546875 -2.25 1.5625q-1.0 1.03125 -1.609375 2.515625q-0.59375 1.46875 -0.59375 3.359375l0 0.59375q0 1.625 0.53125 3.0q0.546875 1.375 1.53125 2.375q0.96875 1.0 2.328125 1.5625q1.375 0.546875 3.015625 0.546875zm-0.34375 -13.890625q1.015625 0 1.75 0.375q0.734375 0.375 1.21875 0.96875q0.484375 0.609375 0.75 1.4375q0.28125 0.8125 0.28125 1.53125l0 0.125l-8.328125 0q0.15625 -1.0625 0.546875 -1.890625q0.390625 -0.828125 0.96875 -1.390625q0.578125 -0.5625 1.28125 -0.859375q0.71875 -0.296875 1.53125 -0.296875zm42.74637 -4.984375l0 -2.249998l-15.453125 0l0 2.249998l6.4375 0l0 18.59375l2.578125 0l0 -18.59375l6.4375 0zm30.418243 -3.062498l0 -2.171875l-5.671875 0l0 28.296873l5.671875 0l0 -2.171875l-3.15625 0l0 -23.953123l3.15625 0z" fill-rule="nonzero"/><path fill="#010000" fill-opacity="0.0" d="m161.29404 20.392649l246.39645 0l0 38.67933l-246.39645 0l0 -38.67933z" fill-rule="nonzero"/><path fill="#000000" d="m173.99716 51.12417l2.40625 0l0 -15.5l-2.671875 0l0 11.125q-0.203125 0.5 -0.53125 0.921875q-0.328125 0.421875 -0.75 0.71875q-0.515625 0.375 -1.21875 0.578125q-0.703125 0.203125 -1.59375 0.203125q-0.75 0 -1.328125 -0.1875q-0.578125 -0.203125 -0.984375 -0.703125q-0.40625 -0.5 -0.609375 -1.328125q-0.1875 -0.828125 -0.1875 -2.09375l0 -9.234375l-2.65625 0l0 9.21875q0 1.734375 0.375 2.96875q0.390625 1.234375 1.078125 2.03125q0.703125 0.8125 1.6875 1.1875q1.0 0.375 2.21875 0.375q1.515625 0 2.671875 -0.625q1.15625 -0.640625 1.9375 -1.796875l0.15625 2.140625zm7.3809967 0l2.65625 0l0 -11.109375q0.265625 -0.5 0.625 -0.90625q0.375 -0.421875 0.8125 -0.75q0.53125 -0.359375 1.15625 -0.5625q0.625 -0.203125 1.359375 -0.203125q0.84375 0 1.484375 0.203125q0.65625 0.203125 1.125 0.640625q0.4375 0.4375 0.671875 1.15625q0.234375 0.71875 0.234375 1.75l0 9.78125l2.640625 0l0 -9.84375q0 -1.546875 -0.375 -2.671875q-0.375 -1.125 -1.078125 -1.84375q-0.703125 -0.734375 -1.703125 -1.078125q-1.0 -0.34375 -2.21875 -0.34375q-0.890625 0.015625 -1.703125 0.265625q-0.8125 0.25 -1.5 0.703125q-0.453125 0.3125 -0.859375 0.71875q-0.40625 0.40625 -0.75 0.890625l-0.1875 -2.296875l-2.390625 0l0 15.5zm27.896622 -4.109375q0 0.375 -0.140625 0.703125q-0.140625 0.328125 -0.40625 0.59375q-0.453125 0.453125 -1.25 0.703125q-0.78125 0.25 -1.828125 0.25q-0.671875 0 -1.359375 -0.140625q-0.6875 -0.140625 -1.25 -0.484375q-0.578125 -0.34375 -0.953125 -0.90625q-0.375 -0.5625 -0.4375 -1.375l-2.65625 0q0 0.984375 0.453125 1.90625q0.453125 0.90625 1.3125 1.59375q0.84375 0.703125 2.078125 1.125q1.234375 0.421875 2.8125 0.421875q1.375 0 2.53125 -0.328125q1.15625 -0.328125 1.984375 -0.921875q0.828125 -0.609375 1.296875 -1.453125q0.46875 -0.84375 0.46875 -1.875q0 -0.953125 -0.40625 -1.6875q-0.40625 -0.734375 -1.1875 -1.296875q-0.765625 -0.53125 -1.90625 -0.921875q-1.125 -0.40625 -2.5625 -0.703125q-1.078125 -0.21875 -1.796875 -0.4375q-0.703125 -0.234375 -1.125 -0.515625q-0.421875 -0.296875 -0.59375 -0.65625q-0.171875 -0.359375 -0.171875 -0.8125q0 -0.4375 0.203125 -0.859375q0.21875 -0.421875 0.65625 -0.734375q0.40625 -0.3125 1.046875 -0.5q0.640625 -0.1875 1.484375 -0.1875q0.8125 0 1.46875 0.234375q0.65625 0.234375 1.109375 0.59375q0.453125 0.375 0.703125 0.859375q0.265625 0.484375 0.265625 0.984375l2.65625 0q0 -1.015625 -0.4375 -1.890625q-0.4375 -0.890625 -1.234375 -1.546875q-0.8125 -0.65625 -1.953125 -1.03125q-1.140625 -0.375 -2.578125 -0.375q-1.328125 0 -2.4375 0.359375q-1.109375 0.359375 -1.921875 0.96875q-0.796875 0.625 -1.25 1.453125q-0.4375 0.8125 -0.4375 1.765625q0 0.953125 0.421875 1.6875q0.4375 0.71875 1.234375 1.234375q0.765625 0.546875 1.859375 0.9375q1.09375 0.390625 2.4375 0.65625q1.078125 0.21875 1.8125 0.484375q0.734375 0.265625 1.171875 0.578125q0.453125 0.3125 0.625 0.703125q0.1875 0.375 0.1875 0.84375zm17.490372 4.109375l2.765625 0l0 -0.234375q-0.265625 -0.640625 -0.40625 -1.5q-0.140625 -0.875 -0.140625 -1.640625l0 -7.203125q0 -1.3125 -0.46875 -2.28125q-0.46875 -0.96875 -1.296875 -1.640625q-0.828125 -0.640625 -1.96875 -0.953125q-1.125 -0.328125 -2.4375 -0.328125q-1.4375 0 -2.578125 0.40625q-1.140625 0.390625 -1.9375 1.046875q-0.796875 0.65625 -1.21875 1.46875q-0.421875 0.8125 -0.4375 1.65625l2.671875 0q0 -0.484375 0.234375 -0.9375q0.234375 -0.453125 0.65625 -0.78125q0.4375 -0.328125 1.0625 -0.515625q0.625 -0.203125 1.40625 -0.203125q0.84375 0 1.515625 0.21875q0.6875 0.203125 1.15625 0.59375q0.484375 0.390625 0.734375 0.953125q0.265625 0.5625 0.265625 1.265625l0 1.21875l-2.90625 0q-1.609375 0 -2.921875 0.3125q-1.3125 0.3125 -2.234375 0.9375q-0.9375 0.65625 -1.453125 1.609375q-0.5 0.953125 -0.5 2.234375q0 0.96875 0.375 1.8125q0.390625 0.84375 1.078125 1.4375q0.6875 0.625 1.6875 0.984375q1.0 0.34375 2.234375 0.34375q0.75 0 1.421875 -0.15625q0.671875 -0.15625 1.28125 -0.421875q0.578125 -0.28125 1.078125 -0.625q0.5 -0.359375 0.890625 -0.765625q0.046875 0.484375 0.140625 0.9375q0.09375 0.453125 0.25 0.75zm-4.6875 -2.015625q-0.765625 0 -1.359375 -0.203125q-0.578125 -0.203125 -0.96875 -0.5625q-0.390625 -0.34375 -0.578125 -0.828125q-0.1875 -0.484375 -0.1875 -1.0625q0 -0.59375 0.21875 -1.0625q0.21875 -0.484375 0.640625 -0.828125q0.609375 -0.484375 1.625 -0.71875q1.03125 -0.234375 2.40625 -0.234375l2.46875 0l0 3.140625q-0.234375 0.453125 -0.640625 0.875q-0.390625 0.421875 -0.9375 0.75q-0.5625 0.328125 -1.234375 0.53125q-0.671875 0.203125 -1.453125 0.203125zm16.052872 2.015625l2.671875 0l0 -13.453125l5.96875 0l0 -2.046875l-5.96875 0l0 -1.078125q0 -0.984375 0.25 -1.703125q0.25 -0.734375 0.734375 -1.1874981q0.453125 -0.453125 1.140625 -0.671875q0.703125 -0.21875 1.609375 -0.21875q0.890625 0 1.671875 0.15625q0.78125 0.140625 1.359375 0.34375l0.328125 -2.1875q-0.375 -0.109375 -0.734375 -0.1875q-0.359375 -0.078125 -0.71875 -0.140625q-0.546875 -0.109375 -1.109375 -0.171875q-0.546875 -0.0625 -1.125 -0.0625q-1.375 0 -2.5 0.390625q-1.109375 0.375 -1.890625 1.140625q-0.8125 0.75 -1.25 1.875q-0.4375 1.1249981 -0.4375 2.624998l0 1.078125l-4.265625 0l0 2.046875l4.265625 0l0 13.453125zm20.505981 0.28125q2.25 0 3.78125 -0.90625q1.546875 -0.90625 2.328125 -2.078125l-1.625 -1.265625q-0.71875 0.953125 -1.828125 1.53125q-1.109375 0.5625 -2.515625 0.5625q-1.078125 0 -1.96875 -0.390625q-0.89060974 -0.40625 -1.5156097 -1.109375q-0.609375 -0.65625 -0.96875 -1.515625q-0.34375 -0.859375 -0.453125 -2.0l0 -0.09375l11.07811 0l0 -1.1875q0 -1.625 -0.421875 -3.015625q-0.40625 -1.390625 -1.234375 -2.421875q-0.828125 -1.015625 -2.078125 -1.59375q-1.25 -0.578125 -2.921875 -0.578125q-1.34375 0 -2.6093597 0.546875q-1.265625 0.546875 -2.25 1.5625q-1.0 1.03125 -1.609375 2.515625q-0.59375 1.46875 -0.59375 3.359375l0 0.59375q0 1.625 0.53125 3.0q0.546875 1.375 1.53125 2.375q0.96875 1.0 2.328125 1.5625q1.3749847 0.546875 3.0156097 0.546875zm-0.34375 -13.890625q1.015625 0 1.75 0.375q0.734375 0.375 1.21875 0.96875q0.484375 0.609375 0.75 1.4375q0.28125 0.8125 0.28125 1.53125l0 0.125l-8.32811 0q0.15625 -1.0625 0.546875 -1.890625q0.390625 -0.828125 0.96875 -1.390625q0.57810974 -0.5625 1.2812347 -0.859375q0.71875 -0.296875 1.53125 -0.296875zm15.709137 11.890625q0 0.828125 0.515625 1.40625q0.515625 0.578125 1.546875 0.578125q1.03125 0 1.5625 -0.5625q0.546875 -0.578125 0.546875 -1.421875q0 -0.859375 -0.546875 -1.453125q-0.53125 -0.59375 -1.5625 -0.59375q-1.03125 0 -1.546875 0.609375q-0.515625 0.59375 -0.515625 1.4375zm23.896637 -3.546875q0 0.859375 -0.375 1.484375q-0.375 0.609375 -0.953125 1.015625q-0.59375 0.421875 -1.34375 0.609375q-0.75 0.1875 -1.53125 0.1875q-0.96875 0 -1.796875 -0.25q-0.8125 -0.265625 -1.453125 -0.796875q-0.625 -0.515625 -1.03125 -1.265625q-0.390625 -0.765625 -0.53125 -1.734375l-2.703125 0q0.046875 1.34375 0.59375 2.4375q0.546875 1.09375 1.5 1.921875q1.0625 0.9375 2.5 1.4375q1.4375 0.5 2.921875 0.5q1.25 0 2.5 -0.34375q1.25 -0.359375 2.234375 -1.046875q0.984375 -0.6875 1.609375 -1.734375q0.625 -1.046875 0.625 -2.453125q0 -1.390625 -0.59375 -2.453125q-0.578125 -1.0625 -1.515625 -1.78125q-0.953125 -0.796875 -2.125 -1.296875q-1.15625 -0.515625 -2.3125 -0.875q-0.703125 -0.21875 -1.5 -0.5q-0.796875 -0.28125 -1.46875 -0.71875q-0.6875 -0.421875 -1.140625 -1.046875q-0.4375 -0.625 -0.453125 -1.53125q0 -0.828125 0.34375 -1.453125q0.34375 -0.625 0.90625 -1.0625q0.5625 -0.421875 1.28125 -0.640625q0.71875 -0.21875 1.484375 -0.21875q0.953125 0 1.703125 0.296875q0.75 0.296875 1.296875 0.828125q0.53125 0.515625 0.859375 1.265625q0.34375 0.734375 0.453125 1.640625l2.71875 0q-0.03125 -1.4375 -0.625 -2.59375q-0.578125 -1.171875 -1.546875 -1.9843731q-0.984375 -0.8125 -2.25 -1.265625q-1.25 -0.453125 -2.609375 -0.453125q-1.234375 0 -2.453125 0.390625q-1.21875 0.375 -2.171875 1.109375q-0.953125 0.7187481 -1.546875 1.7812481q-0.59375 1.0625 -0.59375 2.40625q0 1.34375 0.59375 2.34375q0.59375 1.0 1.53125 1.71875q0.9375 0.71875 2.0625 1.234375q1.140625 0.5 2.25 0.859375q0.765625 0.25 1.578125 0.546875q0.828125 0.296875 1.515625 0.75q0.6875 0.453125 1.125 1.109375q0.4375 0.65625 0.4375 1.625zm7.0997314 -10.234375l0 2.3125l5.265625 0l0 10.890625l-5.265625 0l0 2.296875l12.96875 0l0 -2.296875l-5.046875 0l0 -13.203125l-7.921875 0zm4.921875 -4.062498q0 0.6406231 0.390625 1.0781231q0.40625 0.421875 1.203125 0.421875q0.78125 0 1.1875 -0.421875q0.40625 -0.4375 0.40625 -1.0781231q0 -0.359375 -0.125 -0.65625q-0.109375 -0.296875 -0.34375 -0.5q-0.171875 -0.1875 -0.46875 -0.296875q-0.28125 -0.109375 -0.65625 -0.109375q-0.375 0 -0.671875 0.109375q-0.28125 0.109375 -0.46875 0.296875q-0.234375 0.21875 -0.34375 0.515625q-0.109375 0.296875 -0.109375 0.640625zm15.443481 17.406248l9.34375 -11.46875l0 -1.875l-12.59375 0l0 2.203125l9.125 0l-9.25 11.34375l0 1.953125l13.234375 0l0 -2.15625l-9.859375 0zm21.271637 2.4375q2.25 0 3.78125 -0.90625q1.546875 -0.90625 2.328125 -2.078125l-1.625 -1.265625q-0.71875 0.953125 -1.828125 1.53125q-1.109375 0.5625 -2.515625 0.5625q-1.078125 0 -1.96875 -0.390625q-0.890625 -0.40625 -1.515625 -1.109375q-0.609375 -0.65625 -0.96875 -1.515625q-0.34375 -0.859375 -0.453125 -2.0l0 -0.09375l11.078125 0l0 -1.1875q0 -1.625 -0.421875 -3.015625q-0.40625 -1.390625 -1.234375 -2.421875q-0.828125 -1.015625 -2.078125 -1.59375q-1.25 -0.578125 -2.921875 -0.578125q-1.34375 0 -2.609375 0.546875q-1.265625 0.546875 -2.25 1.5625q-1.0 1.03125 -1.609375 2.515625q-0.59375 1.46875 -0.59375 3.359375l0 0.59375q0 1.625 0.53125 3.0q0.546875 1.375 1.53125 2.375q0.96875 1.0 2.328125 1.5625q1.375 0.546875 3.015625 0.546875zm-0.34375 -13.890625q1.015625 0 1.75 0.375q0.734375 0.375 1.21875 0.96875q0.484375 0.609375 0.75 1.4375q0.28125 0.8125 0.28125 1.53125l0 0.125l-8.328125 0q0.15625 -1.0625 0.546875 -1.890625q0.390625 -0.828125 0.96875 -1.390625q0.578125 -0.5625 1.28125 -0.859375q0.71875 -0.296875 1.53125 -0.296875zm10.349762 5.71875l0 0.3125q0 1.671875 0.484375 3.109375q0.484375 1.4375 1.40625 2.5q0.90625 1.046875 2.203125 1.65625q1.3125 0.59375 2.96875 0.59375q1.625 0 2.921875 -0.59375q1.3125 -0.609375 2.234375 -1.65625q0.890625 -1.0625 1.375 -2.5q0.5 -1.4375 0.5 -3.109375l0 -0.3125q0 -1.671875 -0.5 -3.109375q-0.484375 -1.4375 -1.375 -2.5q-0.921875 -1.0625 -2.234375 -1.671875q-1.3125 -0.609375 -2.953125 -0.609375q-1.640625 0 -2.9375 0.609375q-1.296875 0.609375 -2.203125 1.671875q-0.921875 1.0625 -1.40625 2.5q-0.484375 1.4375 -0.484375 3.109375zm2.640625 0.3125l0 -0.3125q0 -1.125 0.265625 -2.15625q0.28125 -1.046875 0.84375 -1.84375q0.546875 -0.78125 1.359375 -1.25q0.8125 -0.46875 1.921875 -0.46875q1.09375 0 1.921875 0.46875q0.828125 0.46875 1.390625 1.25q0.53125 0.796875 0.8125 1.84375q0.28125 1.03125 0.28125 2.15625l0 0.3125q0 1.140625 -0.28125 2.1875q-0.265625 1.03125 -0.8125 1.828125q-0.546875 0.78125 -1.375 1.25q-0.828125 0.453125 -1.90625 0.453125q-1.109375 0 -1.9375 -0.453125q-0.828125 -0.46875 -1.375 -1.25q-0.5625 -0.796875 -0.84375 -1.828125q-0.265625 -1.046875 -0.265625 -2.1875zm19.646606 7.578125l2.671875 0l0 -13.453125l5.96875 0l0 -2.046875l-5.96875 0l0 -1.078125q0 -0.984375 0.25 -1.703125q0.25 -0.734375 0.734375 -1.1874981q0.453125 -0.453125 1.140625 -0.671875q0.703125 -0.21875 1.609375 -0.21875q0.890625 0 1.671875 0.15625q0.78125 0.140625 1.359375 0.34375l0.328125 -2.1875q-0.375 -0.109375 -0.734375 -0.1875q-0.359375 -0.078125 -0.71875 -0.140625q-0.546875 -0.109375 -1.109375 -0.171875q-0.546875 -0.0625 -1.125 -0.0625q-1.375 0 -2.5 0.390625q-1.109375 0.375 -1.890625 1.140625q-0.8125 0.75 -1.25 1.875q-0.4375 1.1249981 -0.4375 2.624998l0 1.078125l-4.265625 0l0 2.046875l4.265625 0l0 13.453125zm16.271606 -8.46875l0 0.15625q0 2.046875 0.3125 3.859375q0.328125 1.796875 0.875 3.328125q0.53125 1.546875 1.234375 2.8125q0.71875 1.265625 1.5 2.25q0.78125 1.0 1.578125 1.6875q0.796875 0.703125 1.5 1.109375l0.5625 -1.625q-0.578125 -0.46875 -1.171875 -1.140625q-0.578125 -0.65625 -1.125 -1.515625q-0.515625 -0.90625 -1.015625 -2.046875q-0.484375 -1.140625 -0.859375 -2.46875q-0.34375 -1.3125 -0.546875 -2.875q-0.1875 -1.5625 -0.1875 -3.359375l0 -0.1875q0 -1.875 0.203125 -3.484375q0.21875 -1.625 0.609375 -2.96875q0.40625 -1.484375 1.0 -2.734375q0.609375 -1.265625 1.265625 -2.187498q0.4375 -0.609375 0.90625 -1.09375q0.46875 -0.484375 0.921875 -0.828125l-0.5625 -1.75q-0.703125 0.40625 -1.5 1.109375q-0.78125 0.703125 -1.5625 1.6875q-0.78125 0.984375 -1.5 2.265623q-0.703125 1.265625 -1.25 2.796875q-0.546875 1.546875 -0.875 3.359375q-0.3125 1.796875 -0.3125 3.84375z" fill-rule="nonzero"/><path fill="#000000" fill-opacity="0.0" d="m407.6905 20.392649l87.99875 0l0 38.67933l-87.99875 0l0 -38.67933z" fill-rule="nonzero"/><path fill="#000000" d="m424.23737 32.53042l0 -2.249998l-15.453125 0l0 2.249998l6.4375 0l0 18.59375l2.578125 0l0 -18.59375l6.4375 0zm6.162262 10.125l0 0.15625q0 2.046875 0.3125 3.859375q0.328125 1.796875 0.875 3.328125q0.53125 1.546875 1.234375 2.8125q0.71875 1.265625 1.5 2.25q0.78125 1.0 1.578125 1.6875q0.796875 0.703125 1.5 1.109375l0.5625 -1.625q-0.578125 -0.46875 -1.171875 -1.140625q-0.578125 -0.65625 -1.125 -1.515625q-0.515625 -0.90625 -1.015625 -2.046875q-0.484375 -1.140625 -0.859375 -2.46875q-0.34375 -1.3125 -0.546875 -2.875q-0.1875 -1.5625 -0.1875 -3.359375l0 -0.1875q0 -1.875 0.203125 -3.484375q0.21875 -1.625 0.609375 -2.96875q0.40625 -1.484375 1.0 -2.734375q0.609375 -1.265625 1.265625 -2.187498q0.4375 -0.609375 0.90625 -1.09375q0.46875 -0.484375 0.921875 -0.828125l-0.5625 -1.75q-0.703125 0.40625 -1.5 1.109375q-0.78125 0.703125 -1.5625 1.6875q-0.78125 0.984375 -1.5 2.265623q-0.703125 1.265625 -1.25 2.796875q-0.546875 1.546875 -0.875 3.359375q-0.3125 1.796875 -0.3125 3.84375zm25.724731 1.46875l0 -13.843748l-2.828125 0l-9.328125 14.437498l0 1.5625l9.5 0l0 4.84375l2.65625 0l0 -4.84375l2.90625 0l0 -2.15625l-2.90625 0zm-9.21875 0l6.140625 -9.53125l0.421875 -0.796875l0 10.328125l-6.5625 0zm28.865356 7.0l0 -2.15625l-10.46875 0l5.59375 -6.078125q0.796875 -0.859375 1.5 -1.71875q0.703125 -0.875 1.25 -1.765625q0.53125 -0.890625 0.84375 -1.796875q0.328125 -0.90625 0.328125 -1.828125q0 -1.25 -0.4375 -2.3125q-0.4375 -1.0625 -1.265625 -1.8281231q-0.8125 -0.78125 -2.0 -1.21875q-1.171875 -0.4375 -2.65625 -0.4375q-1.59375 0 -2.859375 0.515625q-1.25 0.515625 -2.109375 1.390625q-0.859375 0.8749981 -1.328125 2.046873q-0.453125 1.15625 -0.453125 2.484375l2.65625 0q0 -0.984375 0.25 -1.765625q0.25 -0.78125 0.765625 -1.34375q0.515625 -0.546875 1.28125 -0.84375q0.765625 -0.296875 1.796875 -0.296875q0.859375 0 1.546875 0.296875q0.6875 0.28125 1.171875 0.78125q0.46875 0.5 0.71875 1.1875q0.25 0.671875 0.25 1.453125q0 0.625 -0.15625 1.21875q-0.15625 0.59375 -0.53125 1.25q-0.375 0.671875 -1.0 1.46875q-0.609375 0.78125 -1.515625 1.796875l-6.828125 7.59375l0 1.90625l13.65625 0zm14.474762 -8.3125l0 -0.15625q0 -2.1875 -0.34375 -3.9375q-0.328125 -1.75 -0.84375 -3.265625q-0.53125 -1.5625 -1.234375 -2.796875q-0.703125 -1.2499981 -1.5 -2.265623q-0.78125 -0.984375 -1.578125 -1.6875q-0.796875 -0.703125 -1.515625 -1.109375l-0.5625 1.625q0.484375 0.375 0.984375 0.9375q0.5 0.546875 0.96875 1.28125q0.609375 0.9218731 1.1875 2.187498q0.59375 1.25 1.015625 2.828125q0.28125 1.09375 0.515625 2.671875q0.25 1.578125 0.25 3.515625l0 0.1875q0 1.703125 -0.1875 3.203125q-0.171875 1.5 -0.5 2.78125q-0.328125 1.390625 -0.828125 2.5625q-0.484375 1.171875 -1.015625 2.09375q-0.546875 0.921875 -1.171875 1.625q-0.609375 0.703125 -1.21875 1.140625l0.5625 1.625q0.71875 -0.40625 1.515625 -1.109375q0.796875 -0.6875 1.578125 -1.6875q0.765625 -0.984375 1.46875 -2.25q0.71875 -1.265625 1.265625 -2.8125q0.546875 -1.53125 0.859375 -3.328125q0.328125 -1.8125 0.328125 -3.859375z" fill-rule="nonzero"/><path fill="#010000" fill-opacity="0.0" d="m495.68924 20.392649l17.5997 0l0 38.67933l-17.5997 0l0 -38.67933z" fill-rule="nonzero"/><path fill="#000000" d="m507.8455 42.81167l0 -0.15625q0 -2.1875 -0.34375 -3.9375q-0.328125 -1.75 -0.84375 -3.265625q-0.53125 -1.5625 -1.234375 -2.796875q-0.703125 -1.2499981 -1.5 -2.265623q-0.78125 -0.984375 -1.578125 -1.6875q-0.796875 -0.703125 -1.515625 -1.109375l-0.5625 1.625q0.484375 0.375 0.984375 0.9375q0.5 0.546875 0.96875 1.28125q0.609375 0.9218731 1.1875 2.187498q0.59375 1.25 1.015625 2.828125q0.28125 1.09375 0.515625 2.671875q0.25 1.578125 0.25 3.515625l0 0.1875q0 1.703125 -0.1875 3.203125q-0.171875 1.5 -0.5 2.78125q-0.328125 1.390625 -0.828125 2.5625q-0.484375 1.171875 -1.015625 2.09375q-0.546875 0.921875 -1.171875 1.625q-0.609375 0.703125 -1.21875 1.140625l0.5625 1.625q0.71875 -0.40625 1.515625 -1.109375q0.796875 -0.6875 1.578125 -1.6875q0.765625 -0.984375 1.46875 -2.25q0.71875 -1.265625 1.265625 -2.8125q0.546875 -1.53125 0.859375 -3.328125q0.328125 -1.8125 0.328125 -3.859375z" fill-rule="nonzero"/><path fill="#fbbc04" d="m519.0858 27.296045l0 2.171875l3.1875 0l0 23.953123l-3.1875 0l0 2.171875l5.6875 0l0 -28.296873l-5.6875 0z" fill-rule="nonzero"/><path fill="#000000" d="m533.7949 35.62417l0 2.3125l5.265625 0l0 10.890625l-5.265625 0l0 2.296875l12.96875 0l0 -2.296875l-5.046875 0l0 -13.203125l-7.921875 0zm4.921875 -4.062498q0 0.6406231 0.390625 1.0781231q0.40625 0.421875 1.203125 0.421875q0.78125 0 1.1875 -0.421875q0.40625 -0.4375 0.40625 -1.0781231q0 -0.359375 -0.125 -0.65625q-0.109375 -0.296875 -0.34375 -0.5q-0.171875 -0.1875 -0.46875 -0.296875q-0.28125 -0.109375 -0.65625 -0.109375q-0.375 0 -0.671875 0.109375q-0.28125 0.109375 -0.46875 0.296875q-0.234375 0.21875 -0.34375 0.515625q-0.109375 0.296875 -0.109375 0.640625zm12.255981 19.562498l2.65625 0l0 -11.109375q0.265625 -0.5 0.625 -0.90625q0.375 -0.421875 0.8125 -0.75q0.53125 -0.359375 1.15625 -0.5625q0.625 -0.203125 1.359375 -0.203125q0.84375 0 1.484375 0.203125q0.65625 0.203125 1.125 0.640625q0.4375 0.4375 0.671875 1.15625q0.234375 0.71875 0.234375 1.75l0 9.78125l2.640625 0l0 -9.84375q0 -1.546875 -0.375 -2.671875q-0.375 -1.125 -1.078125 -1.84375q-0.703125 -0.734375 -1.703125 -1.078125q-1.0 -0.34375 -2.21875 -0.34375q-0.890625 0.015625 -1.703125 0.265625q-0.8125 0.25 -1.5 0.703125q-0.453125 0.3125 -0.859375 0.71875q-0.40625 0.40625 -0.75 0.890625l-0.1875 -2.296875l-2.390625 0l0 15.5zm23.881042 -19.249998l-2.671875 0l0 3.749998l-4.0625 0l0 2.046875l4.0625 0l0 8.421875q0 1.4375 0.375 2.453125q0.390625 1.0 1.046875 1.640625q0.65625 0.640625 1.546875 0.9375q0.90625 0.28125 1.9375 0.28125q0.609375 0 1.234375 -0.0625q0.625 -0.046875 1.1875 -0.15625q0.5625 -0.109375 1.03125 -0.25q0.46875 -0.15625 0.796875 -0.359375l-0.375 -1.875q-0.234375 0.0625 -0.625 0.140625q-0.375 0.078125 -0.796875 0.140625q-0.453125 0.078125 -0.90625 0.125q-0.453125 0.046875 -0.890625 0.046875q-0.59375 0 -1.109375 -0.140625q-0.515625 -0.140625 -0.921875 -0.5q-0.40625 -0.34375 -0.640625 -0.921875q-0.21875 -0.59375 -0.21875 -1.5l0 -8.421875l5.90625 0l0 -2.046875l-5.90625 0l0 -3.749998z" fill-rule="nonzero"/><path fill="#000000" fill-opacity="0.0" d="m328.01312 95.75532l248.72443 0l0 37.48031l-248.72443 0z" fill-rule="evenodd"/><path fill="#000000" d="m412.3814 117.57906q-1.671875 0 -2.9375 -0.75q-1.25 -0.765625 -1.96875 -2.109375q-0.703125 -1.359375 -0.703125 -3.140625l0 -9.609375l1.8125 0l0 9.703125q0 1.1875 0.421875 2.140625q0.421875 0.953125 1.265625 1.5q0.84375 0.53125 2.109375 0.53125q1.25 0 2.09375 -0.53125q0.859375 -0.546875 1.28125 -1.5q0.4375 -0.953125 0.4375 -2.140625l0 -9.703125l1.8125 0l0 9.609375q0 1.78125 -0.671875 3.140625q-0.671875 1.34375 -1.9375 2.109375q-1.25 0.75 -3.015625 0.75zm8.444672 4.265625l0 -15.484375l1.71875 0l0 1.625l0.09375 0q0.296875 -0.515625 0.828125 -0.96875q0.546875 -0.453125 1.265625 -0.71875q0.734375 -0.28125 1.609375 -0.28125q1.5 0 2.671875 0.75q1.171875 0.75 1.84375 2.046875q0.6875 1.296875 0.6875 2.984375q0 1.6875 -0.6875 2.984375q-0.671875 1.296875 -1.84375 2.046875q-1.171875 0.75 -2.671875 0.75q-1.296875 0 -2.28125 -0.59375q-0.984375 -0.609375 -1.421875 -1.34375l-0.09375 0l0.09375 1.484375l0 4.71875l-1.8125 0zm5.328125 -5.90625q0.9375 0 1.75 -0.5q0.828125 -0.5 1.328125 -1.4375q0.5 -0.953125 0.5 -2.203125q0 -1.28125 -0.5 -2.203125q-0.5 -0.9375 -1.328125 -1.4375q-0.8125 -0.5 -1.75 -0.5q-0.9375 0 -1.765625 0.5q-0.8125 0.5 -1.328125 1.4375q-0.515625 0.921875 -0.515625 2.203125q0 1.28125 0.515625 2.21875q0.515625 0.921875 1.328125 1.421875q0.828125 0.5 1.765625 0.5zm11.2656555 1.640625q-1.21875 0 -2.15625 -0.390625q-0.921875 -0.40625 -1.53125 -1.078125q-0.609375 -0.671875 -0.90625 -1.453125l1.625 -0.734375q0.421875 0.984375 1.234375 1.515625q0.8125 0.53125 1.859375 0.53125q1.0 0 1.671875 -0.390625q0.671875 -0.40625 0.671875 -1.203125q0 -0.484375 -0.28125 -0.8125q-0.28125 -0.34375 -0.8125 -0.578125q-0.53125 -0.234375 -1.296875 -0.421875l-1.328125 -0.34375q-0.765625 -0.203125 -1.453125 -0.59375q-0.671875 -0.390625 -1.09375 -0.984375q-0.40625 -0.609375 -0.40625 -1.484375q0 -0.984375 0.5625 -1.6875q0.578125 -0.703125 1.515625 -1.078125q0.953125 -0.375 2.015625 -0.375q0.9375 0 1.75 0.265625q0.828125 0.265625 1.4375 0.796875q0.625 0.515625 0.953125 1.28125l-1.578125 0.734375q-0.40625 -0.8125 -1.09375 -1.125q-0.6875 -0.328125 -1.515625 -0.328125q-0.890625 0 -1.5625 0.390625q-0.65625 0.390625 -0.65625 1.078125q0 0.6875 0.546875 1.03125q0.546875 0.328125 1.328125 0.546875l1.578125 0.40625q1.609375 0.40625 2.40625 1.203125q0.8125 0.796875 0.8125 1.953125q0 1.015625 -0.578125 1.765625q-0.5625 0.75 -1.546875 1.15625q-0.984375 0.40625 -2.171875 0.40625zm5.4518433 -9.578125l0 -1.640625l2.03125 0l0 1.640625l-2.03125 0zm4.9375 9.40625q-1.359375 0 -2.1875 -0.8125q-0.828125 -0.828125 -0.828125 -2.21875l0 -11.09375l1.8125 0l0 10.640625q0 0.921875 0.359375 1.359375q0.375 0.4375 1.125 0.4375q0.34375 0 0.640625 -0.09375q0.296875 -0.09375 0.578125 -0.265625l0 1.765625q-0.34375 0.125 -0.703125 0.203125q-0.359375 0.078125 -0.796875 0.078125zm-1.3125 -9.40625l0 -1.640625l2.765625 0l0 1.640625l-2.765625 0zm4.935364 9.234375l0 -10.875l1.71875 0l0 1.75l0.09375 0q0.203125 -0.625 0.703125 -1.078125q0.5 -0.46875 1.15625 -0.734375q0.65625 -0.265625 1.296875 -0.265625q0.484375 0 0.765625 0.0625q0.28125 0.046875 0.515625 0.15625l0 1.96875q-0.34375 -0.171875 -0.75 -0.25q-0.390625 -0.09375 -0.796875 -0.09375q-0.78125 0 -1.453125 0.453125q-0.65625 0.4375 -1.046875 1.1875q-0.390625 0.75 -0.390625 1.640625l0 6.078125l-1.8125 0zm12.292877 0.34375q-1.578125 0 -2.796875 -0.75q-1.21875 -0.75 -1.921875 -2.046875q-0.6875 -1.296875 -0.6875 -2.96875q0 -1.546875 0.640625 -2.875q0.65625 -1.328125 1.84375 -2.125q1.1875 -0.796875 2.78125 -0.796875q1.625 0 2.78125 0.71875q1.15625 0.703125 1.78125 1.96875q0.640625 1.265625 0.640625 2.875q0 0.15625 -0.015625 0.3125q0 0.140625 -0.03125 0.25l-9.359375 0l0 -1.5l7.484375 0q-0.015625 -0.4375 -0.203125 -0.953125q-0.171875 -0.53125 -0.578125 -0.984375q-0.390625 -0.46875 -1.0 -0.75q-0.609375 -0.296875 -1.5 -0.296875q-1.0625 0 -1.84375 0.546875q-0.78125 0.546875 -1.203125 1.484375q-0.40625 0.9375 -0.40625 2.125q0 1.390625 0.53125 2.3125q0.53125 0.90625 1.375 1.359375q0.84375 0.453125 1.765625 0.453125q1.1875 0 1.96875 -0.5625q0.78125 -0.578125 1.25 -1.40625l1.53125 0.75q-0.640625 1.234375 -1.84375 2.046875q-1.1875 0.8125 -2.984375 0.8125zm10.652649 0q-1.21875 0 -2.140625 -0.46875q-0.90625 -0.46875 -1.4375 -1.28125q-0.515625 -0.828125 -0.515625 -1.875q0 -1.203125 0.609375 -2.015625q0.625 -0.828125 1.671875 -1.234375q1.046875 -0.421875 2.296875 -0.421875q0.734375 0 1.34375 0.125q0.625 0.109375 1.078125 0.265625q0.46875 0.15625 0.703125 0.3125l0 -0.65625q0 -1.234375 -0.875 -1.953125q-0.875 -0.734375 -2.140625 -0.734375q-0.890625 0 -1.671875 0.390625q-0.78125 0.390625 -1.234375 1.09375l-1.359375 -1.015625q0.421875 -0.640625 1.0625 -1.109375q0.640625 -0.46875 1.453125 -0.71875q0.828125 -0.265625 1.75 -0.265625q2.21875 0 3.46875 1.171875q1.265625 1.171875 1.265625 3.15625l0 6.890625l-1.71875 0l0 -1.5625l-0.09375 0q-0.28125 0.46875 -0.796875 0.90625q-0.5 0.4375 -1.203125 0.71875q-0.6875 0.28125 -1.515625 0.28125zm0.171875 -1.609375q0.9375 0 1.703125 -0.46875q0.78125 -0.46875 1.25 -1.25q0.484375 -0.796875 0.484375 -1.734375q-0.5 -0.34375 -1.234375 -0.546875q-0.734375 -0.21875 -1.609375 -0.21875q-1.5625 0 -2.28125 0.640625q-0.71875 0.640625 -0.71875 1.578125q0 0.890625 0.671875 1.453125q0.6875 0.546875 1.734375 0.546875zm7.637787 1.265625l0 -10.875l1.71875 0l0 1.59375l0.09375 0q0.296875 -0.53125 0.8125 -0.96875q0.53125 -0.4375 1.203125 -0.703125q0.671875 -0.265625 1.375 -0.265625q1.203125 0 2.078125 0.59375q0.875 0.578125 1.265625 1.515625q0.546875 -0.921875 1.484375 -1.515625q0.953125 -0.59375 2.25 -0.59375q1.9375 0 2.84375 1.171875q0.921875 1.171875 0.921875 3.078125l0 6.96875l-1.78125 0l0 -6.703125q0 -1.578125 -0.640625 -2.21875q-0.640625 -0.65625 -1.8125 -0.65625q-0.828125 0 -1.484375 0.484375q-0.65625 0.484375 -1.03125 1.265625q-0.359375 0.765625 -0.359375 1.6875l0 6.140625l-1.8125 0l0 -6.671875q0 -1.578125 -0.640625 -2.234375q-0.640625 -0.671875 -1.796875 -0.671875q-0.828125 0 -1.484375 0.5q-0.65625 0.484375 -1.03125 1.28125q-0.359375 0.78125 -0.359375 1.703125l0 6.09375l-1.8125 0z" fill-rule="nonzero"/><path fill="#000000" fill-opacity="0.0" d="m206.01756 95.75709l176.12599 0l0 37.48031l-176.12599 0z" fill-rule="evenodd"/><path fill="#000000" d="m234.14024 117.23708l0 -15.265625l4.609375 0q2.390625 0 4.109375 0.96875q1.734375 0.96875 2.671875 2.703125q0.9375 1.71875 0.9375 3.953125q0 2.25 -0.9375 3.96875q-0.9375 1.703125 -2.671875 2.6875q-1.71875 0.984375 -4.109375 0.984375l-4.609375 0zm1.8125 -1.734375l2.796875 0q1.78125 0 3.109375 -0.6875q1.328125 -0.6875 2.046875 -2.015625q0.71875 -1.328125 0.71875 -3.203125q0 -1.875 -0.71875 -3.1875q-0.71875 -1.328125 -2.046875 -2.015625q-1.328125 -0.703125 -3.109375 -0.703125l-2.796875 0l0 11.8125zm17.779205 2.078125q-1.640625 0 -2.90625 -0.765625q-1.25 -0.765625 -1.96875 -2.078125q-0.703125 -1.3125 -0.703125 -2.9375q0 -1.625 0.703125 -2.9375q0.71875 -1.3125 1.96875 -2.078125q1.265625 -0.765625 2.90625 -0.765625q1.65625 0 2.9062347 0.78125q1.265625 0.78125 1.96875 2.09375q0.71875 1.3125 0.71875 2.90625q0 1.625 -0.71875 2.9375q-0.703125 1.3125 -1.96875 2.078125q-1.2499847 0.765625 -2.9062347 0.765625zm0 -1.640625q0.984375 0 1.84375 -0.484375q0.87498474 -0.5 1.4062347 -1.421875q0.53125 -0.9375 0.53125 -2.234375q0 -1.296875 -0.53125 -2.21875q-0.53125 -0.9375 -1.4062347 -1.421875q-0.859375 -0.5 -1.84375 -0.5q-0.96875 0 -1.84375 0.5q-0.875 0.484375 -1.421875 1.421875q-0.53125 0.921875 -0.53125 2.21875q0 1.296875 0.53125 2.234375q0.546875 0.921875 1.421875 1.421875q0.875 0.484375 1.84375 0.484375zm9.965836 1.296875l-3.5 -10.875l1.875 0l2.578125 8.59375l0.03125 0l2.75 -8.59375l1.859375 0l2.75 8.578125l0.015625 0l2.578125 -8.578125l1.84375 0l-3.53125 10.875l-1.828125 0l-2.8125 -8.6875l0 0l-2.796875 8.6875l-1.8125 0zm14.232483 0l0 -10.875l1.71875 0l0 1.59375l0.09375 0q0.421875 -0.78125 1.390625 -1.359375q0.96875 -0.578125 2.125 -0.578125q2.0 0 3.015625 1.171875q1.015625 1.15625 1.015625 3.078125l0 6.96875l-1.8125 0l0 -6.703125q0 -1.578125 -0.765625 -2.21875q-0.75 -0.65625 -1.953125 -0.65625q-0.890625 0 -1.578125 0.5q-0.671875 0.5 -1.0625 1.296875q-0.375 0.78125 -0.375 1.65625l0 6.125l-1.8125 0zm15.71933 0.34375q-1.21875 0 -2.15625 -0.390625q-0.921875 -0.40625 -1.53125 -1.078125q-0.609375 -0.671875 -0.90625 -1.453125l1.625 -0.734375q0.421875 0.984375 1.234375 1.515625q0.8125 0.53125 1.859375 0.53125q1.0 0 1.671875 -0.390625q0.671875 -0.40625 0.671875 -1.203125q0 -0.484375 -0.28125 -0.8125q-0.28125 -0.34375 -0.8125 -0.578125q-0.53125 -0.234375 -1.296875 -0.421875l-1.328125 -0.34375q-0.765625 -0.203125 -1.453125 -0.59375q-0.671875 -0.390625 -1.09375 -0.984375q-0.40625 -0.609375 -0.40625 -1.484375q0 -0.984375 0.5625 -1.6875q0.578125 -0.703125 1.515625 -1.078125q0.953125 -0.375 2.015625 -0.375q0.9375 0 1.75 0.265625q0.828125 0.265625 1.4375 0.796875q0.625 0.515625 0.953125 1.28125l-1.578125 0.734375q-0.40625 -0.8125 -1.09375 -1.125q-0.6875 -0.328125 -1.515625 -0.328125q-0.890625 0 -1.5625 0.390625q-0.65625 0.390625 -0.65625 1.078125q0 0.6875 0.546875 1.03125q0.546875 0.328125 1.328125 0.546875l1.578125 0.40625q1.609375 0.40625 2.40625 1.203125q0.8125 0.796875 0.8125 1.953125q0 1.015625 -0.578125 1.765625q-0.5625 0.75 -1.546875 1.15625q-0.984375 0.40625 -2.171875 0.40625zm5.4518433 -9.578125l0 -1.640625l2.03125 0l0 1.640625l-2.03125 0zm4.9375 9.40625q-1.359375 0 -2.1875 -0.8125q-0.828125 -0.828125 -0.828125 -2.21875l0 -11.09375l1.8125 0l0 10.640625q0 0.921875 0.359375 1.359375q0.375 0.4375 1.125 0.4375q0.34375 0 0.640625 -0.09375q0.296875 -0.09375 0.578125 -0.265625l0 1.765625q-0.34375 0.125 -0.703125 0.203125q-0.359375 0.078125 -0.796875 0.078125zm-1.3125 -9.40625l0 -1.640625l2.765625 0l0 1.640625l-2.765625 0zm4.935364 9.234375l0 -10.875l1.71875 0l0 1.75l0.09375 0q0.203125 -0.625 0.703125 -1.078125q0.5 -0.46875 1.15625 -0.734375q0.65625 -0.265625 1.296875 -0.265625q0.484375 0 0.765625 0.0625q0.28125 0.046875 0.515625 0.15625l0 1.96875q-0.34375 -0.171875 -0.75 -0.25q-0.390625 -0.09375 -0.796875 -0.09375q-0.78125 0 -1.453125 0.453125q-0.65625 0.4375 -1.046875 1.1875q-0.390625 0.75 -0.390625 1.640625l0 6.078125l-1.8125 0zm12.292877 0.34375q-1.578125 0 -2.796875 -0.75q-1.21875 -0.75 -1.921875 -2.046875q-0.6875 -1.296875 -0.6875 -2.96875q0 -1.546875 0.640625 -2.875q0.65625 -1.328125 1.84375 -2.125q1.1875 -0.796875 2.78125 -0.796875q1.625 0 2.78125 0.71875q1.15625 0.703125 1.78125 1.96875q0.640625 1.265625 0.640625 2.875q0 0.15625 -0.015625 0.3125q0 0.140625 -0.03125 0.25l-9.359375 0l0 -1.5l7.484375 0q-0.015625 -0.4375 -0.203125 -0.953125q-0.171875 -0.53125 -0.578125 -0.984375q-0.390625 -0.46875 -1.0 -0.75q-0.609375 -0.296875 -1.5 -0.296875q-1.0625 0 -1.84375 0.546875q-0.78125 0.546875 -1.203125 1.484375q-0.40625 0.9375 -0.40625 2.125q0 1.390625 0.53125 2.3125q0.53125 0.90625 1.375 1.359375q0.84375 0.453125 1.765625 0.453125q1.1875 0 1.96875 -0.5625q0.78125 -0.578125 1.25 -1.40625l1.53125 0.75q-0.640625 1.234375 -1.84375 2.046875q-1.1875 0.8125 -2.984375 0.8125zm10.652649 0q-1.21875 0 -2.140625 -0.46875q-0.90625 -0.46875 -1.4375 -1.28125q-0.515625 -0.828125 -0.515625 -1.875q0 -1.203125 0.609375 -2.015625q0.625 -0.828125 1.671875 -1.234375q1.046875 -0.421875 2.296875 -0.421875q0.734375 0 1.34375 0.125q0.625 0.109375 1.078125 0.265625q0.46875 0.15625 0.703125 0.3125l0 -0.65625q0 -1.234375 -0.875 -1.953125q-0.875 -0.734375 -2.140625 -0.734375q-0.890625 0 -1.671875 0.390625q-0.78125 0.390625 -1.234375 1.09375l-1.359375 -1.015625q0.421875 -0.640625 1.0625 -1.109375q0.640625 -0.46875 1.453125 -0.71875q0.828125 -0.265625 1.75 -0.265625q2.21875 0 3.46875 1.171875q1.265625 1.171875 1.265625 3.15625l0 6.890625l-1.71875 0l0 -1.5625l-0.09375 0q-0.28125 0.46875 -0.796875 0.90625q-0.5 0.4375 -1.203125 0.71875q-0.6875 0.28125 -1.515625 0.28125zm0.171875 -1.609375q0.9375 0 1.703125 -0.46875q0.78125 -0.46875 1.25 -1.25q0.484375 -0.796875 0.484375 -1.734375q-0.5 -0.34375 -1.234375 -0.546875q-0.734375 -0.21875 -1.609375 -0.21875q-1.5625 0 -2.28125 0.640625q-0.71875 0.640625 -0.71875 1.578125q0 0.890625 0.671875 1.453125q0.6875 0.546875 1.734375 0.546875zm7.637787 1.265625l0 -10.875l1.71875 0l0 1.59375l0.09375 0q0.296875 -0.53125 0.8125 -0.96875q0.53125 -0.4375 1.203125 -0.703125q0.671875 -0.265625 1.375 -0.265625q1.203125 0 2.078125 0.59375q0.875 0.578125 1.265625 1.515625q0.546875 -0.921875 1.484375 -1.515625q0.953125 -0.59375 2.25 -0.59375q1.9375 0 2.84375 1.171875q0.921875 1.171875 0.921875 3.078125l0 6.96875l-1.78125 0l0 -6.703125q0 -1.578125 -0.640625 -2.21875q-0.640625 -0.65625 -1.8125 -0.65625q-0.828125 0 -1.484375 0.484375q-0.65625 0.484375 -1.03125 1.265625q-0.359375 0.765625 -0.359375 1.6875l0 6.140625l-1.8125 0l0 -6.671875q0 -1.578125 -0.640625 -2.234375q-0.640625 -0.671875 -1.796875 -0.671875q-0.828125 0 -1.484375 0.5q-0.65625 0.484375 -1.03125 1.28125q-0.359375 0.78125 -0.359375 1.703125l0 6.09375l-1.8125 0z" fill-rule="nonzero"/><path fill="#000000" fill-opacity="0.0" d="m400.67453 20.509186l103.40158 0l0 42.015747l-103.40158 0z" fill-rule="evenodd"/><path fill="#000000" fill-opacity="0.0" d="m452.37534 95.75532l0 -16.615173l0.06298828 0l0 -16.613174" fill-rule="evenodd"/><path stroke="#000000" stroke-width="2.0" stroke-linejoin="round" stroke-linecap="butt" d="m452.37534 95.75531l0 -16.615166l0.06298828 0l0 -4.6131744" fill-rule="evenodd"/><path fill="#000000" stroke="#000000" stroke-width="2.0" stroke-linecap="butt" d="m455.7418 74.52697l-3.3034668 -9.076195l-3.3034668 9.076195z" fill-rule="evenodd"/><path fill="#000000" fill-opacity="0.0" d="m455.81323 20.509577l66.64569 0l0 42.015747l-66.64569 0z" fill-rule="evenodd"/><path fill="#000000" fill-opacity="0.0" d="m260.75818 20.509577l66.64569 0l0 42.015747l-66.64569 0z" fill-rule="evenodd"/><path fill="#000000" fill-opacity="0.0" d="m294.08057 95.75709l0 -33.228348" fill-rule="evenodd"/><path stroke="#000000" stroke-width="2.0" stroke-linejoin="round" stroke-linecap="butt" d="m294.08057 95.75709l0 -21.228348" fill-rule="evenodd"/><path fill="#000000" stroke="#000000" stroke-width="2.0" stroke-linecap="butt" d="m297.38403 74.52874l-3.3034668 -9.076195l-3.3034668 9.076195z" fill-rule="evenodd"/></g></svg>