<svg width="36" height="24" viewBox="0 0 36 24" fill="none" xmlns="http://www.w3.org/2000/svg">
<path d="M7.76465 11.8273L14.8235 8.47058V9.78368L9.22436 12.3377V12.3669L14.8235 14.9359V16.2353L7.76465 12.8786V11.8273Z" fill="#007D9C"/>
<path d="M16.2354 15.5294L19.3674 5.64709H20.4706L17.3391 15.5294H16.2354Z" fill="#007D9C"/>
<path d="M28.2353 12.9078L21.1765 16.2353V14.9359L26.8657 12.3669V12.3383L21.1765 9.76937V8.47058L28.2353 11.7981V12.9078Z" fill="#007D9C"/>
<path d="M34.2003 24H1.80031L0 22.5883H36L34.2003 24Z" fill="#007D9C"/>
<path d="M33.8818 21.8824H32.755V1.44423C32.755 1.2637 32.6007 1.11095 32.417 1.11095H3.5825C3.3994 1.11095 3.24446 1.26315 3.24446 1.44423V21.8824H2.11768V1.44423C2.11768 0.647683 2.77459 0 3.5825 0H32.4176C33.2255 0 33.8824 0.647683 33.8824 1.44423V21.8824H33.8818Z" fill="#007D9C"/>
<path d="M14.5089 21.8823H0V22.5882H15.5294C15.0095 22.5882 14.5935 22.2786 14.5089 21.8823Z" fill="#007D9C"/>
<path d="M21.4905 21.8823C21.4059 22.2786 20.9905 22.5882 20.4706 22.5882H36V21.8823H21.4905Z" fill="#007D9C"/>
</svg>
