<svg width="56" height="56" viewBox="0 0 56 56" fill="none" xmlns="http://www.w3.org/2000/svg">
<path d="M30.6838 32.462V28.8892C30.6838 28.1794 30.4018 27.4987 29.8999 26.9968C29.398 26.4949 28.7173 26.2129 28.0075 26.2129C27.2977 26.2129 26.6169 26.4949 26.115 26.9968C25.6131 27.4987 25.3311 28.1794 25.3311 28.8892V32.462C24.775 32.8745 24.3237 33.412 24.0138 34.0312C23.7038 34.6503 23.5439 35.3337 23.5469 36.0261C23.5469 37.2091 24.0169 38.3437 24.8534 39.1802C25.6899 40.0167 26.8245 40.4867 28.0075 40.4867C29.1905 40.4867 30.3251 40.0167 31.1616 39.1802C31.9981 38.3437 32.468 37.2091 32.468 36.0261C32.4711 35.3337 32.3111 34.6503 32.0012 34.0312C31.6912 33.412 31.24 32.8745 30.6838 32.462V32.462ZM28.0075 38.7025C27.4182 38.7029 26.8452 38.5087 26.3776 38.15C25.9101 37.7912 25.5741 37.2881 25.4219 36.7188C25.2697 36.1495 25.3099 35.5458 25.5361 35.0016C25.7623 34.4575 26.1619 34.0033 26.6729 33.7096C26.8076 33.6312 26.9194 33.5188 26.997 33.3836C27.0747 33.2485 27.1155 33.0953 27.1154 32.9394V28.8892C27.1154 28.6526 27.2094 28.4257 27.3767 28.2584C27.544 28.0911 27.7709 27.9971 28.0075 27.9971C28.2441 27.9971 28.471 28.0911 28.6383 28.2584C28.8056 28.4257 28.8996 28.6526 28.8996 28.8892V32.9394C28.8995 33.0953 28.9403 33.2485 29.0179 33.3836C29.0956 33.5188 29.2074 33.6312 29.3421 33.7096C29.853 34.0032 30.2527 34.4574 30.4789 35.0016C30.7052 35.5458 30.7453 36.1494 30.5931 36.7188C30.4409 37.2881 30.1049 37.7912 29.6374 38.15C29.1698 38.5087 28.5968 38.7029 28.0075 38.7025V38.7025Z" fill="#007D9C"/>
<path d="M45.9764 32.4576C46.1936 33.2986 46.71 34.0315 47.4288 34.519C48.1477 35.0064 49.0196 35.215 49.8812 35.1055C50.7428 34.9961 51.535 34.5762 52.1091 33.9245C52.6833 33.2728 53 32.4341 53 31.5655C53 30.697 52.6833 29.8583 52.1091 29.2066C51.535 28.5549 50.7428 28.135 49.8812 28.0255C49.0196 27.9161 48.1477 28.1246 47.4288 28.6121C46.71 29.0996 46.1936 29.8325 45.9764 30.6734H42.2813V25.3207H45.8498C45.9669 25.3208 46.0829 25.2977 46.1912 25.2529C46.2994 25.208 46.3977 25.1423 46.4805 25.0594L50.049 21.4909C50.1318 21.4081 50.1976 21.3098 50.2424 21.2016C50.2873 21.0933 50.3103 20.9773 50.3103 20.8602V17.1651C51.1513 16.9479 51.8842 16.4315 52.3716 15.7127C52.8591 14.9938 53.0677 14.1219 52.9582 13.2603C52.8488 12.3987 52.4289 11.6065 51.7772 11.0324C51.1255 10.4582 50.2868 10.1415 49.4182 10.1415C48.5497 10.1415 47.711 10.4582 47.0593 11.0324C46.4076 11.6065 45.9876 12.3987 45.8782 13.2603C45.7688 14.1219 45.9773 14.9938 46.4648 15.7127C46.9522 16.4315 47.6851 16.9479 48.5261 17.1651V20.4909L45.4804 23.5365H42.2813V21.7523C42.2814 21.6351 42.2584 21.5191 42.2135 21.4108C42.1687 21.3026 42.103 21.2042 42.0202 21.1213C41.9373 21.0385 41.8389 20.9728 41.7307 20.928C41.6224 20.8831 41.5064 20.8601 41.3892 20.8602H38.7129V13.7233C38.7129 10.8841 37.585 8.16111 35.5773 6.15347C33.5697 4.14583 30.8468 3.01794 28.0075 3.01794C25.1683 3.01794 22.4453 4.14583 20.4377 6.15347C18.4301 8.16111 17.3022 10.8841 17.3022 13.7233V20.8602H14.6258C14.5087 20.8601 14.3926 20.8831 14.2844 20.928C14.1761 20.9728 14.0777 21.0385 13.9949 21.1213C13.912 21.2042 13.8463 21.3026 13.8015 21.4108C13.7567 21.5191 13.7337 21.6351 13.7337 21.7523V23.5365H10.5346L7.48894 20.4909V17.1651C8.3299 16.9479 9.0628 16.4315 9.55026 15.7127C10.0377 14.9938 10.2463 14.1219 10.1368 13.2603C10.0274 12.3987 9.60748 11.6065 8.95578 11.0324C8.30409 10.4582 7.46537 10.1415 6.59683 10.1415C5.72829 10.1415 4.88957 10.4582 4.23788 11.0324C3.58618 11.6065 3.16626 12.3987 3.05682 13.2603C2.94738 14.1219 3.15594 14.9938 3.6434 15.7127C4.13086 16.4315 4.86376 16.9479 5.70472 17.1651V20.8602C5.7047 20.9773 5.72777 21.0933 5.77262 21.2016C5.81746 21.3098 5.8832 21.4081 5.96607 21.4909L9.53452 25.0594C9.61733 25.1423 9.71566 25.208 9.82389 25.2529C9.93212 25.2977 10.0481 25.3208 10.1653 25.3207H13.7337V30.6734H10.0386C9.82146 29.8325 9.30508 29.0996 8.58623 28.6121C7.86739 28.1246 6.99544 27.9161 6.13382 28.0255C5.27221 28.135 4.48009 28.5549 3.90593 29.2066C3.33178 29.8583 3.01501 30.697 3.01501 31.5655C3.01501 32.4341 3.33178 33.2728 3.90593 33.9245C4.48009 34.5762 5.27221 34.9961 6.13382 35.1055C6.99544 35.215 7.86739 35.0064 8.58623 34.519C9.30508 34.0315 9.82146 33.2986 10.0386 32.4576H13.7337V37.8103H10.1653C10.0481 37.8103 9.93212 37.8334 9.82389 37.8782C9.71566 37.9231 9.61733 37.9888 9.53452 38.0717L5.96607 41.6401C5.8832 41.7229 5.81746 41.8213 5.77262 41.9295C5.72777 42.0377 5.7047 42.1537 5.70472 42.2709V45.966C4.86376 46.1831 4.13086 46.6995 3.6434 47.4184C3.15594 48.1372 2.94738 49.0092 3.05682 49.8708C3.16626 50.7324 3.58618 51.5245 4.23788 52.0987C4.88957 52.6728 5.72829 52.9896 6.59683 52.9896C7.46537 52.9896 8.30409 52.6728 8.95578 52.0987C9.60748 51.5245 10.0274 50.7324 10.1368 49.8708C10.2463 49.0092 10.0377 48.1372 9.55026 47.4184C9.0628 46.6995 8.3299 46.1831 7.48894 45.966V42.6402L10.5346 39.5945H13.7337V43.163C13.7337 43.2802 13.7567 43.3962 13.8015 43.5045C13.8463 43.6127 13.912 43.7111 13.9949 43.794C14.0777 43.8768 14.1761 43.9425 14.2844 43.9873C14.3926 44.0321 14.5087 44.0552 14.6258 44.0551H41.3892C41.5064 44.0552 41.6224 44.0321 41.7307 43.9873C41.8389 43.9425 41.9373 43.8768 42.0202 43.794C42.103 43.7111 42.1687 43.6127 42.2135 43.5045C42.2584 43.3962 42.2814 43.2802 42.2813 43.163V39.5945H45.4804L48.5261 42.6402V45.966C47.6851 46.1831 46.9522 46.6995 46.4648 47.4184C45.9773 48.1372 45.7688 49.0092 45.8782 49.8708C45.9876 50.7324 46.4076 51.5245 47.0593 52.0987C47.711 52.6728 48.5497 52.9896 49.4182 52.9896C50.2868 52.9896 51.1255 52.6728 51.7772 52.0987C52.4289 51.5245 52.8488 50.7324 52.9582 49.8708C53.0677 49.0092 52.8591 48.1372 52.3716 47.4184C51.8842 46.6995 51.1513 46.1831 50.3103 45.966V42.2709C50.3103 42.1537 50.2873 42.0377 50.2424 41.9295C50.1976 41.8213 50.1318 41.7229 50.049 41.6401L46.4805 38.0717C46.3977 37.9888 46.2994 37.9231 46.1912 37.8782C46.0829 37.8334 45.9669 37.8103 45.8498 37.8103H42.2813V32.4576H45.9764ZM49.4182 29.7813C49.7711 29.7813 50.1161 29.886 50.4095 30.082C50.7029 30.2781 50.9316 30.5567 51.0666 30.8827C51.2017 31.2088 51.237 31.5675 51.1682 31.9136C51.0993 32.2597 50.9294 32.5776 50.6799 32.8272C50.4303 33.0767 50.1124 33.2466 49.7663 33.3155C49.4202 33.3843 49.0614 33.349 48.7354 33.2139C48.4094 33.0789 48.1307 32.8502 47.9347 32.5568C47.7386 32.2634 47.634 31.9184 47.634 31.5655C47.6346 31.0925 47.8228 30.6391 48.1573 30.3046C48.4917 29.9701 48.9452 29.7819 49.4182 29.7813V29.7813ZM47.634 13.7233C47.634 13.3704 47.7386 13.0254 47.9347 12.732C48.1307 12.4386 48.4094 12.2099 48.7354 12.0749C49.0614 11.9398 49.4202 11.9045 49.7663 11.9733C50.1124 12.0422 50.4303 12.2121 50.6799 12.4617C50.9294 12.7112 51.0993 13.0291 51.1682 13.3752C51.237 13.7213 51.2017 14.0801 51.0666 14.4061C50.9316 14.7321 50.7029 15.0108 50.4095 15.2068C50.1161 15.4029 49.7711 15.5075 49.4182 15.5075C48.9452 15.5069 48.4917 15.3187 48.1573 14.9843C47.8228 14.6498 47.6346 14.1963 47.634 13.7233V13.7233ZM4.81261 13.7233C4.81261 13.3704 4.91725 13.0254 5.1133 12.732C5.30936 12.4386 5.58801 12.2099 5.91404 12.0749C6.24006 11.9398 6.59881 11.9045 6.94491 11.9733C7.29102 12.0422 7.60894 12.2121 7.85847 12.4617C8.10799 12.7112 8.27793 13.0291 8.34677 13.3752C8.41562 13.7213 8.38028 14.0801 8.24524 14.4061C8.11019 14.7321 7.88151 15.0108 7.58809 15.2068C7.29468 15.4029 6.94972 15.5075 6.59683 15.5075C6.12381 15.5069 5.67035 15.3187 5.33587 14.9843C5.0014 14.6498 4.81322 14.1963 4.81261 13.7233ZM6.59683 33.3498C6.24394 33.3498 5.89898 33.2451 5.60557 33.0491C5.31215 32.853 5.08347 32.5744 4.94842 32.2483C4.81338 31.9223 4.77804 31.5636 4.84689 31.2174C4.91573 30.8713 5.08566 30.5534 5.33519 30.3039C5.58472 30.0544 5.90264 29.8844 6.24875 29.8156C6.59485 29.7467 6.9536 29.7821 7.27962 29.9171C7.60565 30.0522 7.8843 30.2809 8.08036 30.5743C8.27641 30.8677 8.38105 31.2126 8.38105 31.5655C8.38044 32.0386 8.19226 32.492 7.85779 32.8265C7.52332 33.161 7.06985 33.3491 6.59683 33.3498V33.3498ZM8.38105 49.4078C8.38105 49.7607 8.27641 50.1056 8.08036 50.399C7.8843 50.6925 7.60565 50.9211 7.27962 51.0562C6.9536 51.1912 6.59485 51.2266 6.24875 51.1577C5.90264 51.0889 5.58472 50.9189 5.33519 50.6694C5.08566 50.4199 4.91573 50.102 4.84689 49.7559C4.77804 49.4098 4.81338 49.051 4.94842 48.725C5.08347 48.399 5.31215 48.1203 5.60557 47.9242C5.89898 47.7282 6.24394 47.6236 6.59683 47.6236C7.06985 47.6242 7.52332 47.8123 7.85779 48.1468C8.19226 48.4813 8.38044 48.9348 8.38105 49.4078V49.4078ZM51.2024 49.4078C51.2024 49.7607 51.0978 50.1056 50.9017 50.399C50.7057 50.6925 50.427 50.9211 50.101 51.0562C49.775 51.1912 49.4162 51.2266 49.0701 51.1577C48.724 51.0889 48.4061 50.9189 48.1566 50.6694C47.907 50.4199 47.7371 50.102 47.6683 49.7559C47.5994 49.4098 47.6348 49.051 47.7698 48.725C47.9048 48.399 48.1335 48.1203 48.427 47.9242C48.7204 47.7282 49.0653 47.6236 49.4182 47.6236C49.8912 47.6242 50.3447 47.8123 50.6792 48.1468C51.0136 48.4813 51.2018 48.9348 51.2024 49.4078V49.4078ZM19.0864 13.7233C19.0864 11.3573 20.0263 9.08814 21.6993 7.4151C23.3724 5.74207 25.6415 4.80217 28.0075 4.80217C30.3736 4.80217 32.6427 5.74207 34.3157 7.4151C35.9887 9.08814 36.9286 11.3573 36.9286 13.7233V20.8602H35.1444V13.7233C35.1444 11.8305 34.3925 10.0152 33.0541 8.67674C31.7156 7.33831 29.9003 6.58639 28.0075 6.58639C26.1147 6.58639 24.2994 7.33831 22.961 8.67674C21.6225 10.0152 20.8706 11.8305 20.8706 13.7233V20.8602H19.0864V13.7233ZM22.6548 20.8602V13.7233C22.6548 12.3037 23.2188 10.9422 24.2226 9.93838C25.2264 8.93456 26.5879 8.37062 28.0075 8.37062C29.4271 8.37062 30.7886 8.93456 31.7924 9.93838C32.7963 10.9422 33.3602 12.3037 33.3602 13.7233V20.8602H22.6548ZM40.4971 42.2709H15.518V22.6444H40.4971V42.2709Z" fill="#007D9C"/>
</svg>
