<svg width="36" height="36" fill="none" xmlns="http://www.w3.org/2000/svg">
  <path
    d="M18 13a5 5 0 100 10 5 5 0 000-10zm0 9c-2 0-4-2-4-4s2-4 4-4 4 2 4 4-2 4-4 4z"
    fill="#007D9C"
  />
  <path
    d="M31 22l-1-1-2-1a11 11 0 000-4l1-1c2-1 2-2 1-3l-1-2-2-1h-1l-1 1-4-2V6l-2-2h-2c-2 0-3 1-3 2v2l-4 2-1-1H8l-2 1-1 2v2l1 1 1 1a11 11 0 000 4l-1 1c-1 1-2 2-1 3l1 2 2 1h1l1-1 5 2v2c0 1 0 2 2 2h2l2-2v-2l4-2 1 1h2l1-1 1-2 1-2zm-2 1l-1 2v1h-1l-2-2v1l-5 2v3l-1 1h-2l-1-1v-2l-1-1-4-2-2 1H8l-1-1-1-2 1-1 1-1a9 9 0 010-5l1-1-3-1v-1l1-2 1-1h1l2 2v-1l4-2V6l2-1h2l1 1v3l4 2 1 1 2-2 1 1 1 2v1l-2 1v6l2 1 1 1h-1z"
    fill="#007D9C"
  />
  <path
    d="M8 4c5-4 12-4 18-1l-2 1 6 1-3-5v2C21-1 13-1 7 3v1h1zM3 9l1 2 1-6-5 3 2 1c-3 6-3 13 1 19h1v-1C0 22 0 15 3 9zM27 32c-5 4-12 4-18 1l2-1-6-1 3 5 1-2 9 2c3 0 7-1 10-3v-1h-1zM33 7h-1v1c4 5 4 12 1 18l-1-2-1 6 5-3h-2c3-6 3-14-1-20z"
    fill="#007D9C"
  />
</svg>
