<svg width="16" height="16" fill="none" xmlns="http://www.w3.org/2000/svg"><path d="M7.984 0c-1.45 0-2.795.363-4.032 1.088a7.846 7.846 0 0 0-2.864 2.864A7.833 7.833 0 0 0 0 7.984c0 1.141.24 2.235.72 3.28a7.996 7.996 0 0 0 1.904 2.64 8.236 8.236 0 0 0 2.8 1.664c.181.021.32-.016.416-.112a.365.365 0 0 0 .128-.288v-1.376a3.159 3.159 0 0 1-1.12.08 2.105 2.105 0 0 1-.784-.24 2.113 2.113 0 0 1-.48-.384 1.977 1.977 0 0 1-.24-.368l-.064-.16a3.06 3.06 0 0 0-.384-.72 1.832 1.832 0 0 0-.352-.352l-.144-.096c-.31-.203-.395-.347-.256-.432a.613.613 0 0 1 .304-.064c.235.01.453.09.656.24.16.107.299.235.416.384l.144.208c.32.533.741.827 1.264.88.33.032.677-.032 1.04-.192.043-.427.208-.784.496-1.072-1.088-.128-1.915-.432-2.48-.912-.768-.64-1.152-1.659-1.152-3.056 0-.832.277-1.552.832-2.16a2.386 2.386 0 0 1-.128-.688 2.899 2.899 0 0 1 .24-1.36l.128-.016c.117 0 .25.016.4.048.203.043.432.123.688.24.299.139.624.325.976.56.533-.16 1.205-.24 2.016-.24.63 0 1.296.08 2 .24.341-.235.667-.421.976-.56.256-.117.485-.197.688-.24.15-.032.283-.048.4-.048l.144.016c.267.661.304 1.344.112 2.048l-.016.048c.267.299.47.635.608 1.008.15.373.224.757.224 1.152 0 .96-.187 1.739-.56 2.336-.31.512-.757.901-1.344 1.168-.459.192-1.035.33-1.728.416.16.128.288.31.384.544.107.267.16.57.16.912v2.208c0 .117.043.219.128.304.096.085.235.112.416.08a7.68 7.68 0 0 0 2.832-1.664 8.122 8.122 0 0 0 1.904-2.672A7.818 7.818 0 0 0 16 7.984a8.075 8.075 0 0 0-1.12-4.032A7.971 7.971 0 0 0 12 1.088 7.804 7.804 0 0 0 7.984 0Z" fill="#1C1F23"/></svg>