<svg width="56" height="56" fill="none" xmlns="http://www.w3.org/2000/svg"><path d="M52.94 31.166a1.212 1.212 0 0 0-.113-.24v-.038a1.229 1.229 0 0 0-.198-.23l-.06-.049a1.233 1.233 0 0 0-.228-.147h-.03l-7.748-3.534v-5.47c0-.215-.059-.426-.168-.611a1.23 1.23 0 0 0-.456-.446l-5.752-3.23v-6.327c0-.106-.015-.21-.044-.313v-.073a1.212 1.212 0 0 0-.114-.24v-.039a1.226 1.226 0 0 0-.198-.23l-.06-.048a1.234 1.234 0 0 0-.227-.147h-.03l-8.01-3.642a1.253 1.253 0 0 0-1.036 0l-7.971 3.622h-.03c-.081.04-.157.09-.228.147l-.06.049a1.223 1.223 0 0 0-.197.23v.039a1.206 1.206 0 0 0-.114.24v.073a1.191 1.191 0 0 0-.045.313v6.355l-5.866 3.358a1.21 1.21 0 0 0-.614 1.06v5.13a1.248 1.248 0 0 0-.718.092l-7.951 3.623h-.03c-.081.04-.158.09-.228.146l-.06.05a1.225 1.225 0 0 0-.197.23v.038a1.205 1.205 0 0 0-.114.24v.073a1.197 1.197 0 0 0-.045.313v8.731c0 .234.067.462.195.659.127.196.309.353.523.451l7.912 3.622a1.252 1.252 0 0 0 1.035 0l3.424-1.554 11.344 6.394a1.252 1.252 0 0 0 1.239 0l10.7-6.16 2.908 1.325a1.252 1.252 0 0 0 1.036 0l7.966-3.622c.214-.098.396-.255.523-.451a1.21 1.21 0 0 0 .195-.659v-8.716a1.2 1.2 0 0 0-.045-.313l-.014-.074ZM11.922 41.98l-5.489-2.498v-6.023l5.49 2.498v6.023Zm18.3-26.726 5.49-2.498v6.018l-5.49 2.498v-6.018Zm-7.965-2.498 5.488 2.498v6.018l-5.488-2.498v-6.018ZM14.398 41.98v-6.023l5.49-2.498v6.023l-5.49 2.498Zm14.654 5.378-9.19-5.182 1.784-.812c.215-.098.396-.254.524-.451a1.21 1.21 0 0 0 .194-.659v-8.701a1.2 1.2 0 0 0-.044-.313v-.074a1.201 1.201 0 0 0-.114-.24v-.038a1.225 1.225 0 0 0-.198-.23l-.06-.049a1.233 1.233 0 0 0-.227-.147h-.03l-5.846-2.659v-5.505l4.033-2.322c.107.301.329.549.619.69l7.986 3.627a1.252 1.252 0 0 0 1.035 0l7.951-3.627a1.233 1.233 0 0 0 .65-.724l3.962 2.224v5.187l-6.767 3.09h-.03c-.08.04-.157.09-.227.146l-.06.05a1.227 1.227 0 0 0-.198.23v.038a1.206 1.206 0 0 0-.114.24v.073a1.195 1.195 0 0 0-.044.313v8.731c0 .234.067.462.194.659.127.196.31.353.524.451l2.313 1.051-8.62 4.933Zm13.51-5.378-5.49-2.498v-6.023l5.49 2.498v6.023Zm7.966-2.498-5.484 2.498v-6.023l5.489-2.498-.005 6.023Z" fill="#007D9C"/></svg>