<svg width="16" height="16" fill="none" xmlns="http://www.w3.org/2000/svg"><g clip-path="url(#a)"><path d="M9.492 10.232a.144.144 0 0 1 0 .204c-.31.308-.796.458-1.487.458l-.006-.001-.005.001c-.69 0-1.177-.15-1.487-.459a.143.143 0 0 1 0-.203.146.146 0 0 1 .204 0c.253.251.672.374 1.283.374l.005.001.006-.001c.61 0 1.029-.123 1.282-.374a.146.146 0 0 1 .205 0ZM7.199 8.62a.614.614 0 0 0-1.23 0 .614.614 0 0 0 1.23 0ZM16 8A8 8 0 1 1 0 8a8 8 0 0 1 16 0Zm-3.333-.086a1.032 1.032 0 0 0-1.75-.739c-.704-.463-1.656-.758-2.71-.796l.576-1.816 1.562.366-.002.023a.844.844 0 0 0 1.69 0 .844.844 0 0 0-1.63-.305l-1.684-.395a.144.144 0 0 0-.171.097l-.643 2.025c-1.104.013-2.104.31-2.839.787a1.03 1.03 0 0 0-1.733.753c0 .377.208.704.512.883-.02.11-.033.221-.033.334 0 1.52 1.87 2.758 4.169 2.758 2.298 0 4.168-1.238 4.168-2.758a1.83 1.83 0 0 0-.029-.315c.324-.174.547-.51.547-.902Zm-3.248.094a.614.614 0 0 0-.615.613.614.614 0 0 0 1.23 0 .614.614 0 0 0-.615-.613Z" fill="#EB5428"/></g><defs><clipPath id="a"><path fill="#fff" d="M0 0h16v16H0z"/></clipPath></defs></svg>