<svg width="56" height="56" fill="none" xmlns="http://www.w3.org/2000/svg"><path d="M43.941 56a3.044 3.044 0 0 0 3.04-3.04V3.04A3.044 3.044 0 0 0 43.941 0h-31.9A3.044 3.044 0 0 0 9 3.04V52.96A3.044 3.044 0 0 0 12.04 56h31.901ZM10.697 11.668h34.587v33.037H10.697V11.668Zm0-8.628c0-.74.602-1.343 1.343-1.343h31.901c.74 0 1.343.602 1.343 1.343v6.93H10.697V3.04Zm0 49.92v-6.558h34.587v6.558c0 .74-.602 1.343-1.343 1.343h-31.9c-.742 0-1.344-.602-1.344-1.343Z" fill="#007D9C"/><path d="M35.875 4.985H20.107a.848.848 0 1 0 0 1.697h15.768a.848.848 0 1 0 0-1.697ZM27.99 53.415a3.066 3.066 0 0 0 3.063-3.063 3.066 3.066 0 0 0-3.062-3.062 3.066 3.066 0 0 0-3.063 3.062 3.066 3.066 0 0 0 3.063 3.063Zm0-4.428a1.367 1.367 0 0 1 0 2.73 1.367 1.367 0 0 1 0-2.73ZM38.8 19.32l-10.455-4.806a.842.842 0 0 0-.709 0L17.181 19.32a.848.848 0 0 0-.494.77v7.143c0 6.042 4.208 11.509 10.984 14.268a.84.84 0 0 0 .64 0c6.775-2.76 10.983-8.226 10.983-14.268V20.09a.848.848 0 0 0-.493-.77Zm-1.203 7.913c0 5.244-3.671 10.032-9.606 12.564-5.936-2.532-9.607-7.32-9.607-12.564v-6.6l9.607-4.415 9.606 4.416v6.599Z" fill="#007D9C"/><path d="M23.862 28.49a.848.848 0 1 0-1.2 1.2l2.426 2.426a.846.846 0 0 0 1.2 0l7.031-7.032a.848.848 0 1 0-1.2-1.2l-6.431 6.432-1.826-1.826Z" fill="#007D9C"/></svg>