<svg width="11" height="9" fill="none" xmlns="http://www.w3.org/2000/svg"><path d="M2.293 5.43c0 .497-.515.903-1.146.903C.516 6.333 0 5.927 0 5.43s.516-.903 1.147-.903h1.146v.903ZM2.871 5.43c0-.497.516-.903 1.147-.903.63 0 1.146.406 1.146.903v2.26c0 .497-.515.903-1.146.903-.631 0-1.147-.406-1.147-.903V5.43Z" fill="#E01E5A"/><path d="M4.018 1.805c-.631 0-1.147-.406-1.147-.902C2.871.406 3.387 0 4.018 0c.63 0 1.146.406 1.146.903v.902H4.018ZM4.018 2.26c.63 0 1.146.406 1.146.902 0 .497-.515.903-1.146.903H1.147C.516 4.065 0 3.66 0 3.162c0-.496.516-.902 1.147-.902h2.87Z" fill="#36C5F0"/><path d="M8.622 3.162c0-.496.516-.902 1.147-.902.63 0 1.146.406 1.146.902 0 .497-.515.903-1.146.903H8.622v-.903ZM8.044 3.163c0 .497-.515.902-1.146.902-.631 0-1.147-.405-1.147-.902V.903C5.751.406 6.267 0 6.898 0c.63 0 1.146.406 1.146.903v2.26Z" fill="#2EB67D"/><path d="M6.898 6.787c.63 0 1.146.406 1.146.903s-.515.902-1.146.902c-.631 0-1.147-.405-1.147-.902v-.903h1.147ZM6.898 6.333c-.631 0-1.147-.406-1.147-.903s.516-.903 1.147-.903h2.87c.632 0 1.147.406 1.147.903s-.515.903-1.146.903H6.898Z" fill="#ECB22E"/></svg>