<svg width="56" height="56" fill="none" xmlns="http://www.w3.org/2000/svg"><path d="M8.04 16.196a1.04 1.04 0 0 0 1.04-1.04V9.08h6.076a1.04 1.04 0 1 0 0-2.08H8.04A1.04 1.04 0 0 0 7 8.04v7.116c0 .574.465 1.04 1.04 1.04ZM48.156 7H41.04a1.04 1.04 0 1 0 0 2.08h6.076v6.076a1.04 1.04 0 1 0 2.08 0V8.04A1.04 1.04 0 0 0 48.156 7ZM48.156 40a1.04 1.04 0 0 0-1.04 1.04v6.076H41.04a1.04 1.04 0 1 0 0 2.08h7.116a1.04 1.04 0 0 0 1.04-1.04V41.04a1.04 1.04 0 0 0-1.04-1.04ZM15.156 47.116H9.08V41.04a1.04 1.04 0 1 0-2.08 0v7.116c0 .575.465 1.04 1.04 1.04h7.116a1.04 1.04 0 1 0 0-2.08Z" fill="#007D9C"/><circle cx="28" cy="28" r="14" stroke="#007D9C" stroke-width="2"/><path d="M21 27.857 25.952 33 34 24" stroke="#007D9C" stroke-width="2" stroke-linecap="round" stroke-linejoin="round"/></svg>