<svg width="56" height="56" fill="none" xmlns="http://www.w3.org/2000/svg"><g clip-path="url(#a)" fill="#007D9C"><path d="M52.032 21.477h-14.89V6.587A4.024 4.024 0 0 0 33.1 2.546H3.544a4.024 4.024 0 0 0-4.041 4.04v17.211a4.024 4.024 0 0 0 4.04 4.04h1.198v5.837c0 .3.224.599.524.749h.224c.225 0 .45-.15.599-.3l4.265-6.21h8.007v14.89a4.024 4.024 0 0 0 4.04 4.041h22.748l4.265 6.21c.15.225.374.3.599.3h.224c.3-.075.524-.374.524-.748v-5.837h1.197a4.024 4.024 0 0 0 4.04-4.04v-17.21c.076-2.246-1.795-4.042-3.965-4.042ZM9.979 26.341c-.225 0-.45.15-.599.3l-3.143 4.564V27.09c0-.45-.299-.749-.748-.749H3.544a2.523 2.523 0 0 1-2.545-2.544V6.587a2.523 2.523 0 0 1 2.545-2.544H33.1a2.523 2.523 0 0 1 2.544 2.544v14.89h-13.17a4.024 4.024 0 0 0-4.04 4.041v.823H9.978Zm44.597 16.387a2.523 2.523 0 0 1-2.544 2.545h-1.945c-.45 0-.749.299-.749.748v4.115l-3.143-4.564c-.15-.225-.374-.3-.598-.3H22.475a2.523 2.523 0 0 1-2.544-2.544V25.52a2.523 2.523 0 0 1 2.544-2.545h29.557a2.523 2.523 0 0 1 2.544 2.544v17.21Z"/><path d="M10.578 16.614a2.172 2.172 0 0 1-2.17-2.17c0-1.198.972-2.17 2.17-2.17 1.197 0 2.17.972 2.17 2.17 0 1.197-.973 2.17-2.17 2.17Zm0-2.769a.67.67 0 0 0-.674.673c0 .375.3.674.674.674a.67.67 0 0 0 .673-.674.67.67 0 0 0-.673-.673ZM19.183 16.614a2.172 2.172 0 0 1-2.17-2.17c0-1.198.972-2.17 2.17-2.17 1.197 0 2.17.972 2.17 2.17 0 1.197-.973 2.17-2.17 2.17Zm0-2.769a.67.67 0 0 0-.674.673c0 .375.3.674.674.674a.67.67 0 0 0 .673-.674.67.67 0 0 0-.673-.673ZM27.788 16.614a2.172 2.172 0 0 1-2.17-2.17c0-1.198.973-2.17 2.17-2.17s2.17.972 2.17 2.17c0 1.197-1.048 2.17-2.17 2.17Zm0-2.769a.67.67 0 0 0-.674.673c0 .375.3.674.674.674a.67.67 0 0 0 .673-.674c0-.374-.374-.673-.673-.673ZM28.686 35.77a2.172 2.172 0 0 1-2.17-2.17c0-1.198.973-2.17 2.17-2.17s2.17.972 2.17 2.17c0 1.197-.973 2.17-2.17 2.17Zm0-2.77a.67.67 0 0 0-.674.674c0 .374.3.674.674.674a.67.67 0 0 0 .673-.674c0-.374-.374-.673-.673-.673ZM37.216 35.77a2.172 2.172 0 0 1-2.17-2.17c0-1.198.973-2.17 2.17-2.17s2.17.972 2.17 2.17c0 1.197-.973 2.17-2.17 2.17Zm0-2.77a.67.67 0 0 0-.673.674c0 .374.299.674.673.674a.67.67 0 0 0 .673-.674.67.67 0 0 0-.673-.673ZM45.821 35.77a2.172 2.172 0 0 1-2.17-2.17c0-1.198.973-2.17 2.17-2.17 1.198 0 2.17.972 2.17 2.17 0 1.197-.972 2.17-2.17 2.17Zm0-2.77a.67.67 0 0 0-.673.674c0 .374.3.674.673.674a.67.67 0 0 0 .674-.674.67.67 0 0 0-.674-.673Z"/></g><defs><clipPath id="a"><path fill="#fff" d="M0 0h56v56H0z"/></clipPath></defs></svg>