<svg width="15" height="12" fill="none" xmlns="http://www.w3.org/2000/svg"><path d="M14.016 1.344c-.203.288-.427.56-.672.816-.235.245-.49.47-.768.672.01.128.016.256.016.384 0 .576-.064 1.147-.192 1.712a7.95 7.95 0 0 1-.528 1.616 8.881 8.881 0 0 1-1.264 2.032 7.9 7.9 0 0 1-1.728 1.536 7.9 7.9 0 0 1-2.096.944 8.131 8.131 0 0 1-2.368.32 8.46 8.46 0 0 1-2.304-.32A7.86 7.86 0 0 1 0 10.096c.768.085 1.52.027 2.256-.176a5.836 5.836 0 0 0 2-1.024 2.71 2.71 0 0 1-1.28-.32 2.97 2.97 0 0 1-.992-.864 3.122 3.122 0 0 1-.4-.8l.272.032c.341.032.677 0 1.008-.096a2.89 2.89 0 0 1-.912-.352A3 3 0 0 1 .72 5.008a3.068 3.068 0 0 1-.16-.976V4a2.7 2.7 0 0 0 1.312.368 2.813 2.813 0 0 1-.928-1.04 2.333 2.333 0 0 1-.256-.656A2.748 2.748 0 0 1 .992.528c.363.459.768.864 1.216 1.216a8.271 8.271 0 0 0 4.704 1.792 1.701 1.701 0 0 1-.064-.32 3.719 3.719 0 0 1-.016-.336c0-.405.075-.779.224-1.12a3.1 3.1 0 0 1 .608-.912c.267-.267.576-.475.928-.624C8.944.074 9.317 0 9.712 0c.395 0 .773.08 1.136.24.363.16.677.384.944.672a5.588 5.588 0 0 0 1.824-.704c-.107.341-.267.65-.48.928-.213.267-.475.49-.784.672A6.18 6.18 0 0 0 14 1.36l.016-.016Z" fill="#6FA8D8"/></svg>