<svg width="191" height="64" viewBox="0 0 191 64" fill="none" xmlns="http://www.w3.org/2000/svg">
<path d="M187.422 20.9259C185.789 18.8205 183.697 17.1165 181.304 15.9443C178.911 14.772 176.282 14.1626 173.618 14.1626C170.953 14.1626 168.324 14.772 165.932 15.9443C163.539 17.1165 161.446 18.8205 159.813 20.9259C157.674 24.0666 156.53 27.7783 156.53 31.5781C156.53 35.3779 157.674 39.0897 159.813 42.2303C161.446 44.3357 163.539 46.0397 165.932 47.212C168.324 48.3842 170.953 48.9936 173.618 48.9936C176.282 48.9936 178.911 48.3842 181.304 47.212C183.697 46.0397 185.789 44.3357 187.422 42.2303C189.561 39.0897 190.705 35.3779 190.705 31.5781C190.705 27.7783 189.561 24.0666 187.422 20.9259V20.9259ZM182.014 35.5771C180.759 39.322 177.781 42.31 173.668 42.3399C169.554 42.3698 166.576 39.3519 165.321 35.5771C164.451 32.9923 164.451 30.1938 165.321 27.6091C166.576 23.8641 169.554 20.8761 173.668 20.8462C177.781 20.8164 180.759 23.8342 182.014 27.6091C182.897 30.1918 182.897 32.9944 182.014 35.5771V35.5771ZM56.2493 48.1366C56.2493 48.4008 56.1444 48.6541 55.9576 48.8409C55.7708 49.0277 55.5175 49.1326 55.2533 49.1326H49.5462C49.2821 49.1326 49.0288 49.0277 48.842 48.8409C48.6552 48.6541 48.5502 48.4008 48.5502 48.1366V0.995998C48.5502 0.731843 48.6552 0.478506 48.842 0.29172C49.0288 0.104934 49.2821 0 49.5462 0H55.2832C55.5474 0 55.8007 0.104934 55.9875 0.29172C56.1743 0.478506 56.2792 0.731843 56.2792 0.995998L56.2493 48.1366ZM42.7735 48.1366C42.7735 48.4008 42.6685 48.6541 42.4817 48.8409C42.2949 49.0277 42.0416 49.1326 41.7775 49.1326H36.0505C35.7863 49.1326 35.533 49.0277 35.3462 48.8409C35.1594 48.6541 35.0545 48.4008 35.0545 48.1366V0.995998C35.0545 0.731843 35.1594 0.478506 35.3462 0.29172C35.533 0.104934 35.7863 0 36.0505 0H41.7874C42.0516 0 42.3049 0.104934 42.4917 0.29172C42.6785 0.478506 42.7834 0.731843 42.7834 0.995998L42.7735 48.1366ZM155.242 16.185V20.169C155.283 20.3477 155.275 20.5344 155.217 20.7086C155.16 20.8828 155.055 21.0377 154.915 21.1562C154.775 21.2747 154.605 21.3522 154.423 21.3801C154.242 21.408 154.056 21.3852 153.887 21.3144C147.403 19.9698 143.419 22.8582 143.419 28.8441V48.0968C143.419 48.3609 143.314 48.6142 143.127 48.801C142.941 48.9878 142.687 49.0928 142.423 49.0928H136.696C136.432 49.0928 136.179 48.9878 135.992 48.801C135.805 48.6142 135.7 48.3609 135.7 48.0968V28.376C135.665 26.5123 136.023 24.6621 136.75 22.946C137.478 21.2299 138.559 19.6863 139.923 18.416C142.723 15.676 146.493 14.1543 150.411 14.183C151.748 14.1859 153.082 14.3126 154.395 14.5615V14.5615C155.122 14.7607 155.242 15.1591 155.242 16.185ZM130.69 31.5731C130.756 27.7661 129.609 24.037 127.413 20.9259C125.779 18.8204 123.686 17.1164 121.292 15.9441C118.899 14.7719 116.269 14.1625 113.604 14.1625C110.939 14.1625 108.309 14.7719 105.915 15.9441C103.522 17.1164 101.428 18.8204 99.7944 20.9259C97.6344 24.0583 96.4778 27.7733 96.4778 31.5781C96.4778 35.383 97.6344 39.098 99.7944 42.2303C101.399 44.3667 103.486 46.0932 105.885 47.2686C108.284 48.444 110.928 49.035 113.599 48.9932C117.103 48.9967 120.529 47.9565 123.439 46.0052V50.2182C123.439 55.9353 118.459 56.9711 115.232 57.1902C113.032 57.2573 110.829 57.1373 108.649 56.8317C107.772 56.6922 107.165 56.8317 107.165 57.7679C107.165 57.7679 107.165 62.8276 107.165 62.8375C107.165 63.2061 107.444 63.6144 108.061 63.6642C115.491 64.3017 120.491 64.1722 124.266 62.0308C126.898 60.4715 128.852 57.9848 129.744 55.0588C130.41 52.796 130.729 50.4453 130.69 48.0868V31.5731ZM113.599 42.3399C109.485 42.3399 106.507 39.3519 105.262 35.5771C104.38 32.9944 104.38 30.1918 105.262 27.6091C106.507 23.8641 109.485 20.8462 113.599 20.8462C122.812 20.8462 123.121 30.2584 123.131 31.603C123.141 32.9476 122.812 42.3399 113.599 42.3399ZM29.8155 28.127C29.8155 23.5753 28.8195 20.0793 26.6184 17.7387C24.4172 15.3981 20.2838 14.1631 16.2201 14.1631C12.2006 14.1427 8.2514 15.217 4.79604 17.2706C4.68458 17.3349 4.59248 17.428 4.52939 17.5402C4.4663 17.6523 4.43456 17.7794 4.43748 17.908V17.908L4.74624 22.888C4.74624 23.5653 5.33388 23.7844 5.9514 23.406C11.2601 20.0992 17.0767 19.91 19.736 21.2446C22.8535 22.8183 22.4352 26.7924 22.4352 26.7924H14.5967C11.0111 26.7924 0.0152479 28.0672 0.0152479 38.2264V38.3957C-0.0705558 39.9314 0.206658 41.4657 0.824421 42.8743C1.44218 44.2829 2.38311 45.5261 3.57096 46.5032C5.76216 48.2262 8.76011 49.043 12.4752 49.0529H28.8394C29.1036 49.0529 29.3569 48.948 29.5437 48.7612C29.7305 48.5744 29.8354 48.3211 29.8354 48.0569L29.8155 28.127ZM22.4352 42.9674H12.9732C11.6943 42.9363 10.4575 42.5043 9.43739 41.7323C8.91129 41.3651 8.48352 40.8742 8.19174 40.3028C7.89996 39.7314 7.75311 39.097 7.76411 38.4555C7.76411 36.6627 8.97923 33.0472 15.0449 33.0472H22.4352V42.9674ZM77.3645 14.2129C67.1754 14.2129 62.7532 21.0654 61.2691 26.8521C60.8748 28.4116 60.6774 30.0144 60.6815 31.6229C60.632 35.4322 61.7818 39.1605 63.9683 42.2801C67.2053 46.6924 72.3646 48.8438 77.7728 49.043C83.1811 49.2422 86.9659 48.3059 89.7248 46.7123C90.2627 46.4036 90.3822 46.0251 90.3822 45.0291V40.577C90.3822 39.6607 89.8344 39.2523 88.9878 39.7901C85.6952 41.9138 81.7824 42.8648 77.8824 42.4893C73.3008 42.1208 69.516 38.9137 69.1575 34.3619H91.7965C92.0404 34.362 92.2745 34.2657 92.448 34.0942C92.6214 33.9226 92.7202 33.6896 92.7228 33.4456C93.0813 27.2007 91.3085 14.1631 77.3645 14.1631V14.2129ZM69.2072 28.2266C69.2543 27.2063 69.5033 26.2056 69.94 25.2823C70.3766 24.359 70.9921 23.5315 71.7508 22.8479C72.5096 22.1642 73.3964 21.6378 74.36 21.2994C75.3237 20.9609 76.3449 20.8171 77.3645 20.8761C80.711 20.8761 84.6253 22.7884 84.6253 28.2266H69.2072Z" fill="#F48120"/>
</svg>
