<svg version="1.1" id="Layer_1" xmlns="http://www.w3.org/2000/svg" xmlns:xlink="http://www.w3.org/1999/xlink" x="0px" y="0px"
	width="48px" height="48px" viewBox="0 0 48 48" style="enable-background:new 0 0 48 48;" xml:space="preserve">
<style type="text/css">
	.st0{fill:#FFFFFF;}
	.st1{fill:#006FCF;}
</style>
<title>Amercian_express</title>
<path id="logo-blue-box-small-45-9x45-a" class="st0" d="M48,48H0V0h48V48z"/>
<path class="st1" d="M48,26V0H0v48h48V34C47.9,34,48,26,48,26"/>
<path class="st0" d="M42.1,23.3h3.6v-8.4h-4V16L41,14.9h-3.4v1.5L37,14.9h-6.3c-0.2,0-0.4,0.1-0.6,0.1s-0.3,0.1-0.5,0.2
	s-0.3,0.1-0.5,0.2v-0.5H10.9l-0.5,1.4l-0.5-1.4H5.6v1.5L5,14.9H1.5L0,18.5v4.8h2.5l0.4-1.2h0.8l0.4,1.2H23v-1.1l0.8,1.1H29v-0.6
	c0.1,0.1,0.3,0.1,0.4,0.2s0.3,0.1,0.4,0.2c0.2,0.1,0.4,0.1,0.6,0.1h3.8l0.4-1.2h0.8l0.4,1.2H41v-1.1L42.1,23.3z M48,34v-7.9H18.6
	l-0.7,1.1l-0.8-1.1H8.6v8.5h8.5l0.8-1.1l0.7,1.1H24v-1.8h-0.2c0.7,0,1.3-0.1,1.9-0.3v2.2h3.8v-1.1l0.8,1.1h15.9
	C46.8,34.5,47.4,34.3,48,34z"/>
<path class="st1" d="M46.2,32h-2.9v1.2h2.8c1,0.1,1.8-0.6,1.9-1.6c0-0.1,0-0.2,0-0.2c0.1-0.8-0.5-1.5-1.4-1.6c-0.1,0-0.2,0-0.4,0H45
	c-0.3,0-0.5-0.2-0.5-0.5c0,0,0,0,0-0.1c0-0.3,0.2-0.5,0.5-0.5c0,0,0,0,0.1,0h2.5l0.5-1.2h-2.9c-1-0.1-1.8,0.6-1.9,1.6v0.1
	c-0.1,0.8,0.5,1.6,1.4,1.6c0.1,0,0.2,0,0.3,0h1.3c0.3,0,0.5,0.2,0.5,0.5c0,0,0,0,0,0.1C46.8,31.8,46.6,32,46.2,32z M40.9,32H38v1.2
	h2.8c1,0.1,1.8-0.6,1.9-1.6c0-0.1,0-0.1,0-0.2c0.1-0.8-0.5-1.6-1.3-1.6c-0.1,0-0.3,0-0.4,0h-1.2c-0.3,0-0.5-0.2-0.5-0.5
	c0,0,0,0,0-0.1c0-0.3,0.2-0.5,0.5-0.5c0,0,0,0,0.1,0h2.5l0.5-1.2H40c-1-0.1-1.8,0.6-1.9,1.6v0.1c-0.1,0.8,0.5,1.6,1.4,1.6
	c0.1,0,0.2,0,0.3,0h1.3c0.3,0,0.5,0.2,0.5,0.5c0,0,0,0,0,0.1c0.1,0.3,0,0.5-0.3,0.6C41.1,32,41,32,40.9,32z M37.2,28.5v-1.2h-4.5V33
	h4.5v-1.1H34v-1.2h3.1v-1.2H34v-1.1L37.2,28.5L37.2,28.5z M29.9,28.5c0.5,0,0.8,0.3,0.8,0.6s-0.2,0.6-0.8,0.6h-1.6v-1.4L29.9,28.5z
	 M28.3,31H29l1.7,2h1.6l-1.9-2.1c0.9-0.1,1.5-0.8,1.5-1.7c0-1-0.7-1.8-1.7-1.8c-0.1,0-0.1,0-0.2,0h-3V33h1.3L28.3,31z M24.9,29.3
	c0,0.4-0.2,0.7-0.6,0.8h-0.1h-1.7v-1.5H24C24.5,28.5,24.8,28.8,24.9,29.3C24.9,29.2,24.9,29.3,24.9,29.3z M21.2,27.4V33h1.3v-1.9
	h1.7c1,0.1,1.9-0.7,2-1.8c0-0.1,0-0.1,0-0.2c0-1-0.8-1.9-1.8-1.9h-0.1L21.2,27.4z M19.2,33h1.6l-2.3-2.9l2.2-2.8h-1.6l-1.4,1.8
	l-1.4-1.8h-1.6l2.2,2.8l-2.2,2.8h1.6l1.4-1.8L19.2,33z M14.4,28.5v-1.1H10V33h4.5v-1.1h-3.3v-1.2h3.1v-1.2h-3.1v-1.1L14.4,28.5
	L14.4,28.5z M40.4,18.5l2.2,3.4h1.6v-5.7H43V20l-0.3-0.5l-2-3.2h-1.8V22h1.3v-3.8L40.4,18.5z M34.9,18.4l0.4-1.2l0.4,1.2l0.5,1.3h-2
	L34.9,18.4z M37.1,21.9h1.4L36,16.3h-1.7L31.8,22h1.4l0.5-1.2h2.8L37.1,21.9z M31.1,21.9l0.5-1.2h-0.3c-0.8,0-1.5-0.6-1.5-1.4
	c0-0.1,0-0.2,0-0.2V19c-0.1-0.8,0.5-1.5,1.3-1.6c0.1,0,0.2,0,0.2,0h1.4v-1.1h-1.5c-1.4-0.1-2.6,1-2.7,2.4c0,0.1,0,0.2,0,0.3v0.1
	c-0.2,1.4,0.8,2.6,2.1,2.8C30.8,21.9,31,21.9,31.1,21.9L31.1,21.9z M26.3,21.9h1.3v-5.6h-1.3V21.9z M23.5,17.4
	c0.5,0,0.8,0.3,0.8,0.6s-0.2,0.6-0.8,0.6h-1.6v-1.4L23.5,17.4z M21.9,19.9h0.6l1.7,2h1.6L24,19.8c0.9-0.1,1.5-0.8,1.5-1.7
	c0-1-0.7-1.8-1.7-1.8c-0.1,0-0.1,0-0.2,0h-3V22h1.3L21.9,19.9z M19.6,17.4v-1.2h-4.5v5.7h4.5v-1.2h-3.2v-1.2h3.1v-1.2h-3.1v-1.1h3.2
	V17.4z M9.9,21.9H11l1.6-4.6v4.6h1.3v-5.7h-2.1l-1.3,3.9l-1.3-3.9H7.1v5.7h1.3v-4.6L9.9,21.9z M2.9,18.4l0.4-1.2l0.4,1.2l0.5,1.3
	H2.4L2.9,18.4z M5.1,21.9h1.4L4,16.2H2.5L0,21.9h1.4l0.5-1.2h2.8L5.1,21.9z"/>
</svg>
