<svg width="378" height="203" xmlns="http://www.w3.org/2000/svg" xmlns:xlink="http://www.w3.org/1999/xlink"><defs><path id="a" d="M0 0h260v130H0z"/><path id="c" d="M0 0h260v130H0z"/><path id="e" d="M0 0h260v130H0z"/><path id="g" d="M0 0h260v130H0z"/></defs><g fill="none" fill-rule="evenodd"><path d="M194.35 124.762c-13.041 0-20.237-7.727-20.237-17.357 0-3.918.181-33.033.181-33.033-4.264 0-6.365-2.24-6.365-5.038 0-2.8 2.223-5.39 5.873-5.39 0 0 .007-9.734.007-13.765 0-4.592 3.564-8.399 8.174-8.399 4.61 0 8.271 3.807 8.271 8.399 0 3.47-.302 8.257-.29 13.56.383-.005 3.676-.005 8.51-.062 4.482-.052 6.308 2.451 6.308 5.586 0 3.135-2.413 5.323-5.56 5.336-2.917.012-9.36-.024-9.36-.024-.294 9.285-.57 20.478-.57 29.436 0 3.23 2.23 6.923 7.626 6.923 12.367 0 15.932-12.483 15.932-36.002 0-3.135 2.475-5.598 5.624-5.598 3.147 0 5.62 2.463 5.62 5.598 0 30.794-7.82 49.83-29.744 49.83" fill="#FF6116" fill-rule="nonzero"/><g transform="translate(59 37)"><mask id="b" fill="#fff"><use xlink:href="#a"/></mask><path d="M188.154 38.479c.01-.019 5.266-3.601 8.413-3.601 3.149 0 2.69.55 2.69 3.685 0 33.593-6.082 49.272-27.829 49.272-9.451 0-18.273-7.055-18.273-15.677 0-3.36.563-10.078.563-13.437 0-32.473-.504-39.337-.504-48.855 0-4.59 3.823-8.695 8.432-8.695 4.611 0 8.012 3.685 8.012 8.276 0 9.518-1.029 23.363-1.325 59.212-.025 3 1.44 5.112 5.325 5.112 12.143 0 14.02-15.382 14.496-35.292" fill="#FF6116" fill-rule="nonzero" mask="url(#b)"/></g><g transform="translate(59 37)"><mask id="d" fill="#fff"><use xlink:href="#c"/></mask><path d="M229.566 100.45c-10.37 2.238-23.363 5.506-23.212 11.892.142 5.988 6.325 7.077 11.48 6.013 10.707-2.213 11.95-8.655 11.732-17.905Zm-2-18.395s-4.569 5.991-16.148 5.702c-15.357-.384-22.474-12.573-23.227-25.111-.57-9.501-.313-16.22-.313-22.377 0-4.591 3.059-8.307 7.67-8.307 4.61 0 7.32 3.807 7.32 8.398 0 6.158-.378 11.566-.445 18.284-.08 8.104 2.689 15.244 9.435 15.225 6.476-.02 13.589-2.745 13.762-16.627.084-6.718-.145-10.724-.145-16.882 0-4.591 3.2-8.398 7.81-8.398 4.608 0 7.812 3.807 7.812 8.398 0 6.158-.504 12.26-.504 21.778 0 0-.283 19.227.392 23.483 2.115-.704 5.167-2.771 8.399-7.78 1.952-3.025 5.682-3.673 7.982-2.334 3.165 1.844 3.052 5.447 1.869 8.08-3.056 6.795-7.028 10.955-17.074 14.397.032 11.527-.771 28.533-22.086 31.607-18.254 2.632-26.511-7.953-26.538-16.959-.044-14.221 14.17-18.363 34.688-23.529l-.658-7.048Z" fill="#FF6116" fill-rule="nonzero" mask="url(#d)"/></g><g transform="translate(59 37)"><mask id="f" fill="#fff"><use xlink:href="#e"/></mask><path d="M81.696 72.163c0-3.919-.437-35.436-.437-35.436 0-4.591 2.962-8.48 7.572-8.48 4.61 0 7.671 4.153 7.508 8.536-.554 14.76-.777 24.476-.777 29.616 0 2.975 1.623 7.535 6.429 7.535 11.123 0 13.419-10.306 13.419-35.185 0-3.136 3.131-5.598 6.28-5.598 3.147 0 5.62 2.462 5.62 5.598 0 37.644-6.55 49.056-27.846 49.056-8.658 0-17.768-5.454-17.768-15.642" fill="#FF6116" fill-rule="nonzero" mask="url(#f)"/></g><g transform="translate(59 37)"><mask id="h" fill="#fff"><use xlink:href="#g"/></mask><path d="M38.362 73.685c-7.119.124-11.66-2.687-11.976-8.883-.12-2.326-.082-4.318.031-5.81.69-9.056 6.395-14.921 12.67-16.172 7.805-1.555 13.004 2 13.004 12.177 0 6.878-1.917 18.482-13.73 18.688ZM86.717 31.13c-3.054 0-3.252.633-5.276 3.802 0 13.906-1.432 29.075-19.31 37.32 11.997-21.782.321-44.548-18.07-44.548-8.834 0-14.121 3.146-17.721 6.078 0-6.733.226-18.69.226-18.69 0-8.3-2.919-14.945-13.093-15.09C7.584-.082 3.214 2.609.488 8.692c-.982 2.28-.62 4.758 1.321 5.881 1.607.929 4.248.24 5.556-1.497.872-1.086 1.363-1.318 2.121-1.237 1.25.134 1.298 2.14 1.347 3.424.039.984.999 12.725.473 49.495 0 10.134 7.971 23.143 27.056 23.143 34.94 0 55.89-16.521 55.89-52.576 0-3.041-4.481-4.195-7.535-4.195Z" fill="#FF6116" fill-rule="nonzero" mask="url(#h)"/></g><path d="M147.819 41.82c4.653 0 8.417 3.748 8.417 8.383 0 4.634-3.764 8.382-8.417 8.382-4.654 0-8.417-3.748-8.417-8.382 0-4.635 3.763-8.383 8.417-8.383" fill="#FF6116" fill-rule="nonzero"/></g></svg>