<svg width="134" height="64" viewBox="0 0 134 64" fill="none" xmlns="http://www.w3.org/2000/svg">
<g clip-path="url(#clip0_4_2)">
<path d="M90.8 42.6666C85.0667 46.6666 78.4 50.9333 71.0667 55.3333L70.8 55.4666C70.6667 55.6 70.6667 55.7333 70.8 55.7333C70.9333 55.8666 71.0667 55.8666 71.0667 55.7333L71.3333 55.6L91.6 44.6666H91.7333C91.4667 44.2666 91.0667 43.4666 90.8 42.6666ZM128.133 12.5333C119.2 2.66664 61.4667 11.4666 36.9333 16.9333L36.4 17.0666C36.2667 17.0666 36.2667 17.2 36.2667 17.3333C36.2667 17.4666 36.4 17.4666 36.5333 17.4666L37.0667 17.3333C57.4667 13.7333 99.7333 8.66664 108.8 17.7333C111.6 20.5333 110.933 24 107.733 28.2666C109.6 29.4666 110.8 31.2 111.333 33.3333C123.867 24.9333 132.267 16.9333 128.133 12.5333Z" fill="#D03027"/>
<path d="M94.4 40.1333C94.5333 43.6 96.6667 46.5333 99.6 46.5333C105.2 46.5333 107.6 39.7333 107.333 35.0667C107.2 31.6 104.933 28.6667 102.133 28.6667C97.3333 28.8 94.2667 35.6 94.4 40.1333ZM91.4667 40C91.2 34 95.8667 28 102.667 28C107.2 28 110.133 31.0667 110.4 35.6C110.667 41.8667 106.267 47.6 99.2 47.6C94.6667 47.6 91.7333 44.6667 91.4667 40ZM27.4667 38.4C27.2 38.5333 26.8 38.5333 26.5333 38.6667C26.1333 38.8 25.4667 38.9333 24.4 39.0667C23.8667 39.0667 23.3333 39.2 22.9333 39.4667C22.6667 39.6 22.5333 39.8667 22.4 40.1333C22.4 40.4 22.4 40.6667 22.6667 40.9333C23.0667 41.2 23.6 41.2 24 41.2C24.4 41.2 24.9333 41.0667 25.3333 40.9333C25.7333 40.8 26.1333 40.6667 26.5333 40.2667C26.8 40.1333 26.9333 39.8667 27.0667 39.6C27.2 39.3333 27.3333 38.8 27.4667 38.4ZM33.4667 34.8C33.4667 35.4667 33.3333 36 33.2 36.6667L32.2667 42.2667C32.1333 42.6667 32.4 43.2 32.8 43.4667V43.7333H27.0667V42.2667C26.2667 42.8 25.3333 43.2 24.2667 43.4667C23.3333 43.7333 22.5333 43.8667 21.6 43.7333C20.2667 43.8667 19.0667 43.6 18 42.9333C17.3333 42.5333 16.9333 41.7333 16.9333 40.9333C16.9333 40.2667 17.2 39.7333 17.6 39.3333C18 38.9333 18.5333 38.5333 19.0667 38.2667C19.7333 38 20.5333 37.7333 21.3333 37.6C22.4 37.4667 23.7333 37.3333 25.6 37.0667C26.2667 37.0667 26.9333 36.9333 27.4667 36.6667C27.8667 36.5333 28 36.4 28.1333 36C28.2667 35.4667 28 35.0667 27.3333 34.9333C24.6667 34.8 22 34.9333 19.4667 35.7333L20.5333 32.8C23.0667 32.4 25.6 32.1333 28.1333 32.1333C32.1333 32 33.4667 33.2 33.4667 34.8ZM49.8667 43.6L51.8667 32.4H57.3333L55.3333 43.6H49.8667ZM52.1333 29.8667C52.2667 28.9333 53.7333 28.2667 55.3333 28.2667C56.9333 28.2667 58.1333 29.0667 58 29.8667C57.8667 30.6667 56.4 31.4667 54.8 31.4667C53.2 31.4667 52 30.6667 52.1333 29.8667ZM76.6667 38.4C76.4 38.5333 76 38.5333 75.7333 38.6667C75.3333 38.8 74.6667 38.8 73.6 39.0667C73.0667 39.0667 72.5333 39.2 72.1333 39.4667C71.8667 39.6 71.7333 39.8667 71.7333 40.1333C71.6 40.4 71.7333 40.6667 72 40.9333C72.4 41.2 72.9333 41.2 73.3333 41.2C73.7333 41.2 74.2667 41.0667 74.6667 40.9333C75.0667 40.8 75.4667 40.6667 75.8667 40.2667C76.1333 40 76.2667 39.8667 76.4 39.6C76.4 39.2 76.5333 38.8 76.6667 38.4ZM82.5333 34.8C82.5333 35.4667 82.4 36 82.2667 36.6667L81.3333 42.1333C81.2 42.5333 81.4667 43.0667 81.8667 43.3333V43.6H76.1333V42.1333C75.3333 42.6667 74.4 43.0667 73.4667 43.3333C72.5333 43.6 71.6 43.7333 70.6667 43.7333C68.8 43.7333 67.7333 43.6 67.0667 42.9333C66.4 42.2667 65.8667 41.8667 65.8667 40.9333C65.8667 40.2667 66.1333 39.7333 66.5333 39.3333C66.9333 38.8 67.4667 38.5333 68 38.2667C68.6667 38 69.4667 37.7333 70.2667 37.6L74.5333 37.0667C75.2 37.0667 75.8667 36.9333 76.4 36.6667C76.6667 36.5333 76.9333 36.4 77.0667 36C77.2 35.4667 76.9333 35.0667 76.2667 34.9333C73.6 34.8 70.9333 34.9333 68.4 35.6L69.4667 32.6667C72 32.2667 74.6667 32 77.2 32C81.3333 32 82.6667 33.2 82.5333 34.8ZM15.8667 39.4667C14.4 39.8667 12.9333 40 11.3333 40C8.66667 40 6.66667 38.6667 6.8 36.2667C6.93334 34.6667 8.80001 31.3333 13.4667 31.3333C14.9333 31.3333 16.4 31.7333 17.7333 32.5333L18.4 28.6667C16.6667 28 14.8 27.7333 13.0667 27.7333C6.80001 27.7333 0.933338 30.6667 0.133338 36.4C-0.666662 42.1333 6.53334 43.7333 9.73334 43.7333C11.6 43.7333 13.4667 43.6 15.2 43.4667L15.8667 39.4667ZM60.2667 32.2667L60.6667 30L66.4 28.8L65.7333 32.2667H68.5333L68 34.5333H65.3333L63.7333 43.4667H58.2667L59.8667 34.5333H57.8667L58.2667 32.2667H60.2667ZM90.6667 28.1333L88 43.4667H82.4L85.3333 28L90.6667 28.1333ZM42.6667 34.9333C42 34.9333 41.3333 35.2 40.6667 35.6C40.1333 36.1333 39.7333 36.8 39.6 37.4667C39.3333 38.1333 39.4667 38.9333 39.8667 39.6C40.2667 40 40.9333 40.2667 41.6 40.2667C42 40.2667 42.5333 40.1333 42.9333 40C43.3333 39.7333 43.7333 39.4667 44 39.0667C44.2667 38.6667 44.5333 38.1333 44.6667 37.6C44.8 36.9333 44.6667 36.2667 44.2667 35.6C43.8667 35.2 43.2 34.9333 42.6667 34.9333ZM32.8 47.3333L35.4667 32.4H40.2667L39.8667 34.2667C40.4 33.6 41.0667 33.0667 41.8667 32.8C42.8 32.4 43.8667 32.1333 44.9333 32.1333C46 32 46.9333 32.2667 47.8667 32.6667C48.8 33.0667 49.4667 33.8667 49.8667 34.8C50.2667 35.7333 50.2667 36.8 50.1333 37.8667C49.8667 39.6 48.9333 41.2 47.4667 42.2667C46.1333 43.2 44.4 43.7333 42.8 43.6C42.2667 43.6 41.7333 43.6 41.0667 43.4667C40.6667 43.3333 40.2667 43.2 40 43.0667C39.6 42.8 39.3333 42.5333 39.0667 42.2667L38.1333 47.4667L32.8 47.3333ZM131.733 36.4C131.867 35.7333 131.333 35.0667 130.533 34.9333H130.267C128 34.9333 125.6 39.3333 125.2 41.0667C129.067 41.0667 131.867 38.8 131.733 36.4ZM132.267 43.2L132.667 43.4667C131.6 45.8667 129.333 47.3333 126.8 47.4667C124.667 47.6 122.933 45.8667 122.8 43.7333C122.8 43.6 122.8 43.4667 122.8 43.4667C122.667 38.6667 127.067 34.2667 130.8 34.2667C132.4 34.2667 133.867 34.9333 133.867 36.6667C134 40.5333 128.667 41.6 125.2 41.7333C125.067 42.1333 125.067 42.6667 125.067 43.0667C124.933 44.6667 126.133 45.8667 127.733 46H128C129.733 45.7333 131.333 44.8 132.267 43.2Z" fill="#004977"/>
<path d="M110.267 36.2666L111.467 36.1333C111.867 36.1333 112.267 36.2666 112.267 36.6666C112.133 37.4666 112 38.2666 111.733 38.9333L110.933 42.6666L109.867 47.0666H112.133L113.333 41.0666C117.067 37.2 118.533 35.8666 119.467 35.8666C119.867 35.8666 120.133 36.1333 120.133 36.4V36.5333C120 37.4666 119.867 38.4 119.6 39.2L118.4 43.4666C118.133 44.2666 118 45.0666 118 46C118 46.8 118.533 47.3333 119.333 47.3333H119.467C121.067 47.3333 122.267 45.7333 123.2 44L122.933 43.4666C122.533 44.1333 121.6 45.6 120.8 45.6C120.533 45.6 120.4 45.4666 120.4 45.0666C120.4 44.5333 120.533 43.8666 120.667 43.3333L122 38.2666C122.267 37.3333 122.4 36.4 122.533 35.4666C122.533 34.6666 122 34.1333 121.2 34.1333H121.067C119.6 34.1333 117.733 35.2 113.733 39.8666L114.267 37.6L115.067 34.1333C113.6 34.6666 112 35.0666 110.4 35.4666L110.267 36.2666Z" fill="#004977"/>
</g>
<defs>
<clipPath id="clip0_4_2">
<rect width="133.867" height="64" fill="white"/>
</clipPath>
</defs>
</svg>
