<svg width="134" height="48" viewBox="0 0 134 48" fill="none" xmlns="http://www.w3.org/2000/svg">
<g clip-path="url(#clip0_4_80)">
<path d="M125.2 15.8L117.8 14.1L116.5 13.6L82.6 13.9V30.2L125.2 30.3V15.8Z" fill="white"/>
<path d="M111.3 28.7C111.7 27.4 111.6 26.1 110.9 25.3C110.2 24.5 109.3 24 108.1 23.9L85.2 23.6C85.1 23.6 84.9 23.5 84.8 23.5C84.7 23.4 84.7 23.2 84.8 23.1C84.9 22.8 85.1 22.7 85.3 22.7L108.4 22.4C111.2 22.3 114.1 20 115.1 17.4L116.4 14C116.4 13.9 116.5 13.7 116.4 13.6C115 6.90003 109 1.90002 101.9 1.90002C95.3 1.90002 89.6 6.10002 87.7 12C86.4 11.1 84.8 10.6 83 10.7C79.8 11 77.3 13.6 76.9 16.8C76.8 17.6 76.9 18.4 77 19.2C71.9 19.3 67.6 23.5 67.6 28.8C67.6 29.3 67.6 29.7 67.7 30.2C67.7 30.5 68 30.6 68.1 30.6H110.4C110.7 30.6 110.9 30.5 110.9 30.2L111.3 28.7Z" fill="#F48120"/>
<path d="M118.6 14H117.9C117.8 14 117.6 14.1 117.5 14.3L116.6 17.5C116.2 18.8 116.3 20.1 117 20.9C117.7 21.7 118.6 22.2 119.8 22.3L124.7 22.6C124.8 22.6 125 22.7 125.1 22.7C125.2 22.8 125.2 23 125.1 23.1C125 23.4 124.8 23.5 124.6 23.5L119.6 23.8C116.8 23.9 113.9 26.2 112.9 28.8L112.6 30C112.5 30.1 112.6 30.4 112.9 30.4H130.3C130.6 30.4 130.7 30.3 130.7 30C131 28.9 131.2 27.8 131.2 26.6C131.1 19.6 125.4 14 118.6 14Z" fill="#FAAD3F"/>
<path d="M132.8 37.7C132.1 37.7 131.6 37.2 131.6 36.5C131.6 35.8 132.1 35.3 132.8 35.3C133.5 35.3 134 35.8 134 36.5C134 37.2 133.5 37.7 132.8 37.7ZM132.8 35.6C132.3 35.6 131.9 36 131.9 36.5C131.9 37 132.3 37.4 132.8 37.4C133.3 37.4 133.7 37 133.7 36.5C133.7 36 133.3 35.6 132.8 35.6ZM133.3 37.2H133L132.7 36.8H132.4V37.2H132.1V36H132.8C133.1 36 133.2 36.1 133.2 36.4C133.2 36.5 133.1 36.7 132.9 36.8L133.3 37.2ZM132.9 36.5C133 36.5 133 36.5 133 36.4C133 36.3 132.9 36.3 132.9 36.3H132.5V36.7H132.9V36.5ZM14.8 35.3H17.7V43.2H22.7V45.7H14.8V35.3ZM25.7 40.5C25.7 37.5 28.1 35.1 31.4 35.1C34.7 35.1 36.9 37.5 36.9 40.5C36.9 43.5 34.5 45.9 31.2 45.9C28.1 45.9 25.7 43.5 25.7 40.5ZM34 40.5C34 38.9 32.9 37.6 31.4 37.6C29.8 37.6 28.8 38.9 28.8 40.4C28.8 41.8 29.9 43.2 31.4 43.2C32.9 43.4 34 42 34 40.5ZM40.4 41.1V35.3H43.3V41.1C43.3 42.5 44.1 43.3 45.3 43.3C46.5 43.3 47.3 42.6 47.3 41.2V35.3H50.2V41.1C50.2 44.5 48.2 46 45.3 46C42.3 45.9 40.4 44.4 40.4 41.1ZM54.5 35.3H58.6C62.3 35.3 64.5 37.4 64.5 40.4C64.5 43.4 62.3 45.7 58.6 45.7H54.6V35.3H54.5ZM58.6 43.1C60.3 43.1 61.5 42.2 61.5 40.5C61.5 38.8 60.3 37.9 58.6 37.9H57.4V43.2H58.6V43.1ZM68.6 35.3H76.9V37.8H71.5V39.5H76.4V41.9H71.5V45.7H68.6V35.3ZM81 35.3H83.9V43.2H88.9V45.7H81V35.3ZM96.4 35.2H99.3L103.8 45.7H100.6L99.8 43.9H95.7L95 45.7H92L96.4 35.2ZM99.1 41.7L97.9 38.8L96.7 41.7H99.1ZM107.5 35.3H112.4C114 35.3 115 35.7 115.8 36.5C116.5 37.2 116.7 37.9 116.7 38.9C116.7 40.5 115.9 41.5 114.6 42.1L117.1 45.8H113.8L111.7 42.6H110.4V45.8H107.5C107.5 45.7 107.5 35.3 107.5 35.3ZM112.3 40.3C113.2 40.3 113.9 39.8 113.9 39.1C113.9 38.3 113.2 37.9 112.3 37.9H110.5V40.4H112.3V40.3ZM120.8 35.3H129.2V37.7H123.7V39.3H128.7V41.7H123.7V43.3H129.4V45.8H120.8V35.3ZM8.39999 41.8C7.99999 42.7 7.09999 43.4 5.99999 43.4C4.39999 43.4 3.39999 42.1 3.39999 40.6C3.39999 39.1 4.49999 37.8 5.99999 37.8C7.19999 37.8 8.09999 38.6 8.49999 39.5H11.5C11.1 37 8.99999 35.2 6.09999 35.2C2.89999 35.2 0.399994 37.6 0.399994 40.6C0.399994 43.6 2.79999 46 5.89999 46C8.69999 46 10.8 44.2 11.4 41.8H8.39999Z" fill="#404041"/>
</g>
<defs>
<clipPath id="clip0_4_80">
<rect width="134" height="48" fill="white"/>
</clipPath>
</defs>
</svg>
