<svg xmlns="http://www.w3.org/2000/svg" viewBox="0 0 48.1 48"><path d="M48 2h-1l-2-1a26 26 0 00-21 3A26 26 0 003 1L1 2H0v1l1 3h4l5-1 10 2-5 6-1 1v1l-1 2-1 9c0 7 3 14 8 19l1 1 1 1 1 1h2l1-1 1-1 1-1a26 26 0 006-29l-1-1v-2l-5-6a22 22 0 0115-1h4l1-2V2zM22 41c-4-4-6-9-6-15v-2l1-5 3 5c2 3 3 7 3 11l-1 6zm11-15l-2 7-4 8-1-2-1-4 2-9 5-7 1 7zm-4-12a21 21 0 01-10 0l5-5 5 5z" fill="#152849"/><path d="M17 19c3 2 8 10 5 23-3-3-9-12-5-23z" fill="#76de49"/><path d="M26 42c4-3 9-11 6-24-4 4-9 13-6 24z" fill="#37a806"/></svg>