<svg xmlns="http://www.w3.org/2000/svg" xmlns:xlink="http://www.w3.org/1999/xlink" viewBox="0 0 104 40" fill="#fff" fill-rule="evenodd" stroke="#000" stroke-linecap="round" stroke-linejoin="round" width="300" height="300" font-family="Roboto" font-size="14px" text-anchor="middle"><defs><style type="text/css"></style></defs><use xlink:href="#A" x=".5" y=".5"></use><symbol id="A" overflow="visible"><path d="M22.688 0C5.622 0 0 14.88 0 20.32h13.83s1.952-7.1 8.86-7.1 8.86 7.1 8.86 7.1h13.747C45.297 14.865 39.742 0 22.692 0m17.533 23.856h-8.68s-1.518 7.1-8.86 7.1-8.86-7.1-8.86-7.1h-8.52c0 1.818 6.7 14.68 17.467 14.68s17.45-10.577 17.45-14.68m-23.39-1.618a5.81 5.81 0 0 1 5.822-5.822 5.81 5.81 0 0 1 5.822 5.822 5.81 5.81 0 0 1-5.822 5.822 5.81 5.81 0 0 1-5.822-5.822zm40.393-9.592a7.35 7.35 0 0 1 2.354.386c.738.28 1.37.667 1.897 1.194s.95 1.194 1.23 2.002c.316.808.457 1.757.457 2.846 0 .95-.105 1.827-.35 2.635s-.597 1.5-1.124 2.073c-.492.597-1.124 1.054-1.862 1.37-.738.35-1.616.492-2.6.492h-5.62V12.54h5.62zm-.176 10.68a3.42 3.42 0 0 0 1.194-.211c.386-.14.738-.35 1.054-.667a3.04 3.04 0 0 0 .738-1.23c.176-.492.28-1.124.28-1.827 0-.667-.07-1.265-.176-1.792a4.1 4.1 0 0 0-.632-1.37c-.28-.386-.667-.667-1.16-.878s-1.1-.316-1.792-.316h-2.038v8.256h2.53zm10.328-7.06v1.757h.035c.105-.28.28-.562.492-.808s.457-.457.703-.632c.28-.176.562-.316.878-.422a2.96 2.96 0 0 1 .949-.141c.176 0 .35.035.562.105v2.424c-.105-.035-.28-.035-.457-.07s-.35-.035-.492-.035c-.492 0-.878.07-1.194.246s-.597.386-.808.667-.35.597-.422.95-.14.773-.14 1.194v4.286h-2.6v-9.5h2.494zm4.4 2.705c.246-.632.562-1.16.984-1.58a4.74 4.74 0 0 1 1.546-1.019c.597-.246 1.265-.35 2.002-.35s1.405.105 2.038.35c.597.246 1.124.562 1.546 1.02a4.03 4.03 0 0 1 .984 1.581c.246.632.35 1.3.35 2.073s-.105 1.44-.35 2.038-.562 1.124-.984 1.58c-.422.422-.95.773-1.546.984-.597.246-1.265.35-2.038.35-.738 0-1.405-.105-2.002-.35s-1.124-.562-1.546-.984a4.03 4.03 0 0 1-.984-1.581c-.246-.597-.35-1.3-.35-2.038 0-.773.105-1.475.35-2.073zm2.354 3.162c.07.35.2.667.386.984.176.28.422.527.703.703s.667.246 1.1.246c.457 0 .808-.07 1.124-.246a1.69 1.69 0 0 0 .703-.703c.176-.28.316-.597.386-.984.07-.35.105-.738.105-1.124s-.035-.738-.105-1.124a3.03 3.03 0 0 0-.386-.984c-.176-.28-.422-.527-.703-.703a2.22 2.22 0 0 0-1.124-.281c-.457 0-.808.105-1.1.28s-.527.422-.703.703a2.73 2.73 0 0 0-.386.984c-.07.35-.105.738-.105 1.124s.035.773.105 1.124zm11.242-5.867V17.6h.07c.316-.562.773-.95 1.3-1.194s1.054-.386 1.616-.386c.703 0 1.265.105 1.72.28a2.43 2.43 0 0 1 1.054.773 3.26 3.26 0 0 1 .527 1.23c.105.492.14 1.02.14 1.616v5.832h-2.6v-5.34c0-.773-.105-1.37-.35-1.757s-.667-.562-1.3-.562c-.703 0-1.23.2-1.546.632s-.492 1.124-.492 2.073v4.953h-2.6v-9.485zm11.207 7.202c.386.386.95.562 1.686.562.527 0 .984-.14 1.37-.386s.597-.527.703-.843h2.284c-.35 1.124-.913 1.932-1.686 2.424s-1.686.738-2.74.738c-.738 0-1.405-.105-2.002-.35s-1.1-.562-1.5-1.02-.738-.95-.95-1.58a6.14 6.14 0 0 1-.351-2.002c0-.703.105-1.37.35-1.967s.562-1.124.984-1.58.95-.808 1.546-1.054a5.17 5.17 0 0 1 1.967-.386c.808 0 1.5.14 2.108.457a4.29 4.29 0 0 1 1.475 1.265c.386.527.667 1.124.843 1.792a5.99 5.99 0 0 1 .176 2.108h-6.85c-.035.843.176 1.475.597 1.827zm2.915-5c-.316-.35-.773-.527-1.405-.527-.422 0-.773.07-1.02.2a2.02 2.02 0 0 0-.667.527 1.75 1.75 0 0 0-.351.667c-.07.246-.105.457-.105.632h4.25c-.176-.667-.386-1.16-.703-1.5z" stroke="none" fill="#252728" fill-rule="nonzero"></path></symbol></svg>