
<svg xmlns="http://www.w3.org/2000/svg" xmlns:xlink="http://www.w3.org/1999/xlink" viewBox="23 6 469 132"><defs><linearGradient id="a" x1="-3.49%" x2="100.83%" y1="17.02%" y2="92.9%"><stop offset="0%" stop-color="#fff" stop-opacity=".1"/><stop offset="14%" stop-color="#fff" stop-opacity=".08"/><stop offset="61%" stop-color="#fff" stop-opacity=".02"/><stop offset="100%" stop-color="#fff" stop-opacity="0"/></linearGradient><path id="b" d="M106.687 35.274c-.186-1.098-.967-2-2.024-2.338s-2.215-.057-3 .73l-15.416 15.5-12.12-23.145c-.513-.98-1.525-1.592-2.627-1.592s-2.114.613-2.627 1.591l-6.628 12.656L45.62 7.573a2.966 2.966 0 00-5.552.953L24 111.7l42.973 24.165a8.882 8.882 0 008.683 0L119 111.701l-12.313-76.427z"/></defs><path opacity=".54" d="M163.773 106.518H155V38.765h39.844v8.324h-31.07v22.244H191.8v8.132h-28.025v29.053zm47.568-58.002c-2.092 2.085-5.376 2.413-7.843.782s-3.431-4.764-2.3-7.483 4.039-4.268 6.947-3.697 5.004 3.102 5.006 6.044a5.892 5.892 0 01-1.818 4.354h.008zm0 58.002h-8.774V60.152h8.774v46.366zm19.251 0h-8.773V60.152h8.386v7.57h.38a11.908 11.908 0 015.481-6.247 15.767 15.767 0 018.059-2.461 16.822 16.822 0 016.576 1.138l-3.337 8.132a13.355 13.355 0 00-4.67-.666 11.5 11.5 0 00-8.437 3.741c-2.448 2.494-3.672 5.759-3.672 9.795l.007 25.364zm44.15 1.478c-7.056 0-12.79-2.333-17.204-7s-6.624-10.554-6.629-17.66a25.415 25.415 0 016.435-17.41 20.925 20.925 0 0116.444-7.29c6.926 0 12.472 2.24 16.638 6.72s6.246 10.473 6.24 17.978l-.097 1.612h-36.903c.254 4.667 1.827 8.363 4.722 11.089a14.362 14.362 0 0010.15 4.066c6.29 0 10.548-2.65 12.773-7.947l7.82 3.215a20.823 20.823 0 01-7.53 9.034c-3.5 2.395-7.787 3.593-12.862 3.593zm12.586-30.31c-.19-2.65-1.413-5.174-3.672-7.57s-5.618-3.567-10.076-3.518a12.635 12.635 0 00-8.438 3.031 15.445 15.445 0 00-4.908 8.132l27.094-.074zm41.035 30.31a19.962 19.962 0 01-9.547-2.218 16.135 16.135 0 01-6.338-5.677h-.38v6.417h-8.393V38.765h8.773v21.387l-.38 6.431h.38a16.133 16.133 0 016.338-5.677 19.968 19.968 0 019.547-2.27c6.038 0 11.251 2.366 15.64 7.097s6.581 10.599 6.576 17.602-2.192 12.87-6.576 17.601-9.597 7.085-15.64 7.06zm-1.43-7.947a13.996 13.996 0 0010.486-4.59c2.925-3.061 4.387-7.115 4.387-12.161s-1.462-9.1-4.387-12.161c-2.702-2.915-6.507-4.578-10.498-4.587s-7.804 1.639-10.518 4.542c-2.89 3.026-4.335 7.095-4.335 12.205s1.46 9.192 4.379 12.242a14.02 14.02 0 0010.516 4.547l-.03-.037zm45.981 7.947c-4.965 0-9.11-1.42-12.437-4.258s-4.995-6.591-5.005-11.259c0-5.046 1.971-9.004 5.914-11.872s8.803-4.303 14.582-4.303c5.149 0 9.37.947 12.66 2.84V77.82a10.314 10.314 0 00-3.53-8.184 12.719 12.719 0 00-8.66-3.038 13.53 13.53 0 00-6.912 1.797 9.29 9.29 0 00-4.245 4.923l-8.006-3.408c1.082-2.784 3.212-5.367 6.4-7.747s7.373-3.564 12.586-3.549c5.958 0 10.923 1.725 14.895 5.175s5.943 8.339 5.913 14.667v28.062h-8.415v-6.432h-.38c-3.5 5.273-8.617 7.9-15.35 7.9zm1.43-7.947a14.333 14.333 0 009.876-3.985 12.441 12.441 0 004.468-9.506c-2.482-2.02-6.206-3.031-11.171-3.031-4.26 0-7.47.914-9.63 2.742a8.215 8.215 0 00-3.24 6.432 6.182 6.182 0 002.98 5.396 11.845 11.845 0 006.718 1.989v-.037zm48.521 7.947c-5.213 0-9.518-1.262-12.914-3.785a22.417 22.417 0 01-7.447-9.462l7.82-3.216c2.482 5.806 6.702 8.708 12.66 8.708 2.367.097 4.707-.53 6.703-1.796a5.498 5.498 0 002.622-4.731c0-3.026-2.13-5.076-6.4-6.15l-9.436-2.27a22.516 22.516 0 01-8.483-4.303 10.32 10.32 0 01-4.007-8.56c0-4.1 1.827-7.427 5.482-9.98a22.132 22.132 0 0113.01-3.83 21.82 21.82 0 0111.052 2.802 15.774 15.774 0 016.956 7.999l-7.618 3.09c-1.713-4.1-5.273-6.15-10.68-6.15-2.3-.077-4.576.481-6.576 1.611a4.897 4.897 0 00-2.667 4.354c0 2.652 2.066 4.45 6.197 5.397l9.242 2.18c4.384.986 7.626 2.711 9.727 5.175a12.513 12.513 0 013.142 8.324 12.866 12.866 0 01-5.146 10.409c-3.43 2.79-7.847 4.184-13.249 4.184zm47.187 0c-7.055 0-12.79-2.333-17.203-7s-6.624-10.567-6.629-17.698a25.415 25.415 0 016.435-17.41 20.959 20.959 0 0116.466-7.252c6.95 0 12.497 2.24 16.638 6.72S491.98 75.83 492 83.335l-.097 1.611H454.97c.253 4.667 1.827 8.364 4.722 11.09a14.363 14.363 0 0010.173 4.05c6.29 0 10.548-2.65 12.773-7.947l7.82 3.216a20.815 20.815 0 01-7.53 9.033c-3.5 2.405-7.793 3.608-12.877 3.608zm12.587-30.31c-.189-2.65-1.413-5.174-3.672-7.57s-5.613-3.567-10.061-3.518a12.643 12.643 0 00-8.438 3.031 15.445 15.445 0 00-4.908 8.132l27.079-.074z"/><path fill="#ffa000" d="M23.833 111.719L39.966 8.49a2.98 2.98 0 015.57-.946L62.22 38.662 68.87 26a2.98 2.98 0 015.273 0l45.023 85.719H23.833z"/><path fill="#f57c00" d="M79.566 71.507l-17.354-32.86-38.379 73.072 55.733-40.212z"/><path fill="#ffca28" d="M119.167 111.719l-12.356-76.46c-.187-1.099-.97-2-2.032-2.34s-2.222-.058-3.01.73l-77.936 78.069L66.957 135.9a8.937 8.937 0 008.714 0l43.496-24.183z"/><path fill="#fff" fill-opacity=".2" d="M106.81 35.258c-.186-1.098-.97-2-2.031-2.34s-2.223-.057-3.01.73L86.3 49.157 74.137 26a2.98 2.98 0 00-5.274 0l-6.65 12.662L45.53 7.545a2.98 2.98 0 00-5.571.953l-16.125 103.22h-.052l.052.06.425.209 77.488-77.578a2.98 2.98 0 015.05 1.609l12.251 75.775.12-.074-12.356-76.46zm-82.835 76.32l15.99-102.35a2.98 2.98 0 015.572-.953L62.22 39.392l6.65-12.662a2.98 2.98 0 015.273 0L86.06 49.395l-62.086 62.182z"/><path fill="#a52714" opacity=".2" d="M75.67 135.172a8.937 8.937 0 01-8.713 0l-43.02-24.116-.104.663 43.124 24.176a8.937 8.937 0 008.714 0l43.495-24.176-.111-.685-43.384 24.138z"/><use fill="url(#a)" xlink:href="#b"/></svg>