<svg width="362" height="64" viewBox="0 0 362 64" fill="none" xmlns="http://www.w3.org/2000/svg">
<g clip-path="url(#clip0_2_16)">
<path fill-rule="evenodd" clip-rule="evenodd" d="M151.182 52.3432C151.702 51.8807 152.165 51.3603 152.57 50.7822C152.974 50.2041 153.177 49.5391 153.177 48.7875C153.177 47.8625 152.844 47.082 152.179 46.4461C151.514 45.8101 150.705 45.2754 149.751 44.8417C148.797 44.4081 147.8 44.0757 146.759 43.8444C145.718 43.6132 144.851 43.4109 144.158 43.2374C142.25 42.7748 140.457 42.2111 138.781 41.5464C137.104 40.8814 135.644 40.0721 134.401 39.1181C133.158 38.164 132.175 37.0366 131.453 35.7358C130.73 34.435 130.369 32.8885 130.369 31.0963C130.369 29.4195 130.773 27.8441 131.583 26.3698C132.392 24.8955 133.476 23.5947 134.835 22.4673C136.193 21.3399 137.783 20.4437 139.605 19.779C141.426 19.114 143.348 18.7815 145.372 18.7815C147.164 18.7815 148.869 19.0418 150.488 19.5622C152.107 20.0824 153.567 20.7907 154.868 21.6868C156.169 22.583 157.267 23.667 158.163 24.9388C159.059 26.2108 159.652 27.6273 159.941 29.1883L152.396 31.0095C152.049 29.622 151.298 28.4656 150.141 27.5405C148.985 26.6155 147.395 26.153 145.372 26.153C144.678 26.153 143.955 26.2543 143.204 26.4566C142.452 26.659 141.758 26.9624 141.122 27.3672C140.486 27.7719 139.952 28.2632 139.518 28.8414C139.084 29.4197 138.868 30.0844 138.868 30.836C138.868 31.6454 139.113 32.3392 139.605 32.9173C140.096 33.4955 140.689 33.9725 141.382 34.3483C142.076 34.7241 142.828 35.0277 143.637 35.2589C144.447 35.4901 145.198 35.6925 145.892 35.8659C148.956 36.6175 151.5 37.4269 153.524 38.2942C155.547 39.1614 157.166 40.1154 158.38 41.1559C159.594 42.1967 160.447 43.3385 160.938 44.5816C161.43 45.8247 161.676 47.2266 161.676 48.7875C161.676 50.6376 161.256 52.3722 160.418 53.9909C159.58 55.6098 158.423 57.0117 156.949 58.197C155.475 59.3822 153.711 60.3072 151.659 60.9722C149.607 61.6369 147.395 61.9694 145.025 61.9694C141.44 61.9694 138.246 61.0877 135.442 59.3244C132.638 57.561 130.744 55.2051 129.762 52.2565L136.873 49.0478C137.798 51.0714 138.983 52.4444 140.428 53.1671C141.874 53.8898 143.522 54.2512 145.372 54.2512C147.684 54.2512 149.621 53.6151 151.182 52.3432ZM189.204 60.9288C186.834 61.7382 184.492 62.2295 182.178 62.403C179.866 62.5764 177.785 62.2441 175.934 61.4057C174.085 60.5675 172.582 59.0932 171.425 56.9828C170.27 54.8726 169.692 51.9096 169.692 48.0939V28.8453H162.798V19.6872C162.798 19.6872 163.405 19.6872 164.682 19.6872C166.935 19.6872 168.944 19.1368 170.363 16.8496C170.964 15.8795 171.042 14.8873 171.115 12.1978V9.02194H178.337V19.6872H186.852V28.8453H178.337L178.104 49.3947C178.104 50.7822 178.263 51.8807 178.58 52.6901C178.898 53.4996 179.433 54.1066 180.185 54.5113C180.936 54.916 181.919 55.1183 183.134 55.1183C184.348 55.1183 185.822 55.0028 187.556 54.7715L189.204 60.9288ZM215.803 27.1938C215.398 27.0203 214.994 26.8469 214.589 26.6734C214.242 26.5577 213.837 26.4422 213.374 26.3265C212.912 26.2108 212.421 26.153 211.901 26.153C210.224 26.153 208.663 26.4276 207.217 26.9768C205.772 27.5261 204.529 28.2632 203.489 29.1883C202.447 30.1133 201.623 31.1974 201.016 32.4405C200.41 33.6834 200.107 34.9987 200.107 36.3863L200.02 61.9448H191.608V19.4754H198.285L200.02 24.0717C201.175 22.3951 202.693 21.0509 204.572 20.0391C206.451 19.0274 208.807 18.5214 211.64 18.5214C213.491 18.5214 215.6 18.7815 217.971 19.3019L215.803 27.1938ZM237.632 62.0562C234.626 62.0562 231.806 61.4925 229.176 60.365C226.545 59.2376 224.248 57.6911 222.282 55.7255C220.316 53.7597 218.77 51.4472 217.643 48.7875C216.515 46.1281 215.951 43.2952 215.951 40.2888C215.951 37.2825 216.486 34.4496 217.556 31.79C218.626 29.1305 220.071 26.818 221.891 24.8522C223.713 22.8864 225.838 21.3399 228.267 20.2125C230.694 19.0851 233.296 18.5214 236.071 18.5214C238.904 18.5214 241.52 19.0129 243.919 19.9957C246.318 20.9786 248.4 22.5106 250.163 24.5921C251.927 26.6734 253.301 29.3184 254.283 32.5271C255.265 35.7358 255.757 39.5661 255.757 44.0179H224.885C225.288 45.5211 225.925 46.923 226.791 48.2238C227.66 49.5247 228.685 50.6521 229.87 51.6062C231.055 52.5601 232.386 53.2972 233.859 53.8174C235.335 54.3378 236.88 54.5981 238.498 54.5981C240.696 54.5981 242.734 54.1932 244.613 53.3839C246.492 52.5745 248.097 51.5049 249.426 50.1752L254.63 55.3786C252.606 57.4021 250.135 59.0208 247.216 60.235C244.295 61.449 241.101 62.0562 237.632 62.0562ZM236.071 26.153C234.741 26.153 233.484 26.4131 232.299 26.9335C231.114 27.4539 230.014 28.1766 229.003 29.1016C227.991 30.0267 227.125 31.1252 226.401 32.397C225.679 33.6689 225.144 35.0566 224.798 36.5598H246.738C246.622 35.1721 246.305 33.8424 245.785 32.5704C245.263 31.2986 244.541 30.1857 243.615 29.2318C242.691 28.2777 241.607 27.5261 240.364 26.9768C239.12 26.4276 237.689 26.153 236.071 26.153ZM300.803 19.4754V61.9448H293.691L292.391 56.2457C290.946 58.1537 289.096 59.5989 286.841 60.5819C284.587 61.5647 282.302 62.0562 279.99 62.0562C277.099 62.0562 274.396 61.4925 271.882 60.365C269.366 59.2376 267.169 57.6911 265.29 55.7255C263.411 53.7597 261.922 51.4472 260.825 48.7875C259.725 46.1281 259.177 43.2952 259.177 40.2888C259.177 37.2825 259.725 34.4496 260.825 31.79C261.922 29.1305 263.411 26.818 265.29 24.8522C267.169 22.8864 269.366 21.3399 271.882 20.2125C274.396 19.0851 277.099 18.5214 279.99 18.5214C282.302 18.5214 284.528 18.9694 286.668 19.8656C288.806 20.7618 290.714 22.1639 292.391 24.0717L293.691 19.4754H300.803ZM279.99 54.5981C281.666 54.5981 283.256 54.2223 284.759 53.4707C286.262 52.7189 287.564 51.6928 288.661 50.392C289.761 49.0911 290.627 47.5735 291.264 45.8391C291.899 44.1045 292.217 42.2545 292.217 40.2888C292.217 38.323 291.899 36.473 291.264 34.7386C290.627 33.0042 289.761 31.4865 288.661 30.1857C287.564 28.8849 286.262 27.8586 284.759 27.107C283.256 26.3554 281.666 25.9796 279.99 25.9796C278.313 25.9796 276.723 26.3554 275.22 27.107C273.717 27.8586 272.415 28.8849 271.317 30.1857C270.22 31.4865 269.351 33.0042 268.716 34.7386C268.08 36.473 267.761 38.323 267.761 40.2888C267.761 42.2545 268.08 44.1045 268.716 45.8391C269.351 47.5735 270.22 49.0911 271.317 50.392C272.415 51.6928 273.717 52.7189 275.22 53.4707C276.723 54.2223 278.313 54.5981 279.99 54.5981ZM315.323 61.9448H306.911V19.4754H313.589L315.323 23.031C316.363 21.817 317.607 20.7618 319.051 19.8656C320.497 18.9694 322.261 18.5214 324.342 18.5214C325.151 18.5214 326.062 18.6227 327.074 18.825C328.085 19.0274 329.126 19.3743 330.196 19.8656C331.266 20.3571 332.291 21.0219 333.274 21.8603C334.257 22.6985 335.096 23.7826 335.79 25.1123C336.773 23.3201 338.261 21.7736 340.255 20.4728C342.251 19.1719 344.374 18.5214 346.631 18.5214C348.134 18.5214 349.722 18.7527 351.399 19.2153C353.077 19.6777 354.637 20.545 356.083 21.817C357.529 23.0889 358.713 24.8522 359.637 27.107C360.563 29.3617 361.026 32.2814 361.026 35.8659V61.9448H353.134V35.7793C353.134 32.1946 352.397 29.6942 350.922 28.2777C349.448 26.8613 347.497 26.153 345.068 26.153C343.219 26.153 341.599 26.9335 340.213 28.4946C338.824 30.0556 338.132 32.5127 338.132 35.8659V61.9448H330.24V35.7793C330.24 32.1946 329.502 29.6942 328.028 28.2777C326.554 26.8613 324.601 26.153 322.174 26.153C320.44 26.153 318.922 26.818 317.621 28.1477C316.321 29.4774 315.554 31.5587 315.323 34.3916V61.9448Z" fill="white"/>
<path fill-rule="evenodd" clip-rule="evenodd" d="M80.99 19.9093L120.644 17.0982C123.262 16.9126 124.91 19.8625 123.379 21.994L95.6396 60.6326C95.058 61.4428 94.1215 61.9234 93.1238 61.9234H30.9174C29.9215 61.9234 28.9861 61.4443 28.4037 60.6356L0.590327 21.9971C-0.943731 19.8659 0.704305 16.9121 3.32395 17.0982L42.8574 19.9096L59.7425 1.03221C60.9799 -0.35101 63.1478 -0.342958 64.375 1.04987L80.99 19.9093ZM89.2944 55.7975L63.5592 46.1796V55.7975H89.2944ZM60.4619 55.7975V46.1796L34.7267 55.7975H60.4619ZM57.4923 43.8822L31.1984 53.6971L11.8543 26.8083L57.4923 43.8822ZM66.4753 43.8822L92.7691 53.6971L112.113 26.8083L66.4753 43.8822ZM60.4867 41.6379V9.27549L38.9876 33.5447L60.4867 41.6379ZM63.5592 41.6379V9.27952L85.0586 33.5447L63.5592 41.6379ZM32.6828 31.3077L37.6295 25.7493L13.4627 24.0174L32.6828 31.3077ZM91.1046 31.3077L86.1584 25.7493L110.325 24.0174L91.1046 31.3077Z" fill="white"/>
</g>
<defs>
<clipPath id="clip0_2_16">
<rect width="361.026" height="64" fill="white"/>
</clipPath>
</defs>
</svg>
