<svg version="1.1" id="GoogleLogo_x5F_FullColor_x5F_rgb_21_"
	 xmlns="http://www.w3.org/2000/svg" xmlns:xlink="http://www.w3.org/1999/xlink" x="0px" y="0px" width="359.4px"
	 height="118.38px" viewBox="0 0 359.4 118.38" enable-background="new 0 0 359.4 118.38" xml:space="preserve">
<g id="_x33_60x119px">
	<path fill="#4285F4" d="M88.77,41.5c0.45,2.79,0.64,5.55,0.64,8.12c0,9.41-2.58,21.06-10.86,29.34
		c-8.06,8.4-18.37,12.88-32.03,12.88C21.2,91.84,0,71.23,0,45.92S21.2,0,46.51,0c14,0,23.97,5.49,31.47,12.66l-8.85,8.85
		c-5.38-5.04-12.66-8.96-22.62-8.96c-18.48,0-32.84,14.9-32.84,33.38c0,18.48,14.36,33.38,32.84,33.38
		c11.98,0,18.82-4.82,23.18-9.18c3.58-3.58,6.02-9.01,6.91-16.06h-30.1V41.5L88.77,41.5z"/>
	<path fill="#E94235" d="M153.08,62.27c0,17.02-13.33,29.57-29.68,29.57c-16.35,0-29.68-12.54-29.68-29.57
		c0-17.14,13.33-29.57,29.68-29.57C139.76,32.7,153.08,45.14,153.08,62.27z M140.09,62.27c0-10.64-7.73-17.92-16.69-17.92
		s-16.69,7.28-16.69,17.92c0,10.53,7.73,17.92,16.69,17.92S140.09,72.8,140.09,62.27z"/>
	<path fill="#FABB05" d="M217.08,62.27c0,17.02-13.33,29.57-29.68,29.57c-16.35,0-29.68-12.54-29.68-29.57
		c0-17.14,13.33-29.57,29.68-29.57C203.76,32.7,217.08,45.14,217.08,62.27z M204.09,62.27c0-10.64-7.73-17.92-16.69-17.92
		s-16.69,7.28-16.69,17.92c0,10.53,7.73,17.92,16.69,17.92S204.09,72.8,204.09,62.27z"/>
	<path fill="#4285F4" d="M278.4,34.5v53.09c0,21.84-12.88,30.8-28.11,30.8c-14.34,0-22.96-9.63-26.21-17.47l11.31-4.7
		c2.02,4.82,6.94,10.53,14.9,10.53c9.74,0,15.79-6.05,15.79-17.36v-4.26h-0.45c-2.91,3.58-8.51,6.72-15.57,6.72
		c-14.78,0-28.34-12.88-28.34-29.46c0-16.69,13.55-29.68,28.34-29.68c7.06,0,12.66,3.14,15.57,6.61h0.45V34.5H278.4z M266.98,62.38
		c0-10.42-6.94-18.03-15.79-18.03c-8.96,0-16.46,7.62-16.46,18.03c0,10.3,7.5,17.81,16.46,17.81
		C260.04,80.19,266.98,72.69,266.98,62.38z"/>
	<path fill="#34A853" d="M300.15,3.14v86.91H287.4V3.14H300.15z"/>
	<path fill="#E94235" d="M348.76,72.02l10.08,6.72c-3.25,4.82-11.09,13.1-24.64,13.1c-16.8,0-29-12.99-29-29.57
		c0-17.58,12.31-29.57,27.54-29.57c15.34,0,22.85,12.21,25.31,18.82l1.34,3.36l-39.54,16.35c3.02,5.94,7.73,8.96,14.34,8.96
		C340.81,80.19,345.4,76.94,348.76,72.02z M317.74,61.38l26.43-10.98c-1.46-3.7-5.82-6.27-10.98-6.27
		C326.59,44.13,317.4,49.95,317.74,61.38z"/>
</g>
</svg>
