<svg width="60" height="64" viewBox="0 0 60 64" fill="none" xmlns="http://www.w3.org/2000/svg">
<path d="M54.0762 11.7623C55.8075 11.8133 57.1823 13.239 57.1823 14.9702C57.1823 16.7015 55.7565 18.1272 54.0253 18.0763C52.294 18.0254 50.9192 16.5997 50.9192 14.8684C50.9192 13.1372 52.345 11.7623 54.0762 11.7623ZM46.8457 7.58696C48.5769 7.58696 50.0027 8.96178 50.0027 10.693C50.0027 12.4243 48.6279 13.85 46.8457 13.85C45.0635 13.85 43.6887 12.4752 43.6887 10.744C43.7396 9.0127 45.1144 7.58696 46.8457 7.58696ZM38.9023 10.1329C40.6335 10.1329 42.0593 11.5587 42.0593 13.2899C42.0593 15.0212 40.6335 16.4469 38.9023 16.4469C37.171 16.4469 35.7453 15.0212 35.7453 13.2899C35.7453 11.5077 37.171 10.082 38.9023 10.1329ZM23.983 7.1796V4.2263C24.6958 4.42997 25.3578 4.63365 25.9688 4.83733C26.478 4.99008 26.9872 5.19376 27.4964 5.2956C27.7001 5.34651 28.0056 5.34652 28.1074 5.24468C28.2092 5.09192 28.2602 4.78641 28.2092 4.58273C27.8019 3.15699 27.3436 1.78217 26.8853 0.356433C26.8344 0.254595 26.8344 0.152758 26.7835 0H32.4865C31.9773 1.52758 31.519 3.00424 31.0607 4.48089C31.0098 4.68457 30.9589 5.09192 31.1116 5.19376C31.2135 5.34652 31.6208 5.34652 31.8245 5.24468C32.9447 4.93917 34.065 4.58273 35.2361 4.17537V10.0311C33.9122 9.31822 32.6392 8.65627 31.1116 7.89248C31.0607 8.29983 30.9589 8.65627 31.0607 8.91086L33.0975 15.1739C33.8104 17.3635 32.6392 19.4511 30.4497 20.0113C27.751 20.7241 25.205 18.2291 25.9688 15.5304C26.5798 13.2899 27.3945 11.1513 28.1074 8.91086C28.2092 8.65627 28.1074 8.29983 28.0565 7.89248C26.5798 8.65627 25.3069 9.31822 23.932 10.082C23.983 9.06362 23.983 8.14707 23.983 7.1796V7.1796ZM20.4186 10.1329C22.1499 10.1329 23.5756 11.5587 23.5756 13.2899C23.5756 15.0212 22.0989 16.4469 20.4186 16.4469C18.6874 16.4469 17.2616 15.0212 17.2616 13.2899C17.2616 11.5077 18.6874 10.1329 20.4186 10.1329V10.1329ZM12.4243 7.58696C14.1555 7.58696 15.5813 8.96178 15.5813 10.744C15.5813 12.4752 14.2065 13.9009 12.4243 13.9009C10.693 13.9009 9.2673 12.4752 9.2673 10.744C9.2673 9.0127 10.693 7.63788 12.4243 7.58696ZM10.4894 34.6251C9.36914 34.065 8.50351 33.3012 7.17961 33.3012C8.19799 35.3379 9.2673 37.171 11.4059 38.0876C13.7482 39.055 16.0905 37.2729 15.785 34.8797C15.6322 33.9631 15.0721 33.1484 14.3083 32.9957C13.6463 32.8429 12.9844 33.1993 12.4243 34.1159C12.3734 34.2177 12.2715 34.3196 12.1697 34.5232C11.6605 33.3521 11.3041 32.2828 11.966 31.2135C12.7298 29.9914 13.9519 30.0933 15.4285 30.4497C12.4752 27.4455 12.0679 24.3903 14.6647 21.1315C16.0396 22.2517 17.2107 23.4228 17.618 25.1541C18.0254 26.8853 17.4144 28.4638 16.8543 30.1951C18.0254 29.3804 19.1456 28.7694 20.3677 29.7877C21.1824 30.4497 21.3861 31.8245 20.826 33.2503C20.6223 32.9957 20.4186 32.7411 20.2149 32.5374C19.3493 31.7736 18.3309 32.0282 17.8217 33.0466C17.2616 34.2177 17.618 35.5925 18.7383 36.5091C20.0622 37.6293 21.6916 37.9348 23.3719 37.8839C23.7793 37.8839 24.1357 37.833 24.5431 37.7311C27.089 37.2219 28.362 35.6944 28.5657 33.0466C28.6166 32.5883 28.6166 32.13 28.6675 31.5699C26.4271 31.7227 25.1541 33.2502 23.7793 34.8287C23.5756 32.3846 23.3719 30.0933 23.1682 27.751C24.0339 28.3111 24.7977 28.9221 25.7142 29.3295C26.5798 29.6859 27.5982 29.8387 28.5657 29.9405C27.8528 27.9037 26.5289 26.4271 25.205 24.7467H34.2177C33.5558 25.6124 32.8938 26.3762 32.3337 27.2418C31.7736 28.0565 31.2644 28.9221 30.6534 29.8896C32.9447 29.9405 34.676 29.1258 36.2545 27.5473C36.0508 30.0933 35.8471 32.3846 35.6435 34.8287C34.2686 33.2502 32.9957 31.7227 30.8061 31.5699C30.6534 36.1017 32.7411 37.9857 36.9164 37.8839C38.0876 37.833 39.2078 37.5275 40.2262 36.8655C41.2955 36.1526 41.9574 35.1852 41.8047 33.8613C41.7028 33.0975 41.4482 32.4355 40.6845 32.1809C39.9207 31.8754 39.3606 32.3337 38.9023 32.8938C38.8514 32.9956 38.7495 33.0466 38.6477 33.1484C38.0367 32.13 38.2403 30.5006 39.055 29.7877C39.9207 28.973 41.0918 29.1258 42.7212 30.3478C41.0918 26.6307 41.4482 23.5247 44.8089 21.1824C46.8457 23.7284 47.6095 26.7326 44.096 30.5006C45.4199 30.1442 46.642 30.0423 47.4567 31.2644C48.1696 32.3337 47.8131 33.4539 47.3039 34.6251C47.0494 34.3196 46.8966 34.014 46.6929 33.8104C45.8273 32.792 44.6562 32.8938 43.9942 34.065C43.4341 35.0324 43.5359 36.4072 44.1979 37.3238C44.9617 38.3422 46.3365 38.8004 47.6095 38.444C48.7806 38.0876 49.6972 37.3747 50.41 36.4072C51.072 35.5416 51.6321 34.5741 52.1922 33.6067C50.9192 33.5048 50.0027 34.2177 48.9334 34.8797C49.6462 32.5883 50.2573 30.3988 50.9192 28.2092C51.5302 29.4313 52.0904 30.6534 52.6505 31.8245L52.9051 31.7227C53.5161 30.2969 53.1087 28.8203 52.9051 27.2927C54.3308 27.8019 55.7056 28.3111 57.1314 28.7694C56.9786 28.973 56.9277 29.1258 56.8258 29.2785C54.178 33.0466 52.6505 37.3238 51.4284 41.7028C51.2757 42.212 51.1229 42.7212 51.0211 43.2304C50.9701 43.7905 50.6646 43.8414 50.1554 43.7905C42.5685 42.7212 34.9815 42.3139 27.2927 42.4666C21.2842 42.5685 15.2758 42.9249 9.2673 43.7905C8.70718 43.8924 8.45259 43.7905 8.29983 43.1795C7.33236 39.1569 6.05938 35.2361 3.9717 31.6208C3.4625 30.7043 2.85147 29.7877 2.24044 28.7694C3.61526 28.2602 4.99008 27.8019 6.46674 27.2418C6.26306 28.7694 5.90663 30.246 6.51766 31.7736C7.48512 30.7043 7.9434 29.4313 8.45259 28.1583C9.11454 30.1442 9.77649 32.3337 10.4894 34.6251V34.6251ZM5.2956 11.7623C7.02685 11.7623 8.40167 13.1881 8.40167 14.9193C8.40167 16.6506 6.97593 18.0763 5.24468 18.0763C3.51342 18.0763 2.08769 16.6506 2.08769 14.9193C2.13861 13.1881 3.56434 11.7623 5.2956 11.7623V11.7623ZM0 22.8627C0 21.1315 1.42574 19.7057 3.15699 19.7057C4.88824 19.7057 6.31398 21.0806 6.31398 22.8627C6.31398 24.594 4.93916 25.9688 3.15699 25.9688C1.42574 26.0197 0 24.594 0 22.8627ZM11.7114 63.7509H9.82741C9.82741 63.4453 9.77649 63.0889 9.77649 62.6816C8.65626 63.8018 7.38328 64.1073 5.95755 63.9036C3.7171 63.5472 2.13861 61.9178 1.78217 59.5755C1.5785 58.2516 1.68033 56.9786 2.18952 55.7056C3.05515 53.8216 4.53181 52.8032 6.56858 52.6505C8.80902 52.4977 10.5403 53.4143 11.5077 55.1455C10.8458 55.5019 10.2348 55.8584 9.67465 56.1639C9.21638 55.7056 8.85994 55.2473 8.35075 54.9418C6.97593 54.1271 5.19376 54.6363 4.48089 56.0621C3.76802 57.5387 3.76802 59.0663 4.48089 60.492C5.19376 61.8669 6.87409 62.376 8.24891 61.7141C9.06362 61.3067 9.47097 60.6448 9.47097 59.5246H6.72134V57.7424H11.6605C11.7114 59.7282 11.7114 61.7141 11.7114 63.7509V63.7509ZM20.8769 63.3435C18.9929 64.311 17.1089 64.2091 15.3267 63.038C13.7482 61.9687 13.1372 60.3902 13.0353 58.5571C12.8826 55.9093 14.3083 53.6179 16.5997 52.8541C20.3168 51.6321 23.6774 54.178 23.6265 58.8626C23.5756 60.4411 22.8627 62.3251 20.8769 63.3435V63.3435ZM27.4964 63.8018C27.3436 63.8018 27.089 63.649 27.089 63.4963C26.0706 59.9319 25.0523 56.4185 24.0339 52.7523C24.7977 52.7523 25.5105 52.7014 26.2234 52.7523C26.3762 52.7523 26.6307 53.0578 26.6817 53.2615C27.3436 55.6547 27.9547 58.0479 28.5657 60.4411C28.6166 60.5429 28.6166 60.6957 28.8203 60.8485C29.4822 58.2007 30.1951 55.5019 30.857 52.8032H33.3521C32.2828 56.5203 31.2644 60.1356 30.246 63.8018H27.4964ZM34.6251 63.9545C33.8104 63.9545 33.1993 63.2926 33.1993 62.4779C33.1993 61.6632 33.8613 61.0012 34.6251 61.0521C35.3889 61.0521 36.0508 61.765 35.9999 62.5288C35.9999 63.2926 35.3889 63.9545 34.6251 63.9545ZM46.2347 53.9234V59.5755C46.2347 62.0705 44.8089 63.6999 42.3648 63.8527C41.3973 63.9036 40.3789 63.7509 39.4624 63.3944C38.1385 62.8852 37.2729 61.8159 37.222 60.3393C37.1201 57.997 37.171 55.6038 37.171 53.2615C37.171 53.1087 37.171 52.956 37.222 52.7523H39.4624V59.5755C39.4624 61.4086 40.8372 62.376 42.5685 61.8159C43.485 61.5104 43.9942 60.7466 43.9942 59.6264V52.7523H46.2347V53.9234ZM54.84 63.8018C54.6363 63.8018 54.4326 63.5472 54.3308 63.3944C53.4652 61.9178 52.5996 60.492 51.683 58.9135C51.0211 59.7282 50.0536 60.2374 50.2573 61.5104C50.3591 62.2742 50.2573 63.038 50.2573 63.8018H48.0168V52.8032H50.2064V57.335L50.3591 57.386C51.2247 56.3676 52.1922 55.4001 52.9051 54.2799C53.7198 53.0578 54.6872 52.5486 56.113 52.8032C56.3167 52.8541 56.5713 52.8032 56.9277 52.8032C55.8584 54.0253 54.8909 55.1455 53.8725 56.2657C53.0578 57.1823 53.0578 57.1823 53.7198 58.2516C54.84 60.0847 55.9602 61.9178 57.1823 63.8527L54.84 63.8018ZM56.1639 26.0197C54.3817 26.0197 53.0069 24.6958 53.0069 22.9136C53.0069 21.1315 54.3817 19.7567 56.113 19.7567C57.8951 19.7567 59.27 21.1315 59.3209 22.8627C59.3209 24.594 57.8952 26.0197 56.1639 26.0197V26.0197Z" fill="white"/>
<path d="M21.2333 57.4367C21.0296 55.8073 19.9603 54.6871 18.5346 54.5852C17.0579 54.4834 15.8868 55.349 15.4794 56.9275C15.2248 57.9459 15.2248 58.9643 15.5813 59.9827C15.9886 61.2556 17.007 62.0194 18.28 62.0194C19.6039 62.0194 20.5714 61.3066 21.0296 60.0336C21.1824 59.5244 21.2333 58.9643 21.3351 58.4042H21.2842C21.2842 58.0477 21.2842 57.7422 21.2333 57.4367V57.4367Z" fill="#3E4042"/>
</svg>
