<svg
  id="Layer_1"
  data-name="Layer 1"
  xmlns="http://www.w3.org/2000/svg"
  viewBox="0 0 571.3 108"
>
  <defs>
    <style>
      .cls-1 {
        fill: #612b5c;
      }
    </style>
  </defs>
  <path
    class="cls-1"
    d="M57 64h23v19c-6 5-15 8-25 8-21 0-36-15-36-37 0-20 15-37 36-37 12 0 18 4 26 10a2 2 0 003-1l9-10a2 2 0 00-1-3C82 5 72 0 55 0 21 0 0 25 0 54c0 31 22 54 54 54a67 67 0 0042-15 4 4 0 002-3V50a2 2 0 00-2-2H56a2 2 0 00-2 2v12a3 3 0 003 2zM231 35c0-20-15-32-38-32h-44a2 2 0 00-2 2v99a2 2 0 002 2h14a2 2 0 002-2V70h23l24 34a4 4 0 003 2h16a2 2 0 001-3l-25-36c14-4 24-15 24-32zm-66 19V19h26c14 0 22 6 22 17s-8 18-21 18zM313 5l-43 98a2 2 0 002 3h13a4 4 0 003-3l10-22h48l10 22a4 4 0 003 3h14a2 2 0 002-3L332 5a3 3 0 00-3-2h-13a3 3 0 00-3 2zm-8 60l17-41 18 41zM513 89V5a2 2 0 00-2-2h-14a2 2 0 00-2 2v99a2 2 0 002 2h72a2 2 0 002-2V92a2 2 0 00-2-3h-56zM421 63h20a2 2 0 002-2V47a2 2 0 00-2-2h-20a2 2 0 00-2 2v14a2 2 0 002 2zM421 20h20a2 2 0 002-2V5a2 2 0 00-2-2h-20a2 2 0 00-2 2v13a2 2 0 002 2zM420 36h21a1 1 0 002-2v-3a1 1 0 00-2-1h-21a1 1 0 00-1 1v3a1 1 0 001 2zM421 106h20a2 2 0 002-2V90a2 2 0 00-2-2h-20a2 2 0 00-2 2v14a2 2 0 002 2zM420 79h21a1 1 0 002-2v-3a1 1 0 00-2-1h-21a1 1 0 00-1 1v3a1 1 0 001 2z"
  />
</svg>
