<svg width="64" height="64" viewBox="0 0 64 64" fill="none" xmlns="http://www.w3.org/2000/svg">
<g clip-path="url(#clip0_2_78)">
<path d="M60.9365 18.341C58.823 13.7765 55.7635 9.93675 51.7115 6.712C51.8195 8.901 52.055 13.583 52.055 13.583C52.055 13.583 52.3075 13.9148 52.41 14.0583C56.505 19.7773 58.0013 26.116 56.6375 33.001C53.9025 46.8065 40.4445 55.2285 26.8063 51.7855C14.8333 48.7628 6.83678 36.5205 9.10128 24.3833C10.8888 14.8015 16.5515 8.4185 25.7473 5.175L26.0805 5.049L26.342 4.8555C27.4565 3.2795 28.544 1.68425 29.7045 0C15.7673 0.6905 1.75053 11.872 0.144779 28.8805C-1.40922 45.3385 9.68728 60.0158 25.5438 63.2365C42.0678 66.5928 57.798 56.844 62.5515 41.2425C64.9285 33.441 64.3723 25.7615 60.9365 18.341V18.341ZM21.609 28.634C22.3058 35.2558 28.0453 39.7685 34.6845 39.0348C41.2075 38.3138 45.976 31.9325 44.7413 25.4768C43.7788 20.4433 42.715 15.4293 41.6943 10.407C41.272 8.32875 40.8448 6.25125 40.3968 4.05925C40.22 4.2145 40.138 4.28 40.0633 4.35325C37.8283 6.54425 35.5945 8.7365 33.3595 10.9275C30.638 13.5958 27.9203 16.2675 25.1923 18.929C22.4563 21.5983 21.2108 24.8558 21.6088 28.634H21.609Z" fill="black"/>
</g>
<defs>
<clipPath id="clip0_2_78">
<rect width="64" height="64" fill="white"/>
</clipPath>
</defs>
</svg>
