<svg width="414" height="64" viewBox="0 0 414 64" fill="none" xmlns="http://www.w3.org/2000/svg">
<path d="M62.4042 32.3357C62.4042 49.5171 48.5707 63.446 31.5058 63.446C14.4409 63.446 0.608521 49.5213 0.608521 32.3357C0.608521 15.1502 14.442 1.22648 31.5058 1.22648C48.5697 1.22648 62.4042 15.1544 62.4042 32.3357ZM96.3 32.3357C96.3 48.5099 89.3828 61.6205 80.8509 61.6205C72.3189 61.6205 65.4017 48.5057 65.4017 32.3357C65.4017 16.1658 72.3189 3.05101 80.8509 3.05101C89.3828 3.05101 96.3 16.1658 96.3 32.3357ZM110.164 32.3357C110.164 46.827 107.731 58.5737 104.73 58.5737C101.73 58.5737 99.2965 46.8228 99.2965 32.3357C99.2965 17.8487 101.73 6.09783 104.731 6.09783C107.733 6.09783 110.164 17.8455 110.164 32.3357ZM195.438 3.92392L195.524 3.90504V3.23881H177.952L161.637 41.5864L145.321 3.23881H126.385V3.90504L126.47 3.92392C129.678 4.64786 131.306 5.72747 131.306 9.62098V55.2026C131.306 59.0961 129.671 60.1758 126.464 60.8997L126.379 60.9186V61.5869H139.226V60.9207L139.141 60.9018C135.934 60.1778 134.306 59.0982 134.306 55.2047V12.2649L155.265 61.5869H156.454L178.024 10.8894V56.3305C177.749 59.4057 176.135 60.3552 173.231 61.0109L173.145 61.0308V61.6918H195.524V61.0308L195.438 61.0109C192.531 60.3552 190.878 59.4057 190.603 56.3305L190.589 9.62098H190.603C190.603 5.72747 192.232 4.64786 195.438 3.92392V3.92392ZM205.66 34.1194C206.026 25.9294 208.967 20.0184 213.903 19.9166C215.425 19.9418 216.702 20.4412 217.694 21.4022C219.803 23.4492 220.795 27.7267 220.642 34.1194H205.66ZM205.439 36.4275H231.668V36.3174C231.594 30.0548 229.78 25.1835 226.282 21.8387C223.258 18.9482 218.781 17.3576 214.079 17.3576H213.974C211.534 17.3576 208.54 17.9494 206.41 19.0216C203.986 20.1443 201.848 21.8229 200.068 24.0262C197.204 27.5756 195.469 32.3725 195.047 37.7632C195.033 37.9247 195.022 38.0863 195.01 38.2479C194.999 38.4094 194.991 38.5542 194.984 38.7085C194.946 39.4664 194.934 40.2254 194.946 40.9841C195.23 53.1935 201.826 62.9508 213.54 62.9508C223.822 62.9508 229.809 55.4345 231.302 45.3456L230.548 45.0801C227.925 50.5023 223.214 53.7883 217.853 53.3876C210.534 52.8399 204.927 45.419 205.436 36.4296L205.439 36.4275ZM261.325 52.9731C260.464 55.0138 258.669 56.1364 256.263 56.1364C253.858 56.1364 251.658 54.485 250.096 51.4843C248.418 48.2634 247.534 43.7099 247.534 38.3161C247.534 27.0898 251.026 19.8285 256.43 19.8285C258.693 19.8285 260.475 20.9511 261.325 22.9099V52.9731ZM278.724 60.9763C275.517 60.2177 273.888 59.0878 273.888 54.9959V0.553955L254.402 6.29507V6.99802L254.522 6.98858C257.21 6.7714 259.033 7.14281 260.092 8.12065C260.921 8.88655 261.325 10.0616 261.325 11.7151V19.179C259.403 17.9525 257.118 17.3555 254.345 17.3555C248.722 17.3555 243.582 19.7235 239.875 24.0241C236.011 28.5062 233.968 34.6314 233.968 41.7354C233.967 54.4231 240.213 62.9508 249.509 62.9508C254.947 62.9508 259.322 59.9712 261.325 54.9456V61.6918H278.809V60.9931L278.724 60.9763ZM295.437 7.95802C295.437 3.99632 292.449 1.00825 288.487 1.00825C284.543 1.00825 281.457 4.06137 281.457 7.95802C281.457 11.8547 284.546 14.9078 288.487 14.9078C292.449 14.9078 295.437 11.9197 295.437 7.95802V7.95802ZM300.036 60.9763C296.829 60.2177 295.2 59.0878 295.2 54.9959H295.187V17.4846L277.701 22.5049V23.1869L277.806 23.1963C281.589 23.5331 282.625 24.8362 282.625 29.2574V61.6918H300.125V60.9931L300.036 60.9763ZM344.841 60.9763C341.634 60.2177 340.006 59.0878 340.006 54.9959V17.4846L323.357 22.3391V23.0232L323.456 23.0337C326.549 23.3589 327.443 24.7365 327.443 29.1777V52.8892C326.411 54.9299 324.477 56.1417 322.133 56.2235C318.332 56.2235 316.239 53.6561 316.239 48.9946V17.4856L298.753 22.506V23.1869L298.858 23.1963C302.641 23.5321 303.678 24.8351 303.678 29.2574V49.3251C303.669 50.726 303.791 52.1247 304.042 53.503L304.357 54.8721C305.837 60.1768 309.716 62.9508 315.793 62.9508C320.94 62.9508 325.451 59.7645 327.439 54.7788V61.7034H344.924V61.0046L344.841 60.9763ZM412.768 61.6918V60.992L412.683 60.9721C409.203 60.1695 407.848 58.6565 407.848 55.5761V30.0601C407.848 22.1041 403.379 17.3555 395.894 17.3555C390.439 17.3555 385.838 20.5083 384.067 25.4195C382.66 20.2156 378.611 17.3555 372.625 17.3555C367.366 17.3555 363.245 20.1306 361.477 24.8184V17.4877L343.992 22.3024V22.9886L344.096 22.998C347.835 23.3296 348.915 24.6704 348.915 28.9784V61.6918H365.23V60.9931L365.144 60.9721C362.368 60.3195 361.472 59.1297 361.472 56.0766V26.8296C362.206 25.1142 363.687 23.082 366.613 23.082C370.247 23.082 372.09 25.6 372.09 30.5605V61.6918H388.409V60.9931L388.323 60.9721C385.546 60.3195 384.65 59.1297 384.65 56.0766V30.0569C384.658 29.084 384.58 28.1123 384.42 27.1528C385.198 25.2884 386.763 23.082 389.809 23.082C393.495 23.082 395.286 25.5276 395.286 30.5605V61.6918H412.768Z" fill="white"/>
</svg>
