<svg width="56" height="49" viewBox="0 0 56 49" fill="none" xmlns="http://www.w3.org/2000/svg">
<g clip-path="url(#clip0_7_165)">
<path d="M15 38.1H15.5V48H13.6V39.3C13.8 38.7 14.4 38.2 15 38.1Z" fill="#2D3277"/>
<path d="M25.3 40.3C24.4 40.3 23.6 40.7 23.2 41.5V38.1H23C22.3 38.1 21.7 38.4 21.3 39V44.6C21.3 46.8 22.5 48 24.8 48C27.1 48 28.3 46.7 28.3 44.2C28.3 41.7 27.3 40.4 25.3 40.3ZM24.7 46.4C23.6 46.4 23.1 45.6 23.1 44.1C23.1 42.6 23.7 41.9 24.7 41.9C25.7 41.9 26.2 42.6 26.3 44.1C26.4 45.6 25.8 46.4 24.7 46.4Z" fill="#2D3277"/>
<path d="M29.4 44.1C29.5 41.7 30.6 40.4 33.1 40.4H33.7V42.3H32.8C31.7 42.3 31.3 43 31.3 44.1V48H29.4V44.1V44.1Z" fill="#2D3277"/>
<path d="M36.6 46.1C37 46.4 37.4 46.6 37.9 46.5C38.3 46.5 38.6 46.4 38.9 46.2C39.1 46 39.3 45.8 39.4 45.6H41.2C41 46.4 40.5 47 39.9 47.5C39.3 47.9 38.5 48.1 37.8 48.1C37.3 48.1 36.7 48 36.2 47.8C35.8 47.6 35.4 47.4 35.1 47C34.8 46.6 34.5 46.2 34.4 45.8C34.1 44.8 34.1 43.7 34.4 42.7C34.6 42.3 34.8 41.8 35.1 41.5C35.8 40.8 36.8 40.4 37.8 40.4C38.4 40.4 38.9 40.5 39.4 40.8C39.8 41 40.2 41.4 40.5 41.8C40.8 42.2 41 42.7 41.1 43.2C41.2 43.7 41.3 44.3 41.3 44.8H36C36.1 45.2 36.3 45.7 36.6 46.1ZM38.9 42.2C38.6 41.9 38.2 41.8 37.8 41.8C37.5 41.8 37.2 41.9 37 42C36.8 42.1 36.6 42.2 36.5 42.4C36.4 42.5 36.3 42.7 36.2 42.9C36.2 43.1 36.1 43.2 36.1 43.4H39.4C39.4 43 39.2 42.6 38.9 42.2Z" fill="#2D3277"/>
<path d="M19.4 38.1H17.5V39.8H19.4V38.1Z" fill="#2D3277"/>
<path d="M19.4 40.7H17.5V48H19.4V40.7Z" fill="#2D3277"/>
<path d="M51.7 34.2C51.1 34.9 50 35 49.3 34.3L49.2 34.2C48.9 33.7 48.7 33.1 48.8 32.5C48.8 31.9 48.9 31.4 49.2 30.9C49.8 30.2 50.9 30.1 51.6 30.8L51.7 30.9C52 31.4 52.2 32 52.1 32.5C52.2 33.1 52 33.7 51.7 34.2ZM53.2 29.8C52.5 29 51.5 28.6 50.4 28.6C49.3 28.5 48.3 28.9 47.6 29.8C47 30.6 46.7 31.5 46.7 32.5C46.7 33.5 47 34.4 47.6 35.2C48.3 36 49.3 36.4 50.4 36.3C51.4 36.4 52.5 36 53.2 35.2C53.8 34.4 54.1 33.5 54.1 32.5C54.2 31.5 53.8 30.6 53.2 29.8Z" fill="#2D3277"/>
<path d="M44 34.2C43.7 34.6 43.3 34.8 42.8 34.8C42.3 34.8 41.9 34.6 41.6 34.2C41.3 33.7 41.2 33.1 41.2 32.5C41.2 32 41.3 31.4 41.6 31C41.8 30.6 42.3 30.3 42.8 30.4C43.2 30.4 43.5 30.5 43.8 30.7C44.3 31.2 44.5 32 44.5 32.7C44.5 33.2 44.3 33.7 44 34.2ZM46.2 26.5C46.2 26.5 44.3 26.3 44.3 27.8V29.8C44.1 29.5 43.8 29.2 43.5 29C43.1 28.8 42.7 28.7 42.3 28.8C41.4 28.8 40.6 29.2 40 29.9C39.4 30.8 39.1 31.8 39.2 32.9C39.1 33.8 39.4 34.8 40 35.5C40.7 36.2 41.7 36.5 42.7 36.5C46.2 36.5 46.1 33.5 46.1 33.5L46.2 26.5Z" fill="#2D3277"/>
<path d="M36.8 33.3C36.8 33.8 36.6 34.3 36.3 34.6C36 34.8 35.6 34.9 35.2 34.9C34.8 34.9 34.4 34.6 34.3 34.2C34.3 34.1 34.3 34.1 34.3 34C34.3 33.7 34.4 33.4 34.7 33.2C35 33.1 35.3 33 35.5 33L35.9 32.9C36.1 32.8 36.3 32.8 36.4 32.8L36.7 32.7L36.8 33.3ZM37.8 29.2C37.1 28.9 36.4 28.7 35.7 28.7C34.7 28.6 33.8 29 33.1 29.7C32.8 30.2 32.6 30.7 32.6 31.2H34.4C34.4 31 34.5 30.8 34.6 30.6C34.9 30.4 35.2 30.2 35.6 30.3C35.9 30.3 36.2 30.3 36.5 30.4C36.7 30.5 36.8 30.8 36.8 31C36.8 31.3 36.6 31.5 36.4 31.5C36.2 31.6 35.9 31.6 35.6 31.6H35C34.4 31.7 33.9 31.8 33.3 32.1C32.2 32.8 32 34.2 32.6 35.3C32.7 35.4 32.8 35.5 32.9 35.6C33.4 36 33.9 36.2 34.5 36.2C38.6 36.3 38.6 34 38.6 33.5V30.8C38.8 30.2 38.4 29.6 37.8 29.2Z" fill="#2D3277"/>
<path d="M28.4 30.3C28.8 30.3 29.2 30.4 29.5 30.7C29.7 30.9 29.7 31.2 29.7 31.5H31.7C31.7 30.7 31.3 29.9 30.6 29.4C29.9 29 29.1 28.8 28.4 28.8C27.4 28.7 26.4 29.1 25.7 29.8C25 30.6 24.7 31.6 24.7 32.7C24.6 33.7 24.9 34.6 25.5 35.3C27.1 36.7 29.5 36.7 30.9 35.1C31.2 34.6 31.5 34 31.5 33.4H29.5C29.5 33.7 29.4 34.1 29.2 34.3C28.9 34.5 28.6 34.7 28.2 34.6C27.6 34.6 27.1 34.3 26.9 33.7C26.8 33.3 26.7 32.9 26.7 32.4C26.7 31.9 26.7 31.5 26.9 31.1C27.2 30.7 27.8 30.3 28.4 30.3Z" fill="#2D3277"/>
<path d="M24.2 28.7C20 28.7 20.3 32.4 20.3 32.4V36.2H22.2V32.7C22.2 32.3 22.2 31.8 22.4 31.4C22.7 30.9 23.3 30.6 23.9 30.6H24.1C24.2 30.6 24.3 30.6 24.4 30.6V28.7H24.2C24.3 28.7 24.3 28.7 24.2 28.7Z" fill="#2D3277"/>
<path d="M14.7 30.7C15 30.4 15.4 30.3 15.8 30.3C16.2 30.3 16.6 30.4 16.9 30.7C17.2 31 17.4 31.4 17.4 31.8H14.1C14.3 31.3 14.4 31 14.7 30.7ZM17.3 34.2C17.3 34.3 17.2 34.4 17.1 34.4C16.8 34.6 16.4 34.7 16 34.6C15.6 34.6 15.3 34.5 15 34.4C14.5 34.1 14.2 33.5 14.2 32.9H19.4V31.5C19.3 31 19.1 30.5 18.8 30C18.5 29.5 18.1 29.2 17.6 28.9C17.1 28.7 16.5 28.6 15.9 28.6C14.9 28.5 14 28.9 13.4 29.6C12.7 30.4 12.3 31.4 12.4 32.5C12.3 33.6 12.7 34.6 13.5 35.4C14.2 36 15.1 36.3 16 36.3C17 36.4 18 36 18.7 35.2C19 34.9 19.2 34.5 19.4 34.1L17.3 34.2Z" fill="#2D3277"/>
<path d="M11.5 36.2H9.80001V31.8C9.90001 31.2 9.40001 30.6 8.80001 30.5H8.50001C7.80001 30.5 7.20001 31 7.20001 31.7V36.1H5.40001V31.7C5.50001 31.1 5.00001 30.5 4.40001 30.4H4.10001C3.40001 30.4 2.80001 30.9 2.80001 31.6V36.1H1.10001V31.8C1.00001 30.1 2.30001 28.7 3.90001 28.6H4.10001C4.90001 28.6 5.80001 28.9 6.30001 29.6C6.80001 29 7.60001 28.6 8.50001 28.6C10.1 28.5 11.4 29.8 11.5 31.4C11.5 31.5 11.5 31.7 11.5 31.8V36.2Z" fill="#2D3277"/>
<path d="M44.5 11C44.5 5 37 0 27.7 0C18.4 0 10.9 5 10.9 11V11.6C10.9 18 17.4 23.2 27.7 23.2C38 23.2 44.6 18 44.6 11.6V11H44.5Z" fill="#2D3277"/>
<path d="M43.9 11C43.9 16.7 36.7 21.2999 27.7 21.2999C18.7 21.2999 11.6 16.7 11.6 11C11.6 5.29995 18.8 0.699951 27.8 0.699951C36.8 0.699951 43.9 5.29995 43.9 11Z" fill="#FFE600"/>
<path d="M22.4 7.70002C22.4 7.70002 22.2 7.90002 22.3 8.00002C22.8 8.40002 23.5 8.50002 24.1 8.30002C24.7 8.10002 25.3 7.70002 25.8 7.20002C26.4 6.70002 27 6.30002 27.7 6.00002C28.1 5.90002 28.6 5.90002 29.1 6.00002C29.6 6.20002 30 6.40002 30.4 6.70002C31.5 7.50002 36 11.4 36.7 12.1C39 11.1 41.4 10.3 43.8 9.80002C43.4 7.70002 42.2 5.80002 40.5 4.50002C37.7 5.80002 34.5 5.90002 31.7 4.60002C30.7 4.10002 29.5 3.90002 28.4 3.90002C26.6 3.90002 24.9 4.70002 23.8 6.10002L22.4 7.70002Z" fill="white"/>
<path d="M36.5 12.6C36.5 12.6 31.3 7.99995 30.1 7.19995C29.7 6.79995 29.2 6.59995 28.7 6.49995C28.5 6.49995 28.2 6.49995 28 6.59995C27.3 6.89995 26.7 7.19995 26.1 7.69995C25.6 8.19995 24.9 8.59995 24.3 8.79995C23.6 8.99995 22.9 8.79995 22.3 8.49995C22.1 8.39995 22 8.29995 21.9 8.09995C21.8 7.89995 21.9 7.59995 22.1 7.39995L23.5 5.89995L24 5.39995C23.5 5.49995 23.1 5.59995 22.7 5.69995C22.2 5.79995 21.7 5.89995 21.2 5.89995C20.7 5.89995 20.1 5.79995 19.6 5.59995C18.2 5.29995 16.8 4.79995 15.5 4.19995C13.6 5.49995 12.3 7.39995 11.7 9.69995C12 9.79995 12.5 9.89995 12.7 9.89995C17.3 10.9 18.7 12 19 12.2C19.3 11.9 19.7 11.7 20.1 11.7C20.6 11.7 21 11.9 21.3 12.3C21.6 12 22 11.9 22.4 11.9C22.6 11.9 22.9 11.9 23.1 12C23.5 12.1 23.9 12.4 24 12.9C24.2 12.8 24.4 12.8 24.6 12.8C24.9 12.8 25.1 12.9 25.4 13C26.1 13.3 26.5 14.1 26.3 14.8H26.5C27.5 14.8 28.3 15.6 28.3 16.6C28.3 16.9 28.2 17.2 28.1 17.5C28.6 17.8 29.1 17.9 29.7 17.9C30.2 17.8 30.4 17.7 30.5 17.6C30.6 17.5 30.6 17.5 30.5 17.4L29.1 16C29.1 16 28.9 15.8 29 15.7C29.1 15.6 29.2 15.7 29.3 15.8C30 16.4 30.7 17.2 30.7 17.2C30.8 17.3 30.9 17.4 31 17.4C31.4 17.4 31.7 17.4 32 17.2C32.1 17.1 32.2 17.1 32.2 17C32.4 16.7 32.4 16.4 32.2 16.1L30.7 14.4C30.7 14.4 30.5 14.2 30.5 14.1C30.5 14 30.7 14.1 30.8 14.2C31.3 14.6 32 15.3 32.6 15.9C33 16.2 33.6 16.2 34 15.9C34.4 15.7 34.6 15.3 34.5 14.9C34.5 14.7 34.4 14.4 34.2 14.3L32.2 12.2C32.2 12.2 32 12 32.1 11.9C32.2 11.8 32.3 11.9 32.4 12C33.1 12.6 34.8 14.2 34.8 14.2C35.2 14.5 35.8 14.5 36.2 14.2C36.5 14.1 36.7 13.8 36.7 13.5C37 13.1 36.8 12.8 36.5 12.6Z" fill="white"/>
<path d="M26.5 15.2C26.3 15.2 26 15.3 25.8 15.4V15.2C25.8 15.1 26.3 13.8 25.2 13.4C24.7 13.1 24.2 13.2 23.8 13.6H23.7C23.7 13.1 23.4 12.7 22.9 12.5C22.2 12.3 21.5 12.5 21.1 13.1C21 12.5 20.5 12 19.8 12.1C19.1 12.2 18.7 12.7 18.8 13.4C18.9 14 19.3 14.4 19.9 14.4C20.2 14.4 20.5 14.3 20.7 14.1C20.5 14.8 20.9 15.5 21.6 15.8C22 15.9 22.4 15.9 22.7 15.6C22.8 15.5 22.8 15.6 22.8 15.6C22.8 16.1 23.1 16.6 23.6 16.7C24 16.9 24.5 16.8 24.8 16.5C24.9 16.4 25 16.4 25 16.6C25 17.4 25.7 18 26.4 18C27.1 18 27.8 17.3 27.8 16.6C27.9 15.8 27.3 15.2 26.5 15.2Z" fill="white"/>
<path d="M36.7 12.1C35.1 10.7 31.4 7.50002 30.4 6.80002C30 6.50002 29.6 6.20002 29.1 6.10002C28.9 6.00002 28.7 6.00002 28.5 6.00002C28.2 6.00002 27.9 6.00002 27.7 6.10002C27 6.40002 26.4 6.80002 25.8 7.30002C25.3 7.70002 24.8 8.10002 24.2 8.30002C24 8.30002 23.8 8.40002 23.6 8.40002C23.2 8.50002 22.8 8.40002 22.4 8.10002C22.4 8.00002 22.4 8.00002 22.5 7.90002L23.9 6.40002C25 5.00002 26.6 4.10002 28.4 4.10002H28.5C29.6 4.20002 30.7 4.40002 31.7 4.90002C33 5.50002 34.5 5.90002 36 5.90002C37.6 5.90002 39.2 5.50002 40.7 4.80002C40.5 4.70002 40.3 4.50002 40.1 4.30002C38.8 4.90002 37.4 5.20002 36 5.20002C34.6 5.20002 33.2 4.80002 32 4.20002C30.9 3.70002 29.8 3.40002 28.6 3.40002H28.5C27.1 3.40002 25.7 3.80002 24.6 4.80002C23.9 4.90002 23.3 5.00002 22.7 5.20002C22.3 5.30002 21.8 5.40002 21.3 5.40002H20.8C19.1 5.10002 17.5 4.70002 15.9 4.00002L15.3 4.40002C17 5.10002 18.8 5.60002 20.6 6.00002H21.3C21.8 6.00002 22.3 5.90002 22.8 5.70002C23.1 5.60002 23.4 5.50002 23.8 5.50002L23.5 5.80002L22 7.40002C21.8 7.60002 21.7 7.90002 21.8 8.20002C21.9 8.40002 22 8.50002 22.2 8.60002C22.7 8.90002 23.2 9.00002 23.7 9.00002C23.9 9.00002 24.1 9.00002 24.3 8.90002C25 8.60002 25.6 8.20002 26.2 7.70002C26.8 7.20002 27.4 6.80002 28 6.60002C28.2 6.60002 28.4 6.50002 28.6 6.50002H28.7C29.2 6.60002 29.7 6.80002 30.1 7.20002C31.3 8.10002 36.5 12.6 36.5 12.6C36.7 12.8 36.8 13.1 36.8 13.4C36.8 13.7 36.6 13.9 36.4 14.1C36.2 14.2 36 14.3 35.7 14.3C35.5 14.3 35.3 14.2 35.1 14.1L32.7 11.9C32.6 11.8 32.5 11.7 32.4 11.7C32.3 11.7 32.3 11.7 32.2 11.8C32.1 11.9 32.2 12.1 32.4 12.2L34.4 14.3C34.5 14.5 34.6 14.7 34.7 14.9C34.7 15.3 34.5 15.6 34.2 15.8C33.9 16 33.6 16 33.4 16C33.2 16 33 15.9 32.8 15.8L32.6 15.5C32.1 15 31.6 14.5 31.1 14.1C31 14 30.9 13.9 30.8 13.9C30.7 13.9 30.7 13.9 30.7 14C30.7 14.1 30.7 14.2 30.7 14.3L30.8 14.4L32.3 16.1C32.5 16.3 32.5 16.6 32.3 16.8V16.9L32.2 17C32 17.2 31.7 17.3 31.5 17.2H31.3C31.2 17.2 31.1 17.1 31 17.1C30.5 16.6 30 16.2 29.5 15.7C29.4 15.6 29.3 15.6 29.2 15.6C29.1 15.6 29.1 15.6 29.1 15.7C29 15.8 29.2 16.1 29.2 16.1L30.5 17.5V17.6C30.5 17.7 30.3 17.8 29.8 17.9H29.6C29.2 17.9 28.7 17.7 28.3 17.5C28.4 17.2 28.5 17 28.5 16.7C28.5 15.7 27.6 14.8 26.6 14.8H26.5C26.6 14 26.2 13.3 25.5 13C25.2 12.9 25 12.8 24.7 12.8C24.5 12.8 24.3 12.8 24.1 12.9C23.9 12.5 23.5 12.2 23.1 12.1C22.9 12 22.6 12 22.4 12C22 12 21.6 12.1 21.3 12.4C20.7 11.7 19.7 11.6 19 12.2L18.9 12.3C18.5 12 16.9 11 12.7 10C12.4 9.90002 12 9.80002 11.7 9.70002C11.7 9.90002 11.6 10.2 11.6 10.4L12.6 10.6C16.9 11.6 18.4 12.6 18.6 12.7C18.5 12.9 18.5 13.1 18.5 13.3C18.5 14.2 19.2 14.9 20.1 14.9C20.2 14.9 20.3 14.9 20.4 14.9C20.5 15.6 21 16.1 21.7 16.3C21.9 16.4 22.1 16.4 22.3 16.4C22.4 16.4 22.6 16.4 22.7 16.4C22.9 16.9 23.2 17.2 23.7 17.4C23.9 17.5 24.1 17.5 24.3 17.5C24.5 17.5 24.6 17.5 24.8 17.4C25.1 18.1 25.8 18.6 26.6 18.6C27.1 18.6 27.6 18.4 28 18C28.5 18.3 29 18.5 29.6 18.5H29.8C30.2 18.5 30.6 18.3 30.9 18C30.9 18 30.9 17.9 31 17.9C31.2 17.9 31.4 18 31.5 18C31.9 18 32.3 17.9 32.6 17.6C32.9 17.4 33.2 17.1 33.2 16.7C33.3 16.7 33.4 16.7 33.5 16.7C33.9 16.7 34.3 16.6 34.6 16.3C35.1 16 35.4 15.5 35.4 14.9C35.5 14.9 35.6 14.9 35.8 14.9C36.2 14.9 36.5 14.8 36.8 14.6C37.3 14.4 37.6 13.9 37.6 13.4C37.6 13.1 37.5 12.8 37.4 12.5C39.6 11.6 41.8 10.9 44.1 10.4C44.1 10.2 44.1 9.90002 44 9.70002C41.4 10.3 39 11.1 36.7 12.1ZM26.5 18C25.8 18 25.2 17.4 25.2 16.7C25.2 16.6 25.2 16.5 25.1 16.5C25 16.5 25 16.5 24.9 16.6C24.7 16.8 24.5 16.9 24.3 16.9C24.2 16.9 24 16.9 23.9 16.8C23.2 16.5 23.1 16 23.2 15.8V15.7C23.1 15.7 23.1 15.7 23.1 15.8C22.9 15.9 22.7 16 22.5 16C22.4 16 22.3 16 22.1 15.9C21.4 15.7 21 15 21.2 14.3V14.2L21 14H20.8C20.6 14.2 20.4 14.3 20.1 14.3C19.5 14.3 19.1 13.9 19.1 13.3C19.1 12.7 19.5 12.3 20.1 12.3C20.6 12.3 21 12.7 21.1 13.2V13.5L21.2 13.3C21.5 12.9 21.9 12.6 22.4 12.7C22.6 12.7 22.7 12.7 22.8 12.8C23.2 12.9 23.5 13.3 23.5 13.8C23.5 13.9 23.6 13.9 23.6 13.9C23.6 13.9 23.7 13.9 23.7 13.8C23.9 13.6 24.2 13.5 24.5 13.5C24.7 13.5 24.9 13.5 25.1 13.6C26.1 14 25.6 15.2 25.6 15.3C25.5 15.5 25.5 15.6 25.6 15.7H25.8C26 15.6 26.1 15.6 26.3 15.6C27 15.6 27.6 16.2 27.6 16.9C27.7 17.4 27.2 18 26.5 18Z" fill="#2D3277"/>
</g>
<defs>
<clipPath id="clip0_7_165">
<rect width="55.2" height="48.5" fill="white"/>
</clipPath>
</defs>
</svg>
