<svg width="318" height="64" viewBox="0 0 318 64" fill="none" xmlns="http://www.w3.org/2000/svg">
<g clip-path="url(#clip0_2_88)">
<path d="M10.397 42.2065C10.397 45.8857 11.2037 48.7104 12.2582 50.4193C13.6406 52.6576 15.7026 53.6059 17.8048 53.6059C20.5162 53.6059 22.9966 52.9324 27.7767 46.3146C31.6061 41.0103 36.1184 33.5648 39.1545 28.8972L44.2961 20.9893C47.8678 15.4974 52.0018 9.39225 56.7417 5.25403C60.6113 1.87644 64.7855 0 68.9865 0C76.0395 0 82.7577 4.09131 87.8993 11.7646C93.5263 20.1684 96.2578 30.7535 96.2578 41.6771C96.2578 48.1709 94.9791 52.9424 92.8033 56.712C90.7011 60.3577 86.6039 64 79.7116 64V53.6059C85.6131 53.6059 87.0859 48.1776 87.0859 41.9652C87.0859 33.1125 85.0239 23.288 80.4815 16.2681C77.258 11.2888 73.0804 8.24628 68.4844 8.24628C63.5135 8.24628 59.5134 11.9992 55.0178 18.6907C52.6278 22.2459 50.1742 26.5784 47.4192 31.4672L44.3865 36.8452C38.2942 47.6582 36.7511 50.121 33.705 54.1856C28.3659 61.3026 23.8067 64 17.8048 64C10.6849 64 6.18264 60.9139 3.39426 56.263C1.11803 52.4733 0 47.5007 0 41.8346L10.397 42.2065Z" fill="#0081FB"/>
<path d="M8.19778 12.4984C12.9645 5.14346 19.8434 0 27.7332 0C32.3024 0 36.8448 1.35372 41.5881 5.23058C46.7766 9.46932 52.3065 16.449 59.2054 27.9523L61.6792 32.0804C67.6509 42.039 71.0485 47.1623 73.0369 49.5782C75.5943 52.681 77.3852 53.6059 79.7116 53.6059C85.6131 53.6059 87.0859 48.1776 87.0859 41.9652L96.2578 41.6771C96.2578 48.1709 94.9791 52.9424 92.8033 56.712C90.7011 60.3577 86.6039 64 79.7116 64C75.4269 64 71.631 63.0685 67.4333 59.1045C64.2065 56.062 60.4339 50.6572 57.5317 45.7985L48.8988 31.3634C44.5673 24.119 40.5939 18.7175 38.2942 16.2714C35.8205 13.641 32.6405 10.4645 27.5658 10.4645C23.4586 10.4645 19.9706 13.3495 17.0517 17.7625L8.19778 12.4984Z" fill="url(#paint0_linear_2_88)"/>
<path d="M27.5658 10.4645C23.4586 10.4645 19.9706 13.3495 17.0516 17.7625C12.9243 23.9983 10.397 33.2867 10.397 42.2065C10.397 45.8857 11.2037 48.7104 12.2582 50.4193L3.39426 56.263C1.11803 52.4733 0 47.5007 0 41.8346C0 31.5309 2.8252 20.7916 8.19778 12.4984C12.9645 5.14346 19.8434 0 27.7332 0L27.5658 10.4645Z" fill="url(#paint1_linear_2_88)"/>
<path d="M116.469 2.02387H128.497L148.946 39.0568L169.398 2.02387H181.165V62.8741H171.353V16.2379L153.418 48.5328H144.213L126.281 16.2379V62.8741H116.469V2.02387ZM211.907 24.712C204.871 24.712 200.633 30.013 199.619 36.5772H223.499C223.007 29.8153 219.111 24.712 211.907 24.712ZM189.891 40.3166C189.891 26.5047 198.809 16.4524 212.078 16.4524C225.129 16.4524 232.922 26.3774 232.922 41.0538V43.7512H199.619C200.8 50.8917 205.534 55.7035 213.166 55.7035C219.255 55.7035 223.061 53.8438 226.669 50.4427L231.881 56.8327C226.97 61.3529 220.724 63.9598 212.818 63.9598C198.454 63.9598 189.891 53.4752 189.891 40.3166V40.3166ZM244.819 25.5832H235.787V17.5414H244.819V4.24209H254.285V17.5414H268.006V25.5832H254.285V45.9661C254.285 52.9257 256.508 55.3985 261.971 55.3985C264.465 55.3985 265.894 55.1841 268.006 54.8323V62.787C265.375 63.5309 262.864 63.8727 260.146 63.8727C249.927 63.8727 244.819 58.2836 244.819 47.0953V25.5832ZM307.867 33.404C305.966 28.599 301.724 25.0605 295.492 25.0605C287.391 25.0605 282.206 30.8138 282.206 40.186C282.206 49.3236 286.979 55.355 295.103 55.355C301.49 55.355 306.049 51.6356 307.867 47.0082V33.404ZM317.333 62.8741H308.041V56.5278C305.443 60.2639 300.717 63.9598 293.061 63.9598C280.75 63.9598 272.522 53.6427 272.522 40.186C272.522 26.6019 280.947 16.4524 293.584 16.4524C299.83 16.4524 304.73 18.952 308.041 23.365V17.5414H317.333V62.8741Z" fill="#192830"/>
</g>
<defs>
<linearGradient id="paint0_linear_2_88" x1="20.4191" y1="39.2042" x2="86.698" y2="42.5482" gradientUnits="userSpaceOnUse">
<stop stop-color="#0064E1"/>
<stop offset="0.4" stop-color="#0064E1"/>
<stop offset="0.83" stop-color="#0073EE"/>
<stop offset="1" stop-color="#0082FB"/>
</linearGradient>
<linearGradient id="paint1_linear_2_88" x1="15.0633" y1="46.5759" x2="15.0633" y2="22.1152" gradientUnits="userSpaceOnUse">
<stop stop-color="#0082FB"/>
<stop offset="1" stop-color="#0064E0"/>
</linearGradient>
<clipPath id="clip0_2_88">
<rect width="317.333" height="64" fill="white"/>
</clipPath>
</defs>
</svg>
