<svg width="89" height="120" viewBox="0 0 89 120" fill="none" xmlns="http://www.w3.org/2000/svg">
<path d="M42.0811 0H0V42.0811H42.0811V0Z" fill="#F44E24"/>
<path d="M88.4906 0H46.4095V42.0811H88.4906V0Z" fill="#81B900"/>
<path d="M42.0811 46.4094H0V88.4905H42.0811V46.4094Z" fill="#01A4EF"/>
<path d="M88.4906 46.4094H46.4095V88.4905H88.4906V46.4094Z" fill="#FFB902"/>
<path d="M2.588 119.717H0.0722046V104.09H3.89905L7.97406 114.31L8.53202 115.947L9.28495 113.866L13.289 104.09H16.9741V119.717H14.2811V109.866C14.2811 108.789 14.3919 106.934 14.3919 106.934L14.0508 108.165L9.35585 119.717H7.58417L2.87147 108.271L2.49499 106.952C2.49499 106.952 2.60074 108.394 2.588 109.547V119.717Z" fill="#737373"/>
<path d="M19.5254 119.717V108.519H22.1475V119.717H19.5254Z" fill="#737373"/>
<path d="M19.2773 105.295C19.2773 104.443 19.8687 103.771 20.8562 103.771C21.7474 103.771 22.4664 104.403 22.4664 105.26C22.4664 106.286 21.6661 106.783 20.857 106.783C20.0275 106.783 19.2773 106.308 19.2773 105.295Z" fill="#737373"/>
<path d="M32.7422 116.776V119.22C32.7422 119.22 31.7223 119.991 29.5886 119.991C25.7497 119.991 23.9546 117.302 23.9546 114.366C23.9546 110.681 26.2716 108.236 29.9783 108.236C31.6747 108.236 32.7422 108.803 32.7422 108.803V111.425C32.7422 111.425 31.7308 110.433 30.0846 110.433C27.862 110.433 26.683 112.192 26.683 114.153C26.683 116.29 27.8714 117.803 30.0492 117.803C31.6821 117.696 32.7422 116.776 32.7422 116.776Z" fill="#737373"/>
<path d="M37.3485 119.717H34.7264V108.519H37.3485V110.504C37.3485 110.504 37.9653 108.307 40.1832 108.307C40.8484 108.307 41.2463 108.484 41.2463 108.484V111.177C41.2463 111.177 40.6526 110.716 39.6872 110.716C37.7629 110.716 37.3485 112.962 37.3485 113.87V119.717Z" fill="#737373"/>
<path d="M47.3054 108.236C43.8757 108.236 41.3526 110.219 41.3526 114.189C41.3526 117.936 43.7024 119.989 47.0574 119.989C50.5433 119.989 52.904 117.774 52.904 113.906C52.904 110.622 50.9873 108.236 47.3054 108.236ZM47.0441 110.433C47.072 110.433 47.1001 110.433 47.1283 110.433C48.9564 110.433 50.1401 111.537 50.1401 114.154C50.1401 116.489 49.1316 117.804 47.1991 117.804C44.8809 117.804 44.1164 115.959 44.1164 114.154C44.1164 111.747 45.2866 110.473 47.0441 110.433Z" fill="#737373"/>
<path d="M68.6743 108.236C65.2445 108.236 62.7214 110.219 62.7214 114.189C62.7214 117.936 65.0712 119.989 68.4262 119.989C71.9121 119.989 74.2728 117.774 74.2728 113.906C74.2728 110.622 72.3561 108.236 68.6743 108.236ZM68.414 110.433C68.4419 110.433 68.4689 110.433 68.4971 110.433C70.3252 110.433 71.509 111.537 71.509 114.154C71.509 116.489 70.5004 117.804 68.5679 117.804C66.2497 117.804 65.4852 115.959 65.4852 114.154C65.4852 111.747 66.6565 110.473 68.414 110.433V110.433Z" fill="#737373"/>
<path d="M54.1442 119.362V116.74C54.1442 116.74 55.4671 117.874 57.2624 117.874C58.2604 117.874 58.9403 117.577 58.9403 116.74C58.9403 114.738 54.1442 115.538 54.1442 111.708C54.1442 109.672 55.8499 108.236 58.4317 108.236C59.7101 108.236 61.0183 108.697 61.0183 108.697V111.187C61.0183 111.187 59.8765 110.345 58.3765 110.345C57.347 110.345 56.8372 110.811 56.8372 111.465C56.8372 112.412 57.6028 112.65 58.5202 113.051C59.8912 113.65 61.6009 114.297 61.6009 116.483C61.6009 118.624 59.8365 120 57.1915 120C55.4321 120 54.1442 119.362 54.1442 119.362V119.362Z" fill="#737373"/>
<path d="M79.0187 119.717H76.3611V110.645H74.5186V108.519H76.3611V106.996C76.3611 104.474 78.1195 102.921 80.4715 102.921C81.441 102.921 81.9597 103.134 81.9597 103.134V105.437C81.9597 105.437 81.3226 105.118 80.7195 105.118C79.3648 105.118 79.0187 106.145 79.0187 107.244V108.519H82.9873V105.968L85.6448 105.168V108.519H88.3023V110.645H85.6448V115.925C85.6448 117.06 85.9042 117.803 87.0976 117.803C87.8263 117.803 88.3023 117.378 88.3023 117.378V119.61C88.3023 119.61 87.3768 120 86.3535 120C84.3209 120 82.9873 119.095 82.9873 116.315V110.645H79.0187V119.717Z" fill="#737373"/>
</svg>
