<svg width="64" height="64" viewBox="0 0 64 64" fill="none" xmlns="http://www.w3.org/2000/svg">
<g clip-path="url(#clip0_2_98)">
<path d="M63.997 45.16C63.997 45.946 63.687 46.7 63.131 47.255L49.861 60.525C49.521 60.862 49.013 60.963 48.561 60.78C48.109 60.597 47.831 60.166 47.831 59.688V29.953L63.808 14.065H64L63.997 45.16Z" fill="#E34B5F"/>
<path d="M53.407 3.475C52.944 3.012 52.194 3.012 51.731 3.475L32 23.205H31.726V45.475L32 46.06L63.996 14.063L53.407 3.475Z" fill="#E7CE9C"/>
<path d="M2.40412e-06 45.16C-0.000997596 45.946 0.310002 46.7 0.866002 47.256L14.136 60.526C14.476 60.863 14.984 60.964 15.436 60.781C15.888 60.598 16.166 60.167 16.166 59.689V29.953L0.184002 14.065H2.40412e-06V45.16Z" fill="#1E7889"/>
<path d="M12.266 3.475C11.803 3.012 11.053 3.012 10.59 3.475L0 14.065L31.998 46.065V23.207L12.266 3.475Z" fill="#97BAA6"/>
</g>
<defs>
<clipPath id="clip0_2_98">
<rect width="64" height="64" fill="white"/>
</clipPath>
</defs>
</svg>
