<svg xmlns="http://www.w3.org/2000/svg" xmlns:xlink="http://www.w3.org/1999/xlink" viewBox="155.42 319 1609.22 421.98"><defs><style>.cls-1{fill:url(#Unbenannter_Verlauf_35);}.cls-2{fill:url(#Unbenannter_Verlauf_35-2);}.cls-3{fill:url(#Unbenannter_Verlauf_35-3);}.cls-4{fill:#fff;}</style><linearGradient id="Unbenannter_Verlauf_35" x1="401.34" y1="634.55" x2="480.01" y2="340.97" gradientUnits="userSpaceOnUse"><stop offset="0" stop-color="#ededed"/><stop offset="0" stop-color="#e3e3e3"/><stop offset="1" stop-color="#fff"/></linearGradient><linearGradient id="Unbenannter_Verlauf_35-2" x1="238.25" y1="488.76" x2="452.15" y2="702.66" xlink:href="#Unbenannter_Verlauf_35"/><linearGradient id="Unbenannter_Verlauf_35-3" x1="443.62" y1="419.96" x2="152.43" y2="497.99" xlink:href="#Unbenannter_Verlauf_35"/></defs><title>logo_2020</title><g id="Ebene_1" data-name="Ebene 1"><path class="cls-1" d="M566.29,447.67a270.86,270.86,0,0,0-7.4-43.86c-1.11-2-2.31-4-3.53-6a273.22,273.22,0,0,0-34.65-28.66,277,277,0,0,0-105.26-44.87,280.7,280.7,0,0,0-48.67-5.2c-1.78,0-3.59-.06-5.4-.06s-3.62,0-5.4.06c1.84.78,3.62,1.61,5.4,2.48a164,164,0,0,1,16.42,9.1,166.82,166.82,0,0,1,77.59,126.37c.06.81.14,1.62.19,2.42,0,.17,0,.31,0,.45.06.69.11,1.42.14,2.11.22,3.34.31,6.71.31,10.11a165.73,165.73,0,0,1-12.8,64.14c0,.11-.09.2-.11.31a164,164,0,0,1-8.33,17.06c-.33.58-.66,1.17-1,1.73s-.53.94-.83,1.41a83.33,83.33,0,0,1-71.14,40.55h-.94a83.33,83.33,0,0,1-71.14-40.55,167.12,167.12,0,0,0,63.46,61.65c2.36,1.19,4.76,2.31,7.18,3.34a16.31,16.31,0,0,0,1.5.66c3.95,1.67,8,3.21,12.11,4.54a157.06,157.06,0,0,0,48.67,7.71,155.14,155.14,0,0,0,84.8-25c1.19-.75,2.36-1.5,3.53-2.31,1.78-1.22,3.54-2.48,5.23-3.76a150.2,150.2,0,0,0,12-10c2.79-2.56,5.52-5.23,8.1-8A152.91,152.91,0,0,0,550,569a277.14,277.14,0,0,0,17.34-96.84Q567.38,459.76,566.29,447.67Z"/><path class="cls-2" d="M527.89,610a167.67,167.67,0,0,1-94.21,29.14,166.08,166.08,0,0,1-71.85-16.23,17.52,17.52,0,0,0-.89-.42c-.34-.16-.67-.33-1-.5-2.28-1.11-4.53-2.28-6.73-3.53a167.12,167.12,0,0,1-63.46-61.65c-.3-.47-.58-.94-.83-1.41s-.67-1.15-1-1.73a83.42,83.42,0,0,1,.89-81.1,22.74,22.74,0,0,1,1.42-2.39,83.31,83.31,0,0,1,71.1-39.8c-1.67,0-3.37,0-5,.09-1.25,0-2.47.08-3.73.16l-.77,0A154.82,154.82,0,0,0,326,434.42a152.9,152.9,0,0,0-31.64,11c-1.31.61-2.59,1.25-3.87,1.86a157.57,157.57,0,0,0-22.63,14.11l-.83.64a155.28,155.28,0,0,0-60.28,143.19c.58,4.53,1.36,9,2.34,13.47a151,151,0,0,0,10.3,31,278.86,278.86,0,0,0,96.84,74.81,271.6,271.6,0,0,0,45.17,16.45,271.6,271.6,0,0,0,45.17-16.45,279.17,279.17,0,0,0,97-74.92s0,0,0-.05a276.51,276.51,0,0,0,23.76-33.46c1.92-3.14,3.76-6.31,5.51-9.54Q530.4,608.32,527.89,610Z"/><path class="cls-3" d="M453.61,467.4c-.2-2.54-.45-5-.78-7.52-.08-.8-.2-1.61-.31-2.42A156,156,0,0,0,366.06,339.6c-.12,0-.2-.11-.34-.16h0c-1.72-.84-3.47-1.65-5.26-2.4a148.88,148.88,0,0,0-16.11-6A154.31,154.31,0,0,0,307,324.41a278.6,278.6,0,0,0-142.21,76,271.5,271.5,0,0,0-8.27,47.23q-1.08,12.1-1.09,24.49a277.54,277.54,0,0,0,19.37,102.16,271.46,271.46,0,0,0,15.2,32.2c1.75,3.23,3.59,6.4,5.51,9.54-.25-2-.45-4-.58-6-.31-4.18-.48-8.41-.48-12.67,0-.67,0-1.36,0-2a166.77,166.77,0,0,1,72.33-135.56h0a4.73,4.73,0,0,1,.39-.28c.3-.22.64-.44,1-.66l.92-.62a165.8,165.8,0,0,1,82.77-27.55l.77,0c1.26-.08,2.48-.14,3.73-.16,1.67-.06,3.37-.09,5-.09a83.34,83.34,0,0,1,71.11,39.8,24.6,24.6,0,0,1,1.42,2.39,83.49,83.49,0,0,1,.89,81.1c-.31.58-.64,1.14-1,1.73.34-.56.67-1.15,1-1.73a164,164,0,0,0,8.33-17.06c0-.11.08-.2.11-.31a153.49,153.49,0,0,0,10.35-45.16v-.37c.31-3.75.42-7.54.42-11.35Q454,473.36,453.61,467.4Z"/><path class="cls-4" d="M665.73,466.91h27v22.2c11.1-14.4,28.2-25.5,47.4-25.5v27.3a42.49,42.49,0,0,0-9.3-.9c-13.5,0-31.8,10.2-38.1,21v100.8h-27Z"/><path class="cls-4" d="M830.73,463.31c43.5,0,70.5,33.9,70.5,78.3v6.6H786.63c2.1,24.6,20.1,45,49.2,45,15.3,0,32.1-6,42.9-17.1l12.6,17.7c-14.4,14.1-34.8,21.6-58.2,21.6-43.2,0-75-30.6-75-76.2C758.13,497.21,788.43,463.31,830.73,463.31Zm-44.4,65.4h88.5c-.6-19.2-13.5-43.2-44.1-43.2C801.63,485.51,787.83,508.91,786.33,528.71Z"/><path class="cls-4" d="M941.73,490.61h-24v-23.7h24v-9.6c0-31.2,18.3-48.6,44.1-48.6,9.3,0,17.4,1.8,23.7,5.4l-6.3,20.1a25.75,25.75,0,0,0-12.9-3.3c-13.5,0-21.6,9-21.6,26.4v9.6h29.4v23.7h-29.4v121.2h-27Z"/><path class="cls-4" d="M1121.72,592c-11.1,12-29.4,23.4-51.6,23.4-30.9,0-46.2-15.6-46.2-46.2V466.91h27v93.3c0,24,12,31.2,30.6,31.2,16.8,0,32.1-9.6,40.2-20.4V466.91h27v144.9h-27Z"/><path class="cls-4" d="M1191.62,466.91h27v22.2c11.1-14.4,28.2-25.5,47.4-25.5v27.3a42.49,42.49,0,0,0-9.3-.9c-13.5,0-31.8,10.2-38.1,21v100.8h-27Z"/><path class="cls-4" d="M1293,411.71h27v76.2c11.4-15.6,28.5-24.6,47.4-24.6,37.8,0,64.5,29.7,64.5,76.2,0,47.4-27,75.9-64.5,75.9-19.5,0-36.6-9.9-47.4-24.3v20.7h-27Zm67.2,179.7c27,0,43.8-21.6,43.8-51.9s-16.8-52.2-43.8-52.2c-16.5,0-33,9.9-40.2,21.6v61.5C1327.22,582.11,1343.72,591.41,1360.22,591.41Z"/><path class="cls-4" d="M1530,463.31c43.5,0,70.5,33.9,70.5,78.3v6.6h-114.6c2.1,24.6,20.1,45,49.2,45,15.3,0,32.1-6,42.9-17.1l12.6,17.7c-14.4,14.1-34.8,21.6-58.2,21.6-43.2,0-75-30.6-75-76.2C1457.42,497.21,1487.72,463.31,1530,463.31Zm-44.4,65.4h88.5c-.6-19.2-13.5-43.2-44.1-43.2C1500.92,485.51,1487.12,508.91,1485.62,528.71Z"/><path class="cls-4" d="M1737.62,591.11c-10.8,14.4-28.2,24.3-47.4,24.3-37.8,0-64.8-28.5-64.8-75.9,0-46.5,27-76.2,64.8-76.2,18.6,0,35.7,9,47.4,24.6v-76.2h27v200.1h-27Zm0-82.5c-7.5-11.7-23.7-21.3-40.2-21.3-27,0-43.8,21.9-43.8,52.2,0,30,16.8,51.9,43.8,51.9,16.5,0,32.7-9.3,40.2-21Z"/></g></svg>