<svg width="202" height="64" viewBox="0 0 202 64" fill="none" xmlns="http://www.w3.org/2000/svg">
<path d="M32.5911 58.0293L29.6836 50.5382L57.7849 51.9831L56.5231 63.9724L32.5911 58.0293ZM39.3245 0L0 18.5764L6.08178 46.5689H14.1031L12.7178 26.5449L13.9485 26.1636L18.7716 46.5689H27.1049L26.7965 22.1778L28.0276 21.796L32.2427 46.5689H41.0658L43.1471 17.1067L44.3774 16.7244L46.5609 46.5689H58.228L62.3347 5.59867L39.3245 0ZM160.77 60.9391L160.689 58.6036L168.762 58.5084L168.836 55.9631L160.593 55.8609L160.511 53.4964L171.371 53.2418L171.46 50.4498H156.809L156.372 64H171.73L171.622 61.2022L160.77 60.9391ZM87.7178 55.9569L87.5454 58.4924L91.6201 58.6284L91.5685 61.2022L83.04 60.952L83.4116 53.5187L95.1378 53.2476L94.9685 50.4498H79.8218L78.4636 64H95.7214L95.2743 55.8258L87.7178 55.9569ZM194.616 57.0058L183.422 55.1133L183.471 53.6467L194.179 53.2471L193.909 50.4498H180.144L179.44 57.4729L190.819 59.4516L190.871 60.7422L179.031 61.2022L178.741 64H195.312L194.616 57.0058ZM148.941 64L147.582 50.4498H143.683L138.081 56.9089L132.479 50.4498H128.58L127.221 64H131.802L132.241 55.2093L138.081 61.2022L143.921 55.2093L144.36 64H148.941ZM129.689 0.828H120.521L119.686 42.7324H130.763L129.689 0.828ZM158.097 33.6178L147.981 33.944L147.645 9.29956L158.225 9.61956L158.097 33.6178ZM166.962 0.846667H138.379L137.266 42.7324H168.992L166.962 0.846667ZM201.143 9.99867L200.122 0.828H171.96L172.198 8.99689L181.205 9.30889L182.129 42.7329H193.228L189.908 9.60978L201.143 9.99867ZM92.2676 9.40044L101.102 9.10489L102.109 17.4538L91.9121 22.2702L92.2676 9.40044ZM102.589 42.7324H114.62L106.779 23.9253L113.037 20.5067L108.761 0.828H78.0485L77.0378 9.90933L83.908 9.68L80.5952 42.7324H91.3476L91.6383 32.1964L99.3858 27.964L102.589 42.7324ZM108.441 57.8929L109.372 53.4596L113.845 53.2573L114.78 57.7062L108.441 57.8929ZM116.103 64H120.741L117.071 50.4489H106.188L102.519 64H107.157L107.875 60.5813L115.405 60.6787L116.103 64Z" fill="#D22A36"/>
</svg>
