<svg width="124" height="64" viewBox="0 0 124 64" fill="none" xmlns="http://www.w3.org/2000/svg">
<path d="M41.9562 11.1323C56.0573 12.1713 63.9945 8.18051 66.7181 2.9379H81.1156C76.786 15.4567 63.2861 23.3 41.9562 22.2269V11.1323Z" fill="#F4811E"/>
<path fill-rule="evenodd" clip-rule="evenodd" d="M91.5131 22.2352L86.349 29.4897L98.2781 46.9455V22.2352H91.5131ZM55.8084 23.7069L55.8074 46.0614L67.0703 29.3348L61.7874 22.4149C66.2007 21.1972 70.208 19.3133 73.701 16.5784L77.1031 20.8884L83.5604 11.1323H120.257V22.2052H112.004V49.2414H83.5604L76.2811 38.3668L68.7146 49.2414H41.9592V41.8061C40.0362 47.0642 33.9652 50.266 21.9277 50.266C4.0722 50.266 3.20674 43.9544 2.93304 36.7257H17.0538C17.0992 38.8832 17.4639 40.448 18.3293 41.4725C19.2403 42.4981 20.4704 43.0373 22.2923 43.0373C25.1615 43.0373 28.2589 42.2286 28.2589 39.0991C28.2589 38.3978 28.0317 37.805 27.6671 37.3195C25.7998 34.8387 10.0843 33.0044 5.66586 28.4187C3.88942 26.5844 3.34306 23.834 3.34306 21.6217C3.34306 13.0988 9.94793 9.2691 23.1123 9.2691C37.0957 9.2691 40.4059 14.1636 40.5887 22.2011H26.9906C26.8997 20.0435 26.2532 18.3579 25.305 17.5761C24.3889 16.8201 23.5947 16.4699 22.2003 16.4968C19.2857 16.5546 17.7375 17.792 17.7375 19.7884C17.7375 20.3812 17.9194 21.1362 18.3293 21.568C20.4704 23.9951 35.6838 25.722 40.0568 30.3604C40.7508 31.0947 41.4584 32.0532 41.9592 33.3835V24.4124C46.4768 24.5797 51.1783 24.4309 55.8084 23.7069Z" fill="black"/>
<path fill-rule="evenodd" clip-rule="evenodd" d="M9.79612 56.8399H7.2781L8.55881 54.2L9.79612 56.8399ZM4.2406 59.2371H6.10901L6.71522 57.9987H10.3497L10.9374 59.2371H12.971L9.72588 52.9885H7.55497L4.2406 59.2371Z" fill="black"/>
<path fill-rule="evenodd" clip-rule="evenodd" d="M13.9491 59.2371H15.6099V56.874L17.7561 59.2371H20.049L17.6353 56.7531L19.7722 54.893H17.6869L15.6099 56.7438V52.9885H13.9491V59.2371Z" fill="black"/>
<path fill-rule="evenodd" clip-rule="evenodd" d="M20.4569 55.9486H21.5207V57.7911C21.5207 58.8467 22.1962 59.3404 23.4676 59.3404C23.9871 59.3404 24.4282 59.2629 24.5842 59.2371V58.1805C24.3249 58.2156 24.0822 58.2332 23.9262 58.2332C23.2601 58.2332 23.1825 57.913 23.1825 57.3067V55.9486H24.5842V54.893H23.1825V53.4037L21.5207 54.01V54.893H20.4569V55.9486Z" fill="black"/>
<path fill-rule="evenodd" clip-rule="evenodd" d="M26.1829 59.2371H27.8447V54.893H26.1829V59.2371ZM27.9221 52.9885H26.1055V54.2H27.9221V52.9885Z" fill="black"/>
<path fill-rule="evenodd" clip-rule="evenodd" d="M30.9928 56.5713C31.0702 56.121 31.2954 55.6284 32.0659 55.6284C32.6546 55.6284 33.1214 55.8618 33.1389 56.5713H30.9928ZM34.904 57.4709C34.8958 55.775 34.1686 54.7278 32.0483 54.7278C30.56 54.7278 29.2535 55.4549 29.2535 57.1342C29.2535 58.8467 30.5693 59.4013 32.0741 59.4013C33.2773 59.4013 34.463 59.2877 34.809 57.913H33.044C32.9572 58.2063 32.827 58.5007 32.101 58.5007C31.3997 58.5007 31.001 58.1464 30.9669 57.4709H34.904Z" fill="black"/>
<path fill-rule="evenodd" clip-rule="evenodd" d="M36.2457 59.2371H37.9065V57.3243C37.9065 56.3637 38.4952 55.836 39.1789 55.836C39.9318 55.836 40.2344 56.3204 40.2344 57.0124V59.2371H41.8953V56.7614C41.8953 55.6284 41.2993 54.7278 39.715 54.7278C38.9537 54.7278 38.3051 55.0913 37.8723 55.6718H37.8548C37.8548 55.4115 37.8373 55.1523 37.8197 54.893H36.2106C36.2364 55.1863 36.2457 55.5065 36.2457 55.7843V59.2371Z" fill="black"/>
<path fill-rule="evenodd" clip-rule="evenodd" d="M44.9948 56.9514C44.9948 56.277 45.4264 55.7843 46.2321 55.7843C46.9674 55.7843 47.5469 56.2161 47.5469 56.9514C47.5469 57.6362 47.08 58.1196 46.2486 58.1196C45.4615 58.1196 44.9948 57.6186 44.9948 56.9514ZM47.5469 58.6308C47.5469 59.7896 47.0882 60.1098 46.1629 60.1098C45.9284 60.1098 45.7126 60.0933 45.5308 60.0065C45.3573 59.9291 45.2365 59.7814 45.1848 59.5221H43.4197C43.4889 60.2575 43.714 61.0621 46.0844 61.0621C47.9187 61.0621 49.2076 60.621 49.2076 58.5781V55.585C49.2076 55.334 49.2251 55.0655 49.2427 54.893H47.6336C47.6078 55.0831 47.5986 55.3165 47.5986 55.585H47.582C47.1492 55.0314 46.4913 54.7278 45.6259 54.7278C44.2067 54.7278 43.2286 55.5767 43.2286 56.9514C43.2286 58.198 44.1984 59.1751 45.5917 59.1751C46.3271 59.1751 47.1399 58.9169 47.5293 58.2931H47.5469V58.6308Z" fill="black"/>
<path fill-rule="evenodd" clip-rule="evenodd" d="M52.2028 56.5713C52.2803 56.121 52.5065 55.6284 53.2759 55.6284C53.8646 55.6284 54.3314 55.8618 54.349 56.5713H52.2028ZM56.1141 57.4709C56.1059 55.775 55.3787 54.7278 53.2583 54.7278C51.77 54.7278 50.4635 55.4549 50.4635 57.1342C50.4635 58.8467 51.7794 59.4013 53.2853 59.4013C54.4875 59.4013 55.6731 59.2877 56.0191 57.913H54.254C54.1672 58.2063 54.037 58.5007 53.31 58.5007C52.6097 58.5007 52.211 58.1464 52.177 57.4709H56.1141Z" fill="black"/>
<path fill-rule="evenodd" clip-rule="evenodd" d="M57.2915 57.8779C57.3514 58.5182 57.5249 59.4013 59.696 59.4013C60.6565 59.4013 62.3359 59.2629 62.3359 57.9388C62.3359 57.22 61.9806 56.7965 61.0293 56.6405L59.9046 56.4588C59.5493 56.3989 59.1424 56.3204 59.1424 56.0085C59.1424 55.741 59.4976 55.6284 59.7662 55.6284C59.9738 55.6284 60.233 55.6625 60.3539 55.741C60.4582 55.8102 60.545 55.9486 60.5708 56.182H62.2315C62.1975 55.2741 61.6862 54.7278 59.8003 54.7278C58.848 54.7278 57.4289 54.9447 57.4289 56.182C57.4289 56.8564 57.9143 57.2551 58.7447 57.3852L59.8953 57.566C60.233 57.6186 60.6224 57.7219 60.6224 58.0245C60.6224 58.449 60.1039 58.5007 59.7569 58.5007C59.54 58.5007 59.3417 58.4748 59.2115 58.3705C59.0824 58.2672 59.0039 58.1113 59.0039 57.8779H57.2915Z" fill="black"/>
<path fill-rule="evenodd" clip-rule="evenodd" d="M65.2525 56.5713C65.33 56.121 65.5551 55.6284 66.3256 55.6284C66.9143 55.6284 67.3811 55.8618 67.3987 56.5713H65.2525ZM69.1638 57.4709C69.1555 55.775 68.4285 54.7278 66.308 54.7278C64.8198 54.7278 63.5132 55.4549 63.5132 57.1342C63.5132 58.8467 64.8291 59.4013 66.3339 59.4013C67.5371 59.4013 68.7228 59.2877 69.0688 57.913H67.3037C67.217 58.2063 67.0868 58.5007 66.3608 58.5007C65.6594 58.5007 65.2619 58.1464 65.2268 57.4709H69.1638Z" fill="black"/>
<path d="M70.4879 59.2371H72.1497V52.9895H70.4879V59.2371Z" fill="black"/>
<path d="M73.731 59.2371H75.3929V52.9895H73.731V59.2371Z" fill="black"/>
<path fill-rule="evenodd" clip-rule="evenodd" d="M76.7851 57.8779C76.845 58.5182 77.0184 59.4013 79.1904 59.4013C80.151 59.4013 81.8293 59.2629 81.8293 57.9388C81.8293 57.22 81.474 56.7965 80.5228 56.6405L79.3981 56.4588C79.0428 56.3989 78.6368 56.3204 78.6368 56.0085C78.6368 55.741 78.9911 55.6284 79.2597 55.6284C79.4673 55.6284 79.7265 55.6625 79.8473 55.741C79.9517 55.8102 80.0384 55.9486 80.0642 56.182H81.725C81.6909 55.2741 81.1807 54.7278 79.2937 54.7278C78.3425 54.7278 76.9235 54.9447 76.9235 56.182C76.9235 56.8564 77.4078 57.2551 78.2382 57.3852L79.3887 57.566C79.7265 57.6186 80.1159 57.7219 80.1159 58.0245C80.1159 58.449 79.5963 58.5007 79.2503 58.5007C79.0345 58.5007 78.8363 58.4748 78.7061 58.3705C78.576 58.2672 78.4985 58.1113 78.4985 57.8779H76.7851Z" fill="black"/>
<path fill-rule="evenodd" clip-rule="evenodd" d="M86.8035 57.6093C86.7828 58.1722 86.3903 58.449 85.8429 58.449C85.027 58.449 84.6862 57.818 84.6862 57.0557C84.6862 56.2594 85.0993 55.68 85.8429 55.68C86.38 55.68 86.7105 55.8959 86.8035 56.4329H88.5179C88.3629 55.0913 87.0307 54.7278 85.8429 54.7278C84.335 54.7278 82.92 55.3423 82.92 57.0816C82.92 58.8126 84.4487 59.4013 85.7294 59.4013C87.0101 59.4013 88.4146 59.0202 88.5695 57.6093H86.8035Z" fill="black"/>
<path fill-rule="evenodd" clip-rule="evenodd" d="M89.8296 59.2371H91.4821V57.3243C91.4821 56.3638 92.0709 55.836 92.7628 55.836C93.5064 55.836 93.8163 56.3204 93.8163 57.0124V59.2371H95.4791V56.7614C95.4791 55.6284 94.8801 54.7278 93.3206 54.7278C92.5149 54.7278 92.0295 55.0056 91.4821 55.6367V52.9885H89.8296V59.2371Z" fill="black"/>
<path fill-rule="evenodd" clip-rule="evenodd" d="M100.612 57.3408C100.612 57.7911 100.364 58.449 99.2799 58.449C98.8152 58.449 98.5673 58.2672 98.5673 57.9987C98.5673 57.6362 98.7945 57.3408 99.9203 57.3408H100.612ZM98.8152 56.1737C98.8255 55.8701 99.0217 55.6284 99.6311 55.6284C100.292 55.6284 100.612 55.8009 100.612 56.4939H99.3935C97.772 56.4939 96.8011 56.9607 96.8011 57.9904C96.8011 58.8993 97.5242 59.4013 98.7635 59.4013C99.4969 59.4013 100.24 59.1927 100.643 58.5358H100.664C100.664 58.7692 100.674 59.0894 100.695 59.2371H102.306C102.275 58.9169 102.265 58.5874 102.265 58.2672V56.6054C102.265 55.1347 101.304 54.7278 99.6001 54.7278C98.464 54.7278 97.1936 55.0397 97.1007 56.1737H98.8152Z" fill="black"/>
<path fill-rule="evenodd" clip-rule="evenodd" d="M104.31 59.2371H105.973V55.9486H107.305V54.893H106.004C106.004 54.0874 106.313 53.9408 106.954 53.9408C107.119 53.9408 107.274 53.9583 107.398 53.9748V52.9885C107.222 52.9627 106.851 52.9369 106.675 52.9369C105.084 52.9369 104.31 53.2137 104.31 54.893H103.308V55.9486H104.31V59.2371Z" fill="black"/>
<path fill-rule="evenodd" clip-rule="evenodd" d="M107.997 55.9486H109.061V57.7911C109.061 58.8467 109.732 59.3404 111.003 59.3404C111.529 59.3404 111.973 59.2629 112.128 59.2371V58.1805C111.86 58.2156 111.622 58.2332 111.467 58.2332C110.796 58.2332 110.724 57.913 110.724 57.3067V55.9486H112.128V54.893H110.724V53.4037L109.061 54.01V54.893H107.997V55.9486Z" fill="black"/>
</svg>
