<svg width="207" height="64" viewBox="0 0 207 64" fill="none" xmlns="http://www.w3.org/2000/svg">
<g clip-path="url(#clip0_2_174)">
<path d="M68.2243 14.088H79.1477L87.4413 36.4277H87.6436L95.5327 14.088H105.849L92.903 47.0943H82.1819" fill="#F48F00"/>
<path d="M28.3743 22.3396H18.2601V33.4088C18.2601 35.2201 18.4624 37.6352 20.283 38.8428C22.1035 39.6478 24.1264 39.8491 26.1492 39.4465C26.9583 39.4465 27.7675 39.044 28.3743 38.6415V47.0943C27.1606 47.4969 25.7446 47.6981 24.5309 47.8994C17.2487 48.7044 7.33677 47.2956 7.33677 38.239V22.5409H0.0545349V14.088H7.13449V4.42767H18.2601V14.088H28.3743V22.3396ZM56.8964 14.088H67.0106V47.0943H56.8964V14.088ZM56.4919 5.43396C56.2896 2.61635 58.717 0 61.7512 0C64.7855 0 67.2129 2.21384 67.2129 5.2327V5.43396C67.2129 8.45283 64.5832 10.8679 61.7512 10.6667C58.9193 10.6667 56.4919 8.45283 56.4919 5.43396" fill="#007FAF"/>
<path d="M182.313 30.5912C182.313 35.0189 184.942 38.8428 189.595 38.8428C194.247 38.8428 196.877 35.0189 196.877 30.5912C196.877 26.1635 194.247 22.3396 189.595 22.3396C184.942 22.3396 182.313 26.1635 182.313 30.5912V30.5912ZM173.21 30.5912C172.805 21.5346 179.885 13.6855 188.988 13.283C194.45 13.0818 199.507 15.4969 202.946 19.7233C206.991 25.5597 207.598 33.0063 204.362 39.4465C199.911 47.4969 189.797 50.3145 181.706 45.8868C176.244 42.8679 172.805 37.0314 173.21 30.5912ZM162.287 14.0881V18.5157H162.084C161.882 18.1132 161.477 17.7107 161.073 17.3082C154.397 11.673 143.272 12.8805 139.024 20.7296C137.001 24.956 136.394 29.7862 137.203 34.4151C137.81 38.6415 139.428 43.0692 143.07 45.4843C147.317 48.1006 152.375 48.7044 157.027 46.8931C158.645 46.2893 160.061 45.0818 161.275 43.673H161.477V46.8931C161.68 49.1069 160.871 51.1195 159.455 52.7296C156.623 55.7484 150.959 55.5472 147.115 54.5409C145.092 53.9371 143.07 53.1321 141.249 51.9245L136.192 59.1698C138.619 60.9811 141.249 62.1887 144.081 62.9937C151.363 64.805 161.275 64.805 166.939 59.1698C170.176 55.9497 171.389 51.1195 171.389 44.8805V14.0881H162.287ZM159.859 36.8302C157.027 39.8491 152.375 40.0503 149.34 37.2327L148.936 36.8302C146.306 33.2075 146.306 28.3774 148.936 24.7547C151.768 21.7358 156.42 21.5346 159.455 24.3522L159.859 24.7547C162.489 28.1761 162.489 33.2075 159.859 36.8302C161.073 35.2201 158.443 38.239 159.859 36.8302Z" fill="#C94A38"/>
<path d="M31.004 14.088H41.3205V19.522H41.5228C42.3319 17.7107 43.7479 16.1006 45.3662 14.8931C48.1982 13.4843 51.4347 12.8805 54.469 13.6855V22.9434C52.4462 22.3396 47.9959 21.5346 44.9616 23.3459C42.9388 24.5535 41.5228 25.9623 41.5228 33.2075V46.8931H31.2063L31.004 14.088Z" fill="#007FAF"/>
<path d="M115.357 34.0126C113.334 35.2201 111.918 37.6352 113.738 39.6478C115.559 41.4591 118.795 41.2579 121.021 40.4528C123.65 39.8491 125.471 37.434 125.471 34.8176V32.805C125.673 32.805 117.986 32.4025 115.357 34.0126V34.0126ZM125.673 43.0692C124.459 44.6792 122.841 46.0881 121.021 46.8931C113.738 49.912 103.422 46.8931 103.22 37.8365C103.22 28.3774 113.536 26.566 121.021 26.3648H125.673C125.673 24.7547 125.066 23.1447 123.65 22.1384C122.358 21.1634 120.808 20.5867 119.19 20.4793C117.572 20.372 115.958 20.7389 114.547 21.5346C113.131 22.3396 111.918 23.1447 110.906 24.3522L105.242 18.717C107.063 16.9057 109.49 15.6981 111.918 14.6918C116.57 13.0818 121.425 12.8805 126.078 14.088C130.326 15.2956 133.36 18.717 134.169 22.9434C134.574 25.3585 134.776 27.7736 134.776 30.1887V46.8931H125.471L125.673 43.0692V43.0692Z" fill="#F48F00"/>
</g>
<defs>
<clipPath id="clip0_2_174">
<rect width="206.439" height="64" fill="white"/>
</clipPath>
</defs>
</svg>
