
<svg version="1.1" id="Layer_1" xmlns="http://www.w3.org/2000/svg" xmlns:xlink="http://www.w3.org/1999/xlink" x="0px" y="0px"
	 width="103.7px" height="48px" viewBox="0 0 103.7 48" style="enable-background:new 0 0 103.7 48;" xml:space="preserve">
<style type="text/css">
	.st0{fill:#010202;}
</style>
<title>uber</title>
<path class="st0" d="M6,31.7c0.4,1.1,1,2.1,1.8,3c0.8,0.8,1.7,1.5,2.8,1.9c1.1,0.4,2.3,0.7,3.5,0.7c1.2,0,2.3-0.2,3.4-0.7
	c1-0.4,2-1.1,2.8-1.9c0.8-0.9,1.4-1.9,1.8-3c0.4-1.2,0.7-2.5,0.7-3.9V6H28v35.4h-5.3v-3.3c-1.2,1.2-2.6,2.2-4.2,2.9
	c-1.6,0.7-3.4,1-5.2,1c-1.8,0-3.6-0.3-5.3-1c-1.6-0.6-3.1-1.6-4.3-2.8C2.6,37,1.6,35.5,1,33.8c-0.7-1.8-1-3.7-1-5.7V6h5.3v21.8
	C5.3,29.2,5.5,30.5,6,31.7z"/>
<path class="st0" d="M37.2,6v12.9c1.2-1.2,2.6-2.1,4.1-2.8c1.6-0.7,3.3-1,5-1c7.3-0.2,13.4,5.6,13.6,12.9c0,0.2,0,0.3,0,0.5
	c0,1.8-0.3,3.6-1,5.2c-1.4,3.2-3.9,5.8-7.2,7.2C50,41.7,48.1,42,46.3,42c-1.7,0-3.5-0.3-5.1-1c-1.5-0.7-2.9-1.6-4.1-2.8v3.2h-5V6
	H37.2z M37.7,32c0.4,1.1,1.1,2,1.9,2.8c0.8,0.8,1.8,1.5,2.8,1.9c1.1,0.5,2.3,0.7,3.5,0.7c2.3,0,4.6-1,6.2-2.6
	c0.8-0.8,1.4-1.8,1.9-2.8c0.5-1.1,0.7-2.3,0.7-3.5c0-1.2-0.2-2.4-0.7-3.5c-0.4-1.1-1.1-2-1.9-2.9c-0.8-0.8-1.8-1.5-2.8-1.9
	c-4.5-1.9-9.7,0.2-11.6,4.7c0,0,0,0,0,0c-0.5,1.1-0.7,2.3-0.7,3.5C37.1,29.7,37.3,30.9,37.7,32z"/>
<path class="st0" d="M62.8,23.3c0.6-1.6,1.6-3,2.8-4.3c3.8-3.9,9.6-5.1,14.6-3c1.5,0.6,2.9,1.6,4.1,2.8c1.2,1.2,2.1,2.7,2.7,4.2
	c0.7,1.7,1,3.5,1,5.3v1.7H66.8c0.3,2.1,1.4,3.9,3,5.3c1.6,1.4,3.6,2.1,5.6,2.1c2.9,0,5.7-1.4,7.4-3.8l3.7,2.7
	C84,40,79.8,42.1,75.4,42c-1.8,0-3.7-0.3-5.4-1C63.2,38.2,59.9,30.3,62.8,23.3C62.8,23.4,62.8,23.4,62.8,23.3L62.8,23.3z M69.9,21.3
	c-1.5,1.2-2.5,2.9-2.9,4.8h15.7c-0.4-1.9-1.4-3.5-2.8-4.8C77,18.9,72.8,18.9,69.9,21.3L69.9,21.3z"/>
<path class="st0" d="M97.4,21.9c-1.1,1.3-1.7,3.1-1.6,4.8v14.7h-5.1V15.6h5v3.2c0.6-1,1.5-1.9,2.5-2.5c1.1-0.6,2.4-0.9,3.7-0.9h1.8
	v4.8h-2.1C100,20.1,98.5,20.8,97.4,21.9z"/>
</svg>
