<svg width="139" height="64" viewBox="0 0 139 64" fill="none" xmlns="http://www.w3.org/2000/svg">
<g clip-path="url(#clip0_4_32)">
<path d="M8 42.2667C8.53333 43.7333 9.33333 45.0667 10.4 46.2667C11.4667 47.3333 12.6667 48.2667 14.1333 48.8C15.6 49.3333 17.2 49.7333 18.8 49.7333C20.4 49.7333 21.8667 49.4667 23.3333 48.8C24.6667 48.2667 26 47.3333 27.0667 46.2667C28.1333 45.0667 28.9333 43.7333 29.4667 42.2667C30 40.6667 30.4 38.9333 30.4 37.0667V8H37.3333V55.2H30.2667V50.8C28.6667 52.4 26.8 53.7333 24.6667 54.6667C22.5333 55.6 20.1333 56 17.7333 56C15.3333 56 12.9333 55.6 10.6667 54.6667C8.53333 53.8667 6.53333 52.5333 4.93333 50.9333C3.46667 49.3333 2.13333 47.3333 1.33333 45.0667C0.4 42.6667 0 40.1333 0 37.4667V8H7.06667V37.0667C7.06667 38.9333 7.33333 40.6667 8 42.2667Z" fill="#010202"/>
<path d="M49.6 8V25.2C51.2 23.6 53.0667 22.4 55.0667 21.4667C57.2 20.5333 59.4667 20.1333 61.7333 20.1333C71.4667 19.8667 79.6 27.6 79.8667 37.3333C79.8667 37.6 79.8667 37.7333 79.8667 38C79.8667 40.4 79.4667 42.8 78.5333 44.9333C76.6667 49.2 73.3333 52.6667 68.9333 54.5333C66.6667 55.6 64.1333 56 61.7333 56C59.4667 56 57.0667 55.6 54.9333 54.6667C52.9333 53.7333 51.0667 52.5333 49.4667 50.9333V55.2H42.8V8H49.6ZM50.2667 42.6667C50.8 44.1333 51.7333 45.3333 52.8 46.4C53.8667 47.4667 55.2 48.4 56.5333 48.9333C58 49.6 59.6 49.8667 61.2 49.8667C64.2667 49.8667 67.3333 48.5333 69.4667 46.4C70.5333 45.3333 71.3333 44 72 42.6667C72.6667 41.2 72.9333 39.6 72.9333 38C72.9333 36.4 72.6667 34.8 72 33.3333C71.4667 31.8667 70.5333 30.6667 69.4667 29.4667C68.4 28.4 67.0667 27.4667 65.7333 26.9333C59.7333 24.4 52.8 27.2 50.2667 33.2C49.6 34.6667 49.3333 36.2667 49.3333 37.8667C49.4667 39.6 49.7333 41.2 50.2667 42.6667Z" fill="#010202"/>
<path d="M83.7333 31.0666C84.5333 28.9333 85.8667 27.0666 87.4667 25.3333C92.5333 20.1333 100.267 18.5333 106.933 21.3333C108.933 22.1333 110.8 23.4666 112.4 25.0666C114 26.6666 115.2 28.6666 116 30.6666C116.933 32.9333 117.333 35.3333 117.333 37.7333V40H89.0667C89.4667 42.8 90.9333 45.2 93.0667 47.0666C95.2 48.9333 97.8667 49.8666 100.533 49.8666C104.4 49.8666 108.133 48 110.4 44.8L115.333 48.4C112 53.3333 106.4 56.1333 100.533 56C98.1333 56 95.6 55.6 93.3333 54.6666C84.2667 50.9333 79.8667 40.4 83.7333 31.0666C83.7333 31.2 83.7333 31.2 83.7333 31.0666ZM93.2 28.4C91.2 30 89.8667 32.2666 89.3333 34.8H110.267C109.733 32.2666 108.4 30.1333 106.533 28.4C102.667 25.2 97.0667 25.2 93.2 28.4Z" fill="#010202"/>
<path d="M129.867 29.2C128.4 30.9333 127.6 33.3333 127.733 35.6V55.2H120.933V20.8H127.6V25.0667C128.4 23.7333 129.6 22.5333 130.933 21.7333C132.4 20.9333 134.133 20.5333 135.867 20.5333H138.267V26.9333H135.467C133.333 26.8 131.333 27.7333 129.867 29.2Z" fill="#010202"/>
</g>
<defs>
<clipPath id="clip0_4_32">
<rect width="138.267" height="64" fill="white"/>
</clipPath>
</defs>
</svg>
