<svg width="160" height="64" viewBox="0 0 160 64" fill="none" xmlns="http://www.w3.org/2000/svg">
<path d="M1.46667 1.20002L14 15.7334L29.0667 33.2L31.7334 36.4H41.8667L35.2 48.6667L28 61.8667L27.4667 62.8H138.8L148.667 48L158.667 32.9334L138 4.40002L135.467 0.93335H68.4001C4.53334 0.93335 1.33334 0.93335 1.46667 1.20002ZM36.4 12.6667L40 17.3334C39.3413 14.2316 38.5404 11.1617 37.6 8.13335L43.2 8.00002H48.8L52.2667 12.6667L55.8667 17.3334L53.6 8.26668L53.4667 8.00002H62.2667L64.2667 18.1334L66.2667 28.4L59.8667 28.5334H53.4667L50.2667 24.6667L46.9334 20.9334L48.4 28.2667V28.5334H36.2667L30.1334 21.2L21.2 10.9334L18.6667 8.00002H32.9334L36.4 12.6667ZM82.2667 18L87.7334 28.2667C87.7334 28.5334 87.4667 28.5334 81.2001 28.5334H74.8001L70.1334 19.7334L64.6667 9.46669L63.8667 8.00002H76.9334L82.2667 18ZM97.0667 15.4667L101.067 22.9334L106.533 23.0667L111.867 23.2L112.533 24.2667L114 26.9334L114.8 28.5334H91.2001L85.8667 18.4L80.4001 8.13335L86.6667 8.00002H93.0667L97.0667 15.4667ZM127.2 8.13335C130.267 8.40002 132.667 9.20002 134.533 10.4C136.533 11.7334 138.933 14.9334 140.4 18C141.6 20.4 141.867 21.2 141.867 22.9334C141.867 24.4 141.733 24.5334 141.467 25.2C140.8 26.4 139.067 27.6 137.2 28C135.6 28.5334 133.733 28.5334 125.2 28.5334H116.8L112 19.6L106.533 9.33335L105.867 8.00002H115.867L127.2 8.13335ZM65.7334 34.8C63.1526 39.7553 60.5303 44.6888 57.8667 49.6L63.2001 49.7334H68.5334L67.0667 52.4L65.7334 55.0667H54L42.2667 54.9334L52.1334 36.4L53.0667 34.5334H59.4667C65.3334 34.5334 65.7334 34.5334 65.7334 34.8ZM90.8001 36.2667L85.3334 46.5334L80.8001 55.0667H74.4001L67.8667 54.9334L73.3334 44.6667L78.6667 34.5334H91.7334L90.8001 36.2667ZM118.933 34.6667L117.467 37.4667L116 40.4H104.533L103.733 41.8667L102.933 43.3334L108.133 43.4667H113.333L111.867 46.1334L110.533 48.8H105.2L100 48.9334L98.2667 52L96.6667 55.0667H84.2667L84.8001 54.1334L90.1334 43.8667L95.2001 34.6667C103.109 34.4184 111.024 34.4184 118.933 34.6667V34.6667ZM146 34.6667L144.667 37.2L143.333 39.7334H130.8L130.133 40.9334L129.467 42.1334C133.282 42.4243 137.109 42.5133 140.933 42.4L139.6 44.9334L138.4 47.3334H126.667L126 48.5334L125.333 49.8667H131.867L138.267 50L136.933 52.5334L135.467 55.0667H110.667L111.2 54.1334L116.133 44.8L121.067 35.4667L121.6 34.5334H133.867L146 34.6667Z" fill="black"/>
<path d="M120.933 13.3333L123.6 18.2666L126.267 23.2H127.467C129.467 23.2 130 22.8 129.733 21.7333C129.467 20.9333 126.533 15.3333 125.867 14.6666C125.6 14.2666 125.067 13.8666 124.533 13.6C123.867 13.3333 123.6 13.2 122.4 13.2L120.933 13.3333Z" fill="black"/>
</svg>
